<svg width="58" height="77" viewBox="0 0 58 77" fill="none" xmlns="http://www.w3.org/2000/svg">
<path d="M1.64167 58.2988C1.65823 58.21 1.68306 58.1212 1.68306 58.1212C1.69133 58.097 1.69133 58.0808 1.69133 58.0808C1.74927 57.887 2.12174 57.6206 2.22935 57.5479C2.2459 57.5398 2.26245 57.5237 2.27073 57.5237C3.53713 56.7243 5.13461 56.3932 5.13461 56.3932C6.66587 56.0379 7.8495 55.6261 8.66066 55.3031C9.72012 54.8833 10.8293 54.3988 12.0212 53.8739C12.7413 53.5509 13.2793 53.3087 13.2793 53.3087C14.347 52.8242 14.6616 52.6627 15.4644 52.3074C15.9776 52.0814 15.4893 52.3074 17.0785 51.6776C17.2771 51.5969 17.5834 51.4758 18.0138 51.4273C18.3118 51.395 18.5518 51.4112 18.6677 51.4192C18.6925 51.4192 18.7173 51.4273 18.7256 51.4273C18.7504 51.4273 26.8786 51.3627 39.5094 51.2497C39.5674 51.2497 39.6501 51.2497 39.7495 51.2577C39.7495 51.2577 39.9398 51.2739 40.1219 51.3223C42.5554 51.9602 43.9791 52.5416 43.9791 52.5416C45.9242 53.4863 46.9671 53.8013 48.01 54.0919C49.3261 54.4634 51.2215 54.851 52.1403 55.0448C52.1403 55.0448 53.3818 55.3031 54.8138 56.0864C55.4594 56.4417 55.7243 56.7889 55.8567 57.1442C55.8732 57.1926 55.8815 57.2249 55.8898 57.2491C54.2178 63.83 52.5541 70.4108 50.8822 76.9997C36.7449 76.9997 22.6158 76.9997 8.47856 76.9997C4.50555 66.2604 1.62512 58.3796 1.64167 58.2988Z" fill="#79BFFF"/>
<path d="M51.8169 54.9642C52.1811 55.0853 53.0916 55.4325 53.5303 56.3207C53.6627 56.5953 53.7124 56.8294 53.762 57.112C53.9607 58.3071 53.6296 59.3164 53.5303 59.6071C52.2804 63.3295 50.9064 65.2594 50.9064 65.2594C47.2479 70.3706 42.0913 76.3055 41.5036 76.9838C33.1686 76.9838 24.8335 76.9838 16.4985 76.9838C13.3946 73.7943 11.1266 71.0893 9.59536 69.1433C8.87525 68.2308 8.04754 67.0116 6.4004 64.573C6.4004 64.573 5.29126 62.9339 4.27318 60.3581C4.06625 59.8251 3.87588 59.2357 3.9421 58.4847C4.02487 57.5481 4.48011 56.8537 4.77808 56.4661C4.99329 56.4176 5.29954 56.345 5.65546 56.2561C6.69837 55.9897 7.57575 55.6909 8.36207 55.4002C9.75263 54.8915 10.8038 54.407 12.0123 53.8499C13.1297 53.3412 14.2471 52.8325 15.3645 52.3238C15.886 52.0815 16.4323 51.92 16.962 51.702C17.1689 51.6132 17.5166 51.4679 18.0049 51.4113C18.3029 51.379 18.5264 51.3952 18.5677 51.3952C19.1389 51.4275 26.6379 51.371 39.7489 51.2337C40.0055 51.2902 40.3614 51.371 40.7918 51.4759C41.5036 51.6617 42.6128 51.9443 43.8791 52.4691C44.7482 52.8244 44.7565 52.9132 45.7415 53.3008C46.0478 53.4219 46.5692 53.6157 47.2231 53.8257C48.0094 54.076 48.5888 54.2132 49.4496 54.4232C50.4098 54.6816 51.2209 54.8431 51.8169 54.9642Z" fill="#4CA9FF"/>
<path d="M19.2803 52.1864C22.7567 52.0572 26.233 51.928 29.7094 51.7908C32.267 52.4287 34.8329 53.0666 37.3906 53.7045C34.6922 60.0996 31.9939 66.4866 29.2956 72.8818C25.9599 65.986 22.6242 59.0822 19.2803 52.1864Z" fill="#89BCEC"/>
<path d="M25.777 56.0704C26.1744 58.4766 26.5799 60.8909 26.9772 63.2971C28.4092 62.0214 29.8494 60.7456 31.2813 59.4698C31.6207 58.0729 31.96 56.6679 32.3077 55.271C32.0511 54.6734 31.7945 54.084 31.5379 53.4865C29.5266 53.8014 27.5152 54.1163 25.5039 54.4312C25.6032 54.9722 25.686 55.5213 25.777 56.0704Z" fill="#BDCADE"/>
<path d="M4.99353 76.9837C4.58795 76.2247 2.95736 73.124 1.81512 69.8861C1.18606 68.1097 0.689428 66.2283 0.399729 65.1382C0.283849 64.7102 -0.0306815 63.4667 0.00242711 61.9083C0.0107043 61.6419 0.0272586 61.0847 0.217632 60.3984C0.242464 60.3096 0.441115 59.6313 0.970851 58.8884C1.3516 58.3474 1.5337 58.307 1.6413 58.307C1.99721 58.307 2.24553 58.7592 2.28691 58.8238C2.49384 59.2356 2.81665 59.8816 3.20567 60.6729C3.95061 62.2071 5.29151 65.0171 7.98157 71.4849C8.55269 72.8575 9.33074 74.7389 10.2329 76.9918C8.48648 76.9837 6.74 76.9837 4.99353 76.9837Z" fill="#1C92FF"/>
<path d="M52.7114 76.9838C53.1335 75.8372 53.4812 74.9086 53.7129 74.2868C54.9793 70.8955 56.2044 67.496 57.5121 64.1208C57.5701 63.9674 57.7439 63.5314 57.7936 62.9339C57.8267 62.5624 57.8101 62.2233 57.7356 61.7711C57.6777 61.3916 57.4873 60.35 56.7506 58.6785C56.1133 57.2412 55.8815 57.1928 55.7905 57.2089C55.6746 57.2251 55.5918 57.3785 55.5505 57.5077C54.4165 60.3661 53.3074 63.3941 52.2396 66.5836C51.0312 70.193 50.0048 73.6651 49.1191 76.9838C50.311 76.9838 51.5112 76.9838 52.7114 76.9838Z" fill="#1C92FF"/>
<path d="M13.4111 53.2288C14.2968 54.1009 15.0748 54.7307 15.6211 55.1506C15.6211 55.1506 16.9289 56.2326 18.7416 58.1221C18.8161 58.1947 18.932 58.3481 18.9568 58.55C18.9816 58.76 18.8906 58.9215 18.8326 59.0183C18.4684 59.6401 18.0629 60.06 18.0629 60.06C17.8146 60.3184 17.4586 60.6898 17.0282 61.1824C21.1171 65.0824 25.206 68.9825 29.3032 72.8825C28.4258 70.9123 27.2008 68.1427 25.7026 64.7998C23.7161 60.3587 22.8222 58.4531 21.4896 55.9984C20.6039 54.3754 19.8259 53.0593 19.2962 52.1791C18.9982 51.9127 18.7002 51.6462 18.4105 51.3797C18.2864 51.3878 18.1374 51.3959 17.9718 51.4201C17.947 51.4201 17.7401 51.4524 17.5166 51.5089C17.0117 51.6462 16.4819 51.8965 16.4819 51.8965C15.8777 52.1791 16.0681 52.0419 14.8845 52.5506C14.4375 52.7524 13.9491 52.9704 13.4111 53.2288Z" fill="#1C92FF"/>
<path d="M39.7489 51.2498C39.8068 51.2659 39.8896 51.2821 39.9972 51.3063C40.1379 51.3386 40.4607 51.4112 40.8829 51.5243C41.1808 51.605 41.6526 51.7262 42.1079 51.8634C42.5714 52.0088 43.2087 52.2268 43.9702 52.574C43.0101 53.2926 41.992 54.1082 40.9491 55.0287C39.9641 55.9007 39.0867 56.7647 38.3004 57.5883C38.2838 57.6045 38.0107 57.8548 38.0769 58.1536C38.0935 58.2424 38.1431 58.3151 38.1845 58.3635C38.3583 58.6138 38.5653 58.8803 38.8053 59.1629C39.0702 59.4617 39.3268 59.72 39.5668 59.9381C39.0702 60.6567 38.3418 61.7226 37.4396 62.9984C37.4396 62.9984 35.8173 65.2996 33.1686 68.7798C32.5395 69.6034 31.778 70.5966 30.5778 71.7513C30.0564 72.2519 29.6011 72.6475 29.2783 72.9059C31.9767 66.5108 34.675 60.1238 37.3734 53.7287C38.1762 52.8889 38.9626 52.0653 39.7489 51.2498Z" fill="#1C92FF"/>
<path d="M29.2951 72.8817C29.2702 66.0021 29.2454 59.1225 29.2123 52.243C28.3432 53.2038 27.4824 54.1728 26.6133 55.1337C26.9195 55.4163 27.2258 55.6989 27.532 55.9734C27.2506 59.6555 26.9692 63.3456 26.6878 67.0276C27.5569 68.9817 28.426 70.9358 29.2951 72.8817Z" fill="#79BFFF"/>
<path d="M29.2207 52.243C30.156 53.1554 31.0996 54.0759 32.0349 54.9883C31.679 55.4082 31.3231 55.82 30.9672 56.2399C31.3065 59.6716 31.6459 63.0953 31.977 66.527C31.083 68.6506 30.1891 70.7662 29.2952 72.8898C29.2704 66.0022 29.2455 59.1226 29.2207 52.243Z" fill="#4CA9FF"/>
<path d="M46.7017 68.4487C46.1555 68.8606 45.6092 69.2724 45.0629 69.6761C43.7385 69.6842 42.4059 69.6842 41.0816 69.6922C40.5767 69.2966 40.0635 68.8928 39.5586 68.4972C39.5751 66.9792 39.5917 65.4692 39.6 63.9512C41.9838 63.9431 44.3676 63.9431 46.7514 63.935C46.7349 65.4369 46.7183 66.9388 46.7017 68.4487Z" fill="#0084FF"/>
<path d="M46.3213 64.1369C46.3213 65.5015 46.313 66.8741 46.313 68.2387C45.8578 68.594 45.4025 68.9574 44.9473 69.3127C43.7554 69.3207 42.5635 69.3288 41.3716 69.3369C40.9163 68.9735 40.4611 68.6102 40.0059 68.2468C42.1082 66.8822 44.2189 65.5095 46.3213 64.1369Z" fill="#0F8CFF"/>
<path d="M29.2209 52.243C27.7393 53.8903 26.2577 55.5375 24.7761 57.1847C22.6489 55.2549 20.5216 53.317 18.4027 51.3871C18.4027 51.3387 18.4027 51.2741 18.4193 51.2095C18.4441 51.1207 18.4772 51.0561 18.502 51.0076C19.1476 49.9983 19.7933 48.997 20.4306 47.9877C20.4306 47.9312 20.4306 47.8666 20.4306 47.8101C19.6939 47.592 18.651 47.2529 17.4591 46.7361C15.6464 45.9529 11.839 44.2572 8.70193 40.446C6.60782 37.9024 5.51524 35.2782 4.92756 33.2353C4.51371 33.1303 3.83499 32.8962 3.18109 32.3552C3.02383 32.2179 1.625 31.0309 1.625 29.3191C1.625 27.6638 2.94106 26.065 4.89446 25.4675C5.53179 23.0612 6.47539 21.2848 7.19549 20.122C10.7464 14.4536 16.3334 12.1523 18.5269 11.2884C19.0731 11.0703 20.7534 10.4324 23.1289 9.93989C26.0921 9.32622 31.166 8.72869 37.6222 10.2871C38.9465 10.6262 40.8088 11.1995 42.8947 12.2331C48.7052 15.1077 51.6767 19.4115 51.6767 19.4115C52.5044 20.6065 53.6632 22.5767 54.4081 25.3302C54.8634 25.4352 55.7242 25.6936 56.5188 26.4041C56.7837 26.6383 58.1163 27.8253 57.9921 29.5694C57.8845 31.0632 56.7919 31.9837 56.3284 32.3794C55.5669 33.0254 54.7723 33.308 54.284 33.4452C53.8784 34.7937 53.39 35.9484 52.8934 36.9173C52.8934 36.9173 52.2644 38.1285 51.4615 39.2671C49.3922 42.1901 45.1543 45.8237 39.4017 47.6566C38.4995 47.9473 37.7629 48.125 37.3821 48.2138C37.3821 48.2622 37.3821 48.3188 37.3821 48.3672C38.1684 49.3362 38.963 50.3051 39.7494 51.2822C37.887 53.2282 36.0247 55.1661 34.1623 57.1121C32.5152 55.4648 30.868 53.858 29.2209 52.243Z" fill="#F9F9F9"/>
<path d="M18.7666 51.3226C19.4536 50.176 20.1406 49.0294 20.8276 47.8747C22.0195 50.7331 23.2197 53.5835 24.4116 56.4419C22.5327 54.7382 20.6455 53.0263 18.7666 51.3226Z" fill="#ECECEC"/>
<path d="M39.3356 51.2256C37.6554 52.9697 35.9752 54.7058 34.2949 56.4499C35.2799 53.8499 36.2731 51.2418 37.2581 48.6417C37.9534 49.4976 38.6487 50.3616 39.3356 51.2256Z" fill="#ECECEC"/>
<path d="M15.6883 29.3675C15.68 31.8384 7.32014 35.1328 3.63684 32.4601C3.32231 32.234 1.79932 31.0632 1.79105 29.3595C1.78277 27.583 3.43819 26.3638 3.71961 26.17C7.45258 23.5457 15.7048 26.9048 15.6883 29.3675Z" fill="url(#paint0_linear)"/>
<path d="M53.1252 26.0488C53.9529 26.2103 54.5737 26.4929 54.9793 26.7109C55.6746 27.0904 56.4775 27.5345 56.8251 28.447C57.0652 29.0768 56.9658 29.6501 56.9244 29.8439C56.5934 31.4265 54.822 32.121 54.433 32.2744C53.8619 32.5005 53.357 32.5651 53.0342 32.5893C53.059 30.4091 53.0921 28.229 53.1252 26.0488Z" fill="#D5D5D5"/>
<path d="M30.04 48.335C30.0566 36.5944 30.0649 24.8539 30.0814 13.1133C32.5563 12.4027 35.0311 11.6922 37.506 10.9816C38.3586 11.24 39.5339 11.6356 40.8748 12.2332C41.8432 12.6692 44.914 14.0742 47.4799 16.4562C48.4318 17.3444 53.4726 22.0116 53.4477 29.1576C53.4312 33.3403 51.693 36.3683 50.9398 37.6441C48.349 42.0287 44.6409 44.1119 42.5633 45.2424C37.5226 47.9716 32.6887 48.343 30.04 48.335Z" fill="#DCDCDC"/>
<path d="M21.332 48.0362C22.226 48.6983 22.9957 49.2231 23.5668 49.5946C24.9822 50.5232 25.8762 51.1045 27.1674 51.6132C28.0034 51.9443 28.7235 52.13 29.2118 52.2431C29.2036 51.2176 29.2036 50.2002 29.1953 49.1747C28.3345 49.1828 27.3991 49.1424 26.3976 49.0455C24.4525 48.8517 22.7474 48.4641 21.332 48.0362Z" fill="#F2DDCC"/>
<path d="M29.2041 49.1747C30.1146 49.207 31.1161 49.199 32.2004 49.1182C33.9303 48.989 35.4533 48.6903 36.7197 48.3673C36.0741 48.9002 35.5112 49.312 35.0974 49.5946C34.1124 50.2648 32.5977 51.2903 30.4457 51.9363C29.9325 52.0897 29.5104 52.1866 29.2207 52.2431C29.2124 51.2257 29.2041 50.2002 29.2041 49.1747Z" fill="#EED5C0"/>
<path d="M50.5339 37.3453C49.8965 32.226 48.5556 27.2116 47.6038 22.1407C47.5789 21.9954 47.5044 21.5836 47.1816 21.2444C46.6271 20.6631 45.7083 20.6792 45.3855 20.6792C43.937 20.6954 38.0437 20.6711 29.9239 20.6792C21.7212 20.655 15.7369 20.6792 14.2719 20.6792C13.9739 20.6792 13.171 20.6792 12.6495 21.196C12.2771 21.5674 12.2109 22.0438 12.1777 22.2053C10.4395 30.5061 9.22281 36.5944 9.12349 37.3373C9.09866 37.5068 9.05727 37.8944 9.2642 38.2659C9.32214 38.3789 9.4463 38.5565 9.83532 38.8472C10.1085 39.041 10.5306 39.3075 11.1183 39.5174C11.8053 39.7597 12.335 39.8969 12.3847 39.905C17.2764 40.9951 20.1072 41.3019 20.1072 41.3019C22.251 41.5361 23.8981 41.6088 25.2142 41.6653C26.0171 41.6976 27.5732 41.7541 29.8328 41.746C33.1437 41.738 35.9165 41.7299 39.575 41.3342C43.4238 40.7851 46.2711 40.2522 47.2561 39.9696C47.7693 39.8243 48.4066 39.5739 48.5473 39.5174C49.0605 39.3156 49.4413 39.1298 49.8303 38.8472C50.2276 38.5565 50.3435 38.3789 50.4014 38.2659C50.6084 37.8863 50.5587 37.4988 50.5339 37.3453Z" fill="#535353"/>
<path d="M48.8789 36.7074C48.7547 35.5769 47.7036 31.0471 47.4221 29.6825C46.9503 27.4216 46.4868 25.1526 46.0233 22.8836C45.9819 22.7463 45.8743 22.4637 45.5929 22.2296C45.1625 21.8581 44.6576 21.8662 44.5417 21.8743C40.0886 21.8743 35.6272 21.8662 31.1742 21.8662C30.752 21.8662 30.3382 21.8662 29.916 21.8662C29.4939 21.8662 29.08 21.8662 28.6579 21.8662C24.2048 21.8662 19.7435 21.8743 15.2904 21.8743C15.1745 21.8662 14.6613 21.8581 14.2392 22.2296C13.966 22.4718 13.8502 22.7544 13.8088 22.8836C13.428 24.119 12.5341 28.9961 12.4099 29.6825C12.4017 29.7309 12.054 31.362 10.9035 36.6912C10.887 36.7962 10.8621 36.9739 10.9035 37.1757C10.9449 37.4099 11.0442 37.5795 11.0939 37.6602C11.5988 38.4919 12.8735 38.7907 13.1549 38.8552C15.5387 39.4447 16.2422 39.5577 16.2422 39.5577C18.6095 39.9372 19.7931 40.123 19.8676 40.131C23.4102 40.5751 26.2907 40.6317 28.5834 40.6559C29.0718 40.664 29.527 40.664 29.9326 40.664C30.3382 40.664 30.7934 40.664 31.2818 40.6559C33.5745 40.6236 36.455 40.5751 39.9976 40.131C40.0721 40.123 41.2557 39.9292 43.6229 39.5577C43.6229 39.5577 44.3265 39.4447 46.7103 38.8552C47.3063 38.6534 47.7449 38.395 48.0181 38.2012C48.3823 37.9428 48.7382 37.6844 48.8706 37.2403C48.912 36.9981 48.8872 36.7962 48.8789 36.7074Z" fill="#FFE9D7"/>
<path d="M14.6357 21.9873C24.5517 27.793 34.4594 33.5906 44.3754 39.3963C45.0955 39.2429 45.6997 39.0975 46.1633 38.9764C46.5854 38.8714 46.8254 38.8068 47.1399 38.6696C47.6035 38.4677 47.9014 38.2497 48.1498 38.072C48.4726 37.8379 48.5719 37.7087 48.6464 37.6037C48.8285 37.3292 48.8699 37.0788 48.8781 37.0304C48.8947 36.8931 48.8864 36.7801 48.8781 36.6993C48.3898 34.3577 47.9014 32.016 47.4214 29.6744C46.9496 27.4135 46.4861 25.1445 46.0225 22.8755C45.9977 22.7948 45.9563 22.6898 45.8901 22.5768C45.7742 22.383 45.6501 22.2699 45.5921 22.2215C45.5425 22.173 45.3521 22.0196 45.0541 21.9308C44.8472 21.8662 44.6734 21.8662 44.6072 21.8662C44.1933 21.8662 31.9432 21.8662 15.1903 21.8662C15.1655 21.8662 15.1241 21.8662 15.0744 21.8743C14.9585 21.8823 14.8675 21.9066 14.8178 21.9227C14.7682 21.9469 14.7102 21.9631 14.6357 21.9873Z" fill="#F8DEC8"/>
<path d="M20.9844 36.8205C23.5306 36.8205 25.5947 34.8068 25.5947 32.3229C25.5948 29.8389 23.5306 27.8253 20.9844 27.8253C18.4382 27.8253 16.374 29.8389 16.374 32.3229C16.374 34.8068 18.4382 36.8205 20.9844 36.8205Z" fill="white"/>
<path d="M21.3159 36.8043C20.9269 36.7397 20.364 36.6025 19.7432 36.3037C19.3046 36.0938 18.6921 35.8031 18.1706 35.2056C17.1691 34.0509 17.2767 32.6136 17.2932 32.3956C17.4257 30.9341 18.3444 30.0459 18.601 29.8117C18.8907 29.5452 19.735 28.867 21.0179 28.762C22.0112 28.6813 22.7892 28.9881 23.1534 29.1657C24.4364 29.7875 24.9578 30.8776 25.1068 31.2005C25.5041 32.0565 25.5124 32.8397 25.4875 33.2596C25.5951 33.2757 25.6945 33.2838 25.8021 33.2999C25.8352 32.662 25.8683 32.0322 25.9014 31.3943C25.5124 30.6111 25.1151 29.8198 24.726 29.0365C23.9232 28.5682 23.112 28.0999 22.3091 27.6316C21.4235 27.5912 20.5461 27.5589 19.6605 27.5185C19.0894 27.793 18.5265 28.0676 17.9554 28.3421C17.4339 28.98 16.9208 29.626 16.3993 30.2639C16.2751 30.9341 16.1427 31.5962 16.0186 32.2664C16.1675 32.9285 16.3165 33.5906 16.4655 34.2528C16.9042 34.8503 17.3512 35.4478 17.7898 36.0453C18.2285 36.2714 18.6755 36.4975 19.1142 36.7236C19.6025 36.8366 20.0992 36.9497 20.5875 37.0627C20.8358 36.9739 21.0759 36.8851 21.3159 36.8043Z" fill="#EBEBEB"/>
<path d="M20.9761 34.8826C21.3555 34.8826 21.6631 33.7655 21.6631 32.3875C21.6631 31.0095 21.3555 29.8924 20.9761 29.8924C20.5966 29.8924 20.2891 31.0095 20.2891 32.3875C20.2891 33.7655 20.5966 34.8826 20.9761 34.8826Z" fill="#4E4E4E"/>
<path d="M21.0014 26.7918C17.972 26.7918 15.5137 29.1899 15.5137 32.1452C15.5137 35.1006 17.972 37.4987 21.0014 37.4987C24.0308 37.4987 26.4891 35.1006 26.4891 32.1452C26.4891 29.1899 24.0308 26.7918 21.0014 26.7918ZM20.9848 36.8124C18.4438 36.8124 16.3745 34.8018 16.3745 32.3148C16.3745 29.8278 18.4355 27.8172 20.9848 27.8172C23.5259 27.8172 25.5952 29.8278 25.5952 32.3148C25.5952 34.8018 23.5342 36.8124 20.9848 36.8124Z" fill="#4E4E4E"/>
<path d="M39.1689 36.8204C41.7152 36.8204 43.7793 34.8067 43.7793 32.3228C43.7793 29.8389 41.7152 27.8252 39.1689 27.8252C36.6227 27.8252 34.5586 29.8389 34.5586 32.3228C34.5586 34.8067 36.6227 36.8204 39.1689 36.8204Z" fill="white"/>
<path d="M38.8385 36.8042C39.2275 36.7396 39.7903 36.6023 40.4111 36.3035C40.8498 36.0936 41.4623 35.8029 41.9838 35.2054C42.9853 34.0507 42.8777 32.6134 42.8611 32.3954C42.7287 30.9339 41.8099 30.0457 41.5534 29.8115C41.2637 29.5451 40.4194 28.8668 39.1364 28.7618C38.1432 28.6811 37.3651 28.9879 37.0009 29.1656C35.718 29.7873 35.1965 30.8774 35.0475 31.2004C34.6502 32.0563 34.642 32.8395 34.6668 33.2594C34.5592 33.2756 34.4599 33.2836 34.3523 33.2998C34.3191 32.6619 34.286 32.0321 34.2529 31.3942C34.642 30.6109 35.0393 29.8196 35.4283 29.0364C36.2312 28.568 37.0423 28.0997 37.8452 27.6314C38.7309 27.591 39.6082 27.5587 40.4939 27.5183C41.065 27.7929 41.6278 28.0674 42.199 28.342C42.7204 28.9798 43.2336 29.6258 43.7551 30.2637C43.8792 30.9339 44.0117 31.596 44.1358 32.2662C43.9868 32.9283 43.8378 33.5905 43.6889 34.2526C43.2502 34.8501 42.8032 35.4476 42.3645 36.0452C41.9258 36.2712 41.4789 36.4973 41.0402 36.7234C40.5518 36.8365 40.0552 36.9495 39.5668 37.0626C39.3268 36.9737 39.0785 36.8849 38.8385 36.8042Z" fill="#EBEBEB"/>
<path d="M39.1782 34.8824C39.5576 34.8824 39.8652 33.7653 39.8652 32.3873C39.8652 31.0093 39.5576 29.8922 39.1782 29.8922C38.7988 29.8922 38.4912 31.0093 38.4912 32.3873C38.4912 33.7653 38.7988 34.8824 39.1782 34.8824Z" fill="#4E4E4E"/>
<path d="M33.665 32.1371C33.665 35.0924 36.1233 37.4906 39.1528 37.4906C42.1822 37.4906 44.6405 35.0924 44.6405 32.1371C44.6405 29.1818 42.1822 26.7836 39.1528 26.7836C36.1233 26.7836 33.665 29.1818 33.665 32.1371ZM34.559 32.3228C34.559 29.8439 36.62 27.8253 39.1693 27.8253C41.7104 27.8253 43.7797 29.8358 43.7797 32.3228C43.7797 34.8098 41.7187 36.8204 39.1693 36.8204C36.6282 36.8123 34.559 34.8017 34.559 32.3228Z" fill="#4E4E4E"/>
<path d="M28.6573 39.049C28.9179 39.049 29.1291 38.843 29.1291 38.5888C29.1291 38.3346 28.9179 38.1285 28.6573 38.1285C28.3968 38.1285 28.1855 38.3346 28.1855 38.5888C28.1855 38.843 28.3968 39.049 28.6573 39.049Z" fill="#F0B888"/>
<path d="M31.0089 39.049C31.2695 39.049 31.4807 38.843 31.4807 38.5888C31.4807 38.3346 31.2695 38.1285 31.0089 38.1285C30.7483 38.1285 30.5371 38.3346 30.5371 38.5888C30.5371 38.843 30.7483 39.049 31.0089 39.049Z" fill="#F0B888"/>
<path d="M28.4262 47.4547C28.9017 47.4547 29.2871 47.0787 29.2871 46.615C29.2871 46.1512 28.9017 45.7752 28.4262 45.7752C27.9508 45.7752 27.5654 46.1512 27.5654 46.615C27.5654 47.0787 27.9508 47.4547 28.4262 47.4547Z" fill="#4CA9FF"/>
<path d="M28.3849 47.374C28.8374 47.374 29.2043 47.0161 29.2043 46.5746C29.2043 46.1331 28.8374 45.7752 28.3849 45.7752C27.9323 45.7752 27.5654 46.1331 27.5654 46.5746C27.5654 47.0161 27.9323 47.374 28.3849 47.374Z" fill="#4CA9FF"/>
<path d="M30.0816 47.1157C30.3468 47.1157 30.5617 46.906 30.5617 46.6473C30.5617 46.3887 30.3468 46.179 30.0816 46.179C29.8165 46.179 29.6016 46.3887 29.6016 46.6473C29.6016 46.906 29.8165 47.1157 30.0816 47.1157Z" fill="#555555"/>
<path d="M30.0568 47.0672C30.3082 47.0672 30.512 46.8684 30.512 46.6231C30.512 46.3778 30.3082 46.179 30.0568 46.179C29.8054 46.179 29.6016 46.3778 29.6016 46.6231C29.6016 46.8684 29.8054 47.0672 30.0568 47.0672Z" fill="#7F7F7F"/>
<path d="M31.2574 47.1157C31.5225 47.1157 31.7375 46.906 31.7375 46.6473C31.7375 46.3887 31.5225 46.179 31.2574 46.179C30.9923 46.179 30.7773 46.3887 30.7773 46.6473C30.7773 46.906 30.9923 47.1157 31.2574 47.1157Z" fill="#555555"/>
<path d="M31.2326 47.0672C31.484 47.0672 31.6878 46.8684 31.6878 46.6231C31.6878 46.3778 31.484 46.179 31.2326 46.179C30.9812 46.179 30.7773 46.3778 30.7773 46.6231C30.7773 46.8684 30.9812 47.0672 31.2326 47.0672Z" fill="#7F7F7F"/>
<path d="M24.5853 8.80139C24.3204 8.85792 23.8983 8.98711 23.4679 9.28587C23.203 9.47159 22.4746 9.98029 22.4746 10.6343C22.4746 10.7232 22.4912 11.1511 23.0954 11.6598C24.8419 13.1456 29.0549 13.2425 29.8743 13.2505C30.0895 13.2505 30.2468 13.2505 30.3047 13.2505C31.3477 13.2505 32.8624 13.2344 34.5923 12.766C35.569 12.4996 35.9994 12.2654 36.1153 12.2008C36.7195 11.8536 37.5224 11.3853 37.5638 10.6586C37.6134 9.76228 36.4546 9.10823 36.3553 9.05171C36.0822 8.89829 35.8256 8.82562 35.6435 8.79332C31.9519 8.80139 28.2686 8.80139 24.5853 8.80139Z" fill="#4CA9FF"/>
<path d="M24.5526 9.30201C24.4782 9.32624 24.3623 9.36661 24.2464 9.44736C24.1802 9.49581 23.9981 9.63308 23.9153 9.86725C23.9153 9.86725 23.8325 10.1014 23.9236 10.384C24.0229 10.7151 24.6685 11.353 27.0192 11.7083C27.88 11.8375 28.6664 11.8859 30.1563 11.8698C33.285 11.8375 34.8163 11.6033 35.7681 10.8443C35.9833 10.6747 36.3806 10.3437 36.331 9.95607C36.273 9.53618 35.7267 9.31009 35.6274 9.26971C31.9276 9.27779 28.236 9.29394 24.5526 9.30201Z" fill="#2B89E0"/>
<path d="M35.6515 0.823593L24.585 0.823593L24.585 10.2952L35.6514 10.2952L35.6515 0.823593Z" fill="#DBDBDB"/>
<path d="M24.585 10.2952C24.5932 10.3356 24.6181 10.4002 24.6595 10.4728C24.7505 10.6263 24.8912 10.6989 24.9657 10.7312C25.4541 10.9735 25.7851 11.0542 25.7851 11.0542C26.2404 11.1673 26.4721 11.2238 26.8281 11.2884C27.333 11.3691 27.7882 11.4176 28.2186 11.4499C28.6904 11.4822 29.1208 11.4902 29.9651 11.4983C31.3556 11.5145 31.7778 11.4983 32.0426 11.4822C32.5558 11.4499 32.8786 11.4095 33.1187 11.3691C33.2676 11.3449 33.4084 11.3207 33.5325 11.2964C33.7063 11.2641 33.905 11.2157 34.2112 11.135C34.5589 11.0461 35.0555 10.9008 35.3452 10.7151C35.4197 10.6666 35.5273 10.594 35.5852 10.4648C35.6183 10.4002 35.6349 10.3356 35.6432 10.2952C31.9599 10.2952 28.2683 10.2952 24.585 10.2952Z" fill="#E2E2E2"/>
<path d="M35.2952 10.0852C35.2952 7.05719 35.2952 4.0292 35.2952 1.00929C31.8519 4.10188 28.4086 7.20253 24.9736 10.2951C25.2551 10.4082 25.6524 10.5454 26.1324 10.6827C27.2084 10.9734 28.0527 11.0218 28.9384 11.0622C30.0558 11.1187 30.8752 11.0622 31.7029 11.0138C33.3832 10.9007 34.0039 10.715 34.4923 10.5051C34.8399 10.3597 35.1131 10.1982 35.2952 10.0852Z" fill="#E2E2E2"/>
<path d="M29.2619 4.06953L27.6064 4.06953L27.6064 6.09631L29.2619 6.09631L29.2619 4.06953Z" fill="#959593"/>
<path d="M32.6388 4.06953L30.9834 4.06953L30.9834 6.09631L32.6388 6.09631L32.6388 4.06953Z" fill="#959593"/>
<path d="M30.4365 7.29939L28.7148 7.29939L28.7148 8.4057L30.4365 8.4057L30.4365 7.29939Z" fill="#FBFBFF"/>
<path d="M31.5627 7.29939L30.4287 7.29939L30.4287 8.4057L31.5627 8.4057L31.5627 7.29939Z" fill="#CACACF"/>
<path d="M35.6524 0L24.5859 0L24.5859 0.823594L35.6524 0.823594L35.6524 0Z" fill="#BFBFBF"/>
<defs>
<linearGradient id="paint0_linear" x1="1.78875" y1="29.3351" x2="15.6918" y2="29.3351" gradientUnits="userSpaceOnUse">
<stop stop-color="#F4F4F4"/>
<stop offset="1" stop-color="#F4F4F4" stop-opacity="0.1"/>
</linearGradient>
</defs>
</svg>
