<?xml version="1.0" encoding="UTF-8"?>
<svg id="Layer_1" data-name="Layer 1" xmlns="http://www.w3.org/2000/svg" viewBox="0 0 79 711">
  <defs>
    <style>
      .cls-1 {
        opacity: .2;
      }

      .cls-2, .cls-3 {
        stroke: #fff;
        stroke-miterlimit: 10;
      }

      .cls-2, .cls-3, .cls-4 {
        fill: none;
      }

      .cls-3 {
        stroke-width: 1.79px;
      }

      .cls-4, .cls-5, .cls-6 {
        stroke-width: 0px;
      }

      .cls-5, .cls-6 {
        fill: #fff;
      }

      .cls-6 {
        fill-rule: evenodd;
      }

      .cls-7 {
        opacity: .6;
      }
    </style>
  </defs>
  <g>
    <path class="cls-5" d="m55.03,49.31c-1.39,0-2.51,1.13-2.51,2.52,0,.35.07.69.21,1.01l-15.46,15.46-3.97-3.97v-18.98h5.29c.45,1.31,1.89,2.01,3.2,1.56,1.31-.45,2.01-1.89,1.56-3.2-.45-1.31-1.89-2.01-3.2-1.56-.69.24-1.24.76-1.51,1.44h-5.32v-2.5h10.18c.46,1.31,1.89,1.99,3.2,1.53,1.31-.46,1.99-1.89,1.53-3.2-.46-1.31-1.89-1.99-3.2-1.53-.67.24-1.21.75-1.49,1.41h-10.22v-2.4h15.42c.49,1.3,1.95,1.95,3.24,1.45,1.3-.49,1.95-1.95,1.45-3.24s-1.95-1.95-3.24-1.45c-.67.26-1.2.78-1.45,1.45h-15.42v-4.49l3.78-4.11-1.32-1.21-14.37,15.66v24.47l9.37,9.37h0l1.26,1.26h11.9l6.98-6.98c1.26.58,2.75.03,3.33-1.23.58-1.26.03-2.75-1.23-3.33s-2.75-.03-3.33,1.23c-.15.33-.23.69-.23,1.06,0,.34.07.69.21,1l-6.47,6.47h-3.02l12.1-12.1c1.25.6,2.75.07,3.35-1.18.6-1.25.07-2.75-1.18-3.35-1.25-.6-2.75-.07-3.35,1.18-.31.65-.33,1.39-.05,2.06l-13.4,13.4h-3.84l.82-.82,1.26-1.26,18.09-18.09c1.27.57,2.75,0,3.32-1.26.57-1.27,0-2.75-1.26-3.32-.32-.15-.68-.22-1.03-.22m-14.06-6.24c.8,0,1.46.65,1.46,1.45s-.65,1.46-1.45,1.46-1.46-.65-1.46-1.45c0,0,0,0,0,0,0-.8.65-1.45,1.45-1.45m4.9-4.28c.8,0,1.46.65,1.46,1.45s-.65,1.46-1.45,1.46-1.46-.65-1.46-1.45c0,0,0,0,0,0,0-.8.65-1.45,1.45-1.45m5.24-4.24c.8,0,1.46.65,1.46,1.45,0,.8-.65,1.46-1.45,1.46-.8,0-1.46-.65-1.46-1.45,0,0,0,0,0,0,0-.8.65-1.45,1.45-1.45m2.27,23.92c.8,0,1.46.65,1.46,1.45,0,.8-.65,1.46-1.45,1.46-.8,0-1.46-.65-1.46-1.45,0,0,0,0,0,0,0-.8.65-1.45,1.45-1.45m-1.4,6.89c.8,0,1.45.65,1.45,1.45,0,.8-.65,1.45-1.45,1.45-.8,0-1.45-.65-1.45-1.45,0,0,0,0,0,0,0-.8.65-1.45,1.45-1.45,0,0,0,0,0,0m-19.94,8.2l-8.85-8.86v-23.03l3.08-3.35v26.78h0l7.11,7.11-1.34,1.35Zm-3.97-9.19v-28.01l3.48-3.79v32.52l4.46,4.49-1.37,1.37-6.57-6.59Zm26.95-11.08c-.8,0-1.46-.65-1.46-1.45,0-.8.65-1.46,1.45-1.46.8,0,1.46.65,1.46,1.45,0,0,0,0,0,0,0,.8-.65,1.45-1.45,1.45"/>
    <path class="cls-5" d="m22.64,35.41l8.12-8.84h0v-.02l3.35-3.65-1.32-1.21-1.98,2.16v-9.07h22.03c.49,1.3,1.95,1.95,3.24,1.45,1.3-.49,1.95-1.95,1.45-3.24s-1.95-1.95-3.24-1.45c-.67.26-1.2.78-1.45,1.45h-28.55l2.1-2.29h19.74c.49,1.3,1.95,1.95,3.24,1.45,1.3-.49,1.95-1.95,1.45-3.24s-1.95-1.95-3.24-1.45c-.67.26-1.2.78-1.45,1.45h-18.1l2.34-2.55h8.94c.49,1.3,1.95,1.95,3.25,1.46,1.3-.49,1.95-1.95,1.46-3.25-.49-1.3-1.95-1.95-3.25-1.46-.67.26-1.2.79-1.46,1.46h-9.72l-8.29,9.03c.02,7.05.03,14.11.03,21.19v2.05c.44-.48.88-.96,1.32-1.44M55.2,12.43c.8,0,1.46.65,1.46,1.45,0,.8-.65,1.46-1.45,1.46-.8,0-1.46-.65-1.46-1.45,0,0,0,0,0,0,0-.8.65-1.45,1.45-1.45m-6.71-4.08c.8,0,1.45.65,1.45,1.45,0,.8-.65,1.45-1.45,1.45-.8,0-1.45-.65-1.45-1.45s.65-1.45,1.45-1.45h0m-6.83-4.31c.8,0,1.46.65,1.46,1.45s-.65,1.46-1.45,1.46-1.46-.65-1.46-1.45c0,0,0,0,0,0,0-.8.65-1.45,1.45-1.45m-18.58,10.74h2.03v15.3l-2.03,2.2V14.77Zm5.91,11.07l-2.09,2.27v-13.35h2.09v11.07Z"/>
  </g>
  <g>
    <path class="cls-3" d="m46.93,100.67c.6.12,1.21.26,1.83.41,1.57.41,3.78,1.11,6.24,2.36,6.88,3.49,10.39,8.71,10.39,8.71.98,1.45,2.35,3.85,3.24,7.19.54.13,1.56.44,2.49,1.3.31.29,1.89,1.73,1.74,3.84-.12,1.81-1.42,2.93-1.97,3.41-.91.78-1.85,1.13-2.42,1.29-.47,1.64-1.06,3.04-1.65,4.21-.11.21-.77,1.51-1.69,2.85-3.76,5.43-9.61,8.27-11.15,8.97-1.21.55-2.17.9-2.82,1.13-4.06,1.44-7.3,1.83-8.12,1.92-1.87.2-4.37.32-7.33,0-2.03-.25-4.9-.75-8.23-1.8-.95-.3-2-.63-3.16-1.13-5.45-2.35-8.75-6.28-9.82-7.64-2.57-3.27-3.83-6.53-4.47-8.75-.49-.13-1.29-.41-2.07-1.07-.19-.16-1.84-1.6-1.84-3.68,0-2.01,1.56-3.95,3.87-4.67.75-2.92,1.87-5.08,2.73-6.49,4.2-6.88,10.82-9.67,13.41-10.72.65-.26,2.64-1.04,5.45-1.64.36-.08.75-.15,1.16-.23"/>
    <g>
      <path class="cls-3" d="m64.04,132.8c-.76-6.21-2.34-12.29-3.47-18.45-.03-.17-.12-.67-.5-1.09-.66-.71-1.75-.69-2.13-.69-1.71.02-8.7-.01-18.3,0-9.71-.03-16.8,0-18.53,0-.35,0-1.3,0-1.92.63-.45.45-.52,1.03-.56,1.23-2.05,10.07-3.5,17.46-3.61,18.36-.03.21-.08.67.16,1.13.07.13.21.35.68.7.32.24.82.56,1.52.81.81.29,1.44.46,1.5.47,5.79,1.32,9.14,1.69,9.14,1.69,2.54.28,4.48.37,6.05.44.95.04,2.79.11,5.47.1,3.92-.01,7.2-.02,11.53-.5,4.55-.67,7.93-1.31,9.1-1.65.6-.18,1.37-.48,1.53-.55.61-.25,1.06-.47,1.52-.81.47-.35.61-.57.68-.7.25-.47.18-.94.16-1.13Z"/>
      <g>
        <ellipse class="cls-5" cx="29.05" cy="126.78" rx=".81" ry="3.03"/>
        <path class="cls-5" d="m29.07,119.99c-3.59,0-6.49,2.91-6.49,6.49s2.91,6.49,6.49,6.49,6.49-2.91,6.49-6.49-2.91-6.49-6.49-6.49Zm-.02,12.16c-3.01,0-5.45-2.44-5.45-5.45s2.44-5.45,5.45-5.45,5.45,2.44,5.45,5.45-2.44,5.45-5.45,5.45Z"/>
      </g>
      <g>
        <ellipse class="cls-5" cx="50.59" cy="126.78" rx=".81" ry="3.03"/>
        <path class="cls-5" d="m44.07,126.48c0,3.59,2.91,6.49,6.49,6.49,3.59,0,6.49-2.91,6.49-6.49s-2.91-6.49-6.49-6.49c-3.59,0-6.49,2.91-6.49,6.49Zm1.06.22c0-3.01,2.44-5.45,5.45-5.45s5.45,2.44,5.45,5.45c0,3.01-2.44,5.45-5.45,5.45-3.01,0-5.45-2.44-5.45-5.45Z"/>
      </g>
      <circle class="cls-5" cx="38.14" cy="134.3" r=".56"/>
      <circle class="cls-5" cx="40.92" cy="134.3" r=".56"/>
    </g>
    <g>
      <g>
        <circle class="cls-5" cx="37.86" cy="145.18" r="1.02"/>
        <circle class="cls-5" cx="37.81" cy="145.13" r=".97"/>
      </g>
      <g>
        <circle class="cls-5" cx="39.83" cy="145.22" r=".57"/>
        <circle class="cls-5" cx="39.8" cy="145.19" r=".54"/>
      </g>
      <g>
        <circle class="cls-5" cx="41.21" cy="145.22" r=".57"/>
        <circle class="cls-5" cx="41.18" cy="145.19" r=".54"/>
      </g>
    </g>
    <g>
      <g>
        <path class="cls-5" d="m48.68,101.56c0,.86-1.31,1.63-1.71,1.87-.14.08-.64.37-1.8.69-2.05.57-3.84.58-5.08.59-.06,0-.25,0-.51,0-.97-.02-5.95-.13-8.02-1.93-.71-.62-.73-1.14-.73-1.25,0-.8.86-1.41,1.17-1.64.5-.36,1-.51,1.32-.59v.61h-.04c-.09.03-.22.08-.36.18-.07.05-.3.22-.39.51,0,0-.1.28,0,.63.12.4.88,1.18,3.67,1.61,1.02.16,1.95.21,3.71.2,3.7-.04,5.52-.32,6.64-1.24.25-.21.72-.61.66-1.08-.06-.47-.63-.75-.8-.82,0-.15.01-.3.02-.45.32.14.78.39,1.24.79.6.52,1,.87,1.01,1.34Z"/>
        <path class="cls-5" d="m46.55,101.78c-1.12.92-2.94,1.21-6.64,1.24-1.77.02-2.69-.04-3.71-.2-2.78-.43-3.55-1.21-3.67-1.61-.1-.35,0-.63,0-.63.1-.29.32-.45.39-.51.14-.1.27-.15.36-.18h.04v1.21c.01.05.03.13.08.21.11.18.28.27.37.32.58.29.97.39.97.39.54.14.81.21,1.24.28.6.1,1.13.16,1.65.2.56.04,1.07.05,2.07.06,1.64.02,2.15,0,2.46-.02.6-.04.99-.09,1.27-.13.18-.03.34-.06.49-.09.2-.04.44-.09.81-.19.41-.11,1-.28,1.35-.51.09-.06.21-.15.29-.3.04-.08.06-.16.07-.21v-1.23c.17.08.74.35.8.82.06.47-.41.87-.66,1.08Z"/>
      </g>
      <g>
        <rect class="cls-3" x="33.32" y="89.61" width="13.1" height="11.49"/>
        <path class="cls-5" d="m46.41,101.1s-.02.12-.07.21c-.08.15-.2.24-.29.3-.35.23-.93.4-1.35.51-.37.1-.6.15-.81.19-.15.03-.31.06-.49.09-.29.05-.67.1-1.27.13-.31.02-.82.05-2.46.02-1-.01-1.51-.02-2.07-.06-.52-.04-1.05-.09-1.65-.2-.42-.07-.69-.14-1.24-.28,0,0-.39-.1-.97-.39-.09-.05-.26-.13-.37-.32-.05-.08-.07-.16-.08-.21h13.1Z"/>
        <rect class="cls-5" x="36.89" y="93.55" width="1.96" height="2.46"/>
        <rect class="cls-5" x="40.89" y="93.55" width="1.96" height="2.46"/>
        <rect class="cls-5" x="38.2" y="97.47" width="2.03" height="1.34"/>
        <rect class="cls-5" x="40.24" y="97.47" width="1.34" height="1.34"/>
      </g>
    </g>
  </g>
  <g id="Camada_3" data-name="Camada 3">
    <polygon class="cls-2" points="31.75 170.7 50.35 181.43 39.57 187.86 30.2 182.47 22.49 186.9 39.48 196.72 65.96 181.48 39.52 166.27 31.75 170.7"/>
    <polygon class="cls-2" points="30.17 171.61 13.2 181.49 20.91 185.96 30.17 180.62 39.57 185.96 47.23 181.49 30.17 171.61"/>
    <polygon class="cls-2" points="66.68 182.87 40.31 198.08 40.31 207.04 66.68 191.83 66.68 182.87"/>
    <polygon class="cls-2" points="58.86 198.96 58.86 207.04 65.96 203 58.86 198.96"/>
    <polygon class="cls-2" points="66.68 204.48 49.66 214.25 49.66 223.19 66.68 213.31 66.68 204.48"/>
    <polygon class="cls-2" points="40.31 208.91 40.31 228.55 48.08 224.04 48.08 213.31 57.42 207.9 57.42 198.96 40.31 208.91"/>
    <path class="cls-2" d="m30.95,204.4s.19,10.89,0,10.73-18.63-10.73-18.63-10.73v8.89l26.42,15.27v-19.67l-7.8-4.48Z"/>
    <polygon class="cls-2" points="20.06 198.13 20.06 187.32 12.32 182.87 12.32 202.56 29.4 212.35 29.5 203.57 20.06 198.13"/>
    <polygon class="cls-2" points="21.63 188.23 21.63 197.22 38.74 207.04 38.74 198.13 21.63 188.23"/>
  </g>
  <g id="Layer_2" data-name="Layer 2">
    <g id="folhas">
      <g>
        <circle class="cls-2" cx="39.5" cy="276.39" r="27.89"/>
        <g>
          <circle class="cls-2" cx="39.5" cy="276.39" r="21.4"/>
          <g class="cls-1">
            <circle class="cls-2" cx="39.5" cy="276.39" r="21.4"/>
          </g>
        </g>
        <g>
          <path class="cls-5" d="m38.71,300.23s-.04,0-.06.01l-1.19-1.27h.18l.8.85s-.02.05-.02.07c0,.08.07.15.15.15s.15-.07.15-.15-.07-.15-.15-.15c-.02,0-.03,0-.05,0l-.74-.78h.18l.39.41s-.02.05-.02.07c0,.08.07.15.15.15s.15-.07.15-.15-.07-.15-.15-.15c-.02,0-.03,0-.05,0-.14-.15-.28-.3-.42-.45h-.7l-.63.67v.47l-.2-.22s.01-.04.01-.06c0-.08-.07-.15-.15-.15s-.15.07-.15.15.07.15.15.15c.02,0,.04,0,.06-.01l1.9,2.02v.63h-.11v-.55c-.52-.56-1.05-1.11-1.57-1.67.01-.02.02-.05.02-.07,0-.08-.07-.15-.15-.15s-.15.07-.15.15.07.15.15.15c.02,0,.03,0,.05,0l1.55,1.64v.18l-1.38-1.46s.02-.04.02-.07c0-.08-.07-.15-.15-.15s-.15.07-.15.15.07.15.15.15c.02,0,.04,0,.06-.01l1.45,1.54v.18h-.82v-.23c.06-.02.1-.08.1-.14,0-.08-.07-.15-.15-.15s-.15.07-.15.15c0,.06.04.12.1.14v.23h-.16v-.47c.06-.02.1-.08.1-.14,0-.08-.07-.15-.15-.15s-.15.07-.15.15c0,.06.04.12.1.14v.47h-.15v-.71c.06-.02.1-.08.1-.14,0-.08-.07-.15-.15-.15s-.15.07-.15.15c0,.06.04.12.1.14v.77c.3.18.59.36.89.54h.62c.16-.17.33-.35.49-.52v-.96c-.41-.44-.83-.88-1.24-1.32v-.71l.26-.28.93.99s-.01.04-.01.06c0,.08.07.15.15.15s.15-.07.15-.15-.07-.15-.15-.15m-.14-.41s.09.04.09.09-.04.09-.09.09-.09-.04-.09-.09.04-.09.09-.09m-.09-.44s.09.04.09.09-.04.09-.09.09-.09-.04-.09-.09.04-.09.09-.09m-2.15.44s-.09-.04-.09-.09.04-.09.09-.09.09.04.09.09-.04.09-.09.09m.15.48s-.09-.04-.09-.09.04-.09.09-.09.09.04.09.09-.04.09-.09.09m.09.44s-.09-.04-.09-.09.04-.09.09-.09.09.04.09.09-.04.09-.09.09m.02.92s.04-.09.09-.09.09.04.09.09-.04.09-.09.09-.09-.04-.09-.09m.38-2.09v.74l-.19-.2v-.54l.55-.59.09.09c-.15.16-.3.32-.46.48m.15,2.56s.04-.09.09-.09.09.04.09.09-.04.09-.09.09-.09-.04-.09-.09m-.27-.23s.04-.09.09-.09.09.04.09.09-.04.09-.09.09-.09-.04-.09-.09m1.24,1.1h-.55l-.24-.14h.92l-.14.14h0Zm.23-.25h-1.19l-.23-.14h1.56l-.13.14Zm-1.04-3.19v.79c.41.44.83.88,1.24,1.32v.84h-.11v-.67c-.44-.47-.89-.94-1.33-1.41v-.81l.42-.45.08.08-.3.31h0Zm1.44.9s-.09-.04-.09-.09.04-.09.09-.09.09.04.09.09-.04.09-.09.09"/>
          <path class="cls-5" d="m40.93,301.52c-.08,0-.15.07-.15.15,0,.02,0,.04.01.06l-.92.92-.23-.23v-1.13h.31c.02.06.08.1.14.1.08,0,.15-.07.15-.15s-.07-.15-.15-.15c-.06,0-.12.04-.14.09h-.31v-.15h.6c.02.06.08.1.14.1.08,0,.15-.07.15-.15s-.07-.15-.15-.15c-.06,0-.12.04-.14.09h-.61v-.14h.92c.02.06.08.1.14.1.08,0,.15-.07.15-.15s-.07-.15-.15-.15c-.06,0-.12.04-.14.1h-.92v-.27l.22-.24-.08-.07-.85.93v1.45c.19.19.37.37.56.56h0l.07.07h.71c.14-.14.28-.28.41-.41.02,0,.04.01.06.01.08,0,.15-.07.15-.15s-.07-.15-.15-.15-.15.07-.15.15c0,.02,0,.04.01.06l-.38.38h-.18l.72-.72s.04.01.06.01c.08,0,.15-.07.15-.15s-.07-.15-.15-.15-.15.07-.15.15c0,.02,0,.04.01.06l-.79.79h-.23l.05-.05.07-.07,1.07-1.07s.04.01.06.01c.08,0,.15-.07.15-.15s-.07-.15-.15-.15m-.83-.37s.09.04.09.09-.04.09-.09.09-.09-.04-.09-.09.04-.09.09-.09m.29-.25s.09.04.09.09-.04.09-.09.09-.09-.04-.09-.09.04-.09.09-.09m.31-.25s.09.04.09.09-.04.09-.09.09-.09-.04-.09-.09.04-.09.09-.09m.13,1.42s.09.04.09.09-.04.09-.09.09-.09-.04-.09-.09.04-.09.09-.09m-.08.41s.09.04.09.09-.04.09-.09.09-.09-.04-.09-.09.04-.09.09-.09m-1.18.49l-.52-.52v-1.37l.18-.2v1.59h0l.42.42-.08.08h0Zm-.24-.55v-1.66l.21-.22v1.93l.27.27-.08.08-.39-.39h0Zm1.6-.66s-.09-.04-.09-.09.04-.09.09-.09.09.04.09.09-.04.09-.09.09"/>
          <path class="cls-5" d="m39.01,300.69l.48-.52h0s.2-.22.2-.22l-.08-.07-.12.13v-.54h1.31c.02.06.08.1.14.1.08,0,.15-.07.15-.15s-.07-.15-.15-.15c-.06,0-.12.04-.14.1h-1.69l.12-.14h1.17c.02.06.08.1.14.1.08,0,.15-.07.15-.15s-.07-.15-.15-.15c-.06,0-.12.04-.14.1h-1.07l.14-.15h.53c.02.06.08.1.14.1.08,0,.15-.07.15-.15s-.07-.15-.15-.15c-.06,0-.12.04-.14.09h-.58c-.16.18-.33.36-.49.54,0,.42,0,.84,0,1.26v.12s.05-.06.08-.09m1.93-1.36s.09.04.09.09-.04.09-.09.09-.09-.04-.09-.09.04-.09.09-.09m-.4-.24s.09.04.09.09-.04.09-.09.09-.09-.04-.09-.09.04-.09.09-.09m-.4-.26s.09.04.09.09-.04.09-.09.09-.09-.04-.09-.09.04-.09.09-.09m-1.1.64h.12v.91l-.12.13v-1.04h0Zm.35.66l-.12.13v-.79h.12v.66Z"/>
          <path class="cls-5" d="m42.7,302.26c-.06,0-.11.05-.11.11,0,0,0,.02,0,.02l-.29.27-.13-.13.28-.27s.03.01.05.01c.06,0,.11-.05.11-.11s-.05-.11-.11-.11-.11.05-.11.11c0,0,0,.01,0,.02l-.3.28-.04-.04v-1.99c.06-.02.1-.08.1-.14,0-.08-.07-.15-.15-.15s-.15.07-.15.15c0,.06.04.12.1.14v2.03s.05.05.07.07l-.08.07-.2-.2v-1.79c.06-.02.1-.08.1-.14,0-.08-.07-.15-.15-.15s-.15.07-.15.15c0,.06.04.11.09.14v1.83c.08.08.15.15.23.23l-.09.09-.33-.33v-1.62c.06-.02.1-.08.1-.14,0-.08-.07-.15-.15-.15s-.15.07-.15.15c0,.06.04.12.1.14v1.66l.64.63c.23-.21.46-.43.68-.64.01,0,.03,0,.04,0,.06,0,.11-.05.11-.11s-.05-.11-.11-.11m-.2-.14s.05.02.05.05-.02.05-.05.05-.05-.02-.05-.05.02-.05.05-.05m-.59-1.82s.04-.09.09-.09.09.04.09.09-.04.09-.09.09-.09-.04-.09-.09m-.31.18s.04-.09.09-.09.09.04.09.09-.04.09-.09.09-.09-.04-.09-.09m.48,2.13l.13.13-.08.07-.13-.13.08-.07Zm-.15.14l.13.13-.09.09-.13-.13.09-.09Zm-.64-2.07s.04-.09.09-.09.09.04.09.09-.04.09-.09.09-.09-.04-.09-.09m1.4,1.74s-.05-.02-.05-.05.02-.05.05-.05.05.02.05.05-.02.05-.05.05"/>
          <path class="cls-5" d="m41.33,300.21s.05-.05.08-.07l.65-.63v-.64h-.35v.53h-.14v-.23c.06-.02.1-.08.1-.14,0-.08-.07-.15-.15-.15s-.15.07-.15.15c0,.06.04.12.1.14v.23h-.13v.11h0v.72h0Zm.1-1.2s.04-.09.09-.09.09.04.09.09-.04.09-.09.09-.09-.04-.09-.09m.52-.05v.49l-.14.14v-.63h.14Zm-.24.53v.2l-.27.26v-.47h.27Z"/>
        </g>
        <path class="cls-5" d="m68.96,276.48s-.03-.77.65-.78.63.75.63.75c0,0,.12.83-.64.85-.76.03-.64-.83-.64-.83h0Zm.56,3.13c.76-.03.64-.85.64-.85,0,0,.04-.76-.63-.75-.67,0-.65.78-.65.78,0,0-.12.85.64.83h0Zm-.31,2.29c.76,0,.67-.83.67-.83,0,0,.07-.75-.6-.77s-.67.75-.67.75c0,0-.15.85.61.85h0Zm-.51,2.26c.76.1.77-.74.77-.74,0,0,.16-.74-.5-.84s-.76.66-.76.66c0,0-.26.82.5.92h0Zm-.71,2.17c.75.15.81-.68.81-.68,0,0,.21-.73-.45-.87s-.8.61-.8.61c0,0-.31.8.44.95Zm-.84,2.16c.73.22.88-.6.88-.6,0,0,.28-.7-.36-.91s-.86.53-.86.53c0,0-.39.77.34.99Zm-1.05,2.07c.7.29.94-.51.94-.51,0,0,.35-.67-.26-.94s-.91.44-.91.44c0,0-.46.72.24,1.02h0Zm-1.2,1.98c.66.37.99-.4.99-.4,0,0,.43-.63-.15-.97s-.96.33-.96.33c0,0-.55.67.12,1.04h0Zm-1.32,1.88c.62.45,1.03-.28,1.03-.28,0,0,.5-.57-.04-.98s-.99.21-.99.21c0,0-.62.6,0,1.04Zm-1.46,1.78c.58.49,1.05-.2,1.05-.2,0,0,.54-.53.04-.98s-1,.14-1,.14c0,0-.66.55-.08,1.04Zm-1.62,1.65c.52.56,1.06-.07,1.06-.07,0,0,.6-.46.16-.97-.44-.51-1.01.01-1.01.01,0,0-.73.46-.21,1.02h0Zm-1.69,1.59c.52.56,1.06-.07,1.06-.07,0,0,.6-.46.16-.97-.44-.51-1.01.01-1.01.01,0,0-.73.46-.21,1.02h0Zm-1.77,1.46c.52.56,1.06-.07,1.06-.07,0,0,.6-.46.16-.97-.44-.51-1.01.01-1.01.01,0,0-.73.46-.21,1.02h0Zm-1.89,1.33c.52.56,1.06-.07,1.06-.07,0,0,.6-.46.16-.97-.44-.51-1.01.01-1.01.01,0,0-.73.46-.21,1.02h0Zm-2.07,1c.41.64,1.06.12,1.06.12,0,0,.67-.35.33-.92s-1-.17-1-.17c0,0-.8.33-.39.97h0Zm-2.09.97c.34.68,1.04.22,1.04.22,0,0,.7-.28.42-.89-.29-.61-.97-.26-.97-.26,0,0-.82.25-.48.93h0Zm-2.18.77c.26.72,1,.35,1,.35,0,0,.73-.19.52-.83s-.94-.38-.94-.38c0,0-.85.14-.59.86Zm-2.22.63c.21.73.98.41.98.41,0,0,.74-.15.57-.8-.17-.65-.91-.43-.91-.43,0,0-.86.09-.64.82h0Zm-2.24.47c.17.74.96.46.96.46,0,0,.75-.1.61-.76s-.89-.49-.89-.49c0,0-.86.04-.69.78h0Zm-2.33.24c.1.75.91.55.91.55,0,0,.76-.03.68-.7-.07-.67-.84-.57-.84-.57,0,0-.86-.04-.76.72Zm-2.27.13c.04.76.86.62.86.62,0,0,.76.03.74-.64-.02-.67-.79-.63-.79-.63,0,0-.85-.11-.81.65h0Zm-2.31-.03c.04.76.86.62.86.62,0,0,.76.03.74-.64-.02-.67-.79-.63-.79-.63,0,0-.85-.11-.81.65h0Zm-2.28-.27c-.04.76.8.71.8.71,0,0,.75.1.8-.57s-.72-.71-.72-.71c0,0-.84-.19-.87.57h0Zm-2.26-.42c-.07.76.76.75.76.75,0,0,.74.14.83-.53s-.68-.74-.68-.74c0,0-.83-.23-.9.52h0Zm-2.23-.57c-.12.75.71.79.71.79,0,0,.73.19.86-.47.12-.66-.63-.78-.63-.78,0,0-.81-.29-.93.47h0Zm-2.16-.78c-.2.73.63.86.63.86,0,0,.71.26.9-.38.19-.65-.55-.85-.55-.85,0,0-.78-.37-.98.37h0Zm-2.2-.88c-.2.73.62.86.62.86,0,0,.71.26.9-.38.19-.65-.55-.85-.55-.85,0,0-.78-.37-.98.37h0Zm-1.96-1.15c-.28.71.52.93.52.93,0,0,.67.34.94-.27.27-.62-.45-.9-.45-.9,0,0-.73-.46-1.01.25h0Zm-1.95-1.27c-.39.65.37,1,.37,1,0,0,.61.45.97-.12s-.3-.96-.3-.96c0,0-.65-.57-1.04.09h0Zm-1.8-1.44c-.47.6.23,1.04.23,1.04,0,0,.55.52.98,0s-.17-1-.17-1c0,0-.57-.65-1.04-.05Zm-1.76-1.5c-.49.58.21,1.04.21,1.04,0,0,.53.54.98.03.44-.51-.14-1-.14-1,0,0-.55-.66-1.04-.08Zm-1.58-1.63c-.54.54.11,1.06.11,1.06,0,0,.49.58.97.12.49-.46-.06-1.01-.06-1.01,0,0-.49-.71-1.03-.17h0Zm-1.56-1.73c-.54.54.11,1.06.11,1.06,0,0,.49.58.97.12.49-.46-.06-1.01-.06-1.01,0,0-.49-.71-1.03-.17h0Zm-1.31-1.87c-.58.49.03,1.06.03,1.06,0,0,.44.62.96.2s.02-1.01.02-1.01c0,0-.43-.74-1.01-.25h0Zm-1.15-2.04c-.65.4-.14,1.06-.14,1.06,0,0,.34.68.92.34.58-.34.18-.99.18-.99,0,0-.31-.8-.96-.4h0Zm-1.08-2.03c-.65.4-.14,1.06-.14,1.06,0,0,.34.68.92.34.58-.34.18-.99.18-.99,0,0-.31-.8-.96-.4h0Zm-.98-2.1c-.65.4-.14,1.06-.14,1.06,0,0,.34.68.92.34.58-.34.18-.99.18-.99,0,0-.31-.8-.96-.4h0Zm-.61-2.19c-.7.3-.28,1.03-.28,1.03,0,0,.24.72.86.47.62-.25.32-.96.32-.96,0,0-.2-.84-.9-.53h0Zm-.5-2.28c-.73.21-.41.98-.41.98,0,0,.15.74.8.57.65-.17.44-.91.44-.91,0,0-.09-.86-.82-.64h0Zm-.38-2.3c-.74.16-.47.95-.47.95,0,0,.1.75.76.62.66-.13.5-.88.5-.88,0,0-.03-.86-.78-.7h0Zm-.14-2.33c-.76.06-.6.88-.6.88,0,0-.01.76.66.72.67-.04.61-.8.61-.8,0,0,.09-.86-.67-.8h0Zm-.06-2.26c-.76.05-.61.87-.61.87,0,0-.02.76.65.73s.62-.79.62-.79c0,0,.1-.85-.66-.81h0Zm.2-2.3c-.76-.01-.68.82-.68.82,0,0-.08.75.59.78.67.03.69-.74.69-.74,0,0,.17-.84-.59-.86h0Zm.27-2.27c-.76-.01-.68.82-.68.82,0,0-.08.75.59.78.67.03.69-.74.69-.74,0,0,.17-.84-.59-.86h0Zm.55-2.27c-.76-.09-.76.74-.76.74,0,0-.16.74.51.84.67.1.76-.67.76-.67,0,0,.25-.82-.5-.91Zm.67-2.2c-.75-.14-.81.69-.81.69,0,0-.2.73.45.87.66.14.8-.62.8-.62,0,0,.3-.8-.45-.94Zm.89-2.15c-.72-.25-.91.56-.91.56,0,0-.32.69.31.93.63.24.88-.49.88-.49,0,0,.42-.75-.29-1h0Zm1.04-2.04c-.69-.33-.96.46-.96.46,0,0-.39.65.22.96.6.3.93-.39.93-.39,0,0,.5-.7-.19-1.03Zm1.14-2c-.67-.37-.98.4-.98.4,0,0-.42.63.16.97.58.34.95-.34.95-.34,0,0,.54-.67-.13-1.04h0Zm1.34-1.87c-.62-.44-1.02.29-1.02.29,0,0-.49.58.05.98s.98-.23.98-.23c0,0,.61-.61-.01-1.04h0Zm1.43-1.8c-.62-.44-1.02.29-1.02.29,0,0-.49.58.05.98s.98-.23.98-.23c0,0,.61-.61-.01-1.04h0Zm1.63-1.66c-.55-.52-1.05.14-1.05.14,0,0-.57.5-.09.98.48.47,1.01-.08,1.01-.08,0,0,.69-.51.14-1.03h0Zm1.68-1.53c-.53-.55-1.06.09-1.06.09,0,0-.59.47-.14.97.46.5,1.01-.04,1.01-.04,0,0,.72-.48.19-1.03h0Zm1.84-1.39c-.49-.59-1.06.02-1.06.02,0,0-.62.43-.21.96.42.53,1.01.04,1.01.04,0,0,.75-.43.26-1.01Zm1.91-1.33c-.49-.59-1.06.02-1.06.02,0,0-.62.43-.21.96s1.01.04,1.01.04c0,0,.75-.43.26-1.01Zm2.04-1.09c-.43-.63-1.06-.08-1.06-.08,0,0-.66.37-.29.93.37.56,1,.13,1,.13,0,0,.78-.35.35-.98Zm2.06-.96c-.37-.67-1.05-.18-1.05-.18,0,0-.69.3-.38.9.31.6.98.23.98.23,0,0,.81-.28.45-.94Zm2.22-.76c-.3-.7-1.03-.28-1.03-.28,0,0-.72.24-.46.86.25.62.96.32.96.32,0,0,.84-.2.53-.9h0Zm2.18-.63c-.25-.72-1-.36-1-.36,0,0-.74.18-.53.83.21.64.93.39.93.39,0,0,.85-.14.6-.85h0Zm2.27-.46c-.21-.73-.98-.41-.98-.41,0,0-.74.14-.57.79.17.65.91.44.91.44,0,0,.86-.09.65-.82h0Zm2.3-.2c-.12-.75-.92-.53-.92-.53,0,0-.76.05-.67.72s.85.55.85.55c0,0,.86.02.74-.73h0Zm2.31-.12c-.09-.76-.9-.57-.9-.57,0,0-.76.02-.69.69.06.67.83.58.83.58,0,0,.86.05.77-.71h0Zm2.3.04c-.05-.76-.87-.61-.87-.61,0,0-.76-.02-.73.65.03.67.79.63.79.63,0,0,.85.1.81-.66h0Zm2.28.22c-.02-.76-.85-.64-.85-.64,0,0-.76-.05-.75.63,0,.67.77.65.77.65,0,0,.85.13.83-.63Zm2.28.41c.03-.76-.8-.7-.8-.7,0,0-.75-.09-.79.58s.73.7.73.7c0,0,.84.18.87-.58Zm2.23.59c.05-.76-.78-.72-.78-.72,0,0-.75-.12-.81.55-.06.67.71.72.71.72,0,0,.84.21.88-.55Zm2.17.84c.16-.74-.66-.83-.66-.83,0,0-.72-.23-.88.42s.59.82.59.82c0,0,.79.33.96-.41h0Zm2.09,1c.29-.7-.51-.94-.51-.94,0,0-.67-.35-.94.26-.27.61.43.91.43.91,0,0,.72.47,1.02-.24h0Zm2.01,1.09c.32-.69-.47-.95-.47-.95,0,0-.66-.38-.95.23-.3.6.4.93.4.93,0,0,.71.49,1.02-.2h0Zm1.94,1.28c.4-.65-.36-1-.36-1,0,0-.61-.45-.97.11-.37.57.29.97.29.97,0,0,.64.57,1.04-.08h0Zm1.85,1.37c.42-.63-.32-1.02-.32-1.02,0,0-.59-.48-.98.08-.39.55.25.98.25.98,0,0,.62.6,1.04-.04h0Zm1.73,1.54c.46-.61-.26-1.03-.26-1.03,0,0-.56-.51-.98.02-.42.53.19.99.19.99,0,0,.58.63,1.04.03h0Zm1.62,1.62c.49-.58-.2-1.04-.2-1.04,0,0-.53-.54-.98-.04-.45.5.14,1,.14,1,0,0,.55.66,1.04.08h0Zm1.49,1.76c.53-.55-.13-1.06-.13-1.06,0,0-.5-.57-.97-.1s.08,1.01.08,1.01c0,0,.51.7,1.03.15Zm1.33,1.87c.57-.51-.06-1.06-.06-1.06,0,0-.46-.61-.96-.17-.51.44,0,1.01,0,1.01,0,0,.46.73,1.02.22h0Zm1.22,1.98c.6-.47,0-1.06,0-1.06,0,0-.41-.63-.95-.23-.54.41-.06,1.01-.06,1.01,0,0,.41.76,1,.29Zm1.03,2.04c.6-.47,0-1.06,0-1.06,0,0-.41-.63-.95-.23-.54.41-.06,1.01-.06,1.01,0,0,.41.76,1,.29Zm.8,2.2c.68-.34.23-1.04.23-1.04,0,0-.27-.71-.88-.42-.61.28-.27.97-.27.97,0,0,.24.83.92.49h0Zm.75,2.17c.68-.34.23-1.04.23-1.04,0,0-.27-.71-.88-.42-.61.28-.27.97-.27.97,0,0,.24.83.92.49h0Zm.47,2.26c.73-.23.39-.99.39-.99,0,0-.16-.74-.81-.55s-.41.92-.41.92c0,0,.11.85.84.62Zm.26,2.3c.75-.11.54-.91.54-.91,0,0-.04-.76-.71-.68-.67.08-.56.84-.56.84,0,0-.03.86.72.75h0Zm.25,2.25c.75-.11.54-.91.54-.91,0,0-.04-.76-.71-.68-.67.08-.56.84-.56.84,0,0-.03.86.72.75h0Z"/>
        <g>
          <path class="cls-5" d="m16.58,286.74c.37.27.69.64.93.94.12.15.21.29.28.38.07.1.11.16.11.16,0,0-.17.08-.45.1-.28.02-.66-.01-1.07-.26-.41-.25-.74-.69-.97-1.06-.05-.09-.1-.19-.14-.27-.04-.08-.07-.16-.1-.22-.05-.13-.08-.2-.08-.2,0,0,.19-.03.47,0,.14.02.3.06.48.12.18.07.36.16.55.29h0Zm1.26,3.16c-.2-.05-.38-.07-.54-.07-.16,0-.29.01-.37.03-.09.02-.14.03-.14.03,0,0,.04.08.12.21.08.13.19.3.33.49.29.38.71.81,1.19,1.03.24.12.47.17.67.19.2.02.39,0,.54-.03.3-.06.48-.17.48-.17,0,0-.05-.06-.14-.16-.04-.05-.1-.11-.16-.17-.06-.07-.13-.14-.2-.21-.3-.3-.69-.67-1.14-.92-.22-.12-.44-.2-.63-.25h0Zm2.27,3.46c-.22,0-.43.04-.59.08-.33.08-.53.2-.53.2,0,0,.06.07.18.19.06.06.13.13.22.2.08.07.18.16.28.24.42.33,1.02.67,1.61.77.3.04.56.03.78-.01.22-.05.41-.13.55-.22.15-.08.25-.17.33-.24.07-.07.11-.11.11-.11,0,0-.07-.05-.2-.12-.06-.04-.14-.08-.22-.12-.08-.05-.18-.1-.28-.16-.42-.21-.94-.48-1.49-.61-.27-.07-.52-.09-.75-.09h0Zm3.45,2.92c-.14,0-.27.01-.39.03-.24.03-.46.1-.64.16-.17.06-.31.13-.41.19-.09.06-.14.09-.14.09,0,0,.08.08.23.19.07.06.16.12.27.19.1.07.22.15.35.22.51.3,1.22.58,1.86.59.65.01,1.1-.23,1.39-.45.14-.11.25-.23.32-.31.07-.08.1-.14.1-.14,0,0-.09-.04-.23-.09-.07-.03-.16-.06-.26-.1-.05-.02-.1-.04-.16-.06-.05-.02-.11-.04-.17-.06-.48-.16-1.09-.37-1.69-.43-.15-.02-.3-.02-.43-.02h0Zm3.62,2.43c-.14.03-.28.08-.4.13-.12.05-.24.1-.34.16-.1.06-.2.11-.28.17-.17.11-.3.22-.38.3-.08.08-.13.14-.13.14,0,0,.11.06.29.14.09.04.2.09.33.14.13.05.27.1.42.15.62.19,1.43.3,2.12.14.34-.07.62-.21.84-.36.22-.15.38-.32.5-.48.12-.16.2-.3.25-.41.05-.1.07-.17.07-.17,0,0-.1-.02-.27-.04-.17-.01-.4-.05-.67-.07-.14-.01-.28-.03-.43-.04-.04,0-.08,0-.12,0-.04,0-.08,0-.12,0-.08,0-.16,0-.24-.01-.16,0-.33,0-.49,0-.08,0-.17,0-.25.02-.08,0-.16.01-.24.02-.16.02-.32.05-.46.09h0Zm-9.76-12.34c-.07.43.05.91.19,1.27.07.18.14.33.2.43.06.1.09.16.09.16,0,0,.15-.13.29-.36.15-.23.3-.57.34-.98.03-.41-.04-.84-.12-1.16-.02-.08-.04-.16-.06-.22-.02-.07-.03-.13-.05-.17-.03-.1-.05-.15-.05-.15,0,0-.17.08-.37.27-.1.09-.2.22-.29.37-.08.15-.16.33-.19.55Zm1.92,3.26c-.01.48.17.99.37,1.36.05.09.1.18.14.26.05.08.09.14.13.19.07.11.12.17.12.17,0,0,.14-.16.28-.43.07-.14.13-.3.18-.49.05-.19.07-.4.07-.63-.01-.46-.15-.92-.28-1.27-.07-.17-.13-.32-.17-.43-.05-.1-.08-.16-.08-.16,0,0-.04.03-.11.09s-.16.15-.25.26c-.09.12-.19.27-.26.44-.07.18-.12.39-.13.63h0Zm2.28,3.02c.12.51.47.99.8,1.31.08.08.16.16.23.22.08.06.14.11.2.16.12.09.19.13.19.13,0,0,.02-.05.05-.15.03-.09.06-.23.09-.39.02-.16.04-.36.02-.56-.01-.21-.04-.44-.12-.67-.14-.46-.41-.88-.63-1.21-.06-.08-.11-.15-.16-.22-.05-.07-.09-.12-.13-.17-.07-.1-.12-.15-.12-.15,0,0-.16.17-.29.47-.07.15-.13.33-.16.54-.03.21-.03.44.03.7h0Zm3.08,2.67c.2.53.65.99,1.06,1.28.05.04.1.07.15.11.05.03.1.06.14.09.09.06.17.1.24.14.07.04.13.06.16.08.04.02.06.03.06.03,0,0,.02-.06.03-.17.02-.1.03-.26.03-.43,0-.37-.07-.83-.29-1.31-.23-.48-.57-.88-.84-1.18-.07-.07-.13-.15-.19-.21-.06-.06-.11-.11-.16-.16-.09-.09-.14-.14-.14-.14,0,0-.04.05-.09.14-.05.09-.12.23-.17.4-.06.17-.1.37-.1.6,0,.11,0,.23.02.36.02.12.06.25.11.38h0Zm3.44,2.09c.04.06.09.13.14.18.05.06.1.11.16.17.11.11.23.21.36.3.06.04.13.09.19.13.03.02.07.04.1.06.03.02.07.03.1.05.13.07.26.13.39.18.25.09.47.17.64.21.16.04.26.05.26.05,0,0,0-.07-.01-.18s-.04-.28-.09-.46c-.05-.19-.12-.4-.23-.62-.1-.22-.24-.45-.42-.67-.36-.44-.81-.77-1.17-1.02-.09-.06-.17-.12-.25-.17-.08-.05-.15-.09-.2-.12-.11-.07-.18-.11-.18-.11,0,0-.03.06-.06.17-.03.11-.07.27-.08.46,0,.09-.01.2,0,.31,0,.11.02.22.05.34.03.12.06.24.12.37.05.12.12.25.21.37h0Zm-12.41-12.86c.13.61.46,1.1.73,1.41.07.08.14.15.2.21.06.06.12.11.16.14.09.08.15.12.15.12,0,0,.01-.07.02-.19,0-.06,0-.13.01-.22,0-.08,0-.18,0-.28,0-.41-.02-.93-.14-1.46-.12-.54-.31-1.01-.47-1.38-.04-.09-.08-.18-.11-.25-.03-.07-.06-.14-.09-.19-.05-.11-.09-.17-.09-.17,0,0-.04.06-.1.17-.03.05-.06.12-.1.2-.03.08-.07.17-.1.27-.04.1-.07.22-.09.34-.01.06-.02.12-.04.19,0,.07-.01.13-.02.2,0,.07,0,.14-.01.21,0,.07,0,.14,0,.22,0,.07.01.15.02.23.01.07.03.15.04.23h0Zm46.69,2.19c-.37.27-.69.64-.93.94-.12.15-.21.29-.28.38-.07.1-.11.16-.11.16,0,0,.17.08.45.1.28.02.66-.01,1.07-.26.41-.25.74-.69.97-1.06.05-.09.1-.19.14-.27.04-.08.07-.16.1-.22.05-.13.08-.2.08-.2,0,0-.19-.03-.47,0-.14.02-.3.06-.48.12-.18.07-.36.16-.55.29h0Zm-1.89,3.41c-.44.24-.84.61-1.14.92-.08.08-.14.15-.2.21-.06.06-.11.12-.16.17-.09.1-.14.16-.14.16,0,0,.18.11.48.17.15.03.33.05.54.03.2-.02.43-.07.67-.19.48-.23.9-.66,1.19-1.03.15-.19.26-.36.33-.49.08-.13.12-.21.12-.21,0,0-.05-.02-.14-.03-.09-.02-.22-.03-.37-.03-.16,0-.34.02-.54.07-.2.05-.42.13-.63.25h0Zm-2.38,3.3c-.54.13-1.07.4-1.49.61-.1.05-.2.11-.28.16-.09.05-.16.09-.22.12-.12.07-.2.12-.2.12,0,0,.04.05.11.11.07.07.18.15.33.24.15.08.33.16.55.22.22.05.48.06.78.01.59-.1,1.19-.44,1.61-.77.11-.08.2-.16.28-.24.08-.08.16-.14.22-.2.12-.12.18-.19.18-.19,0,0-.2-.13-.53-.2-.16-.04-.37-.07-.59-.08-.22,0-.48.02-.75.09h0Zm-3.14,2.85c-.61.06-1.21.27-1.69.43-.06.02-.12.04-.17.06-.06.02-.11.04-.16.06-.1.04-.19.07-.26.1-.14.06-.23.09-.23.09,0,0,.03.05.1.14s.17.2.32.31c.28.22.74.46,1.39.45.65-.01,1.35-.29,1.86-.59.13-.07.24-.15.35-.22.1-.07.2-.14.27-.19.14-.12.23-.19.23-.19,0,0-.05-.04-.14-.09-.09-.05-.23-.12-.41-.19-.17-.06-.39-.12-.64-.16-.12-.02-.25-.03-.39-.03-.14,0-.28,0-.43.02h0Zm-3.65,2.32c-.08-.01-.16-.02-.24-.02-.08,0-.17-.01-.25-.02-.17,0-.33,0-.49,0-.08,0-.16,0-.24.01-.04,0-.08,0-.12,0-.04,0-.08,0-.12,0-.15,0-.3.02-.43.04-.27.02-.5.06-.67.07-.17.02-.27.04-.27.04,0,0,.02.07.07.17.05.1.13.25.25.41.12.16.28.33.5.48.22.15.5.29.84.36.69.16,1.5.05,2.12-.14.16-.05.3-.1.42-.15.13-.05.24-.09.33-.14.18-.08.29-.14.29-.14,0,0-.04-.05-.13-.14-.09-.08-.21-.19-.38-.3-.08-.06-.18-.11-.28-.17-.1-.06-.22-.11-.34-.16-.12-.05-.26-.09-.4-.13-.14-.04-.3-.07-.46-.09h0Zm10.03-12.79c-.09-.15-.19-.27-.29-.37-.19-.19-.37-.27-.37-.27,0,0-.02.06-.05.15-.02.05-.03.11-.05.17-.02.07-.04.14-.06.22-.08.32-.15.75-.12,1.16.04.42.19.75.34.98.15.23.29.36.29.36,0,0,.04-.06.09-.16.06-.1.13-.25.2-.43.14-.36.26-.83.19-1.27-.03-.22-.1-.4-.19-.55Zm-1.87,3.18c-.08-.18-.17-.33-.26-.44-.09-.12-.18-.21-.25-.26-.07-.06-.11-.09-.11-.09,0,0-.03.06-.08.16-.05.1-.11.25-.17.43-.13.35-.27.81-.28,1.27,0,.23.02.44.07.63.05.19.11.35.18.49.14.27.28.43.28.43,0,0,.05-.06.12-.17.04-.05.08-.12.13-.19.05-.08.09-.16.14-.26.2-.37.38-.88.37-1.36,0-.24-.06-.45-.13-.63h0Zm-2.11,2.95c-.03-.21-.09-.39-.16-.54-.14-.3-.29-.47-.29-.47,0,0-.05.05-.12.15-.04.05-.08.1-.13.17-.05.07-.1.14-.16.22-.22.32-.49.74-.63,1.21-.08.23-.11.46-.12.67-.01.21,0,.4.02.56.02.16.06.3.09.39.03.09.05.15.05.15,0,0,.07-.05.19-.13.06-.04.13-.09.2-.16.07-.06.15-.14.23-.22.33-.32.68-.8.8-1.31.06-.26.06-.49.03-.7h0Zm-3,2.99c.02-.13.03-.25.02-.36,0-.23-.05-.43-.1-.6-.06-.17-.12-.3-.17-.4-.05-.09-.09-.14-.09-.14,0,0-.06.05-.14.14-.05.04-.1.09-.16.16-.06.06-.12.13-.19.21-.27.31-.62.71-.84,1.18-.23.48-.3.95-.29,1.31,0,.18.01.33.03.43.02.11.03.17.03.17,0,0,.02,0,.06-.03.04-.02.09-.04.16-.08.07-.04.15-.08.24-.14.04-.03.09-.06.14-.09.05-.03.1-.07.15-.11.41-.29.85-.75,1.06-1.28.05-.13.09-.26.11-.38h0Zm-3.33,2.1c.05-.13.09-.25.12-.37.02-.12.04-.23.05-.34,0-.11,0-.21,0-.31-.02-.19-.05-.35-.08-.46-.03-.11-.06-.17-.06-.17,0,0-.07.04-.18.11-.06.04-.13.08-.2.12-.08.05-.16.11-.25.17-.36.25-.82.58-1.17,1.02-.18.22-.31.45-.42.67-.1.22-.18.43-.23.62-.05.19-.07.35-.09.46-.01.12-.01.18-.01.18,0,0,.1-.02.26-.05.16-.03.39-.11.64-.21.12-.05.25-.12.39-.18.03-.02.07-.03.1-.05.03-.02.06-.04.1-.06.06-.04.13-.08.19-.13.13-.09.25-.19.36-.3.06-.05.11-.11.16-.17.05-.06.09-.12.14-.18.09-.13.15-.25.21-.37h0Zm12.24-12.71c.01-.08.02-.15.02-.23,0-.07,0-.15,0-.22,0-.07,0-.14-.01-.21,0-.07-.01-.14-.02-.2-.01-.07-.02-.13-.04-.19-.02-.12-.05-.24-.09-.34-.03-.1-.07-.19-.1-.27-.04-.08-.07-.15-.1-.2-.06-.11-.1-.17-.1-.17,0,0-.03.06-.09.17-.03.05-.06.12-.09.19-.03.07-.07.16-.11.25-.16.37-.35.84-.47,1.38-.12.54-.14,1.06-.14,1.46,0,.1,0,.19,0,.28,0,.08,0,.16.01.22,0,.12.02.19.02.19,0,0,.06-.04.15-.12.05-.04.1-.09.16-.14.06-.06.13-.13.2-.21.28-.31.6-.8.73-1.41.02-.08.03-.15.04-.23h0Z"/>
          <g class="cls-7">
            <path class="cls-5" d="m16.58,286.74c.37.27.69.64.93.94.12.15.21.29.28.38.07.1.11.16.11.16,0,0-.17.08-.45.1-.28.02-.66-.01-1.07-.26-.41-.25-.74-.69-.97-1.06-.05-.09-.1-.19-.14-.27-.04-.08-.07-.16-.1-.22-.05-.13-.08-.2-.08-.2,0,0,.19-.03.47,0,.14.02.3.06.48.12.18.07.36.16.55.29h0Zm1.26,3.16c-.2-.05-.38-.07-.54-.07-.16,0-.29.01-.37.03-.09.02-.14.03-.14.03,0,0,.04.08.12.21.08.13.19.3.33.49.29.38.71.81,1.19,1.03.24.12.47.17.67.19.2.02.39,0,.54-.03.3-.06.48-.17.48-.17,0,0-.05-.06-.14-.16-.04-.05-.1-.11-.16-.17-.06-.07-.13-.14-.2-.21-.3-.3-.69-.67-1.14-.92-.22-.12-.44-.2-.63-.25h0Zm2.27,3.46c-.22,0-.43.04-.59.08-.33.08-.53.2-.53.2,0,0,.06.07.18.19.06.06.13.13.22.2.08.07.18.16.28.24.42.33,1.02.67,1.61.77.3.04.56.03.78-.01.22-.05.41-.13.55-.22.15-.08.25-.17.33-.24.07-.07.11-.11.11-.11,0,0-.07-.05-.2-.12-.06-.04-.14-.08-.22-.12-.08-.05-.18-.1-.28-.16-.42-.21-.94-.48-1.49-.61-.27-.07-.52-.09-.75-.09h0Zm3.45,2.92c-.14,0-.27.01-.39.03-.24.03-.46.1-.64.16-.17.06-.31.13-.41.19-.09.06-.14.09-.14.09,0,0,.08.08.23.19.07.06.16.12.27.19.1.07.22.15.35.22.51.3,1.22.58,1.86.59.65.01,1.1-.23,1.39-.45.14-.11.25-.23.32-.31.07-.08.1-.14.1-.14,0,0-.09-.04-.23-.09-.07-.03-.16-.06-.26-.1-.05-.02-.1-.04-.16-.06-.05-.02-.11-.04-.17-.06-.48-.16-1.09-.37-1.69-.43-.15-.02-.3-.02-.43-.02h0Zm3.62,2.43c-.14.03-.28.08-.4.13-.12.05-.24.1-.34.16-.1.06-.2.11-.28.17-.17.11-.3.22-.38.3-.08.08-.13.14-.13.14,0,0,.11.06.29.14.09.04.2.09.33.14.13.05.27.1.42.15.62.19,1.43.3,2.12.14.34-.07.62-.21.84-.36.22-.15.38-.32.5-.48.12-.16.2-.3.25-.41.05-.1.07-.17.07-.17,0,0-.1-.02-.27-.04-.17-.01-.4-.05-.67-.07-.14-.01-.28-.03-.43-.04-.04,0-.08,0-.12,0-.04,0-.08,0-.12,0-.08,0-.16,0-.24-.01-.16,0-.33,0-.49,0-.08,0-.17,0-.25.02-.08,0-.16.01-.24.02-.16.02-.32.05-.46.09h0Zm-9.76-12.34c-.07.43.05.91.19,1.27.07.18.14.33.2.43.06.1.09.16.09.16,0,0,.15-.13.29-.36.15-.23.3-.57.34-.98.03-.41-.04-.84-.12-1.16-.02-.08-.04-.16-.06-.22-.02-.07-.03-.13-.05-.17-.03-.1-.05-.15-.05-.15,0,0-.17.08-.37.27-.1.09-.2.22-.29.37-.08.15-.16.33-.19.55Zm1.92,3.26c-.01.48.17.99.37,1.36.05.09.1.18.14.26.05.08.09.14.13.19.07.11.12.17.12.17,0,0,.14-.16.28-.43.07-.14.13-.3.18-.49.05-.19.07-.4.07-.63-.01-.46-.15-.92-.28-1.27-.07-.17-.13-.32-.17-.43-.05-.1-.08-.16-.08-.16,0,0-.04.03-.11.09s-.16.15-.25.26c-.09.12-.19.27-.26.44-.07.18-.12.39-.13.63h0Zm2.28,3.02c.12.51.47.99.8,1.31.08.08.16.16.23.22.08.06.14.11.2.16.12.09.19.13.19.13,0,0,.02-.05.05-.15.03-.09.06-.23.09-.39.02-.16.04-.36.02-.56-.01-.21-.04-.44-.12-.67-.14-.46-.41-.88-.63-1.21-.06-.08-.11-.15-.16-.22-.05-.07-.09-.12-.13-.17-.07-.1-.12-.15-.12-.15,0,0-.16.17-.29.47-.07.15-.13.33-.16.54-.03.21-.03.44.03.7h0Zm3.08,2.67c.2.53.65.99,1.06,1.28.05.04.1.07.15.11.05.03.1.06.14.09.09.06.17.1.24.14.07.04.13.06.16.08.04.02.06.03.06.03,0,0,.02-.06.03-.17.02-.1.03-.26.03-.43,0-.37-.07-.83-.29-1.31-.23-.48-.57-.88-.84-1.18-.07-.07-.13-.15-.19-.21-.06-.06-.11-.11-.16-.16-.09-.09-.14-.14-.14-.14,0,0-.04.05-.09.14-.05.09-.12.23-.17.4-.06.17-.1.37-.1.6,0,.11,0,.23.02.36.02.12.06.25.11.38h0Zm3.44,2.09c.04.06.09.13.14.18.05.06.1.11.16.17.11.11.23.21.36.3.06.04.13.09.19.13.03.02.07.04.1.06.03.02.07.03.1.05.13.07.26.13.39.18.25.09.47.17.64.21.16.04.26.05.26.05,0,0,0-.07-.01-.18s-.04-.28-.09-.46c-.05-.19-.12-.4-.23-.62-.1-.22-.24-.45-.42-.67-.36-.44-.81-.77-1.17-1.02-.09-.06-.17-.12-.25-.17-.08-.05-.15-.09-.2-.12-.11-.07-.18-.11-.18-.11,0,0-.03.06-.06.17-.03.11-.07.27-.08.46,0,.09-.01.2,0,.31,0,.11.02.22.05.34.03.12.06.24.12.37.05.12.12.25.21.37h0Zm-12.41-12.86c.13.61.46,1.1.73,1.41.07.08.14.15.2.21.06.06.12.11.16.14.09.08.15.12.15.12,0,0,.01-.07.02-.19,0-.06,0-.13.01-.22,0-.08,0-.18,0-.28,0-.41-.02-.93-.14-1.46-.12-.54-.31-1.01-.47-1.38-.04-.09-.08-.18-.11-.25-.03-.07-.06-.14-.09-.19-.05-.11-.09-.17-.09-.17,0,0-.04.06-.1.17-.03.05-.06.12-.1.2-.03.08-.07.17-.1.27-.04.1-.07.22-.09.34-.01.06-.02.12-.04.19,0,.07-.01.13-.02.2,0,.07,0,.14-.01.21,0,.07,0,.14,0,.22,0,.07.01.15.02.23.01.07.03.15.04.23h0Zm46.69,2.19c-.37.27-.69.64-.93.94-.12.15-.21.29-.28.38-.07.1-.11.16-.11.16,0,0,.17.08.45.1.28.02.66-.01,1.07-.26.41-.25.74-.69.97-1.06.05-.09.1-.19.14-.27.04-.08.07-.16.1-.22.05-.13.08-.2.08-.2,0,0-.19-.03-.47,0-.14.02-.3.06-.48.12-.18.07-.36.16-.55.29h0Zm-1.89,3.41c-.44.24-.84.61-1.14.92-.08.08-.14.15-.2.21-.06.06-.11.12-.16.17-.09.1-.14.16-.14.16,0,0,.18.11.48.17.15.03.33.05.54.03.2-.02.43-.07.67-.19.48-.23.9-.66,1.19-1.03.15-.19.26-.36.33-.49.08-.13.12-.21.12-.21,0,0-.05-.02-.14-.03-.09-.02-.22-.03-.37-.03-.16,0-.34.02-.54.07-.2.05-.42.13-.63.25h0Zm-2.38,3.3c-.54.13-1.07.4-1.49.61-.1.05-.2.11-.28.16-.09.05-.16.09-.22.12-.12.07-.2.12-.2.12,0,0,.04.05.11.11.07.07.18.15.33.24.15.08.33.16.55.22.22.05.48.06.78.01.59-.1,1.19-.44,1.61-.77.11-.08.2-.16.28-.24.08-.08.16-.14.22-.2.12-.12.18-.19.18-.19,0,0-.2-.13-.53-.2-.16-.04-.37-.07-.59-.08-.22,0-.48.02-.75.09h0Zm-3.14,2.85c-.61.06-1.21.27-1.69.43-.06.02-.12.04-.17.06-.06.02-.11.04-.16.06-.1.04-.19.07-.26.1-.14.06-.23.09-.23.09,0,0,.03.05.1.14s.17.2.32.31c.28.22.74.46,1.39.45.65-.01,1.35-.29,1.86-.59.13-.07.24-.15.35-.22.1-.07.2-.14.27-.19.14-.12.23-.19.23-.19,0,0-.05-.04-.14-.09-.09-.05-.23-.12-.41-.19-.17-.06-.39-.12-.64-.16-.12-.02-.25-.03-.39-.03-.14,0-.28,0-.43.02h0Zm-3.65,2.32c-.08-.01-.16-.02-.24-.02-.08,0-.17-.01-.25-.02-.17,0-.33,0-.49,0-.08,0-.16,0-.24.01-.04,0-.08,0-.12,0-.04,0-.08,0-.12,0-.15,0-.3.02-.43.04-.27.02-.5.06-.67.07-.17.02-.27.04-.27.04,0,0,.02.07.07.17.05.1.13.25.25.41.12.16.28.33.5.48.22.15.5.29.84.36.69.16,1.5.05,2.12-.14.16-.05.3-.1.42-.15.13-.05.24-.09.33-.14.18-.08.29-.14.29-.14,0,0-.04-.05-.13-.14-.09-.08-.21-.19-.38-.3-.08-.06-.18-.11-.28-.17-.1-.06-.22-.11-.34-.16-.12-.05-.26-.09-.4-.13-.14-.04-.3-.07-.46-.09h0Zm10.03-12.79c-.09-.15-.19-.27-.29-.37-.19-.19-.37-.27-.37-.27,0,0-.02.06-.05.15-.02.05-.03.11-.05.17-.02.07-.04.14-.06.22-.08.32-.15.75-.12,1.16.04.42.19.75.34.98.15.23.29.36.29.36,0,0,.04-.06.09-.16.06-.1.13-.25.2-.43.14-.36.26-.83.19-1.27-.03-.22-.1-.4-.19-.55Zm-1.87,3.18c-.08-.18-.17-.33-.26-.44-.09-.12-.18-.21-.25-.26-.07-.06-.11-.09-.11-.09,0,0-.03.06-.08.16-.05.1-.11.25-.17.43-.13.35-.27.81-.28,1.27,0,.23.02.44.07.63.05.19.11.35.18.49.14.27.28.43.28.43,0,0,.05-.06.12-.17.04-.05.08-.12.13-.19.05-.08.09-.16.14-.26.2-.37.38-.88.37-1.36,0-.24-.06-.45-.13-.63h0Zm-2.11,2.95c-.03-.21-.09-.39-.16-.54-.14-.3-.29-.47-.29-.47,0,0-.05.05-.12.15-.04.05-.08.1-.13.17-.05.07-.1.14-.16.22-.22.32-.49.74-.63,1.21-.08.23-.11.46-.12.67-.01.21,0,.4.02.56.02.16.06.3.09.39.03.09.05.15.05.15,0,0,.07-.05.19-.13.06-.04.13-.09.2-.16.07-.06.15-.14.23-.22.33-.32.68-.8.8-1.31.06-.26.06-.49.03-.7h0Zm-3,2.99c.02-.13.03-.25.02-.36,0-.23-.05-.43-.1-.6-.06-.17-.12-.3-.17-.4-.05-.09-.09-.14-.09-.14,0,0-.06.05-.14.14-.05.04-.1.09-.16.16-.06.06-.12.13-.19.21-.27.31-.62.71-.84,1.18-.23.48-.3.95-.29,1.31,0,.18.01.33.03.43.02.11.03.17.03.17,0,0,.02,0,.06-.03.04-.02.09-.04.16-.08.07-.04.15-.08.24-.14.04-.03.09-.06.14-.09.05-.03.1-.07.15-.11.41-.29.85-.75,1.06-1.28.05-.13.09-.26.11-.38h0Zm-3.33,2.1c.05-.13.09-.25.12-.37.02-.12.04-.23.05-.34,0-.11,0-.21,0-.31-.02-.19-.05-.35-.08-.46-.03-.11-.06-.17-.06-.17,0,0-.07.04-.18.11-.06.04-.13.08-.2.12-.08.05-.16.11-.25.17-.36.25-.82.58-1.17,1.02-.18.22-.31.45-.42.67-.1.22-.18.43-.23.62-.05.19-.07.35-.09.46-.01.12-.01.18-.01.18,0,0,.1-.02.26-.05.16-.03.39-.11.64-.21.12-.05.25-.12.39-.18.03-.02.07-.03.1-.05.03-.02.06-.04.1-.06.06-.04.13-.08.19-.13.13-.09.25-.19.36-.3.06-.05.11-.11.16-.17.05-.06.09-.12.14-.18.09-.13.15-.25.21-.37h0Zm12.24-12.71c.01-.08.02-.15.02-.23,0-.07,0-.15,0-.22,0-.07,0-.14-.01-.21,0-.07-.01-.14-.02-.2-.01-.07-.02-.13-.04-.19-.02-.12-.05-.24-.09-.34-.03-.1-.07-.19-.1-.27-.04-.08-.07-.15-.1-.2-.06-.11-.1-.17-.1-.17,0,0-.03.06-.09.17-.03.05-.06.12-.09.19-.03.07-.07.16-.11.25-.16.37-.35.84-.47,1.38-.12.54-.14,1.06-.14,1.46,0,.1,0,.19,0,.28,0,.08,0,.16.01.22,0,.12.02.19.02.19,0,0,.06-.04.15-.12.05-.04.1-.09.16-.14.06-.06.13-.13.2-.21.28-.31.6-.8.73-1.41.02-.08.03-.15.04-.23h0Z"/>
          </g>
        </g>
        <g>
          <path class="cls-2" d="m39.5,244.3c-17.72,0-32.09,14.37-32.09,32.09s14.37,32.09,32.09,32.09,32.09-14.37,32.09-32.09-14.37-32.09-32.09-32.09Z"/>
          <circle class="cls-2" cx="39.5" cy="276.39" r="32.09"/>
        </g>
      </g>
    </g>
  </g>
  <g>
    <path class="cls-3" d="m46.93,336.97c.6.12,1.21.26,1.83.41,1.57.41,3.78,1.11,6.24,2.36,6.88,3.49,10.39,8.71,10.39,8.71.98,1.45,2.35,3.85,3.24,7.19.54.13,1.56.44,2.49,1.3.31.29,1.89,1.73,1.74,3.84-.12,1.81-1.42,2.93-1.97,3.41-.91.78-1.85,1.13-2.42,1.29-.47,1.64-1.06,3.04-1.65,4.21-.11.21-.77,1.51-1.69,2.85-3.76,5.43-9.61,8.27-11.15,8.97-1.21.55-2.17.9-2.82,1.13-4.06,1.44-7.3,1.83-8.12,1.92-1.87.2-4.37.32-7.33,0-2.03-.25-4.9-.75-8.23-1.8-.95-.3-2-.63-3.16-1.13-5.45-2.35-8.75-6.28-9.82-7.64-2.57-3.27-3.83-6.53-4.47-8.75-.49-.13-1.29-.41-2.07-1.07-.19-.16-1.84-1.6-1.84-3.68,0-2.01,1.56-3.95,3.87-4.67.75-2.92,1.87-5.08,2.73-6.49,4.2-6.88,10.82-9.67,13.41-10.72.65-.26,2.64-1.04,5.45-1.64.36-.08.75-.15,1.16-.23"/>
    <g>
      <path class="cls-3" d="m64.04,369.11c-.76-6.21-2.34-12.29-3.47-18.45-.03-.17-.12-.67-.5-1.09-.66-.71-1.75-.69-2.13-.69-1.71.02-8.7-.01-18.3,0-9.71-.03-16.8,0-18.53,0-.35,0-1.3,0-1.92.63-.45.45-.52,1.03-.56,1.23-2.05,10.07-3.5,17.46-3.61,18.36-.03.21-.08.67.16,1.13.07.13.21.35.68.7.32.24.82.56,1.52.81.81.29,1.44.46,1.5.47,5.79,1.32,9.14,1.69,9.14,1.69,2.54.28,4.48.37,6.05.44.95.04,2.79.11,5.47.1,3.92-.01,7.2-.02,11.53-.5,4.55-.67,7.93-1.31,9.1-1.65.6-.18,1.37-.48,1.53-.55.61-.25,1.06-.47,1.52-.81.47-.35.61-.57.68-.7.25-.47.18-.94.16-1.13Z"/>
      <g>
        <ellipse class="cls-5" cx="29.05" cy="363.09" rx=".81" ry="3.03"/>
        <path class="cls-5" d="m29.07,356.29c-3.59,0-6.49,2.91-6.49,6.49s2.91,6.49,6.49,6.49,6.49-2.91,6.49-6.49-2.91-6.49-6.49-6.49Zm-.02,12.16c-3.01,0-5.45-2.44-5.45-5.45s2.44-5.45,5.45-5.45,5.45,2.44,5.45,5.45-2.44,5.45-5.45,5.45Z"/>
      </g>
      <g>
        <ellipse class="cls-5" cx="50.59" cy="363.09" rx=".81" ry="3.03"/>
        <path class="cls-5" d="m44.07,362.79c0,3.59,2.91,6.49,6.49,6.49,3.59,0,6.49-2.91,6.49-6.49,0-3.59-2.91-6.49-6.49-6.49-3.59,0-6.49,2.91-6.49,6.49Zm1.06.22c0-3.01,2.44-5.45,5.45-5.45s5.45,2.44,5.45,5.45c0,3.01-2.44,5.45-5.45,5.45-3.01,0-5.45-2.44-5.45-5.45Z"/>
      </g>
      <circle class="cls-5" cx="38.14" cy="370.61" r=".56"/>
      <circle class="cls-5" cx="40.92" cy="370.61" r=".56"/>
      <path class="cls-5" d="m26.14,357.98s-.24-.03-.69-.21c-.25-.1-1.08-.43-1.77-1.2-.77-.84-.86-1.63-1.01-1.6-.16.04-.3,1.1.22,1.86.88,1.27,3.24,1.2,3.25,1.14Z"/>
      <path class="cls-5" d="m25,359.1s-.27-.03-.79-.24c-.28-.11-1.22-.49-2.01-1.36-.87-.96-.97-1.85-1.14-1.81-.19.05-.35,1.25.25,2.11.99,1.44,3.68,1.36,3.69,1.3Z"/>
      <path class="cls-5" d="m53.88,357.98s.24-.03.69-.21c.25-.1,1.08-.43,1.77-1.2.77-.84.86-1.63,1.01-1.6.16.04.3,1.1-.22,1.86-.88,1.27-3.24,1.2-3.25,1.14Z"/>
      <path class="cls-5" d="m55.02,359.1s.27-.03.79-.24c.28-.11,1.22-.49,2.01-1.36.87-.96.97-1.85,1.14-1.81.19.05.35,1.25-.25,2.11-.99,1.44-3.68,1.36-3.69,1.3Z"/>
    </g>
    <g>
      <g>
        <circle class="cls-5" cx="37.86" cy="381.48" r="1.02"/>
        <circle class="cls-5" cx="37.81" cy="381.43" r=".97"/>
      </g>
      <g>
        <circle class="cls-5" cx="39.83" cy="381.52" r=".57"/>
        <circle class="cls-5" cx="39.8" cy="381.49" r=".54"/>
      </g>
      <g>
        <circle class="cls-5" cx="41.21" cy="381.52" r=".57"/>
        <circle class="cls-5" cx="41.18" cy="381.49" r=".54"/>
      </g>
    </g>
    <g>
      <g>
        <path class="cls-5" d="m48.68,337.86c0,.86-1.31,1.63-1.71,1.87-.14.08-.64.37-1.8.69-2.05.57-3.84.58-5.08.59-.06,0-.25,0-.51,0-.97-.02-5.95-.13-8.02-1.93-.71-.62-.73-1.14-.73-1.25,0-.8.86-1.41,1.17-1.64.5-.36,1-.51,1.32-.59v.61h-.04c-.09.03-.22.08-.36.18-.07.05-.3.22-.39.51,0,0-.1.28,0,.63.12.4.88,1.18,3.67,1.61,1.02.16,1.95.21,3.71.2,3.7-.04,5.52-.32,6.64-1.24.25-.21.72-.61.66-1.08-.06-.47-.63-.75-.8-.82,0-.15.01-.3.02-.45.32.14.78.39,1.24.79.6.52,1,.87,1.01,1.34Z"/>
        <path class="cls-5" d="m46.55,338.08c-1.12.92-2.94,1.21-6.64,1.24-1.77.02-2.69-.04-3.71-.2-2.78-.43-3.55-1.21-3.67-1.61-.1-.35,0-.63,0-.63.1-.29.32-.45.39-.51.14-.1.27-.15.36-.18h.04v1.21c.01.05.03.13.08.21.11.18.28.27.37.32.58.29.97.39.97.39.54.14.81.21,1.24.28.6.1,1.13.16,1.65.2.56.04,1.07.05,2.07.06,1.64.02,2.15,0,2.46-.02.6-.04.99-.09,1.27-.13.18-.03.34-.06.49-.09.2-.04.44-.09.81-.19.41-.11,1-.28,1.35-.51.09-.06.21-.15.29-.3.04-.08.06-.16.07-.21v-1.23c.17.08.74.35.8.82.06.47-.41.87-.66,1.08Z"/>
      </g>
      <g>
        <rect class="cls-3" x="33.32" y="325.92" width="13.1" height="11.49"/>
        <path class="cls-5" d="m46.41,337.41s-.02.12-.07.21c-.08.15-.2.24-.29.3-.35.23-.93.4-1.35.51-.37.1-.6.15-.81.19-.15.03-.31.06-.49.09-.29.05-.67.1-1.27.13-.31.02-.82.05-2.46.02-1-.01-1.51-.02-2.07-.06-.52-.04-1.05-.09-1.65-.2-.42-.07-.69-.14-1.24-.28,0,0-.39-.1-.97-.39-.09-.05-.26-.13-.37-.32-.05-.08-.07-.16-.08-.21h13.1Z"/>
        <rect class="cls-5" x="36.89" y="329.85" width="1.96" height="2.46"/>
        <rect class="cls-5" x="40.89" y="329.85" width="1.96" height="2.46"/>
        <rect class="cls-5" x="38.2" y="333.77" width="2.03" height="1.34"/>
        <rect class="cls-5" x="40.24" y="333.77" width="1.34" height="1.34"/>
      </g>
    </g>
    <g>
      <path class="cls-6" d="m58.97,342.42s-.02-.25.08-.38c.1-.13.39-.16.39-.16,0,0,.35-.67.73-1.13.38-.46,1.19-1.15,1.77-1.11.58.04.77.29.96.62.19.32.2.71.17.93-.03.22-.09.48-.37.64-.28.16-.42.22-.84.41-.42.19-1.78.52-1.78.52l-.13-.44.74-.46s.13,0,.39-.08c.26-.08,1.11-.43,1.28-.59.17-.16.22-.47.22-.47,0,0-.2-.06-.53.15-.33.21-.68.36-.89.56-.21.2-1.22.89-1.22.89,0,0,.16.36.1.55-.06.18-.17.26-.27.32-.11.05-.19-.19-.19-.19,0,0-.17.06-.42.15-.26.09-.81.29-.99.3-.18,0-.99.2-1.15.31-.16.11-.56.54-.61.71-.05.17-.17.27-.04.31.13.03.87-.13,1.18-.26.31-.12.7-.33.91-.48.21-.15.36-.29.44-.44.08-.14.13-.4.13-.4l.57-.2s.12,0,.07.13c-.05.13-.22.55-.44.84-.22.29-.5.46-.65.59-.16.13-.89.66-1.59.72-.7.07-.76-.08-.94-.24-.18-.16-.38-.35-.41-.64-.03-.28.02-.74.5-1.17.48-.43.92-.51,1.35-.59.43-.09,1.48-.22,1.48-.22Z"/>
      <path class="cls-6" d="m59.66,343.13s-.05.33,0,.59c.05.26-.02.57,0,.97.02.4-.05.59-.08.94-.03.34-.1.56-.2.91-.11.35-.25.61-.32.65-.07.04-.07.12-.25,0-.18-.11-.32-.25-.47-.26-.16,0-.41-.01-.54-.04-.13-.03-.23-.08-.09-.21.13-.13.67-.78.78-1.05.11-.26.41-.92.47-1.11.06-.18.07-.35.07-.35,0,0,.25-.22.35-.47.11-.25.29-.59.29-.59Z"/>
      <path class="cls-6" d="m60.1,342.74s.43-.08.69-.16c.26-.08.94-.29.94-.29,0,0,.31.07.62-.03s.68-.29.79-.37c.11-.08.21-.32.35-.23.14.09.34.41.34.65,0,.24.02.33-.29.49-.31.16-.61.27-1,.35-.39.08-.7.14-1.16.11-.46-.04-.83-.12-.95-.18-.12-.06-.41-.24-.41-.24l.06-.1Z"/>
      <g>
        <path class="cls-6" d="m58.97,342.4s.05.05.09.07c.04.02.09.04.12.07.22.2.34.36.45.64,0,.02.04.04.06.03.02,0,.04-.04.03-.06-.12-.3-.24-.46-.47-.67-.03-.03-.07-.05-.11-.07-.03-.02-.06-.03-.07-.05-.01-.02-.04-.03-.06-.01-.02.01-.03.04-.01.06Z"/>
        <path class="cls-6" d="m59.02,342.3c-.03-.11.04-.21.14-.28.1-.07.22-.11.32-.07.21.08.45.37.52.65.05.18.03.35-.12.47-.02.02-.04.04-.07.06-.02.01-.03.03-.05.03-.02,0-.04.03-.03.06s.03.04.06.03c.03,0,.05-.02.08-.04.03-.02.05-.05.08-.07.18-.14.22-.35.16-.56-.08-.31-.35-.62-.58-.71-.12-.05-.29,0-.41.08-.12.09-.2.23-.17.38,0,.02.03.04.06.03.02,0,.04-.03.03-.06Z"/>
        <path class="cls-6" d="m59.46,341.89c.44-.77,1.04-1.61,1.85-2.02.44-.22.82-.22,1.11-.05.29.17.5.5.6.93,0,.02.03.04.06.03s.04-.03.03-.06c-.11-.46-.33-.81-.64-.99-.31-.18-.72-.19-1.2.04-.83.41-1.44,1.27-1.89,2.06-.01.02,0,.05.02.06.02.01.05,0,.06-.02Z"/>
        <path class="cls-6" d="m60.01,342.33c.66-.36,1.18-.89,1.8-1.3.32-.21.75-.37,1.13-.19.02.01.05,0,.06-.02.01-.02,0-.05-.02-.06-.4-.2-.87-.03-1.22.19-.62.4-1.14.93-1.8,1.29-.02.01-.03.04-.02.06.01.02.04.03.06.02Z"/>
        <path class="cls-6" d="m62.53,340.86s.01-.04.04-.04c.02,0,.05,0,.06.03,0,.01,0,.03,0,.05,0,.02-.03.05-.03.06-.04.18-.19.27-.36.37-.31.2-1.15.52-1.49.6-.02,0-.05-.01-.05-.04,0-.02.01-.05.04-.05.34-.07,1.15-.39,1.46-.58.08-.05.15-.09.21-.14.05-.05.1-.1.11-.17,0-.01.03-.07.03-.07Z"/>
        <path class="cls-6" d="m60.12,342.78c.14,0,.31-.07.45-.11.39-.09.74-.18,1.12-.33.24-.1.46-.2.69-.33.12-.07.28-.11.38-.2.28-.23.4-.66.37-1.01,0-.03-.02-.04-.05-.04-.03,0-.04.02-.04.05.03.32-.08.72-.34.93-.1.08-.26.12-.37.19-.22.13-.44.23-.68.32-.37.15-.72.24-1.1.33-.14.03-.29.1-.43.11-.03,0-.05.02-.04.05,0,.03.02.05.05.04Z"/>
        <path class="cls-6" d="m56.31,345.19s-.03-.09-.03-.1c-.03-.12-.04-.21-.03-.33.03-.31.23-.65.47-.85.34-.29.75-.4,1.18-.48.22-.04.44-.11.67-.12.09,0,.2-.07.28-.11.17-.07.45-.18.63-.22.02,0,.05,0,.06.03s0,.05-.03.06c-.18.04-.45.14-.62.22-.09.04-.21.11-.31.11-.22.02-.44.08-.66.12-.41.08-.81.18-1.13.46-.22.19-.41.5-.44.79-.01.11,0,.19.02.3,0,.01.03.09.04.15,0,.03,0,.06,0,.07,0,.02-.01.02-.02.03,0,0-.02.01-.04.01,0,0-.03-.01-.06-.03-.08-.06-.25-.2-.28-.23-.11-.08-.24-.18-.31-.3-.24-.42-.12-1.05.19-1.4.63-.72,1.42-.75,2.3-.89.22-.03.57-.14.77-.1.03,0,.04.03.04.05,0,.03-.03.04-.05.04-.19-.03-.53.07-.74.1-.86.13-1.62.16-2.24.86-.29.32-.41.91-.18,1.29.06.11.19.2.29.27.03.02.15.12.24.19Z"/>
        <path class="cls-6" d="m59.51,343.24c-.22.63-.56,1.03-1.14,1.41-.28.18-.57.37-.89.47-.14.05-.4.12-.64.15-.15.01-.29,0-.39-.05-.02-.01-.05,0-.06.02-.01.02,0,.05.02.06.11.07.27.08.44.06.25-.02.51-.1.66-.15.33-.1.63-.3.91-.49.6-.39.95-.8,1.18-1.46,0-.02,0-.05-.03-.06-.02,0-.05,0-.06.03Z"/>
        <path class="cls-6" d="m56.43,344.82s-.03.04-.06.03c-.02,0-.04-.03-.03-.06.01-.03.04-.06.08-.07.06-.01.15,0,.18,0,.25-.02.5-.1.73-.19.39-.14.71-.31,1.05-.55.1-.07.23-.13.31-.22.14-.16.22-.36.3-.55.01-.02.04-.03.06-.02.02.01.03.04.02.06-.09.2-.17.41-.31.57-.08.1-.22.16-.32.23-.35.24-.67.41-1.07.56-.24.09-.5.17-.76.19-.03,0-.09,0-.15,0-.01,0-.02,0-.03,0,0,0,0,0,0,0Z"/>
        <path class="cls-6" d="m57.67,346.82l.08.04c.08.04.16.04.25.03.1,0,.19-.02.29,0,.12.02.24.09.35.16.1.06.2.12.3.13.03,0,.04.02.04.05,0,.03-.02.04-.05.04-.12-.01-.23-.08-.34-.14-.1-.06-.2-.13-.31-.14-.09-.01-.18,0-.27,0-.1,0-.2,0-.29-.04-.01,0-.09-.03-.12-.06-.02-.02-.03-.04-.03-.06,0,0,0-.01,0-.02,0,0,.01-.02.03-.04.06-.07.2-.23.22-.25.15-.19.3-.38.43-.58.33-.51.53-1.1.73-1.67,0-.02.03-.04.06-.03.02,0,.04.03.03.06-.2.57-.4,1.18-.74,1.69-.13.2-.28.4-.43.59-.02.02-.16.18-.22.25Z"/>
        <path class="cls-6" d="m59.56,343.33c.12.31.06.64.05.96,0,.18.01.37,0,.55,0,.28-.06.56-.1.83-.04.25-.04.51-.14.75-.02.05-.13.38-.24.59-.02.05-.05.09-.07.12,0,0-.01.02-.02.02-.02,0-.04.03-.03.06s.03.04.06.03c.02,0,.04-.01.06-.03.03-.03.06-.08.1-.15.11-.2.22-.54.24-.59.1-.24.11-.51.14-.77.04-.28.09-.56.1-.84,0-.18-.02-.37,0-.55.01-.33.07-.68-.06-.99,0-.02-.04-.04-.06-.03-.02,0-.04.04-.03.06Z"/>
        <path class="cls-6" d="m60.11,342.9c.26.22.66.34,1.08.39.63.07,1.33-.02,1.77-.2.13-.05.28-.1.41-.16.14-.06.27-.14.37-.27.02-.02.01-.05,0-.06-.02-.02-.05-.01-.06,0-.08.11-.2.18-.33.24-.14.06-.28.1-.41.15-.43.18-1.11.27-1.72.2-.4-.05-.78-.16-1.03-.37-.02-.02-.05-.01-.07,0-.02.02-.01.05,0,.07Z"/>
        <path class="cls-6" d="m63.79,342.49s0-.02,0-.04c0-.05,0-.12-.01-.14-.02-.08-.11-.36-.21-.51-.02-.03-.04-.06-.06-.07-.01,0-.02-.02-.03-.02-.07,0-.13.05-.2.11-.07.07-.15.14-.21.18-.34.19-.82.4-1.22.37-.03,0-.04-.02-.04-.05,0-.03.02-.04.05-.04.38.02.84-.18,1.17-.36.08-.04.16-.14.24-.2.07-.05.14-.09.21-.09.02,0,.05,0,.08.03.03.02.06.06.09.11.1.16.2.45.22.54,0,.03.02.14,0,.2,0,.05-.04.08-.07.09-.02,0-.05,0-.06-.03,0-.02,0-.05.03-.05Z"/>
      </g>
    </g>
  </g>
  <g id="Objects">
    <path class="cls-5" d="m35.36,460.33l-21.69-51.66,51.65,21.69-17.32,4.59,15.37,15.37-8.06,8.06-15.37-15.37-4.59,17.32h0Zm3.58-21.07l16.38,16.38,5.31-5.31-16.38-16.38,15.07-4-42.03-17.65,17.65,42.03,4-15.07h0Z"/>
  </g>
  <path id="outline_bicho" data-name="outline bicho" class="cls-2" d="m37.96,534.1c.1.04.18.09.25.09.13,0,.27-.04.4-.09.3-.11.6-.22.89-.36.48-.24.96-.5,1.43-.77.32-.19.63-.4.9-.67.2-.21.45-.37.68-.56.15-.13.32-.25.45-.39.19-.2.35-.42.52-.64.27-.34.53-.68.8-1.02.06-.08.13-.16.2-.23.06-.08.13-.09.21-.02.13.1.28.15.45.13.24-.02.36.06.43.28.03.1.06.21.1.3.06.14.05.28-.01.43-.23.54-.45,1.08-.75,1.59-.18.31-.37.62-.57.93-.09.14-.19.26-.3.39-.15.2-.31.4-.47.59-.04.05-.08.09-.12.14-.05.05-.11.1-.15.16-.2.27-.39.54-.6.81-.24.31-.42.66-.61.99-.11.19-.18.4-.27.6-.12.25-.2.49-.18.78.02.26.05.48.31.61.11.06.2.12.33.1.03,0,.06.02.09.03,0,.03,0,.06,0,.07-.14.31-.08.6.05.88.11.26.22.53.35.78.13.24.28.47.48.65.14.13.28.14.45.05.06-.03.12-.05.18-.08.06.17.02.3-.03.44-.08.21-.05.4.14.53.02.02.04.05.05.07,0,.02,0,.03,0,.04-.01.02-.02.04-.03.05-.23.25-.24.52-.14.81.09.28.43.44.72.34.11-.04.22-.07.33-.1.24-.06.33-.02.42.19.1.25.16.52.17.8,0,.05-.02.11-.02.16-.02.25.07.45.22.65.18.24.32.49.24.81,0,.02,0,.05.01.09.19-.13.14-.38.29-.53.13.12.11.27.12.42.12-.05.14-.14.13-.22,0-.1,0-.21-.06-.29-.12-.2-.15-.41-.17-.64-.03-.25-.14-.5-.23-.74-.06-.18-.13-.36-.19-.54-.02-.07-.03-.14-.07-.2-.06-.09-.05-.17,0-.26.04-.07.08-.15.08-.22.02-.44-.18-.79-.63-.9-.16-.04-.16-.05-.15-.21.02-.29-.11-.48-.36-.61-.02-.01-.05-.02-.07-.03-.16-.07-.22-.23-.3-.36-.02-.03.01-.1.03-.15.02-.06.08-.11.08-.16-.02-.16,0-.32-.11-.46-.11-.12-.21-.26-.3-.4-.09-.14-.13-.31-.31-.37-.03-.01-.05-.06-.07-.09-.04-.04-.08-.09-.13-.11-.23-.12-.41-.32-.66-.4,0,0,0-.01-.01-.03.1-.18.25-.31.43-.41.13-.07.21-.18.26-.3.08-.2.16-.41.25-.61.08-.16.17-.31.26-.46.05-.09.11-.17.16-.26.11-.23.17-.49.33-.7.09-.12.16-.25.23-.38.2-.36.29-.78.56-1.11.04-.05.05-.11.07-.17.03-.06.05-.13.08-.19.31-.55.51-1.15.73-1.73.08-.22.15-.45.22-.68.04-.15.05-.31.1-.45.11-.32.08-.61-.07-.89-.04-.06-.07-.13-.09-.2-.04-.12-.03-.23.07-.33.05-.05.08-.12.11-.19.12-.29.08-.57,0-.85-.05-.19-.08-.38-.13-.57-.06-.26-.11-.53-.22-.77-.07-.15-.08-.27-.02-.42.11-.27.22-.54.33-.82.09-.23.16-.46.24-.69.08-.24.17-.47.25-.71.04-.12.08-.23.12-.35.12-.36.23-.73.35-1.09.03-.1.05-.21.09-.31.26-.61.38-1.26.57-1.89.08-.27.16-.53.25-.8.11-.36.22-.73.35-1.09.07-.2.15-.39.23-.59.1.04.18.07.26.09.08.03.17.05.25.07.18.05.34.04.49-.11.04-.04.11-.05.16-.05.17,0,.39.26.43.47.05.25-.03.49-.03.74,0,.19-.05.38-.04.56.03.41-.1.8-.18,1.2-.07.34-.2.68-.31,1.01-.14.42-.29.84-.34,1.28-.02.17-.03.33-.05.5-.04.45.05.86.42,1.15.06.05.13.1.19.15.04.04.09.09.1.14.04.16.06.31.08.47.04.35.13.68.31.98.16.28.38.51.73.57.01,0,.03,0,.04,0,.12.04.15.08.12.21-.02.09-.05.17-.06.26-.03.15-.02.28.14.36.08.04.08.1.04.17-.03.06-.08.11-.11.17-.16.27-.15.54,0,.79.11.18.29.31.54.26.02,0,.05.01.09.02.04.34.09.67.1,1.01,0,.21.05.39.16.56.08.12.08.17-.03.28-.02.03-.04.06-.08.11.11,0,.19,0,.26-.08.04-.04.08-.07.13-.1.12-.06.23-.04.35,0,.17.07.23.04.32-.12-.01,0-.02-.01-.04-.01-.22.02-.22.02-.24-.2-.02-.19-.07-.38-.14-.56-.12-.31-.22-.63-.32-.94-.04-.13,0-.17.11-.22.08-.03.15-.05.23-.09.27-.11.42-.31.46-.58.02-.14-.01-.27-.14-.37-.15-.11-.31-.21-.49-.25-.12-.03-.15-.09-.09-.17.12-.17.05-.3-.06-.41-.08-.09-.19-.16-.3-.23-.11-.08-.21-.16-.23-.31.08-.06.15-.11.22-.17.15-.13.24-.31.2-.49-.07-.25-.16-.51-.35-.71-.1-.1-.24-.17-.33-.28-.21-.26-.46-.43-.81-.46-.15-.01-.25-.2-.17-.3.09-.11.17-.26.35-.24.08,0,.16,0,.19-.09.04-.12.1-.23.03-.37-.05-.09-.08-.2-.07-.3.02-.19-.02-.39.06-.57,0-.02,0-.05,0-.08,0-.23-.01-.46.01-.68.04-.42.07-.83.05-1.25-.02-.43-.03-.86-.04-1.29,0-.26,0-.51-.04-.76-.05-.34-.15-.68-.35-.97-.07-.1-.16-.17-.24-.27-.1-.12-.2-.25-.16-.41.07-.27-.04-.47-.19-.66-.24-.31-.59-.51-.88-.77-.03-.03-.09-.04-.13-.07-.02.04-.03.06-.03.08,0,.18,0,.35-.1.51-.02.03,0,.08-.01.12,0,.05,0,.11-.02.16-.15.43-.28.88-.54,1.27-.02.03-.05.06-.05.09-.02.16-.11.2-.25.2-.1,0-.2.03-.24.16.13.12.25.11.38-.02,0,.01.01.03.02.04-.06.1-.11.2-.17.31-.09-.04-.15-.08-.22-.11-.07.06-.13.12-.22.21,0-.06-.01-.08-.01-.1-.03-.28.08-.52.26-.73.09-.1.19-.19.3-.28.03-.03.1-.03.14-.03.15,0,.19-.06.14-.2-.14.01-.28.02-.45.04.07-.14.17-.19.27-.25.08-.05.12-.11.12-.21.02-.21.08-.4.24-.57.17-.18.28-.39.21-.65-.02-.07,0-.13.07-.17.16-.08.18-.12.17-.29,0-.2,0-.4,0-.6.03-.42.05-.85,0-1.27-.02-.1-.03-.23,0-.32.12-.29.03-.54-.05-.8-.07-.22-.23-.39-.4-.54-.06-.05-.12-.11-.09-.21.1-.38.14-.77.31-1.14.01-.02.04-.04.07-.07,0,.03.01.05.01.06-.03.21-.02.21.19.22.25.02.47-.07.7-.14.2-.06.37-.16.5-.31.12-.13.25-.21.4-.27.08-.03.17-.07.24-.12.07-.04.12-.1.17-.16.14-.15.29-.28.48-.34.04-.01.12,0,.14.03.07.12.15.06.23.02.12-.06.24-.13.36-.2.46-.28.92-.57,1.38-.85.15-.09.29-.18.43-.28.38-.29.76-.59,1.14-.88.09-.06.19-.11.29-.14.22-.07.25-.1.28-.34.02-.15.06-.29.11-.43.02-.08.09-.1.16-.06.06.04.12.09.18.12.48.22.98.36,1.53.3.08,0,.19-.06.24-.13.09-.11.14-.25.2-.38.05-.13.06-.15.21-.14.13,0,.26.02.38.03.16.02.27-.06.35-.2.03-.05.06-.1.09-.18.08.05.15.09.21.13.21.15.43.24.7.21.29-.04.5-.25.51-.54,0-.11,0-.23-.01-.34,0-.16.02-.21.16-.22.15-.01.3-.01.44,0,.23.03.45.09.67.13.06.01.14.03.19,0,.05-.03.08-.11.12-.17.04.02.07.06.12.06.11.01.23,0,.34.02.11.02.21.07.31.1,0-.01.02-.03.03-.04-.08-.08-.16-.15-.23-.23-.09-.09-.07-.17.05-.22.06-.02.13-.01.2,0,.04,0,.08,0,.12.01-.07-.09-.16-.11-.26-.1-.1,0-.2.02-.3.04-.11.03-.21,0-.31-.05-.08-.05-.19-.09-.28-.09-.36,0-.73-.04-1.09.06-.08.02-.17.03-.26.05-.08.02-.13,0-.17-.07-.02-.03-.03-.06-.04-.09-.19-.33-.66-.47-.96-.08-.11.15-.21.3-.31.46-.06.09-.13.15-.23.12-.19-.07-.31.03-.43.16-.04.04-.07.09-.1.13-.09.12-.17.12-.26,0-.11-.16-.26-.22-.46-.18-.03,0-.05,0-.08,0-.55.03-1.03.23-1.44.62-.18.17-.33.14-.41-.09-.03-.07-.06-.12-.14-.11-.15.03-.31.03-.44.1-.27.14-.55.28-.74.51-.13.15-.27.29-.41.42-.13.12-.23.27-.35.4-.25.27-.51.54-.77.79-.23.22-.48.43-.74.62-.24.19-.51.34-.77.52-.07.05-.13.1-.2.15-.15.1-.28.23-.46.26-.22.04-.43.07-.59-.13-.09-.11-.22-.15-.38-.13-.22.03-.27-.04-.25-.26.04-.46.1-.93.11-1.39,0-.22-.04-.46-.11-.67-.08-.27-.21-.53-.31-.8-.03-.08-.07-.16-.11-.23-.08-.14-.15-.28-.24-.41-.04-.06-.08-.13-.13-.16-.15-.1-.31-.18-.47-.26-.13-.07-.15-.12-.04-.23.34-.32.33-.73.36-1.13,0-.04-.02-.09-.03-.14-.1-.28-.29-.5-.5-.69-.11-.1-.18-.21-.24-.34-.05-.12-.03-.15.07-.24.08-.06.17-.13.21-.22.08-.17.21-.25.37-.3.13-.04.27-.07.39-.14.23-.14.48-.25.73-.36.1-.04.2-.09.3-.13.14-.07.31-.11.41-.21.25-.25.57-.33.87-.44.26-.1.54-.15.81-.23.19-.06.37-.13.5-.31.03-.04.09-.07.14-.09.36-.1.7-.21,1.01-.43.07-.05.15-.1.21-.16.08-.09.17-.15.29-.18.07-.02.14-.04.22-.07.3-.11.6-.23.8-.52.04-.06.14-.1.23-.12.19-.06.38-.1.57-.16.22-.07.36-.25.51-.41.07-.08.15-.12.26-.15.28-.06.56-.12.83-.21.23-.08.46-.19.52-.47,0-.02.02-.03.04-.05.14,0,.29,0,.43-.03.31-.05.6-.18.86-.36.07-.05.15-.13.18-.22.05-.13.13-.17.25-.2.36-.1.72-.21,1.08-.31.18-.05.31-.15.38-.32.05-.11.13-.16.25-.2.34-.1.68-.21,1.01-.33.19-.07.37-.17.48-.37.03-.06.13-.09.2-.11.24-.07.49-.13.73-.2.65-.18,1.05-.62,1.31-1.21.11-.24,0-.37-.25-.35-.03,0-.07,0-.1.02-.22.06-.43.13-.65.2-.08.03-.17.07-.24.12-.21.13-.42.27-.61.42-.17.13-.32.28-.46.43-.13.14-.13.16-.3.11-.18-.06-.35-.05-.51.05-.34.21-.67.43-.93.74-.12.14-.14.15-.32.09-.14-.05-.29-.04-.42.02-.18.09-.35.2-.5.32-.17.14-.32.3-.47.46-.11.11-.16.12-.3.05-.06-.03-.14-.07-.21-.05-.14.03-.28.07-.4.14-.25.15-.45.36-.62.59-.14.18-.13.18-.32.09-.16-.08-.31-.08-.46.03-.17.12-.35.24-.52.37-.1.08-.19.18-.27.28-.14.18-.19.22-.41.14-.11-.04-.22-.03-.31.05-.19.17-.39.34-.57.53-.12.13-.26.19-.43.19-.06,0-.13,0-.17.03-.19.14-.38.28-.57.44-.14.12-.29.21-.48.21-.16,0-.29.06-.41.16-.14.12-.28.24-.43.36-.16.12-.33.25-.55.22-.04,0-.08.01-.12.02-.29.07-.55.19-.78.39-.06.05-.13.08-.2.11-.09.05-.18.1-.27.14-.18.1-.36.2-.58.14-.05-.01-.12,0-.18.03-.16.06-.28.16-.37.31-.02.04-.1.1-.14.09-.06-.01-.12-.07-.14-.12-.02-.04.01-.12.04-.16.11-.14.1-.29.05-.44-.07-.22-.27-.27-.45-.11-.07.06-.12.13-.16.21-.05.09-.08.19-.11.29-.02.08-.06.13-.14.17-.29.12-.52.33-.71.57-.16.2-.36.22-.57.17-.21-.05-.24-.23-.26-.4,0-.03,0-.06,0-.08-.04-.11-.05-.24-.11-.34-.19-.3-.47-.46-.83-.55-.48-.11-.93-.3-1.37-.51-.17-.08-.33-.16-.51-.17-.23-.02-.48-.06-.7.07-.1.06-.19.13-.28.21-.22.18-.47.15-.65-.06-.08-.1-.1-.21-.1-.34,0-.25,0-.5-.1-.73-.07-.15-.08-.31.03-.46.04-.06.06-.14.08-.21.04-.12.02-.23-.02-.33-.06-.14-.18-.18-.32-.11-.17.09-.29.22-.32.42-.02.12-.07.15-.18.14-.11-.01-.15-.07-.12-.18.06-.28.02-.52-.26-.66-.02-.01-.04-.03-.06-.05-.18-.27-.26-.58-.36-.88,0,0,0-.01,0-.02-.04-.33-.18-.61-.4-.86-.06-.06-.12-.13-.14-.21-.06-.26-.12-.52-.16-.78-.03-.16-.06-.3-.2-.42-.15-.13-.23-.3-.21-.52,0-.08-.02-.17-.04-.25-.01-.06-.05-.12-.05-.17.02-.16-.06-.27-.17-.36-.12-.1-.16-.23-.16-.39,0-.23-.02-.46-.04-.68-.01-.17-.07-.29-.26-.34-.15-.04-.18-.14-.16-.3.01-.1.04-.21.03-.3-.05-.26-.12-.51-.17-.76-.04-.16-.14-.25-.3-.29-.21-.05-.21-.06-.18-.28.03-.29.03-.58-.06-.86-.07-.21-.16-.41-.43-.45-.12-.02-.16-.08-.14-.21.05-.31,0-.61-.07-.9-.06-.26-.15-.52-.45-.61-.09-.02-.13-.09-.12-.19.03-.37-.05-.72-.12-1.08-.05-.24-.17-.43-.43-.51-.11-.03-.15-.11-.13-.22.04-.26.02-.51-.05-.76-.04-.13-.07-.26-.1-.39-.08-.42-.31-.76-.55-1.1-.06-.08-.13-.13-.24-.11-.12.02-.17.11-.2.21-.04.16-.07.32-.11.48-.08.33-.05.64.09.94.15.34.33.65.57.93.05.06.09.16.07.23-.04.16-.01.29.04.43.14.36.34.68.55.99.06.08.13.16.09.27-.1.24-.03.45.1.65.18.28.36.56.55.83.06.09.1.17.04.28-.03.06-.05.15-.03.22.09.43.24.82.6,1.09.08.06.12.13.07.22-.07.12-.05.23-.02.35.09.36.32.64.54.92.09.12.13.22.12.36-.02.21,0,.42.11.6.1.17.22.33.33.5.04.06.07.14.06.2-.05.37.09.68.28.98.09.14.17.28.15.47,0,.06.03.13.05.19.01.05.03.1.05.15.04.13.08.27.14.39.06.13.14.25.22.38.06.09.07.18.08.28.01.13.04.27.1.38.13.24.3.47.44.71.18.31.39.61.39.99,0,.09.05.18.09.26.07.16.15.32.23.49.08.19.18.36.23.57.03.14.14.26.21.39.07.14.14.28.1.44-.03.13-.06.26-.02.4.02.09-.01.16-.11.19-.12.04-.25.08-.37.1-.13.02-.26.02-.38.04-.37.05-.69.17-.87.53,0,.02-.03.03-.04.05-.16.22-.26.46-.23.74,0,.1-.03.14-.13.13-.07,0-.14-.04-.21-.06-.17-.04-.34-.09-.52-.04-.16.05-.32.09-.47.15-.37.17-.76.32-1.11.53-.47.26-.81.68-1.12,1.1-.11.15-.21.32-.33.47-.11.14-.2.15-.31.03-.13-.15-.29-.21-.49-.17-.1.02-.18-.02-.26-.08-.2-.15-.29-.36-.34-.59-.07-.29-.13-.58-.19-.88-.04-.21-.09-.42-.13-.63-.1-.55-.1-1.11-.1-1.67,0-.2.03-.4.02-.6-.01-.18-.04-.36,0-.54.02-.1,0-.2-.03-.3-.08-.29-.13-.6-.35-.84-.13-.14-.11-.16-.29-.08-.19.08-.32,0-.34-.2-.02-.15-.03-.31-.07-.45-.11-.37-.3-.71-.59-.98-.15-.14-.28-.25-.51-.18-.1.03-.17-.03-.17-.14,0-.05.02-.11.01-.16-.02-.14.01-.3-.14-.39-.19-.12-.2-.13-.13-.36.06-.21.09-.43.05-.64-.03-.16-.12-.27-.27-.34-.18-.08-.35-.08-.53,0-.1.05-.19.03-.25-.06-.23-.39-.6-.63-.92-.93-.06-.06-.15-.1-.23-.1-.14-.01-.23-.08-.31-.19-.1-.15-.23-.27-.43-.28.15.07.3.14.23.37-.16.02-.32.03-.48.04,0,.02,0,.03,0,.05.07.02.14.04.2.06.07.03.13.06.19.1.1.07.2.16.31.24-.04.08-.05.17.05.23.2.12.41.22.61.35.13.08.27.18.38.29.13.13.12.17-.02.3-.09.08-.17.16-.25.25-.2.22-.19.53.02.74.16.16.35.26.59.27.1,0,.22,0,.3.08-.02.11-.04.2-.04.3,0,.06.02.12.06.16.08.08.17.15.26.22.07.05.16.08.21.15.06.09-.05.17-.08.26-.06.18-.13.39.02.54.19.19.41.36.64.49.27.15.57.27.89.3.13.01.16.09.1.2-.06.11-.12.23-.2.33-.13.17-.14.24-.04.42.06.11.11.23.14.35.05.21.07.44.11.65.06.32.1.64.18.95.19.7.4,1.4.61,2.1.03.09.06.16.18.15.04,0,.09,0,.11.03.13.17.17.37.14.58,0,.06-.03.11,0,.16.04.08.06.16.1.24.08.19.19.37.14.59-.01.05.01.11.02.16.09.37.28.67.56.92.11.09.18.08.27-.04.02-.03.04-.06.06-.09.02.05,0,.1,0,.14-.1.32-.32.59-.47.89-.08.15-.19.24-.37.23-.37,0-.69.15-.97.39-.07.05-.12.11-.1.21.05.01.09.03.14.04-.08.07-.16.1-.24.13-.05.02-.11.03-.14.07-.22.22-.45.45-.66.68-.26.29-.52.58-.78.87-.08.08-.13.16-.07.29.06.13.01.2-.12.28-.04.02-.09.05-.1.09-.04.12-.1.25-.1.37,0,.2-.05.38-.15.54-.11.17-.13.32-.09.5,0,.05,0,.11,0,.16-.21-.05-.22-.3-.45-.33.05-.12.08-.23.13-.33.1-.22.21-.44.32-.66.03-.05.06-.11.09-.16.06-.1.13-.19.19-.29.03-.04.08-.11.07-.13-.03-.04-.09-.07-.14-.09-.03-.01-.07,0-.1,0-.23,0-.46-.03-.69,0-.22.02-.44.05-.66.11-.09.03-.19.11-.25.2-.13.19-.29.28-.51.3-.17.02-.36.03-.52.1-.43.18-.8.44-1.12.78-.26.28-.54.53-.8.8-.34.36-.67.73-1,1.09-.14.15-.27.31-.4.47-.11.14-.24.26-.34.41-.16.25-.35.46-.63.58-.22.09-.27.28-.1.43.12.11.12.25.11.39,0,.05-.05.11-.1.14-.09.07-.18.05-.26-.01-.17-.12-.36-.17-.57-.19-.21-.01-.42.07-.62,0-.02,0-.05,0-.08.01-.27.02-.49.14-.73.26-.11.05-.18.12-.23.22-.06.14-.11.28-.06.43.02.05.02.1.03.15-.14.14-.3.11-.45.08-.16-.03-.31-.03-.46.02-.1.03-.15.08-.18.18-.06.17-.07.18-.24.11-.16-.07-.33-.1-.51-.11-.18,0-.31.07-.39.22-.13.23-.16.46-.03.69.04.08.09.15.12.23.04.08.02.17-.06.21-.3.17-.6.36-.92.5-.18.09-.35.19-.5.32-.16.14-.16.14-.3,0-.02-.01-.04-.02-.06-.04.01.24.02.25.2.31.19.06.26.15.26.37,0,.11.05.16.17.21,0-.1-.01-.17-.02-.26.08-.03.16-.05.23-.09.12-.06.25-.11.36-.19.16-.13.3-.3.46-.44.14-.13.3-.24.45-.36.06.05.11.09.16.13.06.03.12.07.18.08.3.04.54-.07.73-.32.09-.13.13-.27.15-.42.02-.15.05-.17.2-.15.12.01.21-.03.28-.13.06-.09.11-.18.16-.27.08-.14.12-.15.28-.08.13.06.28.11.42.12.37.04.7-.11,1.01-.29.28-.17.54-.4.81-.6.05-.03.11-.06.16-.06.13,0,.27.01.4,0,.28,0,.53-.12.72-.31.39-.39.72-.82.96-1.32.29-.62.57-1.26.94-1.84.12-.19.24-.38.39-.55.13-.15.26-.3.39-.45.1-.12.21-.24.29-.37.16-.27.4-.4.71-.42.15-.01.28.07.29.19.01.23.14.34.33.43.15.06.29.13.45.2-.08.19-.14.38-.22.55-.15.32-.3.63-.45.94-.18.37-.36.75-.55,1.12-.16.3-.34.59-.49.9-.25.5-.49,1.01-.73,1.51-.16.34-.33.68-.48,1.02-.17.38-.33.76-.49,1.15-.12.29-.24.58-.35.87-.04.1-.09.15-.2.17-.09.02-.18.07-.25.12-.27.18-.53.36-.8.55-.18.13-.38.25-.54.4-.18.17-.31.38-.31.64,0,.1-.05.17-.13.21-.07.04-.14.06-.21.09-.33.11-.56.32-.71.64-.06.13-.14.25-.21.37-.1.19-.21.37-.29.56-.32.72-.58,1.46-.83,2.2-.02.06-.03.13-.04.2-.02.08-.03.16-.05.24-.06.18-.13.36-.19.54-.06.17-.13.34-.15.51-.03.23-.08.45-.18.66-.07.15-.14.31-.15.46-.04.46-.24.86-.42,1.27-.04.08-.07.14-.02.22.13.22.11.46.11.71-.05,0-.1,0-.13-.02-.13-.07-.26-.09-.41-.09-.07,0-.13-.02-.2-.02-.19,0-.39-.01-.58-.02-.02,0-.04,0-.06.02-.23.1-.47.13-.71.19-.24.06-.44.19-.49.46-.01.08-.05.13-.13.14-.17.02-.34.08-.52.02-.23-.07-.46-.03-.63.18-.03.03-.05.06-.08.09-.05.06-.1.06-.16.04-.05-.02-.11-.05-.17-.07-.33-.13-.62-.02-.88.21-.11.1-.2.2-.2.36,0,.04-.05.11-.09.12-.13.04-.22.12-.33.19-.26.15-.54.27-.8.42-.2.11-.4.21-.53.41-.03.04-.1.06-.15.09-.13.07-.28.12-.4.2-.1.06-.16.16-.14.33.08-.07.12-.13.18-.17.06-.03.13-.04.21-.07,0,.22-.2.37-.14.6.04-.05.07-.08.09-.12.08-.17.23-.25.39-.31.13-.05.26-.09.39-.11.23-.05.43-.16.57-.35.2-.28.48-.44.77-.6.18-.11.34-.06.45.11.06.09.11.18.16.27.11.21.4.35.63.29.3-.07.57-.38.61-.68,0-.06.02-.12.04-.18.05,0,.08-.02.11-.01.19.03.31-.07.41-.22.03-.05.05-.11.08-.16.06-.11.12-.21.29-.26.02.07.03.13.05.19.05.15.16.23.32.22.14,0,.29-.01.42-.04.48-.11.93-.33,1.37-.55.22-.11.41-.28.5-.53.01-.03.05-.06.08-.1.08.06.14.12.22.15.08.03.17.02.26.04.11.03.2,0,.29-.05.28-.17.5-.4.61-.7.16-.44.35-.88.41-1.34.03-.23.09-.47.12-.7.04-.27.07-.55.1-.82.02-.18,0-.36.02-.54.01-.18.06-.36.06-.54,0-.42.08-.83.16-1.24.08-.42.22-.83.35-1.23.1-.3.21-.6.33-.9.03-.08.08-.17.15-.21.15-.11.31-.2.48-.28.15-.08.33-.05.44.08.09.11.2.18.34.2.27.03.25.03.25.35,0,.12-.03.24-.05.36,0,.05-.02.09-.02.14-.03.42-.05.83-.07,1.25-.01.19-.04.38-.03.56.01.21.05.42.08.64.03.29.04.58.08.86.06.35.14.69.24,1.03.07.27.18.53.26.8.13.44.35.85.56,1.25.04.08.07.16.12.23.17.25.35.48.5.74.15.26.38.46.57.68.17.19.37.34.56.51.1.08.23.12.31.21.12.13.25.19.42.19.04,0,.12.05.12.07,0,.11.07.13.14.17.17.1.37.16.5.32.02.02.06.03.09.05.28.12.58.2.83.4.08.06.2.08.3.11.1.03.21.04.31.07.08.02.16.06.23.1.18.1.34.24.58.19.05,0,.1.02.15.04.11.06.22.12.34.18.08.04.16.07.25.03.04-.02.11,0,.15.01.41.2.84.37,1.32.33-.05-.04-.1-.09-.15-.13.06-.1.12-.07.18-.04.22.1.44.19.66.29.12.05.23.06.36.02.01-.08.02-.15.12-.16.05,0,.1-.06.16-.09.04-.02.1-.04.13-.02.03.02.05.08.05.12,0,.06-.03.11-.05.2.12-.02.22-.03.34-.04-.04-.06-.07-.1-.11-.16.12-.05.22-.09.32-.12.07-.02.14,0,.16.08.02.07-.04.09-.1.11-.02,0-.04.02-.09.05.19.1.36,0,.54.03-.07-.18-.07-.18.11-.21.09.22.11.23.31.09,0-.02-.02-.05-.02-.07.01-.04.03-.1.05-.11.04-.01.1.01.14.03.02,0,.02.06.04.06.04.02.1.04.14.04.07,0,.08-.06.06-.12,0-.02,0-.04,0-.07Zm-3.85-31.06s.03-.02.04-.02c0-.04,0-.08-.1-.09.02.04.04.08.06.11Zm17.94,6.5s-.03-.06-.03-.06c-.02,0-.05,0-.07.02,0,0,0,.04,0,.05.03,0,.06,0,.1,0Zm-2.88,7.05s-.05-.05-.06-.05c0,0-.03,0-.04,0,0,.02,0,.03,0,.05.02,0,.03,0,.1,0Z"/>
  <g>
    <path class="cls-4" d="m31.77,587.18h16.81c1.15-.01,2.33-1.11,2.33-2.26v-13.23s-21.38.01-21.38.01v13.23c.01,1.15,1.09,2.25,2.24,2.25Zm11.05-13.46h4.38c.72,0,1.31.58,1.31,1.3v8.81c0,.72-.58,1.31-1.3,1.31h-4.39c-.72,0-1.31-.58-1.31-1.3v-8.81c0-.72.58-1.31,1.3-1.31Z"/>
    <path class="cls-3" d="m55.81,570.44c-.69-.69-2-1.15-2.97-1.15-.97,0-32.71.02-32.71.02-2.14,0-3.87,1.74-3.87,3.87l.03,40c0,2.14,1.73,3.87,3.87,3.87l38.7-.03c2.14,0,3.87-1.73,3.87-3.87,0,0-.02-33.97-.02-34.5,0-.84-.2-1.54-.75-2.08-.35-.35-4.18-4.17-6.15-6.14Zm-4.9,2.49v13.23c0,1.15-1.17,2.25-2.32,2.25h-16.81c-1.15.01-2.23-1.09-2.23-2.24v-13.23s21.36-.01,21.36-.01Zm5.31,39.78H22.78v-3.69h0v-14.4c0-1.14,1.08-2.08,2.42-2.08h28.61c1.33,0,2.42.93,2.42,2.08v14.4h0v3.69Z"/>
    <path class="cls-5" d="m42.83,586.38h4.39c.72,0,1.31-.59,1.31-1.31v-8.81c0-.72-.59-1.31-1.32-1.3h-4.38c-.72,0-1.31.59-1.31,1.31v8.81c0,.72.59,1.31,1.31,1.31Z"/>
    <g>
      <rect class="cls-5" x="25.82" y="596.36" width="27.36" height="1.24"/>
      <rect class="cls-5" x="25.82" y="600.23" width="27.36" height="1.24"/>
      <rect class="cls-5" x="25.82" y="604.09" width="27.36" height="1.24"/>
      <rect class="cls-5" x="25.82" y="607.96" width="27.36" height="1.24"/>
    </g>
  </g>
  <path class="cls-5" d="m19.71,657.44l16.29,9.48c2.96,1.71.36,6.2-2.6,4.49l-16.29-9.48c-2.95-1.71-.36-6.19,2.6-4.49m39.5.05l-16.47,9.33c-2.96,1.71-.37,6.2,2.59,4.5l16.47-9.34c2.96-1.71.37-6.2-2.58-4.49m-19.8,41.38c-1.43,0-2.59-1.16-2.59-2.59v-18.94c0-1.43,1.16-2.59,2.59-2.59s2.6,1.16,2.6,2.59v18.94c0,1.43-1.16,2.59-2.6,2.59m22.47-17.2l-7.91-4.49c-2.95-1.71-5.55,2.79-2.59,4.49l7.91,4.49c2.96,1.71,5.55-2.78,2.59-4.49m-44.65.16l7.7-4.65c2.96-1.71,5.56,2.78,2.6,4.49l-7.7,4.64c-2.96,1.71-5.55-2.78-2.6-4.48m19.57-34.37v9.09c0,1.44,1.16,2.59,2.59,2.59s2.59-1.16,2.59-2.59v-9.09c0-1.43-1.16-2.59-2.59-2.59s-2.59,1.16-2.59,2.59"/>
</svg>