<svg width="20" height="19" viewBox="0 0 20 19" fill="none" xmlns="http://www.w3.org/2000/svg">
<path fill-rule="evenodd" clip-rule="evenodd" d="M4.5225 5.23292L6.16833 7.94358C6.48931 7.2308 7.02351 6.62323 7.70466 6.19625C8.38581 5.76926 9.18393 5.54166 10 5.54167H10.0017L15.73 5.54325C15.0734 4.68395 14.2117 3.9847 13.2158 3.50279C12.2198 3.02089 11.1177 2.77005 10 2.77083C8.95195 2.76972 7.91676 2.99006 6.9694 3.41589C6.02204 3.84172 5.18623 4.46238 4.5225 5.23292ZM16.6308 7.12658L13.3333 7.125C13.8558 7.78604 14.1658 8.60858 14.1658 9.49921C14.1658 10.2196 13.9625 10.8965 13.6075 11.48V11.4808L10.7467 16.1912C11.8231 16.0829 12.8591 15.7417 13.7751 15.1938C14.6912 14.6459 15.4628 13.9059 16.0309 13.0306C16.599 12.1552 16.9484 11.1679 17.0522 10.1443C17.1561 9.12068 17.0116 8.08809 16.63 7.12579L16.6308 7.12658ZM8.85333 16.1421L10.5 13.4298C9.68958 13.5233 8.86811 13.3885 8.13769 13.0421C7.40727 12.6957 6.80011 12.1531 6.39167 11.4815L6.385 11.4705L3.52667 6.76242C3.08631 7.70277 2.87878 8.72652 2.92004 9.75498C2.96131 10.7834 3.25026 11.7892 3.76469 12.695C4.27912 13.6008 5.00533 14.3824 5.88748 14.9799C6.76964 15.5773 7.78426 15.9746 8.85333 16.1413V16.1421ZM7.835 10.6875C8.05429 11.0486 8.36984 11.3485 8.74991 11.557C9.12997 11.7655 9.56114 11.8752 10 11.875C10.3284 11.8752 10.6536 11.8139 10.957 11.6946C11.2604 11.5754 11.5361 11.4004 11.7683 11.1798C12.0004 10.9593 12.1846 10.6974 12.3101 10.4091C12.4357 10.1209 12.5002 9.81195 12.5 9.5C12.5 8.87039 12.2368 8.26654 11.7684 7.82118C11.2999 7.37583 10.6644 7.12542 10.0017 7.125H10C9.56184 7.1249 9.13134 7.2342 8.75166 7.44194C8.37197 7.64969 8.05642 7.94859 7.83664 8.30869C7.61685 8.66879 7.50055 9.07744 7.49938 9.49369C7.49822 9.90994 7.61223 10.3192 7.83 10.6804L7.83417 10.6883L7.835 10.6875ZM2.84333 4.71833C3.65015 3.62714 4.72173 2.73659 5.96744 2.12201C7.21314 1.50742 8.59633 1.18688 10 1.1875C13.5183 1.1875 16.55 3.16033 17.9392 6.00083C18.46 7.06563 18.75 8.25154 18.75 9.5C18.75 14.0909 14.8325 17.8125 10 17.8125C9.74 17.8125 9.48167 17.8014 9.22667 17.7808C4.75583 17.4088 1.25 13.8431 1.25 9.5C1.25 7.72113 1.83917 6.06971 2.8425 4.71754L2.84333 4.71833Z" fill="white"/>
</svg>
