<svg width="20" height="20" viewBox="0 0 20 20" fill="none" xmlns="http://www.w3.org/2000/svg">
<path fill-rule="evenodd" clip-rule="evenodd" d="M1.6665 4.99999C1.6665 4.11593 2.01769 3.26809 2.64281 2.64297C3.26794 2.01785 4.11578 1.66666 4.99984 1.66666H14.9998C15.8839 1.66666 16.7317 2.01785 17.3569 2.64297C17.982 3.26809 18.3332 4.11593 18.3332 4.99999V15C18.3332 15.884 17.982 16.7319 17.3569 17.357C16.7317 17.9821 15.8839 18.3333 14.9998 18.3333H4.99984C4.11578 18.3333 3.26794 17.9821 2.64281 17.357C2.01769 16.7319 1.6665 15.884 1.6665 15V4.99999ZM4.99984 3.33332C4.55781 3.33332 4.13389 3.50892 3.82133 3.82148C3.50877 4.13404 3.33317 4.55796 3.33317 4.99999V15C3.33317 15.442 3.50877 15.8659 3.82133 16.1785C4.13389 16.4911 4.55781 16.6667 4.99984 16.6667H9.99984V10.8333H9.1665C8.94549 10.8333 8.73353 10.7455 8.57725 10.5892C8.42097 10.433 8.33317 10.221 8.33317 9.99999C8.33317 9.77898 8.42097 9.56702 8.57725 9.41073C8.73353 9.25445 8.94549 9.16666 9.1665 9.16666H9.99984V7.91666C9.99984 7.14311 10.3071 6.40124 10.8541 5.85426C11.4011 5.30728 12.143 4.99999 12.9165 4.99999H13.4165C13.6375 4.99999 13.8495 5.08779 14.0058 5.24407C14.162 5.40035 14.2498 5.61231 14.2498 5.83332C14.2498 6.05434 14.162 6.2663 14.0058 6.42258C13.8495 6.57886 13.6375 6.66666 13.4165 6.66666H12.9165C12.7524 6.66666 12.5898 6.69899 12.4382 6.76181C12.2865 6.82463 12.1487 6.9167 12.0326 7.03277C11.9165 7.14885 11.8245 7.28665 11.7617 7.4383C11.6988 7.58996 11.6665 7.7525 11.6665 7.91666V9.16666H13.4165C13.6375 9.16666 13.8495 9.25445 14.0058 9.41073C14.162 9.56702 14.2498 9.77898 14.2498 9.99999C14.2498 10.221 14.162 10.433 14.0058 10.5892C13.8495 10.7455 13.6375 10.8333 13.4165 10.8333H11.6665V16.6667H14.9998C15.4419 16.6667 15.8658 16.4911 16.1783 16.1785C16.4909 15.8659 16.6665 15.442 16.6665 15V4.99999C16.6665 4.55796 16.4909 4.13404 16.1783 3.82148C15.8658 3.50892 15.4419 3.33332 14.9998 3.33332H4.99984Z" fill="white"/>
</svg>
