<svg width="74" height="99" viewBox="0 0 74 99" fill="none" xmlns="http://www.w3.org/2000/svg">
<path d="M2.08212 75.2279C2.10312 75.1133 2.13462 74.9987 2.13462 74.9987C2.14512 74.9674 2.14512 74.9466 2.14512 74.9466C2.21863 74.6965 2.69115 74.3527 2.82765 74.2589C2.84865 74.2485 2.86965 74.2277 2.88015 74.2277C4.48672 73.1961 6.5133 72.7689 6.5133 72.7689C8.45587 72.3105 9.95743 71.7791 10.9865 71.3623C12.3305 70.8205 13.7376 70.1954 15.2496 69.5181C16.1632 69.1013 16.8457 68.7888 16.8457 68.7888C18.2003 68.1636 18.5993 67.9552 19.6178 67.4968C20.2688 67.205 19.6493 67.4968 21.6654 66.6841C21.9174 66.5799 22.3059 66.4236 22.8519 66.3611C23.23 66.3194 23.5345 66.3402 23.6815 66.3506C23.713 66.3506 23.7445 66.3611 23.755 66.3611C23.7865 66.3611 34.0979 66.2777 50.1215 66.1318C50.195 66.1318 50.3 66.1318 50.426 66.1423C50.426 66.1423 50.6676 66.1631 50.8986 66.2256C53.9857 67.0487 55.7918 67.7989 55.7918 67.7989C58.2594 69.018 59.5824 69.4243 60.9055 69.7994C62.575 70.2787 64.9796 70.7789 66.1452 71.0289C66.1452 71.0289 67.7202 71.3623 69.5368 72.373C70.3558 72.8315 70.6918 73.2795 70.8599 73.7379C70.8809 73.8005 70.8914 73.8421 70.9019 73.8734C68.7808 82.3651 66.6702 90.8569 64.5491 99.3591C46.6144 99.3591 28.6902 99.3591 10.7555 99.3591C5.71527 85.5014 2.06112 75.3321 2.08212 75.2279Z" fill="#79BFFF"/>
<path d="M65.7358 70.9246C66.1978 71.0809 67.3529 71.5289 67.9094 72.675C68.0774 73.0293 68.1404 73.3314 68.2034 73.6961C68.4554 75.2382 68.0354 76.5406 67.9094 76.9157C66.3238 81.719 64.5808 84.2092 64.5808 84.2092C59.9396 90.8046 53.3978 98.4628 52.6523 99.3381C42.0784 99.3381 31.5044 99.3381 20.9305 99.3381C16.9928 95.2224 14.1157 91.732 12.1731 89.2209C11.2596 88.0435 10.2096 86.4702 8.11998 83.3236C8.11998 83.3236 6.71293 81.2084 5.42137 77.8847C5.15886 77.197 4.91735 76.4364 5.00136 75.4674C5.10636 74.2588 5.68388 73.3627 6.0619 72.8626C6.33491 72.8 6.72343 72.7063 7.17494 72.5917C8.498 72.2478 9.61104 71.8623 10.6086 71.4872C12.3727 70.8308 13.7062 70.2056 15.2393 69.4867C16.6568 68.8303 18.0744 68.1739 19.4919 67.5174C20.1535 67.2049 20.8465 66.9965 21.5185 66.7152C21.781 66.6005 22.2221 66.413 22.8416 66.3401C23.2196 66.2984 23.5031 66.3192 23.5556 66.3192C24.2801 66.3609 33.7935 66.288 50.4262 66.1108C50.7517 66.1838 51.2032 66.288 51.7493 66.4234C52.6523 66.6631 54.0593 67.0277 55.6659 67.705C56.7685 68.1634 56.779 68.2781 58.0285 68.7782C58.417 68.9345 59.0786 69.1845 59.9081 69.4554C60.9056 69.7784 61.6407 69.9556 62.7327 70.2265C63.9508 70.5599 64.9798 70.7683 65.7358 70.9246Z" fill="#4CA9FF"/>
<path d="M24.4585 67.3401C28.8687 67.1734 33.2788 67.0067 37.689 66.8296C40.9337 67.6527 44.1888 68.4758 47.4334 69.299C44.0103 77.5511 40.5871 85.7928 37.164 94.0449C32.9323 85.1468 28.7007 76.2382 24.4585 67.3401Z" fill="#89BCEC"/>
<path d="M32.7015 72.3517C33.2055 75.4567 33.72 78.5721 34.2241 81.677C36.0406 80.0308 37.8677 78.3845 39.6843 76.7383C40.1148 74.9357 40.5453 73.1228 40.9863 71.3202C40.6608 70.5492 40.3353 69.7886 40.0098 69.0176C37.4582 69.4239 34.9066 69.8303 32.355 70.2366C32.481 70.9347 32.586 71.6432 32.7015 72.3517Z" fill="#BDCADE"/>
<path d="M6.33485 99.3377C5.82033 98.3583 3.75174 94.3572 2.30268 90.1791C1.50464 87.8868 0.874616 85.4591 0.507101 84.0525C0.360095 83.5003 -0.0389223 81.8957 0.0030795 79.8848C0.0135799 79.541 0.0345809 78.822 0.276091 77.9364C0.307592 77.8218 0.559603 76.9466 1.23163 75.988C1.71465 75.2899 1.94566 75.2378 2.08217 75.2378C2.53369 75.2378 2.8487 75.8213 2.9012 75.9046C3.16371 76.436 3.57323 77.2696 4.06675 78.2907C5.01179 80.2703 6.71286 83.8962 10.1255 92.2421C10.85 94.0134 11.8371 96.4411 12.9816 99.3481C10.766 99.3377 8.55044 99.3377 6.33485 99.3377Z" fill="#1C92FF"/>
<path d="M66.8697 99.3379C67.4052 97.8583 67.8462 96.6601 68.1402 95.8578C69.7468 91.4817 71.3009 87.0952 72.9599 82.7399C73.0335 82.5419 73.254 81.9793 73.317 81.2082C73.359 80.729 73.338 80.2913 73.2435 79.7079C73.17 79.2181 72.9284 77.8741 71.9939 75.7172C71.1854 73.8626 70.8914 73.8001 70.7759 73.8209C70.6288 73.8418 70.5238 74.0397 70.4713 74.2064C69.0328 77.8949 67.6257 81.8021 66.2712 85.9178C64.7381 90.5752 63.436 95.0555 62.3125 99.3379C63.8246 99.3379 65.3471 99.3379 66.8697 99.3379Z" fill="#1C92FF"/>
<path d="M17.0137 68.6853C18.1372 69.8106 19.1243 70.6233 19.8173 71.1651C19.8173 71.1651 21.4764 72.5613 23.7759 74.9994C23.8705 75.0932 24.0175 75.2912 24.049 75.5517C24.0805 75.8226 23.965 76.031 23.8915 76.156C23.4294 76.9583 22.9149 77.5001 22.9149 77.5001C22.5999 77.8335 22.1484 78.3128 21.6024 78.9484C26.7896 83.9809 31.9768 89.0134 37.1745 94.046C36.0615 91.5036 34.5074 87.9298 32.6068 83.6162C30.0867 77.8856 28.9527 75.4266 27.2621 72.2592C26.1385 70.1649 25.1515 68.4665 24.4795 67.3308C24.1015 66.987 23.7234 66.6432 23.3559 66.2993C23.1984 66.3097 23.0094 66.3202 22.7994 66.3514C22.7679 66.3514 22.5054 66.3931 22.2219 66.466C21.5814 66.6432 20.9093 66.9662 20.9093 66.9662C20.1428 67.3308 20.3843 67.1537 18.8827 67.8101C18.3157 68.0706 17.6962 68.3519 17.0137 68.6853Z" fill="#1C92FF"/>
<path d="M50.4261 66.1318C50.4996 66.1527 50.6046 66.1735 50.7412 66.2048C50.9197 66.2464 51.3292 66.3402 51.8647 66.4861C52.2427 66.5903 52.8412 66.7466 53.4188 66.9237C54.0068 67.1112 54.8153 67.3926 55.7814 67.8406C54.5633 68.7679 53.2718 69.8203 51.9487 71.0081C50.6992 72.1334 49.5861 73.2482 48.5886 74.311C48.5676 74.3318 48.221 74.6548 48.3051 75.0403C48.3261 75.155 48.3891 75.2487 48.4416 75.3112C48.6621 75.6342 48.9246 75.9781 49.2291 76.3428C49.5651 76.7283 49.8906 77.0617 50.1951 77.343C49.5651 78.2703 48.6411 79.6457 47.4965 81.2919C47.4965 81.2919 45.4384 84.2614 42.0783 88.7521C41.2802 89.8149 40.3142 91.0965 38.7916 92.5865C38.1301 93.2324 37.5526 93.743 37.1431 94.0764C40.5662 85.8243 43.9894 77.5827 47.4125 69.3306C48.4311 68.247 49.4286 67.1842 50.4261 66.1318Z" fill="#1C92FF"/>
<path d="M37.1639 94.0449C37.1324 85.1676 37.1009 76.2903 37.0589 67.4131C35.9563 68.653 34.8643 69.9033 33.7617 71.1432C34.1502 71.5079 34.5388 71.8726 34.9273 72.2268C34.5703 76.978 34.2132 81.7396 33.8562 86.4909C34.9588 89.0123 36.0613 91.5338 37.1639 94.0449Z" fill="#79BFFF"/>
<path d="M37.0693 67.4131C38.2559 68.5905 39.4529 69.7783 40.6395 70.9557C40.1879 71.4975 39.7364 72.0288 39.2849 72.5707C39.7154 76.9989 40.1459 81.4167 40.566 85.8449C39.4319 88.5852 38.2979 91.315 37.1638 94.0553C37.1323 85.1676 37.1008 76.2903 37.0693 67.4131Z" fill="#4CA9FF"/>
<path d="M59.2464 88.3244C58.5534 88.8558 57.8604 89.3872 57.1674 89.9081C55.4873 89.9185 53.7967 89.9185 52.1166 89.929C51.4761 89.4184 50.8251 88.8974 50.1846 88.3869C50.2056 86.4281 50.2266 84.4797 50.2371 82.5208C53.2612 82.5104 56.2853 82.5104 59.3094 82.5C59.2884 84.438 59.2674 86.376 59.2464 88.3244Z" fill="#0084FF"/>
<path d="M58.7633 82.7607C58.7633 84.5216 58.7528 86.2928 58.7528 88.0537C58.1753 88.5121 57.5978 88.981 57.0202 89.4394C55.5082 89.4499 53.9961 89.4603 52.484 89.4707C51.9065 89.0018 51.329 88.533 50.7515 88.0641C53.4186 86.3033 56.0962 84.532 58.7633 82.7607Z" fill="#0F8CFF"/>
<path d="M37.0695 67.413C35.1899 69.5385 33.3103 71.6641 31.4307 73.7896C28.7321 71.2994 26.0335 68.7988 23.3454 66.3085C23.3454 66.246 23.3454 66.1627 23.3664 66.0793C23.3979 65.9647 23.4399 65.8813 23.4714 65.8188C24.2904 64.5164 25.1095 63.2244 25.918 61.922C25.918 61.8491 25.918 61.7657 25.918 61.6928C24.9835 61.4114 23.6604 60.9738 22.1484 60.307C19.8488 59.2963 15.0186 57.1083 11.0389 52.1903C8.38229 48.9082 6.99624 45.5219 6.25071 42.8859C5.72568 42.7504 4.86465 42.4482 4.03512 41.7502C3.83561 41.573 2.06104 40.0414 2.06104 37.8325C2.06104 35.6965 3.7306 33.6335 6.2087 32.8625C7.01724 29.7575 8.21429 27.4652 9.12782 25.9649C13.6325 18.6505 20.7203 15.681 23.5029 14.5661C24.1959 14.2848 26.3275 13.4616 29.3411 12.8261C33.1003 12.0342 39.5371 11.2632 47.7274 13.2741C49.4075 13.7117 51.7701 14.4515 54.4162 15.7852C61.7875 19.4944 65.5571 25.0479 65.5571 25.0479C66.6072 26.59 68.0772 29.1323 69.0223 32.6853C69.5998 32.8208 70.6918 33.1542 71.6999 34.0711C72.0359 34.3733 73.7265 35.9049 73.569 38.1555C73.4324 40.0831 72.0464 41.2709 71.4584 41.7814C70.4923 42.615 69.4843 42.9796 68.8648 43.1568C68.3502 44.8968 67.7307 46.3868 67.1007 47.6371C67.1007 47.6371 66.3027 49.2 65.2841 50.6691C62.659 54.4409 57.2828 59.1296 49.985 61.4948C48.8404 61.8699 47.9059 62.0991 47.4229 62.2137C47.4229 62.2762 47.4229 62.3492 47.4229 62.4117C48.4204 63.662 49.4285 64.9123 50.426 66.1731C48.0634 68.6841 45.7008 71.1848 43.3382 73.6958C41.2486 71.5703 39.159 69.4968 37.0695 67.413Z" fill="#F9F9F9"/>
<path d="M23.8076 66.2254C24.6791 64.7459 25.5507 63.2663 26.4222 61.7764C27.9343 65.4648 29.4568 69.1428 30.9689 72.8312C28.5853 70.6328 26.1912 68.4239 23.8076 66.2254Z" fill="#ECECEC"/>
<path d="M49.9011 66.1003C47.7695 68.3509 45.6379 70.591 43.5063 72.8416C44.7559 69.4866 46.0159 66.1211 47.2655 62.7661C48.1475 63.8706 49.0295 64.9854 49.9011 66.1003Z" fill="#ECECEC"/>
<path d="M19.9012 37.8948C19.8907 41.0831 9.28531 45.3341 4.61263 41.8854C4.21361 41.5936 2.28154 40.0828 2.27104 37.8844C2.26053 35.5921 4.36062 34.0188 4.71763 33.7688C9.45331 30.3825 19.9222 34.7169 19.9012 37.8948Z" fill="url(#paint0_linear)"/>
<path d="M67.3948 33.6128C68.4449 33.8212 69.2324 34.1859 69.7469 34.4672C70.629 34.9569 71.6475 35.53 72.0885 36.7073C72.393 37.5201 72.267 38.2598 72.2145 38.5099C71.7945 40.5521 69.5474 41.4482 69.0539 41.6461C68.3293 41.9379 67.6888 42.0212 67.2793 42.0525C67.3108 39.2393 67.3528 36.426 67.3948 33.6128Z" fill="#D5D5D5"/>
<path d="M38.1089 62.3703C38.1299 47.2205 38.1404 32.0708 38.1614 16.9211C41.301 16.0042 44.4407 15.0873 47.5803 14.1704C48.6618 14.5038 50.1529 15.0144 51.854 15.7854C53.0825 16.3481 56.9782 18.161 60.2333 21.2347C61.4409 22.3808 67.8356 28.4032 67.8041 37.6243C67.7831 43.0216 65.5781 46.9288 64.6225 48.5751C61.3359 54.2328 56.6317 56.9209 53.9961 58.3797C47.6013 61.9014 41.469 62.3807 38.1089 62.3703Z" fill="#DCDCDC"/>
<path d="M27.0625 61.9844C28.1965 62.8388 29.1731 63.516 29.8976 63.9953C31.6932 65.1935 32.8272 65.9437 34.4653 66.6001C35.5258 67.0273 36.4394 67.267 37.0589 67.4128C37.0484 66.0896 37.0484 64.7768 37.0379 63.4535C35.9459 63.4639 34.7593 63.4118 33.4888 63.2868C31.0212 63.0367 28.8581 62.5366 27.0625 61.9844Z" fill="#F2DDCC"/>
<path d="M37.0483 63.4536C38.2034 63.4952 39.4739 63.4848 40.8495 63.3806C43.0441 63.2139 44.9761 62.8284 46.5827 62.4116C45.7637 63.0993 45.0496 63.6307 44.5246 63.9954C43.2751 64.8602 41.3535 66.1834 38.6234 67.017C37.9724 67.2149 37.4369 67.34 37.0693 67.4129C37.0588 66.1001 37.0483 64.7768 37.0483 63.4536Z" fill="#EED5C0"/>
<path d="M64.108 48.1893C63.2995 41.5835 61.5984 35.1131 60.3909 28.5697C60.3594 28.3822 60.2649 27.8508 59.8554 27.4132C59.1518 26.663 57.9863 26.6838 57.5768 26.6838C55.7392 26.7047 48.2629 26.6734 37.962 26.6838C27.5561 26.6526 19.9643 26.6838 18.1057 26.6838C17.7277 26.6838 16.7091 26.6838 16.0476 27.3507C15.5751 27.8299 15.4911 28.4447 15.4491 28.6531C13.244 39.3642 11.7004 47.2203 11.5744 48.1789C11.5429 48.3977 11.4904 48.8979 11.7529 49.3771C11.8264 49.523 11.9839 49.7522 12.4775 50.1273C12.824 50.3774 13.3595 50.7212 14.105 50.9921C14.9766 51.3047 15.6486 51.4819 15.7116 51.4923C21.9173 52.8989 25.5085 53.2948 25.5085 53.2948C28.2281 53.597 30.3177 53.6908 31.9873 53.7637C33.0058 53.8054 34.9799 53.8783 37.8465 53.8679C42.0467 53.8575 45.5643 53.847 50.2055 53.3365C55.0882 52.628 58.7003 51.9403 59.9499 51.5756C60.6009 51.3881 61.4094 51.0651 61.5879 50.9921C62.239 50.7317 62.722 50.492 63.2155 50.1273C63.7195 49.7522 63.8665 49.523 63.94 49.3771C64.2026 48.8874 64.1395 48.3873 64.108 48.1893Z" fill="#535353"/>
<path d="M62.0079 47.3665C61.8504 45.9078 60.5169 40.0626 60.1599 38.3017C59.5613 35.3843 58.9733 32.4565 58.3853 29.5287C58.3328 29.3515 58.1963 28.9868 57.8393 28.6847C57.2932 28.2054 56.6527 28.2158 56.5057 28.2262C50.8565 28.2262 45.1967 28.2158 39.5475 28.2158C39.012 28.2158 38.487 28.2158 37.9514 28.2158C37.4159 28.2158 36.8909 28.2158 36.3554 28.2158C30.7061 28.2158 25.0464 28.2262 19.3972 28.2262C19.2502 28.2158 18.5992 28.2054 18.0636 28.6847C17.7171 28.9973 17.5701 29.3619 17.5176 29.5287C17.0346 31.1228 15.9005 37.4161 15.743 38.3017C15.7325 38.3642 15.2915 40.4689 13.832 47.3457C13.811 47.4811 13.7795 47.7104 13.832 47.9708C13.8845 48.273 14.0105 48.4918 14.0735 48.596C14.714 49.6692 16.3311 50.0547 16.6881 50.1381C19.7122 50.8987 20.6047 51.0445 20.6047 51.0445C23.6079 51.5342 25.1094 51.7739 25.2039 51.7843C29.6981 52.3574 33.3523 52.4303 36.2609 52.4616C36.8804 52.472 37.4579 52.472 37.9724 52.472C38.487 52.472 39.0645 52.472 39.684 52.4616C42.5926 52.4199 46.2468 52.3574 50.741 51.7843C50.8355 51.7739 52.337 51.5238 55.3402 51.0445C55.3402 51.0445 56.2327 50.8987 59.2568 50.1381C60.0129 49.8776 60.5694 49.5442 60.9159 49.2941C61.3779 48.9607 61.8294 48.6273 61.9974 48.0542C62.0499 47.7416 62.0184 47.4811 62.0079 47.3665Z" fill="#FFE9D7"/>
<path d="M18.5679 28.3721C31.1474 35.8636 43.7164 43.3447 56.2959 50.8362C57.2094 50.6382 57.976 50.4507 58.564 50.2944C59.0995 50.1589 59.404 50.0756 59.803 49.8984C60.3911 49.638 60.7691 49.3566 61.0841 49.1274C61.4936 48.8253 61.6196 48.6585 61.7141 48.5231C61.9451 48.1688 61.9976 47.8458 62.0081 47.7833C62.0291 47.6062 62.0186 47.4603 62.0081 47.3561C61.3886 44.3345 60.7691 41.3129 60.1601 38.2913C59.5615 35.3739 58.9735 32.4461 58.3855 29.5182C58.354 29.414 58.3015 29.2786 58.2175 29.1327C58.0705 28.8827 57.913 28.7368 57.8395 28.6743C57.7765 28.6118 57.535 28.4138 57.1569 28.2992C56.8944 28.2158 56.6739 28.2158 56.5899 28.2158C56.0649 28.2158 40.5243 28.2158 19.2714 28.2158C19.2399 28.2158 19.1874 28.2158 19.1244 28.2262C18.9774 28.2367 18.8619 28.2679 18.7989 28.2888C18.7359 28.32 18.6624 28.3409 18.5679 28.3721Z" fill="#F8DEC8"/>
<path d="M26.6212 47.5124C29.8514 47.5124 32.47 44.914 32.47 41.7088C32.47 38.5036 29.8514 35.9053 26.6212 35.9053C23.391 35.9053 20.7725 38.5036 20.7725 41.7088C20.7725 44.914 23.391 47.5124 26.6212 47.5124Z" fill="white"/>
<path d="M27.0415 47.4915C26.548 47.4081 25.834 47.231 25.0465 46.8455C24.4899 46.5746 23.7129 46.1995 23.0514 45.4285C21.7808 43.9385 21.9173 42.0839 21.9383 41.8025C22.1064 39.9166 23.2719 38.7705 23.5974 38.4684C23.9649 38.1245 25.036 37.2493 26.6635 37.1139C27.9236 37.0097 28.9106 37.4056 29.3726 37.6348C31.0002 38.4371 31.6617 39.8437 31.8507 40.2605C32.3547 41.3649 32.3652 42.3756 32.3337 42.9174C32.4703 42.9382 32.5963 42.9487 32.7328 42.9695C32.7748 42.1464 32.8168 41.3337 32.8588 40.5105C32.3652 39.4999 31.8612 38.4788 31.3677 37.4681C30.3492 36.8638 29.3201 36.2595 28.3016 35.6552C27.178 35.6031 26.065 35.5614 24.9415 35.5093C24.2169 35.8635 23.5029 36.2178 22.7784 36.572C22.1169 37.3952 21.4658 38.2287 20.8043 39.0518C20.6468 39.9166 20.4788 40.771 20.3213 41.6358C20.5103 42.4902 20.6993 43.3446 20.8883 44.199C21.4448 44.97 22.0119 45.741 22.5684 46.5121C23.1249 46.8038 23.6919 47.0955 24.2484 47.3873C24.868 47.5331 25.498 47.679 26.1175 47.8249C26.4325 47.7103 26.737 47.5957 27.0415 47.4915Z" fill="#EBEBEB"/>
<path d="M26.6108 45.0115C27.0922 45.0115 27.4824 43.57 27.4824 41.7919C27.4824 40.0137 27.0922 38.5723 26.6108 38.5723C26.1295 38.5723 25.7393 40.0137 25.7393 41.7919C25.7393 43.57 26.1295 45.0115 26.6108 45.0115Z" fill="#4E4E4E"/>
<path d="M26.6425 34.5713C22.7993 34.5713 19.6807 37.6658 19.6807 41.4793C19.6807 45.2927 22.7993 48.3873 26.6425 48.3873C30.4856 48.3873 33.6042 45.2927 33.6042 41.4793C33.6042 37.6658 30.4856 34.5713 26.6425 34.5713ZM26.6215 47.5016C23.3978 47.5016 20.7727 44.9072 20.7727 41.6981C20.7727 38.4889 23.3873 35.8945 26.6215 35.8945C29.8451 35.8945 32.4702 38.4889 32.4702 41.6981C32.4702 44.9072 29.8556 47.5016 26.6215 47.5016Z" fill="#4E4E4E"/>
<path d="M49.6905 47.5124C52.9207 47.5124 55.5392 44.914 55.5392 41.7088C55.5392 38.5036 52.9207 35.9053 49.6905 35.9053C46.4604 35.9053 43.8418 38.5036 43.8418 41.7088C43.8418 44.914 46.4604 47.5124 49.6905 47.5124Z" fill="white"/>
<path d="M49.2709 47.4915C49.7644 47.4081 50.4784 47.231 51.2659 46.8455C51.8225 46.5746 52.5995 46.1995 53.261 45.4285C54.5316 43.9385 54.3951 42.0839 54.3741 41.8025C54.2061 39.9166 53.0405 38.7705 52.715 38.4684C52.3475 38.1245 51.2764 37.2493 49.6489 37.1139C48.3888 37.0097 47.4018 37.4056 46.9398 37.6348C45.3122 38.4371 44.6507 39.8437 44.4617 40.2605C43.9576 41.3649 43.9471 42.3756 43.9786 42.9174C43.8421 42.9382 43.7161 42.9487 43.5796 42.9695C43.5376 42.1464 43.4956 41.3337 43.4536 40.5105C43.9471 39.4999 44.4512 38.4788 44.9447 37.4681C45.9632 36.8638 46.9923 36.2595 48.0108 35.6552C49.1344 35.6031 50.2474 35.5614 51.371 35.5093C52.0955 35.8635 52.8095 36.2178 53.534 36.572C54.1956 37.3952 54.8466 38.2287 55.5081 39.0518C55.6656 39.9166 55.8336 40.771 55.9911 41.6358C55.8021 42.4902 55.6131 43.3446 55.4241 44.199C54.8676 44.97 54.3006 45.741 53.7441 46.5121C53.1875 46.8038 52.6205 47.0955 52.064 47.3873C51.4445 47.5331 50.8144 47.679 50.1949 47.8249C49.8904 47.7103 49.5754 47.5957 49.2709 47.4915Z" fill="#EBEBEB"/>
<path d="M49.7011 45.0115C50.1824 45.0115 50.5726 43.57 50.5726 41.7919C50.5726 40.0137 50.1824 38.5723 49.7011 38.5723C49.2198 38.5723 48.8296 40.0137 48.8296 41.7919C48.8296 43.57 49.2198 45.0115 49.7011 45.0115Z" fill="#4E4E4E"/>
<path d="M42.708 41.469C42.708 45.2825 45.8266 48.377 49.6698 48.377C53.513 48.377 56.6316 45.2825 56.6316 41.469C56.6316 37.6556 53.513 34.561 49.6698 34.561C45.8266 34.561 42.708 37.6556 42.708 41.469ZM43.8421 41.7087C43.8421 38.5099 46.4567 35.9051 49.6908 35.9051C52.9144 35.9051 55.5395 38.4995 55.5395 41.7087C55.5395 44.9178 52.9249 47.5122 49.6908 47.5122C46.4672 47.5018 43.8421 44.9074 43.8421 41.7087Z" fill="#4E4E4E"/>
<path d="M36.3553 50.3879C36.6859 50.3879 36.9539 50.1221 36.9539 49.7941C36.9539 49.4661 36.6859 49.2002 36.3553 49.2002C36.0248 49.2002 35.7568 49.4661 35.7568 49.7941C35.7568 50.1221 36.0248 50.3879 36.3553 50.3879Z" fill="#F0B888"/>
<path d="M39.3378 50.3879C39.6683 50.3879 39.9363 50.1221 39.9363 49.7941C39.9363 49.4661 39.6683 49.2002 39.3378 49.2002C39.0072 49.2002 38.7393 49.4661 38.7393 49.7941C38.7393 50.1221 39.0072 50.3879 39.3378 50.3879Z" fill="#F0B888"/>
<path d="M36.0618 61.2346C36.6649 61.2346 37.1538 60.7494 37.1538 60.151C37.1538 59.5525 36.6649 59.0674 36.0618 59.0674C35.4586 59.0674 34.9697 59.5525 34.9697 60.151C34.9697 60.7494 35.4586 61.2346 36.0618 61.2346Z" fill="#4CA9FF"/>
<path d="M36.0093 61.1304C36.5834 61.1304 37.0488 60.6686 37.0488 60.0989C37.0488 59.5292 36.5834 59.0674 36.0093 59.0674C35.4351 59.0674 34.9697 59.5292 34.9697 60.0989C34.9697 60.6686 35.4351 61.1304 36.0093 61.1304Z" fill="#4CA9FF"/>
<path d="M38.1617 60.797C38.4981 60.797 38.7708 60.5264 38.7708 60.1927C38.7708 59.8589 38.4981 59.5884 38.1617 59.5884C37.8254 59.5884 37.5527 59.8589 37.5527 60.1927C37.5527 60.5264 37.8254 60.797 38.1617 60.797Z" fill="#555555"/>
<path d="M38.1302 60.7345C38.4492 60.7345 38.7078 60.4779 38.7078 60.1614C38.7078 59.8449 38.4492 59.5884 38.1302 59.5884C37.8113 59.5884 37.5527 59.8449 37.5527 60.1614C37.5527 60.4779 37.8113 60.7345 38.1302 60.7345Z" fill="#7F7F7F"/>
<path d="M39.653 60.797C39.9893 60.797 40.262 60.5264 40.262 60.1927C40.262 59.8589 39.9893 59.5884 39.653 59.5884C39.3166 59.5884 39.0439 59.8589 39.0439 60.1927C39.0439 60.5264 39.3166 60.797 39.653 60.797Z" fill="#555555"/>
<path d="M39.6215 60.7345C39.9404 60.7345 40.199 60.4779 40.199 60.1614C40.199 59.8449 39.9404 59.5884 39.6215 59.5884C39.3025 59.5884 39.0439 59.8449 39.0439 60.1614C39.0439 60.4779 39.3025 60.7345 39.6215 60.7345Z" fill="#7F7F7F"/>
<path d="M31.1893 11.3571C30.8533 11.43 30.3178 11.5967 29.7718 11.9823C29.4358 12.2219 28.5117 12.8783 28.5117 13.7223C28.5117 13.8369 28.5327 14.3891 29.2993 15.0455C31.5148 16.9627 36.8595 17.0877 37.8991 17.0981C38.1721 17.0981 38.3716 17.0981 38.4451 17.0981C39.7682 17.0981 41.6897 17.0773 43.8843 16.473C45.1234 16.1291 45.6694 15.827 45.8164 15.7436C46.5829 15.2956 47.6015 14.6913 47.654 13.7535C47.717 12.597 46.2469 11.753 46.1209 11.6801C45.7744 11.4821 45.4489 11.3884 45.2179 11.3467C40.5347 11.3571 35.862 11.3571 31.1893 11.3571Z" fill="#4CA9FF"/>
<path d="M31.1472 12.0031C31.0527 12.0344 30.9057 12.0865 30.7586 12.1907C30.6746 12.2532 30.4436 12.4303 30.3386 12.7325C30.3386 12.7325 30.2336 13.0346 30.3491 13.3993C30.4751 13.8265 31.2942 14.6497 34.2763 15.1081C35.3683 15.2748 36.3659 15.3373 38.2559 15.3165C42.2251 15.2748 44.1677 14.9727 45.3752 13.9932C45.6483 13.7744 46.1523 13.3472 46.0893 12.8471C46.0158 12.3053 45.3227 12.0135 45.1967 11.9614C40.503 11.9718 35.8199 11.9927 31.1472 12.0031Z" fill="#2B89E0"/>
<path d="M45.2285 1.0625L31.1895 1.0625V13.2844L45.2285 13.2844V1.0625Z" fill="#DBDBDB"/>
<path d="M31.1895 13.2847C31.2 13.3368 31.2315 13.4201 31.284 13.5139C31.3995 13.7119 31.578 13.8056 31.6725 13.8473C32.292 14.1599 32.712 14.2641 32.712 14.2641C33.2895 14.4099 33.5835 14.4829 34.0351 14.5662C34.6756 14.6704 35.2531 14.7329 35.7991 14.7746C36.3977 14.8163 36.9437 14.8267 38.0147 14.8371C39.7788 14.858 40.3143 14.8371 40.6503 14.8163C41.3014 14.7746 41.7109 14.7225 42.0154 14.6704C42.2044 14.6392 42.3829 14.6079 42.5404 14.5767C42.7609 14.535 43.0129 14.4725 43.4014 14.3683C43.8425 14.2537 44.4725 14.0661 44.84 13.8265C44.9345 13.764 45.071 13.6702 45.1445 13.5035C45.1865 13.4201 45.2075 13.3368 45.218 13.2847C40.5453 13.2847 35.8621 13.2847 31.1895 13.2847Z" fill="#E2E2E2"/>
<path d="M44.7771 13.0135C44.7771 9.1063 44.7771 5.19906 44.7771 1.30225C40.4089 5.29284 36.0408 9.29385 31.6831 13.2844C32.0401 13.4303 32.5441 13.6074 33.1532 13.7846C34.5182 14.1597 35.5893 14.2222 36.7128 14.2743C38.1304 14.3472 39.1699 14.2743 40.2199 14.2118C42.3515 14.0659 43.139 13.8262 43.7586 13.5553C44.1996 13.3678 44.5461 13.1594 44.7771 13.0135Z" fill="#E2E2E2"/>
<path d="M37.1221 5.25146H35.022V7.86676H37.1221V5.25146Z" fill="#959593"/>
<path d="M41.4062 5.25146H39.3062V7.86676H41.4062V5.25146Z" fill="#959593"/>
<path d="M38.6133 9.41895H36.4292V10.8465H38.6133V9.41895Z" fill="#FBFBFF"/>
<path d="M40.0411 9.41895H38.6025V10.8465H40.0411V9.41895Z" fill="#CACACF"/>
<path d="M45.2285 0L31.1895 0V1.06274L45.2285 1.06274V0Z" fill="#BFBFBF"/>
<defs>
<linearGradient id="paint0_linear" x1="2.26812" y1="37.853" x2="19.9057" y2="37.853" gradientUnits="userSpaceOnUse">
<stop stop-color="#F4F4F4"/>
<stop offset="1" stop-color="#F4F4F4" stop-opacity="0.1"/>
</linearGradient>
</defs>
</svg>
