<svg width="21" height="20" viewBox="0 0 21 20" fill="none" xmlns="http://www.w3.org/2000/svg">
<path fill-rule="evenodd" clip-rule="evenodd" d="M18.375 4.965C18.3829 5.47083 18.3164 6.105 18.2577 6.5675C18.2392 6.72029 18.2099 6.87173 18.1702 7.02083C18.9193 8.34166 19.25 9.93083 19.25 11.6667C19.25 13.7233 18.2114 15.4175 16.5935 16.5725C14.9905 17.7167 12.8275 18.3333 10.5 18.3333C8.1725 18.3333 6.0095 17.7167 4.4065 16.5725C2.78862 15.4175 1.75 13.7233 1.75 11.6667C1.75 9.93083 2.07987 8.34166 2.83062 7.02083C2.79095 6.87173 2.76171 6.72029 2.74312 6.5675C2.68275 6.105 2.61625 5.47083 2.625 4.965C2.63375 4.39583 2.7125 3.82666 2.79912 3.26166C2.83937 3 2.90237 2.75416 3.20075 2.59916C3.50525 2.44083 3.8255 2.49916 4.14137 2.585C5.20712 2.8725 6.20637 3.27666 7.14612 3.76C8.1375 3.4775 9.25575 3.33333 10.5 3.33333C11.7443 3.33333 12.8625 3.4775 13.853 3.76083C14.8059 3.26467 15.8137 2.8706 16.8578 2.58583C17.1736 2.5 17.4948 2.44083 17.7984 2.59916C18.0959 2.75416 18.1597 3 18.2009 3.26166C18.2866 3.82666 18.3662 4.39583 18.375 4.965ZM17.5 11.6667C17.5 10.2608 17.1605 8.33333 15.3125 8.33333C14.4795 8.33333 13.6911 8.54166 12.9036 8.75C12.117 8.95833 11.3313 9.16666 10.5 9.16666C9.66875 9.16666 8.883 8.95833 8.09638 8.75C7.30888 8.54166 6.52138 8.33333 5.6875 8.33333C3.84475 8.33333 3.5 10.2667 3.5 11.6667C3.5 13.1367 4.22362 14.3592 5.4565 15.2392C6.7025 16.13 8.47875 16.6667 10.5 16.6667C12.5212 16.6667 14.2966 16.1292 15.5435 15.2392C16.7764 14.3583 17.5 13.1367 17.5 11.6667ZM8.75 12.0833C8.75 13.2333 8.162 14.1667 7.4375 14.1667C6.713 14.1667 6.125 13.2333 6.125 12.0833C6.125 10.9333 6.713 10 7.4375 10C8.162 10 8.75 10.9333 8.75 12.0833ZM13.5625 14.1667C14.287 14.1667 14.875 13.2333 14.875 12.0833C14.875 10.9333 14.287 10 13.5625 10C12.838 10 12.25 10.9333 12.25 12.0833C12.25 13.2333 12.838 14.1667 13.5625 14.1667Z" fill="white"/>
</svg>
