<svg width="19" height="19" viewBox="0 0 19 19" fill="none" xmlns="http://www.w3.org/2000/svg">
<path fill-rule="evenodd" clip-rule="evenodd" d="M3.76826 1.9103C4.12609 1.01097 5.41413 1.05767 5.70547 1.98076L7.0798 6.33334H11.9201L13.2944 1.98076C13.5857 1.05767 14.8738 1.01097 15.2324 1.90951L17.191 6.83209L17.9478 8.73526C18.0677 9.03666 18.0921 9.36762 18.0178 9.68337C17.9435 9.99912 17.774 10.2844 17.5322 10.5007L10.0272 17.2148C9.88205 17.3445 9.6942 17.4163 9.49953 17.4163C9.30486 17.4163 9.11701 17.3445 8.97188 17.2148L1.46688 10.5007C1.22524 10.2843 1.05587 9.99898 0.981679 9.68324C0.907486 9.3675 0.932051 9.03659 1.05205 8.73526L1.80968 6.83209L3.76826 1.9103ZM11.4197 7.91667H7.58013L9.49993 13.9967L11.4197 7.91667ZM7.87543 14.1091L5.92001 7.91667H3.08188L2.52297 9.3203L7.87463 14.1091H7.87543ZM3.71126 6.33334H5.41968L4.66443 3.94013L3.71205 6.33334H3.71126ZM11.1244 14.1091L13.0798 7.91667H15.918L16.4769 9.3203L11.1252 14.1091H11.1244ZM15.2886 6.33334H13.5802L14.3354 3.94013L15.2878 6.33334H15.2886Z" fill="white"/>
</svg>
