<svg width="74" height="100" viewBox="0 0 74 100" fill="none" xmlns="http://www.w3.org/2000/svg">
<path d="M71.4972 24.1311C71.4762 24.2457 71.4447 24.3603 71.4447 24.3603C71.4342 24.3916 71.4342 24.4124 71.4342 24.4124C71.3607 24.6625 70.8882 25.0063 70.7517 25.1001C70.7307 25.1105 70.7097 25.1314 70.6992 25.1314C69.0926 26.1629 67.0661 26.5901 67.0661 26.5901C65.1235 27.0485 63.6219 27.5799 62.5929 27.9967C61.2488 28.5385 59.8418 29.1636 58.3297 29.8409C57.4162 30.2577 56.7336 30.5702 56.7336 30.5702C55.3791 31.1954 54.9801 31.4038 53.9615 31.8622C53.3105 32.154 53.93 31.8622 51.9139 32.6749C51.6619 32.7791 51.2734 32.9354 50.7274 32.9979C50.3494 33.0396 50.0449 33.0188 49.8979 33.0084C49.8664 33.0084 49.8349 32.9979 49.8244 32.9979C49.7929 32.9979 39.4815 33.0813 23.4578 33.2272C23.3843 33.2272 23.2793 33.2272 23.1533 33.2168C23.1533 33.2168 22.9118 33.1959 22.6808 33.1334C19.5937 32.3103 17.7876 31.5601 17.7876 31.5601C15.32 30.341 13.9969 29.9347 12.6739 29.5596C11.0043 29.0803 8.59973 28.5802 7.43418 28.3301C7.43418 28.3301 5.85912 27.9967 4.04255 26.986C3.22351 26.5275 2.8875 26.0795 2.71949 25.6211C2.69849 25.5585 2.68799 25.5169 2.67749 25.4856C4.79858 16.9939 6.90916 8.50211 9.03025 -6.25619e-05C26.965 -6.21236e-05 44.8892 -6.16855e-05 62.8239 -6.12471e-05C67.8641 13.8576 71.5182 24.0269 71.4972 24.1311Z" fill="#79BFFF"/>
<path d="M7.84365 28.4344C7.38163 28.2781 6.22658 27.8301 5.67006 26.684C5.50205 26.3297 5.43905 26.0276 5.37605 25.6629C5.12404 24.1208 5.54406 22.8184 5.67006 22.4433C7.25562 17.64 8.9987 15.1498 8.9987 15.1498C13.6399 8.55436 20.1817 0.896159 20.9272 0.0209339C31.5011 0.0209342 42.075 0.0209344 52.649 0.0209347C56.5866 4.13657 59.4638 7.62705 61.4063 10.1381C62.3199 11.3155 63.3699 12.8888 65.4595 16.0354C65.4595 16.0354 66.8665 18.1506 68.1581 21.4743C68.4206 22.162 68.6621 22.9226 68.5781 23.8916C68.4731 25.1003 67.8956 25.9963 67.5176 26.4964C67.2446 26.559 66.856 26.6527 66.4045 26.7673C65.0815 27.1112 63.9684 27.4967 62.9709 27.8718C61.2068 28.5282 59.8733 29.1534 58.3402 29.8723C56.9226 30.5287 55.5051 31.1851 54.0875 31.8416C53.426 32.1541 52.733 32.3625 52.0609 32.6438C51.7984 32.7585 51.3574 32.946 50.7379 33.0189C50.3599 33.0606 50.0764 33.0398 50.0239 33.0398C49.2993 32.9981 39.7859 33.071 23.1533 33.2482C22.8278 33.1752 22.3762 33.071 21.8302 32.9356C20.9272 32.6959 19.5201 32.3313 17.9136 31.654C16.811 31.1956 16.8005 31.081 15.551 30.5808C15.1624 30.4245 14.5009 30.1745 13.6714 29.9036C12.6738 29.5806 11.9388 29.4034 10.8468 29.1325C9.62872 28.7991 8.59968 28.5907 7.84365 28.4344Z" fill="#4CA9FF"/>
<path d="M49.1208 32.0188C44.7106 32.1855 40.3004 32.3522 35.8903 32.5293C32.6456 31.7062 29.3905 30.883 26.1459 30.0599C29.569 21.8078 32.9922 13.5661 36.4153 5.31403C40.647 14.2121 44.8786 23.1207 49.1208 32.0188Z" fill="#89BCEC"/>
<path d="M40.878 27.007C40.374 23.9021 39.8594 20.7867 39.3554 17.6818C37.5388 19.328 35.7118 20.9743 33.8952 22.6205C33.4647 24.423 33.0342 26.236 32.5931 28.0385C32.9187 28.8096 33.2442 29.5702 33.5697 30.3412C36.1213 29.9348 38.6729 29.5285 41.2245 29.1221C41.0985 28.424 40.9935 27.7155 40.878 27.007Z" fill="#BDCADE"/>
<path d="M67.2445 0.020975C67.759 1.00039 69.8276 5.00141 71.2767 9.17955C72.0747 11.4718 72.7047 13.8995 73.0722 15.3061C73.2193 15.8583 73.6183 17.4629 73.5763 19.4738C73.5658 19.8177 73.5448 20.5366 73.3033 21.4222C73.2718 21.5369 73.0197 22.4121 72.3477 23.3707C71.8647 24.0688 71.6337 24.1208 71.4972 24.1208C71.0457 24.1208 70.7306 23.5374 70.6781 23.454C70.4156 22.9226 70.0061 22.0891 69.5126 21.068C68.5676 19.0883 66.8665 15.4624 63.4538 7.11653C62.7293 5.34525 61.7423 2.91755 60.5977 0.0105588C62.8133 0.0209787 65.0289 0.0209749 67.2445 0.020975Z" fill="#1C92FF"/>
<path d="M6.7096 0.0208739C6.17408 1.50042 5.73306 2.69865 5.43905 3.50094C3.83248 7.87706 2.27841 12.2636 0.61934 16.6189C0.545837 16.8169 0.325331 17.3795 0.262329 18.1505C0.220327 18.6298 0.241328 19.0674 0.335832 19.6509C0.409336 20.1406 0.650841 21.4847 1.58538 23.6415C2.39391 25.4962 2.68793 25.5587 2.80343 25.5378C2.95044 25.517 3.05544 25.319 3.10794 25.1523C4.5465 21.4639 5.95356 17.5566 7.30812 13.441C8.84119 8.78354 10.1432 4.30322 11.2668 0.020874C9.75473 0.020874 8.23216 0.0208739 6.7096 0.0208739Z" fill="#1C92FF"/>
<path d="M56.5656 30.6737C55.4421 29.5484 54.455 28.7357 53.762 28.1939C53.762 28.1939 52.1029 26.7977 49.8033 24.3596C49.7088 24.2658 49.5618 24.0678 49.5303 23.8073C49.4988 23.5364 49.6143 23.328 49.6878 23.203C50.1499 22.4007 50.6644 21.8589 50.6644 21.8589C50.9794 21.5255 51.4309 21.0462 51.9769 20.4106C46.7897 15.3781 41.6025 10.3456 36.4048 5.31305C37.5178 7.85536 39.0719 11.4292 40.9725 15.7428C43.4926 21.4734 44.6266 23.9324 46.3172 27.0998C47.4407 29.1941 48.4278 30.8925 49.0998 32.0282C49.4778 32.372 49.8558 32.7159 50.2234 33.0597C50.3809 33.0493 50.5699 33.0389 50.7799 33.0076C50.8114 33.0076 51.0739 32.9659 51.3574 32.893C51.9979 32.7159 52.67 32.3929 52.67 32.3929C53.4365 32.0282 53.195 32.2053 54.6965 31.5489C55.2636 31.2884 55.8831 31.0071 56.5656 30.6737Z" fill="#1C92FF"/>
<path d="M23.1532 33.2272C23.0797 33.2063 22.9747 33.1855 22.8382 33.1542C22.6597 33.1126 22.2502 33.0188 21.7146 32.8729C21.3366 32.7687 20.7381 32.6124 20.1606 32.4353C19.5726 32.2478 18.764 31.9664 17.798 31.5184C19.016 30.5911 20.3076 29.5387 21.6306 28.3509C22.8802 27.2257 23.9932 26.1108 24.9908 25.048C25.0118 25.0272 25.3583 24.7042 25.2743 24.3187C25.2533 24.2041 25.1903 24.1103 25.1378 24.0478C24.9173 23.7248 24.6548 23.3809 24.3503 23.0163C24.0142 22.6307 23.6887 22.2973 23.3842 22.016C24.0142 21.0887 24.9383 19.7133 26.0828 18.0671C26.0828 18.0671 28.1409 15.0976 31.5011 10.6069C32.2991 9.54409 33.2651 8.26252 34.7877 6.77256C35.4492 6.12656 36.0268 5.61601 36.4363 5.28259C33.0131 13.5347 29.59 21.7764 26.1668 30.0284C25.1483 31.1121 24.1507 32.1748 23.1532 33.2272Z" fill="#1C92FF"/>
<path d="M36.4152 5.31403C36.4467 14.1913 36.4782 23.0685 36.5202 31.9458C37.6228 30.7059 38.7148 29.4556 39.8174 28.2157C39.4289 27.851 39.0403 27.4863 38.6518 27.1321C39.0088 22.3809 39.3659 17.6192 39.7229 12.868C38.6203 10.3466 37.5178 7.82508 36.4152 5.31403Z" fill="#79BFFF"/>
<path d="M36.5098 31.9458C35.3232 30.7684 34.1262 29.5806 32.9396 28.4032C33.3912 27.8614 33.8427 27.33 34.2942 26.7882C33.8637 22.36 33.4332 17.9422 33.0131 13.514C34.1472 10.7737 35.2812 8.04387 36.4153 5.30359C36.4468 14.1913 36.4783 23.0685 36.5098 31.9458Z" fill="#4CA9FF"/>
<path d="M14.3328 11.0341C15.0259 10.5027 15.7189 9.97136 16.4119 9.4504C18.092 9.43998 19.7826 9.43998 21.4626 9.42957C22.1032 9.94011 22.7542 10.4611 23.3947 10.9716C23.3737 12.9304 23.3527 14.8789 23.3422 16.8377C20.3181 16.8481 17.294 16.8481 14.2698 16.8585C14.2908 14.9205 14.3118 12.9825 14.3328 11.0341Z" fill="#0084FF"/>
<path d="M14.8159 16.5979C14.8159 14.8371 14.8264 13.0658 14.8264 11.305C15.4039 10.8465 15.9814 10.3776 16.5589 9.9192C18.071 9.90878 19.5831 9.89836 21.0951 9.88794C21.6727 10.3568 22.2502 10.8257 22.8277 11.2945C20.1606 13.0554 17.483 14.8266 14.8159 16.5979Z" fill="#0F8CFF"/>
<path d="M36.5098 31.9457C38.3894 29.8202 40.2689 27.6946 42.1485 25.5691C44.8471 28.0593 47.5457 30.56 50.2338 33.0502C50.2338 33.1127 50.2338 33.196 50.2128 33.2794C50.1813 33.394 50.1393 33.4774 50.1078 33.5399C49.2888 34.8423 48.4698 36.1343 47.6612 37.4367C47.6612 37.5097 47.6612 37.593 47.6612 37.6659C48.5958 37.9473 49.9188 38.3849 51.4309 39.0517C53.7305 40.0624 58.5607 42.2504 62.5403 47.1684C65.1969 50.4505 66.583 53.8368 67.3285 56.4728C67.8535 56.6083 68.7146 56.9105 69.5441 57.6086C69.7436 57.7857 71.5182 59.3173 71.5182 61.5262C71.5182 63.6622 69.8486 65.7252 67.3705 66.4963C66.562 69.6012 65.3649 71.8935 64.4514 73.3939C59.9467 80.7082 52.8589 83.6777 50.0763 84.7926C49.3833 85.0739 47.2517 85.8971 44.2381 86.5326C40.4789 87.3245 34.0422 88.0955 25.8518 86.0846C24.1718 85.647 21.8092 84.9072 19.1631 83.5735C11.7918 79.8643 8.0221 74.3108 8.0221 74.3108C6.97206 72.7687 5.502 70.2264 4.55696 66.6734C3.97944 66.5379 2.88739 66.2045 1.87935 65.2876C1.54333 64.9854 -0.147232 63.4538 0.0102772 61.2032C0.146783 59.2756 1.53285 58.0878 2.12087 57.5773C3.08691 56.7437 4.09494 56.3791 4.71447 56.2019C5.22899 54.4619 5.84852 52.9719 6.47855 51.7216C6.47855 51.7216 7.27658 50.1587 8.29512 48.6896C10.9202 44.9178 16.2964 40.2291 23.5942 37.8639C24.7388 37.4888 25.6733 37.2596 26.1564 37.145C26.1564 37.0825 26.1564 37.0095 26.1564 36.947C25.1588 35.6967 24.1508 34.4464 23.1532 33.1856C25.5158 30.6746 27.8784 28.1739 30.241 25.6629C32.3306 27.7884 34.4202 29.8619 36.5098 31.9457Z" fill="#F9F9F9"/>
<path d="M49.7718 33.1335C48.9003 34.613 48.0287 36.0926 47.1572 37.5825C45.6451 33.8941 44.1226 30.2161 42.6105 26.5276C44.9941 28.7261 47.3882 30.935 49.7718 33.1335Z" fill="#ECECEC"/>
<path d="M23.6783 33.2586C25.8099 31.008 27.9414 28.7679 30.073 26.5173C28.8235 29.8723 27.5634 33.2377 26.3139 36.5928C25.4318 35.4883 24.5498 34.3735 23.6783 33.2586Z" fill="#ECECEC"/>
<path d="M53.678 61.4638C53.6885 58.2755 64.2939 54.0244 68.9666 57.4732C69.3656 57.765 71.2977 59.2757 71.3082 61.4742C71.3187 63.7664 69.2186 65.3397 68.8616 65.5898C64.1259 68.9761 53.657 64.6417 53.678 61.4638Z" fill="url(#paint0_linear)"/>
<path d="M6.18454 65.7462C5.13449 65.5378 4.34696 65.1731 3.83244 64.8918C2.9504 64.4021 1.93185 63.829 1.49083 62.6516C1.18632 61.8389 1.31232 61.0991 1.36483 60.849C1.78485 58.8068 4.03195 57.9108 4.52547 57.7128C5.25 57.4211 5.89053 57.3377 6.30005 57.3065C6.26855 60.1197 6.22654 62.9329 6.18454 65.7462Z" fill="#D5D5D5"/>
<path d="M35.4703 36.9888C35.4493 52.1385 35.4388 67.2882 35.4178 82.4379C32.2781 83.3548 29.1385 84.2717 25.9989 85.1886C24.9173 84.8552 23.4263 84.3446 21.7252 83.5736C20.4966 83.011 16.601 81.198 13.3458 78.1243C12.1383 76.9782 5.74353 70.9558 5.77503 61.7347C5.79604 56.3375 8.00113 52.4302 8.95667 50.7839C12.2433 45.1262 16.9475 42.4381 19.5831 40.9794C25.9779 37.4576 32.1102 36.9783 35.4703 36.9888Z" fill="#DCDCDC"/>
<path d="M46.5167 37.3743C45.3826 36.5199 44.4061 35.8426 43.6816 35.3633C41.886 34.1651 40.7519 33.4149 39.1139 32.7585C38.0533 32.3313 37.1398 32.0917 36.5203 31.9458C36.5308 33.2691 36.5308 34.5819 36.5413 35.9051C37.6333 35.8947 38.8199 35.9468 40.0904 36.0719C42.558 36.3219 44.7211 36.822 46.5167 37.3743Z" fill="#F2DDCC"/>
<path d="M36.5308 35.9052C35.3757 35.8635 34.1052 35.874 32.7296 35.9781C30.535 36.1449 28.603 36.5304 26.9964 36.9471C27.8154 36.2595 28.5295 35.7281 29.0545 35.3634C30.304 34.4986 32.2256 33.1753 34.9557 32.3418C35.6067 32.1438 36.1422 32.0188 36.5098 31.9459C36.5203 33.2587 36.5308 34.582 36.5308 35.9052Z" fill="#EED5C0"/>
<path d="M9.47118 51.1694C10.2797 57.7753 11.9808 64.2457 13.1883 70.789C13.2198 70.9766 13.3143 71.508 13.7238 71.9456C14.4274 72.6958 15.5929 72.6749 16.0024 72.6749C17.84 72.6541 25.3163 72.6854 35.6172 72.6749C46.0231 72.7062 53.615 72.675 55.4735 72.675C55.8515 72.675 56.8701 72.675 57.5316 72.0081C58.0041 71.5288 58.0881 70.9141 58.1301 70.7057C60.3352 59.9946 61.8788 52.1384 62.0048 51.1798C62.0363 50.961 62.0888 50.4609 61.8263 49.9816C61.7528 49.8357 61.5953 49.6065 61.1018 49.2314C60.7552 48.9814 60.2197 48.6375 59.4742 48.3666C58.6027 48.054 57.9306 47.8769 57.8676 47.8665C51.6619 46.4599 48.0707 46.0639 48.0707 46.0639C45.3511 45.7618 43.2615 45.668 41.592 45.5951C40.5734 45.5534 38.5994 45.4805 35.7327 45.4909C31.5326 45.5013 28.0149 45.5117 23.3737 46.0223C18.491 46.7308 14.8789 47.4185 13.6293 47.7831C12.9783 47.9707 12.1698 48.2937 11.9913 48.3666C11.3403 48.6271 10.8572 48.8667 10.3637 49.2314C9.8597 49.6065 9.71269 49.8357 9.63919 49.9816C9.37668 50.4713 9.43968 50.9715 9.47118 51.1694Z" fill="#535353"/>
<path d="M11.5712 51.9925C11.7287 53.4513 13.0623 59.2965 13.4193 61.0574C14.0178 63.9748 14.6059 66.9026 15.1939 69.8304C15.2464 70.0075 15.3829 70.3722 15.7399 70.6744C16.2859 71.1537 16.9264 71.1432 17.0735 71.1328C22.7227 71.1328 28.3824 71.1432 34.0317 71.1432C34.5672 71.1432 35.0922 71.1432 35.6277 71.1432C36.1632 71.1432 36.6883 71.1432 37.2238 71.1432C42.873 71.1432 48.5327 71.1328 54.182 71.1328C54.329 71.1432 54.98 71.1537 55.5155 70.6744C55.862 70.3618 56.0091 69.9971 56.0616 69.8304C56.5446 68.2363 57.6786 61.943 57.8361 61.0574C57.8466 60.9948 58.2877 58.8901 59.7472 52.0134C59.7682 51.8779 59.7997 51.6487 59.7472 51.3882C59.6947 51.0861 59.5687 50.8673 59.5057 50.7631C58.8652 49.6899 57.2481 49.3044 56.8911 49.221C53.867 48.4604 52.9744 48.3145 52.9744 48.3145C49.9713 47.8248 48.4698 47.5852 48.3752 47.5748C43.8811 47.0017 40.2269 46.9288 37.3183 46.8975C36.6988 46.8871 36.1212 46.8871 35.6067 46.8871C35.0922 46.8871 34.5147 46.8871 33.8952 46.8975C30.9865 46.9392 27.3324 47.0017 22.8382 47.5748C22.7437 47.5852 21.2421 47.8352 18.239 48.3145C18.239 48.3145 17.3465 48.4604 14.3223 49.221C13.5663 49.4815 13.0098 49.8149 12.6633 50.065C12.2013 50.3984 11.7497 50.7318 11.5817 51.3049C11.5292 51.6175 11.5607 51.8779 11.5712 51.9925Z" fill="#FFE9D7"/>
<path d="M55.0115 70.987C42.432 63.4955 29.863 56.0144 17.2835 48.5229C16.37 48.7209 15.6034 48.9084 15.0154 49.0647C14.4799 49.2001 14.1754 49.2835 13.7764 49.4606C13.1883 49.7211 12.8103 50.0024 12.4953 50.2317C12.0858 50.5338 11.9598 50.7005 11.8653 50.836C11.6343 51.1902 11.5818 51.5132 11.5713 51.5757C11.5503 51.7529 11.5608 51.8987 11.5713 52.0029C12.1908 55.0245 12.8103 58.0462 13.4193 61.0678C14.0179 63.9852 14.6059 66.913 15.1939 69.8408C15.2254 69.945 15.2779 70.0805 15.3619 70.2263C15.5089 70.4764 15.6664 70.6223 15.7399 70.6848C15.8029 70.7473 16.0444 70.9453 16.4225 71.0599C16.685 71.1432 16.9055 71.1432 16.9895 71.1432C17.5145 71.1432 33.0551 71.1432 54.308 71.1432C54.3395 71.1432 54.392 71.1432 54.455 71.1328C54.602 71.1224 54.7175 71.0912 54.7805 71.0703C54.8435 71.0391 54.917 71.0182 55.0115 70.987Z" fill="#F8DEC8"/>
<path d="M46.9577 51.8467C43.7275 51.8467 41.109 54.445 41.109 57.6502C41.1089 60.8555 43.7275 63.4538 46.9577 63.4538C50.1879 63.4538 52.8065 60.8555 52.8065 57.6502C52.8065 54.445 50.1879 51.8467 46.9577 51.8467Z" fill="white"/>
<path d="M46.5377 51.8675C47.0312 51.9509 47.7452 52.128 48.5328 52.5135C49.0893 52.7844 49.8663 53.1595 50.5278 53.9306C51.7984 55.4205 51.6619 57.2752 51.6409 57.5565C51.4729 59.4424 50.3073 60.5885 49.9818 60.8906C49.6143 61.2345 48.5433 62.1097 46.9157 62.2452C45.6556 62.3493 44.6686 61.9534 44.2066 61.7242C42.579 60.9219 41.9175 59.5153 41.7285 59.0985C41.2245 57.9941 41.214 56.9834 41.2455 56.4416C41.109 56.4208 40.983 56.4104 40.8465 56.3895C40.8045 57.2126 40.7625 58.0253 40.7205 58.8485C41.214 59.8591 41.718 60.8802 42.2115 61.8909C43.2301 62.4952 44.2591 63.0995 45.2776 63.7039C46.4012 63.756 47.5142 63.7976 48.6378 63.8497C49.3623 63.4955 50.0763 63.1412 50.8008 62.787C51.4624 61.9638 52.1134 61.1303 52.7749 60.3072C52.9324 59.4424 53.1004 58.588 53.2579 57.7232C53.0689 56.8688 52.8799 56.0144 52.6909 55.16C52.1344 54.389 51.5674 53.618 51.0109 52.847C50.4543 52.5552 49.8873 52.2635 49.3308 51.9717C48.7113 51.8259 48.0812 51.68 47.4617 51.5341C47.1467 51.6487 46.8422 51.7633 46.5377 51.8675Z" fill="#EBEBEB"/>
<path d="M46.9682 54.3473C46.4869 54.3473 46.0967 55.7888 46.0967 57.5669C46.0967 59.345 46.4869 60.7865 46.9682 60.7865C47.4496 60.7865 47.8398 59.345 47.8398 57.5669C47.8398 55.7888 47.4496 54.3473 46.9682 54.3473Z" fill="#4E4E4E"/>
<path d="M46.9367 64.7875C50.7799 64.7875 53.8985 61.6929 53.8985 57.8795C53.8985 54.066 50.7799 50.9715 46.9367 50.9715C43.0936 50.9715 39.9749 54.066 39.9749 57.8795C39.9749 61.6929 43.0935 64.7875 46.9367 64.7875ZM46.9577 51.8571C50.1813 51.8571 52.8065 54.4515 52.8065 57.6607C52.8065 60.8698 50.1918 63.4642 46.9577 63.4642C43.7341 63.4642 41.109 60.8698 41.109 57.6607C41.109 54.4515 43.7236 51.8571 46.9577 51.8571Z" fill="#4E4E4E"/>
<path d="M23.8883 51.8467C20.6581 51.8467 18.0396 54.445 18.0396 57.6502C18.0396 60.8555 20.6581 63.4538 23.8883 63.4538C27.1184 63.4538 29.737 60.8555 29.737 57.6502C29.737 54.445 27.1184 51.8467 23.8883 51.8467Z" fill="white"/>
<path d="M24.3083 51.8675C23.8148 51.9509 23.1008 52.128 22.3132 52.5135C21.7567 52.7844 20.9797 53.1595 20.3181 53.9306C19.0476 55.4205 19.1841 57.2752 19.2051 57.5565C19.3731 59.4424 20.5386 60.5885 20.8642 60.8906C21.2317 61.2345 22.3027 62.1097 23.9303 62.2452C25.1903 62.3493 26.1774 61.9534 26.6394 61.7242C28.267 60.9219 28.9285 59.5153 29.1175 59.0985C29.6215 57.9941 29.632 56.9834 29.6005 56.4416C29.737 56.4208 29.863 56.4104 29.9995 56.3895C30.0415 57.2126 30.0836 58.0253 30.1256 58.8485C29.632 59.8591 29.128 60.8802 28.6345 61.8909C27.6159 62.4952 26.5869 63.0995 25.5684 63.7039C24.4448 63.756 23.3318 63.7976 22.2082 63.8497C21.4837 63.4955 20.7696 63.1412 20.0451 62.787C19.3836 61.9638 18.7326 61.1303 18.071 60.3072C17.9135 59.4424 17.7455 58.588 17.588 57.7232C17.777 56.8688 17.966 56.0144 18.155 55.16C18.7116 54.389 19.2786 53.618 19.8351 52.847C20.3916 52.5552 20.9587 52.2635 21.5152 51.9717C22.1347 51.8259 22.7647 51.68 23.3843 51.5341C23.6888 51.6487 24.0038 51.7633 24.3083 51.8675Z" fill="#EBEBEB"/>
<path d="M23.8778 54.3473C23.3964 54.3473 23.0062 55.7888 23.0062 57.5669C23.0062 59.345 23.3964 60.7865 23.8777 60.7865C24.3591 60.7865 24.7493 59.345 24.7493 57.5669C24.7493 55.7888 24.3591 54.3473 23.8778 54.3473Z" fill="#4E4E4E"/>
<path d="M30.871 57.8899C30.871 54.0765 27.7524 50.9819 23.9092 50.9819C20.0661 50.9819 16.9475 54.0765 16.9475 57.8899C16.9475 61.7034 20.0661 64.7979 23.9092 64.7979C27.7524 64.7979 30.871 61.7034 30.871 57.8899ZM29.737 57.6503C29.737 60.849 27.1224 63.4538 23.8882 63.4538C20.6646 63.4538 18.0395 60.8594 18.0395 57.6503C18.0395 54.4411 20.6541 51.8467 23.8882 51.8467C27.1119 51.8572 29.737 54.4516 29.737 57.6503Z" fill="#4E4E4E"/>
<path d="M37.2238 48.9709C36.8933 48.9709 36.6253 49.2368 36.6253 49.5648C36.6253 49.8928 36.8933 50.1587 37.2238 50.1587C37.5544 50.1587 37.8223 49.8928 37.8223 49.5648C37.8223 49.2368 37.5544 48.9709 37.2238 48.9709Z" fill="#F0B888"/>
<path d="M34.2417 48.9709C33.9111 48.9709 33.6432 49.2368 33.6432 49.5648C33.6432 49.8928 33.9111 50.1587 34.2417 50.1587C34.5722 50.1587 34.8402 49.8928 34.8402 49.5648C34.8402 49.2368 34.5722 48.9709 34.2417 48.9709Z" fill="#F0B888"/>
<path d="M37.5178 38.1245C36.9147 38.1245 36.4258 38.6096 36.4258 39.208C36.4258 39.8065 36.9147 40.2916 37.5178 40.2916C38.1209 40.2916 38.6099 39.8065 38.6099 39.208C38.6099 38.6096 38.1209 38.1245 37.5178 38.1245Z" fill="#4CA9FF"/>
<path d="M37.5703 38.2286C36.9962 38.2286 36.5308 38.6905 36.5308 39.2601C36.5308 39.8298 36.9962 40.2916 37.5703 40.2916C38.1444 40.2916 38.6099 39.8298 38.6099 39.2601C38.6099 38.6905 38.1444 38.2286 37.5703 38.2286Z" fill="#4CA9FF"/>
<path d="M35.4178 38.562C35.0814 38.562 34.8088 38.8326 34.8088 39.1663C34.8088 39.5001 35.0814 39.7706 35.4178 39.7706C35.7541 39.7706 36.0268 39.5001 36.0268 39.1663C36.0268 38.8326 35.7541 38.562 35.4178 38.562Z" fill="#555555"/>
<path d="M35.4493 38.6245C35.1303 38.6245 34.8718 38.8811 34.8718 39.1976C34.8718 39.5141 35.1303 39.7706 35.4493 39.7706C35.7682 39.7706 36.0268 39.5141 36.0268 39.1976C36.0268 38.8811 35.7682 38.6245 35.4493 38.6245Z" fill="#7F7F7F"/>
<path d="M33.9267 38.562C33.5903 38.562 33.3177 38.8326 33.3177 39.1663C33.3177 39.5001 33.5903 39.7706 33.9267 39.7706C34.263 39.7706 34.5357 39.5001 34.5357 39.1663C34.5357 38.8326 34.263 38.562 33.9267 38.562Z" fill="#555555"/>
<path d="M33.9582 38.6245C33.6392 38.6245 33.3807 38.8811 33.3807 39.1976C33.3807 39.5141 33.6392 39.7706 33.9582 39.7706C34.2771 39.7706 34.5357 39.5141 34.5357 39.1976C34.5357 38.8811 34.2771 38.6245 33.9582 38.6245Z" fill="#7F7F7F"/>
<path d="M42.39 88.0018C42.726 87.9289 43.2616 87.7621 43.8076 87.3766C44.1436 87.137 45.0676 86.4806 45.0676 85.6366C45.0676 85.522 45.0466 84.9698 44.2801 84.3133C42.0645 82.3962 36.7198 82.2712 35.6803 82.2607C35.4072 82.2607 35.2077 82.2607 35.1342 82.2607C33.8112 82.2607 31.8896 82.2816 29.695 82.8859C28.456 83.2297 27.9099 83.5319 27.7629 83.6153C26.9964 84.0633 25.9779 84.6676 25.9254 85.6053C25.8624 86.7619 27.3324 87.6059 27.4584 87.6788C27.8049 87.8768 28.1305 87.9705 28.3615 88.0122C33.0446 88.0018 37.7173 88.0018 42.39 88.0018Z" fill="#4CA9FF"/>
<path d="M42.432 87.3558C42.5265 87.3245 42.6735 87.2724 42.8205 87.1682C42.9045 87.1057 43.1355 86.9286 43.2405 86.6264C43.2405 86.6264 43.3455 86.3243 43.23 85.9596C43.104 85.5324 42.285 84.7092 39.3029 84.2508C38.2108 84.0841 37.2133 84.0215 35.3232 84.0424C31.3541 84.0841 29.4115 84.3862 28.2039 85.3657C27.9309 85.5845 27.4269 86.0117 27.4899 86.5118C27.5634 87.0536 28.2564 87.3454 28.3824 87.3975C33.0761 87.387 37.7593 87.3662 42.432 87.3558Z" fill="#2B89E0"/>
<path d="M28.351 98.2961L42.39 98.2961L42.39 86.0742L28.351 86.0742L28.351 98.2961Z" fill="#DBDBDB"/>
<path d="M42.39 86.0742C42.3795 86.0221 42.348 85.9388 42.2955 85.845C42.18 85.647 42.0015 85.5533 41.907 85.5116C41.2875 85.199 40.8675 85.0948 40.8675 85.0948C40.2899 84.9489 39.9959 84.876 39.5444 84.7927C38.9039 84.6885 38.3264 84.6259 37.7803 84.5843C37.1818 84.5426 36.6358 84.5322 35.5647 84.5218C33.8007 84.5009 33.2651 84.5218 32.9291 84.5426C32.2781 84.5843 31.8686 84.6364 31.5641 84.6885C31.3751 84.7197 31.1966 84.751 31.0391 84.7822C30.8185 84.8239 30.5665 84.8864 30.178 84.9906C29.737 85.1052 29.107 85.2928 28.7395 85.5324C28.645 85.5949 28.5085 85.6887 28.435 85.8554C28.393 85.9388 28.372 86.0221 28.3615 86.0742C33.0341 86.0742 37.7173 86.0742 42.39 86.0742Z" fill="#E2E2E2"/>
<path d="M28.8025 86.3452C28.8025 90.2524 28.8025 94.1596 28.8025 98.0565C33.1707 94.0659 37.5388 90.0649 41.8965 86.0743C41.5395 85.9284 41.0355 85.7513 40.4264 85.5741C39.0614 85.199 37.9903 85.1365 36.8668 85.0844C35.4492 85.0115 34.4097 85.0844 33.3597 85.1469C31.2281 85.2928 30.4406 85.5325 29.821 85.8034C29.38 85.9909 29.0335 86.1993 28.8025 86.3452Z" fill="#E2E2E2"/>
<path d="M36.4573 94.1075L38.5574 94.1075L38.5574 91.4922L36.4573 91.4922L36.4573 94.1075Z" fill="#959593"/>
<path d="M32.1731 94.1075L34.2732 94.1075L34.2732 91.4922L32.1731 91.4922L32.1731 94.1075Z" fill="#959593"/>
<path d="M34.9662 89.9399L37.1503 89.9399L37.1503 88.5123L34.9662 88.5123L34.9662 89.9399Z" fill="#FBFBFF"/>
<path d="M33.5381 89.9399L34.9767 89.9399L34.9767 88.5123L33.5381 88.5123L33.5381 89.9399Z" fill="#CACACF"/>
<path d="M28.351 99.3588L42.39 99.3588L42.39 98.2961L28.351 98.2961L28.351 99.3588Z" fill="#BFBFBF"/>
<defs>
<linearGradient id="paint0_linear" x1="71.3111" y1="61.5056" x2="53.6735" y2="61.5056" gradientUnits="userSpaceOnUse">
<stop stop-color="#F4F4F4"/>
<stop offset="1" stop-color="#F4F4F4" stop-opacity="0.1"/>
</linearGradient>
</defs>
</svg>
