<svg width="1440" height="909" viewBox="0 0 1440 909" fill="none" xmlns="http://www.w3.org/2000/svg">
<path d="M876.053 -844.75L875.873 -845.064L875.519 -844.991C859.513 -841.694 842.091 -842.564 825.61 -846.98C760.869 -864.327 722.999 -930.166 740.404 -995.124C757.809 -1060.08 824.704 -1097.85 888.266 -1080.82C953.007 -1063.47 990.877 -997.632 973.471 -932.673C969.04 -916.137 961.08 -900.556 950.232 -888.291L949.994 -888.022L950.173 -887.71L1566.37 183.636L1609.58 258.766L1637.24 306.849L1637.84 307.897L1638.15 306.729L1686.13 127.661L1686.19 127.462L1686.08 127.283L1230.09 -667.27L1229.92 -667.562L1229.59 -667.517C1213.87 -665.395 1197.62 -665.955 1182.33 -670.053C1117.59 -687.4 1079.72 -753.238 1097.12 -818.196C1114.53 -883.154 1180.24 -921.238 1244.98 -903.89C1309.72 -886.543 1347.59 -820.704 1330.19 -755.746C1325.13 -736.857 1315.99 -721.585 1304.8 -708.111L1304.58 -707.843L1304.75 -707.542L1716.99 9.19314L1717.6 10.242L1717.91 9.07329L1755.72 -132.046L1755.77 -132.246L1755.67 -132.425L1535.29 -515.585L1535.13 -515.876L1534.79 -515.831C1519.08 -513.71 1502.83 -514.269 1486.35 -518.684C1421.61 -536.031 1383.74 -601.869 1401.14 -666.827C1418.55 -731.786 1484.27 -769.869 1549.01 -752.521C1613.75 -735.174 1651.62 -669.336 1634.21 -604.377C1629.46 -586.655 1621.5 -571.069 1610.33 -557.611L1610.1 -557.343L1610.28 -557.042L1729.11 -350.436L1847.84 -144.009L1847.6 -143.118L1847.31 -142.027L1847.01 -140.936L1846.72 -139.845L1846.43 -138.755L1846.14 -137.664L1845.85 -136.573L1845.55 -135.482L1845.26 -134.392L1844.97 -133.301L1844.68 -132.21L1844.38 -131.12L1844.09 -130.029L1843.8 -128.939L1843.51 -127.848L1843.21 -126.758L1842.92 -125.667L1842.63 -124.577L1842.34 -123.486L1842.05 -122.396L1841.75 -121.305L1841.46 -120.215L1841.17 -119.125L1840.88 -118.035L1840.59 -116.944L1840.29 -115.854L1840 -114.764L1839.71 -113.674L1839.42 -112.583L1839.12 -111.493L1838.83 -110.403L1838.54 -109.313L1838.25 -108.223L1837.96 -107.133L1837.66 -106.043L1837.37 -104.953L1837.08 -103.863L1836.79 -102.773L1836.5 -101.683L1836.2 -100.593L1835.91 -99.5034L1835.62 -98.4135L1835.33 -97.3238L1835.04 -96.234L1834.74 -95.1442L1834.45 -94.0545L1834.16 -92.9648L1833.87 -91.8752L1833.58 -90.7854L1833.28 -89.6958L1832.99 -88.6062L1832.7 -87.5166L1832.41 -86.4271L1832.12 -85.3375L1831.82 -84.248L1831.53 -83.1585L1831.24 -82.069L1830.95 -80.9796L1830.66 -79.8902L1830.37 -78.8008L1830.07 -77.7114L1829.78 -76.6221L1829.49 -75.5328L1829.2 -74.4434L1828.91 -73.3542L1828.61 -72.2649L1828.32 -71.1757L1828.03 -70.0865L1827.74 -68.9973L1827.45 -67.9082L1827.15 -66.819L1826.86 -65.7299L1826.57 -64.6408L1826.28 -63.5518L1825.99 -62.4627L1825.7 -61.3737L1825.4 -60.2847L1825.11 -59.1957L1824.82 -58.1068L1824.53 -57.0179L1824.24 -55.929L1823.94 -54.8401L1823.65 -53.7512L1823.36 -52.6624L1823.07 -51.5736L1822.78 -50.4848L1822.49 -49.3961L1822.19 -48.3073L1821.9 -47.2186L1821.61 -46.1299L1821.32 -45.0412L1821.03 -43.9525L1820.74 -42.8639L1820.44 -41.7753L1820.15 -40.6867L1819.86 -39.5981L1819.57 -38.5096L1819.28 -37.4211L1818.99 -36.3326L1818.69 -35.2441L1818.4 -34.1557L1818.11 -33.0672L1817.82 -31.9788L1817.53 -30.8904L1817.24 -29.802L1816.94 -28.7137L1816.65 -27.6254L1816.36 -26.5371L1816.07 -25.4488L1815.78 -24.3606L1815.49 -23.2723L1815.19 -22.1841L1814.9 -21.0959L1814.61 -20.0077L1814.32 -18.9196L1814.03 -17.8314L1813.74 -16.7433L1813.45 -15.6552L1813.15 -14.5671L1812.86 -13.4791L1812.57 -12.3911L1812.28 -11.3031L1811.99 -10.2151L1811.7 -9.12713L1811.4 -8.03917L1811.11 -6.95127L1810.82 -5.86336L1810.53 -4.77546L1810.24 -3.68761L1809.95 -2.59977L1809.66 -1.51192L1809.36 -0.424133L1809.07 0.663654L1808.78 1.75144L1808.49 2.83917L1808.2 3.9269L1807.91 5.01462L1807.62 6.10229L1807.32 7.18996L1807.03 8.27757L1806.74 9.36524L1806.45 10.4528L1806.16 11.5404L1805.87 12.628L1805.58 13.7155L1805.28 14.8031L1804.99 15.8905L1804.7 16.978L1804.41 18.0655L1804.12 19.153L1803.83 20.2404L1803.54 21.3278L1803.24 22.4152L1802.95 23.5026L1802.66 24.5899L1802.37 25.6773L1802.08 26.7646L1801.79 27.8518L1801.5 28.9392L1801.2 30.0264L1800.91 31.1137L1800.62 32.2009L1800.33 33.2881L1800.04 34.3753L1799.75 35.4625L1799.46 36.5496L1799.17 37.6367L1798.87 38.7238L1798.58 39.8109L1798.29 40.898L1798 41.985L1797.71 43.0721L1797.42 44.1591L1797.13 45.2461L1796.84 46.3331L1796.54 47.42L1796.25 48.507L1795.96 49.594L1795.67 50.6809L1795.38 51.7678L1795.09 52.8546L1794.8 53.9415L1794.51 55.0283L1794.21 56.1152L1793.92 57.202L1793.63 58.2888L1793.34 59.3755L1793.05 60.4623L1792.76 61.5491L1792.47 62.6358L1792.18 63.7224L1791.88 64.8092L1791.59 65.8958L1791.3 66.9825L1791.01 68.0691L1790.72 69.1557L1790.43 70.2423L1790.14 71.3289L1789.85 72.4155L1789.56 73.502L1789.26 74.5886L1788.97 75.6751L1788.68 76.7616L1788.39 77.8481L1788.1 78.9346L1787.81 80.021L1787.52 81.1075L1787.23 82.1939L1786.94 83.2803L1786.64 84.3667L1786.35 85.4531L1786.06 86.5394L1785.77 87.6258L1785.48 88.7121L1785.19 89.7984L1784.9 90.8847L1784.61 91.971L1784.32 93.0573L1784.02 94.1435L1783.73 95.2298L1783.44 96.316L1783.15 97.4021L1782.86 98.4883L1782.57 99.5745L1782.28 100.661L1781.99 101.747L1781.7 102.833L1781.41 103.919L1781.11 105.005L1780.82 106.091L1780.53 107.177L1780.24 108.263L1779.95 109.349L1779.66 110.435L1779.37 111.521L1779.08 112.607L1778.79 113.693L1778.5 114.779L1778.2 115.865L1777.91 116.951L1777.62 118.037L1777.33 119.123L1777.04 120.209L1776.75 121.295L1776.46 122.381L1776.17 123.467L1775.88 124.552L1775.59 125.638L1775.29 126.724L1775 127.81L1774.71 128.896L1774.42 129.981L1774.13 131.067L1773.84 132.153L1773.55 133.239L1773.26 134.324L1772.97 135.41L1772.68 136.496L1772.39 137.581L1772.09 138.667L1771.8 139.753L1771.51 140.838L1771.22 141.924L1770.93 143.009L1770.64 144.095L1770.35 145.181L1770.06 146.266L1769.77 147.352L1769.48 148.437L1769.19 149.523L1768.9 150.608L1768.6 151.694L1768.31 152.779L1768.02 153.865L1767.73 154.95L1767.44 156.036L1767.15 157.121L1766.86 158.207L1766.57 159.292L1766.28 160.377L1765.99 161.463L1765.7 162.548L1765.4 163.633L1765.11 164.719L1764.82 165.804L1764.53 166.889L1764.24 167.975L1763.95 169.06L1763.66 170.145L1763.37 171.231L1763.08 172.316L1762.79 173.401L1762.5 174.486L1762.21 175.572L1761.92 176.657L1761.62 177.742L1761.33 178.827L1761.04 179.912L1760.75 180.998L1760.46 182.083L1760.17 183.168L1759.88 184.253L1759.59 185.338L1759.3 186.423L1759.01 187.508L1758.72 188.594L1758.43 189.679L1758.14 190.764L1757.84 191.849L1757.55 192.934L1757.26 194.019L1756.97 195.104L1756.68 196.189L1756.39 197.274L1756.1 198.359L1755.81 199.444L1755.52 200.529L1755.23 201.614L1754.94 202.699L1754.65 203.784L1754.36 204.869L1754.07 205.954L1753.77 207.039L1753.48 208.123L1753.19 209.208L1752.9 210.293L1752.61 211.378L1752.32 212.463L1752.03 213.548L1751.74 214.633L1751.45 215.718L1751.16 216.802L1750.87 217.887L1750.58 218.972L1750.29 220.057L1750 221.142L1749.71 222.226L1749.41 223.311L1749.12 224.396L1748.83 225.481L1748.54 226.565L1748.25 227.65L1747.96 228.735L1747.67 229.82L1747.38 230.904L1747.09 231.989L1746.8 233.074L1746.51 234.158L1746.22 235.243L1745.93 236.328L1745.64 237.412L1745.35 238.497L1745.05 239.582L1744.76 240.666L1744.47 241.751L1744.18 242.836L1743.89 243.92L1743.6 245.005L1743.31 246.089L1743.02 247.174L1742.73 248.258L1742.44 249.343L1742.15 250.428L1741.86 251.512L1741.57 252.597L1741.28 253.681L1740.99 254.766L1740.7 255.85L1740.4 256.935L1740.11 258.019L1739.82 259.104L1739.53 260.188L1739.24 261.273L1738.95 262.357L1738.66 263.442L1738.37 264.526L1738.08 265.611L1737.79 266.695L1737.5 267.78L1737.21 268.864L1736.92 269.948L1736.63 271.033L1736.34 272.117L1736.05 273.202L1735.76 274.286L1735.47 275.37L1735.17 276.455L1734.88 277.539L1734.59 278.624L1734.3 279.708L1734.01 280.792L1733.72 281.877L1733.43 282.961L1733.14 284.045L1732.85 285.13L1732.56 286.214L1732.27 287.298L1731.98 288.383L1731.69 289.467L1731.4 290.551L1731.11 291.635L1730.82 292.72L1730.53 293.804L1730.24 294.888L1729.94 295.973L1729.65 297.057L1729.36 298.141L1729.07 299.225L1728.78 300.31L1728.49 301.394L1728.2 302.478L1727.91 303.562L1727.62 304.647L1727.33 305.731L1727.04 306.815L1726.75 307.899L1726.46 308.983L1726.17 310.068L1725.88 311.152L1725.59 312.236L1725.3 313.32L1725.01 314.404L1724.72 315.489L1724.42 316.573L1724.13 317.657L1723.84 318.741L1723.55 319.825L1723.26 320.909L1722.97 321.994L1722.68 323.078L1722.39 324.162L1722.1 325.246L1721.81 326.33L1721.52 327.414L1721.23 328.498L1720.94 329.582L1720.65 330.667L1720.36 331.751L1720.07 332.835L1719.78 333.919L1719.49 335.003L1719.2 336.087L1718.91 337.171L1718.62 338.255L1718.32 339.339L1718.03 340.424L1717.74 341.508L1717.45 342.592L1717.16 343.676L1716.87 344.76L1716.58 345.844L1716.29 346.928L1716 348.012L1715.71 349.096L1715.42 350.18L1715.13 351.264L1714.84 352.348L1714.55 353.432L1714.26 354.516L1713.97 355.6L1713.68 356.684L1713.39 357.768L1713.1 358.852L1712.81 359.936L1712.52 361.02L1712.22 362.104L1711.93 363.189L1711.64 364.273L1711.35 365.357L1711.06 366.441L1710.77 367.525L1710.48 368.609L1710.19 369.693L1709.9 370.777L1709.61 371.861L1709.32 372.945L1709.03 374.029L1708.74 375.113L1708.45 376.197L1708.16 377.281L1707.87 378.365L1707.58 379.449L1707.29 380.533L1707 381.617L1706.71 382.701L1706.42 383.785L1706.13 384.869L1705.83 385.953L1705.54 387.037L1705.25 388.12L1704.96 389.204L1704.67 390.288L1704.38 391.372L1704.09 392.456L1703.8 393.54L1703.51 394.624L1703.22 395.708L1702.93 396.792L1702.64 397.876L1702.35 398.96L1702.06 400.044L1701.77 401.128L1701.48 402.212L1701.19 403.296L1700.9 404.38L1700.61 405.464L1700.32 406.548L1700.03 407.632L1699.74 408.716L1699.44 409.8L1699.15 410.884L1698.92 411.768L1624.11 455.123L1070.89 775.741L1068.86 775.197L1066.63 774.6L1064.4 774.002L1062.17 773.405L1059.94 772.807L1057.71 772.21L1055.48 771.612L1053.25 771.015L1051.02 770.417L1048.79 769.82L1046.56 769.222L1044.33 768.625L1042.1 768.027L1039.87 767.43L1037.64 766.832L1035.41 766.235L1033.18 765.637L1030.95 765.04L1028.72 764.443L1026.49 763.845L1024.26 763.248L1022.03 762.65L1019.8 762.053L1017.57 761.456L1015.34 760.858L1013.11 760.261L1010.88 759.664L1008.65 759.066L1006.42 758.469L1004.2 757.872L1001.97 757.274L999.737 756.677L997.507 756.08L995.278 755.482L993.049 754.885L990.82 754.288L988.591 753.69L986.362 753.093L984.133 752.496L981.904 751.899L979.675 751.301L977.446 750.704L975.217 750.107L972.988 749.51L970.759 748.912L968.53 748.315L966.301 747.718L964.072 747.121L961.843 746.523L959.615 745.926L957.386 745.329L955.157 744.732L952.928 744.135L950.7 743.537L948.471 742.94L946.242 742.343L944.014 741.746L941.785 741.149L939.557 740.552L937.328 739.954L935.099 739.357L932.871 738.76L930.642 738.163L928.414 737.566L926.186 736.969L923.957 736.372L921.729 735.775L919.5 735.178L917.272 734.581L915.044 733.983L912.815 733.386L910.587 732.789L908.359 732.192L906.131 731.595L903.902 730.998L901.674 730.401L899.446 729.804L897.218 729.207L894.99 728.61L892.762 728.013L890.534 727.416L888.306 726.819L886.078 726.222L883.85 725.625L881.622 725.028L879.394 724.431L877.166 723.834L874.938 723.237L872.71 722.64L870.482 722.043L868.254 721.446L866.027 720.849L863.799 720.252L861.571 719.655L859.343 719.059L857.115 718.462L854.888 717.865L852.66 717.268L850.432 716.671L848.205 716.074L845.977 715.477L843.749 714.88L841.522 714.283L839.294 713.686L837.067 713.09L834.839 712.493L832.612 711.896L830.384 711.299L828.157 710.702L825.93 710.105L823.702 709.509L821.475 708.912L819.247 708.315L817.02 707.718L814.793 707.121L812.565 706.524L810.338 705.928L808.111 705.331L805.884 704.734L803.656 704.137L801.429 703.541L799.202 702.944L796.975 702.347L794.748 701.75L792.521 701.153L790.294 700.557L788.066 699.96L785.839 699.363L783.612 698.767L781.385 698.17L779.158 697.573L776.931 696.976L774.704 696.38L772.478 695.783L770.251 695.186L768.024 694.59L765.797 693.993L763.57 693.396L761.343 692.799L759.116 692.203L756.89 691.606L754.663 691.009L752.436 690.413L750.209 689.816L747.983 689.22L745.756 688.623L743.529 688.026L741.303 687.43L739.076 686.833L736.849 686.236L734.623 685.64L732.396 685.043L730.169 684.447L727.943 683.85L725.716 683.253L723.49 682.657L721.263 682.06L719.037 681.464L716.811 680.867L714.584 680.27L712.358 679.674L710.131 679.077L707.905 678.481L705.679 677.884L703.452 677.288L701.226 676.691L699 676.095L696.773 675.498L694.547 674.902L692.321 674.305L690.095 673.709L687.868 673.112L685.642 672.515L683.416 671.919L681.19 671.322L678.964 670.726L676.738 670.129L674.512 669.533L672.285 668.937L670.059 668.34L667.833 667.744L665.607 667.147L663.381 666.551L661.155 665.954L658.929 665.358L656.703 664.761L654.477 664.165L652.252 663.568L650.026 662.972L647.8 662.376L645.574 661.779L643.348 661.183L641.122 660.586L638.896 659.99L636.67 659.394L634.445 658.797L632.219 658.201L629.993 657.604L627.767 657.008L625.542 656.412L623.316 655.815L621.09 655.219L618.865 654.622L616.639 654.026L614.413 653.43L612.188 652.833L609.962 652.237L607.736 651.641L605.511 651.044L603.285 650.448L601.06 649.852L598.834 649.255L596.609 648.659L594.383 648.063L592.158 647.466L589.932 646.87L587.707 646.274L585.481 645.677L583.256 645.081L581.031 644.485L578.805 643.889L576.58 643.292L574.354 642.696L572.129 642.1L569.904 641.503L567.678 640.907L565.453 640.311L563.228 639.715L561.003 639.118L558.777 638.522L556.552 637.926L554.327 637.33L552.102 636.733L549.876 636.137L547.651 635.541L545.426 634.945L543.201 634.348L540.976 633.752L538.751 633.156L536.526 632.56L534.3 631.964L532.075 631.367L529.85 630.771L527.625 630.175L525.4 629.579L523.175 628.983L520.95 628.386L518.725 627.79L516.5 627.194L514.275 626.598L512.05 626.002L509.825 625.405L507.6 624.809L505.375 624.213L503.151 623.617L500.926 623.021L498.701 622.425L496.476 621.829L494.251 621.232L492.026 620.636L489.801 620.04L487.577 619.444L485.352 618.848L483.127 618.252L480.902 617.656L478.678 617.059L476.453 616.463L474.228 615.867L472.003 615.271L469.779 614.675L467.554 614.079L465.329 613.483L463.105 612.887L460.88 612.291L458.655 611.695L456.431 611.098L454.206 610.502L451.982 609.906L449.757 609.31L447.532 608.714L445.308 608.118L443.083 607.522L440.859 606.926L438.634 606.33L436.41 605.734L434.185 605.138L431.961 604.542L429.736 603.946L427.512 603.35L425.287 602.754L423.063 602.158L420.838 601.562L418.614 600.966L416.39 600.369L414.165 599.773L411.941 599.177L409.716 598.581L407.492 597.985L405.268 597.389L403.043 596.793L400.819 596.197L398.595 595.601L396.37 595.005L394.146 594.409L391.922 593.813L389.698 593.217L387.473 592.621L385.249 592.025L383.025 591.429L380.801 590.833L378.576 590.237L376.352 589.641L374.128 589.045L371.904 588.45L369.68 587.854L367.456 587.258L365.231 586.662L363.007 586.066L360.783 585.47L358.559 584.874L356.335 584.278L354.111 583.682L351.887 583.086L349.663 582.49L347.438 581.894L345.214 581.298L342.99 580.702L340.766 580.106L338.542 579.51L336.318 578.914L334.094 578.318L331.87 577.723L329.646 577.127L327.422 576.531L325.198 575.935L322.974 575.339L320.75 574.743L318.526 574.147L316.302 573.551L314.078 572.955L311.855 572.359L309.631 571.763L307.407 571.168L305.183 570.572L302.959 569.976L300.735 569.38L298.511 568.784L296.287 568.188L294.063 567.592L291.84 566.996L289.616 566.401L287.392 565.805L285.168 565.209L282.944 564.613L280.721 564.017L278.497 563.421L276.273 562.825L274.049 562.229L271.825 561.634L269.602 561.038L267.378 560.442L265.154 559.846L262.93 559.25L260.707 558.654L258.483 558.059L256.259 557.463L254.036 556.867L251.812 556.271L249.588 555.675L247.364 555.079L245.141 554.483L242.917 553.888L240.693 553.292L238.47 552.696L236.246 552.1L234.022 551.504L231.799 550.908L229.575 550.313L227.352 549.717L225.128 549.121L222.904 548.525L220.681 547.929L218.457 547.334L216.234 546.738L214.01 546.142L211.787 545.546L209.563 544.95L207.339 544.355L205.116 543.759L202.892 543.163L200.669 542.567L198.445 541.971L196.222 541.376L193.998 540.78L191.775 540.184L189.551 539.588L187.328 538.992L185.104 538.397L182.881 537.801L180.657 537.205L178.434 536.609L176.21 536.014L173.987 535.418L171.763 534.822L169.54 534.226L167.316 533.63L165.093 533.035L162.87 532.439L160.646 531.843L158.423 531.247L156.199 530.652L153.976 530.056L151.752 529.46L149.529 528.864L147.306 528.269L145.082 527.673L142.859 527.077L140.636 526.481L138.412 525.886L136.189 525.29L133.965 524.694L131.742 524.098L129.519 523.503L127.295 522.907L125.072 522.311L122.849 521.715L120.625 521.12L118.402 520.524L116.179 519.928L113.955 519.332L111.732 518.737L109.509 518.141L107.285 517.545L105.062 516.949L102.839 516.354L100.615 515.758L98.3921 515.162L96.1688 514.567L93.9455 513.971L91.7222 513.375L89.4989 512.779L87.2756 512.184L85.0524 511.588L82.8291 510.992L80.6058 510.396L78.3826 509.801L76.1593 509.205L73.9361 508.609L71.7128 508.014L69.4896 507.418L67.2663 506.822L65.0431 506.226L62.8198 505.631L60.5966 505.035L58.3733 504.439L56.1501 503.844L53.9269 503.248L51.7037 502.652L49.4804 502.056L47.2572 501.461L45.034 500.865L42.8108 500.269L40.5876 499.674L38.3644 499.078L36.1412 498.482L33.918 497.886L31.6948 497.291L29.4716 496.695L27.2483 496.099L25.0252 495.504L22.802 494.908L20.5788 494.312L18.3556 493.717L16.1324 493.121L13.9093 492.525L11.6861 491.929L9.46285 491.334L7.2397 490.738L5.01654 490.142L2.79334 489.547L0.570185 488.951L-1.65302 488.355L-3.87617 487.76L-6.09933 487.164L-8.32253 486.568L-10.5457 485.972L-12.7688 485.377L-14.992 484.781L-17.2151 484.185L-19.4383 483.59L-21.6615 482.994L-23.8846 482.398L-26.1078 481.803L-28.3309 481.207L-30.5541 480.611L-32.7772 480.016L-35.0004 479.42L-37.2235 478.824L-39.4467 478.228L-41.6698 477.633L-43.893 477.037L-46.1162 476.441L-48.3393 475.846L-50.5625 475.25L-52.7856 474.654L-55.0088 474.059L-57.2319 473.463L-59.4551 472.867L-61.6782 472.272L-63.9014 471.676L-66.1245 471.08L-68.1597 470.535L-618.721 -394.627L-546.307 -440.555L-402.121 -214.159L-402.017 -213.995L-401.829 -213.945L-192.618 -157.887L-192.135 -157.757L-192.006 -158.24L1.18956 -879.254L1.27885 -879.587L0.998985 -879.789C-38.1257 -907.994 -58.5134 -959.027 -45.2241 -1008.62C-27.8186 -1073.58 37.8968 -1111.67 102.638 -1094.32C167.379 -1076.97 205.248 -1011.13 187.843 -946.174C174.554 -896.577 131.381 -862.575 83.3951 -857.711L83.0518 -857.676L82.9625 -857.343L-110.233 -136.329L-110.362 -135.846L-109.879 -135.717L1.22747 -105.946L1.71044 -105.816L1.83985 -106.299L129.895 -584.208L129.984 -584.538L129.708 -584.741C91.7752 -612.62 73.7341 -663.016 86.7099 -711.442C104.115 -776.4 169.831 -814.484 234.572 -797.136C299.313 -779.789 337.182 -713.95 319.777 -648.992C306.17 -598.211 263 -564.211 212.656 -559.978L212.306 -559.948L212.215 -559.609L84.7949 -84.0717L84.6655 -83.5887L85.1485 -83.4593L200.983 -52.4215L201.466 -52.2921L201.595 -52.7751L268.006 -300.624L268.093 -300.949L267.825 -301.152C229.018 -330.537 210.982 -380.938 223.957 -429.36C241.362 -494.318 307.078 -532.402 371.818 -515.054C436.559 -497.707 474.429 -431.868 457.024 -366.91C443.418 -316.135 399.07 -282.445 349.898 -277.895L349.552 -277.863L349.461 -277.527L283.368 -30.8641L283.239 -30.3811L283.722 -30.2517L1167.85 206.649L1168.05 206.703L1168.23 206.598L1402.19 71.0085L1402.62 70.7586L1402.37 70.3266L876.053 -844.75ZM1581.4 380.859L1581.83 380.606L1581.58 380.173L1535.46 301.721L1535.21 301.293L1534.78 301.542L1115.03 544.804L-131.765 210.727L-133.003 210.395L-132.316 211.478L-14.7428 396.775L-14.6383 396.94L-14.45 396.99L1057.61 684.248L1057.81 684.302L1057.99 684.197L1581.4 380.859ZM1103.25 452.442L1103.45 452.496L1103.63 452.392L1492.07 227.278L1492.5 227.028L1492.25 226.596L1445.58 145.456L1445.33 145.021L1444.9 145.273L1181.12 298.142L-332.8 -107.512L-334.036 -107.843L-333.352 -106.762L-200.769 102.893L-200.665 103.058L-200.476 103.109L1103.25 452.442ZM359.914 -465.897C323.009 -475.785 284.057 -454.22 273.816 -416.001C263.896 -378.979 285.333 -339.949 323.431 -329.741C360.335 -319.852 399.288 -341.418 409.528 -379.637C419.448 -416.659 398.011 -455.689 359.914 -465.897ZM221.485 -748.295C184.581 -758.184 145.628 -736.618 135.387 -698.399C125.466 -661.372 148.092 -622.029 185.002 -612.139C221.906 -602.251 260.859 -623.816 271.099 -662.035C281.019 -699.057 259.582 -738.087 221.485 -748.295ZM89.8688 -1046.66C52.9645 -1056.55 14.0119 -1034.99 3.77117 -996.767C-6.46953 -958.548 16.4815 -920.395 53.3858 -910.507C90.29 -900.618 129.243 -922.184 139.483 -960.403C149.403 -997.425 127.966 -1036.46 89.8688 -1046.66ZM1231.58 -853.864C1194.67 -863.752 1155.72 -842.186 1145.48 -803.967C1135.56 -766.94 1158.19 -727.598 1195.1 -717.708C1232 -707.819 1270.95 -729.385 1281.19 -767.603C1291.11 -804.625 1269.68 -843.655 1231.58 -853.864ZM1534.42 -702.811C1497.52 -712.7 1458.56 -691.134 1448.32 -652.915C1438.08 -614.696 1461.03 -576.544 1497.94 -566.655C1534.84 -556.767 1573.79 -578.332 1584.03 -616.551C1593.95 -653.573 1572.52 -692.603 1534.42 -702.811ZM838.697 -895.821C875.601 -885.932 914.553 -907.498 924.794 -945.717C935.033 -983.93 913.271 -1021.77 875.179 -1031.98C838.275 -1041.87 799.323 -1020.3 789.082 -982.08C779.162 -945.059 800.599 -906.029 838.697 -895.821Z" stroke="#4CA9FF"/>
</svg>
