<svg width="1440" height="1135" viewBox="0 0 1440 1135" fill="none" xmlns="http://www.w3.org/2000/svg">
<path d="M1786.68 -327.831L1786.79 -328.18L1786.5 -328.391C1775.3 -336.316 1765.9 -347.513 1759.24 -360.178C1733.1 -409.923 1752.52 -471.126 1802.97 -497.882C1853.41 -524.636 1915.16 -505.323 1940.83 -456.484C1966.98 -406.739 1947.55 -345.536 1897.11 -318.78C1884.26 -311.969 1870 -307.877 1856.16 -307.469L1855.81 -307.458L1855.7 -307.12L1539.29 689.501L1528.2 724.445L1517.1 759.39L1502.9 804.119L1502.53 805.284L1503.61 804.712L1642.77 730.909L1642.95 730.813L1643.01 730.618L1878.24 -7.90051L1878.35 -8.22512L1878.08 -8.44023C1867.79 -16.8692 1858.86 -27.17 1852.68 -38.9191C1826.53 -88.6644 1845.96 -149.867 1896.4 -176.623C1946.85 -203.379 2008.12 -184.971 2034.27 -135.225C2060.41 -85.48 2040.99 -24.2775 1990.54 2.47856C1975.87 10.2581 1961.13 13.4513 1946.34 14.3478L1946 14.3686L1945.89 14.6965L1734.22 681.439L1733.85 682.605L1734.92 682.033L1844.59 623.87L1844.77 623.774L1844.83 623.579L1957.99 267.144L1958.1 266.82L1957.84 266.605C1947.54 258.178 1938.61 247.877 1931.95 235.217C1905.81 185.471 1925.23 124.269 1975.68 97.5131C2026.13 70.757 2087.39 89.1651 2113.54 138.91C2139.69 188.656 2120.27 249.858 2069.82 276.614C2056.05 283.914 2041.79 288.009 2027.01 288.904L2026.67 288.925L2026.57 289.253L1904.59 673.448L1903.93 673.801L1903.08 674.251L1902.23 674.701L1901.38 675.15L1900.54 675.6L1899.69 676.049L1898.84 676.499L1897.99 676.949L1897.15 677.398L1896.3 677.848L1895.45 678.297L1894.6 678.747L1893.76 679.196L1892.91 679.646L1892.06 680.095L1891.21 680.544L1890.37 680.994L1889.52 681.443L1888.67 681.893L1887.82 682.342L1886.98 682.792L1886.13 683.241L1885.28 683.69L1884.43 684.14L1883.59 684.589L1882.74 685.038L1881.89 685.488L1881.05 685.937L1880.2 686.386L1879.35 686.836L1878.5 687.285L1877.66 687.734L1876.81 688.183L1875.96 688.633L1875.12 689.082L1874.27 689.531L1873.42 689.98L1872.57 690.43L1871.73 690.879L1870.88 691.328L1870.03 691.777L1869.19 692.226L1868.34 692.676L1867.49 693.125L1866.65 693.574L1865.8 694.023L1864.95 694.472L1864.11 694.921L1863.26 695.37L1862.41 695.82L1861.56 696.269L1860.72 696.718L1859.87 697.167L1859.02 697.616L1858.18 698.065L1857.33 698.514L1856.48 698.963L1855.64 699.412L1854.79 699.861L1853.94 700.31L1853.1 700.759L1852.25 701.208L1851.41 701.657L1850.56 702.106L1849.71 702.555L1848.87 703.004L1848.02 703.453L1847.17 703.902L1846.33 704.35L1845.48 704.799L1844.63 705.248L1843.79 705.697L1842.94 706.146L1842.09 706.595L1841.25 707.044L1840.4 707.493L1839.56 707.941L1838.71 708.39L1837.86 708.839L1837.02 709.288L1836.17 709.737L1835.32 710.185L1834.48 710.634L1833.63 711.083L1832.79 711.532L1831.94 711.98L1831.09 712.429L1830.25 712.878L1829.4 713.327L1828.56 713.775L1827.71 714.224L1826.86 714.673L1826.02 715.121L1825.17 715.57L1824.33 716.019L1823.48 716.467L1822.63 716.916L1821.79 717.365L1820.94 717.813L1820.1 718.262L1819.25 718.71L1818.4 719.159L1817.56 719.608L1816.71 720.056L1815.87 720.505L1815.02 720.953L1814.18 721.402L1813.33 721.85L1812.48 722.299L1811.64 722.748L1810.79 723.196L1809.95 723.645L1809.1 724.093L1808.26 724.542L1807.41 724.99L1806.56 725.439L1805.72 725.887L1804.87 726.335L1804.03 726.784L1803.18 727.232L1802.34 727.681L1801.49 728.129L1800.65 728.578L1799.8 729.026L1798.95 729.474L1798.11 729.923L1797.26 730.371L1796.42 730.82L1795.57 731.268L1794.73 731.716L1793.88 732.165L1793.04 732.613L1792.19 733.061L1791.35 733.51L1790.5 733.958L1789.66 734.406L1788.81 734.855L1787.97 735.303L1787.12 735.751L1786.27 736.199L1785.43 736.648L1784.58 737.096L1783.74 737.544L1782.89 737.992L1782.05 738.441L1781.2 738.889L1780.36 739.337L1779.51 739.785L1778.67 740.234L1777.82 740.682L1776.98 741.13L1776.13 741.578L1775.29 742.026L1774.44 742.474L1773.6 742.923L1772.75 743.371L1771.91 743.819L1771.06 744.267L1770.22 744.715L1769.37 745.163L1768.53 745.611L1767.68 746.059L1766.84 746.508L1765.99 746.956L1765.15 747.404L1764.3 747.852L1763.46 748.3L1762.61 748.748L1761.77 749.196L1760.93 749.644L1760.08 750.092L1759.24 750.54L1758.39 750.988L1757.55 751.436L1756.7 751.884L1755.86 752.332L1755.01 752.78L1754.17 753.228L1753.32 753.676L1752.48 754.124L1751.63 754.572L1750.79 755.02L1749.94 755.468L1749.1 755.916L1748.26 756.364L1747.41 756.812L1746.57 757.26L1745.72 757.707L1744.88 758.155L1744.03 758.603L1743.19 759.051L1742.34 759.499L1741.5 759.947L1740.65 760.395L1739.81 760.843L1738.97 761.291L1738.12 761.738L1737.28 762.186L1736.43 762.634L1735.59 763.082L1734.74 763.53L1733.9 763.977L1733.05 764.425L1732.21 764.873L1731.37 765.321L1730.52 765.769L1729.68 766.216L1728.83 766.664L1727.99 767.112L1727.14 767.56L1726.3 768.008L1725.46 768.455L1724.61 768.903L1723.77 769.351L1722.92 769.798L1722.08 770.246L1721.24 770.694L1720.39 771.142L1719.55 771.589L1718.7 772.037L1717.86 772.485L1717.01 772.932L1716.17 773.38L1715.33 773.828L1714.48 774.275L1713.64 774.723L1712.79 775.171L1711.95 775.618L1711.11 776.066L1710.26 776.514L1709.42 776.961L1708.57 777.409L1707.73 777.856L1706.89 778.304L1706.04 778.752L1705.2 779.199L1704.35 779.647L1703.51 780.094L1702.67 780.542L1701.82 780.99L1700.98 781.437L1700.14 781.885L1699.29 782.332L1698.45 782.78L1697.6 783.227L1696.76 783.675L1695.92 784.122L1695.07 784.57L1694.23 785.017L1693.38 785.465L1692.54 785.912L1691.7 786.36L1690.85 786.807L1690.01 787.255L1689.17 787.702L1688.32 788.15L1687.48 788.597L1686.63 789.045L1685.79 789.492L1684.95 789.94L1684.1 790.387L1683.26 790.835L1682.42 791.282L1681.57 791.729L1680.73 792.177L1679.89 792.624L1679.04 793.072L1678.2 793.519L1677.35 793.967L1676.51 794.414L1675.67 794.861L1674.82 795.309L1673.98 795.756L1673.14 796.204L1672.29 796.651L1671.45 797.098L1670.61 797.546L1669.76 797.993L1668.92 798.44L1668.08 798.888L1667.23 799.335L1666.39 799.782L1665.55 800.23L1664.7 800.677L1663.86 801.124L1663.02 801.572L1662.17 802.019L1661.33 802.466L1660.48 802.914L1659.64 803.361L1658.8 803.808L1657.95 804.255L1657.11 804.703L1656.27 805.15L1655.42 805.597L1654.58 806.045L1653.74 806.492L1652.89 806.939L1652.05 807.386L1651.21 807.834L1650.36 808.281L1649.52 808.728L1648.68 809.175L1647.83 809.623L1646.99 810.07L1646.15 810.517L1645.31 810.964L1644.46 811.412L1643.62 811.859L1642.78 812.306L1641.93 812.753L1641.09 813.2L1640.25 813.648L1639.4 814.095L1638.56 814.542L1637.72 814.989L1636.87 815.436L1636.03 815.883L1635.19 816.331L1634.34 816.778L1633.5 817.225L1632.66 817.672L1631.81 818.119L1630.97 818.566L1630.13 819.014L1629.29 819.461L1628.44 819.908L1627.6 820.355L1626.76 820.802L1625.91 821.249L1625.07 821.696L1624.23 822.143L1623.38 822.591L1622.54 823.038L1621.7 823.485L1620.85 823.932L1620.01 824.379L1619.17 824.826L1618.33 825.273L1617.48 825.72L1616.64 826.167L1615.8 826.614L1614.95 827.061L1614.11 827.508L1613.27 827.956L1612.43 828.403L1611.58 828.85L1610.74 829.297L1609.9 829.744L1609.05 830.191L1608.21 830.638L1607.37 831.085L1606.52 831.532L1605.68 831.979L1604.84 832.426L1604 832.873L1603.15 833.32L1602.31 833.767L1601.47 834.214L1600.62 834.661L1599.78 835.108L1598.94 835.555L1598.1 836.002L1597.25 836.449L1596.41 836.896L1595.57 837.343L1594.72 837.79L1593.88 838.237L1593.04 838.684L1592.2 839.131L1591.35 839.578L1590.51 840.025L1589.67 840.472L1588.83 840.919L1587.98 841.366L1587.14 841.813L1586.3 842.26L1585.45 842.707L1584.61 843.154L1583.77 843.601L1582.93 844.048L1582.08 844.495L1581.24 844.942L1580.4 845.388L1579.56 845.835L1578.71 846.282L1577.87 846.729L1577.03 847.176L1576.18 847.623L1575.34 848.07L1574.5 848.517L1573.66 848.964L1572.81 849.411L1571.97 849.858L1571.13 850.305L1570.29 850.752L1569.44 851.198L1568.6 851.645L1567.76 852.092L1566.92 852.539L1566.07 852.986L1565.23 853.433L1564.39 853.88L1563.55 854.327L1562.7 854.774L1561.86 855.22L1561.02 855.667L1560.17 856.114L1559.33 856.561L1558.49 857.008L1557.65 857.455L1556.8 857.902L1555.96 858.349L1555.12 858.795L1554.28 859.242L1553.43 859.689L1552.59 860.136L1551.75 860.583L1550.91 861.03L1550.06 861.477L1549.22 861.923L1548.38 862.37L1547.54 862.817L1546.69 863.264L1545.85 863.711L1545.01 864.158L1544.17 864.605L1543.32 865.051L1542.48 865.498L1541.64 865.945L1540.8 866.392L1539.95 866.839L1539.11 867.286L1538.27 867.732L1537.43 868.179L1536.58 868.626L1535.74 869.073L1534.9 869.52L1534.06 869.966L1533.21 870.413L1532.37 870.86L1531.53 871.307L1530.69 871.754L1529.84 872.201L1529 872.647L1528.16 873.094L1527.32 873.541L1526.47 873.988L1525.63 874.435L1524.79 874.881L1523.95 875.328L1523.1 875.775L1522.26 876.222L1521.42 876.669L1520.58 877.115L1519.73 877.562L1518.89 878.009L1518.05 878.456L1517.21 878.903L1516.36 879.349L1515.52 879.796L1514.68 880.243L1513.84 880.69L1513 881.136L1512.15 881.583L1511.31 882.03L1510.47 882.477L1509.63 882.924L1508.78 883.37L1507.94 883.817L1507.1 884.264L1506.26 884.711L1505.41 885.157L1504.57 885.604L1503.73 886.051L1502.89 886.498L1502.04 886.945L1501.2 887.391L1500.36 887.838L1499.52 888.285L1498.67 888.732L1497.83 889.178L1496.99 889.625L1496.15 890.072L1495.3 890.519L1494.46 890.965L1493.62 891.412L1492.78 891.859L1491.94 892.306L1491.09 892.753L1490.25 893.199L1489.41 893.646L1488.57 894.093L1487.72 894.54L1486.88 894.986L1486.04 895.433L1485.2 895.88L1484.35 896.327L1483.51 896.773L1482.67 897.22L1481.83 897.667L1480.98 898.114L1480.14 898.56L1479.3 899.007L1478.46 899.454L1477.61 899.901L1476.77 900.347L1475.93 900.794L1475.09 901.241L1474.25 901.688L1473.4 902.135L1472.74 902.485L1402.97 881.531L886.805 726.515L886.001 724.986L885.1 723.27L884.198 721.555L883.297 719.84L882.395 718.126L881.494 716.411L880.593 714.696L879.691 712.981L878.79 711.266L877.889 709.551L876.987 707.836L876.086 706.121L875.184 704.406L874.283 702.692L873.382 700.977L872.481 699.262L871.579 697.547L870.678 695.833L869.777 694.118L868.875 692.403L867.974 690.689L867.073 688.974L866.172 687.259L865.271 685.545L864.369 683.83L863.468 682.116L862.567 680.401L861.666 678.687L860.765 676.972L859.863 675.258L858.962 673.543L858.061 671.829L857.16 670.114L856.259 668.4L855.358 666.686L854.457 664.971L853.556 663.257L852.655 661.543L851.754 659.828L850.853 658.114L849.951 656.4L849.05 654.686L848.149 652.971L847.248 651.257L846.347 649.543L845.446 647.829L844.545 646.115L843.644 644.4L842.743 642.686L841.843 640.972L840.942 639.258L840.041 637.544L839.14 635.83L838.239 634.116L837.338 632.402L836.437 630.688L835.536 628.974L834.635 627.26L833.734 625.546L832.834 623.832L831.933 622.119L831.032 620.405L830.131 618.691L829.23 616.977L828.329 615.263L827.429 613.549L826.528 611.836L825.627 610.122L824.726 608.408L823.826 606.694L822.925 604.981L822.024 603.267L821.123 601.553L820.223 599.84L819.322 598.126L818.421 596.412L817.52 594.699L816.62 592.985L815.719 591.272L814.818 589.558L813.918 587.845L813.017 586.131L812.117 584.418L811.216 582.704L810.315 580.991L809.415 579.277L808.514 577.564L807.613 575.85L806.713 574.137L805.812 572.424L804.912 570.71L804.011 568.997L803.111 567.284L802.21 565.57L801.31 563.857L800.409 562.144L799.509 560.431L798.608 558.717L797.708 557.004L796.807 555.291L795.907 553.578L795.006 551.865L794.106 550.151L793.205 548.438L792.305 546.725L791.404 545.012L790.504 543.299L789.603 541.586L788.703 539.873L787.803 538.16L786.902 536.447L786.002 534.734L785.102 533.021L784.201 531.308L783.301 529.595L782.4 527.882L781.5 526.169L780.6 524.456L779.699 522.743L778.799 521.03L777.899 519.318L776.999 517.605L776.098 515.892L775.198 514.179L774.298 512.466L773.397 510.753L772.497 509.041L771.597 507.328L770.697 505.615L769.797 503.903L768.896 502.19L767.996 500.477L767.096 498.765L766.196 497.052L765.295 495.339L764.395 493.627L763.495 491.914L762.595 490.201L761.695 488.489L760.795 486.776L759.894 485.064L758.994 483.351L758.094 481.639L757.194 479.926L756.294 478.214L755.394 476.501L754.494 474.789L753.594 473.076L752.694 471.364L751.794 469.651L750.894 467.939L749.993 466.227L749.093 464.514L748.193 462.802L747.293 461.09L746.393 459.377L745.493 457.665L744.593 455.953L743.693 454.24L742.793 452.528L741.893 450.816L740.993 449.104L740.093 447.391L739.193 445.679L738.293 443.967L737.394 442.255L736.494 440.543L735.594 438.831L734.694 437.118L733.794 435.406L732.894 433.694L731.994 431.982L731.094 430.27L730.194 428.558L729.294 426.846L728.394 425.134L727.495 423.422L726.595 421.71L725.695 419.998L724.795 418.286L723.895 416.574L722.995 414.862L722.095 413.15L721.196 411.438L720.296 409.726L719.396 408.014L718.496 406.302L717.596 404.59L716.697 402.878L715.797 401.167L714.897 399.455L713.997 397.743L713.098 396.031L712.198 394.319L711.298 392.607L710.398 390.896L709.499 389.184L708.599 387.472L707.699 385.76L706.799 384.049L705.9 382.337L705 380.625L704.1 378.914L703.201 377.202L702.301 375.49L701.401 373.779L700.502 372.067L699.602 370.355L698.702 368.644L697.803 366.932L696.903 365.22L696.003 363.509L695.104 361.797L694.204 360.086L693.305 358.374L692.405 356.663L691.505 354.951L690.606 353.24L689.706 351.528L688.807 349.817L687.907 348.105L687.007 346.394L686.108 344.682L685.208 342.971L684.309 341.259L683.409 339.548L682.51 337.837L681.61 336.125L680.711 334.414L679.811 332.703L678.912 330.991L678.012 329.28L677.113 327.569L676.213 325.857L675.314 324.146L674.414 322.435L673.515 320.723L672.615 319.012L671.716 317.301L670.816 315.59L669.917 313.878L669.017 312.167L668.118 310.456L667.219 308.745L666.319 307.033L665.42 305.322L664.52 303.611L663.621 301.9L662.721 300.189L661.822 298.478L660.923 296.767L660.023 295.055L659.124 293.344L658.224 291.633L657.325 289.922L656.426 288.211L655.526 286.5L654.627 284.789L653.728 283.078L652.828 281.367L651.929 279.656L651.03 277.945L650.13 276.234L649.231 274.523L648.332 272.812L647.432 271.101L646.533 269.39L645.634 267.679L644.734 265.968L643.835 264.257L642.936 262.546L642.036 260.835L641.137 259.124L640.238 257.413L639.339 255.703L638.439 253.992L637.54 252.281L636.641 250.57L635.742 248.859L634.842 247.148L633.943 245.437L633.044 243.726L632.145 242.016L631.245 240.305L630.346 238.594L629.447 236.883L628.548 235.172L627.649 233.462L626.749 231.751L625.85 230.04L624.951 228.33L624.052 226.619L623.153 224.908L622.253 223.197L621.354 221.487L620.455 219.776L619.556 218.065L618.657 216.355L617.758 214.644L616.859 212.933L615.959 211.223L615.06 209.512L614.161 207.801L613.262 206.091L612.363 204.38L611.464 202.669L610.565 200.959L609.666 199.248L608.766 197.538L607.867 195.827L606.968 194.117L606.069 192.406L605.17 190.695L604.271 188.985L603.372 187.274L602.473 185.564L601.574 183.853L600.675 182.143L599.776 180.432L598.876 178.722L597.977 177.011L597.078 175.301L596.179 173.59L595.28 171.88L594.381 170.169L593.482 168.459L592.583 166.749L591.684 165.038L590.785 163.328L589.886 161.617L588.987 159.907L588.088 158.196L587.189 156.486L586.29 154.776L585.391 153.065L584.492 151.355L583.593 149.645L582.694 147.934L581.795 146.224L580.896 144.513L579.997 142.803L579.098 141.093L578.199 139.382L577.3 137.672L576.401 135.962L575.502 134.252L574.603 132.541L573.704 130.831L572.805 129.121L571.906 127.41L571.007 125.7L570.108 123.99L569.21 122.28L568.311 120.569L567.412 118.859L566.513 117.149L565.614 115.439L564.715 113.728L563.816 112.018L562.917 110.308L562.018 108.598L561.119 106.888L560.22 105.177L559.321 103.467L558.423 101.757L557.524 100.047L556.625 98.3366L555.726 96.6265L554.827 94.9163L553.928 93.2061L553.029 91.496L552.13 89.7858L551.231 88.0757L550.333 86.3656L549.434 84.6554L548.535 82.9453L547.636 81.2352L546.737 79.5251L545.838 77.815L544.939 76.1049L544.041 74.3948L543.142 72.6847L542.243 70.9746L541.344 69.2646L540.445 67.5545L539.546 65.8444L538.647 64.1343L537.749 62.4243L536.85 60.7142L535.951 59.0042L535.052 57.2941L534.153 55.5841L533.255 53.8741L532.356 52.164L531.457 50.454L530.558 48.744L529.659 47.034L528.76 45.324L527.862 43.614L526.963 41.904L526.064 40.194L525.165 38.484L524.266 36.774L523.368 35.064L522.469 33.354L521.57 31.6441L520.671 29.9341L519.773 28.2241L518.874 26.5141L517.975 24.8042L517.076 23.0943L516.177 21.3843L515.279 19.6744L514.38 17.9644L513.481 16.2545L512.582 14.5446L511.684 12.8346L510.785 11.1247L509.886 9.41481L508.987 7.70488L508.089 5.99494L507.19 4.28506L506.291 2.57513L505.392 0.865248L504.494 -0.844632L503.595 -2.55457L502.696 -4.26445L501.797 -5.97433L500.899 -7.68421L500 -9.39409L499.101 -11.104L498.202 -12.8138L497.304 -14.5237L496.405 -16.2336L495.506 -17.9434L494.607 -19.6533L493.709 -21.3632L492.81 -23.073L491.911 -24.7829L491.013 -26.4927L490.114 -28.2025L489.215 -29.9124L488.316 -31.6223L487.418 -33.3321L486.519 -35.0419L485.62 -36.7518L484.721 -38.4616L483.823 -40.1714L482.924 -41.8813L482.025 -43.5911L481.127 -45.3009L480.228 -47.0107L479.329 -48.7205L478.431 -50.4303L477.532 -52.1402L476.633 -53.8499L475.734 -55.5598L474.836 -57.2695L473.937 -58.9794L473.038 -60.6891L472.14 -62.399L471.241 -64.1087L470.342 -65.8186L469.444 -67.5283L468.545 -69.2381L467.646 -70.9479L466.747 -72.6577L465.849 -74.3675L464.95 -76.0772L464.051 -77.787L463.153 -79.4968L462.254 -81.2066L461.355 -82.9164L460.457 -84.6262L459.558 -86.3359L458.659 -88.0457L457.761 -89.7555L456.862 -91.4652L455.963 -93.175L455.065 -94.8847L454.166 -96.5945L453.267 -98.3043L452.369 -100.014L451.47 -101.724L450.571 -103.434L449.673 -105.143L448.774 -106.853L447.875 -108.563L446.977 -110.273L446.078 -111.982L445.179 -113.692L444.281 -115.402L443.382 -117.112L442.483 -118.821L441.584 -120.531L440.686 -122.241L439.787 -123.951L438.888 -125.66L437.99 -127.37L437.091 -129.08L436.192 -130.79L435.294 -132.499L434.395 -134.209L433.496 -135.919L432.598 -137.629L431.699 -139.338L430.8 -141.048L429.902 -142.758L429.003 -144.468L428.104 -146.177L427.206 -147.887L426.398 -149.423L651.625 -986.681L721.514 -968.712L662.657 -749.602L662.606 -749.412L662.697 -749.239L747.267 -588.342L747.499 -587.899L747.941 -588.134L1308.25 -885.301L1308.56 -885.462L1308.52 -885.803C1303.76 -926.081 1323.94 -968.017 1362.46 -988.445C1412.91 -1015.2 1474.17 -996.792 1500.32 -947.047C1526.47 -897.302 1507.04 -836.099 1456.6 -809.343C1418.08 -788.915 1372.22 -795.83 1341.79 -822.489L1341.54 -822.715L1341.23 -822.555L780.922 -525.387L780.48 -525.153L780.713 -524.71L825.625 -439.262L825.858 -438.82L826.3 -439.054L1197.69 -636.025L1197.99 -636.185L1197.95 -636.523C1193.68 -675.879 1214.8 -716.006 1252.41 -735.953C1302.86 -762.709 1364.12 -744.301 1390.27 -694.555C1416.42 -644.81 1396.99 -583.607 1346.55 -556.851C1307.11 -535.935 1261.26 -542.849 1229.87 -571.321L1229.61 -571.556L1229.31 -571.392L859.758 -375.398L859.316 -375.164L859.549 -374.722L906.373 -285.637L906.606 -285.195L907.047 -285.429L1099.65 -387.581L1099.95 -387.737L1099.92 -388.071C1096.08 -428.834 1117.21 -468.961 1154.81 -488.906C1205.26 -515.662 1266.53 -497.254 1292.68 -447.509C1318.82 -397.763 1299.4 -336.561 1248.95 -309.805C1209.52 -288.892 1163.19 -296.707 1132.28 -324.277L1132.02 -324.508L1131.71 -324.345L940.028 -222.683L939.586 -222.448L939.819 -222.006L1297.21 457.943L1297.31 458.128L1297.51 458.188L1515.81 523.749L1516.28 523.89L1516.43 523.42L1786.68 -327.831ZM1424.87 812.601L1425.34 812.744L1425.49 812.268L1448.09 738.674L1448.24 738.193L1447.76 738.048L1056.14 620.435L552.157 -338.398L551.566 -339.522L551.234 -338.294L502.794 -159.162L502.742 -158.972L502.834 -158.798L936.195 665.685L936.292 665.87L936.493 665.93L1424.87 812.601ZM1106.92 560.025L1107.02 560.211L1107.22 560.271L1469.66 669.118L1470.13 669.26L1470.28 668.79L1494.24 593.309L1494.39 592.825L1493.91 592.679L1247.82 518.773L635.861 -645.499L635.271 -646.621L634.938 -645.396L579.875 -442.991L579.823 -442.801L579.915 -442.626L1106.92 560.025ZM1255.33 -426.54C1240.39 -454.966 1204.63 -466.472 1174.89 -450.703C1146.09 -435.428 1133.97 -399.697 1149.39 -370.353C1164.33 -341.927 1200.1 -330.421 1229.83 -346.189C1258.63 -361.464 1270.76 -397.195 1255.33 -426.54ZM1352.45 -674.496C1337.51 -702.921 1301.74 -714.428 1272.01 -698.659C1243.2 -683.381 1231.56 -646.739 1246.51 -618.309C1261.45 -589.883 1297.21 -578.376 1326.94 -594.145C1355.74 -609.42 1367.87 -645.151 1352.45 -674.496ZM1463.42 -927.476C1448.48 -955.902 1412.71 -967.408 1382.98 -951.639C1353.25 -935.87 1342.54 -899.714 1357.48 -871.289C1372.42 -842.863 1408.18 -831.357 1437.92 -847.126C1466.72 -862.401 1478.84 -898.132 1463.42 -927.476ZM1995.52 -114.677C1980.58 -143.103 1944.82 -154.609 1915.08 -138.84C1886.28 -123.563 1874.64 -86.9204 1889.58 -58.4899C1904.52 -30.0644 1940.29 -18.5578 1970.02 -34.3268C1998.82 -49.6016 2010.95 -85.3325 1995.52 -114.677ZM2074.32 158.55C2059.38 130.124 2023.61 118.618 1993.88 134.387C1964.15 150.156 1953.44 186.312 1968.38 214.737C1983.32 243.163 2019.08 254.669 2048.82 238.9C2077.62 223.625 2089.74 187.894 2074.32 158.55ZM1797.07 -380.237C1812.01 -351.812 1847.77 -340.305 1877.5 -356.074C1907.23 -371.841 1918.43 -407.085 1903.01 -436.425C1888.07 -464.85 1852.3 -476.357 1822.57 -460.588C1793.77 -445.313 1781.64 -409.582 1797.07 -380.237Z" stroke="#4CA9FF"/>
</svg>
