<svg width="1440" height="677" viewBox="0 0 1440 677" fill="none" xmlns="http://www.w3.org/2000/svg">
<path d="M1026.66 -704.24L1026.59 -704.594L1026.23 -704.635C1012.18 -706.267 998.102 -711.693 985.766 -719.77C937.311 -751.495 924.205 -815.655 956.282 -864.136C988.356 -912.613 1053.66 -925.438 1101.24 -894.29C1149.69 -862.565 1162.8 -798.405 1130.72 -749.924C1122.55 -737.583 1111.75 -726.98 1099.48 -719.873L1099.17 -719.692L1099.24 -719.342L1312.61 325.359L1320.09 361.989L1327.58 398.619L1337.15 445.506L1337.39 446.689L1338.06 445.68L1426.54 311.95L1426.66 311.778L1426.61 311.576L1269.19 -462.944L1269.13 -463.273L1268.79 -463.334C1255.3 -465.851 1242.09 -470.708 1230.65 -478.201C1182.2 -509.926 1169.09 -574.086 1201.17 -622.566C1233.24 -671.047 1297.66 -684.446 1346.12 -652.721C1394.57 -620.996 1407.68 -556.836 1375.6 -508.355C1366.28 -494.258 1354.59 -484.225 1341.71 -476.218L1341.41 -476.035L1341.48 -475.695L1484.23 223.214L1484.47 224.397L1485.14 223.387L1554.87 117.998L1554.98 117.825L1554.94 117.624L1478.63 -256.007L1478.56 -256.335L1478.23 -256.397C1464.74 -258.913 1451.53 -263.769 1439.2 -271.843C1390.75 -303.568 1377.64 -367.728 1409.72 -416.208C1441.8 -464.689 1506.22 -478.088 1554.67 -446.363C1603.13 -414.638 1616.23 -350.478 1584.16 -301.997C1575.4 -288.77 1564.6 -278.162 1551.73 -270.166L1551.44 -269.983L1551.51 -269.643L1592.65 -68.1755L1633.76 133.09L1633.34 133.732L1632.8 134.547L1632.26 135.362L1631.72 136.176L1631.18 136.991L1630.64 137.806L1630.1 138.62L1629.56 139.435L1629.02 140.249L1628.49 141.064L1627.95 141.878L1627.41 142.693L1626.87 143.507L1626.33 144.322L1625.79 145.136L1625.25 145.95L1624.71 146.765L1624.17 147.579L1623.64 148.394L1623.1 149.208L1622.56 150.022L1622.02 150.836L1621.48 151.651L1620.94 152.465L1620.4 153.279L1619.86 154.093L1619.33 154.908L1618.79 155.722L1618.25 156.536L1617.71 157.35L1617.17 158.164L1616.63 158.978L1616.09 159.792L1615.56 160.606L1615.02 161.42L1614.48 162.234L1613.94 163.048L1613.4 163.862L1612.86 164.676L1612.32 165.49L1611.79 166.304L1611.25 167.118L1610.71 167.932L1610.17 168.746L1609.63 169.56L1609.09 170.373L1608.55 171.187L1608.02 172.001L1607.48 172.815L1606.94 173.629L1606.4 174.442L1605.86 175.256L1605.32 176.07L1604.79 176.883L1604.25 177.697L1603.71 178.511L1603.17 179.324L1602.63 180.138L1602.09 180.952L1601.56 181.765L1601.02 182.579L1600.48 183.392L1599.94 184.206L1599.4 185.019L1598.86 185.833L1598.33 186.646L1597.79 187.46L1597.25 188.273L1596.71 189.086L1596.17 189.9L1595.64 190.713L1595.1 191.527L1594.56 192.34L1594.02 193.153L1593.48 193.967L1592.94 194.78L1592.41 195.593L1591.87 196.406L1591.33 197.22L1590.79 198.033L1590.25 198.846L1589.72 199.659L1589.18 200.472L1588.64 201.286L1588.1 202.099L1587.56 202.912L1587.03 203.725L1586.49 204.538L1585.95 205.351L1585.41 206.164L1584.87 206.977L1584.34 207.79L1583.8 208.603L1583.26 209.416L1582.72 210.229L1582.19 211.042L1581.65 211.855L1581.11 212.668L1580.57 213.481L1580.03 214.294L1579.5 215.107L1578.96 215.92L1578.42 216.732L1577.88 217.545L1577.34 218.358L1576.81 219.171L1576.27 219.984L1575.73 220.796L1575.19 221.609L1574.66 222.422L1574.12 223.234L1573.58 224.047L1573.04 224.86L1572.51 225.672L1571.97 226.485L1571.43 227.298L1570.89 228.11L1570.35 228.923L1569.82 229.736L1569.28 230.548L1568.74 231.361L1568.2 232.173L1567.67 232.986L1567.13 233.798L1566.59 234.611L1566.05 235.423L1565.52 236.236L1564.98 237.048L1564.44 237.861L1563.9 238.673L1563.37 239.485L1562.83 240.298L1562.29 241.11L1561.75 241.923L1561.22 242.735L1560.68 243.547L1560.14 244.359L1559.6 245.172L1559.07 245.984L1558.53 246.796L1557.99 247.609L1557.45 248.421L1556.92 249.233L1556.38 250.045L1555.84 250.857L1555.3 251.67L1554.77 252.482L1554.23 253.294L1553.69 254.106L1553.16 254.918L1552.62 255.73L1552.08 256.542L1551.54 257.354L1551.01 258.166L1550.47 258.979L1549.93 259.791L1549.39 260.603L1548.86 261.415L1548.32 262.227L1547.78 263.039L1547.25 263.851L1546.71 264.662L1546.17 265.474L1545.63 266.286L1545.1 267.098L1544.56 267.91L1544.02 268.722L1543.48 269.534L1542.95 270.346L1542.41 271.158L1541.87 271.969L1541.34 272.781L1540.8 273.593L1540.26 274.405L1539.73 275.217L1539.19 276.028L1538.65 276.84L1538.11 277.652L1537.58 278.464L1537.04 279.275L1536.5 280.087L1535.97 280.899L1535.43 281.71L1534.89 282.522L1534.35 283.334L1533.82 284.145L1533.28 284.957L1532.74 285.768L1532.21 286.58L1531.67 287.392L1531.13 288.203L1530.6 289.015L1530.06 289.826L1529.52 290.638L1528.98 291.449L1528.45 292.261L1527.91 293.072L1527.37 293.884L1526.84 294.695L1526.3 295.507L1525.76 296.318L1525.23 297.13L1524.69 297.941L1524.15 298.752L1523.62 299.564L1523.08 300.375L1522.54 301.187L1522.01 301.998L1521.47 302.809L1520.93 303.621L1520.4 304.432L1519.86 305.243L1519.32 306.055L1518.78 306.866L1518.25 307.677L1517.71 308.488L1517.17 309.3L1516.64 310.111L1516.1 310.922L1515.56 311.733L1515.03 312.544L1514.49 313.356L1513.95 314.167L1513.42 314.978L1512.88 315.789L1512.34 316.6L1511.81 317.411L1511.27 318.222L1510.73 319.034L1510.2 319.845L1509.66 320.656L1509.12 321.467L1508.59 322.278L1508.05 323.089L1507.51 323.9L1506.98 324.711L1506.44 325.522L1505.9 326.333L1505.37 327.144L1504.83 327.955L1504.29 328.766L1503.76 329.577L1503.22 330.388L1502.69 331.199L1502.15 332.01L1501.61 332.821L1501.08 333.632L1500.54 334.443L1500 335.254L1499.47 336.064L1498.93 336.875L1498.39 337.686L1497.86 338.497L1497.32 339.308L1496.78 340.119L1496.25 340.929L1495.71 341.74L1495.17 342.551L1494.64 343.362L1494.1 344.173L1493.56 344.983L1493.03 345.794L1492.49 346.605L1491.96 347.416L1491.42 348.226L1490.88 349.037L1490.35 349.848L1489.81 350.659L1489.27 351.469L1488.74 352.28L1488.2 353.091L1487.66 353.901L1487.13 354.712L1486.59 355.523L1486.06 356.333L1485.52 357.144L1484.98 357.954L1484.45 358.765L1483.91 359.576L1483.37 360.386L1482.84 361.197L1482.3 362.007L1481.76 362.818L1481.23 363.629L1480.69 364.439L1480.16 365.25L1479.62 366.06L1479.08 366.871L1478.55 367.681L1478.01 368.492L1477.47 369.302L1476.94 370.113L1476.4 370.923L1475.87 371.734L1475.33 372.544L1474.79 373.354L1474.26 374.165L1473.72 374.975L1473.18 375.786L1472.65 376.596L1472.11 377.407L1471.58 378.217L1471.04 379.027L1470.5 379.838L1469.97 380.648L1469.43 381.458L1468.9 382.269L1468.36 383.079L1467.82 383.89L1467.29 384.7L1466.75 385.51L1466.21 386.32L1465.68 387.131L1465.14 387.941L1464.61 388.751L1464.07 389.562L1463.53 390.372L1463 391.182L1462.46 391.992L1461.93 392.803L1461.39 393.613L1460.85 394.423L1460.32 395.233L1459.78 396.044L1459.25 396.854L1458.71 397.664L1458.17 398.474L1457.64 399.284L1457.1 400.095L1456.57 400.905L1456.03 401.715L1455.49 402.525L1454.96 403.335L1454.42 404.145L1453.88 404.956L1453.35 405.766L1452.81 406.576L1452.28 407.386L1451.74 408.196L1451.2 409.006L1450.67 409.816L1450.13 410.626L1449.6 411.436L1449.06 412.247L1448.52 413.057L1447.99 413.867L1447.45 414.677L1446.92 415.487L1446.38 416.297L1445.85 417.107L1445.31 417.917L1444.77 418.727L1444.24 419.537L1443.7 420.347L1443.17 421.157L1442.63 421.967L1442.09 422.777L1441.56 423.587L1441.02 424.397L1440.49 425.207L1439.95 426.017L1439.41 426.827L1438.88 427.637L1438.34 428.447L1437.81 429.257L1437.27 430.067L1436.73 430.877L1436.2 431.687L1435.66 432.497L1435.13 433.306L1434.59 434.116L1434.06 434.926L1433.52 435.736L1432.98 436.546L1432.45 437.356L1431.91 438.166L1431.38 438.976L1430.84 439.786L1430.3 440.595L1429.77 441.405L1429.23 442.215L1428.7 443.025L1428.16 443.835L1427.63 444.645L1427.09 445.455L1426.55 446.264L1426.02 447.074L1425.48 447.884L1424.95 448.694L1424.41 449.504L1423.87 450.314L1423.34 451.123L1422.8 451.933L1422.27 452.743L1421.73 453.553L1421.2 454.363L1420.66 455.172L1420.12 455.982L1419.59 456.792L1419.05 457.602L1418.52 458.411L1417.98 459.221L1417.45 460.031L1416.91 460.841L1416.37 461.65L1415.84 462.46L1415.3 463.27L1414.77 464.08L1414.23 464.889L1413.69 465.699L1413.16 466.509L1412.62 467.319L1412.09 468.128L1411.55 468.938L1411.02 469.748L1410.48 470.557L1409.94 471.367L1409.41 472.177L1408.87 472.986L1408.34 473.796L1407.8 474.606L1407.27 475.416L1406.73 476.225L1406.19 477.035L1405.66 477.845L1405.12 478.654L1404.59 479.464L1404.05 480.274L1403.52 481.083L1402.98 481.893L1402.44 482.702L1401.91 483.512L1401.37 484.322L1400.84 485.131L1400.3 485.941L1399.77 486.751L1399.23 487.56L1398.69 488.37L1398.16 489.18L1397.62 489.989L1397.09 490.799L1396.55 491.608L1396.02 492.418L1395.48 493.228L1394.95 494.037L1394.41 494.847L1393.87 495.656L1393.34 496.466L1392.8 497.276L1392.27 498.085L1391.73 498.895L1391.2 499.704L1390.66 500.514L1390.12 501.324L1389.59 502.133L1389.05 502.943L1388.52 503.752L1387.98 504.562L1387.45 505.372L1386.91 506.181L1386.37 506.991L1385.84 507.8L1385.3 508.61L1384.77 509.419L1384.23 510.229L1383.7 511.039L1383.16 511.848L1382.63 512.658L1382.09 513.467L1381.55 514.277L1381.02 515.086L1380.48 515.896L1379.95 516.705L1379.41 517.515L1378.88 518.325L1378.34 519.134L1377.8 519.944L1377.27 520.753L1376.73 521.563L1376.2 522.372L1375.66 523.182L1375.13 523.991L1374.59 524.801L1374.06 525.61L1373.52 526.42L1372.98 527.229L1372.45 528.039L1371.91 528.848L1371.38 529.658L1370.84 530.468L1370.31 531.277L1369.77 532.087L1369.23 532.896L1368.7 533.706L1368.16 534.515L1367.63 535.325L1367.09 536.134L1366.56 536.944L1366.02 537.753L1365.49 538.563L1364.95 539.372L1364.41 540.182L1363.88 540.991L1363.34 541.801L1362.81 542.61L1362.27 543.42L1361.74 544.229L1361.2 545.039L1360.66 545.848L1360.13 546.658L1359.59 547.468L1359.17 548.105L1285.82 563.365L1014.38 619.829L750.227 674.778L1271.12 491.062L1271.54 490.916L1271.44 490.487L1255 413.716L1254.86 413.078L1254.28 413.378L743.137 676.175L-90.9901 -112.318L-92.2377 -113.497L-91.8217 -111.834L-45.874 71.8327L-45.8319 72.0008L-45.6941 72.1066L732.151 669.048L731.634 668.71L729.964 667.616L728.294 666.523L726.624 665.429L724.954 664.336L723.284 663.242L721.615 662.149L719.945 661.056L718.275 659.962L716.605 658.869L714.935 657.776L713.265 656.683L711.595 655.589L709.926 654.496L708.256 653.403L706.586 652.309L704.916 651.216L703.247 650.123L701.577 649.03L699.907 647.937L698.238 646.843L696.568 645.75L694.898 644.657L693.229 643.564L691.559 642.471L689.89 641.378L688.22 640.285L686.551 639.192L684.881 638.098L683.212 637.005L681.542 635.912L679.873 634.819L678.203 633.726L676.534 632.633L674.865 631.54L673.195 630.447L671.526 629.354L669.857 628.261L668.187 627.168L666.518 626.075L664.849 624.982L663.18 623.89L661.51 622.797L659.841 621.704L658.172 620.611L656.503 619.518L654.834 618.425L653.164 617.332L651.495 616.239L649.826 615.147L648.157 614.054L646.488 612.961L644.819 611.868L643.15 610.775L641.481 609.683L639.812 608.59L638.143 607.497L636.474 606.404L634.805 605.312L633.136 604.219L631.467 603.126L629.798 602.034L628.13 600.941L626.461 599.848L624.792 598.756L623.123 597.663L621.454 596.57L619.785 595.478L618.117 594.385L616.448 593.292L614.779 592.2L613.11 591.107L611.442 590.015L609.773 588.922L608.104 587.83L606.436 586.737L604.767 585.645L603.098 584.552L601.43 583.46L599.761 582.367L598.093 581.275L596.424 580.182L594.756 579.09L593.087 577.997L591.419 576.905L589.75 575.812L588.082 574.72L586.413 573.628L584.745 572.535L583.076 571.443L581.408 570.351L579.74 569.258L578.071 568.166L576.403 567.074L574.735 565.981L573.066 564.889L571.398 563.797L569.73 562.704L568.061 561.612L566.393 560.52L564.725 559.428L563.057 558.335L561.389 557.243L559.72 556.151L558.052 555.059L556.384 553.966L554.716 552.874L553.048 551.782L551.38 550.69L549.712 549.598L548.043 548.505L546.375 547.413L544.707 546.321L543.039 545.229L541.371 544.137L539.703 543.045L538.035 541.953L536.367 540.861L534.699 539.769L533.032 538.677L531.364 537.585L529.696 536.493L528.028 535.4L526.36 534.308L524.692 533.216L523.024 532.124L521.356 531.032L519.689 529.94L518.021 528.849L516.353 527.757L514.685 526.665L513.017 525.573L511.35 524.481L509.682 523.389L508.014 522.297L506.347 521.205L504.679 520.113L503.011 519.021L501.344 517.929L499.676 516.837L498.008 515.746L496.341 514.654L494.673 513.562L493.005 512.47L491.338 511.378L489.67 510.286L488.003 509.195L486.335 508.103L484.668 507.011L483 505.919L481.333 504.827L479.665 503.736L477.998 502.644L476.331 501.552L474.663 500.461L472.996 499.369L471.328 498.277L469.661 497.185L467.994 496.094L466.326 495.002L464.659 493.91L462.992 492.819L461.324 491.727L459.657 490.635L457.99 489.544L456.322 488.452L454.655 487.361L452.988 486.269L451.321 485.177L449.653 484.086L447.986 482.994L446.319 481.903L444.652 480.811L442.985 479.719L441.317 478.628L439.65 477.536L437.983 476.445L436.316 475.353L434.649 474.262L432.982 473.17L431.315 472.079L429.648 470.987L427.981 469.896L426.314 468.804L424.647 467.713L422.98 466.621L421.313 465.53L419.646 464.438L417.979 463.347L416.312 462.256L414.645 461.164L412.978 460.073L411.311 458.981L409.644 457.89L407.977 456.799L406.31 455.707L404.643 454.616L402.976 453.524L401.31 452.433L399.643 451.342L397.976 450.25L396.309 449.159L394.642 448.068L392.975 446.976L391.309 445.885L389.642 444.794L387.975 443.703L386.308 442.611L384.642 441.52L382.975 440.429L381.308 439.338L379.642 438.246L377.975 437.155L376.308 436.064L374.642 434.973L372.975 433.881L371.308 432.79L369.642 431.699L367.975 430.608L366.308 429.517L364.642 428.425L362.975 427.334L361.309 426.243L359.642 425.152L357.976 424.061L356.309 422.97L354.642 421.878L352.976 420.787L351.309 419.696L349.643 418.605L347.977 417.514L346.31 416.423L344.644 415.332L342.977 414.241L341.311 413.15L339.644 412.059L337.978 410.967L336.311 409.876L334.645 408.785L332.979 407.694L331.312 406.603L329.646 405.512L327.98 404.421L326.313 403.33L324.647 402.239L322.981 401.148L321.314 400.057L319.648 398.966L317.982 397.875L316.315 396.784L314.649 395.693L312.983 394.602L311.317 393.511L309.65 392.42L307.984 391.329L306.318 390.238L304.652 389.148L302.985 388.057L301.319 386.966L299.653 385.875L297.987 384.784L296.321 383.693L294.655 382.602L292.989 381.511L291.322 380.42L289.656 379.329L287.99 378.239L286.324 377.148L284.658 376.057L282.992 374.966L281.326 373.875L279.66 372.784L277.994 371.693L276.328 370.603L274.662 369.512L272.996 368.421L271.329 367.33L269.663 366.239L267.997 365.149L266.331 364.058L264.665 362.967L262.999 361.876L261.333 360.785L259.668 359.695L258.002 358.604L256.336 357.513L254.67 356.422L253.004 355.332L251.338 354.241L249.672 353.15L248.006 352.059L246.34 350.969L244.674 349.878L243.008 348.787L241.343 347.697L239.677 346.606L238.011 345.515L236.345 344.425L234.679 343.334L233.013 342.243L231.347 341.152L229.682 340.062L228.016 338.971L226.35 337.881L224.684 336.79L223.019 335.699L221.353 334.609L219.687 333.518L218.021 332.427L216.356 331.337L214.69 330.246L213.024 329.155L211.358 328.065L209.693 326.974L208.027 325.884L206.361 324.793L204.696 323.702L203.03 322.612L201.364 321.521L199.699 320.431L198.033 319.34L196.367 318.25L194.702 317.159L193.036 316.068L191.37 314.978L189.705 313.887L188.039 312.797L186.373 311.706L184.708 310.616L183.042 309.525L181.377 308.435L179.711 307.344L178.045 306.254L176.38 305.163L174.714 304.073L173.049 302.982L171.383 301.892L169.718 300.801L168.052 299.711L166.387 298.62L164.721 297.53L163.056 296.439L161.39 295.349L159.725 294.258L158.059 293.168L156.394 292.077L154.728 290.987L153.063 289.896L151.397 288.806L149.732 287.715L148.066 286.625L146.401 285.535L144.735 284.444L143.07 283.354L141.404 282.263L139.739 281.173L138.074 280.082L136.408 278.992L134.743 277.902L133.077 276.811L131.412 275.721L129.747 274.63L128.081 273.54L126.416 272.45L124.75 271.359L123.085 270.269L121.42 269.178L119.754 268.088L118.089 266.998L116.424 265.907L114.758 264.817L113.093 263.727L111.428 262.636L109.762 261.546L108.097 260.456L106.432 259.365L104.766 258.275L103.101 257.185L101.436 256.094L99.7705 255.004L98.1052 253.914L96.4399 252.823L94.7746 251.733L93.1093 250.643L91.444 249.552L89.7788 248.462L88.1135 247.372L86.4482 246.281L84.783 245.191L83.1177 244.101L81.4525 243.01L79.7873 241.92L78.122 240.83L76.4568 239.74L74.7916 238.649L73.1263 237.559L71.4611 236.469L69.7959 235.378L68.1307 234.288L66.4655 233.198L64.8003 232.108L63.1351 231.017L61.4699 229.927L59.8047 228.837L58.1395 227.747L56.4743 226.656L54.8092 225.566L53.144 224.476L51.4788 223.386L49.8137 222.295L48.1485 221.205L46.4834 220.115L44.8182 219.025L43.153 217.934L41.4879 216.844L39.8228 215.754L38.1576 214.664L36.4925 213.573L34.8273 212.483L33.1622 211.393L31.4971 210.303L29.832 209.212L28.1668 208.122L26.5018 207.032L24.8366 205.942L23.1715 204.852L21.5064 203.761L19.8413 202.671L18.1762 201.581L16.5111 200.491L14.846 199.401L13.181 198.31L11.5159 197.22L9.85078 196.13L8.18569 195.04L6.5206 193.95L4.85552 192.859L3.19043 191.769L1.52539 190.679L-0.139695 189.589L-1.80473 188.499L-3.46982 187.409L-5.13485 186.318L-6.79994 185.228L-8.46498 184.138L-10.1301 183.048L-11.7951 181.958L-13.4601 180.867L-15.1252 179.777L-16.7902 178.687L-18.4552 177.597L-20.1203 176.507L-21.7854 175.417L-23.4504 174.326L-25.1154 173.236L-26.7804 172.146L-28.4455 171.056L-30.1105 169.966L-31.7755 168.876L-33.4406 167.786L-35.1056 166.695L-36.7706 165.605L-38.4356 164.515L-40.1006 163.425L-41.7657 162.335L-43.4306 161.245L-45.0957 160.154L-46.7607 159.064L-48.4257 157.974L-50.0907 156.884L-51.7557 155.794L-53.4207 154.704L-55.0857 153.614L-56.7507 152.523L-58.4157 151.433L-60.0807 150.343L-61.7457 149.253L-63.4107 148.163L-65.0757 147.073L-66.7407 145.983L-68.4057 144.893L-70.0707 143.802L-71.7357 142.712L-73.4007 141.622L-75.0657 140.532L-76.7307 139.442L-78.3956 138.352L-80.0606 137.262L-81.7256 136.171L-83.3906 135.081L-85.0556 133.991L-86.7206 132.901L-88.3855 131.811L-90.0505 130.721L-91.7155 129.631L-93.3805 128.541L-95.0455 127.45L-96.7105 126.36L-98.3755 125.27L-100.04 124.18L-101.705 123.09L-103.37 122L-105.035 120.91L-106.7 119.82L-108.365 118.729L-109.868 117.746L-325.697 -740.148L-253.708 -758.137L-197.146 -533.653L-197.099 -533.465L-196.936 -533.359L-40.2517 -430.771L-39.8334 -430.497L-39.5575 -430.914L316.709 -969.376L316.899 -969.664L316.697 -969.943C292.263 -1003.63 289.473 -1050.93 313.963 -1087.95C346.04 -1136.43 410.462 -1149.83 458.916 -1118.1C507.371 -1086.38 520.477 -1022.22 488.401 -973.737C463.91 -936.722 419.129 -920.563 378.365 -929.566L378.028 -929.64L377.838 -929.353L21.5716 -390.891L21.2957 -390.474L21.714 -390.2L104.925 -335.719L105.343 -335.445L105.619 -335.862L341.763 -692.77L341.951 -693.055L341.754 -693.333C318.211 -726.425 317.173 -772.574 341.087 -808.717C373.163 -857.197 437.585 -870.597 486.04 -838.872C534.495 -807.146 547.601 -742.986 515.524 -694.506C490.449 -656.607 445.671 -640.448 403.141 -650.607L402.799 -650.688L402.605 -650.395L167.633 -295.259L167.358 -294.842L167.776 -294.568L254.528 -237.768L254.946 -237.494L255.222 -237.911L377.689 -423.007L377.874 -423.288L377.683 -423.564C353.833 -458.128 352.802 -504.281 376.713 -540.42C408.79 -588.9 473.212 -602.3 521.667 -570.574C570.121 -538.849 583.227 -474.689 551.151 -426.209C526.079 -388.314 480.417 -372.728 438.764 -382.31L438.424 -382.389L438.232 -382.098L316.351 -197.888L316.075 -197.471L316.493 -197.197L978.641 236.337L978.814 236.45L979.018 236.408L1208.52 188.666L1209.01 188.564L1208.91 188.077L1026.66 -704.24ZM858.231 420.241L858.405 420.355L858.609 420.312L1239.65 341.048L1240.14 340.947L1240.04 340.46L1223.88 261.338L1223.78 260.848L1223.28 260.95L964.558 314.77L-169.24 -427.57L-170.31 -428.271L-170.002 -427.033L-118.381 -219.343L-118.334 -219.154L-118.17 -219.047L858.231 420.241ZM498.493 -533.632C470.824 -551.749 432.847 -544.619 413.941 -516.045C395.628 -488.367 402.577 -450.539 431.142 -431.837C458.811 -413.72 496.788 -420.85 515.693 -449.424C534.007 -477.103 527.058 -514.93 498.493 -533.632ZM461.981 -802.509C434.312 -820.625 396.335 -813.496 377.43 -784.922C359.113 -757.238 366.955 -718.833 394.63 -700.714C422.299 -682.597 460.276 -689.727 479.182 -718.301C497.495 -745.979 490.546 -783.807 461.981 -802.509ZM435.444 -1082.63C407.774 -1100.74 369.797 -1093.61 350.892 -1065.04C331.986 -1036.46 340.422 -998.946 368.092 -980.83C395.762 -962.714 433.738 -969.844 452.644 -998.417C470.957 -1026.1 464.008 -1063.92 435.444 -1082.63ZM1321.47 -615.473C1293.81 -633.589 1255.83 -626.459 1236.92 -597.886C1218.61 -570.202 1226.45 -531.797 1254.12 -513.677C1281.79 -495.561 1319.77 -502.691 1338.67 -531.265C1356.99 -558.943 1350.04 -596.771 1321.47 -615.473ZM1529.14 -409.695C1501.47 -427.811 1463.5 -420.681 1444.59 -392.107C1425.69 -363.533 1434.12 -326.015 1461.79 -307.899C1489.46 -289.783 1527.44 -296.912 1546.34 -325.486C1564.66 -353.165 1557.71 -390.992 1529.14 -409.695ZM1009.82 -756.132C1037.49 -738.016 1075.47 -745.146 1094.38 -773.72C1113.28 -802.289 1105.74 -839.229 1077.18 -857.928C1049.51 -876.044 1011.53 -868.914 992.624 -840.34C974.311 -812.662 981.26 -774.834 1009.82 -756.132Z" stroke="#4CA9FF"/>
</svg>
