<svg width="16" height="16" viewBox="0 0 16 16" fill="none" xmlns="http://www.w3.org/2000/svg">
<path fill-rule="evenodd" clip-rule="evenodd" d="M3.99992 1.33334C3.29267 1.33334 2.6144 1.6143 2.1143 2.11439C1.6142 2.61449 1.33325 3.29277 1.33325 4.00001V12C1.33325 12.7073 1.6142 13.3855 2.1143 13.8856C2.6144 14.3857 3.29267 14.6667 3.99992 14.6667H11.9999C12.7072 14.6667 13.3854 14.3857 13.8855 13.8856C14.3856 13.3855 14.6666 12.7073 14.6666 12V4.00001C14.6666 3.29277 14.3856 2.61449 13.8855 2.11439C13.3854 1.6143 12.7072 1.33334 11.9999 1.33334H3.99992ZM2.66659 4.00001C2.66659 3.64639 2.80706 3.30725 3.05711 3.0572C3.30716 2.80715 3.6463 2.66668 3.99992 2.66668H11.9999C12.3535 2.66668 12.6927 2.80715 12.9427 3.0572C13.1928 3.30725 13.3333 3.64639 13.3333 4.00001V12C13.3333 12.3536 13.1928 12.6928 12.9427 12.9428C12.6927 13.1929 12.3535 13.3333 11.9999 13.3333H3.99992C3.6463 13.3333 3.30716 13.1929 3.05711 12.9428C2.80706 12.6928 2.66659 12.3536 2.66659 12V4.00001ZM5.99992 7.33334C5.99992 7.15653 5.92968 6.98696 5.80466 6.86194C5.67963 6.73692 5.51006 6.66668 5.33325 6.66668C5.15644 6.66668 4.98687 6.73692 4.86185 6.86194C4.73682 6.98696 4.66659 7.15653 4.66659 7.33334V11.3333C4.66659 11.5102 4.73682 11.6797 4.86185 11.8047C4.98687 11.9298 5.15644 12 5.33325 12C5.51006 12 5.67963 11.9298 5.80466 11.8047C5.92968 11.6797 5.99992 11.5102 5.99992 11.3333V7.33334ZM6.33325 5.00001C6.33325 5.26523 6.2279 5.51958 6.04036 5.70712C5.85282 5.89465 5.59847 6.00001 5.33325 6.00001C5.06804 6.00001 4.81368 5.89465 4.62615 5.70712C4.43861 5.51958 4.33325 5.26523 4.33325 5.00001C4.33325 4.73479 4.43861 4.48044 4.62615 4.2929C4.81368 4.10537 5.06804 4.00001 5.33325 4.00001C5.59847 4.00001 5.85282 4.10537 6.04036 4.2929C6.2279 4.48044 6.33325 4.73479 6.33325 5.00001ZM7.99992 6.66668C8.22659 6.66668 8.42659 6.78001 8.54659 6.95201C8.89019 6.76475 9.27527 6.66664 9.66659 6.66668C11.1066 6.66668 11.9999 7.95068 11.9999 9.04734V11.3333C11.9999 11.5102 11.9297 11.6797 11.8047 11.8047C11.6796 11.9298 11.5101 12 11.3333 12C11.1564 12 10.9869 11.9298 10.8618 11.8047C10.7368 11.6797 10.6666 11.5102 10.6666 11.3333V9.04668C10.6666 8.53468 10.2266 7.99934 9.66659 7.99934C9.31725 7.99934 8.93125 8.18934 8.66659 8.64134V11.3333C8.66659 11.5102 8.59635 11.6797 8.47132 11.8047C8.3463 11.9298 8.17673 12 7.99992 12C7.82311 12 7.65354 11.9298 7.52851 11.8047C7.40349 11.6797 7.33325 11.5102 7.33325 11.3333V7.33334C7.33325 7.15653 7.40349 6.98696 7.52851 6.86194C7.65354 6.73692 7.82311 6.66668 7.99992 6.66668Z" fill="white"/>
</svg>
