<svg width="74" height="100" viewBox="0 0 74 100" fill="none" xmlns="http://www.w3.org/2000/svg">
<path d="M2.08212 75.2277C2.10312 75.1131 2.13462 74.9984 2.13462 74.9984C2.14512 74.9672 2.14512 74.9463 2.14512 74.9463C2.21863 74.6963 2.69114 74.3524 2.82765 74.2587C2.84865 74.2482 2.86965 74.2274 2.88015 74.2274C4.48672 73.1959 6.5133 72.7687 6.5133 72.7687C8.45587 72.3103 9.95743 71.7789 10.9865 71.3621C12.3305 70.8203 13.7376 70.1951 15.2496 69.5179C16.1632 69.1011 16.8457 68.7885 16.8457 68.7885C18.2003 68.1634 18.5993 67.955 19.6178 67.4965C20.2688 67.2048 19.6493 67.4965 21.6654 66.6838C21.9174 66.5796 22.3059 66.4233 22.8519 66.3608C23.23 66.3191 23.5345 66.34 23.6815 66.3504C23.713 66.3504 23.7445 66.3608 23.755 66.3608C23.7865 66.3608 34.0979 66.2775 50.1215 66.1316C50.195 66.1316 50.3 66.1316 50.426 66.142C50.426 66.142 50.6676 66.1628 50.8986 66.2254C53.9857 67.0485 55.7918 67.7987 55.7918 67.7987C58.2594 69.0177 59.5824 69.4241 60.9055 69.7992C62.575 70.2785 64.9796 70.7786 66.1452 71.0287C66.1452 71.0287 67.7202 71.3621 69.5368 72.3728C70.3558 72.8312 70.6918 73.2792 70.8599 73.7377C70.8809 73.8002 70.8914 73.8419 70.9019 73.8731C68.7808 82.3649 66.6702 90.8567 64.5491 99.3588C46.6144 99.3588 28.6902 99.3588 10.7555 99.3588C5.71526 85.5011 2.06112 75.3319 2.08212 75.2277Z" fill="#79BFFF"/>
<path d="M65.7358 70.9243C66.1978 71.0806 67.3529 71.5286 67.9094 72.6748C68.0774 73.029 68.1404 73.3312 68.2034 73.6959C68.4554 75.2379 68.0354 76.5403 67.9094 76.9154C66.3238 81.7187 64.5808 84.209 64.5808 84.209C59.9396 90.8044 53.3978 98.4626 52.6523 99.3378C42.0784 99.3378 31.5044 99.3378 20.9305 99.3378C16.9928 95.2222 14.1157 91.7317 12.1731 89.2207C11.2596 88.0433 10.2096 86.47 8.11998 83.3233C8.11998 83.3233 6.71292 81.2082 5.42137 77.8844C5.15886 77.1968 4.91735 76.4361 5.00135 75.4671C5.10636 74.2585 5.68388 73.3624 6.0619 72.8623C6.33491 72.7998 6.72342 72.706 7.17494 72.5914C8.498 72.2476 9.61104 71.8621 10.6086 71.487C12.3727 70.8305 13.7062 70.2054 15.2393 69.4865C16.6568 68.83 18.0744 68.1736 19.4919 67.5172C20.1535 67.2046 20.8465 66.9962 21.5185 66.7149C21.781 66.6003 22.2221 66.4128 22.8416 66.3398C23.2196 66.2981 23.5031 66.319 23.5556 66.319C24.2801 66.3607 33.7935 66.2877 50.4262 66.1106C50.7517 66.1835 51.2032 66.2877 51.7493 66.4232C52.6523 66.6628 54.0593 67.0275 55.6659 67.7047C56.7685 68.1632 56.779 68.2778 58.0285 68.7779C58.417 68.9342 59.0786 69.1843 59.9081 69.4552C60.9056 69.7782 61.6407 69.9553 62.7327 70.2262C63.9508 70.5596 64.9798 70.768 65.7358 70.9243Z" fill="#4CA9FF"/>
<path d="M24.4585 67.3401C28.8687 67.1734 33.2788 67.0067 37.689 66.8296C40.9337 67.6527 44.1888 68.4758 47.4334 69.299C44.0103 77.5511 40.5871 85.7928 37.164 94.0449C32.9323 85.1468 28.7007 76.2382 24.4585 67.3401Z" fill="#89BCEC"/>
<path d="M32.7012 72.3519C33.2053 75.4568 33.7198 78.5722 34.2238 81.6771C36.0404 80.0309 37.8675 78.3846 39.684 76.7384C40.1145 74.9358 40.5451 73.1229 40.9861 71.3204C40.6606 70.5493 40.3351 69.7887 40.0095 69.0177C37.4579 69.4241 34.9063 69.8304 32.3547 70.2368C32.4807 70.9348 32.5857 71.6434 32.7012 72.3519Z" fill="#BDCADE"/>
<path d="M6.33484 99.3378C5.82032 98.3584 3.75174 94.3574 2.30267 90.1792C1.50464 87.887 0.874615 85.4593 0.5071 84.0527C0.360093 83.5004 -0.0389233 81.8959 0.00307879 79.8849C0.0135793 79.5411 0.0345803 78.8222 0.276091 77.9365C0.307592 77.8219 0.559603 76.9467 1.23163 75.9881C1.71465 75.29 1.94566 75.2379 2.08217 75.2379C2.53369 75.2379 2.8487 75.8214 2.9012 75.9048C3.16371 76.4361 3.57323 77.2697 4.06675 78.2908C5.01179 80.2704 6.71286 83.8964 10.1255 92.2422C10.85 94.0135 11.8371 96.4412 12.9816 99.3482C10.766 99.3378 8.55044 99.3378 6.33484 99.3378Z" fill="#1C92FF"/>
<path d="M66.8697 99.3379C67.4052 97.8583 67.8462 96.6601 68.1402 95.8578C69.7468 91.4817 71.3009 87.0952 72.9599 82.7399C73.0334 82.5419 73.254 81.9793 73.317 81.2082C73.359 80.729 73.338 80.2913 73.2435 79.7079C73.1699 79.2181 72.9284 77.8741 71.9939 75.7172C71.1854 73.8626 70.8914 73.8001 70.7759 73.8209C70.6288 73.8418 70.5238 74.0397 70.4713 74.2064C69.0328 77.8949 67.6257 81.8021 66.2712 85.9178C64.7381 90.5752 63.436 95.0555 62.3125 99.3379C63.8246 99.3379 65.3471 99.3379 66.8697 99.3379Z" fill="#1C92FF"/>
<path d="M17.0137 68.6851C18.1372 69.8104 19.1243 70.6231 19.8173 71.1649C19.8173 71.1649 21.4764 72.5611 23.7759 74.9992C23.8705 75.093 24.0175 75.2909 24.049 75.5514C24.0805 75.8223 23.965 76.0307 23.8915 76.1558C23.4294 76.958 22.9149 77.4998 22.9149 77.4998C22.5999 77.8333 22.1484 78.3125 21.6024 78.9481C26.7896 83.9807 31.9768 89.0132 37.1745 94.0457C36.0614 91.5034 34.5074 87.9296 32.6068 83.616C30.0867 77.8854 28.9527 75.4264 27.2621 72.2589C26.1385 70.1646 25.1515 68.4663 24.4795 67.3306C24.1015 66.9867 23.7234 66.6429 23.3559 66.2991C23.1984 66.3095 23.0094 66.3199 22.7994 66.3512C22.7679 66.3512 22.5054 66.3928 22.2219 66.4658C21.5814 66.6429 20.9093 66.9659 20.9093 66.9659C20.1428 67.3306 20.3843 67.1535 18.8827 67.8099C18.3157 68.0704 17.6962 68.3517 17.0137 68.6851Z" fill="#1C92FF"/>
<path d="M50.4261 66.1316C50.4996 66.1524 50.6046 66.1733 50.7412 66.2045C50.9197 66.2462 51.3292 66.34 51.8647 66.4858C52.2427 66.59 52.8412 66.7463 53.4188 66.9235C54.0068 67.111 54.8153 67.3923 55.7814 67.8404C54.5633 68.7677 53.2718 69.82 51.9487 71.0078C50.6992 72.1331 49.5861 73.248 48.5886 74.3107C48.5676 74.3316 48.221 74.6546 48.305 75.0401C48.3261 75.1547 48.3891 75.2485 48.4416 75.311C48.6621 75.634 48.9246 75.9778 49.2291 76.3425C49.5651 76.728 49.8906 77.0614 50.1951 77.3428C49.5651 78.2701 48.6411 79.6454 47.4965 81.2917C47.4965 81.2917 45.4384 84.2612 42.0783 88.7519C41.2802 89.8147 40.3142 91.0962 38.7916 92.5862C38.1301 93.2322 37.5526 93.7428 37.1431 94.0762C40.5662 85.8241 43.9894 77.5824 47.4125 69.3303C48.4311 68.2467 49.4286 67.1839 50.4261 66.1316Z" fill="#1C92FF"/>
<path d="M37.1641 94.0449C37.1326 85.1676 37.1011 76.2903 37.0591 67.4131C35.9566 68.653 34.8645 69.9033 33.762 71.1432C34.1505 71.5079 34.539 71.8726 34.9275 72.2268C34.5705 76.978 34.2135 81.7396 33.8565 86.4909C34.959 89.0123 36.0616 91.5338 37.1641 94.0449Z" fill="#79BFFF"/>
<path d="M37.0696 67.4131C38.2561 68.5905 39.4532 69.7783 40.6397 70.9557C40.1882 71.4975 39.7367 72.0288 39.2852 72.5707C39.7157 76.9989 40.1462 81.4167 40.5662 85.8449C39.4322 88.5852 38.2981 91.315 37.1641 94.0553C37.1326 85.1676 37.1011 76.2903 37.0696 67.4131Z" fill="#4CA9FF"/>
<path d="M59.2464 88.3246C58.5534 88.856 57.8604 89.3874 57.1674 89.9084C55.4873 89.9188 53.7967 89.9188 52.1166 89.9292C51.4761 89.4187 50.8251 88.8977 50.1846 88.3871C50.2056 86.4283 50.2266 84.4799 50.2371 82.5211C53.2612 82.5107 56.2853 82.5107 59.3094 82.5002C59.2884 84.4382 59.2674 86.3762 59.2464 88.3246Z" fill="#0084FF"/>
<path d="M58.7633 82.7607C58.7633 84.5216 58.7528 86.2928 58.7528 88.0537C58.1753 88.5121 57.5978 88.981 57.0202 89.4394C55.5082 89.4499 53.9961 89.4603 52.484 89.4707C51.9065 89.0018 51.329 88.533 50.7515 88.0641C53.4186 86.3033 56.0962 84.532 58.7633 82.7607Z" fill="#0F8CFF"/>
<path d="M37.0697 67.4131C35.1901 69.5386 33.3105 71.6642 31.431 73.7897C28.7324 71.2995 26.0337 68.7989 23.3456 66.3087C23.3456 66.2461 23.3456 66.1628 23.3666 66.0794C23.3981 65.9648 23.4401 65.8815 23.4716 65.8189C24.2907 64.5165 25.1097 63.2245 25.9182 61.9221C25.9182 61.8492 25.9182 61.7658 25.9182 61.6929C24.9837 61.4116 23.6607 60.9739 22.1486 60.3071C19.849 59.2964 15.0188 57.1084 11.0391 52.1904C8.38253 48.9084 6.99648 45.5221 6.25095 42.886C5.72592 42.7505 4.86489 42.4484 4.03536 41.7503C3.83585 41.5731 2.06127 40.0415 2.06128 37.8326C2.06128 35.6966 3.73084 33.6336 6.20895 32.8626C7.01748 29.7576 8.21453 27.4654 9.12807 25.965C13.6328 18.6506 20.7205 15.6811 23.5032 14.5662C24.1962 14.2849 26.3278 13.4618 29.3414 12.8262C33.1005 12.0343 39.5373 11.2633 47.7276 13.2742C49.4077 13.7118 51.7703 14.4516 54.4164 15.7853C61.7877 19.4946 65.5574 25.0481 65.5574 25.0481C66.6074 26.5901 68.0775 29.1325 69.0225 32.6854C69.6 32.8209 70.6921 33.1543 71.7001 34.0712C72.0361 34.3734 73.7267 35.905 73.5692 38.1556C73.4327 40.0832 72.0466 41.271 71.4586 41.7815C70.4926 42.6151 69.4845 42.9798 68.865 43.1569C68.3505 44.8969 67.731 46.3869 67.1009 47.6372C67.1009 47.6372 66.3029 49.2001 65.2844 50.6692C62.6592 54.441 57.283 59.1297 49.9852 61.4949C48.8407 61.87 47.9061 62.0992 47.4231 62.2139C47.4231 62.2764 47.4231 62.3493 47.4231 62.4118C48.4207 63.6621 49.4287 64.9125 50.4262 66.1732C48.0636 68.6843 45.701 71.1849 43.3385 73.696C41.2489 71.5704 39.1593 69.497 37.0697 67.4131Z" fill="#F9F9F9"/>
<path d="M23.8076 66.2253C24.6791 64.7457 25.5507 63.2662 26.4222 61.7762C27.9343 65.4647 29.4568 69.1427 30.9689 72.8311C28.5853 70.6326 26.1912 68.4238 23.8076 66.2253Z" fill="#ECECEC"/>
<path d="M49.9011 66.1003C47.7695 68.3509 45.6379 70.591 43.5063 72.8416C44.7559 69.4866 46.0159 66.1211 47.2655 62.7661C48.1475 63.8706 49.0295 64.9854 49.9011 66.1003Z" fill="#ECECEC"/>
<path d="M19.9015 37.895C19.891 41.0833 9.28555 45.3344 4.61287 41.8856C4.21385 41.5939 2.28178 40.0831 2.27128 37.8846C2.26078 35.5924 4.36086 34.0191 4.71787 33.769C9.45356 30.3828 19.9225 34.7172 19.9015 37.895Z" fill="url(#paint0_linear)"/>
<path d="M67.3948 33.6127C68.4449 33.8211 69.2324 34.1857 69.7469 34.4671C70.6289 34.9568 71.6475 35.5298 72.0885 36.7072C72.393 37.5199 72.267 38.2597 72.2145 38.5098C71.7945 40.552 69.5474 41.448 69.0539 41.646C68.3293 41.9378 67.6888 42.0211 67.2793 42.0524C67.3108 39.2391 67.3528 36.4259 67.3948 33.6127Z" fill="#D5D5D5"/>
<path d="M38.1091 62.3701C38.1301 47.2204 38.1406 32.0707 38.1616 16.921C41.3013 16.0041 44.4409 15.0872 47.5805 14.1703C48.6621 14.5037 50.1531 15.0143 51.8542 15.7853C53.0828 16.3479 56.9784 18.1609 60.2336 21.2346C61.4411 22.3807 67.8359 28.4031 67.8044 37.6242C67.7834 43.0214 65.5783 46.9287 64.6227 48.5749C61.3361 54.2326 56.6319 56.9208 53.9963 58.3795C47.6015 61.9013 41.4693 62.3806 38.1091 62.3701Z" fill="#DCDCDC"/>
<path d="M27.0627 61.9845C28.1968 62.8389 29.1733 63.5161 29.8979 63.9954C31.6934 65.1936 32.8275 65.9438 34.4655 66.6003C35.5261 67.0274 36.4396 67.2671 37.0591 67.413C37.0486 66.0897 37.0486 64.7769 37.0381 63.4536C35.9461 63.464 34.7596 63.4119 33.489 63.2869C31.0214 63.0368 28.8583 62.5367 27.0627 61.9845Z" fill="#F2DDCC"/>
<path d="M37.0486 63.4537C38.2036 63.4954 39.4742 63.4849 40.8497 63.3807C43.0443 63.214 44.9764 62.8285 46.5829 62.4117C45.7639 63.0994 45.0499 63.6308 44.5249 63.9955C43.2753 64.8603 41.3537 66.1835 38.6236 67.0171C37.9726 67.2151 37.4371 67.3401 37.0696 67.413C37.0591 66.1002 37.0486 64.7769 37.0486 63.4537Z" fill="#EED5C0"/>
<path d="M64.108 48.1893C63.2995 41.5835 61.5984 35.1131 60.3909 28.5697C60.3594 28.3822 60.2649 27.8508 59.8554 27.4132C59.1518 26.663 57.9863 26.6838 57.5768 26.6838C55.7392 26.7047 48.2629 26.6734 37.962 26.6838C27.5561 26.6526 19.9643 26.6838 18.1057 26.6838C17.7277 26.6838 16.7091 26.6838 16.0476 27.3507C15.5751 27.8299 15.4911 28.4447 15.4491 28.6531C13.244 39.3642 11.7004 47.2203 11.5744 48.1789C11.5429 48.3977 11.4904 48.8979 11.7529 49.3771C11.8264 49.523 11.9839 49.7522 12.4775 50.1273C12.824 50.3774 13.3595 50.7212 14.105 50.9921C14.9766 51.3047 15.6486 51.4819 15.7116 51.4923C21.9173 52.8989 25.5085 53.2948 25.5085 53.2948C28.2281 53.597 30.3177 53.6908 31.9873 53.7637C33.0058 53.8054 34.9799 53.8783 37.8465 53.8679C42.0467 53.8575 45.5643 53.847 50.2055 53.3365C55.0882 52.628 58.7003 51.9403 59.9499 51.5756C60.6009 51.3881 61.4094 51.0651 61.5879 50.9921C62.239 50.7317 62.722 50.492 63.2155 50.1273C63.7195 49.7522 63.8665 49.523 63.94 49.3771C64.2025 48.8874 64.1395 48.3873 64.108 48.1893Z" fill="#535353"/>
<path d="M62.0079 47.3663C61.8504 45.9076 60.5169 40.0623 60.1599 38.3015C59.5613 35.3841 58.9733 32.4562 58.3853 29.5284C58.3328 29.3513 58.1963 28.9866 57.8393 28.6844C57.2932 28.2052 56.6527 28.2156 56.5057 28.226C50.8565 28.226 45.1967 28.2156 39.5475 28.2156C39.012 28.2156 38.487 28.2156 37.9514 28.2156C37.4159 28.2156 36.8909 28.2156 36.3554 28.2156C30.7061 28.2156 25.0464 28.226 19.3972 28.226C19.2502 28.2156 18.5992 28.2052 18.0636 28.6844C17.7171 28.997 17.5701 29.3617 17.5176 29.5284C17.0346 31.1226 15.9005 37.4158 15.743 38.3015C15.7325 38.364 15.2915 40.4687 13.832 47.3454C13.811 47.4809 13.7794 47.7101 13.832 47.9706C13.8845 48.2728 14.0105 48.4916 14.0735 48.5958C14.714 49.6689 16.3311 50.0545 16.6881 50.1378C19.7122 50.8984 20.6047 51.0443 20.6047 51.0443C23.6079 51.534 25.1094 51.7736 25.2039 51.7841C29.6981 52.3571 33.3523 52.4301 36.2609 52.4613C36.8804 52.4717 37.4579 52.4717 37.9724 52.4717C38.487 52.4717 39.0645 52.4717 39.684 52.4613C42.5926 52.4196 46.2468 52.3571 50.741 51.7841C50.8355 51.7736 52.337 51.5236 55.3402 51.0443C55.3402 51.0443 56.2327 50.8984 59.2568 50.1378C60.0129 49.8773 60.5694 49.5439 60.9159 49.2938C61.3779 48.9604 61.8294 48.627 61.9974 48.0539C62.0499 47.7414 62.0184 47.4809 62.0079 47.3663Z" fill="#FFE9D7"/>
<path d="M18.5676 28.3719C31.1471 35.8634 43.7161 43.3444 56.2957 50.8359C57.2092 50.638 57.9757 50.4504 58.5638 50.2941C59.0993 50.1587 59.4038 50.0753 59.8028 49.8982C60.3908 49.6377 60.7688 49.3564 61.0839 49.1272C61.4934 48.825 61.6194 48.6583 61.7139 48.5228C61.9449 48.1686 61.9974 47.8456 62.0079 47.7831C62.0289 47.6059 62.0184 47.4601 62.0079 47.3559C61.3884 44.3343 60.7688 41.3127 60.1598 38.2911C59.5613 35.3737 58.9733 32.4458 58.3852 29.518C58.3537 29.4138 58.3012 29.2783 58.2172 29.1325C58.0702 28.8824 57.9127 28.7365 57.8392 28.674C57.7762 28.6115 57.5347 28.4135 57.1567 28.2989C56.8942 28.2156 56.6737 28.2156 56.5897 28.2156C56.0647 28.2156 40.524 28.2156 19.2712 28.2156C19.2397 28.2156 19.1872 28.2156 19.1241 28.226C18.9771 28.2364 18.8616 28.2677 18.7986 28.2885C18.7356 28.3198 18.6621 28.3406 18.5676 28.3719Z" fill="#F8DEC8"/>
<path d="M26.6215 47.5121C29.8516 47.5121 32.4702 44.9138 32.4702 41.7086C32.4702 38.5034 29.8516 35.905 26.6215 35.905C23.3913 35.905 20.7727 38.5034 20.7727 41.7086C20.7727 44.9138 23.3913 47.5121 26.6215 47.5121Z" fill="white"/>
<path d="M27.0415 47.4913C26.548 47.408 25.834 47.2309 25.0465 46.8454C24.4899 46.5745 23.7129 46.1994 23.0514 45.4283C21.7808 43.9384 21.9173 42.0837 21.9383 41.8024C22.1064 39.9165 23.2719 38.7704 23.5974 38.4682C23.9649 38.1244 25.036 37.2492 26.6635 37.1137C27.9236 37.0095 28.9106 37.4055 29.3726 37.6347C31.0002 38.437 31.6617 39.8436 31.8507 40.2604C32.3547 41.3648 32.3652 42.3755 32.3337 42.9173C32.4702 42.9381 32.5963 42.9485 32.7328 42.9694C32.7748 42.1462 32.8168 41.3335 32.8588 40.5104C32.3652 39.4997 31.8612 38.4787 31.3677 37.468C30.3492 36.8637 29.3201 36.2593 28.3016 35.655C27.178 35.6029 26.065 35.5613 24.9415 35.5092C24.2169 35.8634 23.5029 36.2177 22.7784 36.5719C22.1169 37.395 21.4658 38.2286 20.8043 39.0517C20.6468 39.9165 20.4788 40.7709 20.3213 41.6357C20.5103 42.4901 20.6993 43.3445 20.8883 44.1989C21.4448 44.9699 22.0118 45.7409 22.5684 46.5119C23.1249 46.8037 23.6919 47.0954 24.2484 47.3872C24.868 47.533 25.498 47.6789 26.1175 47.8248C26.4325 47.7102 26.737 47.5955 27.0415 47.4913Z" fill="#EBEBEB"/>
<path d="M26.6108 45.0115C27.0922 45.0115 27.4824 43.57 27.4824 41.7919C27.4824 40.0137 27.0922 38.5723 26.6108 38.5723C26.1295 38.5723 25.7393 40.0137 25.7393 41.7919C25.7393 43.57 26.1295 45.0115 26.6108 45.0115Z" fill="#4E4E4E"/>
<path d="M26.6425 34.5714C22.7993 34.5714 19.6807 37.6659 19.6807 41.4794C19.6807 45.2929 22.7993 48.3874 26.6425 48.3874C30.4856 48.3874 33.6042 45.2929 33.6042 41.4794C33.6042 37.6659 30.4856 34.5714 26.6425 34.5714ZM26.6215 47.5017C23.3978 47.5017 20.7727 44.9073 20.7727 41.6982C20.7727 38.4891 23.3873 35.8947 26.6215 35.8947C29.8451 35.8947 32.4702 38.4891 32.4702 41.6982C32.4702 44.9073 29.8556 47.5017 26.6215 47.5017Z" fill="#4E4E4E"/>
<path d="M49.691 47.5121C52.9212 47.5121 55.5397 44.9138 55.5397 41.7086C55.5397 38.5034 52.9212 35.905 49.691 35.905C46.4608 35.905 43.8423 38.5034 43.8423 41.7086C43.8423 44.9138 46.4608 47.5121 49.691 47.5121Z" fill="white"/>
<path d="M49.2709 47.4913C49.7644 47.408 50.4784 47.2309 51.2659 46.8454C51.8225 46.5745 52.5995 46.1994 53.261 45.4283C54.5316 43.9384 54.3951 42.0837 54.3741 41.8024C54.2061 39.9165 53.0405 38.7704 52.715 38.4682C52.3475 38.1244 51.2764 37.2492 49.6489 37.1137C48.3888 37.0095 47.4018 37.4055 46.9398 37.6347C45.3122 38.437 44.6507 39.8436 44.4617 40.2604C43.9576 41.3648 43.9471 42.3755 43.9786 42.9173C43.8421 42.9381 43.7161 42.9485 43.5796 42.9694C43.5376 42.1462 43.4956 41.3335 43.4536 40.5104C43.9471 39.4997 44.4512 38.4787 44.9447 37.468C45.9632 36.8637 46.9923 36.2593 48.0108 35.655C49.1344 35.6029 50.2474 35.5612 51.371 35.5092C52.0955 35.8634 52.8095 36.2177 53.534 36.5719C54.1956 37.395 54.8466 38.2286 55.5081 39.0517C55.6656 39.9165 55.8336 40.7709 55.9911 41.6357C55.8021 42.4901 55.6131 43.3445 55.4241 44.1989C54.8676 44.9699 54.3006 45.7409 53.7441 46.5119C53.1875 46.8037 52.6205 47.0954 52.064 47.3872C51.4445 47.533 50.8144 47.6789 50.1949 47.8248C49.8904 47.7102 49.5754 47.5955 49.2709 47.4913Z" fill="#EBEBEB"/>
<path d="M49.7016 45.0115C50.1829 45.0115 50.5731 43.57 50.5731 41.7919C50.5731 40.0137 50.1829 38.5723 49.7016 38.5723C49.2203 38.5723 48.8301 40.0137 48.8301 41.7919C48.8301 43.57 49.2203 45.0115 49.7016 45.0115Z" fill="#4E4E4E"/>
<path d="M42.7082 41.4689C42.7082 45.2824 45.8269 48.3769 49.67 48.3769C53.5132 48.3769 56.6318 45.2824 56.6318 41.4689C56.6318 37.6554 53.5132 34.5609 49.67 34.5609C45.8269 34.5609 42.7083 37.6554 42.7082 41.4689ZM43.8423 41.7085C43.8423 38.5098 46.4569 35.905 49.691 35.905C52.9147 35.905 55.5398 38.4994 55.5398 41.7085C55.5398 44.9177 52.9252 47.5121 49.691 47.5121C46.4674 47.5017 43.8423 44.9073 43.8423 41.7085Z" fill="#4E4E4E"/>
<path d="M36.3553 50.3878C36.6859 50.3878 36.9539 50.1219 36.9539 49.7939C36.9539 49.466 36.6859 49.2001 36.3553 49.2001C36.0248 49.2001 35.7568 49.466 35.7568 49.7939C35.7568 50.1219 36.0248 50.3878 36.3553 50.3878Z" fill="#F0B888"/>
<path d="M39.3375 50.3878C39.6681 50.3878 39.936 50.1219 39.936 49.7939C39.936 49.466 39.6681 49.2001 39.3375 49.2001C39.007 49.2001 38.739 49.466 38.739 49.7939C38.739 50.1219 39.007 50.3878 39.3375 50.3878Z" fill="#F0B888"/>
<path d="M36.0615 61.2343C36.6646 61.2343 37.1536 60.7492 37.1536 60.1507C37.1536 59.5523 36.6646 59.0671 36.0615 59.0671C35.4584 59.0671 34.9695 59.5523 34.9695 60.1507C34.9695 60.7492 35.4584 61.2343 36.0615 61.2343Z" fill="#4CA9FF"/>
<path d="M36.009 61.1301C36.5832 61.1301 37.0486 60.6683 37.0486 60.0986C37.0486 59.529 36.5832 59.0671 36.009 59.0671C35.4349 59.0671 34.9695 59.529 34.9695 60.0986C34.9695 60.6683 35.4349 61.1301 36.009 61.1301Z" fill="#4CA9FF"/>
<path d="M38.1615 60.7968C38.4978 60.7968 38.7705 60.5262 38.7705 60.1924C38.7705 59.8587 38.4978 59.5881 38.1615 59.5881C37.8252 59.5881 37.5525 59.8587 37.5525 60.1924C37.5525 60.5262 37.8252 60.7968 38.1615 60.7968Z" fill="#555555"/>
<path d="M38.13 60.7343C38.449 60.7343 38.7075 60.4777 38.7075 60.1612C38.7075 59.8447 38.449 59.5881 38.13 59.5881C37.8111 59.5881 37.5525 59.8447 37.5525 60.1612C37.5525 60.4777 37.8111 60.7343 38.13 60.7343Z" fill="#7F7F7F"/>
<path d="M39.6527 60.7968C39.9891 60.7968 40.2617 60.5262 40.2617 60.1924C40.2617 59.8587 39.9891 59.5881 39.6527 59.5881C39.3164 59.5881 39.0437 59.8587 39.0437 60.1924C39.0437 60.5262 39.3164 60.7968 39.6527 60.7968Z" fill="#555555"/>
<path d="M39.6212 60.7343C39.9402 60.7343 40.1987 60.4777 40.1987 60.1612C40.1987 59.8447 39.9402 59.5881 39.6212 59.5881C39.3023 59.5881 39.0437 59.8447 39.0437 60.1612C39.0437 60.4777 39.3023 60.7343 39.6212 60.7343Z" fill="#7F7F7F"/>
<path d="M31.1893 11.3571C30.8533 11.43 30.3178 11.5967 29.7718 11.9823C29.4358 12.2219 28.5117 12.8783 28.5117 13.7223C28.5117 13.8369 28.5327 14.3891 29.2992 15.0455C31.5148 16.9627 36.8595 17.0877 37.8991 17.0981C38.1721 17.0981 38.3716 17.0981 38.4451 17.0981C39.7682 17.0981 41.6897 17.0773 43.8843 16.473C45.1234 16.1291 45.6694 15.827 45.8164 15.7436C46.5829 15.2956 47.6015 14.6913 47.654 13.7535C47.717 12.597 46.2469 11.753 46.1209 11.6801C45.7744 11.4821 45.4489 11.3884 45.2179 11.3467C40.5347 11.3571 35.862 11.3571 31.1893 11.3571Z" fill="#4CA9FF"/>
<path d="M31.1474 12.0031C31.0529 12.0344 30.9059 12.0865 30.7589 12.1907C30.6749 12.2532 30.4439 12.4303 30.3389 12.7325C30.3389 12.7325 30.2339 13.0346 30.3494 13.3993C30.4754 13.8265 31.2944 14.6497 34.2765 15.1081C35.3686 15.2748 36.3661 15.3373 38.2562 15.3165C42.2254 15.2748 44.1679 14.9727 45.3755 13.9932C45.6485 13.7744 46.1525 13.3472 46.0895 12.8471C46.016 12.3053 45.323 12.0135 45.197 11.9614C40.5033 11.9718 35.8201 11.9927 31.1474 12.0031Z" fill="#2B89E0"/>
<path d="M45.2283 1.06274L31.1892 1.06274L31.1892 13.2847L45.2283 13.2847L45.2283 1.06274Z" fill="#DBDBDB"/>
<path d="M31.1892 13.2845C31.1997 13.3366 31.2312 13.42 31.2837 13.5138C31.3992 13.7117 31.5777 13.8055 31.6722 13.8472C32.2918 14.1598 32.7118 14.264 32.7118 14.264C33.2893 14.4098 33.5833 14.4828 34.0348 14.5661C34.6753 14.6703 35.2529 14.7328 35.7989 14.7745C36.3974 14.8162 36.9434 14.8266 38.0145 14.837C39.7786 14.8578 40.3141 14.837 40.6501 14.8162C41.3011 14.7745 41.7106 14.7224 42.0151 14.6703C42.2042 14.639 42.3827 14.6078 42.5402 14.5765C42.7607 14.5349 43.0127 14.4723 43.4012 14.3681C43.8422 14.2535 44.4722 14.066 44.8398 13.8263C44.9343 13.7638 45.0708 13.6701 45.1443 13.5034C45.1863 13.42 45.2073 13.3366 45.2178 13.2845C40.5451 13.2845 35.8619 13.2845 31.1892 13.2845Z" fill="#E2E2E2"/>
<path d="M44.7769 13.0137C44.7769 9.10642 44.7769 5.19919 44.7769 1.30237C40.4087 5.29296 36.0405 9.29397 31.6829 13.2846C32.0399 13.4304 32.5439 13.6076 33.1529 13.7847C34.518 14.1598 35.589 14.2223 36.7126 14.2744C38.1301 14.3473 39.1696 14.2744 40.2197 14.2119C42.3513 14.066 43.1388 13.8264 43.7583 13.5555C44.1993 13.3679 44.5458 13.1595 44.7769 13.0137Z" fill="#E2E2E2"/>
<path d="M37.1221 5.25122L35.022 5.25122L35.022 7.86652L37.1221 7.86652L37.1221 5.25122Z" fill="#959593"/>
<path d="M41.4062 5.25122L39.3062 5.25122L39.3062 7.86652L41.4062 7.86652L41.4062 5.25122Z" fill="#959593"/>
<path d="M38.613 9.41895L36.429 9.41895L36.429 10.8465L38.613 10.8465L38.613 9.41895Z" fill="#FBFBFF"/>
<path d="M40.0411 9.41895L38.6025 9.41895L38.6025 10.8465L40.0411 10.8465L40.0411 9.41895Z" fill="#CACACF"/>
<path d="M45.2283 0L31.1892 0L31.1892 1.06274L45.2283 1.06274L45.2283 0Z" fill="#BFBFBF"/>
<defs>
<linearGradient id="paint0_linear" x1="2.26836" y1="37.8533" x2="19.906" y2="37.8533" gradientUnits="userSpaceOnUse">
<stop stop-color="#F4F4F4"/>
<stop offset="1" stop-color="#F4F4F4" stop-opacity="0.1"/>
</linearGradient>
</defs>
</svg>
