<svg width="20" height="20" viewBox="0 0 20 20" fill="none" xmlns="http://www.w3.org/2000/svg">
<path fill-rule="evenodd" clip-rule="evenodd" d="M12.3743 4.71501C11.9936 4.71485 11.6176 4.79922 11.2735 4.96203C10.9293 5.12483 10.6256 5.36201 10.3843 5.65644C10.143 5.95088 9.97 6.29522 9.87791 6.66462C9.78582 7.03401 9.7769 7.41925 9.85178 7.79251C9.87756 7.92184 9.87228 8.05545 9.83637 8.18234C9.80046 8.30923 9.73495 8.42579 9.64522 8.52244C9.55549 8.61908 9.44411 8.69305 9.32023 8.73826C9.19634 8.78348 9.0635 8.79864 8.93261 8.78251C7.14072 8.5624 5.45155 7.82581 4.07094 6.66251C4.09678 7.16418 4.27094 7.69751 4.64844 8.25585L5.21428 9.09251L4.28511 9.48835L4.10594 9.56501C4.23928 9.71751 4.39928 9.87335 4.57844 10.0275C4.81796 10.2325 5.07134 10.4207 5.33678 10.5908L5.34594 10.5967H5.34678L6.63678 11.3792L5.28678 12.0542C5.22011 12.0875 5.15344 12.1175 5.08678 12.1442C5.37706 12.3854 5.69685 12.5887 6.03844 12.7492L7.19678 13.2967L6.22678 14.1333C5.69761 14.59 5.16511 14.9308 4.47428 15.1108C5.53381 15.6752 6.71631 15.9692 7.91678 15.9667C11.9218 15.9667 15.1468 12.7708 15.1468 8.85501V8.42168L15.5009 8.17251C16.0543 7.78418 16.4451 7.25918 16.7251 6.65835H14.9251L14.6984 6.18335C14.4897 5.7439 14.1606 5.37268 13.7494 5.11277C13.3381 4.85287 12.8616 4.71494 12.3751 4.71501H12.3743ZM2.97428 10.7983C2.89564 10.8884 2.8373 10.9943 2.80322 11.1089C2.76915 11.2235 2.76013 11.3441 2.77678 11.4625C2.87094 12.13 3.27011 12.705 3.71178 13.1442C3.83178 13.2633 3.96011 13.3775 4.09511 13.4867L4.03261 13.5033C3.63178 13.6033 3.09094 13.6242 2.19011 13.5367C2.01999 13.52 1.84886 13.556 1.69991 13.6399C1.55096 13.7237 1.43139 13.8514 1.35743 14.0055C1.28347 14.1596 1.25869 14.3327 1.28645 14.5014C1.31421 14.67 1.39317 14.8261 1.51261 14.9483C2.34659 15.8008 3.34286 16.4775 4.44263 16.9387C5.5424 17.3998 6.7234 17.636 7.91594 17.6333C12.6768 17.6333 16.5818 13.9367 16.8026 9.27168C17.8776 8.36918 18.4151 7.14668 18.7051 6.03585C18.7374 5.91256 18.7409 5.78351 18.7154 5.65864C18.69 5.53377 18.6363 5.4164 18.5584 5.31555C18.4804 5.2147 18.3804 5.13306 18.266 5.07692C18.1516 5.02077 18.0259 4.99161 17.8984 4.99168H15.9376C15.458 4.24695 14.7571 3.67121 13.9334 3.34537C13.1096 3.01953 12.2045 2.95997 11.3452 3.17505C10.4859 3.39013 9.71561 3.86904 9.14251 4.54449C8.56942 5.21994 8.22236 6.05798 8.15011 6.94085C6.61399 6.54097 5.23955 5.67485 4.21594 4.46168C4.12529 4.3545 4.00904 4.27195 3.87796 4.22171C3.74688 4.17146 3.60524 4.15514 3.46617 4.17425C3.3271 4.19337 3.19512 4.24731 3.08247 4.33107C2.96981 4.41482 2.88014 4.52568 2.82178 4.65335C2.31678 5.75501 2.22011 7.02501 2.78344 8.31668L2.58844 8.40001C2.40184 8.47953 2.25064 8.62437 2.1632 8.80739C2.07575 8.99041 2.05806 9.19905 2.11344 9.39418C2.26844 9.93751 2.61678 10.4175 2.97344 10.7983H2.97428Z" fill="white"/>
</svg>
