<svg width="74" height="99" viewBox="0 0 74 99" fill="none" xmlns="http://www.w3.org/2000/svg">
<path d="M2.08212 75.2275C2.10312 75.1129 2.13462 74.9983 2.13462 74.9983C2.14512 74.9671 2.14512 74.9462 2.14512 74.9462C2.21863 74.6962 2.69114 74.3523 2.82765 74.2585C2.84865 74.2481 2.86965 74.2273 2.88015 74.2273C4.48672 73.1958 6.5133 72.7686 6.5133 72.7686C8.45587 72.3101 9.95743 71.7787 10.9865 71.362C12.3305 70.8202 13.7376 70.195 15.2496 69.5178C16.1632 69.101 16.8457 68.7884 16.8457 68.7884C18.2003 68.1632 18.5993 67.9548 19.6178 67.4964C20.2688 67.2047 19.6493 67.4964 21.6654 66.6837C21.9174 66.5795 22.3059 66.4232 22.8519 66.3607C23.23 66.319 23.5345 66.3399 23.6815 66.3503C23.713 66.3503 23.7445 66.3607 23.755 66.3607C23.7865 66.3607 34.0979 66.2773 50.1215 66.1315C50.195 66.1315 50.3 66.1315 50.426 66.1419C50.426 66.1419 50.6676 66.1627 50.8986 66.2252C53.9857 67.0484 55.7918 67.7986 55.7918 67.7986C58.2594 69.0176 59.5824 69.424 60.9055 69.7991C62.575 70.2784 64.9796 70.7785 66.1452 71.0286C66.1452 71.0286 67.7202 71.362 69.5368 72.3726C70.3558 72.8311 70.6918 73.2791 70.8599 73.7376C70.8809 73.8001 70.8914 73.8418 70.9019 73.873C68.7808 82.3648 66.6702 90.8565 64.5491 99.3587C46.6144 99.3587 28.6902 99.3587 10.7555 99.3587C5.71526 85.501 2.06112 75.3317 2.08212 75.2275Z" fill="#79BFFF"/>
<path d="M65.7358 70.9243C66.1978 71.0806 67.3529 71.5286 67.9094 72.6748C68.0774 73.029 68.1404 73.3312 68.2034 73.6959C68.4554 75.2379 68.0354 76.5403 67.9094 76.9154C66.3238 81.7187 64.5808 84.209 64.5808 84.209C59.9396 90.8044 53.3978 98.4626 52.6523 99.3378C42.0784 99.3378 31.5044 99.3378 20.9305 99.3378C16.9928 95.2222 14.1157 91.7317 12.1731 89.2207C11.2596 88.0433 10.2096 86.47 8.11998 83.3233C8.11998 83.3233 6.71292 81.2082 5.42137 77.8844C5.15886 77.1968 4.91735 76.4361 5.00135 75.4671C5.10636 74.2585 5.68388 73.3624 6.0619 72.8623C6.33491 72.7998 6.72342 72.706 7.17494 72.5914C8.498 72.2476 9.61104 71.8621 10.6086 71.487C12.3727 70.8305 13.7062 70.2054 15.2393 69.4865C16.6568 68.83 18.0744 68.1736 19.4919 67.5172C20.1535 67.2046 20.8465 66.9962 21.5185 66.7149C21.781 66.6003 22.2221 66.4128 22.8416 66.3398C23.2196 66.2981 23.5031 66.319 23.5556 66.319C24.2801 66.3607 33.7935 66.2877 50.4262 66.1106C50.7517 66.1835 51.2032 66.2877 51.7493 66.4232C52.6523 66.6628 54.0593 67.0275 55.6659 67.7047C56.7685 68.1632 56.779 68.2778 58.0285 68.7779C58.417 68.9342 59.0786 69.1843 59.9081 69.4552C60.9056 69.7782 61.6407 69.9553 62.7327 70.2262C63.9508 70.5596 64.9798 70.768 65.7358 70.9243Z" fill="#4CA9FF"/>
<path d="M24.459 67.34C28.8692 67.1733 33.2793 67.0066 37.6895 66.8295C40.9341 67.6526 44.1893 68.4757 47.4339 69.2988C44.0108 77.5509 40.5876 85.7926 37.1645 94.0447C32.9328 85.1466 28.7012 76.2381 24.459 67.34Z" fill="#89BCEC"/>
<path d="M32.701 72.3517C33.205 75.4567 33.7195 78.5721 34.2236 81.677C36.0401 80.0308 37.8672 78.3845 39.6838 76.7383C40.1143 74.9357 40.5448 73.1228 40.9858 71.3202C40.6603 70.5492 40.3348 69.7886 40.0093 69.0176C37.4577 69.4239 34.9061 69.8303 32.3545 70.2366C32.4805 70.9347 32.5855 71.6432 32.701 72.3517Z" fill="#BDCADE"/>
<path d="M6.33485 99.3378C5.82032 98.3584 3.75174 94.3574 2.30268 90.1792C1.50464 87.887 0.874615 85.4593 0.5071 84.0527C0.360094 83.5004 -0.0389229 81.8959 0.00307906 79.8849C0.0135795 79.5411 0.0345805 78.8222 0.276091 77.9365C0.307592 77.8219 0.559603 76.9467 1.23163 75.9881C1.71465 75.29 1.94566 75.2379 2.08217 75.2379C2.53369 75.2379 2.8487 75.8214 2.9012 75.9048C3.16371 76.4361 3.57323 77.2697 4.06675 78.2908C5.01179 80.2704 6.71286 83.8964 10.1255 92.2422C10.85 94.0135 11.8371 96.4412 12.9816 99.3482C10.766 99.3378 8.55044 99.3378 6.33485 99.3378Z" fill="#1C92FF"/>
<path d="M66.8697 99.3379C67.4052 97.8583 67.8462 96.6601 68.1402 95.8578C69.7468 91.4817 71.3009 87.0952 72.9599 82.7399C73.0334 82.5419 73.254 81.9793 73.317 81.2082C73.359 80.729 73.338 80.2913 73.2435 79.7079C73.1699 79.2181 72.9284 77.8741 71.9939 75.7172C71.1854 73.8626 70.8914 73.8001 70.7759 73.8209C70.6288 73.8418 70.5238 74.0397 70.4713 74.2064C69.0328 77.8949 67.6257 81.8021 66.2712 85.9178C64.7381 90.5752 63.436 95.0555 62.3125 99.3379C63.8246 99.3379 65.3471 99.3379 66.8697 99.3379Z" fill="#1C92FF"/>
<path d="M17.0137 68.6851C18.1372 69.8104 19.1243 70.6231 19.8173 71.1649C19.8173 71.1649 21.4764 72.5611 23.7759 74.9992C23.8705 75.093 24.0175 75.2909 24.049 75.5514C24.0805 75.8223 23.965 76.0307 23.8915 76.1558C23.4294 76.958 22.9149 77.4998 22.9149 77.4998C22.5999 77.8333 22.1484 78.3125 21.6024 78.9481C26.7896 83.9807 31.9768 89.0132 37.1745 94.0457C36.0615 91.5034 34.5074 87.9296 32.6068 83.616C30.0867 77.8854 28.9527 75.4264 27.2621 72.2589C26.1385 70.1646 25.1515 68.4663 24.4795 67.3306C24.1015 66.9867 23.7234 66.6429 23.3559 66.2991C23.1984 66.3095 23.0094 66.3199 22.7994 66.3512C22.7679 66.3512 22.5054 66.3928 22.2219 66.4658C21.5814 66.6429 20.9093 66.9659 20.9093 66.9659C20.1428 67.3306 20.3843 67.1535 18.8827 67.8099C18.3157 68.0704 17.6962 68.3517 17.0137 68.6851Z" fill="#1C92FF"/>
<path d="M50.4257 66.1316C50.4992 66.1524 50.6042 66.1733 50.7407 66.2045C50.9192 66.2462 51.3287 66.34 51.8642 66.4858C52.2422 66.59 52.8408 66.7463 53.4183 66.9235C54.0063 67.111 54.8148 67.3923 55.7809 67.8404C54.5628 68.7677 53.2713 69.82 51.9482 71.0078C50.6987 72.1331 49.5856 73.248 48.5881 74.3107C48.5671 74.3316 48.2206 74.6546 48.3046 75.0401C48.3256 75.1547 48.3886 75.2485 48.4411 75.311C48.6616 75.634 48.9241 75.9778 49.2286 76.3425C49.5646 76.728 49.8901 77.0614 50.1946 77.3428C49.5646 78.2701 48.6406 79.6454 47.496 81.2917C47.496 81.2917 45.4379 84.2612 42.0778 88.7519C41.2798 89.8147 40.3137 91.0962 38.7911 92.5862C38.1296 93.2322 37.5521 93.7428 37.1426 94.0762C40.5657 85.8241 43.9889 77.5824 47.412 69.3303C48.4306 68.2467 49.4281 67.1839 50.4257 66.1316Z" fill="#1C92FF"/>
<path d="M37.1639 94.0447C37.1324 85.1675 37.1009 76.2902 37.0589 67.413C35.9563 68.6529 34.8643 69.9032 33.7617 71.1431C34.1502 71.5078 34.5388 71.8724 34.9273 72.2267C34.5703 76.9779 34.2132 81.7395 33.8562 86.4907C34.9588 89.0122 36.0613 91.5337 37.1639 94.0447Z" fill="#79BFFF"/>
<path d="M37.0693 67.413C38.2559 68.5903 39.4529 69.7782 40.6395 70.9555C40.1879 71.4973 39.7364 72.0287 39.2849 72.5705C39.7154 76.9987 40.1459 81.4165 40.566 85.8448C39.4319 88.585 38.2979 91.3149 37.1638 94.0552C37.1323 85.1675 37.1008 76.2902 37.0693 67.413Z" fill="#4CA9FF"/>
<path d="M59.2464 88.3245C58.5534 88.8559 57.8604 89.3873 57.1674 89.9082C55.4873 89.9187 53.7967 89.9187 52.1166 89.9291C51.4761 89.4185 50.8251 88.8976 50.1846 88.387C50.2056 86.4282 50.2266 84.4798 50.2371 82.521C53.2612 82.5105 56.2853 82.5105 59.3094 82.5001C59.2884 84.4381 59.2674 86.3761 59.2464 88.3245Z" fill="#0084FF"/>
<path d="M58.7638 82.7606C58.7638 84.5215 58.7533 86.2927 58.7533 88.0536C58.1758 88.512 57.5982 88.9809 57.0207 89.4393C55.5087 89.4497 53.9966 89.4602 52.4845 89.4706C51.907 89.0017 51.3295 88.5329 50.752 88.064C53.4191 86.3031 56.0967 84.5319 58.7638 82.7606Z" fill="#0F8CFF"/>
<path d="M37.0699 67.4131C35.1904 69.5386 33.3108 71.6642 31.4312 73.7897C28.7326 71.2995 26.034 68.7989 23.3459 66.3087C23.3459 66.2461 23.3459 66.1628 23.3669 66.0794C23.3984 65.9648 23.4404 65.8815 23.4719 65.8189C24.2909 64.5165 25.11 63.2245 25.9185 61.9221C25.9185 61.8492 25.9185 61.7658 25.9185 61.6929C24.984 61.4116 23.6609 60.9739 22.1488 60.3071C19.8492 59.2964 15.019 57.1084 11.0394 52.1904C8.38278 48.9084 6.99672 45.5221 6.25119 42.886C5.72617 42.7505 4.86513 42.4484 4.0356 41.7503C3.83609 41.5731 2.06152 40.0415 2.06152 37.8326C2.06152 35.6966 3.73109 33.6336 6.20919 32.8626C7.01772 29.7576 8.21477 27.4654 9.12831 25.965C13.633 18.6506 20.7208 15.6811 23.5034 14.5662C24.1964 14.2849 26.328 13.4618 29.3416 12.8262C33.1008 12.0343 39.5376 11.2633 47.7279 13.2742C49.408 13.7118 51.7705 14.4516 54.4167 15.7853C61.788 19.4946 65.5576 25.0481 65.5576 25.0481C66.6077 26.5901 68.0777 29.1325 69.0228 32.6854C69.6003 32.8209 70.6923 33.1543 71.7004 34.0712C72.0364 34.3734 73.7269 35.905 73.5694 38.1556C73.4329 40.0832 72.0469 41.271 71.4589 41.7815C70.4928 42.6151 69.4848 42.9798 68.8652 43.1569C68.3507 44.8969 67.7312 46.3869 67.1012 47.6372C67.1012 47.6372 66.3031 49.2001 65.2846 50.6692C62.6595 54.441 57.2833 59.1297 49.9855 61.4949C48.8409 61.87 47.9064 62.0992 47.4234 62.2138C47.4234 62.2764 47.4234 62.3493 47.4234 62.4118C48.4209 63.6621 49.4289 64.9125 50.4265 66.1732C48.0639 68.6843 45.7013 71.1849 43.3387 73.696C41.2491 71.5704 39.1595 69.497 37.0699 67.4131Z" fill="#F9F9F9"/>
<path d="M23.8076 66.2253C24.6791 64.7457 25.5507 63.2662 26.4222 61.7762C27.9343 65.4647 29.4568 69.1427 30.9689 72.8311C28.5853 70.6326 26.1912 68.4238 23.8076 66.2253Z" fill="#ECECEC"/>
<path d="M49.9015 66.1002C47.77 68.3508 45.6384 70.5909 43.5068 72.8415C44.7564 69.4865 46.0164 66.121 47.266 62.766C48.148 63.8704 49.03 64.9853 49.9015 66.1002Z" fill="#ECECEC"/>
<path d="M19.9017 37.895C19.8912 41.0833 9.28579 45.3344 4.61311 41.8856C4.2141 41.5939 2.28202 40.0831 2.27152 37.8846C2.26102 35.5924 4.3611 34.0191 4.71812 33.769C9.4538 30.3828 19.9227 34.7172 19.9017 37.895Z" fill="url(#paint0_linear)"/>
<path d="M67.3948 33.6127C68.4449 33.8211 69.2324 34.1857 69.7469 34.4671C70.6289 34.9568 71.6475 35.5298 72.0885 36.7072C72.393 37.5199 72.267 38.2597 72.2145 38.5098C71.7945 40.552 69.5474 41.448 69.0539 41.646C68.3293 41.9378 67.6888 42.0211 67.2793 42.0524C67.3108 39.2391 67.3528 36.4259 67.3948 33.6127Z" fill="#D5D5D5"/>
<path d="M38.1094 62.3701C38.1304 47.2204 38.1409 32.0707 38.1619 16.921C41.3015 16.0041 44.4411 15.0872 47.5808 14.1703C48.6623 14.5037 50.1534 15.0143 51.8545 15.7853C53.083 16.3479 56.9787 18.1609 60.2338 21.2346C61.4414 22.3807 67.8361 28.4031 67.8046 37.6242C67.7836 43.0214 65.5785 46.9287 64.623 48.5749C61.3364 54.2326 56.6322 56.9208 53.9965 58.3795C47.6018 61.9013 41.4695 62.3806 38.1094 62.3701Z" fill="#DCDCDC"/>
<path d="M27.0625 61.9846C28.1965 62.839 29.1731 63.5163 29.8976 63.9955C31.6932 65.1938 32.8272 65.944 34.4653 66.6004C35.5258 67.0276 36.4394 67.2672 37.0589 67.4131C37.0484 66.0898 37.0484 64.777 37.0379 63.4537C35.9459 63.4642 34.7593 63.4121 33.4888 63.287C31.0212 63.037 28.8581 62.5368 27.0625 61.9846Z" fill="#F2DDCC"/>
<path d="M37.0488 63.4538C38.2039 63.4955 39.4744 63.4851 40.85 63.3809C43.0446 63.2142 44.9766 62.8286 46.5832 62.4119C45.7642 63.0995 45.0501 63.6309 44.5251 63.9956C43.2756 64.8604 41.354 66.1837 38.6239 67.0172C37.9729 67.2152 37.4373 67.3402 37.0698 67.4131C37.0593 66.1003 37.0488 64.7771 37.0488 63.4538Z" fill="#EED5C0"/>
<path d="M64.108 48.1895C63.2995 41.5836 61.5984 35.1132 60.3909 28.5698C60.3594 28.3823 60.2649 27.8509 59.8554 27.4133C59.1518 26.6631 57.9863 26.6839 57.5768 26.6839C55.7392 26.7048 48.2629 26.6735 37.962 26.6839C27.5561 26.6527 19.9643 26.6839 18.1057 26.6839C17.7277 26.6839 16.7091 26.6839 16.0476 27.3508C15.5751 27.8301 15.4911 28.4448 15.4491 28.6532C13.244 39.3643 11.7004 47.2205 11.5744 48.179C11.5429 48.3979 11.4904 48.898 11.7529 49.3773C11.8264 49.5231 11.9839 49.7524 12.4775 50.1275C12.824 50.3775 13.3595 50.7214 14.105 50.9923C14.9766 51.3048 15.6486 51.482 15.7116 51.4924C21.9173 52.899 25.5085 53.2949 25.5085 53.2949C28.2281 53.5971 30.3177 53.6909 31.9873 53.7638C33.0058 53.8055 34.9799 53.8784 37.8465 53.868C42.0467 53.8576 45.5643 53.8472 50.2055 53.3366C55.0882 52.6281 58.7003 51.9404 59.9499 51.5758C60.6009 51.3882 61.4094 51.0652 61.5879 50.9923C62.239 50.7318 62.722 50.4921 63.2155 50.1275C63.7195 49.7524 63.8665 49.5231 63.94 49.3773C64.2026 48.8876 64.1395 48.3874 64.108 48.1895Z" fill="#535353"/>
<path d="M62.0084 47.3663C61.8509 45.9076 60.5174 40.0623 60.1603 38.3015C59.5618 35.3841 58.9738 32.4562 58.3858 29.5284C58.3333 29.3513 58.1968 28.9866 57.8398 28.6844C57.2937 28.2052 56.6532 28.2156 56.5062 28.226C50.857 28.226 45.1972 28.2156 39.548 28.2156C39.0125 28.2156 38.4875 28.2156 37.9519 28.2156C37.4164 28.2156 36.8914 28.2156 36.3559 28.2156C30.7066 28.2156 25.0469 28.226 19.3977 28.226C19.2507 28.2156 18.5996 28.2052 18.0641 28.6844C17.7176 28.997 17.5706 29.3617 17.5181 29.5284C17.0351 31.1226 15.901 37.4158 15.7435 38.3015C15.733 38.364 15.292 40.4687 13.8324 47.3454C13.8114 47.4809 13.7799 47.7101 13.8324 47.9706C13.8849 48.2728 14.0109 48.4916 14.074 48.5958C14.7145 49.6689 16.3315 50.0545 16.6886 50.1378C19.7127 50.8984 20.6052 51.0443 20.6052 51.0443C23.6083 51.534 25.1099 51.7736 25.2044 51.7841C29.6986 52.3571 33.3527 52.4301 36.2614 52.4613C36.8809 52.4717 37.4584 52.4717 37.9729 52.4717C38.4875 52.4717 39.065 52.4717 39.6845 52.4613C42.5931 52.4196 46.2473 52.3571 50.7415 51.7841C50.836 51.7736 52.3375 51.5236 55.3406 51.0443C55.3406 51.0443 56.2332 50.8984 59.2573 50.1378C60.0133 49.8773 60.5699 49.5439 60.9164 49.2938C61.3784 48.9604 61.8299 48.627 61.9979 48.0539C62.0504 47.7414 62.0189 47.4809 62.0084 47.3663Z" fill="#FFE9D7"/>
<path d="M18.5674 28.3719C31.1469 35.8634 43.7159 43.3444 56.2954 50.8359C57.209 50.638 57.9755 50.4504 58.5635 50.2941C59.099 50.1587 59.4035 50.0753 59.8026 49.8982C60.3906 49.6377 60.7686 49.3564 61.0836 49.1272C61.4931 48.825 61.6191 48.6583 61.7136 48.5228C61.9446 48.1686 61.9971 47.8456 62.0076 47.7831C62.0286 47.6059 62.0181 47.4601 62.0076 47.3559C61.3881 44.3343 60.7686 41.3127 60.1596 38.2911C59.561 35.3737 58.973 32.4458 58.385 29.518C58.3535 29.4138 58.301 29.2783 58.217 29.1325C58.07 28.8824 57.9125 28.7365 57.839 28.674C57.776 28.6115 57.5345 28.4135 57.1565 28.2989C56.8939 28.2156 56.6734 28.2156 56.5894 28.2156C56.0644 28.2156 40.5238 28.2156 19.2709 28.2156C19.2394 28.2156 19.1869 28.2156 19.1239 28.226C18.9769 28.2364 18.8614 28.2677 18.7984 28.2885C18.7354 28.3198 18.6619 28.3406 18.5674 28.3719Z" fill="#F8DEC8"/>
<path d="M26.6212 47.5121C29.8514 47.5121 32.47 44.9138 32.47 41.7086C32.47 38.5034 29.8514 35.905 26.6212 35.905C23.391 35.905 20.7725 38.5034 20.7725 41.7086C20.7725 44.9138 23.391 47.5121 26.6212 47.5121Z" fill="white"/>
<path d="M27.0415 47.4913C26.548 47.408 25.834 47.2309 25.0465 46.8454C24.4899 46.5745 23.7129 46.1994 23.0514 45.4283C21.7808 43.9384 21.9173 42.0837 21.9383 41.8024C22.1064 39.9165 23.2719 38.7704 23.5974 38.4682C23.9649 38.1244 25.036 37.2492 26.6635 37.1137C27.9236 37.0095 28.9106 37.4055 29.3726 37.6347C31.0002 38.437 31.6617 39.8436 31.8507 40.2604C32.3547 41.3648 32.3652 42.3755 32.3337 42.9173C32.4702 42.9381 32.5963 42.9485 32.7328 42.9694C32.7748 42.1462 32.8168 41.3335 32.8588 40.5104C32.3652 39.4997 31.8612 38.4787 31.3677 37.468C30.3492 36.8637 29.3201 36.2593 28.3016 35.655C27.178 35.6029 26.065 35.5613 24.9415 35.5092C24.2169 35.8634 23.5029 36.2177 22.7784 36.5719C22.1169 37.395 21.4658 38.2286 20.8043 39.0517C20.6468 39.9165 20.4788 40.7709 20.3213 41.6357C20.5103 42.4901 20.6993 43.3445 20.8883 44.1989C21.4448 44.9699 22.0119 45.7409 22.5684 46.5119C23.1249 46.8037 23.6919 47.0954 24.2484 47.3872C24.868 47.533 25.498 47.6789 26.1175 47.8248C26.4325 47.7102 26.737 47.5955 27.0415 47.4913Z" fill="#EBEBEB"/>
<path d="M26.6108 45.0116C27.0922 45.0116 27.4824 43.5701 27.4824 41.792C27.4824 40.0139 27.0922 38.5724 26.6108 38.5724C26.1295 38.5724 25.7393 40.0139 25.7393 41.792C25.7393 43.5701 26.1295 45.0116 26.6108 45.0116Z" fill="#4E4E4E"/>
<path d="M26.6425 34.5714C22.7993 34.5714 19.6807 37.6659 19.6807 41.4794C19.6807 45.2929 22.7993 48.3874 26.6425 48.3874C30.4856 48.3874 33.6042 45.2929 33.6042 41.4794C33.6042 37.6659 30.4856 34.5714 26.6425 34.5714ZM26.6215 47.5017C23.3978 47.5017 20.7727 44.9073 20.7727 41.6982C20.7727 38.4891 23.3873 35.8947 26.6215 35.8947C29.8451 35.8947 32.4702 38.4891 32.4702 41.6982C32.4702 44.9073 29.8556 47.5017 26.6215 47.5017Z" fill="#4E4E4E"/>
<path d="M49.6905 47.5121C52.9207 47.5121 55.5392 44.9138 55.5392 41.7086C55.5392 38.5034 52.9207 35.905 49.6905 35.905C46.4604 35.905 43.8418 38.5034 43.8418 41.7086C43.8418 44.9138 46.4604 47.5121 49.6905 47.5121Z" fill="white"/>
<path d="M49.2704 47.4912C49.7639 47.4079 50.4779 47.2307 51.2655 46.8452C51.822 46.5743 52.599 46.1992 53.2605 45.4282C54.5311 43.9382 54.3946 42.0836 54.3736 41.8023C54.2056 39.9164 53.04 38.7703 52.7145 38.4681C52.347 38.1243 51.276 37.2491 49.6484 37.1136C48.3883 37.0094 47.4013 37.4053 46.9393 37.6346C45.3117 38.4369 44.6502 39.8435 44.4612 40.2602C43.9571 41.3647 43.9466 42.3754 43.9781 42.9172C43.8416 42.938 43.7156 42.9484 43.5791 42.9693C43.5371 42.1461 43.4951 41.3334 43.4531 40.5103C43.9466 39.4996 44.4507 38.4785 44.9442 37.4679C45.9627 36.8635 46.9918 36.2592 48.0103 35.6549C49.1339 35.6028 50.2469 35.5611 51.3705 35.509C52.095 35.8633 52.809 36.2175 53.5336 36.5718C54.1951 37.3949 54.8461 38.2285 55.5076 39.0516C55.6651 39.9164 55.8332 40.7708 55.9907 41.6356C55.8017 42.49 55.6126 43.3443 55.4236 44.1987C54.8671 44.9698 54.3001 45.7408 53.7436 46.5118C53.187 46.8036 52.62 47.0953 52.0635 47.387C51.444 47.5329 50.8139 47.6788 50.1944 47.8246C49.8899 47.71 49.5749 47.5954 49.2704 47.4912Z" fill="#EBEBEB"/>
<path d="M49.7016 45.0115C50.1829 45.0115 50.5731 43.57 50.5731 41.7919C50.5731 40.0137 50.1829 38.5723 49.7016 38.5723C49.2203 38.5723 48.8301 40.0137 48.8301 41.7919C48.8301 43.57 49.2203 45.0115 49.7016 45.0115Z" fill="#4E4E4E"/>
<path d="M42.708 41.4689C42.708 45.2824 45.8266 48.3769 49.6698 48.3769C53.513 48.3769 56.6316 45.2824 56.6316 41.4689C56.6316 37.6554 53.513 34.5609 49.6698 34.5609C45.8266 34.5609 42.708 37.6554 42.708 41.4689ZM43.8421 41.7085C43.8421 38.5098 46.4567 35.905 49.6908 35.905C52.9144 35.905 55.5395 38.4994 55.5395 41.7085C55.5395 44.9177 52.9249 47.5121 49.6908 47.5121C46.4672 47.5017 43.8421 44.9073 43.8421 41.7085Z" fill="#4E4E4E"/>
<path d="M36.3553 50.3878C36.6859 50.3878 36.9539 50.1219 36.9539 49.7939C36.9539 49.466 36.6859 49.2001 36.3553 49.2001C36.0248 49.2001 35.7568 49.466 35.7568 49.7939C35.7568 50.1219 36.0248 50.3878 36.3553 50.3878Z" fill="#F0B888"/>
<path d="M39.3378 50.3878C39.6683 50.3878 39.9363 50.1219 39.9363 49.7939C39.9363 49.466 39.6683 49.2001 39.3378 49.2001C39.0072 49.2001 38.7393 49.466 38.7393 49.7939C38.7393 50.1219 39.0072 50.3878 39.3378 50.3878Z" fill="#F0B888"/>
<path d="M36.0618 61.2343C36.6649 61.2343 37.1538 60.7492 37.1538 60.1507C37.1538 59.5523 36.6649 59.0671 36.0618 59.0671C35.4586 59.0671 34.9697 59.5523 34.9697 60.1507C34.9697 60.7492 35.4586 61.2343 36.0618 61.2343Z" fill="#4CA9FF"/>
<path d="M36.0093 61.1301C36.5834 61.1301 37.0488 60.6683 37.0488 60.0986C37.0488 59.529 36.5834 59.0671 36.0093 59.0671C35.4351 59.0671 34.9697 59.529 34.9697 60.0986C34.9697 60.6683 35.4351 61.1301 36.0093 61.1301Z" fill="#4CA9FF"/>
<path d="M38.1617 60.7968C38.4981 60.7968 38.7708 60.5262 38.7708 60.1924C38.7708 59.8587 38.4981 59.5881 38.1617 59.5881C37.8254 59.5881 37.5527 59.8587 37.5527 60.1924C37.5527 60.5262 37.8254 60.7968 38.1617 60.7968Z" fill="#555555"/>
<path d="M38.1302 60.7343C38.4492 60.7343 38.7078 60.4777 38.7078 60.1612C38.7078 59.8447 38.4492 59.5881 38.1302 59.5881C37.8113 59.5881 37.5527 59.8447 37.5527 60.1612C37.5527 60.4777 37.8113 60.7343 38.1302 60.7343Z" fill="#7F7F7F"/>
<path d="M39.653 60.7968C39.9893 60.7968 40.262 60.5262 40.262 60.1924C40.262 59.8587 39.9893 59.5881 39.653 59.5881C39.3166 59.5881 39.0439 59.8587 39.0439 60.1924C39.0439 60.5262 39.3166 60.7968 39.653 60.7968Z" fill="#555555"/>
<path d="M39.6215 60.7343C39.9404 60.7343 40.199 60.4777 40.199 60.1612C40.199 59.8447 39.9404 59.5881 39.6215 59.5881C39.3025 59.5881 39.0439 59.8447 39.0439 60.1612C39.0439 60.4777 39.3025 60.7343 39.6215 60.7343Z" fill="#7F7F7F"/>
<path d="M31.1893 11.3571C30.8533 11.43 30.3178 11.5967 29.7718 11.9823C29.4358 12.2219 28.5117 12.8783 28.5117 13.7223C28.5117 13.8369 28.5327 14.3891 29.2992 15.0455C31.5148 16.9627 36.8595 17.0877 37.8991 17.0981C38.1721 17.0981 38.3716 17.0981 38.4451 17.0981C39.7682 17.0981 41.6897 17.0773 43.8843 16.473C45.1234 16.1291 45.6694 15.827 45.8164 15.7436C46.5829 15.2956 47.6015 14.6913 47.654 13.7535C47.717 12.597 46.2469 11.753 46.1209 11.6801C45.7744 11.4821 45.4489 11.3884 45.2179 11.3467C40.5347 11.3571 35.862 11.3571 31.1893 11.3571Z" fill="#4CA9FF"/>
<path d="M31.1472 12.0031C31.0527 12.0344 30.9057 12.0865 30.7586 12.1907C30.6746 12.2532 30.4436 12.4303 30.3386 12.7325C30.3386 12.7325 30.2336 13.0346 30.3491 13.3993C30.4751 13.8265 31.2942 14.6497 34.2763 15.1081C35.3683 15.2748 36.3659 15.3373 38.2559 15.3165C42.2251 15.2748 44.1677 14.9727 45.3752 13.9932C45.6483 13.7744 46.1523 13.3472 46.0893 12.8471C46.0158 12.3053 45.3227 12.0135 45.1967 11.9614C40.503 11.9718 35.8199 11.9927 31.1472 12.0031Z" fill="#2B89E0"/>
<path d="M45.2285 1.06274L31.1895 1.06274L31.1895 13.2847L45.2285 13.2847L45.2285 1.06274Z" fill="#DBDBDB"/>
<path d="M31.1895 13.2847C31.2 13.3368 31.2315 13.4201 31.284 13.5139C31.3995 13.7119 31.578 13.8056 31.6725 13.8473C32.292 14.1599 32.712 14.2641 32.712 14.2641C33.2895 14.4099 33.5835 14.4829 34.0351 14.5662C34.6756 14.6704 35.2531 14.7329 35.7991 14.7746C36.3977 14.8163 36.9437 14.8267 38.0147 14.8371C39.7788 14.858 40.3143 14.8371 40.6503 14.8163C41.3014 14.7746 41.7109 14.7225 42.0154 14.6704C42.2044 14.6392 42.3829 14.6079 42.5404 14.5767C42.7609 14.535 43.0129 14.4725 43.4014 14.3683C43.8425 14.2537 44.4725 14.0661 44.84 13.8265C44.9345 13.764 45.071 13.6702 45.1445 13.5035C45.1865 13.4201 45.2075 13.3368 45.218 13.2847C40.5453 13.2847 35.8621 13.2847 31.1895 13.2847Z" fill="#E2E2E2"/>
<path d="M44.7766 13.0137C44.7766 9.10642 44.7766 5.19919 44.7766 1.30237C40.4084 5.29296 36.0403 9.29397 31.6826 13.2846C32.0396 13.4304 32.5436 13.6076 33.1527 13.7847C34.5177 14.1598 35.5888 14.2223 36.7123 14.2744C38.1299 14.3473 39.1694 14.2744 40.2194 14.2119C42.351 14.066 43.1385 13.8264 43.7581 13.5555C44.1991 13.3679 44.5456 13.1595 44.7766 13.0137Z" fill="#E2E2E2"/>
<path d="M37.1226 5.25122L35.0225 5.25122L35.0225 7.86652L37.1226 7.86652L37.1226 5.25122Z" fill="#959593"/>
<path d="M41.4067 5.25122L39.3066 5.25122L39.3066 7.86652L41.4067 7.86652L41.4067 5.25122Z" fill="#959593"/>
<path d="M38.6128 9.41895L36.4287 9.41895L36.4287 10.8465L38.6128 10.8465L38.6128 9.41895Z" fill="#FBFBFF"/>
<path d="M40.0411 9.41895L38.6025 9.41895L38.6025 10.8465L40.0411 10.8465L40.0411 9.41895Z" fill="#CACACF"/>
<path d="M45.2285 0L31.1895 0L31.1895 1.06274L45.2285 1.06274L45.2285 0Z" fill="#BFBFBF"/>
<defs>
<linearGradient id="paint0_linear" x1="2.2686" y1="37.8533" x2="19.9062" y2="37.8533" gradientUnits="userSpaceOnUse">
<stop stop-color="#F4F4F4"/>
<stop offset="1" stop-color="#F4F4F4" stop-opacity="0.1"/>
</linearGradient>
</defs>
</svg>
