<svg version="1" xmlns="http://www.w3.org/2000/svg" width="2666.667" height="2666.667" viewBox="0 0 2000.000000 2000.000000"><path d="M0 1000v1000h2000V0H0v1000zm1144.8-483c6.7 3 13.8 10.3 16.2 16.8 6.1 16.3-1.7 34.2-17.7 40.2-14 5.2-30.6-.7-37.4-13.4l-2.4-4.6H994.4l-14.2 15.5-14.3 15.5H1187l1.9-3.8c2.7-5.2 8.7-10.7 14.6-13.4 7.5-3.4 18.1-3.2 25.7.5 11.1 5.5 17.3 15.3 17.3 27.7 0 12.4-6.2 22.2-17.3 27.7-14.3 7-33.1 1-40.3-13l-1.9-3.7-120.8.1H945.5l-12 13.1c-6.6 7.2-12.1 13.5-12.3 14-.2.4 78 .8 173.7.8H1269l1.9-3.8c6.5-12.6 22.6-19 36.7-14.6 8.1 2.5 16.3 10.5 19.4 18.9 5.4 14.6-1.5 31.2-15.8 38.2-4.8 2.3-7 2.8-13.2 2.7-11.7 0-20.9-5.3-26.6-15l-2.6-4.4H1000V769.3l7.7-8.4c4.3-4.6 9.8-10.5 12.3-13.1l4.5-4.7 7.9 7.4 7.8 7.4-2.3 2.9c-5.4 6.7-153.3 167.2-154.1 167.2-.4 0-.8-63.8-.8-141.8V644.5l50.7-55.3 50.7-55.2h59.8c32.9 0 59.8-.4 59.8-.8 0-2.1 6.4-10.2 10.1-12.7 9.6-6.7 20.6-7.9 30.7-3.5zm383.1 82.7l-.1 66.8-74.6 72.6c-64.9 63-74.7 72.2-74.9 70-.1-1.4-.4-39.6-.5-84.9l-.3-82.2h26.5v-47.8l-4.4-2.6c-9-5.3-14.6-15.1-14.6-25.7 0-8.9 2.3-14.9 8.1-21.3 6.4-7 12.9-9.9 22.4-9.9 21.3 0 35.9 20.6 29 41.2-1.9 5.9-8.3 13.4-13.6 16.2l-3.9 1.9v48h28V533h73l-.1 66.7zm-791.6-19.2c41.6 44.1 43.9 46.4 46.3 45.5 3.9-1.5 11.6-1.2 17.5.7 7.6 2.4 16.8 11.6 19.2 19.2 4.8 15.1-1.9 30.8-16.2 37.8-8 3.9-18.2 3.9-26.3 0-14-6.8-20.9-22.7-16.1-37l2-5.8-40-42.4-40.1-42.5h-35.8l3.9 4.3c2.1 2.4 36 38.5 75.4 80.3l71.7 75.9h10.3c11.8 0 15.9 1.5 22.7 8.3 6.1 6.1 8.6 12.3 8.6 21.7 0 9.4-2.5 15.6-8.6 21.7-5.9 5.9-11.1 8.1-20.6 8.6-7.7.4-8.7.3-14.8-2.8-13.9-6.8-20.3-21.7-15.9-36.8.9-2.9 1.2-5.8.8-6.5-.4-.8-37.6-40.4-82.6-88L615.8 556h-36l9.9 10.5C706.6 691.3 825.8 816.8 827 816.3c.8-.2 4-1 7.1-1.5 4.8-.9 6.5-.8 12.6 1 8.7 2.7 15.1 8 19 16 3.8 7.7 4 19.2.4 26.4-5.1 10.4-14.9 17-26.3 17.6-9.1.6-15.4-1.7-22.2-7.9-8.8-8-12.6-20.6-9.3-31l1.4-4.7-95.6-101.5c-52.6-55.9-96.1-101.5-96.8-101.4-.7.1-13.1 12.8-27.7 28.2l-26.5 28v146l128 135.5L819 1102.5v199.4l-50.6 53.6-50.6 53.5-65.2-.1h-65.1L497 1354l-90.5-54.8-.3-79.9-.2-79.8-4.5-2.4c-5.2-2.7-9.5-7.2-12.7-13.4-1.9-3.5-2.3-5.8-2.3-13.2 0-7.8.4-9.7 2.7-14.1 9.8-18.6 34.5-22.5 49.1-7.6 6.4 6.5 9.1 12.9 9.1 21.7 0 5-.6 8.4-2.1 11.7-2.6 5.6-8.9 12.7-13.8 15.4l-3.5 1.9V1285h31v-96l-3.7-1.9c-16.2-8.4-20.9-30.9-9.6-45.8 6-7.9 18.2-13.1 27.7-11.9 28.9 3.7 37.6 41.2 13.1 56.7l-5.4 3.4-.1 47.7v47.8h34v-48l-2.5-1c-4-1.5-11.5-9-14.3-14.5-2.2-4.2-2.7-6.3-2.7-13s.4-8.9 2.8-13.7c5.5-11.1 15.2-17.2 27.7-17.2s22.2 6.1 27.7 17.2c3.7 7.6 3.9 18.1.4 25.9-2.4 5.5-10.2 13.6-14.6 15.3l-2.5 1v48h169v-36.8l-149.7-158.7c-141.4-150-149.8-158.6-152.2-157.8-1.4.4-5.7.8-9.6.8-8.3-.1-14.2-2.4-20.3-8-13-11.7-13-33.3 0-45 6.3-5.8 12-8 20.8-8 12.4 0 22.1 6 27.7 17 3.3 6.4 4.1 16.1 2 22.4-1.6 4.4-1.5 4.5 1.1 7.6 1.5 1.8 65 69.3 141.2 150l138.5 146.8.3-18.1.2-18.2-159.2-168.7-159.2-168.8-8.6.3c-7.7.3-9.1 0-14.5-2.6-26.9-12.9-21.9-52 7.4-58.1 14.1-3 30.1 6.3 34.7 20.1 2 6 1.6 17.8-.7 22.4l-1.6 3.2 162.3 172.1L729 1171v114h22v-130L559.4 951.7C454 840 365.9 746.6 363.6 744.3l-4.1-4.3-5 1.6c-10.3 3.2-22.8-.7-30.8-9.6-14.1-15.7-7.8-41.5 12-49 23-8.7 47.2 12.5 41 35.9l-1.5 5.4 20.7 21.9 20.6 21.8.5-48.4.5-48.4 64.8-68.6 64.8-68.6h145.4l43.8 46.5zm332.9 214.8l7.6 7.2-22.9 24.9-22.9 24.9V907h187.7l3.2-5c8.8-13.5 25.3-18.1 39.7-11 22.8 11.2 22.9 43.1.2 55.2-3.6 1.9-5.8 2.3-13.8 2.3s-10.2-.4-13.8-2.3c-5.3-2.8-11.4-8.9-13.3-13l-1.4-3.2H1031v28h124.5l2-3.6c5.9-11 20.8-17.2 33.4-14 14.8 3.8 23.6 15.1 23.6 30.1-.1 9.4-3 16-10.1 22.4-6.2 5.7-12.3 8.1-20.6 8.1-10.9 0-20.8-5.6-26.3-14.9l-3-5.1H1031v30h63.8l3.2-4.9c5.7-8.9 15.2-14.1 25.8-14.1 8.3 0 14.4 2.4 20.6 8.1 18.5 16.9 11 46.2-13.4 52.5-13.2 3.4-27.7-3-34.1-15l-2.4-4.6H1031v232.5l24 24 24 24 94.1-94c89.6-89.6 94-94.1 93.5-97-1.9-10.1-1.8-15 .4-20.9 2.9-7.6 9.4-14.6 16.3-17.7 7.2-3.2 18.2-3.3 25.2-.1 6.5 3 12.8 9.2 15.7 15.6 3.4 7.7 3.2 18.2-.5 25.8-6.6 13.4-22.4 20.7-35.8 16.5l-4.7-1.4-123.3 123.3-123.4 123.4h47l81.8-81.8 81.9-81.9-1.1-3.9c-2.8-10.2-.2-20.9 7.1-28.9 6.5-7.1 12.9-9.9 22.8-9.9 8.8-.1 14.4 2.1 20.8 7.9 9.7 8.7 12.6 24 6.9 35.7-6.8 13.8-23.6 21.2-37.2 16.3l-4-1.5-74 74-74 74h36l39.8-39.8 39.7-39.7-1-3.5c-1.5-5.3-1.2-14 .7-19.6 2.4-7 11-15.5 18.3-17.9 11.7-3.9 23.3-1.5 31.8 6.8 13.5 13.1 12.9 33-1.3 45.5-2.6 2.2-6.7 4.8-9.2 5.6-5.4 1.8-14.1 2.1-19.7.5l-3.9-1.1-42.6 42.6-42.6 42.6h-146l-65.3-65.3-65.2-65.2v-299l87.8-95.7c48.2-52.6 88.2-95.7 88.7-95.7.6 0 4.5 3.2 8.7 7.2zm457.1 5.1c9.7 3.5 16.6 11.4 19.4 22 1.9 7.1 1.2 13.9-2.3 21.1-2.1 4.6-9.3 11.8-13.3 13.5l-3.1 1.2v409.4l4.3 4.1 4.2 4.2 30.1-28.4 30.1-28.4.5-5.5c.6-7.4 4.8-14.1 11.2-18.1 4.3-2.6 5.9-3 12.1-3 6.2 0 7.8.4 12.1 3 20 12.4 11.6 43.5-11.9 43.5-3 0-6.7-.4-8.1-.9-2.3-.9-4.5.9-30.8 25.6-15.6 14.6-28.6 26.8-29 27.2-.4.4 5.2 6.6 12.5 13.8l13.2 13.2 29.8-28 29.7-28v-5.3c0-16 16-27.4 31.1-22.1 6.3 2.3 10.4 5.8 13.3 11.7 4.4 8.9 3.2 18.9-3.2 26-6 6.7-14.8 9.4-23.8 7.4-2.9-.7-6 2.1-73.3 65.4l-70.3 66-65.9-65.2-65.9-65.1V937.5l-4.6-2.5c-2.6-1.3-6.4-4.6-8.5-7.3-12.4-15.6-7.3-38 10.5-46.7 6.1-3.1 7.1-3.2 14.8-2.8 12.7.7 21.4 6.3 26.8 17.3 3.5 7.1 3.5 18.9 0 26-2.8 5.7-9.4 12.6-13.9 14.5l-3.1 1.2V1270.5l33.9 33.9 33.9 33.9 9.1-8.3c5-4.6 9.1-8.6 9.1-8.9 0-.4-10.6-11.2-23.5-24.1l-23.5-23.5v-189l-.1-189-4.4-2.7c-12.4-7.5-16.9-25.2-10-39.3 3.1-6.4 7.9-10.9 15.3-14.3 4.7-2.1 6.4-2.4 13.6-2 9.3.5 14.4 2.7 20.2 8.5 15 14.9 10.8 39.8-8.3 49.7l-3.3 1.7v368.4l19.7 19.7c10.9 10.9 20.2 19.8 20.8 19.8.5-.1 4.3-3.1 8.3-6.8l7.3-6.7-7.1-7.7-7-7.6V858.5l-4.6-2.5c-9.7-5.1-16.2-17.5-15.1-29 1-11.4 6.8-19.9 16.9-25 5.1-2.5 7.3-3 13.2-3 3.9.1 8.8.7 10.9 1.4z"/><path d="M1123.8 530c-2.2 1.2-4.8 3.8-6.4 6.5-9.2 15.8 9.6 33.3 24.8 23.2 4-2.7 7.8-9.8 7.8-14.6 0-12.8-14.6-21.2-26.2-15.1zM1212.5 581c-4.4 1-6.9 2.6-9.9 6-9.4 11.3-1.4 28.2 13.4 28.2 10 0 17-7 17-17.2 0-5.5-1-8.1-4.4-11.8-3.9-4.4-10.5-6.5-16.1-5.2zM1292.7 631.5c-7.7 2.7-11.7 8.4-11.7 16.8 0 6.2 2.5 10.8 7.9 14.4 4 2.7 12.6 3.1 16.9.9 8.8-4.6 12.2-15.8 7.3-24.2-2.5-4.2-4.9-6.3-9.6-8.1-4-1.5-6.2-1.5-10.8.2zM905 765.5c0 58.6.2 106.5.4 106.5s5.8-5.9 12.5-13.1l12.1-13.2V659h-25v106.5zM952 740.2l.1 81.3 6-6.5c3.3-3.6 8.9-9.7 12.5-13.6l6.4-7.1V659h-25v81.2zM1407.5 549.9c-9.1 5.6-12 15.1-7.2 23.6 5.7 10 17.9 12.2 26.8 4.8 12.1-10.2 4.3-30.3-11.7-30.3-3 0-6 .7-7.9 1.9zM1478 619.2v64.2l5.3-4.9c2.8-2.8 9.1-8.8 14-13.5l8.7-8.5V555h-28v64.2zM1400 711.7v47.6l8.3-7.8c4.5-4.4 16.9-16.4 27.5-26.8l19.2-18.8V664h-55v47.7zM495.6 620.7l-56.5 59.8v55.7l-.1 55.7 18.8 19.8 18.7 19.9.3-76.2.2-76.1 45.8-48.5c25.1-26.6 46.3-49.1 47-50.1 1.2-1.4.3-2.7-7.4-10.7-4.8-4.9-9-9-9.5-9-.4 0-26.2 26.9-57.3 59.7z"/><path d="M542.7 642.2L499 688.4v167.1l137.5 145.7L774 1147v138h23v-173.5L669 976 541.1 840.5v-82l-.1-82 30.7-32.3 30.6-32.4-8-8-7.9-7.9-43.7 46.3zM784 639.6c-7.5 3.2-11 8.6-11 16.7 0 9.7 7 16.7 16.7 16.7 6.2 0 10-1.7 13.7-6 5.8-6.9 5.3-17.2-1-23.6-5.2-5.1-12.1-6.6-18.4-3.8zM341.3 695.1c-4.4 1.3-10 7-11.4 11.8-3.2 10.6 5.3 22.1 16.3 22.1 9.8 0 16.7-5.9 17.6-15 .2-2.7.2-6-.2-7.4-.9-3.7-5.6-8.7-10.1-10.7-4.4-2-7.3-2.2-12.2-.8zM800.7 731.1c-5.5 2.9-9 8.7-9 15.2 0 7.8 2.9 12.5 10 16.1 6.7 3.4 16.9.8 21.4-5.5 2-2.8 2.4-4.6 2.4-10.4 0-5.8-.4-7.6-2.4-10.4-4.7-6.6-15-8.9-22.4-5zM370.5 795.4c-7.1 3.1-11.4 11.4-10.2 19.3 1.8 10.9 14.6 17.4 24.5 12.4 10.6-5.4 13.4-18.2 5.9-26.8-5.3-6-13.3-7.9-20.2-4.9zM830.5 829.6c-6.8 3.5-9.5 7.9-9.5 15.5 0 10.4 6.9 17.4 17 17.4 15.2 0 23.1-16.9 13.3-28.6-4.8-5.7-14.4-7.7-20.8-4.3zM385.9 887.3c-5.4 3.6-7.9 8.2-7.9 14.4 0 6.2 1.7 10 6 13.7 9.7 8.1 24.5 3.4 28-8.9 2.1-7.4-2-16.4-9.1-20-4.4-2.3-13-1.9-17 .8zM409.5 1094.4c-6.5 2.8-11.4 12-10.1 18.8 2.5 13.3 18.3 19.3 28.2 10.6 4.7-4.1 6.4-7.7 6.4-13.4 0-12.4-13.1-21-24.5-16zM462.1 1144.7c-1.8.9-4.7 3.5-6.2 5.6-2.3 3.2-2.9 5-2.9 9.4 0 6.3 1.6 9.9 6.4 14 14.6 12.9 36.1-6.8 25.2-23-5-7.3-14.5-9.9-22.5-6zM518.5 1192.2c-9.3 5.1-12.5 15.7-7.5 24.6 3.4 6 8.1 8.7 15.1 8.7 10.1 0 16.9-7.2 16.9-17.7 0-9.9-7-16.8-16.9-16.8-3.1 0-6.5.6-7.6 1.2zM472 1312.8c5.2 3.2 16 9.7 24 14.5l14.6 8.7H756l9.8-10.3c5.4-5.6 11.6-12.1 13.6-14.5l3.8-4.2H462.6l9.4 5.8zM548.6 1358.9c.5.5 11.1 7 23.5 14.5l22.6 13.6h112.8l8.5-8.8c4.7-4.8 11-11.3 14-14.5l5.4-5.7h-93.9c-56.1 0-93.5.4-92.9.9zM986.8 900.4L966 923.1v342.4l39.8 39.8c21.8 21.8 40.1 39.7 40.7 39.7.5 0 4.5-3.5 8.7-7.7l7.8-7.8-27.2-27.2-27.3-27.3-.5-198.6-.5-198.6-20.7 22.6zM1239.7 903.1c-8.8 4.7-11.8 16.6-6.3 25 6.8 10.2 22.4 10.3 29.1.1 3.7-5.6 3.7-13.8.1-19.3-4.9-7.4-15-10-22.9-5.8z"/><path d="M925.3 967.5L907 987.4v282.1l54 54 54 54 7.5-7.5c4.1-4.1 7.5-7.9 7.5-8.5 0-.5-19.3-20.4-43-44l-43-43-.2-163.5-.3-163.4-18.2 19.9zM1176.5 954.4c-6.5 2.8-11.4 12.1-10 18.9 1.7 7.9 9.7 14.7 17.5 14.7 13.2 0 21.9-16.4 14.5-27.3-4.7-6.8-14.5-9.6-22-6.3zM1116.2 1007.1c-6.1 3-9.5 8.4-9.5 15.2-.1 9.7 6.1 16.7 15.7 17.5 6.8.5 11.8-1.7 15.7-7.1 6-8.3 2.8-21.2-6.4-25.6-5.5-2.7-10.1-2.7-15.5 0zM1290.5 1095.5c-8.3 2.9-13.7 12.4-11.5 20.5 1.2 4.6 5.1 9.5 9.1 11.5 4.4 2.3 13 1.9 17-.8 5.4-3.6 7.9-8.2 7.9-14.4 0-5.8-.9-8.3-4.4-12.1-4.5-5-11.8-6.9-18.1-4.7zM1267.5 1195.9c-14.4 8.9-11 29.4 5.4 32.5 6.8 1.2 15.3-3.1 18.6-9.5.8-1.5 1.5-5.2 1.5-8.2 0-6.2-2.5-10.8-7.9-14.4-4.4-3-13.2-3.2-17.6-.4zM1251.1 1279.8c-8.9 4.5-12.3 14.6-7.9 23.2 5.3 10.4 18 13.1 26.5 5.7 4.3-3.8 6.3-8.1 6.3-13.8 0-12.2-14-20.7-24.9-15.1zM1507.5 814.3c-12.4 7-12.1 24.3.6 30.7 7.3 3.8 17.3 1.4 22-5.1 2-2.8 2.4-4.6 2.4-10.4 0-5.8-.4-7.6-2.4-10.4-4.8-6.7-15.2-9-22.6-4.8zM1444.5 852.3c-12.4 7-12.1 24.3.6 30.7 7.3 3.8 17.3 1.4 22-5.1 3.4-4.9 3.8-14 .7-19.3-4.6-7.9-15.4-10.8-23.3-6.3zM1381.7 893.1c-12.1 6.4-12 24.6.3 30.9 7.6 3.9 17.1 1.6 22.1-5.3 2.5-3.4 2.9-4.9 2.9-10.2 0-5.3-.4-6.8-2.9-10.2-5-6.9-14.8-9.2-22.4-5.2zM1616.2 1206.2c-7.4 2-9.2 11.7-3.2 17 8.2 7.4 20.7-2.2 15.6-12-.9-1.7-2.1-3.4-2.6-3.7-2.5-1.6-6.7-2.1-9.8-1.3zM1654.7 1248.1c-2.9 1.7-4.9 6.8-4.3 10.5.9 4.3 5.7 8.4 10.1 8.4 4.4 0 9.2-4.1 10.1-8.4.7-3.8-1.5-8.9-4.5-10.6-2.5-1.3-9.1-1.3-11.4.1zM1527.3 1314.1c-4 3.9-7.3 7.5-7.3 7.9 0 .4 5.8 6.3 13 13l13 12.2 7.5-6.8c4.1-3.7 7.5-6.8 7.5-6.8 0-.1-6-6.1-13.2-13.3l-13.3-13.2-7.2 7zM1493.6 1345.6l-8.9 8.6 12.9 12.9c7.1 7.1 13.1 12.9 13.4 12.9.3-.1 4.6-3.9 9.5-8.5l9-8.4-13-13.1c-7.1-7.1-13.2-13-13.5-13-.3.1-4.5 3.9-9.4 8.6z"/></svg>