<svg xmlns="http://www.w3.org/2000/svg" width="1920.001" height="1051.504" viewBox="0 0 1920.001 1051.504">
  <path id="solid-bg" d="M1213,1051.5h0V0c73.656,10.185,150.255,19.308,227.672,27.114,78.332,7.9,159.183,14.612,240.309,19.962,82.331,5.431,166.845,9.579,251.194,12.33,85.76,2.8,173.346,4.217,260.325,4.217,83.19,0,166.983-1.3,249.053-3.859,80.777-2.52,161.795-6.32,240.8-11.3,77.894-4.906,155.614-11.066,231-18.31,74.5-7.158,148.4-15.535,219.642-24.9v1046.11c-72.432-9.76-147.651-18.5-223.571-25.964-76.807-7.556-156.054-13.984-235.539-19.1-80.63-5.194-163.349-9.162-245.859-11.794-83.882-2.675-169.519-4.031-254.531-4.031-85.1,0-170.829,1.36-254.81,4.041-82.612,2.638-165.423,6.616-246.132,11.822-79.563,5.132-158.893,11.574-235.786,19.147-75.982,7.484-151.27,16.238-223.773,26.018Z" transform="translate(-1212.999 0)" fill="#f85e57" opacity="0.882"/>
</svg>
