<svg xmlns="http://www.w3.org/2000/svg" width="1379" height="433" viewBox="0 0 1379 433">
  <g id="statistics-background" transform="translate(-211 -3285)">
    <path id="dots" d="M192,255a5,5,0,1,1,5,5A5,5,0,0,1,192,255Zm-48,0a5,5,0,1,1,5,5A5,5,0,0,1,144,255Zm-48,0a5,5,0,1,1,5,5A5,5,0,0,1,96,255Zm-48,0a5,5,0,1,1,5,5A5,5,0,0,1,48,255ZM0,255a5,5,0,1,1,5,5A5,5,0,0,1,0,255Zm192-50a5,5,0,1,1,5,5A5,5,0,0,1,192,205Zm-48,0a5,5,0,1,1,5,5A5,5,0,0,1,144,205Zm-48,0a5,5,0,1,1,5,5A5,5,0,0,1,96,205Zm-48,0a5,5,0,1,1,5,5A5,5,0,0,1,48,205ZM0,205a5,5,0,1,1,5,5A5,5,0,0,1,0,205Zm192-50a5,5,0,1,1,5,5A5,5,0,0,1,192,155Zm-48,0a5,5,0,1,1,5,5A5,5,0,0,1,144,155Zm-48,0a5,5,0,1,1,5,5A5,5,0,0,1,96,155Zm-48,0a5,5,0,1,1,5,5A5,5,0,0,1,48,155ZM0,155a5,5,0,1,1,5,5A5,5,0,0,1,0,155Zm192-50a5,5,0,1,1,5,5A5,5,0,0,1,192,105Zm-48,0a5,5,0,1,1,5,5A5,5,0,0,1,144,105Zm-48,0a5,5,0,1,1,5,5A5,5,0,0,1,96,105Zm-48,0a5,5,0,1,1,5,5A5,5,0,0,1,48,105ZM0,105a5,5,0,1,1,5,5A5,5,0,0,1,0,105ZM192,55a5,5,0,1,1,5,5A5,5,0,0,1,192,55Zm-48,0a5,5,0,1,1,5,5A5,5,0,0,1,144,55ZM96,55a5,5,0,1,1,5,5A5,5,0,0,1,96,55ZM48,55a5,5,0,1,1,5,5A5,5,0,0,1,48,55ZM0,55a5,5,0,1,1,5,5A5,5,0,0,1,0,55ZM192,5a5,5,0,1,1,5,5A5,5,0,0,1,192,5ZM144,5a5,5,0,1,1,5,5A5,5,0,0,1,144,5ZM96,5a5,5,0,1,1,5,5A5,5,0,0,1,96,5ZM48,5a5,5,0,1,1,5,5A5,5,0,0,1,48,5ZM0,5a5,5,0,1,1,5,5A5,5,0,0,1,0,5Z" transform="translate(1350 3458)" fill="#f8706a"/>
    <g id="Ellipse" transform="translate(211 3285)" fill="none" stroke="#ffba49" stroke-width="9">
      <circle cx="174" cy="174" r="174" stroke="none"/>
      <circle cx="174" cy="174" r="169.5" fill="none"/>
    </g>
    <g id="Ellipse-2" data-name="Ellipse" transform="translate(785 3611)" fill="none" stroke="#ffba49" stroke-width="9">
      <circle cx="53" cy="53" r="53" stroke="none"/>
      <circle cx="53" cy="53" r="48.5" fill="none"/>
    </g>
    <g id="Ellipse-3" data-name="Ellipse" transform="translate(1417 3345)" fill="none" stroke="#ffba49" stroke-width="9">
      <circle cx="86.5" cy="86.5" r="86.5" stroke="none"/>
      <circle cx="86.5" cy="86.5" r="82" fill="none"/>
    </g>
  </g>
</svg>
