<svg width="353" height="476" viewBox="0 0 353 476" fill="none" xmlns="http://www.w3.org/2000/svg">
<path d="M9.98237 360.666C10.0831 360.117 10.2341 359.567 10.2341 359.567C10.2844 359.417 10.2844 359.317 10.2844 359.317C10.6368 358.118 12.9022 356.47 13.5567 356.02C13.6574 355.971 13.758 355.871 13.8084 355.871C21.5108 350.925 31.2269 348.877 31.2269 348.877C40.5402 346.679 47.7392 344.131 52.6728 342.133C59.1166 339.536 65.8625 336.539 73.1118 333.292C77.4916 331.293 80.7639 329.795 80.7639 329.795C87.258 326.798 89.171 325.798 94.0543 323.601C97.1755 322.202 94.2053 323.601 103.871 319.704C105.079 319.205 106.942 318.455 109.56 318.156C111.372 317.956 112.832 318.056 113.537 318.106C113.688 318.106 113.839 318.156 113.889 318.156C114.04 318.156 163.477 317.756 240.299 317.057C240.651 317.057 241.155 317.057 241.759 317.107C241.759 317.107 242.917 317.206 244.024 317.506C258.825 321.452 267.484 325.049 267.484 325.049C279.315 330.894 285.658 332.842 292.001 334.64C300.005 336.938 311.534 339.336 317.122 340.535C317.122 340.535 324.673 342.133 333.382 346.979C337.309 349.177 338.92 351.325 339.725 353.523C339.826 353.822 339.876 354.022 339.927 354.172C329.758 394.884 319.639 435.597 309.47 476.359C223.485 476.359 137.55 476.359 51.5652 476.359C27.4009 409.92 9.88168 361.166 9.98237 360.666Z" fill="#79BFFF"/>
<path d="M315.159 340.035C317.374 340.784 322.911 342.932 325.579 348.427C326.385 350.125 326.687 351.574 326.989 353.322C328.197 360.715 326.184 366.96 325.579 368.758C317.978 391.787 309.621 403.725 309.621 403.725C287.369 435.346 256.006 472.062 252.432 476.258C201.737 476.258 151.042 476.258 100.347 476.258C81.4687 456.527 67.6748 439.792 58.3615 427.753C53.9817 422.108 48.9474 414.565 38.9292 399.479C38.9292 399.479 32.1834 389.339 25.9912 373.404C24.7327 370.107 23.5748 366.46 23.9775 361.814C24.481 356.02 27.2498 351.724 29.0621 349.326C30.371 349.026 32.2337 348.577 34.3984 348.027C40.7416 346.379 46.0779 344.53 50.8604 342.732C59.318 339.585 65.7115 336.588 73.0615 333.141C79.8577 329.994 86.6539 326.847 93.4502 323.7C96.6217 322.201 99.9444 321.202 103.166 319.853C104.425 319.304 106.539 318.405 109.509 318.055C111.322 317.855 112.681 317.955 112.933 317.955C116.406 318.155 162.017 317.805 241.759 316.956C243.32 317.306 245.484 317.805 248.102 318.455C252.432 319.603 259.178 321.352 266.88 324.599C272.166 326.797 272.216 327.346 278.207 329.744C280.07 330.493 283.241 331.692 287.218 332.991C292.001 334.54 295.525 335.389 300.761 336.688C306.6 338.286 311.534 339.285 315.159 340.035Z" fill="#4CA9FF"/>
<path d="M117.262 322.851C138.406 322.051 159.55 321.252 180.694 320.403C196.249 324.349 211.856 328.296 227.411 332.242C211 371.805 194.588 411.319 178.176 450.882C157.888 408.222 137.6 365.511 117.262 322.851Z" fill="#89BCEC"/>
<path d="M156.781 346.878C159.198 361.764 161.664 376.7 164.081 391.586C172.79 383.694 181.55 375.801 190.259 367.908C192.323 359.266 194.387 350.575 196.501 341.933C194.941 338.236 193.38 334.589 191.82 330.893C179.586 332.841 167.353 334.789 155.12 336.737C155.724 340.084 156.227 343.481 156.781 346.878Z" fill="#BDCADE"/>
<path d="M30.3713 476.258C27.9046 471.562 17.9871 452.38 11.0398 432.349C7.21375 421.359 4.1932 409.72 2.43121 402.976C1.72641 400.328 -0.186606 392.636 0.0147642 382.995C0.0651067 381.346 0.165792 377.899 1.32367 373.653C1.4747 373.104 2.68292 368.908 5.90485 364.312C8.2206 360.965 9.32814 360.715 9.9826 360.715C12.1473 360.715 13.6576 363.513 13.9093 363.912C15.1679 366.46 17.1312 370.456 19.4973 375.352C24.0282 384.843 32.1837 402.227 48.545 442.24C52.0187 450.732 56.7509 462.371 62.2382 476.308C51.6159 476.258 40.9936 476.258 30.3713 476.258Z" fill="#1C92FF"/>
<path d="M320.595 476.258C323.163 469.165 325.277 463.42 326.687 459.574C334.389 438.593 341.84 417.563 349.794 396.682C350.146 395.733 351.204 393.036 351.506 389.339C351.707 387.041 351.606 384.943 351.153 382.146C350.801 379.798 349.643 373.354 345.162 363.013C341.286 354.122 339.876 353.822 339.323 353.922C338.618 354.022 338.114 354.971 337.863 355.77C330.966 373.454 324.22 392.186 317.726 411.918C310.376 434.247 304.133 455.728 298.747 476.258C305.996 476.258 313.296 476.258 320.595 476.258Z" fill="#1C92FF"/>
<path d="M81.5697 329.299C86.9564 334.694 91.6885 338.59 95.0112 341.188C95.0112 341.188 102.965 347.882 113.99 359.571C114.443 360.02 115.148 360.97 115.299 362.218C115.45 363.517 114.896 364.516 114.544 365.116C112.329 368.962 109.862 371.56 109.862 371.56C108.352 373.158 106.187 375.456 103.569 378.503C128.439 402.631 153.308 426.758 178.227 450.886C172.891 438.697 165.44 421.563 156.328 400.882C144.246 373.408 138.809 361.619 130.704 346.433C125.317 336.392 120.585 328.25 117.363 322.805C115.551 321.157 113.739 319.508 111.977 317.86C111.221 317.91 110.315 317.959 109.308 318.109C109.157 318.109 107.899 318.309 106.54 318.659C103.469 319.508 100.247 321.057 100.247 321.057C96.5718 322.805 97.7296 321.956 90.5307 325.103C87.8122 326.352 84.842 327.7 81.5697 329.299Z" fill="#1C92FF"/>
<path d="M241.759 317.057C242.112 317.156 242.615 317.256 243.27 317.406C244.126 317.606 246.089 318.056 248.656 318.755C250.469 319.255 253.338 320.004 256.107 320.853C258.926 321.752 262.803 323.101 267.434 325.249C261.594 329.695 255.402 334.74 249.059 340.435C243.068 345.83 237.732 351.175 232.95 356.27C232.849 356.37 231.188 357.919 231.59 359.767C231.691 360.316 231.993 360.766 232.245 361.066C233.302 362.614 234.56 364.263 236.02 366.011C237.631 367.859 239.192 369.458 240.652 370.807C237.631 375.252 233.201 381.846 227.714 389.739C227.714 389.739 217.847 403.976 201.737 425.506C197.911 430.601 193.28 436.745 185.98 443.889C182.808 446.986 180.039 449.434 178.076 451.032C194.488 411.469 210.899 371.956 227.311 332.392C232.194 327.197 236.977 322.102 241.759 317.057Z" fill="#1C92FF"/>
<path d="M178.177 450.882C178.026 408.321 177.875 365.761 177.674 323.201C172.388 329.145 167.152 335.139 161.866 341.084C163.729 342.832 165.591 344.581 167.454 346.279C165.742 369.058 164.031 391.887 162.319 414.666C167.605 426.754 172.891 438.843 178.177 450.882Z" fill="#79BFFF"/>
<path d="M177.724 323.201C183.412 328.845 189.151 334.54 194.84 340.185C192.675 342.782 190.511 345.33 188.346 347.928C190.41 369.158 192.474 390.338 194.488 411.569C189.051 424.706 183.614 437.794 178.177 450.932C178.026 408.322 177.875 365.761 177.724 323.201Z" fill="#4CA9FF"/>
<path d="M284.047 423.457C280.724 426.005 277.402 428.553 274.079 431.05C266.024 431.1 257.919 431.1 249.864 431.15C246.793 428.702 243.672 426.205 240.601 423.757C240.702 414.366 240.803 405.024 240.853 395.633C255.352 395.583 269.85 395.583 284.349 395.533C284.248 404.825 284.148 414.116 284.047 423.457Z" fill="#0084FF"/>
<path d="M281.731 396.782C281.731 405.224 281.681 413.716 281.681 422.158C278.912 424.356 276.143 426.604 273.374 428.802C266.125 428.852 258.876 428.902 251.626 428.952C248.858 426.704 246.089 424.456 243.32 422.208C256.107 413.766 268.944 405.274 281.731 396.782Z" fill="#0F8CFF"/>
<path d="M177.724 323.201C168.712 333.391 159.701 343.582 150.69 353.772C137.752 341.833 124.814 329.844 111.926 317.905C111.926 317.606 111.926 317.206 112.027 316.806C112.178 316.257 112.379 315.857 112.53 315.558C116.457 309.313 120.384 303.119 124.26 296.875C124.26 296.525 124.26 296.126 124.26 295.776C119.78 294.427 113.436 292.329 106.187 289.132C95.162 284.287 72.0045 273.796 52.9247 250.218C40.188 234.483 33.5428 218.248 29.9685 205.609C27.4514 204.96 23.3233 203.511 19.3462 200.165C18.3897 199.315 9.88184 191.972 9.88184 181.382C9.88184 171.141 17.8863 161.251 29.7671 157.554C33.6435 142.668 39.3825 131.678 43.7623 124.485C65.3593 89.4171 99.3405 75.1803 112.681 69.8353C116.004 68.4865 126.223 64.5402 140.672 61.493C158.694 57.6965 189.554 53.9999 228.821 63.641C236.876 65.739 248.203 69.2858 260.89 75.6798C296.23 93.4634 314.303 120.089 314.303 120.089C319.337 127.482 326.385 139.671 330.916 156.705C333.685 157.354 338.92 158.953 343.753 163.349C345.364 164.797 353.469 172.14 352.714 182.93C352.06 192.172 345.415 197.867 342.595 200.314C337.964 204.311 333.131 206.059 330.161 206.908C327.694 215.251 324.724 222.394 321.703 228.388C321.703 228.388 317.877 235.881 312.994 242.925C300.408 261.008 274.633 283.487 239.645 294.827C234.158 296.625 229.677 297.724 227.361 298.274C227.361 298.573 227.361 298.923 227.361 299.223C232.144 305.217 236.977 311.212 241.759 317.256C230.432 329.295 219.105 341.284 207.778 353.323C197.76 343.132 187.742 333.191 177.724 323.201Z" fill="#F9F9F9"/>
<path d="M114.142 317.506C118.32 310.412 122.498 303.319 126.677 296.176C133.926 313.859 141.226 331.493 148.475 349.176C137.047 338.636 125.569 328.046 114.142 317.506Z" fill="#ECECEC"/>
<path d="M239.242 316.907C229.023 327.697 218.803 338.437 208.584 349.227C214.574 333.142 220.616 317.006 226.606 300.921C230.835 306.216 235.064 311.562 239.242 316.907Z" fill="#ECECEC"/>
<path d="M95.4135 181.681C95.3631 196.967 44.5173 217.348 22.115 200.813C20.202 199.415 10.939 192.171 10.8886 181.631C10.8383 170.642 20.9068 163.099 22.6184 161.9C45.3228 145.665 95.5142 166.446 95.4135 181.681Z" fill="url(#paint0_linear_74_1087)"/>
<path d="M323.113 161.15C328.147 162.149 331.923 163.897 334.39 165.246C338.618 167.594 343.502 170.341 345.616 175.986C347.076 179.882 346.472 183.429 346.22 184.628C344.206 194.419 333.433 198.715 331.067 199.664C327.593 201.063 324.522 201.462 322.559 201.612C322.71 188.125 322.911 174.637 323.113 161.15Z" fill="#D5D5D5"/>
<path d="M182.708 299.022C182.808 226.39 182.859 153.757 182.959 81.1242C198.012 76.7283 213.064 72.3323 228.117 67.9364C233.302 69.5349 240.451 71.9827 248.606 75.6792C254.496 78.3767 273.173 87.0687 288.779 101.805C294.569 107.3 325.227 136.173 325.076 180.382C324.976 206.258 314.404 224.991 309.823 232.884C294.065 260.008 271.512 272.897 258.876 279.89C228.217 296.774 198.817 299.072 182.708 299.022Z" fill="#DCDCDC"/>
<path d="M129.748 297.175C135.185 301.271 139.867 304.518 143.34 306.816C151.949 312.56 157.386 316.157 165.239 319.304C170.324 321.352 174.703 322.501 177.674 323.2C177.623 316.856 177.623 310.562 177.573 304.218C172.337 304.268 166.649 304.018 160.557 303.419C148.727 302.22 138.356 299.822 129.748 297.175Z" fill="#F2DDCC"/>
<path d="M177.623 304.218C183.161 304.418 189.252 304.368 195.847 303.869C206.369 303.069 215.632 301.221 223.334 299.223C219.407 302.52 215.984 305.068 213.467 306.816C207.476 310.962 198.263 317.306 185.174 321.303C182.053 322.252 179.486 322.851 177.724 323.201C177.673 316.907 177.623 310.563 177.623 304.218Z" fill="#EED5C0"/>
<path d="M307.356 231.036C303.479 199.365 295.324 168.344 289.534 136.973C289.383 136.073 288.93 133.526 286.967 131.428C283.594 127.831 278.006 127.931 276.043 127.931C267.233 128.031 231.389 127.881 182.003 127.931C132.113 127.781 95.7158 127.931 86.8052 127.931C84.9929 127.931 80.1096 127.931 76.9381 131.128C74.6727 133.426 74.2699 136.373 74.0685 137.372C63.4966 188.725 56.0963 226.39 55.4922 230.986C55.3411 232.035 55.0894 234.432 56.348 236.73C56.7004 237.43 57.4555 238.529 59.8216 240.327C61.4829 241.526 64.0504 243.174 67.6247 244.473C71.8031 245.972 75.0251 246.821 75.3271 246.871C105.08 253.615 122.297 255.513 122.297 255.513C135.335 256.962 145.354 257.411 153.358 257.761C158.241 257.961 167.706 258.31 181.449 258.26C201.586 258.21 218.451 258.16 240.702 255.713C264.111 252.316 281.429 249.019 287.42 247.271C290.541 246.371 294.418 244.823 295.273 244.473C298.395 243.224 300.71 242.075 303.076 240.327C305.493 238.529 306.198 237.43 306.55 236.73C307.809 234.382 307.507 231.985 307.356 231.036Z" fill="#535353"/>
<path d="M297.288 227.09C296.532 220.096 290.139 192.072 288.427 183.63C285.558 169.643 282.739 155.606 279.919 141.569C279.668 140.72 279.013 138.971 277.302 137.523C274.684 135.225 271.613 135.275 270.908 135.325C243.824 135.325 216.689 135.275 189.605 135.275C187.037 135.275 184.52 135.275 181.953 135.275C179.385 135.275 176.868 135.275 174.301 135.275C147.217 135.275 120.082 135.325 92.9976 135.325C92.2928 135.275 89.1716 135.225 86.6041 137.523C84.9428 139.021 84.238 140.77 83.9863 141.569C81.6706 149.212 76.2336 179.384 75.4784 183.63C75.4281 183.93 73.3137 194.02 66.3161 226.99C66.2154 227.639 66.0644 228.738 66.3161 229.987C66.5678 231.436 67.1719 232.485 67.474 232.984C70.5449 238.129 78.2976 239.978 80.0093 240.377C94.5079 244.024 98.787 244.723 98.787 244.723C113.185 247.071 120.384 248.22 120.837 248.27C142.384 251.017 159.903 251.367 173.848 251.517C176.818 251.567 179.587 251.567 182.054 251.567C184.52 251.567 187.289 251.567 190.259 251.517C204.204 251.317 221.723 251.017 243.27 248.27C243.723 248.22 250.922 247.021 265.32 244.723C265.32 244.723 269.599 244.024 284.098 240.377C287.723 239.128 290.391 237.53 292.052 236.331C294.267 234.733 296.432 233.134 297.237 230.387C297.489 228.888 297.338 227.639 297.288 227.09Z" fill="#FFE9D7"/>
<path d="M89.0205 136.024C149.331 171.941 209.591 207.808 269.901 243.724C274.281 242.775 277.956 241.876 280.775 241.127C283.343 240.477 284.802 240.078 286.715 239.229C289.535 237.98 291.347 236.631 292.857 235.532C294.821 234.083 295.425 233.284 295.878 232.635C296.985 230.936 297.237 229.388 297.287 229.088C297.388 228.239 297.338 227.539 297.287 227.04C294.317 212.553 291.347 198.067 288.427 183.58C285.558 169.593 282.738 155.556 279.919 141.519C279.768 141.02 279.517 140.37 279.114 139.671C278.409 138.472 277.654 137.773 277.301 137.473C276.999 137.173 275.842 136.224 274.029 135.675C272.771 135.275 271.713 135.275 271.311 135.275C268.794 135.275 194.287 135.275 92.3935 135.275C92.2424 135.275 91.9907 135.275 91.6887 135.325C90.9839 135.375 90.4301 135.525 90.128 135.625C89.826 135.774 89.4736 135.874 89.0205 136.024Z" fill="#F8DEC8"/>
<path d="M127.633 227.789C143.12 227.789 155.674 215.332 155.674 199.965C155.674 184.598 143.12 172.141 127.633 172.141C112.147 172.141 99.5923 184.598 99.5923 199.965C99.5923 215.332 112.147 227.789 127.633 227.789Z" fill="white"/>
<path d="M129.647 227.689C127.281 227.289 123.858 226.44 120.082 224.592C117.414 223.293 113.689 221.494 110.517 217.798C104.426 210.654 105.08 201.763 105.181 200.414C105.986 191.372 111.574 185.878 113.135 184.429C114.897 182.78 120.032 178.584 127.835 177.935C133.876 177.435 138.608 179.334 140.823 180.433C148.626 184.279 151.798 191.023 152.704 193.021C155.12 198.316 155.171 203.161 155.02 205.759C155.674 205.859 156.278 205.909 156.933 206.009C157.134 202.062 157.336 198.166 157.537 194.22C155.171 189.374 152.754 184.479 150.388 179.633C145.505 176.736 140.572 173.839 135.688 170.941C130.302 170.692 124.965 170.492 119.579 170.242C116.105 171.94 112.682 173.639 109.208 175.337C106.037 179.284 102.915 183.28 99.7438 187.226C98.9887 191.372 98.1832 195.469 97.4281 199.615C98.3343 203.711 99.2404 207.807 100.147 211.903C102.815 215.6 105.533 219.296 108.201 222.993C110.87 224.392 113.588 225.79 116.256 227.189C119.226 227.888 122.247 228.588 125.217 229.287C126.727 228.738 128.187 228.188 129.647 227.689Z" fill="#EBEBEB"/>
<path d="M112 181.5C112 187.851 118.94 193 127.5 193C136.06 193 143 187.851 143 181.5C143 175.149 136.06 170 127.5 170C118.94 170 112 175.149 112 181.5Z" fill="#4E4E4E"/>
<path d="M127.734 165.746C109.308 165.746 94.3567 180.582 94.3567 198.865C94.3567 217.148 109.308 231.985 127.734 231.985C146.159 231.985 161.111 217.148 161.111 198.865C161.111 180.582 146.159 165.746 127.734 165.746ZM127.633 227.739C112.178 227.739 99.5923 215.3 99.5923 199.914C99.5923 184.529 112.128 172.09 127.633 172.09C143.088 172.09 155.674 184.529 155.674 199.914C155.674 215.3 143.139 227.739 127.633 227.739Z" fill="#4E4E4E"/>
<path d="M238.235 227.788C253.721 227.788 266.276 215.331 266.276 199.964C266.276 184.597 253.721 172.14 238.235 172.14C222.749 172.14 210.194 184.597 210.194 199.964C210.194 215.331 222.749 227.788 238.235 227.788Z" fill="white"/>
<path d="M236.221 227.689C238.587 227.289 242.011 226.44 245.786 224.592C248.455 223.293 252.18 221.494 255.352 217.798C261.443 210.654 260.789 201.763 260.688 200.414C259.882 191.372 254.294 185.878 252.734 184.429C250.972 182.78 245.837 178.584 238.034 177.935C231.993 177.435 227.26 179.334 225.045 180.433C217.242 184.279 214.071 191.023 213.164 193.021C210.748 198.316 210.698 203.161 210.849 205.759C210.194 205.859 209.59 205.909 208.936 206.009C208.734 202.062 208.533 198.166 208.332 194.22C210.698 189.374 213.114 184.479 215.48 179.633C220.363 176.736 225.297 173.839 230.18 170.941C235.567 170.692 240.903 170.492 246.29 170.242C249.764 171.94 253.187 173.639 256.66 175.337C259.832 179.284 262.953 183.28 266.125 187.226C266.88 191.372 267.685 195.469 268.441 199.615C267.534 203.711 266.628 207.807 265.722 211.903C263.054 215.6 260.335 219.296 257.667 222.993C254.999 224.392 252.281 225.79 249.612 227.189C246.642 227.888 243.622 228.588 240.652 229.287C239.192 228.738 237.681 228.188 236.221 227.689Z" fill="#EBEBEB"/>
<path d="M223 181.5C223 187.851 229.94 193 238.5 193C247.06 193 254 187.851 254 181.5C254 175.149 247.06 170 238.5 170C229.94 170 223 175.149 223 181.5Z" fill="#4E4E4E"/>
<path d="M204.757 198.815C204.757 217.098 219.709 231.934 238.134 231.934C256.56 231.934 271.512 217.098 271.512 198.815C271.512 180.532 256.56 165.696 238.134 165.696C219.709 165.696 204.757 180.532 204.757 198.815ZM210.194 199.964C210.194 184.628 222.73 172.14 238.235 172.14C253.69 172.14 266.276 184.578 266.276 199.964C266.276 215.35 253.741 227.788 238.235 227.788C222.78 227.738 210.194 215.3 210.194 199.964Z" fill="#4E4E4E"/>
<path d="M174.301 241.575C175.885 241.575 177.17 240.301 177.17 238.728C177.17 237.156 175.885 235.881 174.301 235.881C172.716 235.881 171.431 237.156 171.431 238.728C171.431 240.301 172.716 241.575 174.301 241.575Z" fill="#F0B888"/>
<path d="M188.598 241.575C190.182 241.575 191.467 240.301 191.467 238.728C191.467 237.156 190.182 235.881 188.598 235.881C187.013 235.881 185.728 237.156 185.728 238.728C185.728 240.301 187.013 241.575 188.598 241.575Z" fill="#F0B888"/>
<path d="M172.891 293.577C175.782 293.577 178.126 291.251 178.126 288.382C178.126 285.513 175.782 283.187 172.891 283.187C169.999 283.187 167.655 285.513 167.655 288.382C167.655 291.251 169.999 293.577 172.891 293.577Z" fill="#4CA9FF"/>
<path d="M172.639 293.078C175.392 293.078 177.623 290.864 177.623 288.133C177.623 285.401 175.392 283.187 172.639 283.187C169.887 283.187 167.655 285.401 167.655 288.133C167.655 290.864 169.887 293.078 172.639 293.078Z" fill="#4CA9FF"/>
<path d="M182.959 291.48C184.571 291.48 185.879 290.182 185.879 288.582C185.879 286.982 184.571 285.685 182.959 285.685C181.346 285.685 180.039 286.982 180.039 288.582C180.039 290.182 181.346 291.48 182.959 291.48Z" fill="#555555"/>
<path d="M182.808 291.18C184.337 291.18 185.577 289.95 185.577 288.433C185.577 286.915 184.337 285.685 182.808 285.685C181.279 285.685 180.039 286.915 180.039 288.433C180.039 289.95 181.279 291.18 182.808 291.18Z" fill="#7F7F7F"/>
<path d="M190.108 291.48C191.721 291.48 193.028 290.182 193.028 288.582C193.028 286.982 191.721 285.685 190.108 285.685C188.496 285.685 187.188 286.982 187.188 288.582C187.188 290.182 188.496 291.48 190.108 291.48Z" fill="#555555"/>
<path d="M189.957 291.18C191.486 291.18 192.726 289.95 192.726 288.433C192.726 286.915 191.486 285.685 189.957 285.685C188.428 285.685 187.188 286.915 187.188 288.433C187.188 289.95 188.428 291.18 189.957 291.18Z" fill="#7F7F7F"/>
<path d="M149.532 54.4496C147.921 54.7993 145.353 55.5985 142.736 57.4468C141.125 58.5958 136.695 61.7428 136.695 65.7891C136.695 66.3386 136.795 68.9861 140.47 72.1332C151.093 81.3247 176.717 81.9241 181.701 81.9741C183.01 81.9741 183.966 81.9741 184.319 81.9741C190.662 81.9741 199.874 81.8742 210.396 78.9769C216.336 77.3284 218.954 75.8797 219.659 75.4801C223.334 73.3321 228.217 70.4348 228.469 65.9389C228.771 60.3941 221.723 56.3478 221.119 55.9982C219.458 55.0491 217.897 54.5995 216.789 54.3997C194.337 54.4496 171.934 54.4496 149.532 54.4496Z" fill="#4CA9FF"/>
<path d="M149.331 57.5469C148.878 57.6967 148.173 57.9465 147.468 58.446C147.065 58.7458 145.958 59.595 145.455 61.0437C145.455 61.0437 144.951 62.4924 145.505 64.2408C146.109 66.2889 150.036 70.2353 164.333 72.4333C169.569 73.2326 174.351 73.5323 183.413 73.4324C202.442 73.2326 211.756 71.7839 217.545 67.0882C218.854 66.0391 221.27 63.991 220.968 61.5932C220.616 58.9955 217.293 57.5968 216.689 57.347C194.186 57.397 171.733 57.4969 149.331 57.5469Z" fill="#2B89E0"/>
<path d="M216.84 5.09509L149.532 5.09509V63.691L216.84 63.691V5.09509Z" fill="#DBDBDB"/>
<path d="M149.532 63.691C149.582 63.9408 149.733 64.3404 149.985 64.79C150.539 65.7391 151.395 66.1887 151.848 66.3885C154.818 67.8871 156.832 68.3866 156.832 68.3866C159.6 69.086 161.01 69.4357 163.175 69.8353C166.246 70.3348 169.014 70.6345 171.632 70.8344C174.502 71.0342 177.12 71.0841 182.254 71.1341C190.712 71.234 193.279 71.1341 194.89 71.0342C198.012 70.8343 199.975 70.5846 201.435 70.3348C202.341 70.185 203.197 70.0351 203.952 69.8852C205.009 69.6854 206.217 69.3857 208.08 68.8862C210.195 68.3367 213.215 67.4375 214.977 66.2886C215.43 65.9889 216.085 65.5393 216.437 64.7401C216.638 64.3404 216.739 63.9408 216.789 63.691C194.387 63.691 171.934 63.691 149.532 63.691Z" fill="#E2E2E2"/>
<path d="M214.675 62.3918C214.675 43.6592 214.675 24.9266 214.675 6.24402C193.733 25.3762 172.79 44.5584 151.898 63.6906C153.61 64.3899 156.026 65.2391 158.946 66.0883C165.491 67.8867 170.625 68.1864 176.012 68.4362C182.808 68.7858 187.792 68.4362 192.826 68.1364C203.046 67.4371 206.822 66.2882 209.792 64.9894C211.906 64.0902 213.567 63.0911 214.675 62.3918Z" fill="#E2E2E2"/>
<path d="M177.975 25.176H167.907V37.7146H177.975V25.176Z" fill="#959593"/>
<path d="M198.515 25.176H188.447V37.7146H198.515V25.176Z" fill="#959593"/>
<path d="M185.124 45.1575H174.653V52.0016H185.124V45.1575Z" fill="#FBFBFF"/>
<path d="M191.971 45.1575H185.074V52.0016H191.971V45.1575Z" fill="#CACACF"/>
<path d="M216.84 0L149.532 0V5.09514L216.84 5.09514V0Z" fill="#BFBFBF"/>
<defs>
<linearGradient id="paint0_linear_74_1087" x1="10.8746" y1="181.481" x2="95.4352" y2="181.481" gradientUnits="userSpaceOnUse">
<stop stop-color="#F4F4F4"/>
<stop offset="1" stop-color="#F4F4F4" stop-opacity="0.1"/>
</linearGradient>
</defs>
</svg>
