<?xml version="1.0" encoding="utf-8"?>
<svg version="1.1" id="Layer_1" xmlns="http://www.w3.org/2000/svg" xmlns:xlink="http://www.w3.org/1999/xlink" x="0px" y="0px"
	 viewBox="0 0 353 476" style="enable-background:new 0 0 353 476;" xml:space="preserve">
<style type="text/css">
	.st0{fill:#0D0463;}
	.st1{fill:#0D0870;}
	.st2{fill:#E2E2E2;}
	.st3{fill:#BDCADE;}
	.st4{fill:#FF800D;}
	.st5{fill:#D6680D;}
	.st6{fill:#0C0C60;}
	.st7{fill:#F9F9F9;}
	.st8{fill:#ECECEC;}
	.st9{fill:url(#SVGID_1_);}
	.st10{fill:#D5D5D5;}
	.st11{fill:#DCDCDC;}
	.st12{fill:#F2DDCC;}
	.st13{fill:#EED5C0;}
	.st14{fill:#535353;}
	.st15{fill:#FFE9D7;}
	.st16{fill:#F8DEC8;}
	.st17{fill:#FFFFFF;}
	.st18{fill:#EBEBEB;}
	.st19{fill:#4E4E4E;}
	.st20{fill:#F0B888;}
	.st21{fill:#555555;}
	.st22{fill:#7F7F7F;}
	.st23{fill:#04041C;}
	.st24{fill:#DBDBDB;}
	.st25{fill:#959593;}
	.st26{fill:#FBFBFF;}
	.st27{fill:#CACACF;}
	.st28{fill:#BFBFBF;}
</style>
<path class="st0" d="M10,360.7c0.1-0.5,0.3-1.1,0.3-1.1c0.1-0.1,0.1-0.2,0.1-0.2c0.4-1.2,2.6-2.8,3.3-3.3c0.1,0,0.2-0.1,0.3-0.1
	c7.7-4.9,17.4-7,17.4-7c9.3-2.2,16.5-4.7,21.4-6.7c6.4-2.6,13.2-5.6,20.4-8.8c4.4-2,7.7-3.5,7.7-3.5c6.5-3,8.4-4,13.3-6.2
	c3.1-1.4,0.2,0,9.8-3.9c1.2-0.5,3.1-1.2,5.7-1.5c1.8-0.2,3.3-0.1,4-0.1c0.2,0,0.3,0.1,0.4,0.1c0.2,0,49.6-0.4,126.4-1.1
	c0.4,0,0.9,0,1.5,0c0,0,1.2,0.1,2.3,0.4c14.8,3.9,23.5,7.5,23.5,7.5c11.8,5.8,18.2,7.8,24.5,9.6c8,2.3,19.5,4.7,25.1,5.9
	c0,0,7.6,1.6,16.3,6.4c3.9,2.2,5.5,4.3,6.3,6.5c0.1,0.3,0.2,0.5,0.2,0.6c-10.2,40.7-20.3,81.4-30.5,122.2c-86,0-171.9,0-257.9,0
	C27.4,409.9,9.9,361.2,10,360.7z"/>
<path class="st1" d="M315.2,340c2.2,0.7,7.8,2.9,10.4,8.4c0.8,1.7,1.1,3.1,1.4,4.9c1.2,7.4-0.8,13.6-1.4,15.4c-7.6,23-16,35-16,35
	c-22.3,31.6-53.6,68.3-57.2,72.5c-50.7,0-101.4,0-152.1,0c-18.9-19.7-32.7-36.5-42-48.5c-4.4-5.6-9.4-13.2-19.4-28.3
	c0,0-6.7-10.1-12.9-26.1c-1.3-3.3-2.4-6.9-2-11.6c0.5-5.8,3.3-10.1,5.1-12.5c1.3-0.3,3.2-0.7,5.3-1.3c6.3-1.6,11.7-3.5,16.5-5.3
	c8.5-3.1,14.9-6.1,22.2-9.6c6.8-3.1,13.6-6.3,20.4-9.4c3.2-1.5,6.5-2.5,9.7-3.8c1.3-0.5,3.4-1.4,6.3-1.8c1.8-0.2,3.2-0.1,3.4-0.1
	c3.5,0.2,49.1-0.1,128.8-1c1.6,0.4,3.7,0.8,6.3,1.5c4.3,1.1,11.1,2.9,18.8,6.1c5.3,2.2,5.3,2.7,11.3,5.1c1.9,0.7,5,1.9,9,3.2
	c4.8,1.5,8.3,2.4,13.5,3.7C306.6,338.3,311.5,339.3,315.2,340z"/>
<path class="st2" d="M117.3,322.9c21.1-0.8,42.3-1.6,63.4-2.4c15.6,3.9,31.2,7.9,46.7,11.8c-16.4,39.6-32.8,79.1-49.2,118.6
	C157.9,408.2,137.6,365.5,117.3,322.9z"/>
<path class="st3" d="M156.8,346.9c2.4,14.9,4.9,29.8,7.3,44.7c8.7-7.9,17.5-15.8,26.2-23.7c2.1-8.6,4.1-17.3,6.2-26
	c-1.6-3.7-3.1-7.3-4.7-11c-12.2,1.9-24.5,3.9-36.7,5.8C155.7,340.1,156.2,343.5,156.8,346.9z"/>
<path class="st1" d="M30.4,476.3c-2.5-4.7-12.4-23.9-19.3-43.9c-3.8-11-6.8-22.6-8.6-29.4c-0.7-2.6-2.6-10.3-2.4-20
	c0.1-1.6,0.2-5.1,1.3-9.3c0.2-0.5,1.4-4.7,4.6-9.3c2.3-3.3,3.4-3.6,4.1-3.6c2.2,0,3.7,2.8,3.9,3.2c1.3,2.5,3.2,6.5,5.6,11.4
	c4.5,9.5,12.7,26.9,29,66.9c3.5,8.5,8.2,20.1,13.7,34.1C51.6,476.3,41,476.3,30.4,476.3z"/>
<path class="st1" d="M320.6,476.3c2.6-7.1,4.7-12.8,6.1-16.7c7.7-21,15.2-42,23.1-62.9c0.4-0.9,1.4-3.6,1.7-7.3
	c0.2-2.3,0.1-4.4-0.4-7.2c-0.4-2.3-1.5-8.8-6-19.1c-3.9-8.9-5.3-9.2-5.8-9.1c-0.7,0.1-1.2,1-1.5,1.8c-6.9,17.7-13.6,36.4-20.1,56.1
	c-7.4,22.3-13.6,43.8-19,64.3C306,476.3,313.3,476.3,320.6,476.3z"/>
<path class="st1" d="M81.6,329.3c5.4,5.4,10.1,9.3,13.4,11.9c0,0,8,6.7,19,18.4c0.5,0.4,1.2,1.4,1.3,2.6c0.2,1.3-0.4,2.3-0.8,2.9
	c-2.2,3.8-4.7,6.4-4.7,6.4c-1.5,1.6-3.7,3.9-6.3,6.9c24.9,24.1,49.7,48.3,74.7,72.4c-5.3-12.2-12.8-29.3-21.9-50
	c-12.1-27.5-17.5-39.3-25.6-54.4c-5.4-10-10.1-18.2-13.3-23.6c-1.8-1.6-3.6-3.3-5.4-4.9c-0.8,0.1-1.7,0.1-2.7,0.2
	c-0.2,0-1.4,0.2-2.8,0.5c-3.1,0.8-6.3,2.4-6.3,2.4c-3.7,1.7-2.5,0.9-9.7,4C87.8,326.4,84.8,327.7,81.6,329.3z"/>
<path class="st1" d="M241.8,317.1c0.4,0.1,0.9,0.2,1.5,0.3c0.9,0.2,2.8,0.6,5.4,1.3c1.8,0.5,4.7,1.2,7.5,2.1
	c2.8,0.9,6.7,2.2,11.3,4.4c-5.8,4.4-12,9.5-18.4,15.2c-6,5.4-11.3,10.7-16.1,15.8c-0.1,0.1-1.8,1.6-1.4,3.5c0.1,0.5,0.4,1,0.7,1.3
	c1.1,1.5,2.3,3.2,3.8,4.9c1.6,1.8,3.2,3.4,4.6,4.8c-3,4.4-7.5,11-12.9,18.9c0,0-9.9,14.2-26,35.8c-3.8,5.1-8.5,11.2-15.8,18.4
	c-3.2,3.1-5.9,5.5-7.9,7.1c16.4-39.6,32.8-79.1,49.2-118.6C232.2,327.2,237,322.1,241.8,317.1z"/>
<path class="st4" d="M178.2,450.9c-0.2-42.6-0.3-85.1-0.5-127.7c-5.3,5.9-10.5,11.9-15.8,17.9c1.9,1.7,3.7,3.5,5.6,5.2
	c-1.7,22.8-3.4,45.6-5.1,68.4C167.6,426.8,172.9,438.8,178.2,450.9z"/>
<path class="st5" d="M177.7,323.2c5.7,5.6,11.4,11.3,17.1,17c-2.2,2.6-4.3,5.1-6.5,7.7c2.1,21.2,4.1,42.4,6.1,63.6
	c-5.4,13.1-10.9,26.2-16.3,39.4C178,408.3,177.9,365.8,177.7,323.2z"/>
<path class="st6" d="M284,423.5c-3.3,2.5-6.6,5.1-10,7.6c-8.1,0.1-16.2,0.1-24.2,0.1c-3.1-2.4-6.2-4.9-9.3-7.4
	c0.1-9.4,0.2-18.7,0.3-28.1c14.5,0,29,0,43.5-0.1C284.2,404.8,284.1,414.1,284,423.5z"/>
<path class="st1" d="M281.7,396.8c0,8.4,0,16.9,0,25.4c-2.8,2.2-5.5,4.4-8.3,6.6c-7.2,0-14.5,0.1-21.7,0.1c-2.8-2.2-5.5-4.5-8.3-6.7
	C256.1,413.8,268.9,405.3,281.7,396.8z"/>
<path class="st7" d="M177.7,323.2c-9,10.2-18,20.4-27,30.6c-12.9-11.9-25.9-23.9-38.8-35.9c0-0.3,0-0.7,0.1-1.1
	c0.2-0.5,0.4-0.9,0.5-1.2c3.9-6.2,7.9-12.4,11.7-18.7c0-0.4,0-0.7,0-1.1c-4.5-1.3-10.8-3.4-18.1-6.6c-11-4.8-34.2-15.3-53.3-38.9
	c-12.7-15.7-19.4-32-23-44.6c-2.5-0.6-6.6-2.1-10.6-5.4c-1-0.8-9.5-8.2-9.5-18.8c0-10.2,8-20.1,19.9-23.8c3.9-14.9,9.6-25.9,14-33.1
	c21.6-35.1,55.6-49.3,68.9-54.6c3.3-1.3,13.5-5.3,28-8.3c18-3.8,48.9-7.5,88.1,2.1c8.1,2.1,19.4,5.6,32.1,12
	c35.3,17.8,53.4,44.4,53.4,44.4c5,7.4,12.1,19.6,16.6,36.6c2.8,0.6,8,2.2,12.8,6.6c1.6,1.4,9.7,8.8,9,19.6
	c-0.7,9.2-7.3,14.9-10.1,17.4c-4.6,4-9.5,5.7-12.4,6.6c-2.5,8.3-5.4,15.5-8.5,21.5c0,0-3.8,7.5-8.7,14.5
	c-12.6,18.1-38.4,40.6-73.3,51.9c-5.5,1.8-10,2.9-12.3,3.4c0,0.3,0,0.6,0,0.9c4.8,6,9.6,12,14.4,18c-11.3,12-22.7,24-34,36.1
	C197.8,343.1,187.7,333.2,177.7,323.2z"/>
<path class="st8" d="M114.1,317.5c4.2-7.1,8.4-14.2,12.5-21.3c7.2,17.7,14.5,35.3,21.8,53C137,338.6,125.6,328,114.1,317.5z"/>
<path class="st8" d="M239.2,316.9c-10.2,10.8-20.4,21.5-30.7,32.3c6-16.1,12-32.2,18-48.3C230.8,306.2,235.1,311.6,239.2,316.9z"/>
<linearGradient id="SVGID_1_" gradientUnits="userSpaceOnUse" x1="10.8884" y1="296.521" x2="95.4137" y2="296.521" gradientTransform="matrix(1 0 0 -1 0 478)">
	<stop  offset="0" style="stop-color:#F4F4F4"/>
	<stop  offset="1" style="stop-color:#F4F4F4;stop-opacity:0.1"/>
</linearGradient>
<path class="st9" d="M95.4,181.7c-0.1,15.3-50.9,35.7-73.3,19.1c-1.9-1.4-11.2-8.6-11.2-19.2c-0.1-11,10-18.5,11.7-19.7
	C45.3,145.7,95.5,166.4,95.4,181.7z"/>
<path class="st10" d="M323.1,161.1c5,1,8.8,2.7,11.3,4.1c4.2,2.3,9.1,5.1,11.2,10.7c1.5,3.9,0.9,7.4,0.6,8.6
	c-2,9.8-12.8,14.1-15.2,15c-3.5,1.4-6.5,1.8-8.5,1.9C322.7,188.1,322.9,174.6,323.1,161.1z"/>
<path class="st11" d="M182.7,299c0.1-72.6,0.2-145.3,0.3-217.9c15.1-4.4,30.1-8.8,45.2-13.2c5.2,1.6,12.3,4,20.5,7.7
	c5.9,2.7,24.6,11.4,40.2,26.1c5.8,5.5,36.4,34.4,36.3,78.6c-0.1,25.9-10.7,44.6-15.3,52.5c-15.8,27.1-38.3,40-50.9,47
	C228.2,296.8,198.8,299.1,182.7,299z"/>
<path class="st12" d="M129.7,297.2c5.4,4.1,10.1,7.3,13.6,9.6c8.6,5.7,14,9.3,21.9,12.5c5.1,2,9.5,3.2,12.4,3.9
	c-0.1-6.3-0.1-12.6-0.1-19c-5.2,0.1-10.9-0.2-17-0.8C148.7,302.2,138.4,299.8,129.7,297.2z"/>
<path class="st13" d="M177.6,304.2c5.5,0.2,11.6,0.2,18.2-0.3c10.5-0.8,19.8-2.6,27.5-4.6c-3.9,3.3-7.4,5.8-9.9,7.6
	c-6,4.1-15.2,10.5-28.3,14.5c-3.1,0.9-5.7,1.5-7.4,1.9C177.7,316.9,177.6,310.6,177.6,304.2z"/>
<path class="st14" d="M307.4,231c-3.9-31.7-12-62.7-17.8-94.1c-0.2-0.9-0.6-3.4-2.6-5.5c-3.4-3.6-9-3.5-10.9-3.5
	c-8.8,0.1-44.7-0.1-94,0c-49.9-0.2-86.3,0-95.2,0c-1.8,0-6.7,0-9.9,3.2c-2.3,2.3-2.7,5.2-2.9,6.2c-10.6,51.4-18,89-18.6,93.6
	c-0.2,1-0.4,3.4,0.9,5.7c0.4,0.7,1.1,1.8,3.5,3.6c1.7,1.2,4.2,2.8,7.8,4.1c4.2,1.5,7.4,2.3,7.7,2.4c29.8,6.7,47,8.6,47,8.6
	c13,1.4,23.1,1.9,31.1,2.2c4.9,0.2,14.3,0.5,28.1,0.5c20.1-0.1,37-0.1,59.3-2.5c23.4-3.4,40.7-6.7,46.7-8.4c3.1-0.9,7-2.4,7.9-2.8
	c3.1-1.2,5.4-2.4,7.8-4.1c2.4-1.8,3.1-2.9,3.5-3.6C307.8,234.4,307.5,232,307.4,231z"/>
<path class="st15" d="M297.3,227.1c-0.8-7-7.1-35-8.9-43.5c-2.9-14-5.7-28-8.5-42.1c-0.3-0.8-0.9-2.6-2.6-4
	c-2.6-2.3-5.7-2.2-6.4-2.2c-27.1,0-54.2-0.1-81.3-0.1c-2.6,0-5.1,0-7.7,0c-2.6,0-5.1,0-7.7,0c-27.1,0-54.2,0.1-81.3,0.1
	c-0.7-0.1-3.8-0.1-6.4,2.2c-1.7,1.5-2.4,3.2-2.6,4c-2.3,7.6-7.8,37.8-8.5,42.1c-0.1,0.3-2.2,10.4-9.2,43.4c-0.1,0.6-0.3,1.7,0,3
	c0.3,1.4,0.9,2.5,1.2,3c3.1,5.1,10.8,7,12.5,7.4c14.5,3.6,18.8,4.3,18.8,4.3c14.4,2.3,21.6,3.5,22,3.5c21.5,2.7,39.1,3.1,53,3.2
	c3,0.1,5.7,0.1,8.2,0.1c2.5,0,5.2,0,8.2-0.1c13.9-0.2,31.5-0.5,53-3.2c0.5-0.1,7.7-1.2,22.1-3.5c0,0,4.3-0.7,18.8-4.3
	c3.6-1.2,6.3-2.8,8-4c2.2-1.6,4.4-3.2,5.2-5.9C297.5,228.9,297.3,227.6,297.3,227.1z"/>
<path class="st16" d="M89,136c60.3,35.9,120.6,71.8,180.9,107.7c4.4-0.9,8.1-1.8,10.9-2.6c2.6-0.6,4-1,5.9-1.9
	c2.8-1.2,4.6-2.6,6.1-3.7c2-1.4,2.6-2.2,3-2.9c1.1-1.7,1.4-3.2,1.4-3.5c0.1-0.8,0.1-1.5,0-2c-3-14.5-5.9-29-8.9-43.5
	c-2.9-14-5.7-28-8.5-42.1c-0.2-0.5-0.4-1.1-0.8-1.8c-0.7-1.2-1.5-1.9-1.8-2.2c-0.3-0.3-1.5-1.2-3.3-1.8c-1.3-0.4-2.3-0.4-2.7-0.4
	c-2.5,0-77,0-178.9,0c-0.2,0-0.4,0-0.7,0.1c-0.7,0.1-1.3,0.2-1.6,0.3C89.8,135.8,89.5,135.9,89,136z"/>
<path class="st17" d="M127.6,227.8c15.5,0,28-12.5,28-27.8s-12.6-27.8-28-27.8c-15.5,0-28,12.5-28,27.8S112.1,227.8,127.6,227.8z"/>
<path class="st18" d="M129.6,227.7c-2.4-0.4-5.8-1.2-9.6-3.1c-2.7-1.3-6.4-3.1-9.6-6.8c-6.1-7.1-5.4-16-5.3-17.4
	c0.8-9,6.4-14.5,8-16c1.8-1.6,6.9-5.8,14.7-6.5c6-0.5,10.8,1.4,13,2.5c7.8,3.8,11,10.6,11.9,12.6c2.4,5.3,2.5,10.1,2.3,12.7
	c0.7,0.1,1.3,0.1,1.9,0.2c0.2-3.9,0.4-7.8,0.6-11.8c-2.4-4.8-4.8-9.7-7.1-14.6c-4.9-2.9-9.8-5.8-14.7-8.7
	c-5.4-0.2-10.7-0.4-16.1-0.7c-3.5,1.7-6.9,3.4-10.4,5.1c-3.2,3.9-6.3,7.9-9.5,11.9c-0.8,4.1-1.6,8.2-2.3,12.4
	c0.9,4.1,1.8,8.2,2.7,12.3c2.7,3.7,5.4,7.4,8.1,11.1c2.7,1.4,5.4,2.8,8.1,4.2c3,0.7,6,1.4,9,2.1
	C126.7,228.7,128.2,228.2,129.6,227.7z"/>
<path class="st19" d="M112,181.5c0,6.4,6.9,11.5,15.5,11.5s15.5-5.1,15.5-11.5s-6.9-11.5-15.5-11.5S112,175.1,112,181.5z"/>
<path class="st19" d="M127.7,165.7c-18.4,0-33.4,14.8-33.4,33.1s15,33.1,33.4,33.1c18.4,0,33.4-14.8,33.4-33.1
	S146.2,165.7,127.7,165.7z M127.6,227.7c-15.5,0-28-12.4-28-27.8c0-15.4,12.5-27.8,28-27.8c15.5,0,28,12.4,28,27.8
	C155.7,215.3,143.1,227.7,127.6,227.7z"/>
<path class="st17" d="M238.2,227.8c15.5,0,28-12.5,28-27.8s-12.6-27.8-28-27.8s-28,12.5-28,27.8S222.7,227.8,238.2,227.8z"/>
<path class="st18" d="M236.2,227.7c2.4-0.4,5.8-1.2,9.6-3.1c2.7-1.3,6.4-3.1,9.6-6.8c6.1-7.1,5.4-16,5.3-17.4c-0.8-9-6.4-14.5-8-16
	c-1.8-1.6-6.9-5.8-14.7-6.5c-6-0.5-10.8,1.4-13,2.5c-7.8,3.8-11,10.6-11.9,12.6c-2.4,5.3-2.5,10.1-2.3,12.7
	c-0.7,0.1-1.3,0.1-1.9,0.2c-0.2-3.9-0.4-7.8-0.6-11.8c2.4-4.8,4.8-9.7,7.1-14.6c4.9-2.9,9.8-5.8,14.7-8.7c5.4-0.2,10.7-0.4,16.1-0.7
	c3.5,1.7,6.9,3.4,10.4,5.1c3.2,3.9,6.3,7.9,9.5,11.9c0.8,4.1,1.6,8.2,2.3,12.4c-0.9,4.1-1.8,8.2-2.7,12.3c-2.7,3.7-5.4,7.4-8.1,11.1
	c-2.7,1.4-5.4,2.8-8.1,4.2c-3,0.7-6,1.4-9,2.1C239.2,228.7,237.7,228.2,236.2,227.7z"/>
<path class="st19" d="M223,181.5c0,6.4,6.9,11.5,15.5,11.5s15.5-5.1,15.5-11.5s-6.9-11.5-15.5-11.5S223,175.1,223,181.5z"/>
<path class="st19" d="M204.8,198.8c0,18.3,15,33.1,33.4,33.1c18.4,0,33.4-14.8,33.4-33.1s-15-33.1-33.4-33.1
	C219.7,165.7,204.8,180.5,204.8,198.8z M210.2,200c0-15.3,12.5-27.8,28-27.8c15.5,0,28,12.4,28,27.8s-12.5,27.8-28,27.8
	C222.8,227.7,210.2,215.3,210.2,200z"/>
<path class="st20" d="M174.3,241.6c1.6,0,2.9-1.3,2.9-2.8c0-1.6-1.3-2.8-2.9-2.8c-1.6,0-2.9,1.3-2.9,2.8
	C171.4,240.3,172.7,241.6,174.3,241.6z"/>
<path class="st20" d="M188.6,241.6c1.6,0,2.9-1.3,2.9-2.8c0-1.6-1.3-2.8-2.9-2.8c-1.6,0-2.9,1.3-2.9,2.8
	C185.7,240.3,187,241.6,188.6,241.6z"/>
<path class="st1" d="M172.9,293.6c2.9,0,5.2-2.3,5.2-5.2c0-2.9-2.3-5.2-5.2-5.2c-2.9,0-5.2,2.3-5.2,5.2
	C167.7,291.3,170,293.6,172.9,293.6z"/>
<path class="st1" d="M172.6,293.1c2.8,0,5-2.2,5-4.9c0-2.7-2.2-4.9-5-4.9c-2.8,0-5,2.2-5,4.9C167.7,290.9,169.9,293.1,172.6,293.1z"
	/>
<path class="st21" d="M183,291.5c1.6,0,2.9-1.3,2.9-2.9s-1.3-2.9-2.9-2.9c-1.6,0-2.9,1.3-2.9,2.9S181.3,291.5,183,291.5z"/>
<path class="st22" d="M182.8,291.2c1.5,0,2.8-1.2,2.8-2.7c0-1.5-1.2-2.7-2.8-2.7c-1.5,0-2.8,1.2-2.8,2.7
	C180,290,181.3,291.2,182.8,291.2z"/>
<path class="st21" d="M190.1,291.5c1.6,0,2.9-1.3,2.9-2.9s-1.3-2.9-2.9-2.9c-1.6,0-2.9,1.3-2.9,2.9S188.5,291.5,190.1,291.5z"/>
<path class="st22" d="M190,291.2c1.5,0,2.8-1.2,2.8-2.7c0-1.5-1.2-2.7-2.8-2.7c-1.5,0-2.8,1.2-2.8,2.7
	C187.2,290,188.4,291.2,190,291.2z"/>
<path class="st1" d="M149.5,54.4c-1.6,0.3-4.2,1.1-6.8,3c-1.6,1.1-6,4.3-6,8.3c0,0.5,0.1,3.2,3.8,6.3c10.6,9.2,36.2,9.8,41.2,9.8
	c1.3,0,2.3,0,2.6,0c6.3,0,15.6-0.1,26.1-3c5.9-1.6,8.6-3.1,9.3-3.5c3.7-2.1,8.6-5,8.8-9.5c0.3-5.5-6.7-9.6-7.3-9.9
	c-1.7-0.9-3.2-1.4-4.3-1.6C194.3,54.4,171.9,54.4,149.5,54.4z"/>
<path class="st23" d="M149.3,57.5c-0.5,0.1-1.2,0.4-1.9,0.9c-0.4,0.3-1.5,1.1-2,2.6c0,0-0.5,1.4,0.1,3.2c0.6,2,4.5,6,18.8,8.2
	c5.2,0.8,10,1.1,19.1,1c19-0.2,28.3-1.6,34.1-6.3c1.3-1,3.7-3.1,3.4-5.5c-0.4-2.6-3.7-4-4.3-4.2C194.2,57.4,171.7,57.5,149.3,57.5z"
	/>
<path class="st24" d="M216.8,5.1h-67.3v58.6h67.3V5.1z"/>
<path class="st2" d="M149.5,63.7c0.1,0.2,0.2,0.6,0.5,1.1c0.6,0.9,1.4,1.4,1.9,1.6c3,1.5,5,2,5,2c2.8,0.7,4.2,1,6.3,1.4
	c3.1,0.5,5.8,0.8,8.5,1c2.9,0.2,5.5,0.2,10.6,0.3c8.5,0.1,11,0,12.6-0.1c3.1-0.2,5.1-0.4,6.5-0.7c0.9-0.1,1.8-0.3,2.5-0.4
	c1.1-0.2,2.3-0.5,4.1-1c2.1-0.5,5.1-1.4,6.9-2.6c0.5-0.3,1.1-0.7,1.5-1.5c0.2-0.4,0.3-0.8,0.4-1C194.4,63.7,171.9,63.7,149.5,63.7z"
	/>
<path class="st2" d="M214.7,62.4c0-18.7,0-37.5,0-56.1c-20.9,19.1-41.9,38.3-62.8,57.4c1.7,0.7,4.1,1.5,7,2.4
	c6.5,1.8,11.7,2.1,17.1,2.3c6.8,0.3,11.8,0,16.8-0.3c10.2-0.7,14-1.8,17-3.1C211.9,64.1,213.6,63.1,214.7,62.4z"/>
<path class="st25" d="M178,25.2h-10.1v12.5H178V25.2z"/>
<path class="st25" d="M198.5,25.2h-10.1v12.5h10.1V25.2z"/>
<path class="st26" d="M185.1,45.2h-10.5V52h10.5V45.2z"/>
<path class="st27" d="M192,45.2h-6.9V52h6.9V45.2z"/>
<path class="st28" d="M216.8,0h-67.3v5.1h67.3V0z"/>
<g>
	<g>
		<path class="st0" d="M704.3-119.8c0.5-2.3,1.1-4.6,1.1-4.6c0.1-0.6,0.3-1,0.3-1.1c1.5-5,10.9-12,13.5-13.8c0.4-0.3,0.8-0.6,1-0.7
			c32-20.8,72.4-29.3,72.4-29.3c38.8-9.1,68.7-20,89.2-28.3c26.8-11,54.9-23.4,85-37.2c18.2-8.3,31.8-14.8,31.8-14.8
			c27-12.7,34.9-16.8,55.3-25.9c12.9-5.8,0.6-0.1,40.8-16.2c5.1-2.1,12.9-5.2,23.7-6.4c7.6-0.9,13.7-0.4,16.5-0.2
			c0.7,0.1,1.3,0.1,1.5,0.2h0.1c0.6,0.1,206.3-1.8,525.7-4.7c1.6,0,3.6,0,6.1,0.2c0,0,4.7,0.4,9.4,1.7
			c61.6,16.5,97.6,31.5,97.6,31.5c49.1,24.6,75.7,32.6,101.9,40.2c33.2,9.6,81.2,19.7,104.5,24.6c0,0,31.4,6.6,67.7,26.9
			c16.3,9.1,23,18.3,26.3,27.4c0.4,1.2,0.7,2.1,0.9,2.8c-42.2,170.7-84.4,341.3-126.7,512H877.5C776.7,86.6,703.8-117.7,704.3-119.8
			L704.3-119.8z"/>
		<path class="st1" d="M1973.3-206.3c9.2,3.1,32.3,12.2,43.3,35.1c3.4,7.1,4.7,13.1,5.8,20.5c5,30.9-3.4,57.2-5.8,64.7
			c-31.5,96.5-66.4,146.6-66.4,146.6c-92.4,132.6-222.8,286.5-237.7,304h-632.3c-78.5-82.6-136-152.9-174.7-203.2
			c-18.2-23.7-39.1-55.3-80.8-118.4c0,0-28-42.5-53.7-109.3c-5.3-13.7-10.1-29-8.4-48.6c2.2-24.2,13.6-42.3,21.1-52.3
			c5.5-1.3,13.1-3.1,22.1-5.5c26.4-7,48.6-14.6,68.5-22.1c35.1-13.2,61.8-25.7,92.3-40.1c28.2-13.3,56.6-26.3,84.8-39.6
			c13.1-6.2,27.1-10.4,40.4-16.2c5.2-2.2,14-6.2,26.5-7.6c7.5-0.8,13.1-0.4,14.2-0.3c14.5,0.9,204.2-0.7,535.6-4.1
			c6.4,1.4,15.5,3.5,26.3,6.3c18,4.7,46.1,12.2,78.2,25.8c21.9,9.3,22.1,11.4,47.1,21.6c7.7,3.1,20.8,8.2,37.5,13.7
			c19.9,6.5,34.5,10.1,56.2,15.5C1937.7-213.6,1958.3-209.3,1973.3-206.3L1973.3-206.3z"/>
		<path class="st2" d="M1150.5-278.3c87.9-3.4,175.8-6.8,263.7-10.2c64.8,16.6,129.5,33.1,194.3,49.7
			C1540.3-73.1,1472,92.7,1403.7,258.4C1319.4,79.5,1235-99.4,1150.5-278.3L1150.5-278.3z"/>
		<path class="st3" d="M1314.8-177.6c10.1,62.5,20.2,124.9,30.4,187.4c36.3-33.1,72.6-66.2,108.9-99.3
			c8.6-36.3,17.3-72.6,25.9-108.9c-6.5-15.4-12.9-30.9-19.4-46.3c-50.8,8.1-101.7,16.3-152.5,24.4
			C1310.3-206.1,1312.5-191.9,1314.8-177.6L1314.8-177.6z"/>
		<path class="st1" d="M789.1,364.6c-10.2-19.6-51.5-100.1-80.4-184.1c-15.8-46.1-28.6-94.9-35.8-123c-2.9-11.2-11-43.4-10.1-83.8
			c0.1-6.9,0.5-21.4,5.4-39.2c0.6-2.2,5.7-19.9,19.1-39.2c9.7-14,14.3-15.2,17.1-15.2c9-0.1,15.3,11.7,16.2,13.4
			c5.3,10.7,13.5,27.4,23.2,48c18.9,39.8,52.7,112.6,120.9,280.3c14.5,35.7,34.1,84.4,57,142.8L789.1,364.6L789.1,364.6z"/>
		<path class="st1" d="M2004.4,365.6c10.7-29.7,19.5-53.9,25.4-69.9c32.1-87.8,63-176.1,96-263.6c1.5-4.1,5.8-15.3,7.2-30.8
			c0.8-9.6,0.3-18.3-1.4-30.1c-1.5-9.9-6.2-36.9-25-80.1c-16.2-37.2-22-38.5-24.3-38.1c-3,0.5-4.9,4.3-6.1,7.6
			c-28.6,74.1-56.8,152.6-83.7,235.3c-30.5,93.5-56.5,183.7-78.9,269.7H2004.4L2004.4,365.6z"/>
		<path class="st6" d="M1002-251.2c22.5,22.6,42.1,39,55.9,49.8c0,0,33,28.1,78.9,77c1.8,1.9,4.9,5.8,5.4,11.2
			c0.6,5.4-1.7,9.7-3.2,12.2c-9.2,16.2-19.4,26.9-19.4,26.9c-6.3,6.6-15.3,16.3-26.2,29.2c103.5,101.1,206.9,202.2,310.4,303.3
			c-22.1-51.2-53.2-123-91-209.5c-50.3-115.1-72.9-164.6-106.6-228.2c-22.3-42.1-42-76.2-55.6-99c-7.5-6.9-15-13.8-22.5-20.7
			c-3.2,0.2-6.9,0.5-11.1,1.1c-0.6,0.1-5.8,0.8-11.5,2.3c-12.7,3.5-26.1,10-26.1,10c-15.2,7.4-10.4,3.7-40.4,17.1
			C1028-263.6,1015.6-257.9,1002-251.2L1002-251.2z"/>
		<path class="st6" d="M1668.2-302.6c1.5,0.3,3.7,0.8,6.2,1.4c3.7,0.8,11.8,2.7,22.5,5.6c7.5,2,19.4,5.1,31,8.8
			c11.7,3.7,27.9,9.5,47.1,18.4c-24.4,18.6-50.1,39.7-76.4,63.7c-24.9,22.6-47.1,44.9-67,66.3c-0.5,0.4-7.3,6.8-5.6,14.6
			c0.5,2.3,1.7,4.1,2.7,5.3c4.4,6.5,9.6,13.4,15.7,20.6c6.6,7.8,13.2,14.4,19.3,20c-12.5,18.7-31,46.2-53.8,79.4
			c0,0-41,59.7-108,149.8c-15.8,21.3-35.2,47.1-65.5,77c-13.2,13-24.7,23.2-32.8,30c68.2-165.7,136.5-331.5,204.8-497.2
			C1628.4-260.1,1648.3-281.3,1668.2-302.6L1668.2-302.6z"/>
		<path class="st4" d="M1403.8,258.4c-0.7-178.4-1.3-356.7-2-535.1c-21.9,25-43.9,49.9-65.8,74.9c7.8,7.3,15.5,14.6,23.3,21.8
			c-7.1,95.5-14.2,191-21.4,286.6C1359.9,157.2,1381.8,207.8,1403.8,258.4L1403.8,258.4z"/>
		<path class="st5" d="M1401.8-276.7c23.7,23.7,47.5,47.5,71.2,71.2c-9,10.8-17.9,21.6-26.9,32.4c8.6,88.9,17.1,177.7,25.6,266.6
			c-22.6,55-45.3,109.9-67.9,164.9C1403.1,80,1402.4-98.3,1401.8-276.7L1401.8-276.7z"/>
	</g>
	<g>
		<path class="st6" d="M1843.9,143.3c-13.8,10.6-27.6,21.3-41.4,31.9c-33.6,0.1-67.1,0.3-100.7,0.4c-12.8-10.4-25.7-20.7-38.5-31.1
			c0.4-39.3,0.7-78.6,1.1-117.8c60.3-0.1,120.6-0.3,181-0.4C1844.9,65.2,1844.4,104.3,1843.9,143.3L1843.9,143.3z"/>
		<path class="st1" d="M1834.4,31.6c-0.1,35.4-0.2,70.9-0.2,106.3c-11.5,9.3-23,18.6-34.5,27.9c-30.1,0.2-60.2,0.5-90.3,0.7
			c-11.5-9.4-23.1-18.8-34.6-28.2C1727.9,102.8,1781.2,67.2,1834.4,31.6L1834.4,31.6z"/>
	</g>
</g>
</svg>
