<svg width="1081" height="800" viewBox="0 0 1081 800" fill="none" xmlns="http://www.w3.org/2000/svg">
<path d="M506.551 650.094L507.536 649.969C507.536 620.794 521.439 592.995 544.044 566.701C566.648 540.409 597.916 515.664 632.556 492.608C667.193 469.554 705.179 448.203 741.206 428.69C751.702 423.005 762.032 417.476 772.066 412.106C796.462 399.048 819.099 386.932 838.072 375.813C910.093 333.72 970.704 286.252 1013.31 226.845C1055.92 167.429 1080.5 96.0952 1080.5 6.31122C1080.5 -132.621 1021.91 -236.851 923.85 -306.33C825.814 -375.795 688.366 -410.5 530.663 -410.5C386.983 -410.5 255.434 -376.53 159.424 -301.888C63.3968 -227.232 2.97796 -111.931 1.50002 50.5951L1.49543 51.0996H2H380.038H380.538V50.5996C380.538 -33.9857 448.218 -93.576 527.71 -93.576C601.316 -93.576 660.114 -43.5617 660.114 29.9316C660.114 71.1001 642.289 104.383 612.722 135.046C583.141 165.724 541.842 193.744 494.949 224.382C467.342 242.349 451.12 265.788 443.117 293.887C435.12 321.968 435.339 354.679 440.559 391.197C445.781 427.718 456.011 468.086 468.066 511.492C471.992 525.626 476.11 540.082 480.313 554.833C489.021 585.395 498.091 617.225 506.551 650.094ZM507.036 1146.5C615.845 1146.5 712.795 1054.75 714.276 939.327L714.275 939.314C712.795 826.837 615.841 735.094 507.036 735.094C392.329 735.094 298.319 826.833 299.796 939.321C298.319 1054.76 392.324 1146.5 507.036 1146.5Z" stroke="#330BFF"/>
</svg>
