<?xml version="1.0" encoding="UTF-8"?>
<svg id="Layer_1" data-name="Layer 1" xmlns="http://www.w3.org/2000/svg" xmlns:xlink="http://www.w3.org/1999/xlink" viewBox="0 0 2000 2000">
  <defs>
    <style>
      .cls-1 {
        fill: #f0b888;
      }

      .cls-2 {
        fill: #ff800d;
      }

      .cls-3 {
        fill: #555;
      }

      .cls-4 {
        fill: #959593;
      }

      .cls-5 {
        fill: #fff;
      }

      .cls-6 {
        fill: #f2ddcc;
      }

      .cls-7 {
        fill: #dbdbdb;
      }

      .cls-8 {
        fill: #bfbfbf;
      }

      .cls-9 {
        fill: #e2e2e2;
      }

      .cls-10 {
        fill: #04041c;
      }

      .cls-11 {
        fill: #4e4e4e;
      }

      .cls-12 {
        fill: #0c0c60;
      }

      .cls-13 {
        fill: #eed5c0;
      }

      .cls-14 {
        fill: #f8dec8;
      }

      .cls-15 {
        fill: #fbfbff;
      }

      .cls-16 {
        fill: #0d0870;
      }

      .cls-17 {
        fill: #f9f9f9;
      }

      .cls-18 {
        fill: #ffe9d7;
      }

      .cls-19 {
        fill: #ebebeb;
      }

      .cls-20 {
        fill: #d5d5d5;
      }

      .cls-21 {
        fill: #dcdcdc;
      }

      .cls-22 {
        fill: #535353;
      }

      .cls-23 {
        fill: #bdcade;
      }

      .cls-24 {
        fill: #0d0463;
      }

      .cls-25 {
        fill: #d6680d;
      }

      .cls-26 {
        fill: url(#linear-gradient);
      }

      .cls-27 {
        fill: #7f7f7f;
      }

      .cls-28 {
        fill: #cacacf;
      }

      .cls-29 {
        fill: #ececec;
      }
    </style>
    <linearGradient id="linear-gradient" x1="310.05" y1="806.7" x2="661.69" y2="806.7" gradientUnits="userSpaceOnUse">
      <stop offset="0" stop-color="#f4f4f4"/>
      <stop offset=".11" stop-color="#f4f4f4" stop-opacity=".93"/>
      <stop offset=".33" stop-color="#f4f4f4" stop-opacity=".76"/>
      <stop offset=".64" stop-color="#f4f4f4" stop-opacity=".47"/>
      <stop offset="1" stop-color="#f4f4f4" stop-opacity=".1"/>
    </linearGradient>
  </defs>
  <g>
    <g>
      <path class="cls-24" d="m306.27,1557.57c.46-2.35,1.06-4.61,1.06-4.61.15-.55.27-.99.3-1.08,1.45-5.03,10.94-11.96,13.53-13.81.39-.28.8-.58.97-.69,31.96-20.77,72.45-29.26,72.45-29.26,38.78-9.13,68.71-19.96,89.17-28.33,26.81-10.96,54.94-23.36,84.99-37.16,18.16-8.33,31.84-14.76,31.84-14.76,26.96-12.66,34.9-16.8,55.27-25.93,12.88-5.77.63-.05,40.81-16.25,5.08-2.05,12.86-5.19,23.69-6.42,7.56-.86,13.65-.45,16.52-.17.71.07,1.27.13,1.47.16.04,0,.08,0,.08,0,.6.07,206.28-1.78,525.71-4.69,1.56-.03,3.64-.01,6.08.21,0,0,4.72.42,9.39,1.68,61.64,16.53,97.58,31.52,97.58,31.52,49.12,24.56,75.65,32.61,101.94,40.24,33.19,9.63,81.21,19.73,104.5,24.63,0,0,31.36,6.6,67.68,26.95,16.27,9.12,22.96,18.31,26.28,27.44.42,1.16.72,2.13.9,2.79-42.22,170.65-84.43,341.3-126.65,511.96H479.45c-100.71-278.03-173.61-482.24-173.19-484.42Z"/>
      <path class="cls-16" d="m1575.33,1471.11c9.21,3.07,32.29,12.24,43.3,35.14,3.42,7.11,4.66,13.12,5.85,20.48,5,30.94-3.41,57.21-5.85,64.68-31.52,96.54-66.4,146.57-66.4,146.57-92.43,132.6-222.78,286.49-237.67,304.02h-632.33c-78.54-82.62-135.95-152.87-174.67-203.19-18.25-23.71-39.09-55.28-80.76-118.42,0,0-28.03-42.47-53.74-109.29-5.28-13.74-10.11-29.02-8.37-48.55,2.16-24.24,13.56-42.34,21.11-52.26,5.52-1.27,13.13-3.08,22.12-5.47,26.36-6.99,48.56-14.58,68.51-22.1,35.07-13.23,61.81-25.74,92.32-40.09,28.23-13.28,56.57-26.32,84.78-39.63,13.11-6.19,27.06-10.42,40.37-16.18,5.16-2.23,14.04-6.15,26.48-7.55,7.46-.84,13.09-.42,14.23-.35,14.51.87,204.19-.65,535.63-4.13,6.41,1.41,15.48,3.5,26.29,6.34,17.99,4.73,46.09,12.22,78.17,25.84,21.88,9.29,22.11,11.45,47.14,21.59,7.71,3.13,20.85,8.25,37.47,13.7,19.86,6.51,34.53,10.08,56.21,15.47,24.23,6.03,44.77,10.39,59.84,13.38Z"/>
      <path class="cls-9" d="m752.55,1399.05c87.9-3.39,175.79-6.78,263.69-10.16,64.77,16.57,129.54,33.14,194.3,49.71-68.25,165.73-136.5,331.46-204.75,497.19-84.41-178.91-168.83-357.83-253.24-536.74Z"/>
      <path class="cls-23" d="m916.79,1499.76c10.12,62.47,20.25,124.94,30.37,187.41,36.3-33.1,72.61-66.21,108.91-99.31,8.63-36.32,17.27-72.63,25.9-108.95-6.46-15.44-12.92-30.87-19.38-46.31-50.85,8.14-101.69,16.29-152.54,24.43,2.24,14.24,4.48,28.48,6.73,42.73Z"/>
      <path class="cls-16" d="m391.09,2041.99c-10.21-19.64-51.51-100.09-80.38-184.05-15.84-46.08-28.57-94.93-35.82-123.02-2.88-11.15-10.98-43.38-10.14-83.81.14-6.89.55-21.42,5.41-39.2.61-2.23,5.72-19.92,19.06-39.16,9.7-14,14.28-15.15,17.06-15.17,9.02-.06,15.34,11.7,16.23,13.41,5.27,10.69,13.46,27.41,23.23,47.96,18.92,39.77,52.73,112.63,120.86,280.27,14.5,35.68,34.11,84.39,57.03,142.79h-132.53Z"/>
      <path class="cls-16" d="m1606.37,2043c10.71-29.69,19.52-53.86,25.38-69.89,32.1-87.84,63-176.12,96.01-263.62,1.53-4.06,5.81-15.33,7.16-30.8.83-9.55.35-18.32-1.43-30.08-1.5-9.94-6.18-36.94-24.96-80.12-16.18-37.2-21.99-38.49-24.35-38.12-3.01.47-4.95,4.34-6.14,7.64-28.64,74.12-56.77,152.6-83.71,235.31-30.47,93.54-56.53,183.67-78.88,269.68h90.93Z"/>
      <path class="cls-12" d="m603.96,1426.18c22.46,22.58,42.13,38.99,55.89,49.77,0,0,33.03,28.13,78.88,77.01,1.78,1.9,4.86,5.78,5.42,11.19.56,5.45-1.73,9.72-3.15,12.23-9.15,16.21-19.4,26.92-19.4,26.92-6.34,6.62-15.35,16.35-26.17,29.19,103.46,101.1,206.91,202.2,310.37,303.3-22.12-51.18-53.24-122.99-91.04-209.51-50.27-115.07-72.93-164.62-106.63-228.22-22.32-42.14-42.03-76.2-55.58-99.01-7.49-6.9-14.98-13.81-22.46-20.71-3.16.16-6.91.48-11.11,1.11-.6.09-5.81.78-11.46,2.34-12.71,3.52-26.07,10.02-26.07,10.02-15.18,7.38-10.42,3.71-40.4,17.06-11.02,4.9-23.48,10.66-37.09,17.31Z"/>
      <path class="cls-12" d="m1270.22,1374.8c1.52.33,3.66.81,6.21,1.4,3.65.84,11.76,2.74,22.48,5.58,7.5,1.99,19.38,5.14,30.98,8.83,11.71,3.72,27.86,9.49,47.13,18.39-24.38,18.57-50.09,39.71-76.42,63.68-24.86,22.63-47.13,44.94-66.99,66.3-.5.45-7.29,6.83-5.55,14.6.52,2.33,1.66,4.12,2.67,5.35,4.38,6.47,9.58,13.44,15.72,20.63,6.62,7.75,13.18,14.4,19.3,20.02-12.48,18.72-30.97,46.25-53.75,79.4,0,0-41.04,59.72-107.96,149.81-15.85,21.33-35.15,47.05-65.5,77.03-13.18,13.02-24.73,23.17-32.77,29.98,68.25-165.73,136.5-331.46,204.75-497.19,19.89-21.27,39.79-42.53,59.68-63.8Z"/>
      <path class="cls-2" d="m1005.79,1935.79c-.67-178.36-1.34-356.72-2.02-535.07-21.93,24.97-43.86,49.94-65.79,74.91,7.77,7.28,15.55,14.56,23.32,21.84-7.12,95.52-14.25,191.04-21.37,286.57,21.95,50.59,43.9,101.18,65.85,151.76Z"/>
      <path class="cls-25" d="m1003.78,1400.71c23.73,23.73,47.46,47.46,71.19,71.19-8.98,10.8-17.95,21.6-26.93,32.41,8.55,88.87,17.1,177.74,25.64,266.61-22.63,54.96-45.26,109.91-67.9,164.87-.67-178.36-1.34-356.72-2.02-535.07Z"/>
    </g>
    <g>
      <path class="cls-12" d="m1445.91,1820.66c-13.81,10.63-27.62,21.26-41.43,31.9-33.55.14-67.11.28-100.66.41-12.84-10.36-25.68-20.71-38.53-31.07.37-39.28.73-78.57,1.1-117.85,60.32-.14,120.64-.29,180.96-.43-.48,39.01-.97,78.03-1.45,117.04Z"/>
      <path class="cls-16" d="m1436.37,1709.02c-.08,35.43-.16,70.86-.23,106.3-11.5,9.31-23,18.62-34.49,27.92-30.11.23-60.23.47-90.34.7-11.54-9.4-23.09-18.79-34.63-28.19,53.23-35.58,106.47-71.16,159.7-106.73Z"/>
    </g>
  </g>
  <g>
    <g>
      <g>
        <path class="cls-17" d="m1003.78,1400.71c-37.48,42.68-74.96,85.35-112.44,128.03-53.75-50.13-107.5-100.27-161.25-150.4-.02-1.25.08-2.87.51-4.69.54-2.29,1.4-4.08,2.12-5.31,16.28-26.11,32.57-52.21,48.85-78.32v-4.57c-18.72-5.62-44.97-14.44-75.22-27.86-45.95-20.38-142.19-64.35-221.53-163.11-52.94-65.9-80.6-134.07-95.47-186.99-10.43-2.75-27.63-8.78-44.2-22.82-4.08-3.46-39.35-34.26-39.26-78.66.09-43,33.32-84.39,82.77-99.81,16.12-62.3,39.9-108.48,58.28-138.58,89.76-147.05,231.16-206.57,286.58-229.01,13.91-5.63,56.41-22.29,116.38-35.04,74.99-15.95,203.37-31.34,366.56,8.97,33.58,8.73,80.67,23.75,133.25,50.42,147.01,74.56,222.08,186.07,222.08,186.07,20.9,31.02,50.2,82.16,69.17,153.53,11.5,2.68,33.26,9.43,53.28,27.74,6.72,6.15,40.31,36.87,37.24,82.07-2.62,38.66-30.33,62.64-42.05,72.79-19.35,16.75-39.45,24.17-51.62,27.61-10.16,34.99-22.61,64.94-35.22,90.04,0,0-15.9,31.49-36.2,60.82-52.4,75.71-159.59,169.88-305.01,217.41-22.82,7.46-41.44,12.09-51.12,14.37v3.94c19.99,25.16,39.98,50.31,59.96,75.47-47.1,50.35-94.2,100.7-141.3,151.05-41.71-41.71-83.43-83.42-125.14-125.13Z"/>
        <path class="cls-29" d="m739.41,1376.64c17.36-29.76,34.72-59.53,52.09-89.29,30.24,74.05,60.49,148.11,90.73,222.16-47.61-44.29-95.21-88.58-142.82-132.87Z"/>
        <path class="cls-29" d="m1259.78,1374.16c-42.5,45.14-84.99,90.28-127.49,135.42,24.97-67.46,49.94-134.93,74.9-202.39,17.53,22.32,35.05,44.65,52.58,66.97Z"/>
      </g>
      <path class="cls-26" d="m661.69,807.45c-.26,64.08-211.68,149.52-304.99,80.37-7.89-5.84-46.49-36.18-46.65-80.37-.17-46.09,41.6-77.57,48.8-82.76,94.53-68.14,303.09,19.01,302.84,82.76Z"/>
    </g>
    <g>
      <path class="cls-20" d="m1608.37,721.45c21.02,4.09,36.73,11.41,46.8,17.07,17.55,9.86,37.97,21.33,46.63,44.91,6.03,16.41,3.63,31.22,2.6,36.27-8.38,41.12-53.17,59.09-63.05,63.05-14.37,5.77-27.12,7.6-35.31,8.26.78-56.52,1.55-113.05,2.33-169.57Z"/>
      <path class="cls-21" d="m1024.59,1299.22c.35-304.38.71-608.77,1.06-913.15,62.56-18.42,125.13-36.85,187.69-55.27,21.6,6.61,51.24,16.86,85.1,32.49,24.53,11.32,102.19,47.81,166.98,109.4,24.17,22.97,151.47,143.98,150.85,329.34-.36,108.41-44.29,186.89-63.34,219.95-65.44,113.61-159.32,167.58-211.89,196.92-127.29,71.04-249.56,80.52-316.46,80.33Z"/>
    </g>
  </g>
  <g>
    <path class="cls-6" d="m804.45,1291.62c22.51,17.18,41.98,30.73,56.48,40.46,35.77,24,58.48,39.06,91.04,52.27,21.14,8.57,39.38,13.5,51.81,16.37-.13-26.53-.26-53.06-.39-79.59-21.8.14-45.51-.79-70.81-3.37-49.35-5.03-92.44-15.08-128.13-26.13Z"/>
    <path class="cls-13" d="m1003.39,1321.12c22.97.92,48.39.7,75.84-1.46,43.75-3.44,82.23-11,114.41-19.54-16.23,13.83-30.52,24.41-41.08,31.81-24.94,17.47-63.29,43.91-117.75,60.73-12.91,3.99-23.76,6.52-31.02,8.05-.13-26.53-.26-53.06-.39-79.59Z"/>
  </g>
  <g>
    <g>
      <path class="cls-22" d="m1543.03,1014.4c-16.2-132.7-50.07-262.64-74.09-394.15-.68-3.7-2.5-14.36-10.74-23.23-14.1-15.17-37.34-14.74-45.53-14.64-36.58.46-185.79-.25-391.05-.01-207.4-.57-358.89.04-395.85.01-7.44,0-27.77-.05-41.11,13.48-9.52,9.65-11.18,22.06-12.04,26.24-43.88,215.15-74.83,372.99-77.21,392.29-.55,4.49-1.64,14.36,3.46,24.06,1.51,2.88,4.5,7.52,14.49,14.97,6.85,5.11,17.56,11.95,32.48,17.38,17.31,6.3,30.81,9.84,32.1,10.13,123.7,28.25,195.25,36.12,195.25,36.12,54.3,5.97,95.78,7.86,129.25,9.33,20.21.89,59.63,2.36,116.77,2.18,83.8-.26,153.84-.48,246.38-10.66,97.32-14.25,169.37-28.08,194.33-35.33,12.92-3.75,29.17-10.36,32.66-11.78,13.06-5.32,22.56-9.98,32.48-17.38,9.99-7.45,12.98-12.09,14.49-14.97,5.25-9.99,3.93-20.15,3.46-24.06Z"/>
      <path class="cls-18" d="m1501.09,997.9c-3.19-29.34-29.78-146.69-36.93-182.08-11.86-58.72-23.67-117.45-35.43-176.21-1.06-3.49-3.81-10.81-10.81-17.01-10.8-9.57-23.69-9.35-26.67-9.23-112.7-.06-225.4-.11-338.1-.17v-.03c-10.59,0-21.18.01-31.78.02-10.59,0-21.18-.01-31.78-.02v.03c-112.7.06-225.4.11-338.1.17-2.98-.13-15.87-.34-26.67,9.23-7,6.2-9.75,13.52-10.81,17.01-9.72,32.13-32.25,158.46-35.43,176.21,0,0,0,0,0,0-.16,1.15-9.03,43.48-38.19,181.67-.51,2.78-1,7.28-.05,12.63,1.1,6.16,3.57,10.42,4.78,12.46,12.79,21.57,44.95,29.23,52.14,30.94h0c60.19,15.28,78,18.2,78,18.2,59.9,9.81,89.85,14.72,91.65,14.95,89.59,11.54,162.42,12.89,220.36,13.65,12.4.16,23.83.22,34.09.21,10.26,0,21.69-.05,34.09-.21,57.94-.76,130.77-2.11,220.36-13.65,1.8-.23,31.75-5.14,91.65-14.95,0,0,17.81-2.92,78-18.2h0c15.15-5.14,26.09-11.99,32.98-17.02,9.27-6.77,18.15-13.44,21.52-24.82,1.84-6.2,1.35-11.48,1.1-13.77Z"/>
      <path class="cls-14" d="m635.04,616.26c250.72,150.45,501.43,300.9,752.15,451.36,18.15-4.07,33.45-7.82,45.25-10.82,10.6-2.7,16.78-4.38,24.76-7.92,11.68-5.19,19.22-10.79,25.48-15.51,8.08-6.09,10.77-9.4,12.55-12.07,4.71-7.06,5.65-13.51,5.84-14.91.46-3.47.28-6.41.02-8.48-12.36-60.69-24.67-121.39-36.93-182.08-11.86-58.72-23.67-117.45-35.43-176.21-.63-2.08-1.65-4.83-3.36-7.81-2.84-4.95-6.12-8.03-7.44-9.2-1.33-1.18-6.11-5.23-13.69-7.56-5.28-1.62-9.64-1.69-11.24-1.7-10.37-.06-320.24-.07-744.05.01-.73.02-1.72.07-2.89.19-2.9.29-5.16.84-6.44,1.18-1.26.34-2.82.83-4.58,1.54Z"/>
    </g>
    <g>
      <circle class="cls-5" cx="795.65" cy="884.07" r="116.5"/>
      <path class="cls-19" d="m803.97,1000.28c-9.89-1.77-24.05-5.31-39.71-12.95-11.01-5.38-26.67-13.02-39.77-28.46-25.3-29.84-22.67-67.13-22.18-72.83,3.25-37.87,26.6-60.99,33.07-66.97,7.36-6.81,28.64-24.49,61.11-27.21,25.22-2.11,44.72,5.84,54,10.46,32.39,16.15,45.58,44.29,49.39,52.74,10.03,22.25,10.34,42.51,9.72,53.33,2.62.36,5.24.73,7.86,1.09.84-16.46,1.67-32.93,2.51-49.39-9.91-20.37-19.81-40.74-29.72-61.11-20.37-12.14-40.74-24.28-61.11-36.42-22.32-.98-44.65-1.95-66.97-2.93-14.37,7.12-28.74,14.23-43.11,21.35-13.12,16.6-26.23,33.21-39.35,49.81-3.21,17.3-6.42,34.6-9.63,51.9,3.77,17.16,7.53,34.32,11.3,51.49,11.16,15.49,22.32,30.98,33.49,46.46,11.16,5.86,22.32,11.72,33.49,17.58,12.42,2.93,24.84,5.86,37.25,8.79,6.12-2.24,12.24-4.48,18.36-6.72Z"/>
      <ellipse class="cls-11" cx="795.45" cy="885.82" rx="17.37" ry="64.67"/>
      <path class="cls-11" d="m796,740.66c-76.64,0-138.76,62.13-138.76,138.76s62.13,138.76,138.76,138.76,138.76-62.13,138.76-138.76-62.13-138.76-138.76-138.76Zm-.35,259.91c-64.34,0-116.5-52.16-116.5-116.5s52.16-116.5,116.5-116.5,116.5,52.16,116.5,116.5-52.16,116.5-116.5,116.5Z"/>
    </g>
    <g>
      <circle class="cls-5" cx="1255.47" cy="884.07" r="116.5"/>
      <path class="cls-19" d="m1247.15,1000.28c9.89-1.77,24.05-5.31,39.71-12.95,11.01-5.38,26.67-13.02,39.77-28.46,25.3-29.84,22.67-67.13,22.18-72.83-3.25-37.87-26.6-60.99-33.07-66.97-7.36-6.81-28.64-24.49-61.11-27.21-25.22-2.11-44.72,5.84-54,10.46-32.39,16.15-45.58,44.29-49.39,52.74-10.03,22.25-10.34,42.51-9.72,53.33-2.62.36-5.24.73-7.86,1.09-.84-16.46-1.67-32.93-2.51-49.39,9.91-20.37,19.81-40.74,29.72-61.11,20.37-12.14,40.74-24.28,61.11-36.42,22.32-.98,44.65-1.95,66.97-2.93,14.37,7.12,28.74,14.23,43.11,21.35,13.12,16.6,26.23,33.21,39.35,49.81,3.21,17.3,6.42,34.6,9.63,51.9-3.77,17.16-7.53,34.32-11.3,51.49-11.16,15.49-22.32,30.98-33.49,46.46-11.16,5.86-22.32,11.72-33.49,17.58-12.42,2.93-24.84,5.86-37.25,8.79-6.12-2.24-12.24-4.48-18.36-6.72Z"/>
      <ellipse class="cls-11" cx="1255.67" cy="885.82" rx="17.37" ry="64.67"/>
      <path class="cls-11" d="m1116.36,879.42c0,76.64,62.13,138.76,138.76,138.76,76.64,0,138.76-62.13,138.76-138.76,0-76.64-62.13-138.76-138.76-138.76s-138.76,62.13-138.76,138.76Zm22.62,4.65c0-64.34,52.16-116.5,116.5-116.5,64.34,0,116.5,52.16,116.5,116.5,0,64.34-52.16,116.5-116.5,116.5-64.34,0-116.5-52.16-116.5-116.5Z"/>
    </g>
    <circle class="cls-1" cx="989.61" cy="1046.51" r="11.86"/>
    <circle class="cls-1" cx="1049.02" cy="1046.51" r="11.86"/>
  </g>
  <g>
    <g>
      <circle class="cls-12" cx="983.81" cy="1254.8" r="21.81"/>
      <circle class="cls-16" cx="982.7" cy="1253.68" r="20.69"/>
    </g>
    <g>
      <circle class="cls-3" cx="1025.73" cy="1255.63" r="12.12"/>
      <circle class="cls-27" cx="1025.11" cy="1255.01" r="11.5"/>
    </g>
    <g>
      <circle class="cls-3" cx="1055.34" cy="1255.63" r="12.12"/>
      <circle class="cls-27" cx="1054.72" cy="1255.01" r="11.5"/>
    </g>
  </g>
  <g>
    <g>
      <path class="cls-16" d="m886.69,274.32c-6.8,1.55-17.41,4.86-28.22,12.54-6.72,4.78-25.23,17.94-25.08,35.01.02,2.35.47,13.41,15.68,26.65,44.23,38.49,150.73,40.95,171.39,41.28,5.47.09,9.42.08,10.79.07,26.42-.08,64.63-.44,108.53-12.52,24.73-6.8,35.49-12.98,38.47-14.74,15.23-9,35.63-21.05,36.57-39.9,1.17-23.24-28.03-40.18-30.51-41.58-6.89-3.88-13.35-5.79-18.07-6.8h-279.55Z"/>
      <path class="cls-10" d="m885.73,287.26c-1.9.59-4.75,1.69-7.69,3.85-1.58,1.16-6.33,4.75-8.39,10.84,0,0-2.04,6.04.16,13.46,2.56,8.62,18.89,25.2,78.33,34.37,21.81,3.37,41.64,4.58,79.35,4.19,79.07-.8,117.95-6.88,141.92-26.57,5.41-4.45,15.48-12.95,14.15-23.01-1.44-10.88-15.32-16.8-17.83-17.83-93.33.23-186.66.47-279.99.7Z"/>
    </g>
    <g>
      <rect class="cls-7" x="886.62" y="67.54" width="279.83" height="245.52"/>
      <path class="cls-9" d="m886.62,313.06c.25,1.13.75,2.78,1.79,4.54,2.33,3.94,5.86,5.8,7.84,6.79,12.39,6.24,20.64,8.36,20.64,8.36,11.57,2.98,17.36,4.47,26.39,6.01,12.75,2.17,24.18,3.37,35.27,4.18,11.97.88,22.86,1.03,44.15,1.31,35.1.45,45.92-.1,52.51-.52,12.88-.83,21.08-1.91,27.17-2.87,3.84-.61,7.27-1.24,10.45-1.89,4.32-.88,9.44-2.03,17.24-4.12,8.77-2.35,21.26-5.98,28.76-10.86,1.98-1.29,4.5-3.24,6.16-6.5.91-1.78,1.28-3.4,1.45-4.42h-279.83Z"/>
      <path class="cls-9" d="m1157.58,307.66V72.3c-87.04,80.25-174.07,160.5-261.11,240.76,7.1,2.88,17.11,6.58,29.36,9.96,27.19,7.5,48.53,8.75,70.92,9.94,28.34,1.5,48.89.09,70.02-1.36,42.52-2.91,58.17-7.73,70.47-13.1,8.81-3.85,15.71-7.9,20.33-10.84Z"/>
      <rect class="cls-4" x="963.06" y="151.65" width="41.93" height="52.52"/>
      <rect class="cls-4" x="1048.56" y="151.65" width="41.94" height="52.52"/>
      <rect class="cls-15" x="991.05" y="235.31" width="43.45" height="28.65"/>
      <rect class="cls-28" x="1034.5" y="235.31" width="28.65" height="28.65"/>
      <rect class="cls-8" x="886.62" y="46.16" width="279.83" height="21.39"/>
    </g>
  </g>
</svg>