<svg xmlns="http://www.w3.org/2000/svg" width="57" height="57" viewBox="0 0 57 57">
  <path id="Activity" d="M15.544,57C6.346,57,.287,50.7.01,41.464L0,40.8V18.545C0,9.208,5.915,2.629,14.9,2.329l.646-.01H35.615A2.065,2.065,0,0,1,35.9,6.431l-.282.018H15.544C8.765,6.448,4.4,10.924,4.153,17.9l-.01.641V40.8c0,7.164,4.1,11.794,10.786,12.058l.616.013H39.306c6.784,0,11.14-4.458,11.391-11.432l.013-.639V21.418a2.071,2.071,0,0,1,4.122-.28l.021.28V40.8c0,9.334-5.912,15.89-14.9,16.19l-.646.01ZM13.4,38.293l-.257-.167a2.064,2.064,0,0,1-.546-2.642l.169-.254,8.265-10.712a2.077,2.077,0,0,1,2.665-.536l.257.172,7.787,6.1,6.815-8.765A2.07,2.07,0,0,1,42,23.765l-.172.254L33.74,34.428a2.079,2.079,0,0,1-2.662.531l-.254-.172-7.785-6.1-6.99,9.057a2.077,2.077,0,0,1-2.65.546ZM42.241,7.356a7.38,7.38,0,1,1,7.38,7.356A7.378,7.378,0,0,1,42.241,7.356Zm4.143,0A3.237,3.237,0,1,0,49.62,4.13,3.235,3.235,0,0,0,46.383,7.356Z" fill="#f85e57"/>
</svg>
