<svg xmlns="http://www.w3.org/2000/svg" width="54.351" height="57.215" viewBox="0 0 54.351 57.215">
  <path id="Bag" d="M15.585,57.215c-5.917,0-10.206-1.5-12.747-4.452s-3.381-7.4-2.5-13.249L2.516,22.722a13.5,13.5,0,0,1,3.831-7.516,9.7,9.7,0,0,1,6.748-2.67h0a14.106,14.106,0,0,1,28.037,0h.205c5.139,0,9.2,3.947,10.6,10.3l2.248,17.354c.6,5.142-.471,9.423-3.1,12.384-2.7,3.036-6.967,4.642-12.335,4.642ZM6.625,23.363,4.463,40.086c-.705,4.678-.2,7.946,1.563,9.99s4.8,3,9.56,3H38.75c4.246,0,7.361-1.115,9.266-3.314s2.567-5.474,1.954-9.717l-2.127-16.5c-.953-4.3-3.383-6.867-6.5-6.867H13.1C9.828,16.679,7.408,19.177,6.625,23.363ZM36.942,12.536a9.941,9.941,0,0,0-19.648,0ZM35.246,28.5a2.07,2.07,0,0,1-.283-4.122l.283-.018h.126a2.07,2.07,0,0,1,.283,4.122l-.283.018Zm-16.179,0a2.07,2.07,0,0,1-.283-4.122l.283-.018h.126a2.07,2.07,0,0,1,.283,4.122l-.283.018Z" fill="#f85e57"/>
</svg>
