<svg xmlns="http://www.w3.org/2000/svg" width="41" height="46" viewBox="0 0 41 46">
  <g id="Calendar" transform="translate(0.5 0.5)">
    <path id="Calendar-2" data-name="Calendar" d="M11.326,45a11.347,11.347,0,0,1-8.278-3.046A11.619,11.619,0,0,1,0,33.534V14.592A11.333,11.333,0,0,1,3.048,6.3a11,11,0,0,1,7.138-2.956V1.569a1.536,1.536,0,0,1,3.062-.213l.014.213V3.3H26.756V1.569a1.537,1.537,0,0,1,3.064-.213l.014.213V3.344a10.935,10.935,0,0,1,7.22,3.035A11.34,11.34,0,0,1,40,14.592v19.1A11.367,11.367,0,0,1,36.956,42a11.44,11.44,0,0,1-8.282,3ZM3.076,33.534c0,5.37,2.93,8.327,8.25,8.327H28.674c5.318,0,8.248-2.9,8.248-8.169V18.636H3.076ZM36.922,15.5v-.909a8.185,8.185,0,0,0-2.048-5.994,7.723,7.723,0,0,0-5.04-2.1V8.459a1.537,1.537,0,0,1-3.064.213l-.014-.213V6.444H13.262V8.459a1.536,1.536,0,0,1-3.062.213l-.014-.213V6.491c-4.6.393-7.11,3.235-7.11,8.1V15.5ZM27.574,33.376a1.558,1.558,0,0,1,1.33-1.555l.226-.014a1.572,1.572,0,0,1,.21,3.125l-.21.014A1.557,1.557,0,0,1,27.574,33.376Zm-9.1,0a1.559,1.559,0,0,1,1.33-1.555l.228-.014a1.572,1.572,0,0,1,.21,3.125l-.21.014A1.559,1.559,0,0,1,18.47,33.376Zm-9.12,0a1.558,1.558,0,0,1,1.33-1.555l.226-.014a1.572,1.572,0,0,1,.21,3.125l-.228.014A1.554,1.554,0,0,1,9.35,33.376Zm18.224-8.135a1.558,1.558,0,0,1,1.33-1.555l.226-.014a1.572,1.572,0,0,1,.21,3.125l-.21.014A1.557,1.557,0,0,1,27.574,25.242Zm-9.1,0a1.559,1.559,0,0,1,1.33-1.555l.228-.014a1.572,1.572,0,0,1,.21,3.125l-.21.014A1.559,1.559,0,0,1,18.47,25.242Zm-9.12,0a1.558,1.558,0,0,1,1.33-1.555l.226-.014a1.572,1.572,0,0,1,.21,3.125l-.228.014A1.554,1.554,0,0,1,9.35,25.242Z" transform="translate(0 -0.001)" fill="#f8706a" stroke="#f8706a" stroke-width="1"/>
  </g>
</svg>
