<svg xmlns="http://www.w3.org/2000/svg" width="57" height="57" viewBox="0 0 57 57">
  <path id="Category" d="M39.861,57a8.518,8.518,0,0,1-8.48-8.536V39.732a8.519,8.519,0,0,1,8.48-8.539h8.662A8.516,8.516,0,0,1,57,39.732v8.731A8.516,8.516,0,0,1,48.523,57Zm-4.5-17.268v8.731a4.539,4.539,0,0,0,4.5,4.561h8.662a4.537,4.537,0,0,0,4.5-4.561V39.732a4.537,4.537,0,0,0-4.5-4.563H39.861A4.539,4.539,0,0,0,35.356,39.732ZM8.48,57A8.518,8.518,0,0,1,0,48.464V39.732a8.519,8.519,0,0,1,8.48-8.539h8.66a8.519,8.519,0,0,1,8.48,8.539v8.731A8.518,8.518,0,0,1,17.14,57Zm-4.5-17.268v8.731a4.539,4.539,0,0,0,4.5,4.561h8.66a4.539,4.539,0,0,0,4.5-4.561V39.732a4.539,4.539,0,0,0-4.5-4.563H8.48A4.539,4.539,0,0,0,3.976,39.732ZM39.861,25.807a8.518,8.518,0,0,1-8.48-8.536V8.536A8.518,8.518,0,0,1,39.861,0h8.662A8.516,8.516,0,0,1,57,8.536V17.27a8.516,8.516,0,0,1-8.477,8.536Zm-4.5-17.27V17.27a4.539,4.539,0,0,0,4.5,4.561h8.662a4.537,4.537,0,0,0,4.5-4.561V8.536a4.537,4.537,0,0,0-4.5-4.561H39.861A4.539,4.539,0,0,0,35.356,8.536ZM8.48,25.807A8.518,8.518,0,0,1,0,17.27V8.536A8.518,8.518,0,0,1,8.48,0h8.66a8.518,8.518,0,0,1,8.48,8.536V17.27a8.518,8.518,0,0,1-8.48,8.536Zm-4.5-17.27V17.27a4.539,4.539,0,0,0,4.5,4.561h8.66a4.539,4.539,0,0,0,4.5-4.561V8.536a4.539,4.539,0,0,0-4.5-4.561H8.48A4.539,4.539,0,0,0,3.976,8.536Z" fill="#f85e57"/>
</svg>
