<svg xmlns="http://www.w3.org/2000/svg" width="48.02" height="48" viewBox="0 0 48.02 48">
  <g id="Chat" transform="translate(0.584 0.5)">
    <path id="Chat-2" data-name="Chat" d="M12.5,44.293l-.108-.038a.041.041,0,0,1-.023-.027l-1.6-.909a1.762,1.762,0,0,0-.647-.127,1.092,1.092,0,0,0-.264.027,41.551,41.551,0,0,1-5.1,1.474l-.317.038-.1,0A2.628,2.628,0,0,1,2.263,43.9a3.233,3.233,0,0,1-.694-2.162l.047-.385a43.3,43.3,0,0,1,1.59-5.18,1.244,1.244,0,0,0-.1-.952l-.431-.842A23.513,23.513,0,0,1,23.545,0h.091A23.5,23.5,0,1,1,12.5,44.293Zm-.4-3.968c.216.1.491.252.869.463l.992.571.015,0,.675.343a20.282,20.282,0,0,0,21.679-2.587l.518-.44a20.224,20.224,0,0,0-13.231-35.4l-.66.008A20.217,20.217,0,0,0,5.585,32.872l.425.829a4.568,4.568,0,0,1,.3,3.536,41.69,41.69,0,0,0-1.5,4.888l.22-.865.928-.243c.67-.186,1.3-.376,1.927-.584l.983-.338a4.806,4.806,0,0,1,1.271-.171A5.131,5.131,0,0,1,12.095,40.325ZM31.368,23.5a2.682,2.682,0,1,1,2.682,2.682A2.681,2.681,0,0,1,31.368,23.5Zm-10.426,0a2.682,2.682,0,1,1,2.682,2.682A2.681,2.681,0,0,1,20.941,23.5Zm-10.426,0A2.682,2.682,0,1,1,13.2,26.182,2.681,2.681,0,0,1,10.515,23.5Z" transform="translate(-0.083 -0.001)" fill="#f8706a" stroke="#f8706a" stroke-width="1"/>
  </g>
</svg>
