<?xml version="1.0" encoding="UTF-8" standalone="no"?>
<svg
   xmlns:dc="http://purl.org/dc/elements/1.1/"
   xmlns:cc="http://creativecommons.org/ns#"
   xmlns:rdf="http://www.w3.org/1999/02/22-rdf-syntax-ns#"
   xmlns:svg="http://www.w3.org/2000/svg"
   xmlns="http://www.w3.org/2000/svg"
   xmlns:sodipodi="http://sodipodi.sourceforge.net/DTD/sodipodi-0.dtd"
   xmlns:inkscape="http://www.inkscape.org/namespaces/inkscape"
   version="1.1"
   id="Layer_1"
   x="0px"
   y="0px"
   viewBox="0 0 700.74261 953.39001"
   xml:space="preserve"
   sodipodi:docname="mascot.svg"
   width="700.74261"
   height="953.39001"
   inkscape:version="1.0.1 (3bc2e813f5, 2020-09-07)"><metadata
   id="metadata174"><rdf:RDF><cc:Work
       rdf:about=""><dc:format>image/svg+xml</dc:format><dc:type
         rdf:resource="http://purl.org/dc/dcmitype/StillImage" /></cc:Work></rdf:RDF></metadata><defs
   id="defs172" /><sodipodi:namedview
   pagecolor="#ffffff"
   bordercolor="#666666"
   borderopacity="1"
   objecttolerance="10"
   gridtolerance="10"
   guidetolerance="10"
   inkscape:pageopacity="0"
   inkscape:pageshadow="2"
   inkscape:window-width="963"
   inkscape:window-height="1056"
   id="namedview170"
   showgrid="false"
   inkscape:zoom="0.58831284"
   inkscape:cx="484.73447"
   inkscape:cy="501.5167"
   inkscape:window-x="959"
   inkscape:window-y="-4"
   inkscape:window-maximized="0"
   inkscape:current-layer="Layer_1" />
<style
   type="text/css"
   id="style2">
	.st0{display:none;fill:#DCDCDC;}
	.st1{fill:#4260A5;}
	.st2{fill:#324E9E;}
	.st3{fill:#92AAD0;}
	.st4{fill:#BDCADE;}
	.st5{fill:#263D92;}
	.st6{fill:#93B5F0;}
	.st7{fill:#5D79D5;}
	.st8{fill:#080E20;}
	.st9{fill:#0F1830;}
	.st10{fill:#F9F9F9;}
	.st11{fill:#ECECEC;}
	.st12{fill:url(#SVGID_1_);}
	.st13{fill:#D5D5D5;}
	.st14{fill:#DCDCDC;}
	.st15{fill:#F2DDCC;}
	.st16{fill:#EED5C0;}
	.st17{fill:#535353;}
	.st18{fill:#FFE9D7;}
	.st19{fill:#F8DEC8;}
	.st20{fill:#FFFFFF;}
	.st21{fill:#EBEBEB;}
	.st22{fill:#4E4E4E;}
	.st23{fill:#F0B888;}
	.st24{fill:#555555;}
	.st25{fill:#7F7F7F;}
	.st26{fill:#DBDBDB;}
	.st27{fill:#E2E2E2;}
	.st28{fill:#959593;}
	.st29{fill:#FBFBFF;}
	.st30{fill:#CACACF;}
	.st31{fill:#BFBFBF;}
</style>
<rect
   x="-178.9211"
   y="-57.529999"
   class="st0"
   width="1021.36"
   height="1021.36"
   id="rect4" />
<g
   id="g165"
   transform="translate(-166.47109,-49.849998)">
	<g
   id="g34">
		<g
   id="g26">
			<path
   class="st1"
   d="m 186.34,771.83 c 0.22,-1.12 0.51,-2.2 0.51,-2.2 0.07,-0.26 0.13,-0.47 0.14,-0.52 0.69,-2.4 5.23,-5.71 6.46,-6.6 0.19,-0.13 0.38,-0.28 0.46,-0.33 15.27,-9.92 34.61,-13.98 34.61,-13.98 18.52,-4.36 32.82,-9.54 42.6,-13.53 12.81,-5.24 26.24,-11.16 40.6,-17.75 8.67,-3.98 15.21,-7.05 15.21,-7.05 12.88,-6.05 16.67,-8.03 26.4,-12.38 6.15,-2.76 0.3,-0.02 19.5,-7.76 2.43,-0.98 6.14,-2.48 11.32,-3.07 3.61,-0.41 6.52,-0.21 7.89,-0.08 0.34,0.03 0.61,0.06 0.7,0.08 0.02,0 0.04,0 0.04,0 0.29,0.03 98.54,-0.85 251.12,-2.24 0.75,-0.02 1.74,-0.01 2.9,0.1 0,0 2.25,0.2 4.48,0.8 29.45,7.9 46.61,15.06 46.61,15.06 23.46,11.73 36.14,15.58 48.69,19.22 15.85,4.6 38.79,9.42 49.92,11.76 0,0 14.98,3.15 32.33,12.87 7.77,4.35 10.97,8.75 12.55,13.11 0.2,0.55 0.34,1.02 0.43,1.33 -20.17,81.52 -40.33,163.04 -60.5,244.55 -170.75,0 -341.51,0 -512.26,0 -48.09,-132.8 -82.92,-230.34 -82.71,-231.39 z"
   id="path6" />
			<path
   class="st2"
   d="m 792.55,730.53 c 4.4,1.47 15.43,5.85 20.68,16.79 1.63,3.4 2.23,6.27 2.79,9.78 2.39,14.78 -1.63,27.33 -2.79,30.9 -15.06,46.12 -31.72,70.02 -31.72,70.02 -44.15,63.34 -106.42,136.85 -113.53,145.22 -100.68,0 -201.37,0 -302.05,0 -37.52,-39.47 -64.94,-73.02 -83.44,-97.06 -8.72,-11.33 -18.67,-26.41 -38.58,-56.57 0,0 -13.39,-20.29 -25.67,-52.2 -2.52,-6.56 -4.83,-13.86 -4,-23.19 1.03,-11.58 6.48,-20.22 10.08,-24.96 2.64,-0.6 6.27,-1.47 10.57,-2.61 12.59,-3.34 23.2,-6.96 32.72,-10.56 16.75,-6.32 29.53,-12.3 44.1,-19.15 13.48,-6.34 27.02,-12.57 40.5,-18.93 6.26,-2.96 12.93,-4.98 19.28,-7.73 2.46,-1.07 6.71,-2.94 12.65,-3.61 3.56,-0.4 6.25,-0.2 6.8,-0.17 6.93,0.42 97.54,-0.31 255.86,-1.97 3.06,0.67 7.4,1.67 12.56,3.03 8.59,2.26 22.01,5.84 37.34,12.34 10.45,4.44 10.56,5.47 22.52,10.31 3.69,1.49 9.96,3.94 17.9,6.54 9.49,3.11 16.5,4.81 26.85,7.39 11.57,2.88 21.38,4.96 28.58,6.39 z"
   id="path8" />
			<path
   class="st3"
   d="m 399.52,696.11 c 41.99,-1.62 83.97,-3.24 125.96,-4.86 30.94,7.92 61.88,15.83 92.82,23.75 -32.6,79.17 -65.2,158.33 -97.81,237.5 C 480.16,867.04 439.84,781.57 399.52,696.11 Z"
   id="path10" />
			<path
   class="st4"
   d="m 477.97,744.22 c 4.84,29.84 9.67,59.68 14.51,89.52 17.34,-15.81 34.68,-31.63 52.03,-47.44 4.12,-17.35 8.25,-34.69 12.37,-52.04 -3.09,-7.37 -6.17,-14.75 -9.26,-22.12 -24.29,3.89 -48.58,7.78 -72.86,11.67 1.07,6.8 2.14,13.6 3.21,20.41 z"
   id="path12" />
			<path
   class="st5"
   d="m 226.85,1003.23 c -4.88,-9.38 -24.61,-47.81 -38.4,-87.92 -7.57,-22.01 -13.65,-45.34 -17.11,-58.76 -1.38,-5.32 -5.24,-20.72 -4.84,-40.04 0.07,-3.29 0.26,-10.23 2.58,-18.73 0.29,-1.06 2.73,-9.51 9.1,-18.71 4.63,-6.69 6.82,-7.24 8.15,-7.25 4.31,-0.03 7.33,5.59 7.75,6.4 2.52,5.11 6.43,13.09 11.1,22.91 9.04,19 25.19,53.8 57.73,133.88 6.93,17.05 16.29,40.31 27.24,68.21 -21.09,0.01 -42.19,0.01 -63.3,0.01 z"
   id="path14" />
			<path
   class="st5"
   d="m 803.38,1003.23 c 5.12,-14.18 9.32,-25.73 12.12,-33.38 15.33,-41.96 30.1,-84.13 45.86,-125.93 0.73,-1.94 2.78,-7.32 3.42,-14.71 0.4,-4.56 0.17,-8.75 -0.68,-14.37 -0.72,-4.75 -2.95,-17.65 -11.92,-38.27 -7.73,-17.77 -10.51,-18.39 -11.63,-18.21 -1.44,0.22 -2.37,2.07 -2.93,3.65 -13.68,35.41 -27.12,72.89 -39.99,112.4 -14.55,44.68 -27,87.74 -37.68,128.82 14.47,0 28.95,0 43.43,0 z"
   id="path16" />
			<path
   class="st5"
   d="m 328.54,709.07 c 10.73,10.79 20.13,18.63 26.7,23.77 0,0 15.78,13.44 37.68,36.79 0.85,0.91 2.32,2.76 2.59,5.34 0.27,2.6 -0.83,4.65 -1.5,5.84 -4.37,7.74 -9.27,12.86 -9.27,12.86 -3.03,3.16 -7.33,7.81 -12.5,13.94 49.42,48.29 98.84,96.59 148.26,144.88 C 509.94,928.04 495.07,893.74 477.01,852.41 453,797.44 442.17,773.77 426.08,743.39 415.42,723.26 406,706.99 399.53,696.1 c -3.58,-3.3 -7.15,-6.6 -10.73,-9.89 -1.51,0.08 -3.3,0.23 -5.31,0.53 -0.29,0.04 -2.78,0.37 -5.47,1.12 -6.07,1.68 -12.45,4.78 -12.45,4.78 -7.25,3.53 -4.98,1.77 -19.3,8.15 -5.28,2.35 -11.23,5.1 -17.73,8.28 z"
   id="path18" />
			<path
   class="st5"
   d="m 646.8,684.52 c 0.73,0.16 1.75,0.39 2.97,0.67 1.74,0.4 5.62,1.31 10.74,2.67 3.58,0.95 9.26,2.45 14.8,4.22 5.59,1.78 13.31,4.53 22.52,8.78 -11.65,8.87 -23.93,18.97 -36.5,30.42 -11.87,10.81 -22.51,21.47 -32,31.67 -0.24,0.22 -3.48,3.26 -2.65,6.98 0.25,1.11 0.79,1.97 1.28,2.55 2.09,3.09 4.57,6.42 7.51,9.86 3.16,3.7 6.3,6.88 9.22,9.56 -5.96,8.94 -14.79,22.09 -25.67,37.93 0,0 -19.6,28.53 -51.57,71.56 -7.57,10.19 -16.79,22.47 -31.29,36.79 -6.3,6.22 -11.81,11.07 -15.65,14.32 32.6,-79.17 65.2,-158.33 97.81,-237.5 9.48,-10.16 18.98,-20.32 28.48,-30.48 z"
   id="path20" />
			<path
   class="st6"
   d="m 520.49,952.5 c -0.32,-85.2 -0.64,-170.4 -0.96,-255.6 -10.47,11.93 -20.95,23.86 -31.42,35.78 3.71,3.48 7.43,6.95 11.14,10.43 -3.4,45.63 -6.81,91.26 -10.21,136.89 10.48,24.17 20.96,48.33 31.45,72.5 z"
   id="path22" />
			<path
   class="st7"
   d="m 519.52,696.9 c 11.34,11.34 22.67,22.67 34.01,34.01 -4.29,5.16 -8.58,10.32 -12.86,15.48 4.08,42.45 8.17,84.9 12.25,127.36 -10.81,26.25 -21.62,52.5 -32.43,78.76 -0.32,-85.21 -0.64,-170.41 -0.97,-255.61 z"
   id="path24" />
		</g>
		<g
   id="g32">
			<path
   class="st8"
   d="m 730.73,897.51 c -6.6,5.08 -13.19,10.16 -19.79,15.24 -16.03,0.07 -32.06,0.13 -48.09,0.2 -6.13,-4.95 -12.27,-9.89 -18.4,-14.84 0.18,-18.77 0.35,-37.53 0.53,-56.3 28.81,-0.07 57.63,-0.14 86.44,-0.21 -0.23,18.63 -0.46,37.27 -0.69,55.91 z"
   id="path28" />
			<path
   class="st9"
   d="m 726.17,844.18 c -0.04,16.93 -0.07,33.85 -0.11,50.78 -5.49,4.45 -10.98,8.89 -16.48,13.34 -14.38,0.11 -28.77,0.22 -43.15,0.34 -5.51,-4.49 -11.03,-8.98 -16.54,-13.47 25.42,-17 50.85,-34 76.28,-50.99 z"
   id="path30" />
		</g>
	</g>
	<g
   id="g59">
		<g
   id="g51">
			<g
   id="g42">
				<path
   class="st10"
   d="m 519.52,696.9 c -17.9,20.39 -35.81,40.77 -53.71,61.16 -25.68,-23.95 -51.35,-47.9 -77.03,-71.85 -0.01,-0.6 0.04,-1.37 0.24,-2.24 0.26,-1.09 0.67,-1.95 1.01,-2.54 7.78,-12.47 15.56,-24.94 23.33,-37.41 0,-0.73 0,-1.46 0,-2.18 -8.94,-2.69 -21.48,-6.9 -35.93,-13.31 -21.95,-9.74 -67.92,-30.74 -105.82,-77.91 -25.29,-31.48 -38.5,-64.04 -45.6,-89.32 -4.98,-1.31 -13.2,-4.19 -21.11,-10.9 -1.95,-1.65 -18.8,-16.37 -18.76,-37.58 0.04,-20.54 15.92,-40.31 39.54,-47.68 7.7,-29.76 19.06,-51.82 27.84,-66.2 42.88,-70.24 110.42,-98.67 136.89,-109.4 6.64,-2.69 26.95,-10.65 55.59,-16.74 35.82,-7.62 97.15,-14.97 175.1,4.28 16.04,4.17 38.54,11.35 63.65,24.08 70.22,35.62 106.09,88.88 106.09,88.88 9.98,14.82 23.98,39.25 33.04,73.34 5.49,1.28 15.89,4.5 25.45,13.25 3.21,2.94 19.25,17.61 17.79,39.21 -1.25,18.47 -14.49,29.92 -20.08,34.77 -9.25,8 -18.85,11.55 -24.66,13.19 -4.85,16.71 -10.8,31.02 -16.82,43.01 0,0 -7.59,15.04 -17.29,29.05 -25.03,36.16 -76.24,81.15 -145.7,103.85 -10.9,3.56 -19.8,5.77 -24.42,6.86 0,0.63 0,1.25 0,1.88 9.55,12.02 19.1,24.03 28.64,36.05 -22.5,24.05 -45,48.1 -67.5,72.15 -19.91,-19.9 -39.84,-39.82 -59.77,-59.75 z"
   id="path36" />
				<path
   class="st11"
   d="m 393.24,685.41 c 8.29,-14.22 16.59,-28.44 24.88,-42.65 14.45,35.37 28.89,70.75 43.34,106.12 -22.74,-21.16 -45.48,-42.32 -68.22,-63.47 z"
   id="path38" />
				<path
   class="st11"
   d="m 641.81,684.22 c -20.3,21.56 -40.6,43.13 -60.9,64.69 11.93,-32.23 23.85,-64.45 35.78,-96.68 8.38,10.66 16.75,21.33 25.12,31.99 z"
   id="path40" />
			</g>
			<linearGradient
   id="SVGID_1_"
   gradientUnits="userSpaceOnUse"
   x1="188.1427"
   y1="413.15219"
   x2="356.11359"
   y2="413.15219">
				<stop
   offset="0"
   style="stop-color:#F4F4F4"
   id="stop44" />
				<stop
   offset="1"
   style="stop-color:#F4F4F4;stop-opacity:0.1"
   id="stop46" />
			</linearGradient>
			<path
   class="st12"
   d="m 356.11,413.51 c -0.12,30.61 -101.12,71.42 -145.69,38.39 -3.77,-2.79 -22.21,-17.28 -22.28,-38.39 -0.08,-22.02 19.87,-37.06 23.31,-39.53 45.16,-32.55 144.79,9.08 144.66,39.53 z"
   id="path49"
   style="fill:url(#SVGID_1_)" />
		</g>
		<g
   id="g57">
			<path
   class="st13"
   d="m 808.33,372.43 c 10.04,1.96 17.55,5.45 22.36,8.15 8.38,4.71 18.14,10.19 22.28,21.46 2.88,7.84 1.73,14.91 1.24,17.33 -4,19.64 -25.4,28.22 -30.12,30.12 -6.86,2.75 -12.95,3.63 -16.87,3.95 0.37,-27.01 0.74,-54.01 1.11,-81.01 z"
   id="path53" />
			<path
   class="st14"
   d="m 529.47,648.42 c 0.17,-145.4 0.34,-290.8 0.51,-436.2 29.89,-8.8 59.77,-17.6 89.66,-26.4 10.32,3.16 24.48,8.06 40.65,15.52 11.72,5.41 48.81,22.84 79.76,52.26 11.55,10.97 72.35,68.78 72.06,157.32 -0.17,51.79 -21.16,89.27 -30.25,105.07 -31.26,54.27 -76.11,80.05 -101.21,94.06 -60.82,33.94 -119.22,38.47 -151.18,38.37 z"
   id="path55" />
		</g>
	</g>
	<g
   id="g65">
		<path
   class="st15"
   d="m 424.31,644.79 c 10.75,8.21 20.05,14.68 26.98,19.33 17.09,11.47 27.94,18.66 43.49,24.97 10.1,4.09 18.81,6.45 24.75,7.82 -0.06,-12.67 -0.12,-25.35 -0.18,-38.02 -10.41,0.07 -21.74,-0.38 -33.83,-1.61 -23.58,-2.41 -44.16,-7.21 -61.21,-12.49 z"
   id="path61" />
		<path
   class="st16"
   d="m 519.34,658.88 c 10.97,0.44 23.12,0.33 36.23,-0.7 20.9,-1.64 39.28,-5.25 54.65,-9.34 -7.75,6.61 -14.58,11.66 -19.62,15.2 -11.91,8.35 -30.23,20.98 -56.25,29.01 -6.17,1.9 -11.35,3.11 -14.82,3.85 -0.07,-12.67 -0.13,-25.34 -0.19,-38.02 z"
   id="path63" />
	</g>
	<g
   id="g99">
		<g
   id="g73">
			<path
   class="st17"
   d="m 777.12,512.37 c -7.74,-63.39 -23.92,-125.46 -35.39,-188.28 -0.32,-1.77 -1.19,-6.86 -5.13,-11.1 -6.73,-7.25 -17.84,-7.04 -21.75,-6.99 -17.47,0.22 -88.75,-0.12 -186.8,-0.01 -99.07,-0.27 -171.44,0.02 -189.09,0.01 -3.55,0 -13.27,-0.03 -19.64,6.44 -4.55,4.61 -5.34,10.54 -5.75,12.54 -20.96,102.77 -35.74,178.17 -36.88,187.39 -0.26,2.15 -0.78,6.86 1.65,11.49 0.72,1.37 2.15,3.59 6.92,7.15 3.27,2.44 8.39,5.71 15.52,8.3 8.27,3.01 14.72,4.7 15.33,4.84 59.09,13.49 93.27,17.25 93.27,17.25 25.94,2.85 45.75,3.76 61.74,4.46 9.65,0.42 28.48,1.13 55.78,1.04 40.03,-0.12 73.49,-0.23 117.69,-5.09 46.49,-6.81 80.91,-13.42 92.83,-16.88 6.17,-1.79 13.93,-4.95 15.6,-5.63 6.24,-2.54 10.77,-4.77 15.52,-8.3 4.77,-3.56 6.2,-5.78 6.92,-7.15 2.51,-4.76 1.89,-9.61 1.66,-11.48 z"
   id="path67" />
			<path
   class="st18"
   d="m 757.09,504.49 c -1.52,-14.01 -14.23,-70.07 -17.64,-86.98 -5.66,-28.05 -11.3,-56.11 -16.92,-84.17 -0.5,-1.67 -1.82,-5.16 -5.16,-8.13 -5.16,-4.57 -11.32,-4.47 -12.74,-4.41 -53.84,-0.03 -107.67,-0.05 -161.51,-0.08 0,-0.01 0,-0.01 0,-0.02 -5.06,0 -10.12,0.01 -15.18,0.01 -5.06,0 -10.12,-0.01 -15.18,-0.01 0,0.01 0,0.01 0,0.02 -53.84,0.03 -107.67,0.05 -161.51,0.08 -1.43,-0.06 -7.58,-0.16 -12.74,4.41 -3.34,2.96 -4.66,6.46 -5.16,8.13 -4.64,15.35 -15.41,75.69 -16.92,84.17 0,0 0,0 0,0 -0.08,0.55 -4.31,20.77 -18.24,86.78 -0.24,1.33 -0.48,3.48 -0.02,6.03 0.52,2.94 1.71,4.98 2.28,5.95 6.11,10.3 21.47,13.96 24.91,14.78 v 0 c 28.75,7.3 37.26,8.69 37.26,8.69 28.61,4.69 42.92,7.03 43.78,7.14 42.8,5.51 77.59,6.16 105.26,6.52 5.92,0.08 11.38,0.1 16.28,0.1 4.9,0 10.36,-0.02 16.28,-0.1 27.68,-0.36 62.47,-1.01 105.26,-6.52 0.86,-0.11 15.17,-2.45 43.78,-7.14 0,0 8.51,-1.39 37.26,-8.69 v 0 c 7.24,-2.46 12.46,-5.73 15.75,-8.13 4.43,-3.23 8.67,-6.42 10.28,-11.86 0.89,-2.96 0.65,-5.48 0.54,-6.57 z"
   id="path69" />
			<path
   class="st19"
   d="m 343.39,322.18 c 119.76,71.87 239.53,143.74 359.29,215.61 8.67,-1.94 15.98,-3.73 21.62,-5.17 5.06,-1.29 8.02,-2.09 11.83,-3.79 5.58,-2.48 9.18,-5.16 12.17,-7.41 3.86,-2.91 5.14,-4.49 5.99,-5.77 2.25,-3.37 2.7,-6.45 2.79,-7.12 0.22,-1.66 0.13,-3.06 0.01,-4.05 -5.9,-28.99 -11.78,-57.98 -17.64,-86.98 -5.66,-28.05 -11.3,-56.11 -16.92,-84.17 -0.3,-1 -0.79,-2.31 -1.61,-3.73 -1.36,-2.36 -2.92,-3.83 -3.55,-4.39 -0.64,-0.56 -2.92,-2.5 -6.54,-3.61 -2.52,-0.77 -4.61,-0.81 -5.37,-0.81 -4.95,-0.03 -152.97,-0.03 -355.42,0.01 -0.35,0.01 -0.82,0.03 -1.38,0.09 -1.38,0.14 -2.47,0.4 -3.08,0.56 -0.61,0.16 -1.36,0.39 -2.19,0.73 z"
   id="path71" />
		</g>
		<g
   id="g83">
			<circle
   class="st20"
   cx="420.10001"
   cy="450.10999"
   r="55.650002"
   id="circle75" />
			<path
   class="st21"
   d="m 424.08,505.62 c -4.72,-0.85 -11.49,-2.53 -18.97,-6.19 -5.26,-2.57 -12.74,-6.22 -19,-13.6 -12.09,-14.25 -10.83,-32.07 -10.6,-34.79 1.55,-18.09 12.71,-29.14 15.8,-31.99 3.52,-3.25 13.68,-11.7 29.19,-13 12.05,-1.01 21.36,2.79 25.79,5 15.47,7.71 21.78,21.16 23.59,25.19 4.79,10.63 4.94,20.3 4.64,25.47 1.25,0.17 2.5,0.35 3.76,0.52 0.4,-7.86 0.8,-15.73 1.2,-23.59 -4.73,-9.73 -9.46,-19.46 -14.2,-29.19 -9.73,-5.8 -19.46,-11.6 -29.19,-17.4 -10.66,-0.47 -21.33,-0.93 -31.99,-1.4 -6.86,3.4 -13.73,6.8 -20.59,10.2 -6.27,7.93 -12.53,15.86 -18.8,23.79 -1.53,8.26 -3.07,16.53 -4.6,24.79 1.8,8.2 3.6,16.4 5.4,24.59 5.33,7.4 10.66,14.8 16,22.19 5.33,2.8 10.66,5.6 16,8.4 5.93,1.4 11.86,2.8 17.8,4.2 2.92,-1.05 5.85,-2.12 8.77,-3.19 z"
   id="path77" />
			<ellipse
   class="st22"
   cx="420.01001"
   cy="450.95001"
   rx="8.3000002"
   ry="30.889999"
   id="ellipse79" />
			<path
   class="st22"
   d="m 420.27,381.61 c -36.61,0 -66.29,29.68 -66.29,66.29 0,36.61 29.68,66.29 66.29,66.29 36.61,0 66.29,-29.68 66.29,-66.29 0,-36.61 -29.68,-66.29 -66.29,-66.29 z m -0.17,124.15 c -30.74,0 -55.65,-24.92 -55.65,-55.65 0,-30.74 24.92,-55.65 55.65,-55.65 30.74,0 55.65,24.92 55.65,55.65 0.01,30.74 -24.91,55.65 -55.65,55.65 z"
   id="path81" />
		</g>
		<g
   id="g93">
			<circle
   class="st20"
   cx="639.76001"
   cy="450.10999"
   r="55.650002"
   id="circle85" />
			<path
   class="st21"
   d="m 635.78,505.62 c 4.72,-0.85 11.49,-2.53 18.97,-6.19 5.26,-2.57 12.74,-6.22 19,-13.6 12.09,-14.25 10.83,-32.07 10.6,-34.79 -1.55,-18.09 -12.71,-29.14 -15.8,-31.99 -3.52,-3.25 -13.68,-11.7 -29.19,-13 -12.05,-1.01 -21.36,2.79 -25.79,5 -15.47,7.71 -21.78,21.16 -23.59,25.19 -4.79,10.63 -4.94,20.3 -4.64,25.47 -1.25,0.17 -2.5,0.35 -3.76,0.52 -0.4,-7.86 -0.8,-15.73 -1.2,-23.59 4.73,-9.73 9.46,-19.46 14.2,-29.19 9.73,-5.8 19.46,-11.6 29.19,-17.4 10.66,-0.47 21.33,-0.93 31.99,-1.4 6.86,3.4 13.73,6.8 20.59,10.2 6.27,7.93 12.53,15.86 18.8,23.79 1.53,8.26 3.07,16.53 4.6,24.79 -1.8,8.2 -3.6,16.4 -5.4,24.59 -5.33,7.4 -10.66,14.8 -16,22.19 -5.33,2.8 -10.66,5.6 -16,8.4 -5.93,1.4 -11.86,2.8 -17.8,4.2 -2.92,-1.05 -5.85,-2.12 -8.77,-3.19 z"
   id="path87" />
			<ellipse
   class="st22"
   cx="639.84998"
   cy="450.95001"
   rx="8.3000002"
   ry="30.889999"
   id="ellipse89" />
			<path
   class="st22"
   d="m 573.3,447.89 c 0,36.61 29.68,66.29 66.29,66.29 36.61,0 66.29,-29.68 66.29,-66.29 0,-36.61 -29.68,-66.29 -66.29,-66.29 -36.61,0.01 -66.29,29.68 -66.29,66.29 z m 10.81,2.22 c 0,-30.74 24.92,-55.65 55.65,-55.65 30.74,0 55.65,24.92 55.65,55.65 0,30.74 -24.92,55.65 -55.65,55.65 -30.74,0 -55.65,-24.91 -55.65,-55.65 z"
   id="path91" />
		</g>
		<circle
   class="st23"
   cx="512.76001"
   cy="527.71002"
   r="5.6700001"
   id="circle95" />
		<circle
   class="st23"
   cx="541.14001"
   cy="527.71002"
   r="5.6700001"
   id="circle97" />
	</g>
	<g
   id="g137">
		<g
   id="g111">
			<g
   id="g109">
				<g
   id="g103">
					<circle
   class="st6"
   cx="509.98999"
   cy="627.20001"
   r="10.42"
   id="circle101" />
				</g>
				<g
   id="g107">
					<circle
   class="st6"
   cx="509.45999"
   cy="626.66998"
   r="9.8800001"
   id="circle105" />
				</g>
			</g>
		</g>
		<g
   id="g123">
			<g
   id="g121">
				<g
   id="g115">
					<circle
   class="st24"
   cx="530.01001"
   cy="627.59998"
   r="5.79"
   id="circle113" />
				</g>
				<g
   id="g119">
					<circle
   class="st25"
   cx="529.71997"
   cy="627.29999"
   r="5.5"
   id="circle117" />
				</g>
			</g>
		</g>
		<g
   id="g135">
			<g
   id="g133">
				<g
   id="g127">
					<circle
   class="st24"
   cx="544.15002"
   cy="627.59998"
   r="5.79"
   id="circle125" />
				</g>
				<g
   id="g131">
					<circle
   class="st25"
   cx="543.85999"
   cy="627.29999"
   r="5.5"
   id="circle129" />
				</g>
			</g>
		</g>
	</g>
	<g
   id="g163">
		<g
   id="g143">
			<path
   class="st6"
   d="m 463.59,158.84 c -3.25,0.74 -8.32,2.32 -13.48,5.99 -3.21,2.28 -12.05,8.57 -11.98,16.72 0.01,1.12 0.22,6.41 7.49,12.73 21.13,18.39 72,19.56 81.87,19.72 2.61,0.04 4.5,0.04 5.16,0.03 12.62,-0.04 30.87,-0.21 51.85,-5.98 11.82,-3.25 16.95,-6.2 18.37,-7.04 7.28,-4.3 17.02,-10.05 17.47,-19.06 0.56,-11.1 -13.39,-19.19 -14.58,-19.86 -3.29,-1.85 -6.38,-2.77 -8.63,-3.25 -44.51,0 -89.02,0 -133.54,0 z"
   id="path139" />
			<path
   class="st7"
   d="m 463.14,165.03 c -0.91,0.28 -2.27,0.81 -3.67,1.84 -0.76,0.55 -3.02,2.27 -4.01,5.18 0,0 -0.98,2.88 0.07,6.43 1.22,4.12 9.02,12.04 37.42,16.42 10.42,1.61 19.89,2.19 37.9,2 37.77,-0.38 56.34,-3.28 67.79,-12.69 2.59,-2.12 7.4,-6.18 6.76,-10.99 -0.69,-5.2 -7.32,-8.03 -8.52,-8.52 -44.58,0.1 -89.16,0.21 -133.74,0.33 z"
   id="path141" />
		</g>
		<g
   id="g161">
			<rect
   x="463.56"
   y="60.07"
   class="st26"
   width="133.67"
   height="117.28"
   id="rect145" />
			<path
   class="st27"
   d="m 463.56,177.35 c 0.12,0.54 0.36,1.33 0.86,2.17 1.11,1.88 2.8,2.77 3.74,3.24 5.92,2.98 9.86,3.99 9.86,3.99 5.53,1.42 8.29,2.13 12.6,2.87 6.09,1.04 11.55,1.61 16.85,2 5.72,0.42 10.92,0.49 21.09,0.62 16.77,0.22 21.93,-0.05 25.09,-0.25 6.15,-0.4 10.07,-0.91 12.98,-1.37 1.83,-0.29 3.47,-0.59 4.99,-0.9 2.06,-0.42 4.51,-0.97 8.24,-1.97 4.19,-1.12 10.16,-2.86 13.74,-5.19 0.95,-0.62 2.15,-1.55 2.94,-3.11 0.43,-0.85 0.61,-1.62 0.69,-2.11 -44.55,0.01 -89.11,0.01 -133.67,0.01 z"
   id="path147" />
			<path
   class="st27"
   d="m 592.99,174.77 c 0,-37.48 0,-74.95 0,-112.43 -41.58,38.34 -83.15,76.67 -124.73,115.01 3.39,1.38 8.17,3.14 14.03,4.76 12.99,3.58 23.18,4.18 33.88,4.75 13.54,0.72 23.36,0.04 33.45,-0.65 20.31,-1.39 27.79,-3.69 33.66,-6.26 4.21,-1.84 7.51,-3.77 9.71,-5.18 z"
   id="path149" />
			<rect
   x="500.07999"
   y="100.24"
   class="st28"
   width="20.030001"
   height="25.09"
   id="rect151" />
			<rect
   x="540.91998"
   y="100.24"
   class="st28"
   width="20.030001"
   height="25.09"
   id="rect153" />
			<rect
   x="513.44"
   y="140.21001"
   class="st29"
   width="20.76"
   height="13.69"
   id="rect155" />
			<rect
   x="534.20001"
   y="140.21001"
   class="st30"
   width="13.69"
   height="13.69"
   id="rect157" />
			<rect
   x="463.56"
   y="49.849998"
   class="st31"
   width="133.67"
   height="10.22"
   id="rect159" />
		</g>
	</g>
</g>

</svg>
