<?xml version="1.0" standalone="no"?>
<!DOCTYPE svg PUBLIC "-//W3C//DTD SVG 20010904//EN"
 "http://www.w3.org/TR/2001/REC-SVG-20010904/DTD/svg10.dtd">
<svg version="1.0" xmlns="http://www.w3.org/2000/svg"
 width="1800.000000pt" height="1800.000000pt" viewBox="0 0 1800.000000 1800.000000"
 preserveAspectRatio="xMidYMid meet">
<metadata>
Created by potrace 1.14, written by Peter Selinger 2001-2017
</metadata>
<g transform="translate(0.000000,1800.000000) scale(0.100000,-0.100000)"
fill="#000000" stroke="none">
<path d="M2625 17989 c-1392 -133 -2485 -1231 -2614 -2629 -15 -162 -15
-12558 0 -12720 130 -1405 1224 -2499 2629 -2629 162 -15 12558 -15 12720 0
1405 130 2499 1224 2629 2629 15 162 15 12558 0 12720 -130 1405 -1224 2499
-2629 2629 -141 13 -12597 13 -12735 0z m8008 -4033 c71 -34 139 -110 167
-184 32 -84 25 -206 -15 -280 -33 -60 -94 -121 -153 -151 -88 -45 -218 -43
-311 3 -54 28 -131 106 -150 154 l-13 32 -612 0 -612 0 -152 -165 c-83 -90
-152 -167 -152 -170 0 -3 553 -5 1230 -5 l1229 0 17 31 c47 92 163 171 269
184 109 14 248 -47 312 -138 46 -65 64 -122 64 -202 0 -139 -72 -254 -196
-312 -51 -24 -73 -28 -145 -28 -71 0 -94 4 -140 26 -65 31 -131 92 -160 149
l-20 40 -1353 -1 -1352 0 -125 -136 c-69 -74 -131 -143 -139 -154 -13 -19 16
-19 1935 -19 l1949 0 24 46 c33 62 110 129 179 154 46 18 72 21 137 18 132 -8
224 -65 286 -180 32 -59 34 -69 34 -158 0 -115 -21 -167 -100 -246 -79 -80
-209 -115 -320 -88 -86 20 -194 108 -224 182 l-13 32 -1504 0 -1504 0 0 -615
0 -615 133 144 c111 120 135 142 148 132 9 -6 50 -43 92 -82 l77 -72 -78 -84
c-803 -869 -1587 -1724 -1620 -1767 -24 -31 -46 -58 -48 -60 -2 -2 -4 711 -4
1585 l0 1589 436 475 c240 261 493 537 562 613 l126 137 666 0 666 0 17 35
c36 75 116 144 200 171 69 23 193 13 260 -20z m4267 -905 l0 -740 -497 -483
c-274 -265 -652 -633 -840 -816 l-343 -334 0 951 0 951 150 0 150 0 0 265 0
265 -40 20 c-57 29 -118 95 -149 160 -22 47 -26 69 -26 145 1 109 23 164 100
241 72 72 142 97 255 92 89 -5 137 -22 207 -75 75 -58 131 -198 118 -298 -13
-106 -92 -222 -184 -269 l-31 -17 0 -264 0 -265 160 0 160 0 0 605 0 605 405
0 405 0 0 -739z m-9114 487 c726 -771 753 -798 780 -788 44 17 149 12 211 -11
77 -29 173 -123 196 -194 40 -119 27 -226 -39 -322 -115 -168 -359 -195 -513
-57 -99 89 -137 238 -94 366 l19 56 -444 471 -444 471 -199 0 c-109 0 -199 -2
-199 -5 0 -12 1682 -1785 1693 -1784 7 0 33 4 60 8 224 37 427 -171 386 -397
-22 -117 -108 -221 -217 -262 -81 -31 -196 -25 -275 14 -70 34 -139 110 -166
182 -27 70 -28 176 -3 242 l18 47 -924 978 -924 977 -199 0 c-110 0 -199 -2
-199 -5 0 -3 615 -656 1366 -1451 1362 -1440 1367 -1445 1398 -1437 17 4 72 8
121 8 78 -1 97 -4 143 -28 67 -35 124 -92 159 -159 25 -47 28 -63 28 -148 0
-85 -3 -101 -28 -148 -37 -70 -97 -128 -166 -161 -48 -22 -69 -26 -146 -26
-106 0 -157 19 -229 85 -92 85 -132 213 -102 330 13 51 14 66 4 78 -34 42
-2133 2257 -2140 2257 -4 0 -142 -143 -308 -319 l-300 -319 0 -808 0 -808
1435 -1518 1435 -1518 -1 -1105 0 -1105 -572 -602 -571 -603 -718 0 -718 0
-752 453 c-414 250 -876 528 -1025 618 l-273 164 0 887 0 886 -43 25 c-175
103 -227 318 -118 489 60 94 168 150 289 149 136 0 252 -74 309 -196 37 -79
40 -204 6 -277 -27 -58 -93 -132 -150 -165 l-43 -25 0 -809 0 -809 175 0 175
0 0 534 0 534 -32 13 c-18 7 -56 35 -84 61 -122 115 -144 297 -51 434 149 222
482 197 599 -45 33 -68 37 -188 8 -263 -25 -69 -92 -146 -154 -179 l-46 -24 0
-532 0 -533 190 0 190 0 0 264 0 264 -43 25 c-57 33 -123 107 -150 165 -17 37
-22 66 -22 137 0 78 4 97 28 146 34 69 100 132 175 167 81 37 193 38 273 0 78
-36 133 -89 169 -162 70 -143 40 -301 -77 -407 -22 -20 -54 -42 -71 -50 l-32
-14 0 -267 0 -268 945 0 945 0 0 203 0 204 -1675 1771 -1674 1771 -33 -10
c-58 -17 -160 -12 -224 12 -81 31 -162 112 -193 194 -19 49 -22 75 -19 140 5
98 32 160 98 225 65 66 127 93 225 98 104 5 173 -19 248 -88 76 -69 111 -149
111 -250 -1 -41 -7 -93 -15 -115 l-15 -40 1504 -1590 c827 -875 1539 -1628
1583 -1675 l79 -85 0 207 0 208 -1780 1882 -1779 1882 -108 0 c-92 1 -115 5
-154 24 -75 37 -125 87 -161 160 -30 60 -33 76 -33 152 0 76 3 92 33 152 36
73 87 124 161 160 38 19 62 23 146 23 86 0 107 -3 150 -25 107 -53 181 -161
191 -282 5 -58 0 -87 -31 -184 -6 -18 107 -142 717 -785 398 -421 1212 -1283
1811 -1917 l1087 -1153 0 -635 0 -634 130 0 130 0 0 720 0 719 -2092 2213
c-1150 1217 -2136 2260 -2191 2317 l-99 104 -40 -12 c-22 -7 -70 -12 -107 -12
-132 0 -237 64 -302 183 -32 58 -34 69 -34 153 0 76 4 99 26 146 33 69 91 129
161 166 47 25 64 28 148 28 82 0 103 -4 150 -26 148 -70 229 -242 187 -397
l-14 -53 231 -244 231 -245 5 535 5 534 725 766 725 765 816 0 816 0 219 -232z
m3997 -2687 c31 -31 57 -59 57 -63 0 -4 -115 -132 -255 -285 l-255 -278 0
-302 0 -303 1058 0 1057 0 24 45 c69 131 242 202 385 161 125 -37 205 -117
242 -241 46 -159 -37 -330 -195 -403 -81 -38 -193 -38 -272 -1 -71 34 -129 86
-160 144 l-24 45 -1057 0 -1058 0 0 -160 0 -160 698 0 698 0 34 52 c150 226
482 203 602 -41 19 -38 23 -62 23 -146 0 -89 -3 -105 -27 -151 -75 -142 -239
-218 -389 -180 -99 26 -188 95 -225 177 l-17 39 -699 0 -698 0 2 -167 3 -168
361 -3 360 -2 16 32 c30 61 87 116 156 150 59 29 76 33 152 33 73 0 93 -4 142
-28 71 -35 129 -91 165 -159 25 -48 28 -63 28 -153 0 -90 -3 -105 -28 -153
-36 -68 -94 -124 -165 -159 -49 -24 -69 -28 -142 -28 -73 0 -93 4 -142 28 -69
34 -137 99 -162 156 l-19 41 -364 0 -363 0 0 -1292 0 -1293 272 -272 273 -273
1056 1056 1056 1056 -14 41 c-10 28 -14 67 -11 117 8 131 80 235 204 292 39
18 67 23 139 23 80 0 97 -3 148 -29 139 -71 217 -226 187 -372 -17 -80 -43
-129 -101 -185 -83 -81 -200 -112 -314 -84 l-68 17 -1376 -1376 -1376 -1376
260 1 260 0 918 913 918 913 -12 47 c-17 68 -7 181 20 236 107 211 384 260
551 97 135 -132 137 -351 6 -482 -94 -94 -217 -126 -341 -90 l-58 17 -826
-826 -826 -826 205 0 205 0 444 444 c244 244 441 448 438 453 -3 5 -10 36 -16
69 -18 117 21 228 109 307 137 123 341 118 471 -12 70 -70 99 -141 99 -241 0
-100 -29 -171 -99 -241 -71 -71 -141 -99 -244 -99 -40 1 -88 7 -109 14 l-36
13 -479 -479 -478 -478 -810 0 -810 0 -733 733 -732 732 0 1665 1 1665 982
1071 982 1072 30 -26 c17 -15 56 -51 88 -81z m5131 -60 c214 -105 256 -385 82
-549 -28 -26 -66 -54 -83 -61 l-33 -13 0 -2284 0 -2284 41 -45 c23 -25 47 -45
53 -45 6 0 162 142 346 315 308 290 334 318 332 345 -6 49 25 132 65 179 77
91 214 118 321 65 157 -78 190 -295 64 -422 -19 -19 -53 -43 -76 -53 -46 -21
-145 -25 -194 -8 l-31 11 -321 -302 c-176 -166 -320 -305 -320 -308 0 -4 65
-72 144 -151 l144 -144 335 312 335 312 -1 57 c-1 148 113 262 262 262 79 0
132 -22 186 -75 53 -54 75 -107 75 -185 0 -109 -52 -189 -155 -236 -54 -25
-134 -32 -180 -14 -27 10 47 78 -1375 -1258 l-225 -211 -235 232 c-129 128
-461 457 -737 732 l-503 500 0 1911 0 1910 -35 17 c-56 27 -122 94 -152 156
-24 48 -28 69 -28 141 0 71 4 94 26 141 70 149 220 229 374 199 117 -23 202
-90 254 -199 22 -47 26 -69 26 -141 -1 -73 -5 -93 -30 -143 -31 -63 -94 -127
-150 -154 l-35 -17 0 -1860 0 -1861 378 -378 378 -378 99 93 c55 51 101 97
103 104 2 6 -114 126 -257 265 l-261 254 0 2111 0 2110 -37 22 c-57 31 -109
90 -140 157 -39 83 -39 194 -1 276 36 79 89 133 166 171 59 29 76 33 147 33
103 -1 183 -35 251 -107 69 -74 89 -125 89 -233 0 -71 -5 -100 -22 -137 -28
-61 -101 -139 -158 -169 l-45 -24 0 -2055 0 -2055 138 -135 c75 -74 178 -175
229 -224 l92 -89 80 78 c45 43 81 81 81 85 0 4 -34 43 -75 87 l-75 81 0 2329
0 2328 -46 24 c-105 56 -174 175 -174 299 2 258 262 417 494 303z"/>
<path d="M10395 13834 c-155 -80 -151 -293 7 -359 52 -21 106 -19 158 8 85 43
124 125 106 222 -8 43 -68 113 -113 132 -43 18 -121 16 -158 -3z"/>
<path d="M11319 13240 c-142 -75 -140 -273 3 -344 28 -14 68 -26 88 -26 57 0
136 45 164 93 32 57 39 97 26 149 -25 92 -98 148 -192 148 -32 -1 -67 -8 -89
-20z"/>
<path d="M12262 12699 c-18 -5 -50 -27 -72 -49 -83 -83 -78 -207 13 -287 90
-79 244 -47 297 62 45 94 12 205 -78 258 -37 22 -116 30 -160 16z"/>
<path d="M7940 11200 l0 -1190 135 146 135 145 0 1045 0 1044 -135 0 -135 0 0
-1190z"/>
<path d="M8460 11480 l0 -911 140 153 140 153 0 758 0 757 -140 0 -140 0 0
-910z"/>
<path d="M13576 13616 c-136 -50 -176 -213 -78 -318 101 -108 285 -66 327 75
28 95 -12 190 -100 235 -37 19 -108 23 -149 8z"/>
<path d="M14340 12835 c0 -393 3 -715 6 -715 4 0 73 66 155 147 l149 147 0
568 0 568 -155 0 -155 0 0 -715z"/>
<path d="M13460 11800 c0 -291 3 -530 7 -530 4 0 61 53 128 118 66 64 204 199
308 300 l187 183 0 230 0 229 -315 0 -315 0 0 -530z"/>
<path d="M3363 12819 l-633 -670 0 -624 0 -624 208 -222 207 -221 3 850 2 850
267 284 c146 156 382 404 522 551 141 148 258 273 260 279 3 8 -183 209 -199
215 -3 1 -290 -300 -637 -668z"/>
<path d="M3888 12579 l-487 -514 -1 -937 0 -936 1535 -1623 1535 -1623 0 -768
0 -768 130 0 130 0 0 964 0 964 -1435 1519 -1435 1518 0 905 1 905 192 201
c105 111 261 274 345 362 l152 160 -88 92 -87 93 -487 -514z"/>
<path d="M6562 12594 c-83 -41 -126 -135 -103 -222 53 -193 336 -187 380 8 21
96 -27 185 -121 224 -53 23 -97 20 -156 -10z"/>
<path d="M1597 11969 c-54 -28 -90 -88 -95 -158 -15 -213 275 -288 368 -95 44
90 8 203 -79 252 -51 29 -140 29 -194 1z"/>
<path d="M6808 11600 c-119 -36 -177 -169 -121 -276 32 -63 84 -97 152 -102
77 -6 122 10 165 58 77 86 70 201 -18 278 -52 45 -117 61 -178 42z"/>
<path d="M1955 10863 c-80 -42 -122 -118 -111 -199 13 -95 82 -161 177 -170
66 -7 127 21 173 79 26 32 31 49 34 105 3 60 0 72 -26 113 -51 79 -169 114
-247 72z"/>
<path d="M7145 10500 c-97 -22 -155 -94 -155 -192 1 -91 60 -165 151 -188 160
-40 293 134 216 281 -38 72 -134 117 -212 99z"/>
<path d="M2155 9851 c-155 -72 -151 -289 7 -356 103 -42 223 14 258 121 52
158 -113 305 -265 235z"/>
<path d="M2395 7531 c-48 -22 -79 -54 -100 -103 -31 -77 -14 -158 46 -215 41
-38 77 -53 130 -53 144 0 240 146 180 275 -46 99 -158 141 -256 96z"/>
<path d="M2981 6968 c-28 -14 -54 -38 -73 -67 -26 -41 -29 -53 -26 -113 3 -56
8 -73 34 -105 46 -58 107 -86 173 -79 95 9 164 75 177 168 21 154 -142 267
-285 196z"/>
<path d="M3632 6449 c-70 -21 -132 -111 -132 -194 0 -44 39 -114 83 -149 52
-42 136 -48 203 -16 112 55 142 212 56 304 -53 57 -132 77 -210 55z"/>
<path d="M3015 5146 c11 -7 129 -79 262 -160 l243 -146 1372 0 1373 0 90 93
c50 50 119 122 155 160 l64 67 -1789 0 c-1510 0 -1786 -2 -1770 -14z"/>
<path d="M3946 4582 c5 -5 122 -77 261 -160 l252 -152 637 0 637 0 96 103 c53
56 120 128 150 160 l54 57 -1048 0 c-577 0 -1045 -4 -1039 -8z"/>
<path d="M8853 9705 l-232 -250 -1 -1915 0 -1915 448 -448 447 -447 93 93 92
92 -305 305 -305 305 -2 2215 -3 2215 -232 -250z"/>
<path d="M11685 9671 c-112 -50 -147 -190 -74 -291 68 -94 205 -106 290 -25
42 39 59 82 59 148 0 138 -146 227 -275 168z"/>
<path d="M8158 8950 l-208 -225 0 -1570 0 -1570 605 -605 605 -605 90 90 90
90 -485 485 -485 485 -2 1825 -3 1824 -207 -224z"/>
<path d="M10958 9090 c-169 -90 -121 -341 71 -367 72 -10 161 39 197 110 34
64 12 180 -43 229 -54 49 -160 62 -225 28z"/>
<path d="M10328 8520 c-141 -42 -190 -208 -95 -317 103 -117 301 -67 336 86
31 141 -105 272 -241 231z"/>
<path d="M12211 7509 c-118 -60 -138 -228 -38 -316 46 -41 98 -57 155 -49 93
13 159 83 168 178 7 65 -22 127 -79 172 -52 41 -141 48 -206 15z"/>
<path d="M12010 6417 c-72 -23 -130 -109 -130 -192 0 -40 31 -104 66 -137 91
-85 249 -56 303 54 78 161 -68 329 -239 275z"/>
<path d="M11805 5471 c-137 -63 -153 -239 -32 -335 35 -28 46 -31 111 -31 60
0 78 4 108 24 54 38 81 84 86 150 11 150 -138 254 -273 192z"/>
<path d="M14691 10669 c-112 -45 -158 -179 -97 -284 55 -94 190 -122 280 -58
85 60 108 182 51 265 -51 73 -157 108 -234 77z"/>
<path d="M13975 10241 c-132 -61 -154 -230 -42 -328 84 -74 221 -52 288 45 20
30 24 48 24 108 0 65 -3 76 -31 111 -60 76 -157 102 -239 64z"/>
<path d="M13275 9786 c-44 -19 -103 -89 -111 -131 -22 -121 50 -228 162 -241
194 -23 300 203 157 338 -15 15 -41 32 -56 37 -38 15 -115 13 -152 -3z"/>
<path d="M15870 6282 c-96 -47 -85 -183 17 -211 76 -21 143 29 143 108 0 51
-24 89 -67 107 -42 18 -51 18 -93 -4z"/>
<path d="M16334 5831 c-26 -11 -62 -56 -70 -87 -10 -37 15 -94 50 -115 67 -41
151 -10 176 65 13 39 -3 88 -38 119 -24 22 -87 31 -118 18z"/>
<path d="M14884 5081 l-81 -79 148 -148 148 -148 86 84 85 84 -146 140 c-81
78 -150 142 -153 143 -3 1 -43 -33 -87 -76z"/>
<path d="M14512 4732 l-103 -97 148 -147 148 -147 105 99 105 99 -145 145
c-80 80 -147 146 -150 146 -3 -1 -51 -45 -108 -98z"/>
</g>
</svg>
