<?xml version="1.0" encoding="UTF-8" standalone="no"?>
<!-- Created with Inkscape (http://www.inkscape.org/) -->

<svg
   xmlns:dc="http://purl.org/dc/elements/1.1/"
   xmlns:cc="http://creativecommons.org/ns#"
   xmlns:rdf="http://www.w3.org/1999/02/22-rdf-syntax-ns#"
   xmlns:svg="http://www.w3.org/2000/svg"
   xmlns="http://www.w3.org/2000/svg"
   xmlns:sodipodi="http://sodipodi.sourceforge.net/DTD/sodipodi-0.dtd"
   xmlns:inkscape="http://www.inkscape.org/namespaces/inkscape"
   width="74.06266"
   height="120.09252"
   viewBox="0 0 19.595744 31.774482"
   version="1.1"
   id="svg4103"
   inkscape:version="0.92.0 r15299"
   sodipodi:docname="alten.svg">
  <defs
     id="defs4097">
    <clipPath
       id="clipPath3832"
       clipPathUnits="userSpaceOnUse">
      <path
         inkscape:connector-curvature="0"
         id="path3830"
         d="m 60.62,623.877 h 66.293 v 92.071 H 60.62 Z" />
    </clipPath>
    <clipPath
       id="clipPath3804"
       clipPathUnits="userSpaceOnUse">
      <path
         inkscape:connector-curvature="0"
         id="path3802"
         d="M 64.003,626.629 H 118.8 v 89.319 H 64.003 Z" />
    </clipPath>
  </defs>
  <sodipodi:namedview
     id="base"
     pagecolor="#ffffff"
     bordercolor="#666666"
     borderopacity="1.0"
     inkscape:pageopacity="0.0"
     inkscape:pageshadow="2"
     inkscape:zoom="4.4755517"
     inkscape:cx="36.531133"
     inkscape:cy="56.307412"
     inkscape:document-units="mm"
     inkscape:current-layer="layer1"
     showgrid="false"
     fit-margin-top="0"
     fit-margin-left="0"
     fit-margin-right="0"
     fit-margin-bottom="0"
     units="px"
     inkscape:window-width="1280"
     inkscape:window-height="744"
     inkscape:window-x="-4"
     inkscape:window-y="-4"
     inkscape:window-maximized="1" />
  <metadata
     id="metadata4100">
    <rdf:RDF>
      <cc:Work
         rdf:about="">
        <dc:format>image/svg+xml</dc:format>
        <dc:type
           rdf:resource="http://purl.org/dc/dcmitype/StillImage" />
        <dc:title></dc:title>
      </cc:Work>
    </rdf:RDF>
  </metadata>
  <g
     inkscape:label="Layer 1"
     inkscape:groupmode="layer"
     id="layer1"
     transform="translate(-46.274947,-141.12913)">
    <g
       id="g4233"
       transform="translate(0.13229067,-0.13229856)">
      <path
         d="m 62.786782,142.18056 h 2.027061 v 27.02913 H 47.064888 v -5.49593 z"
         style="fill:#fff200;fill-opacity:1;fill-rule:nonzero;stroke:none;stroke-width:0.35277778"
         id="path3792"
         inkscape:connector-curvature="0" />
      <path
         d="m 47.055538,142.17424 0.0092,21.4944 15.721189,-21.48805 z"
         style="fill:#ed1d24;fill-opacity:1;fill-rule:nonzero;stroke:none;stroke-width:0.35277778"
         id="path3796"
         inkscape:connector-curvature="0" />
      <g
         transform="matrix(0.35277777,0,0,-0.35277777,64.82559,141.75867)"
         id="g3806">
        <path
           inkscape:connector-curvature="0"
           id="path3808"
           style="fill:none;stroke:#ffffff;stroke-width:2.06900001;stroke-linecap:butt;stroke-linejoin:miter;stroke-miterlimit:4;stroke-dasharray:none;stroke-opacity:1"
           d="M 0,0 H -51.55 V -78.978 H 1.178 V 0 Z" />
      </g>
      <path
         d="m 47.420416,169.20482 v -27.03054 l -0.364772,0.36477 h 17.769769 l -0.364772,-0.36477 v 27.03054 l 0.364772,-0.36477 H 47.055644 Z m 17.770122,0 v -27.03054 -0.36477 H 64.825413 47.055644 46.690519 v 0.36477 27.03054 0.36477 h 0.365125 17.769769 0.365125 z"
         style="fill:#000000;fill-opacity:1;fill-rule:nonzero;stroke:none;stroke-width:0.35277778"
         id="path3812"
         inkscape:connector-curvature="0" />
      <path
         d="m 62.521633,142.54269 -15.794919,21.57271 1.835503,0.0836 13.820774,-18.74308 z"
         style="fill:#0095da;fill-opacity:1;fill-rule:nonzero;stroke:none;stroke-width:0.35277778"
         id="path3816"
         inkscape:connector-curvature="0" />
      <path
         d="m 60.566608,155.28724 -7.25805,-4.7946 7.830608,-3.92183 z"
         style="fill:#000000;fill-opacity:1;fill-rule:nonzero;stroke:none;stroke-width:0.35277778"
         id="path3820"
         inkscape:connector-curvature="0" />
      <path
         d="m 60.118898,163.26422 -5.363633,0.001 2.694516,-4.6796 z"
         style="fill:#000000;fill-opacity:1;fill-rule:nonzero;stroke:none;stroke-width:0.35277778"
         id="path3824"
         inkscape:connector-curvature="0" />
      <g
         transform="matrix(0.35277777,0,0,-0.35277777,56.152584,165.89876)"
         id="g3834">
        <path
           inkscape:connector-curvature="0"
           id="path3836"
           style="fill:#ed1d24;fill-opacity:1;fill-rule:nonzero;stroke:none"
           d="M 0,0 C 0.034,3.129 6.93,2.874 9.773,0 Z" />
      </g>
      <g
         style="fill:#000000"
         transform="matrix(0.35277777,0,0,-0.35277777,48.172151,171.55527)"
         id="g3838">
        <path
           inkscape:connector-curvature="0"
           id="path3840"
           style="fill:#000000;fill-opacity:1;fill-rule:nonzero;stroke:none"
           d="m 0,0 h -0.027 l -1.11,-1.844 h 2.394 z m -1.698,-2.651 -0.829,-1.07 H -4.6 l 3.931,5.208 h 1.525 l 3.825,-5.208 h -2.1 l -0.776,1.07 z" />
      </g>
      <g
         style="fill:#000000"
         transform="matrix(0.35277777,0,0,-0.35277777,52.190431,172.56403)"
         id="g3842">
        <path
           inkscape:connector-curvature="0"
           id="path3844"
           style="fill:#000000;fill-opacity:1;fill-rule:nonzero;stroke:none"
           d="M 0,0 H 2.781 V -0.861 H -1.966 V 4.212 H 0 Z" />
      </g>
      <g
         style="fill:#000000"
         transform="matrix(0.35277777,0,0,-0.35277777,56.010838,172.86778)"
         id="g3846">
        <path
           inkscape:connector-curvature="0"
           id="path3848"
           style="fill:#000000;fill-opacity:1;fill-rule:nonzero;stroke:none"
           d="M 0,0 H -1.966 V 4.211 H -3.998 V 5.073 H 2.033 V 4.211 H 0 Z" />
      </g>
      <g
         style="fill:#000000"
         transform="matrix(0.35277777,0,0,-0.35277777,59.138177,171.38209)"
         id="g3850">
        <path
           inkscape:connector-curvature="0"
           id="path3852"
           style="fill:#000000;fill-opacity:1;fill-rule:nonzero;stroke:none"
           d="M 0,0 V -1.117 H 3.129 V -1.978 H 0 V -3.35 H 3.249 V -4.211 H -1.966 V 0.862 H 3.249 V 0 Z" />
      </g>
      <g
         style="fill:#000000"
         transform="matrix(0.35277777,0,0,-0.35277777,62.208226,171.03072)"
         id="g3854">
        <path
           inkscape:connector-curvature="0"
           id="path3856"
           style="fill:#000000;fill-opacity:1;fill-rule:nonzero;stroke:none"
           d="m 0,0 h 1.418 l 5.308,-3.546 h 0.027 v 3.412 H 8.719 V -5.309 H 7.301 L 1.992,-1.763 H 1.966 V -5.207 H 0 Z" />
      </g>
    </g>
  </g>
</svg>
