<svg xmlns="http://www.w3.org/2000/svg" width="400" height="100" viewBox="0 0 400 100">
  <title>OutSystems-logo-digital-2018-black</title>
  <g>
    <path d="M33.29,51.622a13.691,13.691,0,0,0,27.237,0q.069-.691.069-1.4a13.688,13.688,0,1,0-27.375,0c0,.471.023.939.069,1.4M10,50A36.91,36.91,0,1,1,46.908,86.909,36.908,36.908,0,0,1,10,50" fill="#333" fill-rule="evenodd"/>
    <path d="M129.235,49.75c0,11.225-7.776,16.117-15.115,16.117-8.214,0-14.549-6.019-14.549-15.615,0-10.16,6.646-16.117,15.05-16.117,8.719,0,14.614,6.333,14.614,15.615m-24.083.313c0,6.649,3.827,11.666,9.22,11.666,5.268,0,9.219-4.955,9.219-11.79,0-5.144-2.573-11.666-9.095-11.666s-9.344,6.022-9.344,11.79" fill="#333"/>
    <path d="M161.6,56.9c0,3.135.062,5.9.251,8.278H156.96l-.313-4.954h-.127a11.419,11.419,0,0,1-10.033,5.644c-4.768,0-10.474-2.633-10.474-13.3V34.825h5.519V51.632c0,5.77,1.757,9.657,6.774,9.657a7.981,7.981,0,0,0,7.276-5.017,8.12,8.12,0,0,0,.5-2.821V34.825H161.6Z" fill="#333"/>
    <path d="M189.9,59.534a14.467,14.467,0,0,0,7.273,2.2c4.014,0,5.9-2.006,5.9-4.515,0-2.635-1.568-4.078-5.644-5.583-5.457-1.944-8.028-4.955-8.028-8.591,0-4.892,3.952-8.906,10.474-8.906a15.154,15.154,0,0,1,7.463,1.882l-1.379,4.014a11.8,11.8,0,0,0-6.209-1.757c-3.262,0-5.081,1.881-5.081,4.14,0,2.509,1.819,3.636,5.771,5.142,5.268,2.008,7.963,4.64,7.963,9.157,0,5.33-4.139,9.157-11.35,9.157a17.275,17.275,0,0,1-8.53-2.135Z" fill="#333"/>
    <path d="M243.838,59.534a14.485,14.485,0,0,0,7.276,2.2c4.012,0,5.9-2.006,5.9-4.515,0-2.635-1.568-4.078-5.644-5.583-5.457-1.944-8.027-4.955-8.027-8.591,0-4.892,3.949-8.906,10.471-8.906a15.151,15.151,0,0,1,7.463,1.882l-1.379,4.014a11.8,11.8,0,0,0-6.208-1.757c-3.263,0-5.082,1.881-5.082,4.14,0,2.509,1.819,3.636,5.771,5.142,5.268,2.008,7.965,4.64,7.965,9.157,0,5.33-4.14,9.157-11.352,9.157a17.278,17.278,0,0,1-8.528-2.135Z" fill="#333"/>
    <path d="M320.023,43.04c0-3.136-.062-5.709-.249-8.215H324.6l.251,4.89h.187a10.465,10.465,0,0,1,9.533-5.581,8.972,8.972,0,0,1,8.592,6.084h.125a12.521,12.521,0,0,1,3.387-3.952,10.372,10.372,0,0,1,6.711-2.132c4.014,0,9.971,2.635,9.971,13.171V65.179h-5.393V47.994c0-5.833-2.132-9.344-6.584-9.344a7.149,7.149,0,0,0-6.524,5.017,9.161,9.161,0,0,0-.438,2.76V65.179h-5.393V46.991c0-4.83-2.132-8.341-6.335-8.341-3.449,0-5.958,2.76-6.836,5.519a7.588,7.588,0,0,0-.438,2.7V65.179h-5.395Z" fill="#333"/>
    <path d="M371.5,59.534a14.482,14.482,0,0,0,7.276,2.2c4.011,0,5.9-2.006,5.9-4.515,0-2.635-1.568-4.078-5.644-5.583C373.569,49.687,371,46.676,371,43.04c0-4.892,3.95-8.906,10.472-8.906a15.154,15.154,0,0,1,7.463,1.882l-1.379,4.014a11.8,11.8,0,0,0-6.209-1.757c-3.262,0-5.081,1.881-5.081,4.14,0,2.509,1.819,3.636,5.771,5.142C387.3,49.563,390,52.2,390,56.712c0,5.33-4.141,9.157-11.35,9.157a17.28,17.28,0,0,1-8.53-2.135Z" fill="#333"/>
    <path d="M234.033,35.2,228.011,52.6c-.751,2.2-1.378,5.068-1.943,5.932h-.125c-.5-.864-1.254-3.8-1.946-5.8L217.351,35.2h-6.022l11.228,27.783a4.429,4.429,0,0,1,.375,1.349,3.784,3.784,0,0,1-.438,1.272,16.6,16.6,0,0,1-4.643,6.121,14.512,14.512,0,0,1-4.828,2.684l1.5,4.613a15.085,15.085,0,0,0,6.652-3.555c3.764-3.26,6.46-8.405,10.411-18.817l8.279-21.45Z" fill="#333"/>
    <path d="M313,50.757a12.161,12.161,0,0,0,.189-2.463c0-5.595-2.642-14.277-12.574-14.277-8.865,0-14.271,7.26-14.271,16.438s5.6,15.416,14.962,15.416a23.132,23.132,0,0,0,10.015-2.185l-1.378-4.2c-4.63,1.883-8.088,2.259-10.672,1.768a10.285,10.285,0,0,1-3-1.132c-4.092-2.508-4.586-7.91-4.643-9.04,0-.073-.007-.329-.007-.329ZM300.174,38.309c6.225,0,7.733,5.531,7.671,8.989H291.688c.44-3.458,2.891-8.989,8.486-8.989" fill="#333"/>
    <path d="M183.092,59.59a7.277,7.277,0,0,1-3.435,1.367c-1.911-.03-3.228-1.353-3.228-5.06V38.654h7.779V35.2h-7.779V24.058l-6.051,4.12v27.4c0,3.576.892,6.271,2.46,7.9a7.227,7.227,0,0,0,3.257,1.967,8.964,8.964,0,0,0,8.314-1.66Z" fill="#333"/>
    <path d="M281.661,59.59a7.355,7.355,0,0,1-3.451,1.367c-1.909-.03-3.242-1.353-3.242-5.06V38.654h7.781V35.2h-7.781V24.058l-6.049,4.12v27.4c0,3.576.906,6.271,2.474,7.9a7.234,7.234,0,0,0,3.264,1.967,8.969,8.969,0,0,0,8.316-1.66Z" fill="#333"/>
  </g>
</svg>
