<svg id="Agrupar_773" data-name="Agrupar 773" xmlns="http://www.w3.org/2000/svg" width="381.339" height="94.427" viewBox="0 0 381.339 94.427">
  <g id="Layer_2_2_">
    <g id="Layer_1-2_1_">
      <path id="Caminho_1962" data-name="Caminho 1962" d="M18.473,12.12A8.579,8.579,0,0,0,9.9,20.693v.148a8.372,8.372,0,0,0,2.513,6.06,8.189,8.189,0,0,0,6.06,2.661,8.713,8.713,0,0,0,6.208-2.513,8.141,8.141,0,0,0,2.513-6.208c0-4.286.443-6.947,1.478-7.982s3.7-1.626,8.129-1.626a8.712,8.712,0,0,0,6.208-2.513,8.624,8.624,0,0,0,2.513-6.06,8.65,8.65,0,0,0-.3-1.921L43.748.591,42.565.3,41.087.148C40.348.148,39.461,0,38.722,0h-.591a44.269,44.269,0,0,0-9.9,1.182,4.557,4.557,0,0,0-.148,1.478c0,4.286-.443,6.947-1.478,7.982S22.907,12.12,18.473,12.12Z" transform="translate(4.733)" fill="#ff6b00"/>
      <path id="Caminho_1963" data-name="Caminho 1963" d="M11.085,26.57A8.713,8.713,0,0,0,13.6,20.363c0-4.286.443-6.947,1.478-7.982s3.7-1.626,8.129-1.626a8.713,8.713,0,0,0,6.208-2.513,7.826,7.826,0,0,0,2.513-6.06A3.254,3.254,0,0,0,31.778,1,47.2,47.2,0,0,0,0,27.457a8.849,8.849,0,0,0,5.025,1.626A8.624,8.624,0,0,0,11.085,26.57Z" transform="translate(0 0.478)" fill="#ff6b00"/>
      <path id="Caminho_1964" data-name="Caminho 1964" d="M43.321,10.946a8.713,8.713,0,0,0,6.208-2.513,18.463,18.463,0,0,0,1.33-1.774A47.185,47.185,0,0,0,34.748.6,7.2,7.2,0,0,0,34.6,2.374a8.372,8.372,0,0,0,2.513,6.06A8.713,8.713,0,0,0,43.321,10.946Z" transform="translate(16.541 0.287)" fill="#ff6b00"/>
      <path id="Caminho_1965" data-name="Caminho 1965" d="M30.973,37.993c4.434,0,7.095.443,8.129,1.478s1.478,3.7,1.478,7.982a8.713,8.713,0,0,0,2.513,6.208,8.834,8.834,0,0,0,12.416-.148,8.564,8.564,0,0,0,0-12.12A8.141,8.141,0,0,0,49.3,38.88c-4.434,0-7.095-.591-8.129-1.478s-1.478-3.7-1.478-7.982a8.712,8.712,0,0,0-2.513-6.208,8.624,8.624,0,0,0-6.06-2.513A8.736,8.736,0,0,0,22.4,29.421a7.96,7.96,0,0,0,2.66,6.06A8.111,8.111,0,0,0,30.973,37.993Z" transform="translate(10.708 9.896)" fill="#ff6b00"/>
      <path id="Caminho_1966" data-name="Caminho 1966" d="M43.321,20.6a8.372,8.372,0,0,0-6.06,2.513,8.189,8.189,0,0,0-2.66,6.06,8.78,8.78,0,0,0,14.928,6.208,8.141,8.141,0,0,0,2.513-6.208,8.372,8.372,0,0,0-2.513-6.06A8.713,8.713,0,0,0,43.321,20.6Z" transform="translate(16.541 9.848)" fill="#ff6b00"/>
      <path id="Caminho_1967" data-name="Caminho 1967" d="M7.539,50.2A7.946,7.946,0,0,0,3.4,51.382,48.716,48.716,0,0,0,15.372,62.764a8.638,8.638,0,0,0-1.626-9.9A8.755,8.755,0,0,0,7.539,50.2Z" transform="translate(1.625 23.998)" fill="#ff6b00"/>
      <path id="Caminho_1968" data-name="Caminho 1968" d="M55.688,47.96a8.189,8.189,0,0,0-2.661,6.06c0,4.434-.443,7.095-1.478,8.129s-3.7,1.478-8.129,1.478a8.372,8.372,0,0,0-6.06,2.513,8.18,8.18,0,0,0-2.66,5.912,47.328,47.328,0,0,0,33.108-24.24,8.624,8.624,0,0,0-6.06-2.513A8.78,8.78,0,0,0,55.688,47.96Z" transform="translate(16.589 21.656)" fill="#ff6b00"/>
      <path id="Caminho_1969" data-name="Caminho 1969" d="M18.473,20.6A8.579,8.579,0,0,0,9.9,29.173v.148a8.372,8.372,0,0,0,2.513,6.06,8.274,8.274,0,0,0,6.208,2.661,8.647,8.647,0,1,0,.148-17.293c-.148-.148-.148-.148-.3-.148Z" transform="translate(4.733 9.848)" fill="#ff6b00"/>
      <path id="Caminho_1970" data-name="Caminho 1970" d="M17.717,57.7A8.784,8.784,0,0,0,12.1,59.769a45.251,45.251,0,0,0,14.337,5.912,8.568,8.568,0,0,0-2.513-5.469A8.971,8.971,0,0,0,17.717,57.7Z" transform="translate(5.784 27.584)" fill="#ff6b00"/>
      <path id="Caminho_1971" data-name="Caminho 1971" d="M73.736,35.517A8.141,8.141,0,0,0,67.529,33a8.8,8.8,0,0,0-8.573,8.721c0,4.434-.443,7.095-1.478,8.129s-3.7,1.478-7.982,1.478a8.582,8.582,0,0,0-8.721,8.425v.148c0,4.286-.591,7.095-1.626,8.129s-3.7,1.478-8.129,1.478a8.713,8.713,0,0,0-6.208,2.513A7.636,7.636,0,0,0,22.3,77.642a48.609,48.609,0,0,0,17.293.443c0-4.286.443-6.947,1.478-7.982s3.843-1.478,8.129-1.478a8.834,8.834,0,0,0,8.721-8.721c0-4.434.591-7.095,1.478-8.129,1.035-1.035,3.7-1.478,7.982-1.478a8.713,8.713,0,0,0,6.208-2.513,8.624,8.624,0,0,0,2.513-6.06A7.108,7.108,0,0,0,73.736,35.517Z" transform="translate(10.661 15.771)" fill="#ff6b00"/>
      <g id="Agrupar_772" data-name="Agrupar 772" opacity="0.35">
        <path id="Caminho_1972" data-name="Caminho 1972" d="M18.473,12.12A8.579,8.579,0,0,0,9.9,20.693v.148a8.372,8.372,0,0,0,2.513,6.06,8.189,8.189,0,0,0,6.06,2.661,8.713,8.713,0,0,0,6.208-2.513,8.141,8.141,0,0,0,2.513-6.208c0-4.286.443-6.947,1.478-7.982s3.7-1.626,8.129-1.626a8.712,8.712,0,0,0,6.208-2.513,8.624,8.624,0,0,0,2.513-6.06,8.65,8.65,0,0,0-.3-1.921L43.748.591,42.565.3,41.087.148C40.348.148,39.461,0,38.722,0h-.591a44.269,44.269,0,0,0-9.9,1.182,4.557,4.557,0,0,0-.148,1.478c0,4.286-.443,6.947-1.478,7.982S22.907,12.12,18.473,12.12Z" transform="translate(4.733)" fill="#ff6b00"/>
        <path id="Caminho_1973" data-name="Caminho 1973" d="M11.085,26.57A8.713,8.713,0,0,0,13.6,20.363c0-4.286.443-6.947,1.478-7.982s3.7-1.626,8.129-1.626a8.713,8.713,0,0,0,6.208-2.513,7.826,7.826,0,0,0,2.513-6.06A3.254,3.254,0,0,0,31.778,1,47.2,47.2,0,0,0,0,27.457a8.849,8.849,0,0,0,5.025,1.626A8.624,8.624,0,0,0,11.085,26.57Z" transform="translate(0 0.478)" fill="#ff6b00"/>
        <path id="Caminho_1974" data-name="Caminho 1974" d="M43.321,10.946a8.713,8.713,0,0,0,6.208-2.513,18.463,18.463,0,0,0,1.33-1.774A47.185,47.185,0,0,0,34.748.6,7.2,7.2,0,0,0,34.6,2.374a8.372,8.372,0,0,0,2.513,6.06A8.713,8.713,0,0,0,43.321,10.946Z" transform="translate(16.541 0.287)" fill="#ff6b00"/>
        <path id="Caminho_1975" data-name="Caminho 1975" d="M30.973,37.993c4.434,0,7.095.443,8.129,1.478s1.478,3.7,1.478,7.982a8.713,8.713,0,0,0,2.513,6.208,8.834,8.834,0,0,0,12.416-.148,8.564,8.564,0,0,0,0-12.12A8.141,8.141,0,0,0,49.3,38.88c-4.434,0-7.095-.591-8.129-1.478s-1.478-3.7-1.478-7.982a8.712,8.712,0,0,0-2.513-6.208,8.624,8.624,0,0,0-6.06-2.513A8.736,8.736,0,0,0,22.4,29.421a7.96,7.96,0,0,0,2.66,6.06A8.111,8.111,0,0,0,30.973,37.993Z" transform="translate(10.708 9.896)" fill="#ff6b00"/>
        <path id="Caminho_1976" data-name="Caminho 1976" d="M43.321,20.6a8.372,8.372,0,0,0-6.06,2.513,8.189,8.189,0,0,0-2.66,6.06,8.78,8.78,0,0,0,14.928,6.208,8.141,8.141,0,0,0,2.513-6.208,8.372,8.372,0,0,0-2.513-6.06A8.713,8.713,0,0,0,43.321,20.6Z" transform="translate(16.541 9.848)" fill="#ff6b00"/>
        <path id="Caminho_1977" data-name="Caminho 1977" d="M7.539,50.2A7.946,7.946,0,0,0,3.4,51.382,48.716,48.716,0,0,0,15.372,62.764a8.638,8.638,0,0,0-1.626-9.9A8.755,8.755,0,0,0,7.539,50.2Z" transform="translate(1.625 23.998)" fill="#ff6b00"/>
        <path id="Caminho_1978" data-name="Caminho 1978" d="M55.688,47.96a8.189,8.189,0,0,0-2.661,6.06c0,4.434-.443,7.095-1.478,8.129s-3.7,1.478-8.129,1.478a8.372,8.372,0,0,0-6.06,2.513,8.18,8.18,0,0,0-2.66,5.912,47.328,47.328,0,0,0,33.108-24.24,8.624,8.624,0,0,0-6.06-2.513A8.78,8.78,0,0,0,55.688,47.96Z" transform="translate(16.589 21.656)" fill="#ff6b00"/>
        <path id="Caminho_1979" data-name="Caminho 1979" d="M18.473,20.6A8.579,8.579,0,0,0,9.9,29.173v.148a8.372,8.372,0,0,0,2.513,6.06,8.274,8.274,0,0,0,6.208,2.661,8.647,8.647,0,1,0,.148-17.293c-.148-.148-.148-.148-.3-.148Z" transform="translate(4.733 9.848)" fill="#ff6b00"/>
        <path id="Caminho_1980" data-name="Caminho 1980" d="M17.717,57.7A8.784,8.784,0,0,0,12.1,59.769a45.251,45.251,0,0,0,14.337,5.912,8.568,8.568,0,0,0-2.513-5.469A8.971,8.971,0,0,0,17.717,57.7Z" transform="translate(5.784 27.584)" fill="#ff6b00"/>
        <path id="Caminho_1981" data-name="Caminho 1981" d="M73.736,35.517A8.141,8.141,0,0,0,67.529,33a8.8,8.8,0,0,0-8.573,8.721c0,4.434-.443,7.095-1.478,8.129s-3.7,1.478-7.982,1.478a8.582,8.582,0,0,0-8.721,8.425v.148c0,4.286-.591,7.095-1.626,8.129s-3.7,1.478-8.129,1.478a8.713,8.713,0,0,0-6.208,2.513A7.636,7.636,0,0,0,22.3,77.642a48.609,48.609,0,0,0,17.293.443c0-4.286.443-6.947,1.478-7.982s3.843-1.478,8.129-1.478a8.834,8.834,0,0,0,8.721-8.721c0-4.434.591-7.095,1.478-8.129,1.035-1.035,3.7-1.478,7.982-1.478a8.713,8.713,0,0,0,6.208-2.513,8.624,8.624,0,0,0,2.513-6.06A7.108,7.108,0,0,0,73.736,35.517Z" transform="translate(10.661 15.771)" fill="#ff6b00"/>
      </g>
      <path id="Caminho_1982" data-name="Caminho 1982" d="M87.889,39.284A8.4,8.4,0,0,0,94.1,30.86v-.3c0-6.06-4.139-9.164-11.824-9.164-2.513,0-5.617.148-7.242.3-.591.148-1.33.3-1.33,1.33V51.7a1.166,1.166,0,0,0,1.182,1.182H77.1A1.272,1.272,0,0,0,78.282,51.7h0V40.024c1.182,0,2.956.148,4.139.148h.591l7.242,11.972c.443.591.591.739,1.182.739h2.808c.739,0,.887-.443.887-.739a.889.889,0,0,0-.148-.591Zm1.774-8.721v.3c0,3.843-2.069,5.321-7.39,5.321H78.134V25.686a38.728,38.728,0,0,1,4.139-.148C87.446,25.539,89.663,27.017,89.663,30.564Z" transform="translate(35.233 10.23)" fill="#ff6b00"/>
      <path id="Caminho_1983" data-name="Caminho 1983" d="M106.945,21.6c-1.774-.148-5.764-.3-7.982-.3-6.208,0-9.164,2.513-9.164,7.982V44.8c0,5.469,2.956,7.982,9.164,7.982,1.035,0,6.208,0,7.982-.148h0a.985.985,0,0,0,.739-1.035V49.531a.937.937,0,0,0-.739-.887H98.964c-4.286,0-4.582-1.182-4.582-3.843V39.037H106.5a1.166,1.166,0,0,0,1.182-1.182h0V36.228a1.166,1.166,0,0,0-1.182-1.182H94.234V29.282c0-2.808.443-3.843,4.582-3.843H106.8a.852.852,0,0,0,.887-.887h0V22.482C107.832,22.187,107.389,21.743,106.945,21.6Z" transform="translate(42.93 10.183)" fill="#ff6b00"/>
      <path id="Caminho_1984" data-name="Caminho 1984" d="M124.541,21.4H104.882a1.166,1.166,0,0,0-1.182,1.182v1.774a1.142,1.142,0,0,0,1.035,1.182h7.686V51.7a1.166,1.166,0,0,0,1.182,1.182h2.217A1.272,1.272,0,0,0,117,51.7V25.391h7.538a1.142,1.142,0,0,0,1.182-1.035V22.435a1.142,1.142,0,0,0-1.182-1.035Z" transform="translate(49.575 10.23)" fill="#ff6b00"/>
      <path id="Caminho_1985" data-name="Caminho 1985" d="M131.929,21.4h-2.365c-6.5,0-9.164,2.66-9.164,8.868V51.552a1.166,1.166,0,0,0,1.182,1.182H123.8a1.272,1.272,0,0,0,1.182-1.182V39.876h11.824V51.552a1.166,1.166,0,0,0,1.182,1.182h2.217a1.272,1.272,0,0,0,1.182-1.182V30.268C141.093,24.061,138.285,21.4,131.929,21.4Zm-6.947,8.868c0-4.139,1.182-4.73,4.73-4.73h2.365c3.4,0,4.73.739,4.73,4.73v5.617H125.13V30.268Z" transform="translate(57.558 10.23)" fill="#ff6b00"/>
      <path id="Caminho_1986" data-name="Caminho 1986" d="M141,21.4h-2.217a1.142,1.142,0,0,0-1.182,1.035h0V51.552a1.166,1.166,0,0,0,1.182,1.182H141a1.272,1.272,0,0,0,1.182-1.182V22.582A1.166,1.166,0,0,0,141,21.4Z" transform="translate(65.781 10.23)" fill="#ff6b00"/>
      <path id="Caminho_1987" data-name="Caminho 1987" d="M160.85,48.7h-7.834c-4.286,0-4.582-1.182-4.582-3.843V22.682a1.166,1.166,0,0,0-1.182-1.182h-2.069A1.166,1.166,0,0,0,144,22.682h0V44.853c0,7.095,4.582,7.982,9.164,7.982,2.66,0,5.321-.148,7.981-.3h0a.985.985,0,0,0,.739-1.035V49.583a.977.977,0,0,0-1.035-.887Z" transform="translate(68.84 10.278)" fill="#ff6b00"/>
      <path id="Caminho_1988" data-name="Caminho 1988" d="M174.489,49.927h-.3c-1.33.148-4.434.3-6.947.3a6.519,6.519,0,0,1-5.469-2.365c-1.478-1.774-2.217-4.582-2.217-8.277V34.407c0-3.7.739-6.5,2.217-8.277a6.962,6.962,0,0,1,5.469-2.365c2.365,0,5.469.148,7.095.3h.3a1.111,1.111,0,0,0,1.035-.739V22.73c0-.591-.591-1.035-1.182-1.182h-.148a54.8,54.8,0,0,0-6.947-.443,9.569,9.569,0,0,0-7.242,2.808c-2.069,2.217-3.252,5.764-3.252,10.346v5.173c0,11.381,6.5,13.155,10.494,13.155a54.805,54.805,0,0,0,6.947-.443h.148a1.166,1.166,0,0,0,1.182-1.182v-.443a.841.841,0,0,0-.591-1.035C174.637,49.927,174.637,49.927,174.489,49.927Z" transform="translate(75.007 10.083)" fill="#b2b2b2"/>
      <path id="Caminho_1989" data-name="Caminho 1989" d="M181.038,21.4c-7.095,0-10.938,4.73-10.938,13.3V39.58c0,8.573,3.843,13.3,10.938,13.3s10.938-4.73,10.938-13.3V34.7C191.975,26.13,188.132,21.4,181.038,21.4Zm8.277,13.3V39.58c0,7.095-2.808,10.642-8.129,10.642-5.469,0-8.277-3.547-8.277-10.642V34.7c0-7.095,2.808-10.642,8.129-10.642C186.506,24.061,189.315,27.608,189.315,34.7Z" transform="translate(81.318 10.23)" fill="#b2b2b2"/>
      <path id="Caminho_1990" data-name="Caminho 1990" d="M197.594,21.4a67.967,67.967,0,0,0-9.46.739,1.142,1.142,0,0,0-1.035,1.182V51.7a1.142,1.142,0,0,0,1.035,1.182h.443a1.272,1.272,0,0,0,1.182-1.182h0V24.356c2.069-.148,5.025-.443,7.686-.443,5.173,0,7.095,2.513,7.095,8.721V51.552a1.166,1.166,0,0,0,1.182,1.182h.443a1.272,1.272,0,0,0,1.182-1.182V32.633C207.5,25.1,204.245,21.4,197.594,21.4Z" transform="translate(89.444 10.23)" fill="#b2b2b2"/>
      <path id="Caminho_1991" data-name="Caminho 1991" d="M213.89,35.981l-2.66-1.626c-3.547-2.217-5.321-3.547-5.321-5.912,0-3.1,2.217-4.434,7.243-4.434,1.182,0,2.808.148,4.139.3a11.492,11.492,0,0,0,1.921.148,1.049,1.049,0,0,0,1.182-1.035v-.591a1.166,1.166,0,0,0-1.182-1.182l-.739-.148c-1.626-.148-3.4-.3-5.321-.3-6.651,0-10.051,2.365-10.051,7.095,0,3.843,2.808,5.912,6.651,8.277l2.661,1.626c4.434,2.808,5.912,3.7,5.912,6.5a4.989,4.989,0,0,1-1.33,3.7c-1.182,1.182-3.1,1.626-5.764,1.626a38.953,38.953,0,0,1-4.139-.3l-1.922-.148h-.148c-1.182,0-1.182.739-1.182,1.035V51.2a1.166,1.166,0,0,0,1.182,1.182l.887.148c1.774.148,3.547.3,5.469.3,6.651,0,9.9-2.661,9.9-7.982C221.28,40.858,218.324,38.789,213.89,35.981Z" transform="translate(97.093 10.135)" fill="#b2b2b2"/>
      <path id="Caminho_1992" data-name="Caminho 1992" d="M236.715,21.4h-.3a1.142,1.142,0,0,0-1.182,1.035v27.2a45.463,45.463,0,0,1-7.834.591c-2.661,0-4.434-.739-5.617-2.217s-1.478-3.4-1.478-6.5V22.582a1.166,1.166,0,0,0-1.182-1.182h-.443a1.272,1.272,0,0,0-1.182,1.182h0V41.5c0,7.538,3.252,11.233,9.755,11.233a50.058,50.058,0,0,0,9.46-.887c.591-.148,1.035-.591.887-1.182V22.582a1.047,1.047,0,0,0-1.035-1.182Z" transform="translate(103.977 10.23)" fill="#b2b2b2"/>
      <path id="Caminho_1993" data-name="Caminho 1993" d="M249.133,50.222h-9.312c-1.922,0-2.661-.3-2.661-2.513V22.582a1.142,1.142,0,0,0-1.035-1.182h-.443a1.272,1.272,0,0,0-1.182,1.182V47.857c0,3.4,1.774,5.025,5.469,5.025h9.312a1.142,1.142,0,0,0,1.182-1.035h0v-.3a1.142,1.142,0,0,0-1.035-1.182C249.281,50.222,249.281,50.222,249.133,50.222Z" transform="translate(112.104 10.23)" fill="#b2b2b2"/>
      <path id="Caminho_1994" data-name="Caminho 1994" d="M263.845,21.4H244.482a1.142,1.142,0,0,0-1.182,1.035v.443a1.142,1.142,0,0,0,1.035,1.182h8.425V51.7a1.166,1.166,0,0,0,1.182,1.182h.443a1.272,1.272,0,0,0,1.182-1.182V23.913h8.277a1.142,1.142,0,0,0,1.182-1.035v-.443a1.054,1.054,0,0,0-1.182-1.035Z" transform="translate(116.311 10.23)" fill="#b2b2b2"/>
    </g>
  </g>
</svg>
