<svg xmlns="http://www.w3.org/2000/svg" height="266.667" width="1000"><defs><clipPath id="a" clipPathUnits="userSpaceOnUse"><path d="M0 200h750V0H0z"/></clipPath></defs><path d="M296.619 78.14h28.088V52.236h-28.088zm0 144.964h28.088V91.511h-28.088zm180.333-38.54L449.853 91.51h-31.036l-27.085 93.053-18.607-93.053h-27.25l28 131.593h32.782l27.682-97.19L462 223.105h32.784L522.788 91.51h-27.259z" fill="#1b57fd"/><g clip-path="url(#a)" transform="matrix(1.33333 0 0 -1.33333 0 266.667)"><path d="M85.262 50.996c-5.123-.679-10.46-1.023-15.913-1.023-16.86 0-19.955 5.971-19.955 17.718v63.676H28.318V68.262c0-18.55 5.02-37.513 42.172-37.513 8.648 0 22.958 1.166 33.925 3.724l1.93.447v96.447H85.262zm78.67 82.287l-11.354-19.765c3.825.362 7.768.546 11.765.546 16.862 0 19.957-5.957 19.957-17.709V67.691c0-11.747-3.095-17.719-19.957-17.719-5.443 0-10.786.345-15.914 1.024v121.36l-21.083-3.026V34.92l1.926-.448c10.979-2.557 25.282-3.723 33.932-3.723 37.152 0 42.174 18.963 42.174 37.513V95.78c0 18.42-4.152 41.126-41.446 37.503M405.038 32.672h21.071v139.684l-21.07-3.025zm36.722 100.604l-11.762-20.444c4.245.674 8.267 1.233 12.028 1.233 16.872 0 19.949-5.958 19.949-17.71V32.673h21.084V98.43c0 18.41-6.412 39.803-41.3 34.847m111.859-41.546h-35.11v5.202c0 12.718 5.218 17.905 18.036 17.905 12.445 0 17.074-4.855 17.074-17.905zm-17.074 41.557c-25.585 0-39.113-12.965-39.113-37.509V67.691c0-24.86 12.918-36.942 39.494-36.942 11.831 0 24.47 2.075 33.837 5.544l1.31.486-9.233 16.076c-9.132-2.164-17.384-3.267-24.574-3.267-16.769 0-19.757 4.791-19.757 18.29v5.394h55.611v22.121c0 25.144-12.65 37.895-37.575 37.895m164.53-41.557h-35.1v5.202c0 12.718 5.22 17.905 18.026 17.905 12.445 0 17.074-4.855 17.074-17.905zM684 133.288c-25.587 0-39.095-12.965-39.095-37.509V67.691c0-24.86 12.902-36.942 39.48-36.942 11.836 0 24.484 2.075 33.84 5.544l1.316.486-9.246 16.076c-9.132-2.164-17.382-3.267-24.569-3.267-16.776 0-19.753 4.791-19.753 18.29v5.394h55.6v22.121c0 25.144-12.64 37.895-37.573 37.895M587.799 32.672h21.073v95.806h-21.073zm23.316 76.313v.024l11.523 20.617c2.37.484 4.162.78 4.162.78 8.284 1.18 14.97.858 20.348-.547l-10.953-19.583c-2.472.561-5.94.858-9.13.858-7.729 0-15.95-2.149-15.95-2.149" fill="#1b57fd"/></g></svg>