<?xml version="1.0" encoding="utf-8"?>
<!-- Generator: Adobe Illustrator 23.0.3, SVG Export Plug-In . SVG Version: 6.00 Build 0)  -->
<svg version="1.2" baseProfile="tiny" id="Layer_1" xmlns="http://www.w3.org/2000/svg" xmlns:xlink="http://www.w3.org/1999/xlink"
	 x="0px" y="0px" viewBox="0 0 595.3 841.9" xml:space="preserve">
<g>
	<polygon fill="#214497" points="336.3,447.8 313.1,447.8 313.1,387 185.7,387 185.7,454.9 336.3,454.9 	"/>
	<polygon fill="#29ABE2" points="409.6,387 316.5,387 316.5,394 320.2,394 320.2,440.4 339.5,440.4 339.5,454.9 409.6,454.9 	"/>
	<path fill="#FFFFFF" d="M413.5,458.8H181.8v-75.8h231.7V458.8z M336.3,447.8h-23.2V387H185.7v67.9h150.5V447.8z M409.6,387h-93.1v7
		h3.7v46.4h19.3v14.5h70.1V387z M221.8,431.5L205.5,394h-7.4l23.5,53.7l24.3-53.7h-7.4L221.8,431.5z M274.3,447.8h6.9V394h-6.9
		V447.8z M375.3,447.8h6.5v-46.8h11.4V394h-30.2v6.9h12.2V447.8z"/>
</g>
</svg>
