<svg width="125" height="41" viewBox="0 0 125 41" fill="none" xmlns="http://www.w3.org/2000/svg">
<path d="M19.9999 40.7281C24.5359 40.7281 29.1839 38.9361 32.9359 35.6321C36.6879 32.3281 39.2639 26.7841 39.2639 20.2881C39.2639 6.34412 27.8399 0.0161133 19.8319 0.0161133C15.3519 0.0161133 10.8159 1.80812 7.00793 5.11212C3.25593 8.41612 0.679932 13.9601 0.679932 20.4561C0.679932 34.4001 12.1599 40.7281 19.9999 40.7281ZM22.0159 39.8881C18.4879 39.8881 14.6799 35.6881 12.2159 28.4641C11.0399 24.8241 10.4239 20.9041 10.4239 16.7601C10.4239 11.6641 11.2079 7.74411 12.7199 5.00012C14.2319 2.25611 15.9679 0.856113 17.8719 0.856113C21.4559 0.856113 25.3199 5.00012 27.7279 12.3361C28.9039 15.9761 29.5199 19.8401 29.5199 23.9841C29.5199 29.0801 28.7359 33.0001 27.1679 35.7441C25.6559 38.4881 23.9199 39.8881 22.0159 39.8881Z" fill="white"/>
<path d="M66.9852 16.3121C66.9852 13.5681 65.4732 11.6641 61.9452 11.6641C59.0892 11.6641 55.8972 12.7281 52.4252 14.9121V12.0001H41.5052V12.1121C44.1372 13.4561 44.4732 15.2481 44.4732 18.8321V33.1681C44.4732 36.7521 44.1372 38.5441 41.5052 39.8881V40.0001H54.8892V39.8881C52.8172 38.7121 52.4252 36.7521 52.4252 33.1681V15.6961C53.7692 14.8561 55.1132 14.4081 56.5132 14.4081C58.1932 14.4081 59.0332 15.5841 59.0332 17.8801V33.1681C59.0332 36.5841 58.5292 38.7121 56.5132 39.8881V40.0001H69.9532V39.8881C67.3213 38.5441 66.9852 36.7521 66.9852 33.1681V16.3121Z" fill="white"/>
<path d="M95.0762 0.800114H84.1562V0.912115C86.7882 2.25611 87.1242 4.04812 87.1242 7.63212V12.0001H85.8362C82.2522 12.0001 78.8363 13.1761 75.9242 15.4721C73.0122 17.7121 71.1082 21.8561 71.1082 26.8401C71.1082 35.5761 76.5962 40.0001 85.0522 40.0001H98.0442V39.8881C95.4122 38.5441 95.0762 36.7521 95.0762 33.1681V0.800114ZM87.0122 39.2161C84.8842 39.2161 83.0362 37.6481 81.5242 34.4561C80.0122 31.2641 79.2842 27.3441 79.2842 22.7521C79.2842 18.7761 79.8442 16.1441 80.9082 14.8001C81.9722 13.4561 83.5402 12.7841 85.5562 12.7841H87.1242V39.2161H87.0122Z" fill="white"/>
<path d="M121.219 18.1601C121.219 14.2961 118.979 11.6081 113.827 11.6081C111.363 11.6081 108.339 11.9441 104.755 12.5601L100.107 18.7761L100.219 18.8881C104.979 14.6321 108.395 12.5041 110.355 12.5041C112.371 12.5041 113.603 14.3521 113.603 16.8161C113.603 18.3841 113.099 19.6721 112.091 20.7361C111.083 21.7441 109.123 23.0881 106.267 24.8241C103.523 26.4481 101.619 27.7921 100.555 28.9681C99.4911 30.1441 98.9311 31.6561 98.9311 33.6161C98.9311 35.3521 99.5471 36.8641 100.723 38.2641C101.955 39.6081 103.747 40.2801 106.043 40.2801C108.059 40.2801 110.523 39.0481 113.379 36.6401V40.0001H124.187V39.8881C121.555 38.5441 121.219 36.7521 121.219 33.1681V18.1601ZM110.243 37.5361C108.395 37.5361 106.435 35.0161 106.435 31.8241V31.2081C106.491 28.6881 107.107 26.7281 108.171 25.3281C108.787 24.5441 110.523 22.9761 113.379 20.6801V33.7281C113.379 36.0241 112.035 37.5361 110.243 37.5361Z" fill="white"/>
</svg>
