<?xml version="1.0" encoding="utf-8"?>
<!-- Generator: Adobe Illustrator 23.0.3, SVG Export Plug-In . SVG Version: 6.00 Build 0)  -->
<svg version="1.1" id="Layer_1" xmlns="http://www.w3.org/2000/svg" xmlns:xlink="http://www.w3.org/1999/xlink" x="0px" y="0px"
	 viewBox="0 0 168.4 44.6" style="enable-background:new 0 0 168.4 44.6;" xml:space="preserve">
<style type="text/css">
	.st0{clip-path:url(#SVGID_2_);fill:#231F20;}
	.st1{clip-path:url(#SVGID_2_);fill:none;stroke:#FFFFFF;stroke-miterlimit:10;}
	.st2{clip-path:url(#SVGID_2_);}
	.st3{clip-path:url(#SVGID_4_);fill:none;stroke:#FFFFFF;stroke-miterlimit:10;}
	.st4{clip-path:url(#SVGID_6_);fill:none;stroke:#FFFFFF;stroke-miterlimit:10;}
	.st5{clip-path:url(#SVGID_6_);fill:#FEEDE8;}
	.st6{clip-path:url(#SVGID_6_);fill:#0D0D0D;}
	.st7{clip-path:url(#SVGID_8_);}
	.st8{fill:#231F20;}
	.st9{fill:#0D0D0D;}
	.st10{fill:none;stroke:#FEEDE8;stroke-width:1.099;stroke-miterlimit:10;}
	.st11{fill:#FFFFFF;}
	.st12{fill:none;stroke:#FFFFFF;stroke-width:0.193;stroke-miterlimit:10;}
	.st13{clip-path:url(#SVGID_14_);}
	.st14{fill-rule:evenodd;clip-rule:evenodd;fill:#FFFFFF;}
</style>
<g>
	<polygon class="st11" points="98.1,5 107.8,8.8 98.1,12.4 98.1,17.6 114.7,10.8 114.7,6.7 98.1,0 	"/>
	<path class="st11" d="M8.9,24.2c-4.7,0-8.1,2.1-8.4,6.4h5.2v-0.1c0.1-1.4,1.4-2.5,2.9-2.4c2,0,2.9,1.2,2.9,3.1v0.9H9.2
		c-5.1,0-9.2,1.6-9.2,6.4v0.2c0,3.9,2.9,5.7,6.4,5.7c2.2,0.1,4.2-0.9,5.4-2.6v2.3H17v-13C16.9,26.1,13.5,24.2,8.9,24.2 M7.8,40.6
		c-1.8,0-2.7-0.9-2.7-2.3v-0.2c0-1.8,1.3-2.5,4-2.5h2.2v1.8C11.4,39.6,9.6,40.6,7.8,40.6"/>
	<path class="st11" d="M29.4,40.4c-2.6,0-3.9-1.8-3.9-5.7v-0.6c0-3.8,1.6-5.7,3.9-5.7c1.8,0,2.9,1.2,3.2,3.1h5.2
		c-0.4-5.1-4.2-7.3-8.5-7.3c-5.2,0-9.3,3.5-9.3,10.1v0.2c0,6.6,3.9,9.9,9.3,9.9c5.3,0,8.3-3.2,8.7-7.5H33
		C32.6,39.1,31.3,40.4,29.4,40.4"/>
	<path class="st11" d="M49.5,40.4c-2.6,0-3.9-1.8-3.9-5.7v-0.6c0-3.8,1.6-5.7,3.9-5.7c1.8,0,2.9,1.2,3.2,3.1h5.2
		c-0.4-5.1-4.2-7.3-8.5-7.3c-5.2,0-9.3,3.5-9.3,10.1v0.2c0,6.6,3.9,9.9,9.3,9.9c5.3,0,8.3-3.2,8.6-7.5h-4.8
		C52.8,39.1,51.4,40.4,49.5,40.4"/>
	<path class="st11" d="M69.9,40.5c-2.4,0-3.8-1.3-4-4.8h12.6v-2.3c0-6.4-4-9.2-8.9-9.2c-5.3,0-9.3,3.6-9.3,10.1v0.4
		c0,6.5,3.8,9.8,9.4,9.8c5.1,0,8.2-2.8,8.7-6.5h-5.1C73.1,39.6,71.5,40.7,69.9,40.5 M69.6,27.9c2.2,0,3.5,1.2,3.6,4.2h-7.2
		C66.3,28.9,67.9,28,69.6,27.9"/>
	<path class="st11" d="M93.1,24.2c-2.5-0.1-4.8,1.2-5.9,3.3v-2.9h-5.4V44h5.4V32.2v-0.5c0.1-1.8,1.7-3.2,3.4-3.1c2,0,2.9,1,2.9,3.3
		V44H99V31C99,26.3,96.6,24.2,93.1,24.2"/>
	<path class="st11" d="M109.1,37.8v-9.2h3.7v-4h-3.7v-5.9l-5.4,2.3v3.6h-2.4v4h2.3v9.8c0,3.9,2,5.9,6.2,5.9c1,0,2.1-0.1,3.1-0.4
		v-4.2c-0.6,0.2-1.2,0.3-1.8,0.3C109.9,40,109.1,39.3,109.1,37.8"/>
	<path class="st11" d="M127.8,36.7v0.5c-0.1,1.8-1.7,3.2-3.4,3.1c-2,0-2.8-1-2.8-3.3V24.6h-5.5v13.1c0,4.5,2.6,6.7,6.1,6.7
		c2.4,0.1,4.5-1.2,5.7-3.3V44h5.5V24.5h-5.5L127.8,36.7z"/>
	<path class="st11" d="M142.7,28.1v-3.6h-5.4V44h5.4V33.9c0-3.2,2.2-4.3,5.9-4.3v-5.4C145.9,24.2,143.5,25.7,142.7,28.1"/>
	<path class="st11" d="M168.4,33.3c0-6.4-4-9.1-8.9-9.1c-5.3,0-9.3,3.6-9.3,10.1v0.4c0,6.5,3.8,9.8,9.4,9.8c5.1,0,8.1-2.8,8.7-6.5
		h-5.1c-0.4,1.7-2,2.7-3.6,2.6c-2.4,0-3.8-1.3-4-4.8h12.6v-2.5H168.4z M155.8,32L155.8,32c0.4-3.2,2-4.2,3.7-4.2
		c2.2,0,3.5,1.2,3.6,4.2H155.8z"/>
</g>
</svg>
