<svg id="Layer_1" data-name="Layer 1" xmlns="http://www.w3.org/2000/svg" viewBox="0 0 421.62 66.78"><defs><style>.cls-1{fill:#fff;}</style></defs><path d="M118.13,33.47a63.52,63.52,0,0,1-9.48,9.7C102.88,48,96.52,51.8,89,53.05c-4.09.68-8.25.93-12.38,1.31-1.45.13-2.25.63-2.28,1.91,0,2.75,0,5.52,0,8.27A1.8,1.8,0,0,0,76,66.44a17.64,17.64,0,0,0,1.78.21,43.49,43.49,0,0,0,15-1.81,67.59,67.59,0,0,0,25.7-14.64c2.73-2.39,5.29-5,8-7.49a.26.26,0,0,1,.15.06c.63.66,1.25,1.34,1.9,2,9.42,9.57,20.09,17.14,33.31,20.56a39.61,39.61,0,0,0,14.62,1.18,2,2,0,0,0,2.12-2.36q0-3.72,0-7.44c0-1.6-.75-2.28-2.39-2.33s-3.28-.06-4.91-.2A47.7,47.7,0,0,1,154.35,50a53.91,53.91,0,0,1-13.8-10c-2.09-2-4-4.21-6-6.34a12.34,12.34,0,0,1,.88-1.13c2.5-2.57,4.88-5.29,7.55-7.67,4.42-4,9.23-7.37,14.94-9.33a55.51,55.51,0,0,1,18-2.9c1.93,0,2.6-.68,2.6-2.61q0-3.48,0-7c0-1.81-.59-2.43-2.38-2.61a44,44,0,0,0-20,2.95C146.43,7,138.11,12.8,130.69,20l-4.4,4.3c-.31-.33-.6-.66-.9-1C117.7,15.19,109,8.42,98.62,4.14,91.54,1.23,84.23-.4,76.52.39c-1.61.17-2.21.78-2.22,2.38,0,2.28,0,4.56,0,6.84,0,2.46.5,3,2.94,3a57.93,57.93,0,0,1,14.81,2c6.37,1.66,11.74,5.13,16.71,9.29A58.07,58.07,0,0,1,118.13,33.47Z"/><path d="M389.43,66.77c.52,0,1,0,1.56,0,6.5-.18,12.9-.9,19-3.39,7-2.83,11.1-7.72,11.58-15.4.4-6.45-1.55-11.81-7.13-15.5a25.23,25.23,0,0,0-10.2-3.95c-7.2-1.05-14.43-1.78-21.64-2.72-2.81-.37-5.61-.83-8.36-1.47a4.79,4.79,0,0,1-3.85-3.25,5.75,5.75,0,0,1,3.18-7.18A22,22,0,0,1,382,12c10.86-.65,21.36.76,31.27,5.55a2.45,2.45,0,0,0,3.39-.77c1.35-1.63,2.69-3.27,4-4.93S421.77,9,419.93,8a66.63,66.63,0,0,0-44.84-6.67,29,29,0,0,0-11.41,4.71c-8,5.88-7.7,16.28-4,21.87,2.73,4.12,6.77,6.32,11.35,7.7s9.06,1.45,13.62,2c5.63.65,11.28,1.2,16.91,2,2.68.36,5.12,1.47,6.44,4,1.82,3.54.24,7.58-3.55,9.4a25.53,25.53,0,0,1-10,2.05c-10.61.48-20.89-1-30.53-5.72a2.46,2.46,0,0,0-3.16.62c-1.53,1.84-3,3.71-4.51,5.6a1.81,1.81,0,0,0,.51,2.95A27.58,27.58,0,0,0,359.33,60,65.86,65.86,0,0,0,389.43,66.77Z"/><path d="M284.14,41.44h0V64.12c0,1.77.71,2.49,2.45,2.5,2.28,0,4.56,0,6.84,0s2.94-.57,2.94-3q0-21.72,0-43.43a5.62,5.62,0,0,1,2.1-4.5,12.18,12.18,0,0,1,6.1-2.58,79.3,79.3,0,0,1,17.82-.67,29.91,29.91,0,0,1,9.17,1.6c3.39,1.32,4.87,3.4,4.87,7V63.87c0,2.17.6,2.76,2.79,2.76h6.48c2.39,0,3-.58,3-3q0-21.82,0-43.67a17.13,17.13,0,0,0-6-13.22c-4.06-3.62-9-5.17-14.3-5.87A96.27,96.27,0,0,0,306,.68a29.86,29.86,0,0,0-12.85,3.88c-5.56,3.41-8.82,8.32-9,14.93C284,26.81,284.14,34.13,284.14,41.44Z"/><path d="M201.42,33.52q0-15.35,0-30.7c0-1.9-.72-2.64-2.58-2.65q-4,0-7.91,0c-1.81,0-2.55.76-2.55,2.56V64.15c0,1.85.68,2.55,2.52,2.56,2.52,0,5,0,7.56,0s3-.57,3-3Z"/><path class="cls-1" d="M118.13,33.47a58.07,58.07,0,0,0-9.37-9.62c-5-4.16-10.34-7.63-16.71-9.29a57.93,57.93,0,0,0-14.81-2c-2.44,0-2.94-.51-2.94-3,0-2.28,0-4.56,0-6.84,0-1.6.61-2.21,2.22-2.38,7.71-.79,15,.84,22.1,3.75C109,8.42,117.7,15.19,125.39,23.32c.3.31.59.64.9,1l4.4-4.3c7.42-7.19,15.74-13,25.49-16.65a44,44,0,0,1,20-2.95c1.79.18,2.38.8,2.38,2.61q0,3.48,0,7c0,1.93-.67,2.61-2.6,2.61a55.51,55.51,0,0,0-18,2.9c-5.71,2-10.52,5.37-14.94,9.33-2.67,2.38-5,5.1-7.55,7.67a12.34,12.34,0,0,0-.88,1.13c2,2.13,3.91,4.33,6,6.34a53.91,53.91,0,0,0,13.8,10,47.7,47.7,0,0,0,16.89,4.19c1.63.14,3.27.15,4.91.2s2.38.73,2.39,2.33q0,3.72,0,7.44a2,2,0,0,1-2.12,2.36,39.61,39.61,0,0,1-14.62-1.18c-13.22-3.42-23.89-11-33.31-20.56-.65-.65-1.27-1.33-1.9-2a.26.26,0,0,0-.15-.06c-2.66,2.52-5.22,5.1-8,7.49a67.59,67.59,0,0,1-25.7,14.64,43.49,43.49,0,0,1-15,1.81A17.64,17.64,0,0,1,76,66.44a1.8,1.8,0,0,1-1.65-1.9c0-2.75,0-5.52,0-8.27,0-1.28.83-1.78,2.28-1.91,4.13-.38,8.29-.63,12.38-1.31,7.54-1.25,13.9-5,19.67-9.88A63.52,63.52,0,0,0,118.13,33.47Z"/><path class="cls-1" d="M53.65,27.55c0-2.86.18-5.66,0-8.42a5.79,5.79,0,0,0-4.21-4.95,35.86,35.86,0,0,0-7.86-1.94,58.86,58.86,0,0,0-24.61,2.68,59.77,59.77,0,0,0-5.61,2.39c-1.75.78-2.72.6-3.89-.85-1.3-1.61-2.61-3.23-3.89-4.86s-.89-2.82.79-3.73a61.57,61.57,0,0,1,38.94-7A37.1,37.1,0,0,1,57.1,5.28c4.07,2.43,7.26,5.66,8.35,10.47a18.75,18.75,0,0,1,.47,4.16c0,8.83,0,17.67,0,26.51A20.13,20.13,0,0,1,46.26,66.65q-13.32.25-26.64,0A20.12,20.12,0,0,1,.23,49.31,20.36,20.36,0,0,1,20.44,26q12.24,0,24.47,0a21.72,21.72,0,0,1,8,1.34A5.78,5.78,0,0,0,53.65,27.55ZM33,55.31c4.32,0,8.64.11,12.95-.05A10.49,10.49,0,0,0,50.44,54a8.95,8.95,0,0,0-4.63-16.62q-12.84-.08-25.67,0a9.67,9.67,0,0,0-4,.93,8.9,8.9,0,0,0-4.74,9.83,8.74,8.74,0,0,0,8.87,7.1Z"/><path class="cls-1" d="M262.68,27.54c0-2.87.18-5.68-.05-8.44-.22-2.56-2-4.2-4.32-5a36,36,0,0,0-7.76-1.88A58.62,58.62,0,0,0,226,14.94a47.1,47.1,0,0,0-5.29,2.24c-2.07,1-2.95.82-4.36-.93-1.28-1.58-2.56-3.16-3.8-4.78-1.11-1.45-.84-2.67.77-3.54A61.61,61.61,0,0,1,249.83.57,43,43,0,0,1,264.69,4.5c5,2.52,8.87,6.14,10,12a20,20,0,0,1,.31,3.7q0,13.08,0,26.15a20.09,20.09,0,0,1-19.79,20.35c-8.92.18-17.84.16-26.75,0-9.81-.18-18.11-8.18-19.22-17.94a20.45,20.45,0,0,1,17.52-22.54,19.34,19.34,0,0,1,2.75-.13c8.2,0,16.4,0,24.59,0a21.47,21.47,0,0,1,7.75,1.3C262.08,27.41,262.35,27.45,262.68,27.54ZM242,55.31c4.28,0,8.56.1,12.83-.05a10.48,10.48,0,0,0,4.56-1.16,8.86,8.86,0,0,0,4.07-10.33,8.76,8.76,0,0,0-8.61-6.35q-12.82-.08-25.67,0a9.49,9.49,0,0,0-4,.95,8.93,8.93,0,0,0,4.13,16.91Z"/><path class="cls-1" d="M389.43,66.77A65.86,65.86,0,0,1,359.33,60a27.58,27.58,0,0,1-2.61-1.45,1.81,1.81,0,0,1-.51-2.95c1.47-1.89,3-3.76,4.51-5.6a2.46,2.46,0,0,1,3.16-.62c9.64,4.75,19.92,6.2,30.53,5.72a25.53,25.53,0,0,0,10-2.05c3.79-1.82,5.37-5.86,3.55-9.4-1.32-2.58-3.76-3.69-6.44-4-5.63-.75-11.28-1.3-16.91-2-4.56-.52-9.18-.62-13.62-2s-8.62-3.58-11.35-7.7c-3.69-5.59-4-16,4-21.87a29,29,0,0,1,11.41-4.71A66.63,66.63,0,0,1,419.93,8c1.84,1,2.07,2.12.77,3.78s-2.65,3.3-4,4.93a2.45,2.45,0,0,1-3.39.77C403.4,12.72,392.9,11.31,382,12a22,22,0,0,0-8.47,1.95,5.75,5.75,0,0,0-3.18,7.18,4.79,4.79,0,0,0,3.85,3.25c2.75.64,5.55,1.1,8.36,1.47,7.21.94,14.44,1.67,21.64,2.72a25.23,25.23,0,0,1,10.2,3.95C420,36.17,422,41.53,421.57,48c-.48,7.68-4.62,12.57-11.58,15.4-6.1,2.49-12.5,3.21-19,3.39C390.47,66.78,390,66.77,389.43,66.77Z"/><path class="cls-1" d="M284.14,41.44c0-7.31-.12-14.63,0-21.95.14-6.61,3.4-11.52,9-14.93A29.86,29.86,0,0,1,306,.68a96.27,96.27,0,0,1,22.38.2c5.27.7,10.24,2.25,14.3,5.87a17.13,17.13,0,0,1,6,13.22q0,21.84,0,43.67c0,2.41-.57,3-3,3h-6.48c-2.19,0-2.79-.59-2.79-2.76V21c0-3.58-1.48-5.66-4.87-7a29.91,29.91,0,0,0-9.17-1.6,79.3,79.3,0,0,0-17.82.67,12.18,12.18,0,0,0-6.1,2.58,5.62,5.62,0,0,0-2.1,4.5q0,21.71,0,43.43c0,2.42-.55,3-2.94,3s-4.56,0-6.84,0c-1.74,0-2.45-.73-2.45-2.5V41.44Z"/><path class="cls-1" d="M201.42,33.52V63.75c0,2.4-.57,3-3,3s-5,0-7.56,0c-1.84,0-2.52-.71-2.52-2.56V2.73c0-1.8.74-2.55,2.55-2.56q3.95,0,7.91,0c1.86,0,2.58.75,2.58,2.65Q201.43,18.17,201.42,33.52Z"/></svg>