<?xml version="1.0" encoding="UTF-8"?>
<svg xmlns="http://www.w3.org/2000/svg" viewBox="0 0 560.2 252.67">
  <defs>
    <style>
      .cls-1, .cls-2 {
        fill: #fff;
        stroke-width: 0px;
      }

      .cls-2 {
        fill-rule: evenodd;
      }
    </style>
  </defs>
  <g id="SLOGAN">
    <g id="slogan">
      <g id="claim-portuguese">
        <g>
          <path class="cls-1" d="m208.02,164.67v-1.85h14.09v1.85h-5.92v17.3h-2.22v-17.3h-5.95Z"/>
          <path class="cls-1" d="m234.37,179.75c-1.29,1.85-3.08,2.46-5.33,2.46-4.45,0-6.94-2.92-6.94-7.2s2.6-7.28,6.37-7.28,6,2.62,6,6.96v.72h-10.07c.05,2.01.51,3.13,1.47,4.02.72.64,1.66.94,3.11.94,1.55,0,2.68-.43,3.75-1.93l1.63,1.31Zm-2.17-6.13c-.29-2.87-1.37-4.04-3.7-4.04s-3.51,1.31-4.02,4.04h7.71Z"/>
          <path class="cls-1" d="m249.61,179.26c-1.34,2.17-3.11,2.95-5.49,2.95-3.91,0-6.59-2.97-6.59-7.23s2.6-7.26,6.45-7.26c2.3,0,3.96.88,5.28,2.78l-1.85,1.15c-1.04-1.55-1.87-2.09-3.4-2.09-2.62,0-4.18,2.01-4.18,5.46s1.53,5.33,4.34,5.33c1.58,0,2.76-.56,3.7-2.09l1.74.99Z"/>
          <path class="cls-1" d="m255.59,167.96v2.14c.86-1.58,2.28-2.38,4.26-2.38,3,0,4.63,1.95,4.63,5.57v8.68h-2.22v-8.84c0-2.41-.91-3.48-2.97-3.48-2.25,0-3.7,1.47-3.7,3.75v8.57h-2.22v-14.01h2.22Z"/>
          <path class="cls-1" d="m281.89,174.95c0,4.23-2.76,7.26-6.64,7.26s-6.59-3.05-6.59-7.23,2.76-7.26,6.67-7.26,6.56,3.05,6.56,7.23Zm-10.93.05c0,3.29,1.66,5.36,4.28,5.36s4.34-2.09,4.34-5.38-1.69-5.41-4.26-5.41c-2.7,0-4.37,2.04-4.37,5.44Z"/>
          <path class="cls-1" d="m292.1,181.54c-.67.4-1.37.64-2.46.64-2.04,0-3.4-.91-3.4-3.7v-16.68h2.22v16.87c0,1.31.7,1.66,1.53,1.66.64,0,1.04-.19,1.39-.46l.72,1.66Z"/>
          <path class="cls-1" d="m306.85,174.95c0,4.23-2.76,7.26-6.64,7.26s-6.59-3.05-6.59-7.23,2.76-7.26,6.67-7.26,6.56,3.05,6.56,7.23Zm-10.93.05c0,3.29,1.66,5.36,4.29,5.36s4.34-2.09,4.34-5.38-1.69-5.41-4.26-5.41c-2.71,0-4.37,2.04-4.37,5.44Z"/>
          <path class="cls-1" d="m317.41,178.92c3.16,0,4.93,1.37,4.93,3.78,0,2.76-2.54,4.5-6.61,4.5-3.78,0-6.19-1.5-6.19-3.86,0-1.26.78-2.25,2.38-3-.94-.51-1.37-1.23-1.37-2.25s.48-1.77,1.53-2.38c-1.15-.94-1.71-2.04-1.71-3.43,0-2.7,2.09-4.55,5.14-4.55,1.04,0,1.82.16,2.79.59l4.02-.56v2.01h-2.09c.64.83.91,1.63.91,2.68,0,2.76-2.04,4.45-5.3,4.45-.96,0-1.71-.13-2.54-.48-.51.43-.72.8-.72,1.31,0,.91.51,1.21,2.06,1.21h2.79Zm-3.05,1.93c-.21,0-.67-.03-.88-.05-1.23.62-1.77,1.34-1.77,2.33,0,1.53,1.37,2.3,4.07,2.3,2.89,0,4.39-.91,4.39-2.62,0-1.31-.94-1.96-2.79-1.96h-3.03Zm-1.77-8.57c0,1.74,1.23,2.84,3.24,2.84s3.08-.99,3.08-2.79-1.23-2.84-3.19-2.84-3.13,1.04-3.13,2.79Z"/>
          <path class="cls-1" d="m328.71,163.6c0,.8-.67,1.47-1.47,1.47s-1.47-.67-1.47-1.47.67-1.47,1.47-1.47,1.47.67,1.47,1.47Zm-.32,4.36v14.01h-2.22v-14.01h2.22Z"/>
          <path class="cls-1" d="m345.16,182.05c-.29.03-.56.03-.78.03-1.5,0-2.46-.67-2.89-2.01-1.23,1.47-2.57,2.14-4.31,2.14-2.6,0-4.42-1.61-4.42-3.86,0-2.06,1.37-3.54,3.86-4.2,1.31-.35,2.33-.46,4.74-.54v-.88c0-2.17-.86-3.16-2.76-3.16-1.47,0-2.57.48-4.02,1.74l-1.31-1.45c1.69-1.53,3.21-2.14,5.33-2.14,3.21,0,4.98,1.77,4.98,5.01v6.24c0,.99.38,1.31,1.58,1.34v1.74Zm-3.8-6.86c-4.5.16-6.37,1.04-6.37,3.05,0,1.39.91,2.17,2.57,2.17,2.22,0,3.8-1.29,3.8-3.08v-2.14Z"/>
          <path class="cls-1" d="m359.6,167.96v2.3c1.07-1.66,2.68-2.54,4.66-2.54,3.59,0,5.97,2.84,5.97,7.18s-2.36,7.31-6,7.31c-2.01,0-3.61-.86-4.63-2.49v7.12h-2.22v-18.88h2.22Zm-.08,7.02c0,3.43,1.58,5.38,4.34,5.38s4.07-1.77,4.07-5.33-1.5-5.46-4.04-5.46c-2.73,0-4.37,2.04-4.37,5.41Z"/>
          <path class="cls-1" d="m385.79,182.05c-.29.03-.56.03-.78.03-1.5,0-2.46-.67-2.89-2.01-1.23,1.47-2.57,2.14-4.31,2.14-2.6,0-4.42-1.61-4.42-3.86,0-2.06,1.37-3.54,3.86-4.2,1.31-.35,2.33-.46,4.74-.54v-.88c0-2.17-.86-3.16-2.76-3.16-1.47,0-2.57.48-4.02,1.74l-1.31-1.45c1.69-1.53,3.21-2.14,5.33-2.14,3.21,0,4.98,1.77,4.98,5.01v6.24c0,.99.38,1.31,1.58,1.34v1.74Zm-3.8-6.86c-4.5.16-6.37,1.04-6.37,3.05,0,1.39.91,2.17,2.57,2.17,2.22,0,3.8-1.29,3.8-3.08v-2.14Z"/>
          <path class="cls-1" d="m391.61,167.96v2.25c.91-1.69,2.12-2.49,3.75-2.49.86,0,1.53.16,2.28.56l-.91,1.88c-.62-.32-.99-.43-1.63-.43-2.17,0-3.48,1.74-3.48,4.55v7.69h-2.22v-14.01h2.22Z"/>
          <path class="cls-1" d="m411.77,182.05c-.29.03-.56.03-.78.03-1.5,0-2.46-.67-2.89-2.01-1.23,1.47-2.57,2.14-4.31,2.14-2.6,0-4.42-1.61-4.42-3.86,0-2.06,1.37-3.54,3.86-4.2,1.31-.35,2.33-.46,4.74-.54v-.88c0-2.17-.86-3.16-2.76-3.16-1.47,0-2.57.48-4.02,1.74l-1.31-1.45c1.69-1.53,3.21-2.14,5.33-2.14,3.21,0,4.98,1.77,4.98,5.01v6.24c0,.99.38,1.31,1.58,1.34v1.74Zm-3.8-6.86c-4.5.16-6.37,1.04-6.37,3.05,0,1.39.91,2.17,2.57,2.17,2.22,0,3.8-1.29,3.8-3.08v-2.14Z"/>
          <path class="cls-1" d="m435.21,182.05c-.29.03-.56.03-.78.03-1.5,0-2.46-.67-2.89-2.01-1.23,1.47-2.57,2.14-4.31,2.14-2.6,0-4.42-1.61-4.42-3.86,0-2.06,1.37-3.54,3.86-4.2,1.31-.35,2.33-.46,4.74-.54v-.88c0-2.17-.86-3.16-2.76-3.16-1.47,0-2.57.48-4.02,1.74l-1.31-1.45c1.69-1.53,3.21-2.14,5.33-2.14,3.21,0,4.98,1.77,4.98,5.01v6.24c0,.99.38,1.31,1.58,1.34v1.74Zm-3.8-6.86c-4.5.16-6.37,1.04-6.37,3.05,0,1.39.91,2.17,2.57,2.17,2.22,0,3.8-1.29,3.8-3.08v-2.14Z"/>
          <path class="cls-1" d="m447.64,167.96l3.75,11.76,3.67-11.76h2.3l-4.71,14.01h-2.62l-4.79-14.01h2.41Z"/>
          <path class="cls-1" d="m463.18,163.6c0,.8-.67,1.47-1.47,1.47s-1.47-.67-1.47-1.47.67-1.47,1.47-1.47,1.47.67,1.47,1.47Zm-.32,4.36v14.01h-2.22v-14.01h2.22Z"/>
          <path class="cls-1" d="m477.86,179.72c-1.04,1.63-2.62,2.49-4.63,2.49-3.64,0-6-2.87-6-7.31s2.38-7.18,5.97-7.18c1.98,0,3.59.88,4.66,2.54v-8.46h2.22v20.17h-2.22v-2.25Zm-8.33-4.69c0,3.53,1.34,5.33,4.02,5.33,2.81,0,4.39-1.96,4.39-5.38s-1.63-5.41-4.31-5.41-4.1,1.98-4.1,5.46Z"/>
          <path class="cls-1" d="m496.55,182.05c-.29.03-.56.03-.78.03-1.5,0-2.46-.67-2.89-2.01-1.23,1.47-2.57,2.14-4.31,2.14-2.6,0-4.42-1.61-4.42-3.86,0-2.06,1.37-3.54,3.86-4.2,1.31-.35,2.33-.46,4.74-.54v-.88c0-2.17-.86-3.16-2.76-3.16-1.47,0-2.57.48-4.02,1.74l-1.31-1.45c1.69-1.53,3.21-2.14,5.33-2.14,3.21,0,4.98,1.77,4.98,5.01v6.24c0,.99.38,1.31,1.58,1.34v1.74Zm-3.8-6.86c-4.5.16-6.37,1.04-6.37,3.05,0,1.39.91,2.17,2.57,2.17,2.22,0,3.8-1.29,3.8-3.08v-2.14Z"/>
        </g>
      </g>
    </g>
  </g>
  <g id="BOSCH">
    <g>
      <path class="cls-2" d="m248.8,110.3s8.8-3,8.8-13c0-11.7-8.3-17.5-19.7-17.5h-29.9v63.6h32.5c10,0,19.8-7,19.8-17.7,0-12.7-11.5-15.3-11.5-15.4Zm-25.2-17.3h11.6c3.6,0,6,2.4,6,6,0,2.8-2.2,5.8-6.3,5.8h-11.3v-11.8h0Zm11.7,37.1h-11.7v-12.5h11.4c5.7,0,8.4,2.5,8.4,6.2,0,4.6-3.4,6.3-8.1,6.3Z"/>
      <path class="cls-2" d="m294.7,78.2c-18.4,0-29.2,14.7-29.2,33.3s10.8,33.3,29.2,33.3,29.2-14.6,29.2-33.3c0-18.6-10.7-33.3-29.2-33.3Zm0,51.4c-9,0-13.5-8.1-13.5-18.1s4.5-18,13.5-18,13.6,8.1,13.6,18c0,10.1-4.6,18.1-13.6,18.1Z"/>
      <path class="cls-2" d="m357.8,104.8l-2.2-.5c-5.4-1.1-9.7-2.5-9.7-6.4,0-4.2,4.1-5.9,7.7-5.9,5.3,0,10,2.6,13,5.9l9.9-9.8c-4.5-5.1-11.8-10-23.2-10-13.4,0-23.6,7.5-23.6,20,0,11.4,8.2,17,18.2,19.1l2.2.5c8.3,1.7,11.4,3,11.4,7s-3.4,6.3-8.6,6.3c-6.2,0-11.8-2.7-16.1-8.2l-10.1,10c5.6,6.7,12.7,11.9,26.4,11.9,11.9,0,24.6-6.8,24.6-20.7.2-14.5-10.8-17.3-19.9-19.2Z"/>
      <path class="cls-2" d="m413.3,129.6c-7,0-14.3-5.8-14.3-18.5,0-11.3,6.8-17.6,13.9-17.6,5.6,0,8.9,2.6,11.5,7.1l12.8-8.5c-6.4-9.7-14-13.8-24.5-13.8-19.2,0-29.6,14.9-29.6,32.9,0,18.9,11.5,33.7,29.4,33.7,12.6,0,18.6-4.4,25.1-13.8l-12.9-8.7c-2.6,4.2-5.4,7.2-11.4,7.2Z"/>
      <polygon class="cls-2" points="479.9 79.8 479.9 103.2 460.6 103.2 460.6 79.8 443.9 79.8 443.9 143.4 460.6 143.4 460.6 118.3 479.9 118.3 479.9 143.4 496.6 143.4 496.6 79.8 479.9 79.8"/>
    </g>
  </g>
  <g id="ANKER_flach" data-name="ANKER flach">
    <g id="anker">
      <path class="cls-1" d="m111.8,63.6c-26.6,0-48.2,21.6-48.2,48.2s21.6,48.2,48.2,48.2,48.2-21.6,48.2-48.2-21.6-48.2-48.2-48.2Zm0,91.9c-24.1,0-43.7-19.6-43.7-43.7s19.6-43.7,43.7-43.7,43.7,19.6,43.7,43.7-19.6,43.7-43.7,43.7Z"/>
      <path class="cls-1" d="m131.7,81.7h-3.3v16.5h-33.1v-16.5h-3.4c-9.7,6.5-16.2,17.5-16.2,30.1s6.5,23.6,16.2,30.1h3.4v-16.5h33.1v16.5h3.3c9.8-6.5,16.2-17.5,16.2-30.1s-6.4-23.6-16.2-30.1Zm-41,53.7c-6.7-5.9-10.6-14.4-10.6-23.6s3.9-17.7,10.6-23.6v47.2Zm37.7-14.6h-33.1v-18.1h33.1v18.1Zm4.5,14.5v-10h0v-27.1h0v-10c6.6,5.9,10.5,14.4,10.5,23.5s-3.9,17.7-10.5,23.6Z"/>
    </g>
  </g>
</svg>