<?xml version="1.0" encoding="utf-8"?>
<!-- Generator: Adobe Illustrator 23.0.3, SVG Export Plug-In . SVG Version: 6.00 Build 0)  -->
<svg version="1.1" id="Layer_1" xmlns="http://www.w3.org/2000/svg" xmlns:xlink="http://www.w3.org/1999/xlink" x="0px" y="0px"
	 viewBox="0 0 107.7 30.8" style="enable-background:new 0 0 107.7 30.8;" xml:space="preserve">
<style type="text/css">
	.st0{clip-path:url(#SVGID_2_);fill:#231F20;}
	.st1{clip-path:url(#SVGID_2_);fill:none;stroke:#FFFFFF;stroke-miterlimit:10;}
	.st2{clip-path:url(#SVGID_2_);}
	.st3{clip-path:url(#SVGID_4_);fill:none;stroke:#FFFFFF;stroke-miterlimit:10;}
	.st4{clip-path:url(#SVGID_6_);fill:none;stroke:#FFFFFF;stroke-miterlimit:10;}
	.st5{clip-path:url(#SVGID_6_);fill:#FEEDE8;}
	.st6{clip-path:url(#SVGID_6_);fill:#0D0D0D;}
	.st7{clip-path:url(#SVGID_8_);}
	.st8{fill:#231F20;}
	.st9{fill:#0D0D0D;}
	.st10{fill:none;stroke:#FEEDE8;stroke-width:1.099;stroke-miterlimit:10;}
	.st11{fill:#FFFFFF;}
	.st12{fill:none;stroke:#FFFFFF;stroke-width:0.193;stroke-miterlimit:10;}
	.st13{clip-path:url(#SVGID_14_);}
	.st14{fill-rule:evenodd;clip-rule:evenodd;fill:#FFFFFF;}
</style>
<g>
	<polygon class="st11" points="35.9,25.1 35.9,24.7 39.4,24.7 39.4,25.1 38,25.1 38,29.5 37.4,29.5 37.4,25.1 	"/>
	<path class="st11" d="M42.5,28.9c-0.3,0.5-0.8,0.6-1.3,0.6c-1.1,0-1.7-0.7-1.7-1.8c0-1.1,0.6-1.8,1.6-1.8c0.9,0,1.5,0.7,1.5,1.7
		v0.2H40c0,0.5,0.1,0.8,0.4,1c0.2,0.2,0.4,0.2,0.8,0.2c0.4,0,0.7-0.1,0.9-0.5L42.5,28.9z M42,27.4c-0.1-0.7-0.3-1-0.9-1
		c-0.6,0-0.9,0.3-1,1H42z"/>
	<path class="st11" d="M46.3,28.8c-0.3,0.5-0.8,0.7-1.4,0.7c-1,0-1.6-0.7-1.6-1.8c0-1.1,0.6-1.8,1.6-1.8c0.6,0,1,0.2,1.3,0.7
		l-0.5,0.3c-0.3-0.4-0.5-0.5-0.8-0.5c-0.7,0-1,0.5-1,1.4c0,0.8,0.4,1.3,1.1,1.3c0.4,0,0.7-0.1,0.9-0.5L46.3,28.8z"/>
	<path class="st11" d="M47.8,26v0.5c0.2-0.4,0.6-0.6,1.1-0.6c0.7,0,1.2,0.5,1.2,1.4v2.2h-0.6v-2.2c0-0.6-0.2-0.9-0.7-0.9
		c-0.6,0-0.9,0.4-0.9,0.9v2.1h-0.6V26H47.8z"/>
	<path class="st11" d="M54.3,27.7c0,1.1-0.7,1.8-1.7,1.8c-0.9,0-1.6-0.8-1.6-1.8c0-1.1,0.7-1.8,1.7-1.8
		C53.6,25.9,54.3,26.7,54.3,27.7 M51.6,27.7c0,0.8,0.4,1.3,1.1,1.3c0.7,0,1.1-0.5,1.1-1.3c0-0.8-0.4-1.3-1.1-1.3
		C52,26.4,51.6,26.9,51.6,27.7"/>
	<path class="st11" d="M56.9,29.3c-0.2,0.1-0.3,0.2-0.6,0.2c-0.5,0-0.8-0.2-0.8-0.9v-4.2H56v4.2c0,0.3,0.2,0.4,0.4,0.4
		c0.2,0,0.3,0,0.3-0.1L56.9,29.3z"/>
	<path class="st11" d="M60.5,27.7c0,1.1-0.7,1.8-1.7,1.8c-0.9,0-1.6-0.8-1.6-1.8c0-1.1,0.7-1.8,1.7-1.8
		C59.8,25.9,60.5,26.7,60.5,27.7 M57.8,27.7c0,0.8,0.4,1.3,1.1,1.3c0.7,0,1.1-0.5,1.1-1.3c0-0.8-0.4-1.3-1.1-1.3
		C58.2,26.4,57.8,26.9,57.8,27.7"/>
	<path class="st11" d="M63.2,28.7c0.8,0,1.2,0.3,1.2,0.9c0,0.7-0.6,1.1-1.6,1.1c-0.9,0-1.5-0.4-1.5-1c0-0.3,0.2-0.6,0.6-0.7
		c-0.2-0.1-0.3-0.3-0.3-0.6c0-0.3,0.1-0.4,0.4-0.6c-0.3-0.2-0.4-0.5-0.4-0.9c0-0.7,0.5-1.1,1.3-1.1c0.3,0,0.5,0,0.7,0.1l1-0.1v0.5
		h-0.5c0.2,0.2,0.2,0.4,0.2,0.7c0,0.7-0.5,1.1-1.3,1.1c-0.2,0-0.4,0-0.6-0.1c-0.1,0.1-0.2,0.2-0.2,0.3c0,0.2,0.1,0.3,0.5,0.3H63.2z
		 M62.4,29.2c-0.1,0-0.2,0-0.2,0c-0.3,0.2-0.4,0.3-0.4,0.6c0,0.4,0.3,0.6,1,0.6c0.7,0,1.1-0.2,1.1-0.7c0-0.3-0.2-0.5-0.7-0.5H62.4z
		 M62,27c0,0.4,0.3,0.7,0.8,0.7c0.5,0,0.8-0.2,0.8-0.7c0-0.4-0.3-0.7-0.8-0.7C62.2,26.3,62,26.6,62,27"/>
	<path class="st11" d="M66,24.9c0,0.2-0.2,0.4-0.4,0.4s-0.4-0.2-0.4-0.4c0-0.2,0.2-0.4,0.4-0.4S66,24.7,66,24.9 M65.9,29.5h-0.6V26
		h0.6V29.5z"/>
	<path class="st11" d="M70.1,29.5c-0.1,0-0.1,0-0.2,0c-0.4,0-0.6-0.2-0.7-0.5c-0.3,0.4-0.6,0.5-1.1,0.5c-0.6,0-1.1-0.4-1.1-1
		c0-0.5,0.3-0.9,1-1c0.3-0.1,0.6-0.1,1.2-0.1v-0.2c0-0.5-0.2-0.8-0.7-0.8c-0.4,0-0.6,0.1-1,0.4l-0.3-0.4c0.4-0.4,0.8-0.5,1.3-0.5
		c0.8,0,1.2,0.4,1.2,1.2v1.6c0,0.2,0.1,0.3,0.4,0.3V29.5z M69.1,27.8c-1.1,0-1.6,0.3-1.6,0.8c0,0.3,0.2,0.5,0.6,0.5
		c0.6,0,0.9-0.3,0.9-0.8V27.8z"/>
	<path class="st11" d="M73.7,26v0.6c0.3-0.4,0.7-0.6,1.2-0.6c0.9,0,1.5,0.7,1.5,1.8c0,1.1-0.6,1.8-1.5,1.8c-0.5,0-0.9-0.2-1.2-0.6
		v1.8h-0.6V26H73.7z M73.6,27.7c0,0.9,0.4,1.3,1.1,1.3c0.7,0,1-0.4,1-1.3c0-0.9-0.4-1.4-1-1.4C74,26.4,73.6,26.9,73.6,27.7"/>
	<path class="st11" d="M80.2,29.5c-0.1,0-0.1,0-0.2,0c-0.4,0-0.6-0.2-0.7-0.5c-0.3,0.4-0.6,0.5-1.1,0.5c-0.6,0-1.1-0.4-1.1-1
		c0-0.5,0.3-0.9,1-1c0.3-0.1,0.6-0.1,1.2-0.1v-0.2c0-0.5-0.2-0.8-0.7-0.8c-0.4,0-0.6,0.1-1,0.4l-0.3-0.4c0.4-0.4,0.8-0.5,1.3-0.5
		c0.8,0,1.2,0.4,1.2,1.2v1.6c0,0.2,0.1,0.3,0.4,0.3V29.5z M79.2,27.8c-1.1,0-1.6,0.3-1.6,0.8c0,0.3,0.2,0.5,0.6,0.5
		c0.6,0,0.9-0.3,0.9-0.8V27.8z"/>
	<path class="st11" d="M81.6,26v0.6c0.2-0.4,0.5-0.6,0.9-0.6c0.2,0,0.4,0,0.6,0.1l-0.2,0.5c-0.2-0.1-0.2-0.1-0.4-0.1
		c-0.5,0-0.9,0.4-0.9,1.1v1.9h-0.6V26H81.6z"/>
	<path class="st11" d="M86.6,29.5c-0.1,0-0.1,0-0.2,0c-0.4,0-0.6-0.2-0.7-0.5c-0.3,0.4-0.6,0.5-1.1,0.5c-0.6,0-1.1-0.4-1.1-1
		c0-0.5,0.3-0.9,1-1c0.3-0.1,0.6-0.1,1.2-0.1v-0.2c0-0.5-0.2-0.8-0.7-0.8c-0.4,0-0.6,0.1-1,0.4l-0.3-0.4c0.4-0.4,0.8-0.5,1.3-0.5
		c0.8,0,1.2,0.4,1.2,1.2v1.6c0,0.2,0.1,0.3,0.4,0.3V29.5z M85.7,27.8c-1.1,0-1.6,0.3-1.6,0.8c0,0.3,0.2,0.5,0.6,0.5
		c0.6,0,0.9-0.3,0.9-0.8V27.8z"/>
	<path class="st11" d="M92.5,29.5c-0.1,0-0.1,0-0.2,0c-0.4,0-0.6-0.2-0.7-0.5c-0.3,0.4-0.6,0.5-1.1,0.5c-0.6,0-1.1-0.4-1.1-1
		c0-0.5,0.3-0.9,1-1c0.3-0.1,0.6-0.1,1.2-0.1v-0.2c0-0.5-0.2-0.8-0.7-0.8c-0.4,0-0.6,0.1-1,0.4l-0.3-0.4c0.4-0.4,0.8-0.5,1.3-0.5
		c0.8,0,1.2,0.4,1.2,1.2v1.6c0,0.2,0.1,0.3,0.4,0.3V29.5z M91.5,27.8c-1.1,0-1.6,0.3-1.6,0.8c0,0.3,0.2,0.5,0.6,0.5
		c0.6,0,0.9-0.3,0.9-0.8V27.8z"/>
	<polygon class="st11" points="95.6,26 96.5,28.9 97.4,26 98,26 96.8,29.5 96.2,29.5 95,26 	"/>
	<path class="st11" d="M99.4,24.9c0,0.2-0.2,0.4-0.4,0.4s-0.4-0.2-0.4-0.4c0-0.2,0.2-0.4,0.4-0.4S99.4,24.7,99.4,24.9 M99.3,29.5
		h-0.6V26h0.6V29.5z"/>
	<path class="st11" d="M103.1,28.9c-0.3,0.4-0.7,0.6-1.2,0.6c-0.9,0-1.5-0.7-1.5-1.8c0-1.1,0.6-1.8,1.5-1.8c0.5,0,0.9,0.2,1.2,0.6
		v-2.1h0.6v5h-0.6V28.9z M101,27.7c0,0.9,0.3,1.3,1,1.3c0.7,0,1.1-0.5,1.1-1.3c0-0.8-0.4-1.3-1.1-1.3C101.4,26.4,101,26.9,101,27.7"
		/>
	<path class="st11" d="M107.7,29.5c-0.1,0-0.1,0-0.2,0c-0.4,0-0.6-0.2-0.7-0.5c-0.3,0.4-0.6,0.5-1.1,0.5c-0.6,0-1.1-0.4-1.1-1
		c0-0.5,0.3-0.9,1-1c0.3-0.1,0.6-0.1,1.2-0.1v-0.2c0-0.5-0.2-0.8-0.7-0.8c-0.4,0-0.6,0.1-1,0.4l-0.3-0.4c0.4-0.4,0.8-0.5,1.3-0.5
		c0.8,0,1.2,0.4,1.2,1.2v1.6c0,0.2,0.1,0.3,0.4,0.3V29.5z M106.8,27.8c-1.1,0-1.6,0.3-1.6,0.8c0,0.3,0.2,0.5,0.6,0.5
		c0.6,0,0.9-0.3,0.9-0.8V27.8z"/>
	<path class="st14" d="M46.1,11.6c0,0,2.2-0.7,2.2-3.2c0-2.9-2.1-4.4-4.9-4.4h-7.4v15.8H44c2.5,0,4.9-1.7,4.9-4.4
		C48.9,12.3,46.1,11.6,46.1,11.6 M39.8,7.3h2.9c0.9,0,1.5,0.6,1.5,1.5c0,0.7-0.5,1.4-1.6,1.4h-2.8V7.3z M42.7,16.5h-2.9v-3.1h2.8
		c1.4,0,2.1,0.6,2.1,1.5C44.7,16.1,43.9,16.5,42.7,16.5"/>
	<path class="st14" d="M57.5,3.6c-4.6,0-7.3,3.7-7.3,8.3c0,4.7,2.7,8.3,7.3,8.3c4.6,0,7.3-3.6,7.3-8.3C64.8,7.3,62.1,3.6,57.5,3.6
		 M57.5,16.4c-2.2,0-3.4-2-3.4-4.5c0-2.5,1.1-4.5,3.4-4.5c2.2,0,3.4,2,3.4,4.5C60.9,14.4,59.7,16.4,57.5,16.4"/>
	<path class="st14" d="M73.2,10.3l-0.5-0.1c-1.3-0.3-2.4-0.6-2.4-1.6c0-1,1-1.5,1.9-1.5c1.3,0,2.5,0.6,3.2,1.5l2.5-2.4
		c-1.1-1.3-2.9-2.5-5.8-2.5c-3.3,0-5.9,1.9-5.9,5c0,2.8,2,4.2,4.5,4.8l0.5,0.1c2.1,0.4,2.8,0.7,2.8,1.7c0,0.9-0.8,1.6-2.1,1.6
		c-1.5,0-2.9-0.7-4-2l-2.5,2.5c1.4,1.7,3.2,3,6.6,3c3,0,6.1-1.7,6.1-5.2C78.2,11.4,75.5,10.7,73.2,10.3"/>
	<path class="st14" d="M87,16.4c-1.7,0-3.6-1.4-3.6-4.6c0-2.8,1.7-4.4,3.5-4.4c1.4,0,2.2,0.6,2.9,1.8L93,7.1
		c-1.6-2.4-3.5-3.4-6.1-3.4c-4.8,0-7.4,3.7-7.4,8.2c0,4.7,2.9,8.4,7.3,8.4c3.1,0,4.6-1.1,6.2-3.4l-3.2-2.2
		C89.2,15.7,88.5,16.4,87,16.4"/>
	<polygon class="st14" points="103.6,4 103.6,9.9 98.8,9.9 98.8,4 94.6,4 94.6,19.9 98.8,19.9 98.8,13.6 103.6,13.6 103.6,19.9 
		107.7,19.9 107.7,4 	"/>
	<path class="st11" d="M12,0C5.4,0,0,5.4,0,12c0,6.6,5.4,12,12,12c6.6,0,12-5.4,12-12C24,5.4,18.6,0,12,0 M12,22.9
		C6,22.9,1.1,18,1.1,12C1.1,6,6,1.1,12,1.1C18,1.1,22.9,6,22.9,12C22.9,18,18,22.9,12,22.9"/>
	<path class="st11" d="M16.9,4.5h-0.8v4.1H7.9V4.5H7C4.6,6.1,3,8.9,3,12c0,3.1,1.6,5.9,4,7.5h0.8v-4.1h8.2v4.1h0.8
		c2.4-1.6,4-4.4,4-7.5C21,8.9,19.4,6.1,16.9,4.5 M6.7,17.9c-1.7-1.5-2.6-3.6-2.6-5.9c0-2.3,1-4.4,2.6-5.9V17.9z M16.1,14.2H7.9V9.7
		h8.2V14.2z M17.2,17.8v-2.5V8.6V6.1c1.6,1.5,2.6,3.6,2.6,5.8C19.9,14.3,18.9,16.4,17.2,17.8"/>
</g>
</svg>
