<svg id="Layer_1" data-name="Layer 1" xmlns="http://www.w3.org/2000/svg" viewBox="0 0 356.52 145.39"><defs><style>.cls-1{fill:#fff;}</style></defs><path class="cls-1" d="M192.54,90.25c-11.2,0-19.34-8.93-19.34-21.23,0-12.13,8.14-20.93,19.34-20.93s19.33,8.8,19.33,20.93-8.31,21.23-19.33,21.23m19.19-58.5v7.86h-3l-.29-.32c-4.26-4.56-9.75-9.43-21.1-9.43-18.94,0-33.78,17.2-33.78,39.16s15.28,39.31,34.8,39.31c11.31,0,16.57-4.63,19.89-8.66l.3-.36h3.07v15.21A12.47,12.47,0,0,1,199.11,127H173.83v18.4h27.83a29.18,29.18,0,0,0,29.17-29.18V31.75Z"/><path class="cls-1" d="M106.24,109.78c-22.44,0-38.73-16.47-38.73-39.17,0-22.41,16.4-39.3,38.15-39.3,22,0,37.28,16.1,37.28,39.16v4.38H87.33v1C87.49,86.12,95,93,106,93c7.91,0,14.16-3.28,17.13-9l17.06,3.92c-4.9,13.89-17.26,21.85-33.9,21.85m-.58-62.87c-10.48,0-17.07,7.39-18.16,14.68l-.17,1.15h36.35l-.15-1.13c-1.12-8.52-8.63-14.7-17.87-14.7"/><path class="cls-1" d="M247.44,34.78h19.11v72.69H247.44Zm9.92-12.19c-6.65,0-11.67-4.88-11.67-11.37S250.71,0,257.36,0a11.25,11.25,0,0,1,11.51,11.22,11.19,11.19,0,0,1-11.51,11.37"/><path class="cls-1" d="M314,110c-19.52,0-34.81-17.27-34.81-39.31S294,31.5,312.84,31.5c9,0,16,3.16,21.05,9.38l.3.37h3.08V.94h19.25V108.09H337.27V101h-3.1l-.3.4c-4.33,5.72-11,8.63-19.86,8.63m4.07-60.25c-11.21,0-19.34,8.87-19.34,21.08s8.2,21.09,19.48,21.09c11,0,19.34-9.07,19.34-21.09,0-12.41-8-21.08-19.48-21.08"/><path class="cls-1" d="M37.94,109.53C16,109.53,0,93.32,0,71,0,48.1,16.74,31.49,39.79,31.49c8,0,14,1.42,22.06,5.22L55.63,52.17a31.76,31.76,0,0,0-14-3.21c-12.2,0-21.84,7.1-21.84,21.71S29.18,92.38,42,92.38c4.9,0,8.76-1.11,13.63-3.92l6.57,13.69a42.09,42.09,0,0,1-24.22,7.38"/></svg>