<?xml version="1.0" encoding="utf-8"?>
<!-- Generator: Adobe Illustrator 24.2.3, SVG Export Plug-In . SVG Version: 6.00 Build 0)  -->
<svg version="1.1" id="Layer_1" xmlns="http://www.w3.org/2000/svg" xmlns:xlink="http://www.w3.org/1999/xlink" x="0px" y="0px"
	 viewBox="0 0 572.84 95.29" style="enable-background:new 0 0 572.84 95.29;" xml:space="preserve">
<style type="text/css">
	.st0{fill:#FFFFFF;}
</style>
<g>
	<path class="st0" d="M67.77,33.84c-6.16-6.88-12.09-10.19-19.55-10.19c-13.39,0-22.28,10.19-22.28,24.53
		c0,13.04,8.77,23.58,22.28,23.58c7.47,0,13.39-3.32,19.55-10.2v25.24c-7.35,3.56-14.34,5.33-21.92,5.33
		C20.84,92.14,2.82,73.3,2.82,47.7c0-25.6,18.01-44.44,43.02-44.44c7.58,0,14.58,1.78,21.92,5.33V33.84z"/>
	<path class="st0" d="M340.82,79.23c-8.65,8.41-19.91,13.04-32.12,13.04c-12.32,0-23.46-4.62-32-13.04
		c-8.54-8.42-13.28-19.55-13.28-31.41c0-12.09,4.62-23.23,13.28-31.64c8.53-8.41,19.55-12.8,32-12.8c12.45,0,23.58,4.38,32.12,12.8
		c8.65,8.41,13.27,19.67,13.27,31.64C354.1,59.79,349.36,70.93,340.82,79.23z M345.92,47.82c0-20.98-16.59-37.69-37.21-37.69
		c-20.5,0-37.09,16.59-37.09,37.69c0,20.86,16.35,37.57,37.09,37.57C329.45,85.39,345.92,68.68,345.92,47.82z"/>
	<path class="st0" d="M408.38,10.13c-22.16,0-36.98,15.65-36.98,37.57c0,22.64,15.53,37.45,35.91,37.45c9.72,0,19.2-3.32,27.38-9.84
		l-0.12,9.01c-8.18,5.21-18.13,7.94-26.9,7.94c-25.48,0-44.56-17.9-44.56-44.56c0-26.07,19.44-44.32,44.56-44.32
		c10.78,0,20.03,2.96,27.61,8.89l-0.24,8.53C426.75,13.69,418.34,10.13,408.38,10.13z"/>
	<path class="st0" d="M456.22,5.28v55.35c0,16.59,7.46,24.77,23.23,24.77c15.64,0,23.11-8.18,23.11-24.77V5.28h7.71v52.86
		c0,22.88-10.07,34.13-30.81,34.13c-20.74,0-30.81-11.26-30.81-34.13V5.28H456.22z"/>
	<path class="st0" d="M528.04,72.24c2.37,8.41,9.01,13.15,17.3,13.15c10.67,0,17.07-6.52,17.07-17.89
		c0-10.43-6.16-14.34-16.12-19.56c-13.39-6.99-21.21-12.44-21.21-24.3c0-11.97,8.89-20.38,21.93-20.38
		c8.53,0,14.81,3.67,18.73,10.79l-5.93,3.56c-2.37-4.86-7.11-7.47-13.27-7.47c-8.41,0-13.63,5.33-13.63,13.63
		c0,10.31,7.71,12.68,18.72,18.73c12.45,6.75,18.13,12.21,18.13,25.01c0,15.17-9.48,24.77-24.77,24.77
		c-11.14,0-19.08-5.57-23.59-16.47L528.04,72.24z"/>
	<polygon class="st0" points="105.68,56.71 133.42,56.71 133.42,38.58 105.68,38.58 105.68,23.88 130.64,23.88 135.06,5.28 
		83.17,5.28 83.17,90.01 135.08,90.01 135.08,71.05 105.68,71.05 	"/>
	<polygon class="st0" points="202.15,70.22 202.15,70.22 173.47,70.22 173.47,5.28 150.36,5.28 150.36,90.01 197.44,90.01 	"/>
	<polygon class="st0" points="222.64,12.5 255.17,12.5 256.89,5.28 214.94,5.28 214.94,90.01 222.64,90.01 222.64,46.28 
		252.47,46.28 252.47,39.05 222.64,39.05 	"/>
</g>
</svg>
