<svg id="Layer_1" data-name="Layer 1" xmlns="http://www.w3.org/2000/svg" viewBox="0 0 566.93 89"><defs><style>.cls-1{fill:#fff;}</style></defs><path class="cls-1" d="M65,30.58c-6.17-6.88-12.09-10.2-19.56-10.2-13.39,0-22.28,10.2-22.28,24.54,0,13,8.77,23.58,22.28,23.58,7.47,0,13.39-3.32,19.56-10.19V83.55A48.93,48.93,0,0,1,43,88.88C18,88.88,0,70,0,44.44S18,0,43,0A49.06,49.06,0,0,1,65,5.33Z"/><path class="cls-1" d="M338,76a45.57,45.57,0,0,1-32.12,13,44.87,44.87,0,0,1-32-13,44.06,44.06,0,0,1,0-63c8.53-8.42,19.55-12.8,32-12.8S329.47,4.5,338,12.92A44.08,44.08,0,0,1,338,76Zm5.1-31.41A37.31,37.31,0,0,0,305.88,6.87c-20.5,0-37.09,16.6-37.09,37.69,0,20.86,16.35,37.57,37.09,37.57A37.21,37.21,0,0,0,343.1,44.56Z"/><path class="cls-1" d="M405.56,6.87c-22.16,0-37,15.65-37,37.57,0,22.64,15.53,37.45,35.91,37.45a43.61,43.61,0,0,0,27.38-9.83l-.12,9A51.63,51.63,0,0,1,404.85,89c-25.48,0-44.56-17.89-44.56-44.56,0-26.07,19.43-44.32,44.56-44.32,10.78,0,20,3,27.61,8.89l-.24,8.53C423.93,10.43,415.51,6.87,405.56,6.87Z"/><path class="cls-1" d="M453.39,2V57.36c0,16.59,7.47,24.77,23.23,24.77S499.73,74,499.73,57.36V2h7.71V54.87c0,22.88-10.08,34.13-30.82,34.13s-30.81-11.25-30.81-34.13V2Z"/><path class="cls-1" d="M525.21,69c2.37,8.41,9,13.15,17.3,13.15,10.67,0,17.07-6.52,17.07-17.89,0-10.43-6.16-14.35-16.12-19.56-13.39-7-21.21-12.44-21.21-24.3S531.14,0,544.18,0C552.71,0,559,3.67,562.9,10.79L557,14.34c-2.37-4.86-7.11-7.47-13.27-7.47-8.41,0-13.63,5.34-13.63,13.63,0,10.31,7.71,12.68,18.72,18.73,12.45,6.75,18.14,12.21,18.14,25,0,15.16-9.48,24.76-24.77,24.76-11.14,0-19.08-5.57-23.59-16.47Z"/><polygon class="cls-1" points="102.86 53.45 130.59 53.45 130.59 35.32 102.86 35.32 102.86 20.62 127.81 20.62 132.24 2.02 80.35 2.02 80.35 86.75 132.25 86.75 132.25 67.79 102.86 67.79 102.86 53.45"/><polygon class="cls-1" points="199.33 66.96 199.33 66.96 170.65 66.96 170.65 2.02 147.54 2.02 147.54 86.75 194.62 86.75 199.33 66.96"/><polygon class="cls-1" points="219.82 9.24 252.34 9.24 254.06 2.02 212.12 2.02 212.12 86.75 219.82 86.75 219.82 43.02 249.65 43.02 249.65 35.79 219.82 35.79 219.82 9.24"/></svg>