<?xml version="1.0" encoding="utf-8"?>
<!-- Generator: Adobe Illustrator 23.1.0, SVG Export Plug-In . SVG Version: 6.00 Build 0)  -->
<svg version="1.1" id="Layer_1" xmlns="http://www.w3.org/2000/svg" xmlns:xlink="http://www.w3.org/1999/xlink" x="0px" y="0px"
	 viewBox="0 0 348.2 46.9" style="enable-background:new 0 0 348.2 46.9;" xml:space="preserve">
<style type="text/css">
	.st0{fill:#FFFFFF;}
</style>
<g>
	<path class="st0" d="M209.4,44.9c-2.7,0-5.1,0-7.8,0c0-3.8,0-7.5,0-11.3c0-2.5,0.1-4.9,0-7.4c-0.1-4.3-2.6-6.4-6.9-5.6
		c-2.6,0.5-4,2.3-4,5.4c0,5.5,0,11,0,16.5c0,0.8,0,1.5,0,2.4c-2.7,0-5.2,0-7.9,0c0-10.1,0-20.2,0-30.4c1.8,0,3.7,0,5.7,0
		c0.3,0.9,0.6,1.8,1.1,3.2c0.9-0.5,1.7-0.8,2.4-1.2c1.2-0.7,2.3-1.8,3.6-2.1c4.3-1,8.5-1.1,11.9,2.5c1,1,2.2,0.8,3.1-0.1
		c4.1-4.1,8.9-3.4,13.5-1.7c2.6,0.9,3.7,3.7,3.8,6.2c0.2,7.9,0.1,15.7,0.1,23.7c-2.5,0-4.9,0-7.6,0c0-3.1,0-6.1,0-9.1
		c0-3.3,0-6.7,0-10c0-3.5-1.7-5.2-5-5.3c-3.8,0-5.9,1.8-6,5.2c-0.1,5.6,0,11.2,0,16.7C209.4,43.2,209.4,44,209.4,44.9z"/>
	<path class="st0" d="M31.6,20c-2.5,0-5,0-7.5,0c-0.2-1.2-0.4-2.3-0.6-3.4c-0.6-3.2-2.8-5.4-5.4-5.5c-3.8-0.3-6.4,1.2-7.3,4.7
		C9,21.8,9,28.1,10.7,34.3c0.8,3,3.4,4.5,6.6,4.4c3-0.1,5.3-1.9,6-4.8c0.3-1.3,0.5-2.6,0.7-4.1c2.5,0,5.1,0,7.7,0
		C32.4,38.7,27.4,45.8,18,46c-3.8,0-7.4-0.4-10.6-2.7c-3.8-2.7-4.8-6.7-5.5-10.7c-1.1-6.8-1-13.6,1.2-20.3c1.6-4.7,5-7.6,9.8-8.4
		c2.8-0.5,5.8-0.4,8.6,0.1c5.6,1.1,9.7,6.2,10.1,12.1C31.6,17.3,31.6,18.5,31.6,20z"/>
	<path class="st0" d="M39.4,1.8c2.5,0,5.1,0,7.5,0c0,5.1,0,10,0,15.5c0.8-0.4,1.8-0.6,2.3-1.2c2.3-3.1,11.1-3.2,13.8-0.5
		c1.2,1.2,2.5,2.9,2.6,4.4c0.2,8.2,0.1,16.5,0.1,24.9c-2.3,0-4.7,0-7.5,0c0-0.8,0-1.5,0-2.3c0-5.5,0.1-11,0-16.5
		c-0.1-4.1-1.8-5.6-5.8-5.5c-3.1,0.1-4.8,1.5-4.9,4.6c-0.2,5.6-0.1,11.2-0.2,16.7c0,0.9,0,1.9,0,3c-2.7,0-5.2,0-7.9,0
		C39.4,30.5,39.4,16.2,39.4,1.8z"/>
	<path class="st0" d="M154.5,32.3c0,4.1,0,8.3,0,12.5c-2.6,0-5.1,0-7.8,0c0-14.3,0-28.6,0-43c2.6,0,5,0,7.7,0c0,7.8,0,15.4,0,23.2
		c2.3,0.5,3.8,0.4,5.1-1.7c1.6-2.6,3.7-5,5.5-7.5c0.8-1,1.6-1.6,3-1.6c2.2,0.1,4.5,0,7.3,0c-3.6,4.9-7,9.6-10.4,14.3
		c3.5,5.4,7.1,10.7,10.9,16.4c-3.1,0-5.8,0.1-8.4,0c-0.6,0-1.2-0.6-1.6-1.2c-2.1-3.1-4.2-6.2-6.1-9.4
		C158.4,32.3,157.1,31.4,154.5,32.3z"/>
	<path class="st0" d="M333.9,45.9c-1.2-0.2-1.9-0.9-2.6-1.7c-4.7-4.9-7.8-9-7.8-9c-1.2-1.5-2-1.3-3.2,0c-2.7,3.1-5.5,6.2-8.1,9.3
		c-1.1,1.3-2.6,1.9-4,1.2c-1.1-0.5-2.4-1.8-2.4-2.8c-0.1-1.3,0.6-3,1.6-4c2.8-2.7,5.9-5.1,9-7.5c1.8-1.4,1.9-2,0.1-3.5
		c-2.9-2.6-5.9-5.1-8.9-7.6c-1.8-1.6-2.4-3.4-1.4-5c1.2-2.1,4-2.5,5.7-0.7c2.8,3,5.4,6.1,8.1,9.1c1.9,2.2,2.1,2.1,4.1-0.1
		c5.5-6,11.1-12,16.8-18c1.2-1.3,2.9-1.4,4.4-0.4c1.5,1,2.1,2.7,1.3,4.2c-1,1.7-2.5,3.2-4,4.6c-5,4.7-10.1,9.4-15.2,14.1
		c-1.3,1.2-1,2,0.3,3.1c3.2,2.6,6.3,5.3,9.4,8.1c1.2,1.1,1.9,2.5,1.1,4.3c-0.1,0.2-0.3,0.8-0.9,1.3C336.2,45.7,334.9,46,333.9,45.9z
		"/>
	<path class="st0" d="M242.8,23.7c-2.1,0-4.3,0-6.4,0c-0.4-4.4,1.9-8.1,6.1-8.9c3.3-0.7,6.8-1.1,10.1-0.8c5.9,0.5,8.8,3.6,9,9.7
		c0.2,7,0.1,14,0.1,21.1c-2,0-3.9,0-6,0c-0.2-0.8-0.6-1.7-1.1-3.2c-1.1,0.6-2.3,1-3.1,1.8c-3.1,3.3-11.5,2.4-13.9,0.2
		c-3.2-2.8-3.6-6.3-2.6-10c1-3.5,3.7-5.5,7.3-6c2.5-0.3,5.1-0.3,7.6-0.4c1.3,0,2.5,0,3.7,0c0.6-4.2-0.3-6.5-2.7-7.2
		C246.8,18.9,244.4,20,242.8,23.7z M253.8,32c-2.7,0-5.2-0.1-7.8,0c-2.3,0.1-3.6,1.8-3.5,4.1c0.1,2.2,1.4,3.4,3.7,3.6
		C251.6,40.1,254.2,37.6,253.8,32z"/>
	<path class="st0" d="M102.5,31.1c-7,0-13.8,0-20.5,0c0,4.8,1.7,7.7,4.9,8.5c3.7,0.9,6.7-0.4,8.3-3.7c2.2,0,4.4,0,6.9,0
		c-0.2,2.7-1,5-3.1,6.6c-5.7,4.5-15.2,4.5-20.6-0.2c-1.7-1.5-3-4-3.6-6.2c-1.2-4.5-1.2-9.1,0.3-13.6c1.4-4.2,4-7.5,8.8-8
		c3.1-0.3,6.2-0.5,9.2-0.2c6.3,0.7,8.6,5.2,9.3,10.9C102.7,26.9,102.5,28.8,102.5,31.1z M82.4,25.7c4.2,0,8.5,0,12.7,0
		c-0.2-4.5-1.8-6.2-7-6.1C84.4,19.7,82.7,21.6,82.4,25.7z"/>
	<path class="st0" d="M130.6,33c2.7,0,5.2,0,7.8,0c-0.3,9.4-6.5,12.8-14.6,12.6c-1.9-0.1-3.9-0.5-5.8-1.1c-4.5-1.5-6.7-5-7.6-9.3
		c-0.9-4.1-0.9-8.2,0.3-12.3c1.6-5.6,5.1-8.6,10.9-9c2.5-0.2,5.1-0.1,7.6,0.4c5.8,1.2,8.9,5.2,8.9,11.3c-2.4,0-4.9,0-7.4,0
		c0,0-0.2-0.1-0.2-0.2c-1-4.1-2.3-5.2-5.8-5.3c-3.5-0.1-5.6,1.4-6.3,5.2c-0.5,2.6-0.5,5.4-0.2,8c0.5,3.7,3.2,5.8,6.5,5.7
		C128.2,39,129.8,37.4,130.6,33z"/>
	<path class="st0" d="M295.6,38.3c0,2.3,0,4.4,0,6.6c-8.7,0-17.3,0-26,0c0-2.2,0-4.2,0-6.5c2.7,0,5.4,0,8.2,0c0-6,0-11.7,0-17.7
		c-2.4,0-4.7,0-7.2,0c0-2.2,0-4.1,0-6.2c4.3,0,8.6,0,13,0c0.3,0.9,0.5,1.8,1,3.1c0.9-0.3,1.9-0.4,2.4-0.9c2.1-2.4,4.8-2.9,7.8-2.8
		c1.5,0,3,0,4.7,0c0,2.2,0,4.3,0,6.8c-2.3,0-4.7,0-7.2,0c-4.5,0-6.3,1.7-6.4,6.1c-0.1,3.6,0,7.2,0,10.8c0,0.2,0.1,0.4,0.2,0.9
		C289.2,38.3,292.4,38.3,295.6,38.3z"/>
</g>
</svg>
