<?xml version="1.0" encoding="utf-8"?>
<!-- Generator: Adobe Illustrator 23.0.3, SVG Export Plug-In . SVG Version: 6.00 Build 0)  -->
<svg version="1.1" id="Layer_1" xmlns="http://www.w3.org/2000/svg" xmlns:xlink="http://www.w3.org/1999/xlink" x="0px" y="0px"
	 viewBox="0 0 223.9 29" style="enable-background:new 0 0 223.9 29;" xml:space="preserve">
<style type="text/css">
	.st0{clip-path:url(#SVGID_2_);fill:#231F20;}
	.st1{clip-path:url(#SVGID_2_);fill:none;stroke:#FFFFFF;stroke-miterlimit:10;}
	.st2{clip-path:url(#SVGID_2_);}
	.st3{clip-path:url(#SVGID_4_);fill:none;stroke:#FFFFFF;stroke-miterlimit:10;}
	.st4{clip-path:url(#SVGID_6_);fill:none;stroke:#FFFFFF;stroke-miterlimit:10;}
	.st5{clip-path:url(#SVGID_6_);fill:#FEEDE8;}
	.st6{clip-path:url(#SVGID_6_);fill:#0D0D0D;}
	.st7{clip-path:url(#SVGID_8_);}
	.st8{fill:#231F20;}
	.st9{fill:#0D0D0D;}
	.st10{fill:none;stroke:#FEEDE8;stroke-width:1.099;stroke-miterlimit:10;}
	.st11{fill:#FFFFFF;}
	.st12{fill:none;stroke:#FFFFFF;stroke-width:0.193;stroke-miterlimit:10;}
	.st13{clip-path:url(#SVGID_14_);}
	.st14{fill-rule:evenodd;clip-rule:evenodd;fill:#FFFFFF;}
</style>
<g>
	<path class="st11" d="M0,15.1C0,5.5,3.1,1.3,10.2,1.3c6.3,0,9.4,3.4,9.7,10.6h-5.2c-0.2-4-1.6-5.8-4.4-5.8c-3.4,0-4.7,2.5-4.7,9
		c0,6.7,1.3,9,4.7,9c2.9,0,4.3-1.6,4.5-5.9H20c-0.3,7.3-3.5,10.7-9.8,10.7C3.1,28.9,0,24.7,0,15.1 M24.6,0h5.2v6.7L29.3,10l1.1,0.3
		l1.1-1.1c1-1,2.3-1.3,4.1-1.3c4.3,0,6.4,2.3,6.4,6.8v13.7h-5.2V16c0-2.5-1.1-3.6-3.4-3.6c-2.4,0-3.7,1.2-3.7,3.6v12.3h-5.2V0z
		 M47.1,18.2c0-7.1,3.3-10.4,9.6-10.4c6.5,0,9.6,3.5,8.8,11.3H52.2c0.2,4,1.6,5.7,4.6,5.7c2.2,0,3.6-0.9,4-2.7h4.7
		c-0.5,4.2-3.6,6.6-8.9,6.6C50.4,28.7,47.1,25.3,47.1,18.2 M60.8,15.9c-0.1-2.8-1.4-4.2-4.1-4.2c-2.6,0-4,1.3-4.4,4.2H60.8z
		 M70.2,18.2c0-7.1,3.3-10.4,9.6-10.4c5.7,0,8.8,2.8,8.9,8.1h-5c-0.2-2.6-1.5-3.7-3.9-3.7c-2.9,0-4.2,1.8-4.2,6.1
		c0,4.3,1.3,6.1,4.2,6.1c2.4,0,3.7-1.1,3.9-3.9h5.1c-0.2,5.4-3.3,8.3-9,8.3C73.5,28.7,70.2,25.3,70.2,18.2 M101.5,19.8h-2.3v8.4
		h-5.2V0h5.2v15.3h2.3l5.3-7.1h5.9l-6.8,9.4l7.1,10.7h-6.1L101.5,19.8z M151,22.9c0-4,2.6-6.1,7.2-6.1h5.2v-1.5
		c0-2.5-1.1-3.5-3.4-3.5c-1.9,0-3.3,0.8-3.5,2.6h-4.7c0.2-4.2,3.1-6.6,8.6-6.6c5.5,0,8.1,2.4,8.1,7.3v13.2h-4l-0.5-2.1H163l-1.1,1.1
		c-0.9,0.9-2.4,1.3-4.3,1.3C153.3,28.7,151,26.6,151,22.9 M159.3,24.8c2.6,0,4.1-1.4,4.1-3.8v-1.3h-3.9c-2.2,0-3.3,0.9-3.3,2.6
		C156.2,23.9,157.1,24.8,159.3,24.8 M173.6,23.9h5.5V12.5h-4.9V8.2h8.6l0.5,2.1h1.1l1.1-1.1c0.9-1,2.4-1.3,4.2-1.3h3.3v4.6H188
		c-2.4,0-3.7,1.2-3.7,3.4v8.1h6.4v4.4h-17.1V23.9z M140.5,7.8c-1.8,0-3.3,0.4-4.2,1.3l-1.1,1.1h-0.3h-1c-1-1.6-2.9-2.4-5.5-2.4
		c-1.8,0-3.3,0.4-4.2,1.3l-1.1,1.1h-1.1l-0.5-2.1h-3.8v20.1h5.2V16c0-2.4,1.2-3.6,3.7-3.6c2.3,0,3.4,1.1,3.4,3.6v12.3h5.2V15.9l0,0
		c0-2.4,1.2-3.6,3.7-3.6c2.3,0,3.4,1.1,3.4,3.6v12.3h5.2V14.6C147,10.1,144.9,7.8,140.5,7.8"/>
	<path class="st11" d="M223.2,2.8L223.2,2.8c-0.5-0.6-1.1-0.9-1.9-0.9c-0.7,0-1.4,0.2-2,0.8l-11.5,12.4c-0.2,0.2-0.7,0.2-0.9,0
		l-5.9-6.8l0,0c-0.5-0.5-1.2-0.8-1.9-0.7c-0.7,0-1.4,0.4-1.9,0.9c-0.4,0.5-0.6,1.1-0.6,1.8c0,0.6,0.3,1.2,0.8,1.7l6.8,5.8
		c0.1,0.1,0.2,0.3,0.2,0.5c0,0.2-0.1,0.3-0.2,0.4l-6.8,5.8l0,0c-0.5,0.5-0.8,1.2-0.8,1.9c0,0.7,0.3,1.4,0.8,1.9
		c0.2,0.2,0.5,0.4,0.8,0.5c0.6,0.2,1.3,0.2,1.9,0c0.3-0.1,0.6-0.3,0.9-0.6l5.9-6.8c0.2-0.2,0.7-0.2,0.9,0l5.9,6.8l0,0
		c0.2,0.2,0.5,0.4,0.8,0.6c0.3,0.1,0.6,0.2,1,0.2c0.3,0,0.6-0.1,0.9-0.2c0.3-0.1,0.6-0.3,0.8-0.5c0.5-0.5,0.8-1.2,0.8-1.9
		c0-0.7-0.3-1.4-0.8-1.9l-6.8-5.8c-0.1-0.1-0.2-0.3-0.2-0.5c0-0.2,0.1-0.3,0.2-0.4L223,6.3c0.5-0.5,0.7-1.1,0.8-1.7
		C223.9,4,223.7,3.3,223.2,2.8"/>
	<g>
		<defs>
			<path id="SVGID_13_" d="M219.4,2.7l-11.5,12.4c-0.2,0.2-0.7,0.2-0.9,0l-5.9-6.8l0,0c-0.5-0.5-1.2-0.8-1.9-0.7
				c-0.7,0-1.4,0.4-1.9,0.9c-0.4,0.5-0.6,1.1-0.6,1.8c0,0.6,0.3,1.2,0.8,1.7l6.8,5.8c0.1,0.1,0.2,0.3,0.2,0.5s-0.1,0.3-0.2,0.4
				l-6.8,5.8l0,0c-0.5,0.5-0.8,1.2-0.8,1.9c0,0.7,0.3,1.4,0.8,1.9c0.2,0.2,0.5,0.4,0.8,0.5c0.6,0.2,1.3,0.2,1.9,0
				c0.3-0.1,0.6-0.3,0.9-0.6l5.9-6.8c0.2-0.2,0.7-0.2,0.9,0l5.9,6.8l0,0c0.2,0.2,0.5,0.4,0.8,0.6c0.3,0.1,0.6,0.2,1,0.2
				c0.3,0,0.6-0.1,0.9-0.2c0.3-0.1,0.6-0.3,0.8-0.5c0.5-0.5,0.8-1.2,0.8-1.9c0-0.7-0.3-1.4-0.8-1.9l-6.8-5.8
				c-0.1-0.1-0.2-0.3-0.2-0.5c0-0.2,0.1-0.3,0.2-0.4L223,6.3c0.5-0.5,0.7-1.1,0.8-1.7c0.1-0.7-0.1-1.3-0.6-1.8v0
				c-0.5-0.6-1.1-0.9-1.9-0.9c0,0-0.1,0-0.1,0C220.6,1.9,219.9,2.2,219.4,2.7"/>
		</defs>
		<clipPath id="SVGID_2_">
			<use xlink:href="#SVGID_13_"  style="overflow:visible;"/>
		</clipPath>
		<g class="st2">
			<g>
				<defs>
					<rect id="SVGID_15_" x="196.7" y="1.9" width="27.2" height="27.2"/>
				</defs>
				<clipPath id="SVGID_4_">
					<use xlink:href="#SVGID_15_"  style="overflow:visible;"/>
				</clipPath>
				<g style="clip-path:url(#SVGID_4_);">
					
						<image style="overflow:visible;" width="58" height="57" xlink:href="E61E8094.jpg"  transform="matrix(0.48 0 0 0.48 196.3239 1.7031)">
					</image>
				</g>
			</g>
		</g>
	</g>
</g>
</svg>
