<?xml version="1.0" encoding="utf-8"?>
<!-- Generator: Adobe Illustrator 24.2.3, SVG Export Plug-In . SVG Version: 6.00 Build 0)  -->
<svg version="1.1" id="Layer_1" xmlns="http://www.w3.org/2000/svg" xmlns:xlink="http://www.w3.org/1999/xlink" x="0px" y="0px"
	 viewBox="0 0 135.2 32.74" style="enable-background:new 0 0 135.2 32.74;" xml:space="preserve">
<style type="text/css">
	.st0{fill:#FFFFFF;}
</style>
<g>
	<g>
		<path class="st0" d="M134.63,19.91h-18.14v-0.59h18.14V19.91z M125.55,16.46l1.71-1.63l0.71,0.71l-1.84,1.56
			c-0.15,0.18-0.26,0.48-0.35,0.67h-1.36C124.49,17.26,125.2,16.62,125.55,16.46 M119.85,6.02c-0.06,0.02-1.41,0.39-1.41,0.39
			s-0.63,0.24-0.91,0.43c-0.28,0.18-0.59,0.5-0.61,0.67l1.21,0.28c0.19-0.2,0.39-0.43,0.57-0.58l0.28-0.13l1-1.02
			C119.98,6.06,119.94,6.01,119.85,6.02 M128.06,9.35c-0.78-0.85-1.43-1.65-2.06-2.6c0.41-0.78,0.71-2.84,0.52-3.64
			c-0.07-0.24-0.74-1.13-0.85-1.26c-0.17-0.17-0.71-0.78-0.97-0.78c-0.06,0-0.11,0.02-0.13,0.04l0.07,0.69
			c-0.72,0.46-1.67,1.1-2.52,1.73c0,0.24,0.02,0.61,0.04,0.74c0.13,0.11,0.28,0.2,0.45,0.26c0.33-0.06,1.37-0.32,1.65-0.28
			l-1.02,1.54l-1.17,0.84l-1.47-0.46c-0.09-0.02-0.19,0-0.24,0.07l-1.08,1.17c-0.06,0.05-0.09,0.11-0.09,0.24l-0.04,1.32
			c0,0-0.02,0.2-0.02,0.43c0,0.95,0.43,1.39,0.43,1.39l0.71-1.02c-0.09-0.15-0.26-0.56-0.3-0.74c0-0.04,0.02-1.13,0.02-1.13
			l0.69-0.5l1.82,1.28c0,0,0.5,0.93,0.98,1.49c0.32,0.39,1.89,1.45,2.65,1.89c0.07,0.41,0.24,1.08,0.37,1.43l2.23,2.28l-1.32,1.65
			c-0.46,0.3-0.91,0.84-0.87,1.34h1.52l0.17-0.87l1.82-2.02c0.09-0.11,0.09-0.17,0.04-0.33l-0.52-1.74c0.26-0.3,0.82-1.04,0.82-1.93
			C130.38,10.22,128.61,9.81,128.06,9.35 M130.91,12.04c-0.11-0.43-0.28-0.91-0.41-1.15c0,0,0.07-0.07,0.22,0.02
			c0.15,0.09,1.09,0.74,1.09,0.74c0.48,0.71,0.78,3.6,0.8,4.64c-0.45-0.2-1.08-0.56-1.49-0.95L130.91,12.04z"/>
	</g>
	<g>
		<path class="st0" d="M110.29,27h-0.57v4.61h0.9v-3.47c0.38-0.22,0.85-0.46,1.35-0.46c0.44,0,0.7,0.16,0.7,0.73v3.2h0.9V28.2
			c0-1.01-0.54-1.27-1.18-1.27c-0.68,0-1.31,0.3-1.76,0.65C110.61,27.1,110.51,27,110.29,27 M106.34,30.99
			c-0.78,0-1.29-0.56-1.29-1.67c0-1.11,0.51-1.71,1.29-1.71c0.79,0,1.29,0.6,1.29,1.71C107.63,30.43,107.13,30.99,106.34,30.99
			 M106.34,31.67c1.25,0,2.21-0.88,2.21-2.34c0-1.47-0.95-2.39-2.21-2.39c-1.25,0-2.21,0.92-2.21,2.39
			C104.14,30.78,105.09,31.67,106.34,31.67 M102.5,26.49c0.28,0,0.53-0.23,0.53-0.51c0-0.29-0.25-0.53-0.53-0.53
			c-0.28,0-0.53,0.24-0.53,0.53C101.97,26.26,102.21,26.49,102.5,26.49 M102.94,31.61v-3.92c0-0.58-0.04-0.69-0.4-0.69h-0.5v4.61
			H102.94z M98.14,27.64h0.56v2.84c0,0.86,0.46,1.19,1.24,1.19c0.31,0,0.56-0.04,0.73-0.09V31h-0.41c-0.46,0-0.66-0.14-0.66-0.63
			v-2.73h1.02V27H99.6v-1.25h-0.9V27h-0.56V27.64z M95.25,30.99c-0.78,0-1.29-0.56-1.29-1.67c0-1.11,0.51-1.71,1.29-1.71
			c0.79,0,1.29,0.6,1.29,1.71C96.53,30.43,96.03,30.99,95.25,30.99 M95.25,31.67c1.25,0,2.21-0.88,2.21-2.34
			c0-1.47-0.95-2.39-2.21-2.39c-1.25,0-2.21,0.92-2.21,2.39C93.04,30.78,93.99,31.67,95.25,31.67 M85.93,31.61h0.79v-5.04h0.04
			l1.75,5.04h0.6l1.76-5.04h0.03v5.04h0.95v-6.17h-1.31l-1.63,4.68H88.9l-1.63-4.68h-1.33V31.61z M78.91,27h-0.56v4.61h0.9v-3.47
			c0.38-0.22,0.85-0.46,1.35-0.46c0.44,0,0.7,0.16,0.7,0.73v3.2h0.9V28.2c0-1.01-0.54-1.27-1.18-1.27c-0.68,0-1.31,0.3-1.76,0.65
			C79.23,27.1,79.13,27,78.91,27 M76.39,26.49c0.28,0,0.53-0.23,0.53-0.51c0-0.29-0.25-0.53-0.53-0.53s-0.53,0.24-0.53,0.53
			C75.86,26.26,76.11,26.49,76.39,26.49 M76.83,31.61v-3.92c0-0.58-0.04-0.69-0.4-0.69h-0.5v4.61H76.83z M70.59,27.55
			c0.63,0,1.02,0.34,1.04,1.34h-2.21C69.53,27.91,70,27.55,70.59,27.55 M72.52,29.48c0-0.04,0.01-0.19,0.01-0.32
			c0-1.52-0.71-2.23-1.93-2.23c-1.2,0-2.11,0.92-2.11,2.39c0,1.45,0.78,2.34,2.2,2.34c0.86,0,1.37-0.25,1.7-0.47v-0.63h-0.29
			c-0.28,0.23-0.69,0.42-1.28,0.42c-0.86,0-1.36-0.42-1.4-1.51H72.52z M67.6,27.73c0.04,0,0.2,0.01,0.2,0.01v-0.74
			c-0.05-0.02-0.14-0.04-0.25-0.04c-0.57,0-1.01,0.33-1.32,0.68C66.22,27.1,66.12,27,65.9,27h-0.56v4.61h0.9v-3.37
			C66.53,27.99,66.98,27.73,67.6,27.73 M61.6,30.97c-0.42,0-0.71-0.14-0.71-0.73V27h-0.9v3.44c0,0.93,0.54,1.23,1.26,1.23
			c0.61,0,1.21-0.26,1.67-0.58c0.03,0.45,0.11,0.52,0.33,0.52h0.57V27h-0.9v3.53C62.53,30.75,62.07,30.97,61.6,30.97 M56.33,27.64
			h0.56v2.84c0,0.86,0.46,1.19,1.24,1.19c0.31,0,0.57-0.04,0.73-0.09V31h-0.41c-0.46,0-0.66-0.14-0.66-0.63v-2.73h1.02V27h-1.02
			v-1.25h-0.9V27h-0.56V27.64z M52.96,30.97c-0.42,0-0.71-0.14-0.71-0.73V27h-0.9v3.44c0,0.93,0.54,1.23,1.26,1.23
			c0.61,0,1.21-0.26,1.67-0.58c0.03,0.45,0.11,0.52,0.33,0.52h0.56V27h-0.9v3.53C53.9,30.75,53.43,30.97,52.96,30.97 M47.76,31.61
			v-2.66h2.16v-0.71h-2.16v-2.06h2.85v-0.74h-3.8v6.17H47.76z M41.39,27.55c0.64,0,1.02,0.34,1.04,1.34h-2.21
			C40.32,27.91,40.79,27.55,41.39,27.55 M43.31,29.48c0-0.04,0.01-0.19,0.01-0.32c0-1.52-0.72-2.23-1.93-2.23
			c-1.2,0-2.11,0.92-2.11,2.39c0,1.45,0.79,2.34,2.2,2.34c0.86,0,1.37-0.25,1.7-0.47v-0.63h-0.29c-0.28,0.23-0.69,0.42-1.28,0.42
			c-0.86,0-1.36-0.42-1.4-1.51H43.31z M35.17,26.04c0-0.52-0.06-0.6-0.41-0.6h-0.49v6.17h0.9v-3.47c0.38-0.22,0.85-0.46,1.35-0.46
			c0.44,0,0.7,0.16,0.7,0.73v3.2h0.9V28.2c0-1.01-0.54-1.27-1.18-1.27c-0.68,0-1.31,0.3-1.76,0.65V26.04z M31.45,31.61v-5.45h1.77
			v-0.72h-4.51v0.72h1.77v5.45H31.45z"/>
	</g>
	<g>
		<path class="st0" d="M83.8,11.41c0-1.11-0.35-1.99-1.32-1.99c-0.97,0-1.36,0.87-1.36,1.99v7.33h1.13v1.17h-6.2v-1.17h1.15V8.64
			h-1.15V7.51h4.88V9.4h0.06c0.46-1.04,1.54-2.13,3.27-2.13c1.82,0,2.93,1.11,3.29,2.58c0.13,0.58,0.17,1.52,0.17,2v6.89h1.49v1.17
			h-5.4V11.41z M58.75,11.41c0-1.11-0.35-1.99-1.32-1.99c-0.97,0-1.36,0.87-1.36,1.99v7.33h1.13v1.17h-6.2v-1.17h1.15V8.64h-1.15
			V7.51h4.88V9.4h0.06c0.46-1.04,1.54-2.13,3.27-2.13c1.82,0,2.93,1.11,3.29,2.58c0.13,0.58,0.17,1.52,0.17,2v6.89h1.49v1.17h-5.4
			V11.41z M94.45,8.64v9.17c0,0.63,0.41,0.78,0.8,0.78c0.37,0,0.72-0.13,0.72-0.13v1.13c0,0-0.74,0.46-2.4,0.46
			c-1.93,0-3.06-0.95-3.06-2.95V8.64H89.2V7.81c1.47-1.17,3.17-2.51,4.53-3.64h0.72v3.34h1.89v1.13H94.45z M17.08,1.07
			c0,0,2.99,2.99,4.36,4.53v1.17c-1.28-1.35-3.94-2.49-6.4-2.49c-5.59,0-9.1,4.21-9.1,9.43c0,5.2,3.32,9.41,9.1,9.41
			c2.88,0,5.18-1.36,6.46-2.75v1.11c-1.75,2.4-4.94,3.95-8.91,3.95c-7.11,0-12.01-5.16-12.01-11.73c0-6.57,5.44-11.71,12.01-11.71
			c1.67,0,3.17,0.28,4.49,0.74V1.07z M74.26,16.61c-0.56,0.65-1.43,1.15-2.73,1.15c-1.13,0-2.88-0.63-2.95-3.51h6.63
			c0.02-0.22,0.04-0.67,0.04-0.89c0-3.49-1.43-6.09-5.16-6.09c-3.75,0-5.66,2.88-5.66,6.46c0,3.58,1.91,6.4,5.66,6.4
			c2.41,0,3.94-1.13,4.83-2.91L74.26,16.61z M68.57,13.04c0-3.27,0.26-4.49,1.37-4.49c1.13,0,1.36,1.19,1.39,4.49H68.57z
			 M13.85,13.67c0-3.79,0.35-5.46,1.63-5.46c1.28,0,1.63,1.67,1.63,5.46c0,3.79-0.35,5.46-1.63,5.46
			C14.2,19.13,13.85,17.46,13.85,13.67 M9.24,13.71c0,3.75,2.3,6.79,6.24,6.79c3.94,0,6.24-3.04,6.24-6.79
			c0-3.75-2.3-6.79-6.24-6.79C11.54,6.91,9.24,9.96,9.24,13.71 M30.5,11.41c0-1.11-0.35-1.99-1.32-1.99c-0.97,0-1.36,0.87-1.36,1.99
			v7.33h1.13v1.17h-6.2v-1.17h1.15V8.64h-1.15V7.51h4.88V9.4h0.05c0.46-1.04,1.54-2.13,3.27-2.13c1.82,0,2.93,1.11,3.29,2.58
			c0.13,0.58,0.17,1.52,0.17,2v6.89h1.49v1.17h-5.4V11.41z M44.54,4.22c0,1.1,0.98,1.82,2.4,1.82c1.41,0,2.39-0.72,2.39-1.82
			c0-1.09-0.98-1.82-2.39-1.82C45.53,2.4,44.54,3.13,44.54,4.22 M41.15,8.64v9.17c0,0.63,0.41,0.78,0.8,0.78
			c0.37,0,0.72-0.13,0.72-0.13v1.13c0,0-0.74,0.46-2.39,0.46c-1.93,0-3.06-0.95-3.06-2.95V8.64H35.9V7.81
			c1.47-1.17,3.17-2.51,4.53-3.64h0.72v3.34h1.52v1.13H41.15z M113.58,18.74h1.52v1.17h-5.44V4.06h-1.35V2.92h5.27V18.74z
			 M103.1,13.76c-0.11-0.11-0.35-0.26-0.85-0.26c-1.17,0-1.43,1.15-1.43,2.34c0,1.17,0.35,2.12,1.35,2.12c0.48,0,0.78-0.2,0.93-0.37
			V13.76z M103.27,18.42h-0.06c-0.72,1.02-1.69,1.71-3.17,1.71c-2.02,0-3.29-1.73-3.29-3.79c0-2.49,1.76-4.07,4.59-4.07
			c1.15,0,1.76,0.26,1.76,0.26v-0.78c0-1.5-0.93-2.3-2.28-2.3c-1.88,0-2.84,1.45-2.84,1.45l-0.69-0.83c1.24-1.93,3.16-2.8,4.94-2.8
			c3.01,0,4.79,1.78,4.79,4.49v6.98h1.26v1.17h-5.01V18.42z M43.82,19.91v-1.17h1.13V8.64h-1.13V7.51h5.05v11.23h1.15v1.17H43.82z"
			/>
	</g>
</g>
</svg>
