<?xml version="1.0" encoding="utf-8"?>
<!-- Generator: Adobe Illustrator 23.0.3, SVG Export Plug-In . SVG Version: 6.00 Build 0)  -->
<svg version="1.1" id="Layer_1" xmlns="http://www.w3.org/2000/svg" xmlns:xlink="http://www.w3.org/1999/xlink" x="0px" y="0px"
	 viewBox="0 0 219.8 50.2" style="enable-background:new 0 0 219.8 50.2;" xml:space="preserve">
<style type="text/css">
	.st0{clip-path:url(#SVGID_2_);fill:#231F20;}
	.st1{clip-path:url(#SVGID_2_);fill:none;stroke:#FFFFFF;stroke-miterlimit:10;}
	.st2{clip-path:url(#SVGID_2_);}
	.st3{clip-path:url(#SVGID_4_);fill:none;stroke:#FFFFFF;stroke-miterlimit:10;}
	.st4{clip-path:url(#SVGID_6_);fill:none;stroke:#FFFFFF;stroke-miterlimit:10;}
	.st5{clip-path:url(#SVGID_6_);fill:#FEEDE8;}
	.st6{clip-path:url(#SVGID_6_);fill:#0D0D0D;}
	.st7{clip-path:url(#SVGID_8_);}
	.st8{fill:#231F20;}
	.st9{fill:#0D0D0D;}
	.st10{fill:none;stroke:#FEEDE8;stroke-width:1.099;stroke-miterlimit:10;}
	.st11{fill:#FFFFFF;}
	.st12{fill:none;stroke:#FFFFFF;stroke-width:0.193;stroke-miterlimit:10;}
	.st13{clip-path:url(#SVGID_14_);}
	.st14{fill-rule:evenodd;clip-rule:evenodd;fill:#FFFFFF;}
</style>
<g>
	<path class="st11" d="M219.8,30.9h-29.8v-1h29.8V30.9z M205,25.2l2.8-2.7l1.2,1.2l-3,2.6c-0.2,0.3-0.4,0.8-0.6,1.1h-2.2
		C203.2,26.6,204.4,25.5,205,25.2 M195.6,8.1c-0.1,0-2.3,0.6-2.3,0.6s-1,0.4-1.5,0.7c-0.5,0.3-1,0.8-1,1.1l2,0.5
		c0.3-0.3,0.6-0.7,0.9-1l0.5-0.2l1.6-1.7C195.8,8.2,195.8,8.1,195.6,8.1 M209.1,13.6c-1.3-1.4-2.3-2.7-3.4-4.3
		c0.7-1.3,1.2-4.7,0.9-6c-0.1-0.4-1.2-1.9-1.4-2.1C204.9,1,204,0,203.6,0c-0.1,0-0.2,0-0.2,0.1l0.1,1.1C202.3,2,200.7,3,199.3,4
		c0,0.4,0,1,0.1,1.2c0.2,0.2,0.5,0.3,0.7,0.4c0.5-0.1,2.2-0.5,2.7-0.5l-1.7,2.5l-1.9,1.4l-2.4-0.8c-0.1,0-0.3,0-0.4,0.1l-1.8,1.9
		c-0.1,0.1-0.1,0.2-0.1,0.4l-0.1,2.2c0,0,0,0.3,0,0.7c0,1.6,0.7,2.3,0.7,2.3l1.2-1.7c-0.1-0.2-0.4-0.9-0.5-1.2c0-0.1,0-1.9,0-1.9
		l1.1-0.8l3,2.1c0,0,0.8,1.5,1.6,2.4c0.5,0.6,3.1,2.4,4.3,3.1c0.1,0.7,0.4,1.8,0.6,2.3l3.7,3.7l-2.2,2.7c-0.8,0.5-1.5,1.4-1.4,2.2
		h2.5l0.3-1.4l3-3.3c0.1-0.2,0.1-0.3,0.1-0.5l-0.9-2.9c0.4-0.5,1.3-1.7,1.3-3.2C212.9,15,210,14.3,209.1,13.6 M213.7,18
		c-0.2-0.7-0.5-1.5-0.7-1.9c0,0,0.1-0.1,0.4,0c0.2,0.1,1.8,1.2,1.8,1.2c0.8,1.2,1.3,5.9,1.3,7.6c-0.7-0.3-1.8-0.9-2.4-1.6L213.7,18z
		"/>
	<path class="st11" d="M179.9,42.5H179v7.6h1.5v-5.7c0.6-0.4,1.4-0.8,2.2-0.8c0.7,0,1.1,0.3,1.1,1.2v5.2h1.5v-5.6
		c0-1.7-0.9-2.1-1.9-2.1c-1.1,0-2.1,0.5-2.9,1.1C180.5,42.7,180.3,42.5,179.9,42.5 M173.4,49.1c-1.3,0-2.1-0.9-2.1-2.7
		c0-1.8,0.8-2.8,2.1-2.8c1.3,0,2.1,1,2.1,2.8C175.6,48.2,174.7,49.1,173.4,49.1 M173.4,50.2c2,0,3.6-1.4,3.6-3.8
		c0-2.4-1.6-3.9-3.6-3.9c-2,0-3.6,1.5-3.6,3.9C169.8,48.7,171.4,50.2,173.4,50.2 M167.2,41.7c0.5,0,0.9-0.4,0.9-0.8
		c0-0.5-0.4-0.9-0.9-0.9c-0.5,0-0.9,0.4-0.9,0.9C166.3,41.3,166.7,41.7,167.2,41.7 M167.9,50.1v-6.4c0-1-0.1-1.1-0.7-1.1h-0.8v7.6
		H167.9z M160,43.6h0.9v4.7c0,1.4,0.8,2,2,2c0.5,0,0.9-0.1,1.2-0.1v-1h-0.7c-0.8,0-1.1-0.2-1.1-1v-4.5h1.7v-1h-1.7v-2h-1.5v2H160
		V43.6z M155.3,49.1c-1.3,0-2.1-0.9-2.1-2.7c0-1.8,0.8-2.8,2.1-2.8c1.3,0,2.1,1,2.1,2.8C157.4,48.2,156.5,49.1,155.3,49.1
		 M155.3,50.2c2,0,3.6-1.4,3.6-3.8c0-2.4-1.6-3.9-3.6-3.9c-2.1,0-3.6,1.5-3.6,3.9C151.6,48.7,153.2,50.2,155.3,50.2 M140,50.1h1.3
		v-8.3h0.1l2.9,8.3h1l2.9-8.3h0v8.3h1.6V40h-2.1l-2.7,7.7h0l-2.7-7.7H140L140,50.1L140,50.1z M128.5,42.5h-0.9v7.6h1.5v-5.7
		c0.6-0.4,1.4-0.8,2.2-0.8c0.7,0,1.1,0.3,1.1,1.2v5.2h1.5v-5.6c0-1.7-0.9-2.1-1.9-2.1c-1.1,0-2.1,0.5-2.9,1.1
		C129,42.7,128.8,42.5,128.5,42.5 M124.3,41.7c0.5,0,0.9-0.4,0.9-0.8c0-0.5-0.4-0.9-0.9-0.9c-0.5,0-0.9,0.4-0.9,0.9
		C123.5,41.3,123.9,41.7,124.3,41.7 M125.1,50.1v-6.4c0-1-0.1-1.1-0.7-1.1h-0.8v7.6H125.1z M114.8,43.4c1,0,1.7,0.6,1.7,2.2h-3.6
		C113.1,44,113.9,43.4,114.8,43.4 M118,46.6c0-0.1,0-0.3,0-0.5c0-2.5-1.2-3.7-3.2-3.7c-2,0-3.5,1.5-3.5,3.9c0,2.4,1.3,3.8,3.6,3.8
		c1.4,0,2.2-0.4,2.8-0.8v-1h-0.5c-0.5,0.4-1.1,0.7-2.1,0.7c-1.4,0-2.2-0.7-2.3-2.5L118,46.6L118,46.6z M109.9,43.7
		c0.1,0,0.3,0,0.3,0v-1.2c-0.1,0-0.2-0.1-0.4-0.1c-0.9,0-1.7,0.5-2.2,1.1c0-0.9-0.2-1-0.5-1h-0.9v7.6h1.5v-5.5
		C108.2,44.1,108.9,43.7,109.9,43.7 M100.1,49c-0.7,0-1.2-0.2-1.2-1.2v-5.3h-1.5v5.6c0,1.5,0.9,2,2.1,2c1,0,2-0.4,2.7-1
		c0,0.7,0.2,0.9,0.5,0.9h0.9v-7.6h-1.5v5.8C101.6,48.7,100.8,49,100.1,49 M91.4,43.6h0.9v4.7c0,1.4,0.8,2,2,2c0.5,0,0.9-0.1,1.2-0.1
		v-1h-0.7c-0.8,0-1.1-0.2-1.1-1v-4.5h1.7v-1h-1.7v-2h-1.5v2h-0.9V43.6z M85.9,49c-0.7,0-1.2-0.2-1.2-1.2v-5.3h-1.5v5.6
		c0,1.5,0.9,2,2.1,2c1,0,2-0.4,2.7-1c0,0.7,0.2,0.9,0.5,0.9h0.9v-7.6h-1.5v5.8C87.4,48.7,86.7,49,85.9,49 M77.4,50.1v-4.4h3.5v-1.2
		h-3.5v-3.4h4.7V40h-6.2v10.1H77.4z M66.9,43.4c1.1,0,1.7,0.6,1.7,2.2H65C65.2,44,65.9,43.4,66.9,43.4 M70.1,46.6c0-0.1,0-0.3,0-0.5
		c0-2.5-1.2-3.7-3.2-3.7c-2,0-3.5,1.5-3.5,3.9c0,2.4,1.3,3.8,3.6,3.8c1.4,0,2.2-0.4,2.8-0.8v-1h-0.5c-0.5,0.4-1.1,0.7-2.1,0.7
		c-1.4,0-2.2-0.7-2.3-2.5L70.1,46.6L70.1,46.6z M56.7,41c0-0.9-0.1-1-0.7-1h-0.8v10.1h1.5v-5.7c0.6-0.4,1.4-0.8,2.2-0.8
		c0.7,0,1.1,0.3,1.1,1.2v5.2h1.5v-5.6c0-1.7-0.9-2.1-1.9-2.1c-1.1,0-2.1,0.5-2.9,1.1L56.7,41L56.7,41z M50.6,50.1v-8.9h2.9V40h-7.4
		v1.2H49v8.9H50.6z"/>
	<path class="st11" d="M136.5,17c0-1.8-0.6-3.3-2.2-3.3s-2.2,1.4-2.2,3.3v12h1.9v1.9h-10.2V29h1.9V12.4h-1.9v-1.9h8v3.1h0.1
		c0.8-1.7,2.5-3.5,5.4-3.5c3,0,4.8,1.8,5.4,4.2c0.2,1,0.3,2.5,0.3,3.3V29h2.4v1.9h-8.9L136.5,17L136.5,17z M95.4,17
		c0-1.8-0.6-3.3-2.2-3.3S91,15.1,91,17v12h1.9v1.9H82.7V29h1.9V12.4h-1.9v-1.9h8v3.1h0.1c0.8-1.7,2.5-3.5,5.4-3.5
		c3,0,4.8,1.8,5.4,4.2c0.2,1,0.3,2.5,0.3,3.3V29h2.4v1.9h-8.9L95.4,17L95.4,17z M154,12.4v15c0,1,0.7,1.3,1.3,1.3
		c0.6,0,1.2-0.2,1.2-0.2v1.9c0,0-1.2,0.8-3.9,0.8c-3.2,0-5-1.6-5-4.8V12.4h-2.1v-1.4c2.4-1.9,5.2-4.1,7.4-6h1.2v5.5h3.1v1.9H154z
		 M27.1,0c0,0,4.9,4.9,7.2,7.4v1.9c-2.1-2.2-6.5-4.1-10.5-4.1c-9.2,0-14.9,6.9-14.9,15.5c0,8.5,5.4,15.4,14.9,15.4
		c4.7,0,8.5-2.2,10.6-4.5v1.8c-2.9,3.9-8.1,6.5-14.6,6.5C8,40,0,31.5,0,20.7C0,9.9,8.9,1.5,19.7,1.5c2.7,0,5.2,0.5,7.4,1.2V0z
		 M120.8,25.5c-0.9,1.1-2.3,1.9-4.5,1.9c-1.9,0-4.7-1-4.8-5.8h10.9c0-0.4,0.1-1.1,0.1-1.5c0-5.7-2.3-10-8.5-10
		c-6.1,0-9.3,4.7-9.3,10.6c0,5.9,3.1,10.5,9.3,10.5c4,0,6.5-1.9,7.9-4.8L120.8,25.5z M111.5,19.6c0-5.4,0.4-7.4,2.2-7.4
		c1.9,0,2.2,2,2.3,7.4H111.5z M21.8,20.7c0-6.2,0.6-9,2.7-9c2.1,0,2.7,2.7,2.7,9c0,6.2-0.6,9-2.7,9C22.3,29.6,21.8,26.9,21.8,20.7
		 M14.2,20.7c0,6.2,3.8,11.1,10.2,11.1c6.5,0,10.2-5,10.2-11.1S30.9,9.6,24.4,9.6C18,9.6,14.2,14.6,14.2,20.7 M49.1,17
		c0-1.8-0.6-3.3-2.2-3.3s-2.2,1.4-2.2,3.3v12h1.9v1.9H36.4V29h1.9V12.4h-1.9v-1.9h8v3.1h0.1c0.8-1.7,2.5-3.5,5.4-3.5
		c3,0,4.8,1.8,5.4,4.2c0.2,1,0.3,2.5,0.3,3.3V29h2.4v1.9h-8.9V17z M72.1,5.2c0,1.8,1.6,3,3.9,3c2.3,0,3.9-1.2,3.9-3
		c0-1.8-1.6-3-3.9-3C73.7,2.2,72.1,3.4,72.1,5.2 M66.5,12.4v15c0,1,0.7,1.3,1.3,1.3c0.6,0,1.2-0.2,1.2-0.2v1.9c0,0-1.2,0.8-3.9,0.8
		c-3.2,0-5-1.6-5-4.8V12.4h-2.2v-1.4c2.4-1.9,5.2-4.1,7.4-6h1.2v5.5H69v1.9H66.5z M185.3,29h2.5v1.9h-8.9v-26h-2.2V3h8.6V29z
		 M168.1,20.8c-0.2-0.2-0.6-0.4-1.4-0.4c-1.9,0-2.3,1.9-2.3,3.8c0,1.9,0.6,3.5,2.2,3.5c0.8,0,1.3-0.3,1.5-0.6V20.8z M168.4,28.5
		L168.4,28.5c-1.3,1.7-2.9,2.8-5.3,2.8c-3.3,0-5.4-2.8-5.4-6.2c0-4.1,2.9-6.7,7.5-6.7c1.9,0,2.9,0.4,2.9,0.4v-1.3
		c0-2.5-1.5-3.8-3.7-3.8c-3.1,0-4.7,2.4-4.7,2.4l-1.1-1.4c2-3.2,5.2-4.6,8.1-4.6c4.9,0,7.9,2.9,7.9,7.4V29h2.1v1.9h-8.2V28.5z
		 M70.9,30.9V29h1.9V12.4h-1.9v-1.9h8.3V29h1.9v1.9H70.9z"/>
</g>
</svg>
