<?xml version="1.0" encoding="utf-8"?>
<!-- Generator: Adobe Illustrator 23.0.3, SVG Export Plug-In . SVG Version: 6.00 Build 0)  -->
<svg version="1.1" id="Layer_1" xmlns="http://www.w3.org/2000/svg" xmlns:xlink="http://www.w3.org/1999/xlink" x="0px" y="0px"
	 viewBox="0 0 85 16" style="enable-background:new 0 0 85 16;" xml:space="preserve">
<style type="text/css">
	.st0{clip-path:url(#SVGID_2_);fill:#231F20;}
	.st1{clip-path:url(#SVGID_2_);fill:none;stroke:#FFFFFF;stroke-miterlimit:10;}
	.st2{clip-path:url(#SVGID_2_);}
	.st3{clip-path:url(#SVGID_4_);fill:none;stroke:#FFFFFF;stroke-miterlimit:10;}
	.st4{clip-path:url(#SVGID_6_);fill:none;stroke:#FFFFFF;stroke-miterlimit:10;}
	.st5{clip-path:url(#SVGID_6_);fill:#FEEDE8;}
	.st6{clip-path:url(#SVGID_6_);fill:#0D0D0D;}
	.st7{clip-path:url(#SVGID_8_);}
	.st8{fill:#231F20;}
	.st9{fill:#0D0D0D;}
	.st10{fill:none;stroke:#FEEDE8;stroke-width:1.099;stroke-miterlimit:10;}
	.st11{fill:#FFFFFF;}
	.st12{fill:none;stroke:#FFFFFF;stroke-width:0.193;stroke-miterlimit:10;}
	.st13{clip-path:url(#SVGID_14_);}
	.st14{fill-rule:evenodd;clip-rule:evenodd;fill:#FFFFFF;}
</style>
<g>
	<path class="st11" d="M80.4,13.7c0-1.2,1-2.2,2.2-2.2c1.2,0,2.2,1,2.2,2.2c0,1.2-1,2.2-2.2,2.2C81.4,16,80.4,14.9,80.4,13.7"/>
	<path class="st11" d="M13,7.6c0,2.6-0.7,4.6-2.1,6C9.5,15,7.5,15.7,5,15.7H0.1V0.2h5.3c2.4,0,4.3,0.6,5.6,1.9
		C12.3,3.4,13,5.2,13,7.6 M8.7,7.8c0-1.4-0.3-2.5-0.8-3.2c-0.6-0.7-1.4-1-2.5-1H4.2v8.7h0.9c1.2,0,2.2-0.4,2.7-1.1
		C8.4,10.4,8.7,9.3,8.7,7.8"/>
	<rect x="26.6" y="0.1" class="st11" width="3.9" height="15.6"/>
	<path class="st11" d="M43.3,9.9c0,1.9-0.5,3.4-1.5,4.4c-1,1.1-2.4,1.6-4.2,1.6c-1.7,0-3.1-0.5-4.1-1.6c-1-1.1-1.5-2.5-1.5-4.4
		c0-1.9,0.5-3.4,1.5-4.4c1-1,2.4-1.6,4.2-1.6c1.1,0,2.1,0.2,2.9,0.7c0.9,0.5,1.5,1.2,2,2.1C43.1,7.6,43.3,8.7,43.3,9.9 M36,9.9
		c0,1,0.1,1.8,0.4,2.3c0.3,0.5,0.7,0.8,1.3,0.8c0.6,0,1-0.3,1.3-0.8c0.3-0.5,0.4-1.3,0.4-2.3c0-1-0.1-1.7-0.4-2.2
		c-0.3-0.5-0.7-0.8-1.3-0.8c-0.6,0-1,0.3-1.3,0.8C36.1,8.1,36,8.9,36,9.9"/>
	<rect x="44.9" y="4.1" class="st11" width="3.9" height="11.6"/>
	<rect x="44.9" y="0.1" class="st11" width="3.9" height="2.6"/>
	<path class="st11" d="M56.7,12.7c0.5,0,1.2-0.1,1.9-0.4v2.9c-0.5,0.2-1,0.4-1.5,0.5c-0.5,0.1-1,0.1-1.7,0.1c-1.3,0-2.3-0.3-2.8-1
		c-0.6-0.7-0.9-1.7-0.9-3V7.1h-1.4v-3h1.4v-3l3.9-0.7v3.6h2.5v3h-2.5v4.5C55.6,12.4,56,12.7,56.7,12.7"/>
	<path class="st11" d="M65.7,12.7c0.5,0,1.2-0.1,1.9-0.4v2.9c-0.5,0.2-1,0.4-1.5,0.5c-0.5,0.1-1,0.1-1.7,0.1c-1.3,0-2.3-0.3-2.8-1
		c-0.6-0.7-0.9-1.7-0.9-3V7.1h-1.4v-3h1.4v-3l3.9-0.6v3.6h2.5v3h-2.5v4.5C64.7,12.4,65,12.7,65.7,12.7"/>
	<path class="st11" d="M78.1,5.3c-0.9-0.9-2.2-1.4-4-1.4c-1.8,0-3.2,0.5-4.1,1.6c-1,1-1.4,2.5-1.4,4.5c0,1.9,0.5,3.4,1.6,4.4
		c1,1,2.5,1.5,4.4,1.5c0.9,0,1.7-0.1,2.3-0.2c0.6-0.1,1.3-0.3,1.9-0.7l-0.6-2.6c-0.4,0.2-0.9,0.3-1.3,0.4c-0.6,0.1-1.2,0.2-1.9,0.2
		c-0.8,0-1.3-0.2-1.8-0.6c-0.4-0.4-0.7-0.9-0.7-1.5h7V9.2C79.4,7.5,79,6.2,78.1,5.3 M72.5,8.5c0.1-0.6,0.2-1.1,0.5-1.4
		c0.3-0.3,0.7-0.4,1.2-0.4c0.5,0,0.9,0.2,1.2,0.5c0.3,0.3,0.5,0.8,0.5,1.3H72.5z"/>
	<path class="st11" d="M23.7,5.3c-0.9-0.9-2.2-1.4-4-1.4c-1.8,0-3.2,0.5-4.1,1.6c-1,1-1.4,2.5-1.4,4.5c0,1.9,0.5,3.4,1.6,4.4
		c1,1,2.5,1.5,4.4,1.5c0.9,0,1.7-0.1,2.3-0.2c0.6-0.1,1.3-0.3,1.9-0.7l-0.6-2.6c-0.4,0.2-0.9,0.3-1.3,0.4c-0.6,0.1-1.2,0.2-1.9,0.2
		c-0.8,0-1.3-0.2-1.8-0.6c-0.4-0.4-0.7-0.9-0.7-1.5h7V9.2C25.1,7.5,24.6,6.2,23.7,5.3 M18.2,8.5c0.1-0.6,0.2-1.1,0.5-1.4
		c0.3-0.3,0.7-0.4,1.2-0.4c0.5,0,0.9,0.2,1.2,0.5c0.3,0.3,0.5,0.8,0.5,1.3H18.2z"/>
	<path class="st12" d="M80.4,13.7c0-1.2,1-2.2,2.2-2.2c1.2,0,2.2,1,2.2,2.2c0,1.2-1,2.2-2.2,2.2C81.4,16,80.4,14.9,80.4,13.7"/>
	<path class="st12" d="M13,7.6c0,2.6-0.7,4.6-2.1,6C9.5,15,7.5,15.7,5,15.7H0.1V0.2h5.3c2.4,0,4.3,0.6,5.6,1.9
		C12.3,3.4,13,5.2,13,7.6 M8.7,7.8c0-1.4-0.3-2.5-0.8-3.2c-0.6-0.7-1.4-1-2.5-1H4.2v8.7h0.9c1.2,0,2.2-0.4,2.7-1.1
		C8.4,10.4,8.7,9.3,8.7,7.8"/>
	<rect x="26.6" y="0.1" class="st12" width="3.9" height="15.6"/>
	<path class="st12" d="M43.3,9.9c0,1.9-0.5,3.4-1.5,4.4c-1,1.1-2.4,1.6-4.2,1.6c-1.7,0-3.1-0.5-4.1-1.6c-1-1.1-1.5-2.5-1.5-4.4
		c0-1.9,0.5-3.4,1.5-4.4c1-1,2.4-1.6,4.2-1.6c1.1,0,2.1,0.2,2.9,0.7c0.9,0.5,1.5,1.2,2,2.1C43.1,7.6,43.3,8.7,43.3,9.9 M36,9.9
		c0,1,0.1,1.8,0.4,2.3c0.3,0.5,0.7,0.8,1.3,0.8c0.6,0,1-0.3,1.3-0.8c0.3-0.5,0.4-1.3,0.4-2.3c0-1-0.1-1.7-0.4-2.2
		c-0.3-0.5-0.7-0.8-1.3-0.8c-0.6,0-1,0.3-1.3,0.8C36.1,8.1,36,8.9,36,9.9"/>
	<rect x="44.9" y="4.1" class="st12" width="3.9" height="11.6"/>
	<rect x="44.9" y="0.1" class="st12" width="3.9" height="2.6"/>
	<path class="st12" d="M56.7,12.7c0.5,0,1.2-0.1,1.9-0.4v2.9c-0.5,0.2-1,0.4-1.5,0.5c-0.5,0.1-1,0.1-1.7,0.1c-1.3,0-2.3-0.3-2.8-1
		c-0.6-0.7-0.9-1.7-0.9-3V7.1h-1.4v-3h1.4v-3l3.9-0.7v3.6h2.5v3h-2.5v4.5C55.6,12.4,56,12.7,56.7,12.7"/>
	<path class="st12" d="M65.7,12.7c0.5,0,1.2-0.1,1.9-0.4v2.9c-0.5,0.2-1,0.4-1.5,0.5c-0.5,0.1-1,0.1-1.7,0.1c-1.3,0-2.3-0.3-2.8-1
		c-0.6-0.7-0.9-1.7-0.9-3V7.1h-1.4v-3h1.4v-3l3.9-0.6v3.6h2.5v3h-2.5v4.5C64.7,12.4,65,12.7,65.7,12.7"/>
	<path class="st12" d="M78.1,5.3c-0.9-0.9-2.2-1.4-4-1.4c-1.8,0-3.2,0.5-4.1,1.6c-1,1-1.4,2.5-1.4,4.5c0,1.9,0.5,3.4,1.6,4.4
		c1,1,2.5,1.5,4.4,1.5c0.9,0,1.7-0.1,2.3-0.2c0.6-0.1,1.3-0.3,1.9-0.7l-0.6-2.6c-0.4,0.2-0.9,0.3-1.3,0.4c-0.6,0.1-1.2,0.2-1.9,0.2
		c-0.8,0-1.3-0.2-1.8-0.6c-0.4-0.4-0.7-0.9-0.7-1.5h7V9.2C79.4,7.5,79,6.2,78.1,5.3 M72.5,8.5c0.1-0.6,0.2-1.1,0.5-1.4
		c0.3-0.3,0.7-0.4,1.2-0.4c0.5,0,0.9,0.2,1.2,0.5c0.3,0.3,0.5,0.8,0.5,1.3H72.5z"/>
	<path class="st12" d="M23.7,5.3c-0.9-0.9-2.2-1.4-4-1.4c-1.8,0-3.2,0.5-4.1,1.6c-1,1-1.4,2.5-1.4,4.5c0,1.9,0.5,3.4,1.6,4.4
		c1,1,2.5,1.5,4.4,1.5c0.9,0,1.7-0.1,2.3-0.2c0.6-0.1,1.3-0.3,1.9-0.7l-0.6-2.6c-0.4,0.2-0.9,0.3-1.3,0.4c-0.6,0.1-1.2,0.2-1.9,0.2
		c-0.8,0-1.3-0.2-1.8-0.6c-0.4-0.4-0.7-0.9-0.7-1.5h7V9.2C25.1,7.5,24.6,6.2,23.7,5.3 M18.2,8.5c0.1-0.6,0.2-1.1,0.5-1.4
		c0.3-0.3,0.7-0.4,1.2-0.4c0.5,0,0.9,0.2,1.2,0.5c0.3,0.3,0.5,0.8,0.5,1.3H18.2z"/>
</g>
</svg>
