<?xml version="1.0" encoding="utf-8"?>
<!-- Generator: Adobe Illustrator 24.2.3, SVG Export Plug-In . SVG Version: 6.00 Build 0)  -->
<svg version="1.1" id="Layer_1" xmlns="http://www.w3.org/2000/svg" xmlns:xlink="http://www.w3.org/1999/xlink" x="0px" y="0px"
	 viewBox="0 0 76.76 15.47" style="enable-background:new 0 0 76.76 15.47;" xml:space="preserve">
<style type="text/css">
	.st0{fill:#FFFFFF;}
</style>
<g>
	<g>
		<path class="st0" d="M72.18,12.8c0-1.11,0.9-2,2-2c1.11,0,2,0.9,2,2c0,1.11-0.9,2-2,2C73.08,14.8,72.18,13.91,72.18,12.8"/>
	</g>
	<g>
		<path class="st0" d="M12.06,7.36c0,2.31-0.62,4.09-1.87,5.35c-1.24,1.25-2.99,1.88-5.24,1.88H0.57V0.72h4.68
			c2.17,0,3.85,0.57,5.03,1.71C11.47,3.57,12.06,5.21,12.06,7.36 M8.26,7.49c0-1.27-0.25-2.21-0.74-2.82
			C7.04,4.06,6.29,3.75,5.29,3.75H4.23v7.76h0.81c1.11,0,1.93-0.33,2.44-0.99C8,9.86,8.26,8.85,8.26,7.49"/>
	</g>
	<g>
		<rect x="24.18" y="0.67" class="st0" width="3.48" height="13.92"/>
	</g>
	<g>
		<path class="st0" d="M39.1,9.39c0,1.69-0.44,3.01-1.33,3.95c-0.89,0.95-2.13,1.42-3.73,1.42c-1.53,0-2.75-0.48-3.66-1.45
			c-0.91-0.97-1.36-2.27-1.36-3.92c0-1.69,0.44-2.99,1.33-3.93c0.89-0.93,2.13-1.4,3.74-1.4c0.99,0,1.87,0.22,2.63,0.65
			c0.76,0.43,1.35,1.05,1.76,1.86C38.89,7.37,39.1,8.32,39.1,9.39 M32.56,9.39c0,0.89,0.12,1.56,0.35,2.03
			c0.23,0.47,0.62,0.7,1.17,0.7c0.54,0,0.92-0.23,1.15-0.7c0.22-0.46,0.33-1.14,0.33-2.03c0-0.88-0.11-1.55-0.34-2
			c-0.23-0.45-0.61-0.68-1.16-0.68c-0.53,0-0.92,0.22-1.15,0.67C32.68,7.84,32.56,8.5,32.56,9.39"/>
	</g>
	<g>
		<rect x="40.48" y="4.25" class="st0" width="3.48" height="10.34"/>
	</g>
	<g>
		<rect x="40.48" y="0.67" class="st0" width="3.48" height="2.33"/>
	</g>
	<g>
		<path class="st0" d="M51.03,11.95c0.47,0,1.03-0.12,1.68-0.36v2.6c-0.47,0.21-0.92,0.35-1.34,0.44c-0.42,0.09-0.92,0.13-1.49,0.13
			c-1.17,0-2.01-0.29-2.53-0.88c-0.52-0.59-0.77-1.49-0.77-2.7V6.92h-1.22V4.25h1.22V1.61L50.08,1v3.25h2.22v2.67h-2.22v4.02
			C50.08,11.61,50.4,11.95,51.03,11.95"/>
	</g>
	<g>
		<path class="st0" d="M59.09,11.95c0.47,0,1.03-0.12,1.68-0.36v2.6c-0.47,0.21-0.92,0.35-1.34,0.44c-0.43,0.09-0.92,0.13-1.49,0.13
			c-1.17,0-2.01-0.29-2.53-0.88c-0.52-0.59-0.78-1.49-0.78-2.7V6.92h-1.22V4.25h1.22V1.57L58.15,1v3.25h2.22v2.67h-2.22v4.02
			C58.15,11.61,58.46,11.95,59.09,11.95"/>
	</g>
	<g>
		<path class="st0" d="M70.08,5.28c-0.83-0.81-2-1.22-3.52-1.22c-1.6,0-2.83,0.47-3.69,1.4c-0.86,0.93-1.29,2.27-1.29,4.02
			c0,1.69,0.47,2.99,1.39,3.91c0.93,0.92,2.24,1.37,3.92,1.37c0.81,0,1.5-0.06,2.08-0.16c0.58-0.11,1.14-0.3,1.68-0.59l-0.54-2.33
			c-0.4,0.16-0.77,0.29-1.13,0.37c-0.51,0.12-1.08,0.18-1.69,0.18c-0.67,0-1.2-0.16-1.59-0.49c-0.39-0.33-0.6-0.78-0.62-1.36h6.23
			V8.79C71.33,7.26,70.91,6.09,70.08,5.28 M65.17,8.13c0.05-0.57,0.21-0.98,0.49-1.25c0.28-0.26,0.62-0.4,1.03-0.4
			c0.45,0,0.8,0.15,1.06,0.45c0.27,0.3,0.4,0.7,0.41,1.19H65.17z"/>
	</g>
	<g>
		<path class="st0" d="M21.59,5.28c-0.83-0.81-2-1.22-3.52-1.22c-1.6,0-2.83,0.47-3.69,1.4c-0.86,0.93-1.29,2.27-1.29,4.02
			c0,1.69,0.46,2.99,1.39,3.91c0.93,0.92,2.23,1.37,3.92,1.37c0.81,0,1.5-0.06,2.08-0.16c0.58-0.11,1.14-0.3,1.68-0.59l-0.54-2.33
			c-0.4,0.16-0.77,0.29-1.13,0.37c-0.51,0.12-1.08,0.18-1.69,0.18c-0.67,0-1.2-0.16-1.59-0.49c-0.39-0.33-0.6-0.78-0.62-1.36h6.23
			V8.79C22.84,7.26,22.42,6.09,21.59,5.28 M16.68,8.13c0.05-0.57,0.21-0.98,0.49-1.25c0.28-0.26,0.62-0.4,1.03-0.4
			c0.45,0,0.8,0.15,1.06,0.45c0.26,0.3,0.4,0.7,0.41,1.19H16.68z"/>
	</g>
</g>
</svg>
