<?xml version="1.0" encoding="utf-8"?>
<!-- Generator: Adobe Illustrator 23.1.0, SVG Export Plug-In . SVG Version: 6.00 Build 0)  -->
<svg version="1.1" id="Layer_1" xmlns="http://www.w3.org/2000/svg" xmlns:xlink="http://www.w3.org/1999/xlink" x="0px" y="0px"
	 viewBox="0 0 300 86" style="enable-background:new 0 0 300 86;" xml:space="preserve">
<style type="text/css">
	.st0{fill:#FFFFFF;}
	.st1{fill-rule:evenodd;clip-rule:evenodd;fill:#FFFFFF;}
</style>
<path class="st0" d="M1,43.8C1,19.9,20.3,0.6,44.2,0.6c23.9,0,43.2,19.3,43.2,43.2c0,19.9-13.4,36.6-31.7,41.7l0-8
	c0.9-21.5-17.3-29.9-17.3-29.9C46.7,25,68.2,27.2,68.2,27.2s-0.2-0.5-3.5-2c-3.3-1.5-10.5,0.7-19.3,0.7s-10.5-2.2-16-2
	C9.9,24.6,3.6,46.9,1.3,49C1.1,47.3,1,45.5,1,43.8z"/>
<path class="st1" d="M298.5,53.5l-8-10.5l8-10.5c0.6-0.9,0.7-1.8,0.3-2.6c-0.4-0.8-1.1-1.3-1.9-1.5c-0.9-0.2-1.7,0.1-2.4,1l-7.1,9.4
	l-7.2-9.4c-0.7-0.8-1.5-1.2-2.4-1c-0.9,0.2-1.5,0.7-1.9,1.5c-0.4,0.8-0.3,1.6,0.3,2.6l8,10.5l-8,10.5c-0.6,0.9-0.7,1.8-0.3,2.6
	s1.1,1.3,1.9,1.5c0.9,0.2,1.7-0.1,2.4-1l7.2-9.4l7.1,9.4c0.7,0.8,1.5,1.2,2.4,1c0.9-0.2,1.5-0.7,1.9-1.5
	C299.2,55.3,299.1,54.4,298.5,53.5z M271.5,49.8v-21h-5.1v21c-0.8,0.8-1.7,1.5-2.9,2s-2.6,0.8-4.3,0.8c-1.6,0-3.1-0.3-4.3-0.8
	s-2.2-1.2-3-2v-21h-5v21c0.1,1.9,0.8,3.4,2.1,4.5c1.4,1.1,3,2,4.8,2.5c1.9,0.5,3.6,0.8,5.3,0.8c1.6,0,3.4-0.2,5.3-0.8
	c1.9-0.5,3.5-1.3,4.8-2.5C270.7,53.2,271.4,51.7,271.5,49.8z M243,54.6c0-0.7-0.3-1.3-0.7-1.8c-0.5-0.5-1.1-0.7-1.8-0.7
	c-1.6,0-3.1-0.3-4.3-0.8s-2.2-1.2-3-2V33.9h9.8v-5h-9.8v-8.5c0-0.7-0.2-1.3-0.7-1.8c-0.5-0.5-1.1-0.7-1.8-0.7
	c-0.7,0-1.3,0.3-1.8,0.7c-0.5,0.5-0.7,1.1-0.7,1.8v8.5h-0.8c-0.7,0-1.3,0.3-1.8,0.7c-0.5,0.5-0.7,1.1-0.7,1.8c0,0.7,0.3,1.3,0.7,1.8
	c0.5,0.5,1.1,0.7,1.8,0.7h0.8v15.5c0.1,1.9,0.8,3.4,2.1,4.5c1.4,1.1,3,2,4.8,2.5c1.9,0.5,3.6,0.8,5.3,0.8c0.7,0,1.3-0.3,1.8-0.7
	C242.8,55.9,243,55.3,243,54.6z M216,49.8c-0.8,0.8-1.7,1.5-2.9,2s-2.6,0.8-4.3,0.8c-1.6,0-3.1-0.3-4.3-0.8s-2.2-1.2-3-2V36.2
	c0.8-0.8,1.8-1.5,3-2c1.2-0.5,2.6-0.7,4.3-0.8c1.6,0,3.1,0.3,4.3,0.8c1.2,0.5,2.2,1.2,2.9,2V49.8z M221.1,49.8V36.2
	c-0.1-1.9-0.8-3.4-2.1-4.5c-1.4-1.1-3-2-4.8-2.5c-1.9-0.5-3.6-0.8-5.3-0.8c-1.6,0-3.4,0.2-5.3,0.8c-1.9,0.5-3.5,1.3-4.8,2.5
	c-1.4,1.1-2.1,2.6-2.1,4.5v13.6c0.1,1.9,0.8,3.4,2.1,4.5c1.4,1.1,3,2,4.8,2.5c1.9,0.5,3.6,0.8,5.3,0.8c1.6,0,3.4-0.2,5.3-0.8
	c1.9-0.5,3.5-1.3,4.8-2.5C220.3,53.2,221,51.7,221.1,49.8z M194.8,32.6c0.4-1.3,0.1-2.2-0.9-2.8c-1-0.6-2.1-1-3.5-1.1
	c-1.4-0.2-2.4-0.2-3.2-0.2c-1.7,0-3.4,0.2-5.3,0.6c-1.9,0.4-3.5,1.2-4.8,2.2c-1.3,1-2,2.4-2.1,4.2v21.7h5V35.6
	c0.9-0.6,1.9-1.1,3.1-1.5s2.5-0.6,4.1-0.6c0.9,0,1.6,0.1,2.4,0.2c0.7,0.1,1.4,0.3,2.1,0.5c0.7,0.2,1.3,0.2,1.9-0.1
	C194.2,33.8,194.6,33.3,194.8,32.6z M169.4,49.8v-21h-5.1v21c-0.8,0.8-1.7,1.5-2.9,2s-2.6,0.8-4.3,0.8c-1.6,0-3.1-0.3-4.3-0.8
	s-2.2-1.2-2.9-2v-21h-5v21c0.1,1.9,0.8,3.4,2.1,4.5c1.4,1.1,3,2,4.8,2.5c1.9,0.5,3.6,0.8,5.3,0.8c1.6,0,3.4-0.2,5.3-0.8
	c1.9-0.5,3.5-1.3,4.8-2.5C168.6,53.2,169.4,51.7,169.4,49.8z M135.1,36.2v4.3h-14.4v-4.3c0.8-0.8,1.8-1.5,2.9-2
	c1.2-0.5,2.6-0.7,4.3-0.8c1.6,0,3.1,0.3,4.3,0.8C133.3,34.7,134.3,35.3,135.1,36.2z M140.1,45.5v-9.3c-0.1-1.9-0.8-3.4-2.1-4.5
	c-1.4-1.1-3-2-4.8-2.5c-1.9-0.5-3.6-0.8-5.3-0.8c-1.7,0-3.4,0.2-5.3,0.8c-1.9,0.5-3.5,1.3-4.8,2.5c-1.3,1.1-2.1,2.6-2.1,4.5v13.6
	c0.1,1.9,0.8,3.4,2.1,4.5c1.3,1.1,3,2,4.8,2.5c1.9,0.5,3.6,0.8,5.3,0.8c1.9,0,3.6-0.1,5.1-0.4s2.9-0.6,4.3-1.2c1-0.4,1.6-1.1,1.7-2
	c0.1-0.9-0.2-1.6-0.8-2.3c-0.6-0.6-1.4-0.8-2.5-0.5c-0.8,0.3-1.8,0.6-3,0.8c-1.2,0.3-2.8,0.4-4.8,0.5c-1.7,0-3.1-0.3-4.3-0.8
	s-2.2-1.2-2.9-2v-4.3L140.1,45.5L140.1,45.5z"/>
</svg>
