<?xml version="1.0" encoding="utf-8"?>
<!-- Generator: Adobe Illustrator 23.0.3, SVG Export Plug-In . SVG Version: 6.00 Build 0)  -->
<svg version="1.1" id="Layer_1" xmlns="http://www.w3.org/2000/svg" xmlns:xlink="http://www.w3.org/1999/xlink" x="0px" y="0px"
	 viewBox="0 0 226.2 64.4" style="enable-background:new 0 0 226.2 64.4;" xml:space="preserve">
<style type="text/css">
	.st0{fill:#FFFFFF;}
	.st1{fill-rule:evenodd;clip-rule:evenodd;fill:#FFFFFF;}
</style>
<g>
	<path class="st0" d="M0,32.8C0,14.7,14.7,0,32.8,0c18.1,0,32.8,14.7,32.8,32.8c0,15.1-10.2,27.8-24.1,31.6l0-6.1
		C42.1,42,28.3,35.6,28.3,35.6C34.7,18.5,51,20.2,51,20.2s-0.1-0.4-2.7-1.5c-2.5-1.1-8,0.6-14.6,0.6s-8-1.7-12.1-1.5
		C6.8,18.2,1.9,35.2,0.2,36.8C0.1,35.5,0,34.1,0,32.8z"/>
	<path class="st1" d="M225.8,40.1l-6.1-8l6.1-8c0.5-0.7,0.5-1.4,0.2-1.9c-0.3-0.6-0.8-1-1.5-1.1c-0.7-0.1-1.3,0.1-1.8,0.7l-5.4,7.1
		l-5.4-7.1c-0.5-0.6-1.2-0.9-1.8-0.7c-0.7,0.1-1.1,0.5-1.5,1.1c-0.3,0.6-0.2,1.2,0.3,1.9l6,8l-6.1,8c-0.5,0.7-0.5,1.4-0.2,1.9
		c0.3,0.6,0.8,1,1.5,1.1c0.7,0.1,1.3-0.1,1.8-0.7l5.4-7.1l5.4,7.1c0.5,0.6,1.2,0.9,1.8,0.7c0.7-0.1,1.2-0.5,1.5-1.1
		C226.3,41.5,226.2,40.9,225.8,40.1z M205.3,37.4V21.5h-3.8v15.9c-0.6,0.6-1.3,1.1-2.2,1.5c-0.9,0.4-2,0.6-3.2,0.6
		c-1.3,0-2.3-0.2-3.2-0.6c-0.9-0.4-1.7-0.9-2.2-1.5V21.5h-3.8v15.9c0,1.4,0.6,2.6,1.6,3.4c1,0.9,2.2,1.5,3.7,1.9
		c1.4,0.4,2.8,0.6,4,0.6c1.2,0,2.6-0.2,4-0.6c1.4-0.4,2.6-1,3.7-1.9C204.7,39.9,205.3,38.8,205.3,37.4z M183.7,41
		c0-0.5-0.2-1-0.6-1.3c-0.4-0.3-0.8-0.5-1.4-0.5c-1.3,0-2.3-0.2-3.2-0.6c-0.9-0.4-1.7-0.9-2.2-1.5V25.3h7.4v-3.8h-7.4V15
		c0-0.5-0.2-1-0.5-1.4c-0.4-0.4-0.8-0.5-1.3-0.6c-0.6,0-1,0.2-1.4,0.6c-0.4,0.4-0.5,0.8-0.5,1.4v6.4h-0.6c-0.5,0-1,0.2-1.4,0.6
		c-0.4,0.4-0.5,0.8-0.6,1.4c0,0.5,0.2,1,0.6,1.3c0.4,0.3,0.8,0.5,1.4,0.5h0.6V37c0,1.4,0.6,2.6,1.6,3.4c1,0.9,2.2,1.5,3.7,1.9
		c1.4,0.4,2.8,0.6,4,0.6c0.5,0,1-0.2,1.4-0.5S183.7,41.6,183.7,41z M163.2,37.4c-0.6,0.6-1.3,1.1-2.2,1.5c-0.9,0.4-2,0.6-3.2,0.6
		c-1.3,0-2.3-0.2-3.2-0.6c-0.9-0.4-1.7-0.9-2.2-1.5V27c0.6-0.6,1.3-1.1,2.2-1.5c0.9-0.4,2-0.6,3.2-0.6c1.3,0,2.3,0.2,3.2,0.6
		c0.9,0.4,1.6,0.9,2.2,1.5V37.4z M167,37.4V27c0-1.4-0.6-2.6-1.6-3.4c-1-0.9-2.2-1.5-3.7-1.9c-1.4-0.4-2.8-0.6-4-0.6
		c-1.2,0-2.6,0.2-4,0.6c-1.4,0.4-2.6,1-3.7,1.9c-1,0.9-1.6,2-1.6,3.4v10.3c0,1.4,0.6,2.6,1.6,3.4c1,0.9,2.2,1.5,3.7,1.9
		c1.4,0.4,2.8,0.6,4,0.6c1.2,0,2.6-0.2,4-0.6c1.4-0.4,2.6-1,3.7-1.9C166.5,39.9,167,38.8,167,37.4z M147.1,24.3c0.3-1,0-1.7-0.7-2.1
		c-0.7-0.5-1.6-0.7-2.7-0.9c-1-0.1-1.8-0.2-2.4-0.2c-1.3,0-2.6,0.1-4,0.5c-1.4,0.3-2.6,0.9-3.7,1.7c-1,0.8-1.5,1.8-1.6,3.2v16.4h3.8
		V26.6c0.7-0.5,1.5-0.8,2.3-1.1c0.9-0.3,1.9-0.5,3.1-0.5c0.6,0,1.3,0.1,1.8,0.2c0.6,0.1,1.1,0.2,1.6,0.4c0.5,0.2,1,0.1,1.5-0.1
		C146.6,25.2,146.9,24.8,147.1,24.3z M127.8,37.4V21.5H124v15.9c-0.6,0.6-1.3,1.1-2.2,1.5c-0.9,0.4-2,0.6-3.2,0.6
		c-1.3,0-2.3-0.2-3.2-0.6c-0.9-0.4-1.7-0.9-2.2-1.5V21.5h-3.8v15.9c0,1.4,0.6,2.6,1.6,3.4c1,0.9,2.2,1.5,3.7,1.9
		c1.4,0.4,2.8,0.6,4,0.6c1.2,0,2.6-0.2,4-0.6c1.4-0.4,2.6-1,3.7-1.9C127.2,39.9,127.8,38.8,127.8,37.4z M101.7,27v3.3H90.8V27
		c0.6-0.6,1.3-1.1,2.2-1.5c0.9-0.4,2-0.6,3.2-0.6c1.3,0,2.3,0.2,3.2,0.6C100.4,25.9,101.2,26.4,101.7,27z M105.6,34.1V27
		c0-1.4-0.6-2.6-1.6-3.4c-1-0.9-2.2-1.5-3.7-1.9c-1.4-0.4-2.8-0.6-4-0.6c-1.2,0-2.6,0.2-4,0.6c-1.4,0.4-2.6,1-3.7,1.9
		c-1,0.9-1.6,2-1.6,3.4v10.3c0,1.4,0.6,2.6,1.6,3.4c1,0.9,2.2,1.5,3.7,1.9c1.4,0.4,2.8,0.6,4,0.6c1.5,0,2.8-0.1,3.9-0.3
		c1.1-0.2,2.2-0.5,3.2-0.9c0.8-0.3,1.2-0.8,1.3-1.5c0.1-0.7-0.1-1.2-0.6-1.7c-0.5-0.5-1.1-0.6-1.9-0.4c-0.6,0.2-1.3,0.4-2.3,0.6
		c-0.9,0.2-2.1,0.3-3.6,0.3c-1.3,0-2.3-0.2-3.2-0.6c-0.9-0.4-1.7-0.9-2.2-1.5v-3.3H105.6z"/>
</g>
</svg>
