<?xml version="1.0" encoding="utf-8"?>
<!-- Generator: Adobe Illustrator 24.2.3, SVG Export Plug-In . SVG Version: 6.00 Build 0)  -->
<svg version="1.1" id="Layer_1" xmlns="http://www.w3.org/2000/svg" xmlns:xlink="http://www.w3.org/1999/xlink" x="0px" y="0px"
	 viewBox="0 0 72.88 9.65" style="enable-background:new 0 0 72.88 9.65;" xml:space="preserve">
<style type="text/css">
	.st0{fill:#FFFFFF;}
</style>
<g>
	<g>
		<polygon class="st0" points="27.79,0.7 34.98,0.7 34.98,2.3 29.83,2.3 29.83,4 34.55,4 34.55,5.64 29.83,5.64 29.83,8.94 
			27.79,8.94 		"/>
	</g>
	<g>
		<polygon class="st0" points="0.83,0.7 8.02,0.7 8.02,2.3 2.87,2.3 2.87,4 7.59,4 7.59,5.64 2.87,5.64 2.87,8.94 0.83,8.94 		"/>
	</g>
	<g>
		<polygon class="st0" points="36.13,8.94 43.62,8.94 43.62,7.35 38.16,7.35 38.16,5.75 38.16,5.64 42.98,5.64 42.98,4 38.16,4 
			38.16,2.3 43.62,2.3 43.62,0.7 36.13,0.7 		"/>
	</g>
	<g>
		<path class="st0" d="M26.02,6.99c-0.07-0.85-0.06-1.68-1.11-1.93V5.04c1.05-0.45,1.46-1.1,1.46-2.07c0-1.25-0.63-2.32-3.07-2.27
			h-5.26v8.24h2.06v-3h2.23c1.08,0,1.48,0.08,1.62,1.03c0.1,0.66-0.06,1.35,0.22,1.97h2.26C26.05,8.49,26.06,7.51,26.02,6.99z
			 M22.6,4.29h-2.51V2.3h2.51c1.19-0.04,1.57,0.32,1.57,0.99S23.79,4.33,22.6,4.29z"/>
	</g>
	<g>
		<polygon class="st0" points="52.5,0.7 52.5,2.29 49.63,2.29 49.63,8.94 47.59,8.94 47.59,2.29 44.72,2.29 44.72,0.7 		"/>
	</g>
	<g>
		<polygon class="st0" points="69.96,5.64 69.96,8.94 72.05,8.94 72.05,0.7 69.96,0.7 69.96,4 69.84,4 65.74,4 65.74,0.7 63.65,0.7 
			63.65,8.94 65.74,8.94 65.74,5.64 69.84,5.64 		"/>
	</g>
	<g>
		<path class="st0" d="M60.28,3.58C59.99,2.61,59.17,2,57.71,2C55.79,2,55,3.57,55,4.87c0,1.28,0.86,2.72,2.65,2.78
			C59.29,7.7,60,6.82,60.34,5.74h0.03h2.21c-0.49,2.04-1.79,3.45-4.71,3.5c-3.27,0.06-5.02-1.71-5.02-4.37l0-0.07
			c0.06-2.54,1.74-4.41,5.02-4.41c2.34,0,4.14,1.14,4.63,3.18H60.28z"/>
	</g>
	<g>
		<path class="st0" d="M13.36,0.7h-1.93L7.49,8.94h2.26l0.72-1.74h3.83l0.72,1.74h2.26L13.36,0.7z M11.25,5.58l1.14-2.55l1.14,2.55
			H11.25z"/>
	</g>
</g>
</svg>
