<?xml version="1.0" encoding="utf-8"?>
<!-- Generator: Adobe Illustrator 23.0.3, SVG Export Plug-In . SVG Version: 6.00 Build 0)  -->
<svg version="1.1" id="Layer_1" xmlns="http://www.w3.org/2000/svg" xmlns:xlink="http://www.w3.org/1999/xlink" x="0px" y="0px"
	 viewBox="0 0 137.6 17.1" style="enable-background:new 0 0 137.6 17.1;" xml:space="preserve">
<style type="text/css">
	.st0{clip-path:url(#SVGID_2_);fill:#231F20;}
	.st1{clip-path:url(#SVGID_2_);fill:none;stroke:#FFFFFF;stroke-miterlimit:10;}
	.st2{clip-path:url(#SVGID_2_);}
	.st3{clip-path:url(#SVGID_4_);fill:none;stroke:#FFFFFF;stroke-miterlimit:10;}
	.st4{clip-path:url(#SVGID_6_);fill:none;stroke:#FFFFFF;stroke-miterlimit:10;}
	.st5{clip-path:url(#SVGID_6_);fill:#FEEDE8;}
	.st6{clip-path:url(#SVGID_6_);fill:#0D0D0D;}
	.st7{clip-path:url(#SVGID_8_);}
	.st8{fill:#231F20;}
	.st9{fill:#0D0D0D;}
	.st10{fill:none;stroke:#FEEDE8;stroke-width:1.099;stroke-miterlimit:10;}
	.st11{fill:#FFFFFF;}
	.st12{fill:none;stroke:#FFFFFF;stroke-width:0.193;stroke-miterlimit:10;}
	.st13{clip-path:url(#SVGID_14_);}
	.st14{fill-rule:evenodd;clip-rule:evenodd;fill:#FFFFFF;}
</style>
<g>
	<polygon class="st11" points="52.1,0.6 66,0.6 66,3.7 56,3.7 56,7 65.2,7 65.2,10.1 56,10.1 56,16.5 52.1,16.5 	"/>
	<polygon class="st11" points="0,0.6 13.9,0.6 13.9,3.7 3.9,3.7 3.9,7 13.1,7 13.1,10.1 3.9,10.1 3.9,16.5 0,16.5 	"/>
	<polygon class="st11" points="68.2,16.5 82.7,16.5 82.7,13.4 72.1,13.4 72.1,10.4 72.1,10.1 81.4,10.1 81.4,7 72.1,7 72.1,3.7 
		82.7,3.7 82.7,0.6 68.2,0.6 	"/>
	<path class="st11" d="M48.7,12.8c-0.1-1.6-0.1-3.2-2.1-3.7v0c2-0.9,2.8-2.1,2.8-4c0-2.4-1.2-4.5-5.9-4.4H33.3v15.9h4v-5.8h4.3
		c2.1,0,2.9,0.2,3.1,2c0.2,1.3-0.1,2.6,0.4,3.8h4.4C48.7,15.7,48.8,13.8,48.7,12.8 M42.1,7.5h-4.9V3.7h4.9c2.3-0.1,3,0.6,3,1.9
		C45.1,6.9,44.4,7.6,42.1,7.5"/>
	<polygon class="st11" points="99.8,0.6 99.8,3.7 94.3,3.7 94.3,16.5 90.4,16.5 90.4,3.7 84.8,3.7 84.8,0.6 	"/>
	<polygon class="st11" points="133.6,10.1 133.6,16.5 137.6,16.5 137.6,0.6 133.6,0.6 133.6,7 133.3,7 125.4,7 125.4,0.6 121.4,0.6 
		121.4,16.5 125.4,16.5 125.4,10.1 133.3,10.1 	"/>
	<path class="st11" d="M114.9,6.2c-0.6-1.9-2.1-3.1-5-3.1c-3.7,0-5.2,3-5.2,5.5c0,2.5,1.7,5.3,5.1,5.4c3.2,0.1,4.5-1.6,5.2-3.7h0.1
		h4.3c-0.9,3.9-3.5,6.7-9.1,6.8c-6.3,0.1-9.7-3.3-9.7-8.4V8.5c0.1-4.9,3.4-8.5,9.7-8.5c4.5,0,8,2.2,8.9,6.1L114.9,6.2L114.9,6.2z"/>
	<path class="st11" d="M24.2,0.6h-3.7l-7.6,15.9h4.4l1.4-3.4H26l1.4,3.4h4.4L24.2,0.6z M20.1,10l2.2-4.9l2.2,4.9H20.1z"/>
</g>
</svg>
