<?xml version="1.0" encoding="utf-8"?>
<!-- Generator: Adobe Illustrator 23.0.3, SVG Export Plug-In . SVG Version: 6.00 Build 0)  -->
<svg version="1.1" id="Layer_1" xmlns="http://www.w3.org/2000/svg" xmlns:xlink="http://www.w3.org/1999/xlink" x="0px" y="0px"
	 viewBox="0 0 618.4 269.8" style="enable-background:new 0 0 618.4 269.8;" xml:space="preserve">
<style type="text/css">
	.st0{fill-rule:evenodd;clip-rule:evenodd;fill:#FFFFFF;}
</style>
<g>
	<path class="st0" d="M406.9,120.9c0-7.4,2.5-15.1,6.8-19.6c4.4-4.9,11.8-9.3,18.9-11.5c7.8-2.3,17.1-3.7,26.3-3.7
		c8.5,0,18.9,1.8,29.3,5v22.5c-3.6-3.6-9.4-7.4-14.7-9.2c-6-2.1-12.2-3.6-17.7-3.6c-6.2,0-12.4,1.4-16.5,3.6
		c-4.1,2.3-7.9,6.9-8.6,10.4c-1.3,7.2,0.2,13.6,4.8,17.1c4.8,3.5,12.3,8.4,22,12.8l17.1,8c6.1,2.7,12.8,8.3,17.7,12.8
		c5.1,4.9,8,12.1,8,19.5c0,7.9-3.3,15.5-8,21.3c-4.6,6-12.4,11.8-20.7,14.7c-8.4,2.8-18.3,5-28.7,5c-9.8,0-21.4-1.9-33.6-5.6
		l-5.6-25.7c12.2,10.4,26.3,16.6,42.1,16.6c7.4,0,15.6-1.9,21.3-5c6.1-3.2,9.8-9.1,9.8-15.9c0-9.1-7.2-17.1-20.1-23.1l-23.9-11
		c-6.3-2.9-13.6-8.2-18.3-13.4c-5.3-5.9-8-13.4-8-21.3V120.9L406.9,120.9z"/>
	<path class="st0" d="M342.8,202.7v-98.9h-17.1c-10.6,0-20.1,3.1-25.1,8h-1.2l7.4-23.9h0.6c1.8,0.6,5.5,1.2,9.1,1.2h78.2
		c4.9,0,9.1-0.6,10.3-1.2h1.2l-6.7,23.9H399c-1.8-4.9-8.4-8-17.1-8h-18.3v98.9c0,8.2,3.6,15.9,10.3,19.5v0.6h-40.2v-0.6
		c6.1-1.8,9.1-8.5,9.1-18.9V202.7L342.8,202.7z"/>
	<path class="st0" d="M270.2,194.1v-77.5c0-8.5-0.5-15.6-1.2-18.9c-0.7-3.5-4.2-6.7-7.9-7.9v-0.7h39v0.7c-1.8,0.6-3.9,2.1-4.9,3
		c-0.9,0.9-2.4,3.6-2.4,5.5s-0.6,4.2-0.6,6.8c0,2.4-0.6,7.1-0.6,11.5v78.1c0,8.8,0.5,16.3,1.2,19.6c0.7,3.5,3.6,6.7,7.3,7.9v0.6h-39
		v-0.6c3.6-1.2,6.6-4.5,7.3-7.9c0.7-3.5,1.8-11,1.8-19.6V194.1L270.2,194.1z"/>
	<path class="st0" d="M218.9,218.6v-102c0-7.9-0.5-14.4-1.2-17.7c-0.7-3.5-4.2-6.7-8-9.1v-0.7h38.5v0.7c-3.6,1.2-7,4.4-7.4,7.9
		c-0.4,3.4-1.2,10.8-1.2,18.9v105v6.2c0,10.5-3.1,20.9-8.5,28.1c-5.3,7.2-18.3,12.1-37.3,13.9v-0.6c11-6.7,18.6-14.3,20.8-21.3
		c2.2-7.1,4.2-17.1,4.2-28.7V218.6L218.9,218.6z"/>
	<path class="st0" d="M91.3,182v-67.8c0-7.3-0.9-13.5-1.7-15.9c-1.1-2.7-3.2-6.1-6.5-8.5v-0.7h34.3v0.7c-3.3,1.2-6.3,4.4-6.6,7.9
		c-0.4,3.4-1.1,10.2-1.1,16.5V174c0,11.8,2.6,22.4,7.1,28.1c4.5,6.1,11.9,9.2,19.5,9.2c5,0,10.6-0.6,15.3-2.5
		c4.6-2,9.4-6.3,11.9-9.7c3-4.1,4.9-9.8,4.9-15.3v-71.5c0-12.8-2.7-20.7-8.1-22.5v-0.7h34.2v0.7c-4.9,1.8-9.3,9.8-9.3,20.7v70.8
		c0,5.8-4.3,21.6-10,28c-8.7,17.9-28.6,16.6-44.7,16.6c-11.1,0-21.4-5.1-28.3-12.2C95.1,206.6,91.3,195.4,91.3,182L91.3,182z"/>
	<path class="st0" d="M515.4,182v-67.8c0-7.3-0.9-13.5-1.7-15.9c-1.1-2.7-3.2-6.1-6.5-8.5v-0.7h34.3v0.7c-3.3,1.2-6.3,4.4-6.6,7.9
		c-0.4,3.4-1.1,10.2-1.1,16.5V174c0,11.8,2.6,22.4,7.1,28.1c4.5,6.1,11.9,9.2,19.5,9.2c5,0,10.6-0.6,15.3-2.5
		c4.6-2,9.4-6.3,11.9-9.7c3-4.1,4.9-9.8,4.9-15.3v-71.5c0-12.8-2.7-20.7-8.1-22.5v-0.7h34.2v0.7c-4.9,1.8-9.3,9.8-9.3,20.7v70.8
		c0,5.8-4.3,21.6-10,28c-8.7,17.9-28.6,16.6-44.7,16.6c-11.1,0-21.4-5.1-28.3-12.2C519.2,206.6,515.4,195.4,515.4,182L515.4,182z"/>
	<path class="st0" d="M9.2,202.7v-88.5v-3.6c0-11-3-18.3-9.2-20.7v-0.7h64.8c1.2,0,2.4,0.7,3,0.7c3,0,5.5-1.3,6.7-1.9h0.6l-0.6,23.9
		c-2.4-2.4-5.7-5.1-9.1-6.1c-3.4-1.1-9.8-1.9-15.9-1.9c-8.6,0-15.3,0.6-19.6,1.3v37.8h19c6.7,0,11.4-1.2,14-1.2h0.6v21.9H63
		c-1.2-2.4-3.7-4.2-6.2-4.9c-2.4-0.6-7.1-1.3-11.6-1.2l-15.3,0.6v42.8c0,0.2-0.6,2.2-0.6,2.4c0.2,11,4.3,17.7,9.2,18.9v0.6H0v-0.6
		C6.2,220.4,9.2,213.7,9.2,202.7L9.2,202.7z"/>
	<path class="st0" d="M259.8,2c-7.2,2.8-12.9,8.1-16,15.1c0,0-1.6,4.5-1.6,4.5l7.8,2l1.1-3.3c2.2-5,6.3-8.9,11.5-10.9
		c5.3-2,11.1-1.9,16.3,0.4c10.6,4.7,15.5,17.1,10.8,27.7c-4.7,10.5-17.1,15.2-27.8,10.5c-4.6-2.1-8.6-5.9-10.6-10.3l-7.3,3.4
		c2.9,6.2,8.2,11.4,14.7,14.3c14.7,6.5,31.9,0,38.4-14.6c6.5-14.6-0.2-31.7-14.9-38.3C275.2-0.6,267.2-0.8,259.8,2L259.8,2z"/>
	<path class="st0" d="M259.8,2c-7.2,2.8-12.9,8.1-16,15.1c0,0-1.6,4.5-1.6,4.5l7.8,2l1.1-3.3c2.2-5,6.3-8.9,11.5-10.9
		c5.3-2,11.1-1.9,16.3,0.4c10.6,4.7,15.5,17.1,10.8,27.7c-4.7,10.5-17.1,15.2-27.8,10.5c-4.6-2.1-8.6-5.9-10.6-10.3l-7.3,3.4
		c2.9,6.2,8.2,11.4,14.7,14.3c14.7,6.5,31.9,0,38.4-14.6c6.5-14.6-0.2-31.7-14.9-38.3C275.2-0.6,267.2-0.8,259.8,2L259.8,2z"/>
	<path class="st0" d="M208.3,37.9c-2.5,5.7-2.7,12-0.4,17.9c2.3,5.9,6.7,10.6,12.5,13.2c10.5,4.7,23.1,1.1,29.4-8.4l-6.7-4.4
		c-4.1,6.2-12.4,8.6-19.4,5.5c-3.8-1.7-6.8-4.8-8.3-8.8c-1.5-3.9-1.4-8,0.2-11.7c3.5-7.8,12.7-11.3,20.6-7.7c3.8,1.7,7,5,8.4,8.8
		l7.5-2.8c-2.1-5.8-6.9-10.8-12.6-13.4C227.6,20.8,213.6,26.1,208.3,37.9L208.3,37.9z"/>
	<path class="st0" d="M208.3,37.9c-2.5,5.7-2.7,12-0.4,17.9c2.3,5.9,6.7,10.6,12.5,13.2c10.5,4.7,23.1,1.1,29.4-8.4l-6.7-4.4
		c-4.1,6.2-12.4,8.6-19.4,5.5c-3.8-1.7-6.8-4.8-8.3-8.8c-1.5-3.9-1.4-8,0.2-11.7c3.5-7.8,12.7-11.3,20.6-7.7c3.8,1.7,7,5,8.4,8.8
		l7.5-2.8c-2.1-5.8-6.9-10.8-12.6-13.4C227.6,20.8,213.6,26.1,208.3,37.9L208.3,37.9z"/>
</g>
</svg>
