<?xml version="1.0" encoding="UTF-8"?>
<svg id="Camada_1" data-name="Camada 1" xmlns="http://www.w3.org/2000/svg" viewBox="0 0 97.26 49.32">
  <defs>
    <style>
      .cls-1 {
        fill: #fff;
        stroke-width: 0px;
      }
    </style>
  </defs>
  <g>
    <path class="cls-1" d="m25.1,28.02c-.6.1-1.3.1-1.9.2v.2c1.2-.1,2.4-.2,3.7-.4h-1.8Z"/>
    <path class="cls-1" d="m23.2,29.22c1.5-.1,2.9-.3,4.4-.5v-.2c-1.5.2-2.9.4-4.4.5v.2Z"/>
    <path class="cls-1" d="m13.7,28.22c.5.2,1,.4,1.5.5-.5-.2-1-.4-1.5-.5Z"/>
    <path class="cls-1" d="m23.2,30.02c1.5-.1,2.9-.2,4.4-.4v-.2c-1.5.2-2.9.4-4.4.4v.2Z"/>
    <path class="cls-1" d="m17,29.82c-.1-.1-.3-.2-.4-.3-1.6-.3-2.9-.8-4.1-1.6h0c-.2,0-.3,0-.5-.1.1.1.3.2.4.2,1.2.9,2.7,1.4,4.6,1.8Z"/>
    <path class="cls-1" d="m12.6,28.92c1.5.8,3.3,1.3,5.3,1.6-.1-.1-.2-.2-.3-.3-1.8-.3-3.4-.8-4.9-1.5-.5-.2-.9-.5-1.4-.8-.1-.1-.2-.1-.3-.2h-.4c.2.1.4.2.7.4.4.3.8.6,1.3.8Z"/>
    <path class="cls-1" d="m23.2,30.72c1.5-.1,2.9-.2,4.4-.4v-.2c-1.5.2-2.9.3-4.4.4v.2Z"/>
    <path class="cls-1" d="m13,29.72c1.7.7,3.5,1.2,5.5,1.4-.1-.1-.1-.2-.2-.2-1.8-.3-3.5-.7-5.2-1.4-.5-.2-1.1-.4-1.6-.7-.8-.3-1.5-.7-2.3-1-.1,0-.3,0-.4.1.9.3,1.8.7,2.7,1.1.5.3,1,.5,1.5.7Z"/>
    <path class="cls-1" d="m23.2,31.42h.7c1.2,0,2.4-.2,3.7-.3v-.2c-1.5.2-2.9.3-4.4.3,0,0,0,.2,0,.2Z"/>
    <path class="cls-1" d="m11.7,29.92c.6.2,1.2.4,1.8.6,1.7.5,3.5.9,5.5,1.2-.1-.1-.1-.2-.2-.2-1.8-.2-3.6-.6-5.2-1.1-.6-.2-1.2-.4-1.8-.6-1.5-.5-3-1-4.6-1.3h-.1c-.1,0-.3.1-.4.1.1,0,.3.1.4.1,1.6.2,3.1.7,4.6,1.2Z"/>
    <path class="cls-1" d="m23.2,32.02h.1c1.4,0,2.8-.1,4.3-.2v-.3c-1.5.1-2.9.2-4.4.2v.3Z"/>
    <path class="cls-1" d="m53.4,28.02h-1.1c-.9.2-1.7.3-2.6.5h-.2v.2h.2c1.2-.3,2.4-.5,3.7-.7Z"/>
    <path class="cls-1" d="m23.2,32.32v.2h.9c1.1,0,2.3-.1,3.4-.1v-.3c-1.3.2-2.8.2-4.3.2Z"/>
    <path class="cls-1" d="m12.1,30.82c.6.2,1.3.3,2,.5,1.7.4,3.5.7,5.3.9-.1-.1-.1-.2-.2-.2-1.7-.2-3.4-.5-5.1-.9-.7-.2-1.3-.3-2-.5-1.7-.4-3.4-.8-5.1-1.1-.6-.1-1.2-.2-1.8-.2-.1.1-.2.1-.3.2.7.1,1.4.2,2.1.3,1.7.2,3.4.6,5.1,1Z"/>
    <path class="cls-1" d="m23.5,32.82h-.3v.2h1.8c.9,0,1.7,0,2.6-.1v-.2c-1.4.1-2.7.1-4.1.1Z"/>
    <path class="cls-1" d="m53.8,28.62v-.2l-3,.6c-.5.1-.9.2-1.4.3v.2c.5-.1.9-.2,1.4-.3l3-.6Z"/>
    <path class="cls-1" d="m12.4,31.72c.7.1,1.5.2,2.2.4,1.7.3,3.4.5,5.1.6,0-.1-.1-.2-.1-.2-1.6-.2-3.3-.4-4.9-.6-.7-.1-1.5-.2-2.2-.4-1.8-.3-3.8-.6-5.6-.8-1-.1-2.1-.2-3.2-.3l-.2.2c1.1.1,2.2.1,3.4.3,1.8.2,3.7.5,5.5.8Z"/>
    <path class="cls-1" d="m24.7,33.22h-1.5v.2h4.4v-.2c-1,.1-1.9.1-2.9,0Z"/>
    <path class="cls-1" d="m12.9,32.42c.2.1.5.2.7.3.6.1,1.1.1,1.7.2,1.6.2,3.2.3,4.8.4,0-.1-.1-.1-.1-.2-1.5-.1-3-.2-4.6-.4-.9-.1-1.8-.2-2.5-.3Z"/>
    <path class="cls-1" d="m53.8,29.42v-.2c-.6.1-1.2.2-1.8.3-.9.2-1.7.3-2.6.5v.2c.9-.2,1.8-.3,2.6-.5.6-.1,1.2-.2,1.8-.3Z"/>
    <path class="cls-1" d="m9.1,32.32c.2-.1.5-.1.8-.1-1.1-.1-2.2-.2-3.2-.3-1.4-.1-2.8-.1-4.2-.2l-.2.2c1.4,0,2.9.1,4.3.2.8,0,1.7.1,2.5.2Z"/>
    <path class="cls-1" d="m53.8,30.12v-.2c-.2,0-.3.1-.5.1-1.3.2-2.6.5-3.9.7v.2c1.3-.2,2.6-.5,3.9-.7.2,0,.4-.1.5-.1Z"/>
    <path class="cls-1" d="m38.3,32.82c-.9,0-1.8.1-2.6.4.9-.1,1.8-.3,2.7-.4h-.1Z"/>
    <path class="cls-1" d="m14.6,33.42c.1.1.2.1.3.2h.9c1.6.1,3.1.1,4.5.2,0-.1-.1-.1-.1-.2-1.4,0-2.9-.1-4.4-.2h-1.2Z"/>
    <path class="cls-1" d="m6.5,33.32h.6c.1-.1.2-.1.3-.2h-.8c-1.1,0-2.2,0-3.3-.1h-1.7c0,.1-.1.1-.1.2h1.8c1,0,2.1,0,3.2.1Z"/>
    <path class="cls-1" d="m25.9,33.72h-2.7v.2h4.4v-.2h-1.7Z"/>
    <path class="cls-1" d="m19.8,34.22h-4.3q.1.1.2.2h3.5l.6-.2Z"/>
    <path class="cls-1" d="m40.1,33.02c-1.8.3-3.7.5-5.6.7-.2.1-.3.2-.5.3,2.3-.2,4.5-.5,6.6-.9-.2,0-.3,0-.5-.1Z"/>
    <path class="cls-1" d="m53.8,30.62c-1.4.3-2.9.5-4.4.8v.2c1.5-.3,2.9-.5,4.4-.8v-.2Z"/>
    <path class="cls-1" d="m23.2,34.22v.2h4.4v-.2h-4.4Z"/>
    <path class="cls-1" d="m4.1,34.52h1.7q.1-.1.2-.2H.8c0,.1-.1.1-.1.2h3.4Z"/>
    <path class="cls-1" d="m41.5,33.52c-2.5.4-5.2.7-8,.9-.1.1-.2.2-.3.2,3-.2,5.9-.6,8.6-1-.1,0-.2-.1-.3-.1Z"/>
    <path class="cls-1" d="m89.2,28.02h-1.5c.8.1,1.6.2,2.4.4v-.3c-.3,0-.6-.1-.9-.1Z"/>
    <path class="cls-1" d="m16.1,35.22h0l.9-.3h-1c0,.2,0,.3.1.3Z"/>
    <path class="cls-1" d="m23.2,35.02c1.5,0,3-.1,4.4-.1v-.3c-1.4,0-2.8.1-4.4.1v.3Z"/>
    <path class="cls-1" d="m53.8,31.32c-1.4.3-2.9.5-4.4.8v.2c1.5-.3,2.9-.5,4.4-.8v-.2Z"/>
    <path class="cls-1" d="m5.1,35.72c0-.1.1-.1.1-.2h-.2c-1.5.1-3.1.1-4.6.1q0,.1-.1.2c1.6,0,3.1-.1,4.8-.1-.1,0,0,0,0,0Z"/>
    <path class="cls-1" d="m85.8,28.02v.2c1.5.2,2.9.4,4.4.7v-.3c-1.5-.2-2.9-.5-4.4-.6h0Z"/>
    <path class="cls-1" d="m53.8,32.02c-1.5.3-2.9.5-4.4.8v.2c1.5-.3,2.9-.5,4.4-.8v-.2Z"/>
    <path class="cls-1" d="m23.2,35.62c1.5-.1,3-.2,4.4-.2v-.2c-1.4.1-2.8.1-4.4.2v.2Z"/>
    <path class="cls-1" d="m42.5,34.02c-3.5.5-6.6.8-9.6,1-.1.1-.2.2-.2.2,3.2-.2,6.5-.5,10.1-1.1-.2,0-.3-.1-.3-.1Z"/>
    <path class="cls-1" d="m4.7,36.72c-1.5.1-3.1.2-4.6.2v.2c1.5,0,3.1-.1,4.6-.2v-.2Z"/>
    <path class="cls-1" d="m43.5,34.72q-.1-.1-.2-.2c-1.7.2-3.4.5-5.2.7-1.9.2-3.9.3-5.8.3q-.1.1-.2.2c2-.1,4-.1,6-.4,1.8-.1,3.6-.3,5.4-.6Z"/>
    <path class="cls-1" d="m10.8,37.32v.2c1-.1,1.9-.2,2.9-.3h-2c-.3.1-.6.1-.9.1Z"/>
    <path class="cls-1" d="m85.8,28.42v.2h0c1.5.1,2.9.4,4.3.7v-.2c-1.4-.3-2.8-.5-4.3-.7h0Z"/>
    <path class="cls-1" d="m23.2,36.32c1.4-.1,2.9-.2,4.4-.3v-.3c-1.5.1-3,.2-4.4.3v.3Z"/>
    <path class="cls-1" d="m53.8,32.82c-1.5.3-2.9.5-4.4.8v.2c1.5-.2,2.9-.5,4.4-.8v-.2Z"/>
    <path class="cls-1" d="m4.5,37.92c-1.6.1-3.1.2-4.5.3v.2c1.4-.1,2.9-.2,4.5-.3v-.2Z"/>
    <path class="cls-1" d="m53.8,33.52c-1.5.3-2.9.5-4.4.7v.2c1.5-.2,2.9-.5,4.4-.7v-.2Z"/>
    <path class="cls-1" d="m19,37.32c-1.3.2-2.7.3-4,.5-1.4.2-2.8.4-4.2.5v.2c1.4-.2,2.9-.4,4.3-.5,1.3-.2,2.6-.3,4-.5.6-.1,1.3-.2,1.9-.2h-2Z"/>
    <path class="cls-1" d="m4.5,39.12c-1.6.2-3.1.3-4.5.4v.2c1.4-.1,2.9-.2,4.5-.4v-.2Z"/>
    <path class="cls-1" d="m85.8,28.92v.2c.4,0,.8,0,1.2.1,1.1.1,2.1.3,3.2.5v-.2c-1-.2-2.1-.4-3.2-.5-.4,0-.8-.1-1.2-.1Z"/>
    <path class="cls-1" d="m23.2,37.02c1.4-.2,2.9-.3,4.4-.4v-.2c-1.5.1-3,.3-4.4.4v.2Z"/>
    <path class="cls-1" d="m58.2,32.82c-1,0-1.9.2-2.7.6,1.1-.2,2.1-.4,3.1-.6h-.4Z"/>
    <path class="cls-1" d="m33.7,36.22c1.8-.1,3.7-.1,5.5-.3,1.7-.2,3.3-.4,4.9-.6h0q-.1-.1-.2-.2c-1.5.2-3.1.4-4.7.6-1.8.2-3.7.3-5.5.3-.5,0-1.1,0-1.6.1h-.3q-.1.1-.2.2h.4c.6,0,1.1,0,1.7-.1Z"/>
    <path class="cls-1" d="m23.2,37.82c1.4-.2,2.9-.4,4.4-.5v-.2c-1.5.2-2.9.3-4.4.5v.2Z"/>
    <path class="cls-1" d="m53.8,34.22c-1.5.3-2.9.5-4.4.7v.2c1.5-.2,2.9-.5,4.4-.7v-.2Z"/>
    <path class="cls-1" d="m15.4,38.72c-1.5.2-3,.5-4.5.7v.2c1.5-.2,3.1-.4,4.6-.7,1.3-.2,2.7-.4,4-.6.5-.1,1-.1,1.5-.2v-.2c-.5.1-1,.1-1.6.2-1.3.2-2.7.4-4,.6Z"/>
    <path class="cls-1" d="m35.1,36.82c1.7-.1,3.4-.1,5.1-.3,1.5-.2,3-.3,4.5-.6q-.1-.1-.2-.2c-1.4.2-2.9.4-4.3.5-1.7.2-3.4.2-5.1.3-.7,0-1.4.1-2,.1s-1.2.1-1.7.1c0,.1-.1.1-.1.2.6,0,1.3-.1,1.9-.1h1.9Z"/>
    <path class="cls-1" d="m85.8,29.52v.2c.8,0,1.5,0,2.3.1.7.1,1.4.2,2.1.4v-.3c-.7-.1-1.4-.3-2-.3-.8-.1-1.6-.1-2.4-.1Z"/>
    <path class="cls-1" d="m4.7,40.22c-1.6.2-3.1.3-4.5.4v.2c1.4-.1,2.9-.3,4.5-.4v-.2Z"/>
    <path class="cls-1" d="m60.7,33.22c-.2,0-.3-.1-.5-.1-2,.4-4,.7-6,1.1-.1.1-.2.2-.3.3,2.3-.5,4.6-.9,6.8-1.3h0Z"/>
    <path class="cls-1" d="m36.3,37.32h0c.2-.1.4-.2.6-.2h-.6c-.7,0-1.5.1-2.3.1-1,.1-2,.1-3,.2,0,.1-.1.1-.1.2,1-.1,2.1-.2,3.2-.2.6,0,1.4-.1,2.2-.1Z"/>
    <path class="cls-1" d="m85.8,30.12v.2c1.1,0,2.2,0,3.2.1.4.1.8.1,1.2.2v-.2c-.4-.1-.7-.1-1.1-.2-1.1-.1-2.2-.1-3.3-.1Z"/>
    <path class="cls-1" d="m5,41.22c-1.6.2-3.2.4-4.6.5q0,.1.1.2c1.4-.1,3-.3,4.6-.5,0,0-.1-.1-.1-.2Z"/>
    <path class="cls-1" d="m15.7,39.62c-1.6.3-3.2.5-4.8.8v.2c1.6-.3,3.2-.5,4.8-.8,1.4-.2,2.8-.5,4.2-.7.3-.1.7-.1,1.1-.2v-.2c-.4.1-.7.1-1.1.2-1.4.2-2.9.5-4.2.7Z"/>
    <path class="cls-1" d="m23.2,38.62c1.4-.2,2.9-.4,4.4-.6v-.2c-1.5.2-3,.4-4.4.6v.2Z"/>
    <path class="cls-1" d="m61.6,33.82c.1,0,.2,0,.4-.1-.1-.1-.2-.1-.3-.2h-.1c-3.7.7-7.5,1.3-11.3,1.9-.3,0-.6.1-.9.1v.2c.3,0,.6-.1.9-.1,3.8-.5,7.6-1.1,11.3-1.8Z"/>
    <path class="cls-1" d="m39.4,36.92c.2,0,.4.1.5.2.4,0,.8-.1,1.2-.1,1.4-.1,2.7-.3,4-.5,0-.1-.1-.1-.1-.2-1.3.2-2.6.3-3.9.5-.6.1-1.1.1-1.7.1Z"/>
    <path class="cls-1" d="m15.9,40.52c-1,.2-2.1.4-3.2.6h1.3c.6-.1,1.3-.2,1.9-.3,1.4-.3,2.9-.5,4.4-.8.2,0,.4-.1.6-.1v-.2c-.2,0-.5.1-.7.1-1.4.2-2.9.4-4.3.7Z"/>
    <path class="cls-1" d="m35.4,38.02c.1-.1.2-.2.2-.2h-.9c-1.4.1-2.8.2-4.1.3,0,.1-.1.1-.1.2,1.4-.2,2.8-.3,4.2-.4.3.1.5.1.7.1Z"/>
    <path class="cls-1" d="m62.4,34.52c.2,0,.3-.1.5-.1-.1-.1-.2-.1-.2-.2-.1,0-.2,0-.3.1-3.7.6-7.5,1.3-11.3,1.9-.5.1-1.1.2-1.6.3v.2c.6-.1,1.1-.2,1.7-.3,3.7-.6,7.5-1.3,11.2-1.9Z"/>
    <path class="cls-1" d="m40.6,37.52c.1.1.2.1.2.2.3,0,.7-.1,1-.1,1.2-.1,2.5-.3,3.7-.4,0-.1-.1-.1-.1-.2-1.2.2-2.4.3-3.6.4-.3.1-.7.1-1.2.1Z"/>
    <path class="cls-1" d="m5.7,42.42c0-.1-.1-.1-.1-.2-.2,0-.4.1-.6.1-1.5.2-2.9.4-4.1.5,0,.1.1.1.1.2,1.3-.1,2.6-.3,4.1-.5.1,0,.3,0,.6-.1Z"/>
    <path class="cls-1" d="m85.8,30.82v.2c1.3-.1,2.7-.1,4,.1.1,0,.3,0,.4.1v-.3c-.1,0-.2,0-.4-.1-1.3-.1-2.7-.1-4,0Z"/>
    <path class="cls-1" d="m23.2,39.42c1.4-.2,2.9-.5,4.4-.7v-.2c-1.5.2-2.9.4-4.4.7v.2Z"/>
    <path class="cls-1" d="m41.4,38.22q.1.1.2.2c.3,0,.6-.1.9-.1,1.2-.1,2.3-.3,3.5-.4,0-.1-.1-.1-.1-.2-1.1.1-2.3.3-3.4.4-.4.1-.8.1-1.1.1Z"/>
    <path class="cls-1" d="m6.4,43.32l-.2-.2h0c-.5.1-1,.2-1.4.2-1.2.2-2.4.3-3.5.5,0,.1.1.1.1.2,1.1-.1,2.2-.3,3.4-.5.6,0,1.1-.1,1.6-.2Z"/>
    <path class="cls-1" d="m16.5,41.32c0,.1-.1.2-.1.2,1.4-.3,2.9-.5,4.3-.8h.2v-.2c-.1,0-.2,0-.3.1-1.4.2-2.8.4-4.1.7Z"/>
    <path class="cls-1" d="m63,35.22c.2,0,.5-.1.7-.1q-.1-.1-.2-.2c-.2,0-.4.1-.5.1-3.7.6-7.5,1.3-11.3,1.9-.7.1-1.5.2-2.2.3v.2c.8-.1,1.5-.2,2.3-.4,3.7-.5,7.5-1.2,11.2-1.8Z"/>
    <path class="cls-1" d="m35,38.52c-1.5.1-3.1.2-4.6.4q0,.1-.1.2c1.5-.2,3-.3,4.5-.4.1,0,.1-.1.2-.2Z"/>
    <path class="cls-1" d="m76.6,32.92c-.3,0-.7-.1-1.1-.1-.9.1-1.8.3-2.6.4-.3,0-.5.1-.8.1-.3.1-.6.2-.8.4.6-.1,1.1-.2,1.7-.3,1.1-.1,2.3-.3,3.6-.5Z"/>
    <path class="cls-1" d="m85.8,31.62v.2c1.5-.1,2.9-.2,4.4,0v-.2c-1.5-.2-2.9-.2-4.4,0Z"/>
    <path class="cls-1" d="m23.2,40.32c1.5-.3,2.9-.5,4.4-.7v-.2c-1.5.2-2.9.5-4.4.7v.2Z"/>
    <path class="cls-1" d="m78.8,33.42c-.1-.1-.3-.1-.5-.2-1.8.3-3.6.5-5.2.8-1.1.2-2.2.4-3.3.5-.1.1-.2.2-.3.3,1.2-.2,2.4-.4,3.6-.6,1.9-.2,3.8-.5,5.7-.8Z"/>
    <path class="cls-1" d="m55.9,37.22c.6-.3,1.2-.4,1.9-.4h.5c1.7-.3,3.4-.6,5-.9.3-.1.6-.1,1-.2q-.1-.1-.2-.2c-.3,0-.6.1-.8.1-3.7.6-7.5,1.3-11.3,1.9-.8.1-1.7.3-2.6.4v.2c.9-.1,1.8-.3,2.6-.4,1.3-.1,2.6-.3,3.9-.5Z"/>
    <path class="cls-1" d="m7.5,44.12c-.1-.1-.2-.1-.3-.2-.8.1-1.6.3-2.5.4-1,.2-1.9.3-2.8.4,0,.1.1.1.1.2.9-.1,1.8-.2,2.7-.4,1-.1,1.9-.2,2.8-.4Z"/>
    <path class="cls-1" d="m41.9,39.02c0,.1.1.1.1.2.3,0,.5,0,.8-.1,1.1-.1,2.3-.3,3.4-.4q0-.1-.1-.2c-1.1.1-2.2.3-3.3.4-.3,0-.6,0-.9.1Z"/>
    <path class="cls-1" d="m85.8,32.42v.2c1.5-.1,2.9-.2,4.4-.1v-.2c-1.5-.1-2.9-.1-4.4.1Z"/>
    <path class="cls-1" d="m34.5,39.32c-1.4.1-2.9.3-4.3.4v.2c1.4-.2,2.8-.3,4.3-.4-.1,0,0-.1,0-.2Z"/>
    <path class="cls-1" d="m23.2,41.12c1.5-.3,2.9-.5,4.4-.8v-.2c-1.5.2-2.9.5-4.4.8v.2Z"/>
    <path class="cls-1" d="m15.9,42.32c-.1.1-.1.2-.2.3.2,0,.3-.1.5-.1,1.5-.3,3-.6,4.5-.9v-.2c-1.5.3-3.1.6-4.6.9h-.2Z"/>
    <path class="cls-1" d="m9,44.82c-.2,0-.3-.1-.5-.1-1.3.2-2.6.5-4,.7-.7.1-1.4.2-2,.3l.2.2c.6-.1,1.2-.2,1.9-.3,1.5-.3,3-.5,4.4-.8Z"/>
    <path class="cls-1" d="m80.2,34.12c-.1-.1-.2-.1-.3-.2-2.3.3-4.6.7-6.6,1-1.5.2-2.9.5-4.4.7-.1.1-.1.2-.2.2,1.5-.3,3.1-.5,4.6-.8,2.2-.2,4.5-.6,6.9-.9Z"/>
    <path class="cls-1" d="m54.6,38.32q.1-.1.2-.2h0c-.9.1-1.8.3-2.7.4-.9.1-1.8.3-2.7.4v.2c1-.1,1.9-.3,2.7-.4.9-.1,1.7-.3,2.5-.4Z"/>
    <path class="cls-1" d="m42.3,39.82q0,.1.1.2c.2,0,.4,0,.6-.1,1.2-.1,2.3-.3,3.4-.4v-.2c-1.1.1-2.3.3-3.4.4-.3,0-.5.1-.7.1Z"/>
    <path class="cls-1" d="m85.8,33.22v.2c1.5-.1,2.9-.2,4.4-.1v-.2c-1.5-.1-2.9,0-4.4.1Z"/>
    <path class="cls-1" d="m59.7,37.22c.1.1.2.1.3.2,1.2-.2,2.4-.4,3.5-.6.5-.1.9-.2,1.4-.2,0-.1-.1-.1-.1-.2-.4.1-.9.1-1.3.2-1.3.2-2.6.4-3.8.6Z"/>
    <path class="cls-1" d="m23.2,42.02c1.4-.3,2.9-.5,4.4-.8v-.2c-1.5.2-3,.5-4.4.8v.2Z"/>
    <path class="cls-1" d="m34.2,40.22c-1.4.1-2.8.3-4.1.4v.2c1.4-.2,2.7-.3,4.1-.4v-.2Z"/>
    <path class="cls-1" d="m15,43.42c-.1.1-.2.2-.3.3.5-.1,1.1-.2,1.6-.3,1.4-.3,2.8-.6,4.2-.8,0-.1,0-.2.1-.2-1.4.3-2.9.6-4.3.9-.5-.1-.9,0-1.3.1Z"/>
    <path class="cls-1" d="m53.9,39.42c0-.1.1-.2.1-.2-.6.1-1.2.2-1.8.3-.9.1-1.8.3-2.7.4v.2c1-.1,1.9-.3,2.7-.4.5-.1,1.1-.2,1.7-.3Z"/>
    <path class="cls-1" d="m42.5,40.82v.2h.5c1.2-.1,2.4-.3,3.6-.4v-.2c-1.2.2-2.4.3-3.6.4-.2-.1-.4,0-.5,0Z"/>
    <path class="cls-1" d="m12.4,44.82c-.3.1-.6.1-.9.2-2.3.4-4.6.8-6.9,1.2-.5.1-.9.1-1.3.2l.2.2c.4-.1.8-.1,1.2-.2,3.9-.6,7.8-1.3,11.6-2.1,1.2-.2,2.5-.5,3.8-.7,0-.1.1-.2.1-.2-1.3.2-2.6.5-3.9.7-1.3.2-2.6.5-3.9.7Z"/>
    <path class="cls-1" d="m81.2,34.82q-.1-.1-.2-.2c-2.8.3-5.4.8-7.8,1.2-1.6.3-3.2.5-4.8.8,0,.1-.1.2-.1.2,1.6-.3,3.3-.6,4.9-.8,2.5-.4,5.2-.9,8-1.2Z"/>
    <path class="cls-1" d="m85.8,34.12v.2c1.5-.1,2.9-.2,4.4-.1v-.2c-1.5-.1-2.9,0-4.4.1Z"/>
    <path class="cls-1" d="m34.2,41.22c-1.3.1-2.7.3-4.1.4v.2c1.4-.2,2.7-.3,4-.4.1,0,.1-.1.1-.2Z"/>
    <path class="cls-1" d="m60.7,38.02h0c.1.1.1.2.2.2.8-.2,1.7-.3,2.5-.5.6-.1,1.3-.2,2-.4,0-.1-.1-.1-.1-.2-.6.1-1.3.2-1.9.3-.9.3-1.8.4-2.7.6Z"/>
    <path class="cls-1" d="m23.2,43.02c1.5-.3,2.9-.5,4.4-.7v-.2c-1.4.2-2.9.5-4.4.7v.2Z"/>
    <path class="cls-1" d="m85.8,35.02v.2c1.5-.1,2.9-.1,4.3,0h.1v-.2h0c-1.5-.1-2.9-.1-4.4,0Z"/>
    <path class="cls-1" d="m53.5,40.62v-.2c-.5.1-1,.2-1.6.3-.8.1-1.7.3-2.6.4v.2c.9-.1,1.8-.3,2.6-.4.6-.2,1.1-.3,1.6-.3Z"/>
    <path class="cls-1" d="m23.2,44.12c1.5-.2,2.9-.5,4.4-.7v-.2c-1.5.2-2.9.4-4.4.7v.2Z"/>
    <path class="cls-1" d="m34.3,42.42c-1.4.1-2.7.3-4.1.4v.2c1.4-.2,2.7-.3,4.1-.4q.1-.1,0-.2Z"/>
    <path class="cls-1" d="m61.4,38.92c0,.1.1.1.1.2.5-.1,1-.2,1.5-.3.9-.2,1.8-.3,2.7-.5q0-.1-.1-.2c-.9.2-1.8.3-2.6.5-.5.1-1.1.2-1.6.3Z"/>
    <path class="cls-1" d="m4.8,46.92c-.2,0-.5.1-.7.1.1.1.2.1.2.2.2,0,.3,0,.5-.1,3.8-.5,7.7-1.2,11.4-1.9,1.1-.2,2.1-.4,3.2-.6.1-.1.1-.2.2-.2-1.1.2-2.3.4-3.4.6-3.7.7-7.6,1.4-11.4,1.9Z"/>
    <path class="cls-1" d="m42.4,42.02v.2h.3c1.3-.1,2.6-.3,3.9-.5v-.2c-1.3.2-2.6.3-3.9.5q-.2,0-.3,0Z"/>
    <path class="cls-1" d="m73.8,36.82c.4-.1.9-.2,1.5-.2,2.1-.4,4.4-.7,6.7-1,0-.1-.1-.1-.2-.2-3.2.4-6.4.9-9.1,1.4-1.5.3-3,.5-4.5.8v.2c1.5-.3,3.1-.6,4.6-.8.3-.1.6-.1,1-.2Z"/>
    <path class="cls-1" d="m53.6,41.72v-.2c-.7.1-1.4.3-2.1.4-.7.1-1.3.2-2,.4v.2c.7-.1,1.4-.2,2.1-.4.6-.1,1.3-.2,2-.4Z"/>
    <path class="cls-1" d="m23.2,45.22c1.5-.2,2.9-.4,4.4-.6v-.2c-1.5.2-2.9.4-4.4.6v.2Z"/>
    <path class="cls-1" d="m35,43.72c-1.5.1-2.9.2-4.4.4,0,.1.1.1.1.2,1.5-.2,3-.3,4.5-.4-.1-.1-.1-.2-.2-.2Z"/>
    <path class="cls-1" d="m41.8,43.32c0,.1-.1.2-.2.2.2,0,.5,0,.7-.1,1.3-.1,2.7-.3,3.9-.5v-.2c-1.3.2-2.6.4-4,.5,0,.1-.2.1-.4.1Z"/>
    <path class="cls-1" d="m5,47.72h0l.2.2c3.7-.5,7.4-1,10.9-1.6.8-.1,1.5-.2,2.3-.3.1-.1.1-.2.2-.2-.9.1-1.7.3-2.5.4-3.6.4-7.4,1-11.1,1.5Z"/>
    <path class="cls-1" d="m77.5,36.92c.1.1.2.1.3.2,1.2-.2,2.4-.4,3.6-.5.3,0,.6-.1,1-.1,0-.1-.1-.1-.1-.2-.3,0-.6.1-.9.1-1.2.1-2.6.3-3.9.5Z"/>
    <path class="cls-1" d="m72,38.12c.1,0,.3-.1.4-.1,0-.1.1-.2.1-.2-.2,0-.4.1-.6.1-.7.1-1.3.3-2,.4h1.2c.3-.1.6-.2.9-.2Z"/>
    <path class="cls-1" d="m85.8,35.92v.2c1.2-.1,2.4,0,3.6.1.2,0,.5.1.7.1v-.2c-.2,0-.5-.1-.7-.1-1.1-.1-2.4-.1-3.6-.1Z"/>
    <path class="cls-1" d="m61.9,39.92q0,.1.1.2c.2,0,.4-.1.6-.1,1.1-.2,2.3-.5,3.5-.7v-.2c-1.2.2-2.3.5-3.5.7-.4,0-.5,0-.7.1Z"/>
    <path class="cls-1" d="m23.2,46.52c1.4-.2,2.9-.3,4.4-.5v-.2c-1.5.2-2.9.3-4.4.5v.2Z"/>
    <path class="cls-1" d="m62,41.12h0c1.3-.2,2.7-.5,4-.8v-.2c-1.4.3-2.7.6-4,.9v.1Z"/>
    <path class="cls-1" d="m6.1,48.32c.1.1.3.1.4.2,3.2-.4,6.5-.8,9.6-1.1.3,0,.7-.1,1-.1.1-.1.2-.2.3-.3-.5.1-.9.1-1.3.2-3.3.3-6.7.7-10,1.1Z"/>
    <path class="cls-1" d="m78.4,37.62c0,.1.1.1.1.2.7-.1,1.4-.2,2.1-.3.7-.1,1.4-.2,2.1-.2v-.2c-.7.1-1.4.1-2.1.2-.7.1-1.4.2-2.2.3Z"/>
    <path class="cls-1" d="m40.2,44.92c-.2.1-.4.2-.6.2.8,0,1.7-.1,2.5-.2,1.3-.1,2.6-.3,3.8-.5,0-.1.1-.2.1-.2-1.3.2-2.6.4-3.9.5-.7.1-1.3.2-1.9.2Z"/>
    <path class="cls-1" d="m85.8,36.92v.2c.8,0,1.6,0,2.4.1.7.1,1.3.2,1.9.3v-.2c-.6-.2-1.3-.3-1.9-.3-.8,0-1.6-.1-2.4-.1Z"/>
    <path class="cls-1" d="m53.9,42.92c0-.1-.1-.1-.1-.2-1,.2-2,.4-3,.6-.5.1-.9.2-1.4.3v.2c.5-.1,1-.2,1.5-.3,1-.2,2-.4,3-.6Z"/>
    <path class="cls-1" d="m37.4,45.32c-.2,0-.4-.1-.6-.2-.6,0-1.3.1-1.9.1-1.2.1-2.4.2-3.6.3,0,.1.1.1.1.2,1.1-.1,2.3-.2,3.4-.3.9-.1,1.8-.1,2.6-.1Z"/>
    <path class="cls-1" d="m85.8,38.02v.2c.4,0,.8,0,1.2.1,1.1.1,2.2.3,3.2.7v-.2c-1.1-.3-2.2-.5-3.2-.7-.4,0-.8-.1-1.2-.1Z"/>
    <path class="cls-1" d="m61.9,42.12c0,.1,0,.2-.1.2,1.4-.3,2.8-.7,4.2-1v-.2h0c-1.3.3-2.7.6-4.1,1Z"/>
    <path class="cls-1" d="m8.5,49.12c2.2-.2,4.3-.4,6.4-.6.2-.1.4-.2.6-.3-2.5.2-5.1.4-7.7.7.2.1.4.1.7.2Z"/>
    <path class="cls-1" d="m70.2,40.42c1.5-.3,3.3-.7,5.1-1h-1.1c-1.4.3-2.7.6-4,.8h-.2c-.2.1-.4.2-.5.3.2,0,.5-.1.7-.1Z"/>
    <path class="cls-1" d="m23.2,47.82c1.4-.1,2.9-.2,4.4-.4v-.2c-1.5.1-2.9.2-4.4.4v.2Z"/>
    <path class="cls-1" d="m36.8,46.72c-.8,0-1.6.1-2.4.1-.6,0-1.3.1-1.9.1l.2.2c.6,0,1.1-.1,1.7-.1.8,0,1.6-.1,2.4-.1,1.6-.1,3.2-.1,4.8-.3,1.1-.1,2.2-.3,3.3-.5.1-.1.1-.2.2-.2-1.1.2-2.3.4-3.5.5-1.6.2-3.2.2-4.8.3Z"/>
    <path class="cls-1" d="m78.7,38.52s0,.1,0,0v.2c.2,0,.5-.1.7-.1,1.1-.2,2.3-.3,3.4-.4v-.1c-1.2.1-2.3.2-3.5.4h-.6Z"/>
    <path class="cls-1" d="m54.7,44.02q-.1-.1-.2-.2c-1.4.3-2.8.6-4.2.9-.3.1-.6.1-.9.2v.2c.3-.1.7-.1,1-.2,1.4-.2,2.9-.5,4.3-.9Z"/>
    <path class="cls-1" d="m35.8,48.42h-1.1c.1.1.3.1.4.2h.7c1.7-.1,3.4-.1,5.1-.4.7-.1,1.3-.2,1.9-.3.1-.1.3-.2.4-.3-.8.1-1.6.3-2.4.4-1.6.3-3.4.4-5,.4Z"/>
    <path class="cls-1" d="m56,45.02c-.1,0-.2-.1-.3-.1-2,.5-4.1,1.1-6.2,1.5h-.1v.2h.2c2.1-.5,4.3-1.1,6.4-1.6Z"/>
    <path class="cls-1" d="m85.8,39.52c1.5.2,3,.6,4.4,1.1v-.2c-1.5-.5-3-.9-4.4-1.1v.2Z"/>
    <path class="cls-1" d="m23.2,49.12h3c.5,0,.9,0,1.4-.1v-.2c-1.4.1-2.9.1-4.4.3h0Z"/>
    <path class="cls-1" d="m61.2,43.62c1.6-.4,3.2-.9,4.8-1.3v-.2c-1.6.4-3.1.8-4.7,1.2,0,.1,0,.2-.1.3Z"/>
    <path class="cls-1" d="m68.6,41.52h0c-.1.1-.2.2-.2.3.1,0,.2,0,.3-.1,2.7-.7,6-1.4,9.3-1.9,1.5-.2,3.1-.4,4.8-.5v-.2c-1.7,0-3.4.2-4.8.5-3.4.5-6.6,1.2-9.4,1.9Z"/>
    <path class="cls-1" d="m85.8,40.82c1.5.3,2.9.8,4.4,1.4v-.2c-1.5-.6-3-1.1-4.4-1.4v.2Z"/>
    <path class="cls-1" d="m58.2,45.42c-2.9.8-5.8,1.7-8.8,2.5v.2c3.1-.8,6.2-1.7,9.3-2.6,2.3-.7,4.7-1.4,7.1-2.1,0-.1,0-.2.1-.2-2.1.6-4.2,1.2-6.2,1.8-.5.2-1,.3-1.5.4Z"/>
    <path class="cls-1" d="m75.8,40.72c-2.7.5-5.3,1.2-7.8,1.8,0,.1,0,.2-.1.2h0c4.6-1.2,9.8-2.6,14.8-2.4v-.2c-2,0-4.3.2-6.9.6Z"/>
    <path class="cls-1" d="m67.8,43.52v.2c4.5-1.3,9.5-2.6,14.2-2.1.3,0,.5.1.8.1v-.2c-.3,0-.5-.1-.8-.1-4.7-.5-9.7.8-14.2,2.1Z"/>
    <path class="cls-1" d="m53.9,47.92q.1.1.2.2c1.1-.4,2.2-.7,3.3-1.1,2.6-.8,5.3-1.7,8-2.5,0-.1.1-.2.1-.3-2.7.8-5.5,1.7-8.2,2.6-1,.3-2.2.7-3.4,1.1Z"/>
    <path class="cls-1" d="m85.8,42.42c1.6.5,3,1.1,4.4,1.7v-.2c-1.3-.6-2.8-1.2-4.4-1.7v.2Z"/>
    <path class="cls-1" d="m50.7,49.12c1-.3,2.1-.6,3.1-1v-.2c-1.3.4-2.5.8-3.8,1.2h.7Z"/>
    <path class="cls-1" d="m85.8,43.92v.2c1.1.4,2.2.8,3.1,1.3.4.2.8.4,1.2.5v-.2c-.4-.2-.8-.3-1.1-.5-1-.4-2.1-.9-3.2-1.3Z"/>
    <path class="cls-1" d="m72.6,43.12c-1.6.3-3.2.8-4.8,1.3v.2c1.5-.5,3-.9,4.6-1.2,0-.1.1-.2.2-.3Z"/>
    <path class="cls-1" d="m78.7,42.52v.2c.5,0,1.1,0,1.6.1.9.1,1.7.3,2.6.5v-.2c-.8-.2-1.7-.4-2.5-.4-.7-.2-1.2-.2-1.7-.2Z"/>
    <path class="cls-1" d="m64.4,45.42c-2.8.9-5.5,1.9-8.2,2.8-.3.1-.7.2-1,.4.1,0,.2.1.3.1.3-.1.6-.2.8-.3,2.7-1,5.5-1.9,8.2-2.8l.2-.1c.1,0,.2-.1.3-.1.1-.1.1-.2.2-.3-.2.1-.4.1-.5.2l-.3.1Z"/>
    <path class="cls-1" d="m78.3,43.72c0,.1-.1.1-.1.2h.3c1.5.2,3,.5,4.4.9v-.2c-1.4-.4-2.9-.8-4.3-.9h-.3Z"/>
    <path class="cls-1" d="m56.6,49.12c.1,0,.3.1.4.1,2-.8,4-1.5,6-2.2.4-.1.8-.3,1.2-.4.1-.1.2-.2.3-.3-.5.2-1.1.4-1.6.6-2.1.6-4.3,1.4-6.3,2.2Z"/>
    <path class="cls-1" d="m72.2,44.02c-1.5.3-2.9.6-4.3,1.1v.2c1.4-.4,2.8-.8,4.3-1.1v-.2Z"/>
    <path class="cls-1" d="m85.8,45.72v.2c.6.2,1.1.4,1.7.7.9.4,1.8.8,2.7,1.2v-.2c-.9-.4-1.7-.8-2.6-1.1-.6-.4-1.2-.6-1.8-.8Z"/>
    <path class="cls-1" d="m85.8,47.52v.2c.1,0,.1.1.2.1,1,.4,2.1.9,3.1,1.3h.5c-1.2-.5-2.3-1-3.5-1.5-.1-.1-.2-.1-.3-.1Z"/>
    <path class="cls-1" d="m58.4,49.32h.6c.8-.3,1.6-.6,2.4-1,.5-.2,1-.4,1.6-.6.2-.1.3-.3.5-.4-.7.3-1.5.6-2.1.8-1.1.4-2,.8-3,1.2Z"/>
    <path class="cls-1" d="m72.3,44.92c-1.1.1-2.3.4-3.6.7-.2.1-.5.1-.7.2q0,.1.1.2c1.4-.4,2.9-.7,4.4-.9q-.1-.1-.2-.2Z"/>
    <path class="cls-1" d="m76.7,45.12c2.1.3,4.1.8,6,1.5v-.2c-1.9-.6-3.8-1.2-5.8-1.4,0,0-.1,0-.2.1Z"/>
    <path class="cls-1" d="m68.3,46.52c0,.1.1.1.1.2,2.1-.5,4.2-.7,6.3-.5,2.8.3,5.5,1.1,8.1,2.1v-.2c-2.6-1-5.3-1.8-8.1-2.1-2-.2-4.1-.1-6.4.5Z"/>
    <path class="cls-1" d="m68.7,47.22c0,.1.1.1.1.2,1.4-.2,2.7-.2,4.1-.1,1.6.2,3.2.5,4.8,1,.1-.1.2-.1.2-.2-1.6-.5-3.3-.8-5-1-1.3-.1-2.7-.1-4.2.1Z"/>
    <path class="cls-1" d="m78.7,48.62c.5.2,1.1.3,1.6.5h.7c-.7-.3-1.5-.5-2.2-.7v.2h-.1Z"/>
    <path class="cls-1" d="m69.6,48.12c.1.1.2.1.3.2.4,0,.9,0,1.3.1,1.4.2,2.7.4,4.1.8.2,0,.3-.1.5-.1-1.5-.4-3-.7-4.5-.9-.6,0-1.1-.1-1.7-.1Z"/>
    <path class="cls-1" d="m35.25.7c-1.1-.2-2.2-.4-3.3-.7-.1,0-.2.1-.3.2,1.3.3,2.5.5,3.8.8-.1-.1-.1-.2-.2-.3Z"/>
    <path class="cls-1" d="m30.65,1.7c1.7.4,3.5.8,5.2,1.2v-.2c-1.7-.4-3.5-.8-5.2-1.2v.2Z"/>
    <path class="cls-1" d="m24.75,1.5c-.1,0-.3-.1-.4-.1h-.8c.4.1.7.2,1.1.3s.9.2,1.3.4c.6.2,1.2.3,1.8.5v-.3c-.6-.2-1.1-.3-1.7-.5-.4-.1-.8-.2-1.3-.3Z"/>
    <path class="cls-1" d="m35.05,4.3q.1,0,0,0c-1.5-.4-3-.8-4.5-1.2,0,.1,0,.2.1.2,1.4.4,2.8.7,4.3,1.1,0,0,.1-.1.1-.1Z"/>
    <path class="cls-1" d="m50.05,6.7c-.1,0-.2-.1-.3-.1-2.1.6-4.2,1-6.3.8-.1.1-.1.2-.2.2h1.1c1.9.1,3.8-.3,5.7-.9Z"/>
    <path class="cls-1" d="m58.55,3c-.1,0-.1.1-.2.1v.2c.2-.1.5-.2.7-.3h-.5Z"/>
    <path class="cls-1" d="m42.85,7.6v-.2h-.2c-1.4-.2-2.8-.4-4.2-.7v.2c1.4.3,2.8.5,4.1.7h.3Z"/>
    <path class="cls-1" d="m24.45,2.8c-.3-.1-.7-.2-1-.3v.2c.3.1.6.2.9.3.5.1.9.3,1.4.4.7.2,1.4.4,2,.6v-.2c-.7-.2-1.3-.4-2-.6-.4-.1-.9-.2-1.3-.4Z"/>
    <path class="cls-1" d="m60.85,3c-.8.4-1.6.9-2.5,1.3v.2c1-.5,2-1,2.9-1.5,0,0-.4,0-.4,0Z"/>
    <path class="cls-1" d="m30.95,6.5h0c1.4.5,2.9.9,4.4,1.3v-.3c-1.3-.3-2.5-.7-3.7-1h-.7Z"/>
    <path class="cls-1" d="m44.15,9.3c1.7,0,3.4-.3,5.4-.9.7-.2,1.4-.5,2.1-.7q-.1-.1-.2-.2c-2.9,1.1-5.9,1.8-8.8,1.5-1.4-.2-2.8-.4-4.1-.7v.2c1.4.3,2.7.5,4.1.7.4,0,1,.1,1.5.1Z"/>
    <path class="cls-1" d="m23.95,4c-.2-.1-.3-.1-.5-.2v.2c.2,0,.3.1.5.1.5.2,1.1.4,1.6.5.8.2,1.5.5,2.3.7h0c-.7-.2-1.5-.5-2.2-.7-.6-.2-1.2-.4-1.7-.6Z"/>
    <path class="cls-1" d="m16.65,2.8c-.1,0-.2-.1-.2-.1-1.4-.5-2.8-1-4.2-1.5-.3,0-.6-.1-.8-.1,1.9.7,3.8,1.3,5.7,2-.1,0-.3-.2-.5-.3Z"/>
    <path class="cls-1" d="m62.65,3c-1.4.8-2.9,1.6-4.3,2.4v.2c1.5-.8,2.9-1.6,4.3-2.4v-.2Z"/>
    <path class="cls-1" d="m30.95,7.9c1.4.5,2.9.9,4.4,1.3v-.2c-1.5-.4-2.9-.8-4.4-1.3,0,0,0,.2,0,.2Z"/>
    <path class="cls-1" d="m56.75,6.5h-.5c-.1.1-.2.1-.4.2-.1,0-.2.1-.3.1v.2c.1-.1.2-.1.4-.2.3,0,.5-.2.8-.3Z"/>
    <path class="cls-1" d="m52.55,8.5c0-.1-.1-.1-.1-.2-2,.9-4.1,1.6-6.2,1.9h.2c.2,0,.4,0,.6.1.8-.2,1.5-.4,2.4-.6,1.1-.3,2.1-.7,3.1-1.2Z"/>
    <path class="cls-1" d="m23.45,5.2q0-.1,0,0l-.1.2c.6.2,1.2.4,1.8.6.9.3,1.7.6,2.6.9v-.3c-.8-.3-1.7-.6-2.5-.9-.5-.1-1.2-.3-1.8-.5Z"/>
    <path class="cls-1" d="m42.45,10.4c-1.3-.2-2.6-.4-3.9-.7v.2c1.3.3,2.6.5,3.9.6.5.1,1,.1,1.5.1h.9c.2-.1.5-.2.8-.3-1.1.2-2.2.2-3.2.1Z"/>
    <path class="cls-1" d="m30.95,8.8v.2c.9.3,1.8.6,2.8.9.5.2,1.1.3,1.6.5v-.2c-.5-.1-1-.3-1.5-.4-1-.4-1.9-.7-2.9-1Z"/>
    <path class="cls-1" d="m62.65,4.2v-.2c-1.4.8-2.9,1.7-4.3,2.5h0c-.8.5-1.7.9-2.5,1.4-.1,0-.1.1-.2.1v.2c.1,0,.2-.1.3-.1,2.2-1.3,4.5-2.6,6.7-3.9Z"/>
    <path class="cls-1" d="m38.45,11v.2c1.3.3,2.5.5,3.8.6.4,0,.8.1,1.2.1,0-.1.1-.1.1-.2-.4,0-.9,0-1.3-.1-1.2-.1-2.5-.3-3.8-.6Z"/>
    <path class="cls-1" d="m23.45,6.5c1.4.5,2.9,1,4.4,1.5v-.2c-1.5-.5-3-1-4.4-1.5v.2Z"/>
    <path class="cls-1" d="m19.05,4.9c-.1-.1-.2-.2-.3-.3-.5-.2-1.1-.4-1.6-.6-2.5-.9-5-1.8-7.6-2.7-.2,0-.3,0-.5.1,2.7.9,5.3,1.9,7.9,2.9.7.1,1.4.4,2.1.6Z"/>
    <path class="cls-1" d="m53.05,9.2c-1.5.7-3,1.3-4.6,1.8q.1.1.2.2c1.6-.5,3.1-1.1,4.6-1.8q-.1-.1-.2-.2Z"/>
    <path class="cls-1" d="m23.45,7.3v.2h0c1.4.5,2.9,1,4.4,1.6v-.3c-1.5-.5-2.9-1-4.4-1.5h0Z"/>
    <path class="cls-1" d="m62.65,5.1v-.3c-2.2,1.4-4.6,2.7-6.9,4l-.1.1v.2c.1,0,.2-.1.2-.1,2.3-1.2,4.6-2.5,6.8-3.9Z"/>
    <path class="cls-1" d="m19.95,6.2c-.1-.1-.1-.2-.2-.3-.9-.3-1.8-.7-2.7-1-3-1.1-6-2.3-9.1-3.3-.1,0-.2,0-.3.1,3.2,1.1,6.3,2.3,9.4,3.4.9.4,1.9.7,2.9,1.1Z"/>
    <path class="cls-1" d="m30.95,9.9v.2c.9.3,1.8.6,2.7.8.5.2,1.1.3,1.6.5v-.2c-.5-.1-1-.3-1.6-.5-.8-.2-1.8-.5-2.7-.8Z"/>
    <path class="cls-1" d="m53.45,10c-1.4.7-2.9,1.3-4.4,1.8,0,.1.1.1.1.2,1.5-.5,2.9-1.1,4.4-1.8,0,0,0-.1-.1-.2Z"/>
    <path class="cls-1" d="m38.45,12v.2c1.2.3,2.4.5,3.5.6.3,0,.7.1,1,.1q0-.1.1-.2c-.4,0-.7,0-1.1-.1-1.1-.1-2.3-.3-3.5-.6Z"/>
    <path class="cls-1" d="m23.45,8.2v.2c.4.2.8.3,1.3.5,1,.4,2.1.8,3.1,1.1v-.2c-1-.4-2-.7-3-1.1-.5-.2-1-.3-1.4-.5Z"/>
    <path class="cls-1" d="m38.45,13v.2c1.2.2,2.3.4,3.5.5.3,0,.6,0,.9.1v-.2c-.3,0-.6,0-.9-.1-1.1-.1-2.3-.3-3.5-.5Z"/>
    <path class="cls-1" d="m53.75,10.6c-1.4.7-2.8,1.3-4.3,1.8q0,.1.1.2c1.5-.5,3-1.2,4.3-1.8-.1,0-.1-.1-.1-.2Z"/>
    <path class="cls-1" d="m20.55,7.4c0-.1-.1-.2-.1-.3-1.2-.4-2.3-.9-3.4-1.3-3.5-1.3-6.9-2.6-10.4-3.8-.1,0-.2.1-.3.1,3.6,1.2,7.1,2.6,10.5,3.9,1.2.4,2.5.9,3.7,1.4Z"/>
    <path class="cls-1" d="m62.65,5.7c-2.3,1.4-4.6,2.7-7,4v.2c2.4-1.2,4.7-2.6,7-4v-.2Z"/>
    <path class="cls-1" d="m30.95,11.1c1.4.5,2.9.9,4.4,1.3v-.2c-1.5-.4-2.9-.8-4.4-1.3,0,0,0,.2,0,.2Z"/>
    <path class="cls-1" d="m30.95,12.1c1.4.5,2.9.9,4.4,1.3v-.2c-1.5-.4-2.9-.8-4.4-1.3,0,0,0,.2,0,.2Z"/>
    <path class="cls-1" d="m62.65,6.5v-.1c-2.3,1.3-4.6,2.7-7,3.9h.5c2.3-1.2,4.6-2.5,6.8-3.8,0,0-.3,0-.3,0Z"/>
    <path class="cls-1" d="m38.45,13.9v.2c1,.2,2,.3,3,.4.5,0,.9.1,1.4.1v-.2c-.5,0-.9,0-1.4-.1-1-.1-2-.3-3-.4Z"/>
    <path class="cls-1" d="m19.15,7.8l.3-.1c-.9-.3-1.8-.7-2.6-1-3.7-1.4-7.5-2.8-11.3-4.1-.1,0-.1.1-.2.1,3.9,1.3,7.7,2.8,11.4,4.2.8.3,1.6.6,2.4.9Z"/>
    <path class="cls-1" d="m53.85,11.2c-1.4.7-2.8,1.3-4.3,1.9v.2c1.5-.5,2.9-1.2,4.3-1.9v-.2Z"/>
    <path class="cls-1" d="m23.45,9.2v.2c.3.1.5.2.8.3,1.2.4,2.4.9,3.6,1.3v-.2c-1.2-.4-2.4-.9-3.5-1.3-.4-.1-.7-.2-.9-.3Z"/>
    <path class="cls-1" d="m23.45,10.2v.2h.1c1.4.5,2.8,1.1,4.3,1.6v-.2c-1.4-.5-2.8-1-4.2-1.5-.1-.1-.2-.1-.2-.1Z"/>
    <path class="cls-1" d="m10.95,5.5h0c-2.1-.8-4.2-1.6-6.3-2.3-.1.1-.2.1-.2.2,2,.7,4,1.4,6,2.1.1,0,.3,0,.5,0Z"/>
    <path class="cls-1" d="m49.55,13.7c1.5-.6,2.9-1.2,4.3-1.9v-.2c-1.4.7-2.9,1.4-4.3,1.9v.2h0Z"/>
    <path class="cls-1" d="m63.85,6.5h-.4c-.3.2-.6.3-.9.5-2,1.1-4,2.2-6,3.3h.5c1.9-1,3.8-2,5.6-3.1.4-.2.8-.5,1.2-.7Z"/>
    <path class="cls-1" d="m17.65,8.2l.3-.1c-.4-.1-.8-.3-1.3-.5s-1.1-.4-1.6-.6c.1.1.2.2.4.4.4.2.8.3,1.2.5.3.1.6.2,1,.3Z"/>
    <path class="cls-1" d="m40.75,15c-.7-.1-1.5-.2-2.2-.3v.2c.7.1,1.5.2,2.2.3.5,0,1,.1,1.4.1h.7v-.2c-.7,0-1.4,0-2.1-.1Z"/>
    <path class="cls-1" d="m30.95,13.1c1.4.5,2.9.9,4.4,1.2v-.2c-1.5-.4-2.9-.8-4.4-1.2,0,0,0,.2,0,.2Z"/>
    <path class="cls-1" d="m23.45,11.5c1.4.5,2.9,1.1,4.4,1.6v-.2c-1.5-.5-2.9-1.1-4.4-1.6v.2Z"/>
    <path class="cls-1" d="m39.45,15.7c-.3,0-.7-.1-1-.1v.2c.3,0,.6.1,1,.1.5.1,1.1.1,1.6.1.6,0,1.2,0,1.8-.1v-.2c-1.1.2-2.2.2-3.4,0Z"/>
    <path class="cls-1" d="m16.25,8.6h.2c-.1,0-.2-.1-.3-.1,0,0,.1.1.1.1Z"/>
    <path class="cls-1" d="m49.55,13.9v.2c1.4-.6,2.7-1.2,3.9-1.7.2-.1.3-.2.5-.2v-.2c-.2.1-.4.2-.6.3-1.2.5-2.5,1.1-3.8,1.6Z"/>
    <path class="cls-1" d="m30.95,14.1c1.4.4,2.9.8,4.4,1.2v-.2c-1.5-.3-2.9-.7-4.4-1.2,0,0,0,.2,0,.2Z"/>
    <path class="cls-1" d="m9.05,5.7c-1.8-.6-3.5-1.2-5.3-1.8l-.2.2c1.7.5,3.4,1.1,5.1,1.8.2-.1.3-.1.4-.2Z"/>
    <path class="cls-1" d="m71.55,3c-.4.2-.7.3-1.1.5v.2c.5-.2,1.1-.5,1.6-.7,0,0-.5,0-.5,0Z"/>
    <path class="cls-1" d="m64.95,6.5h-.5c-.9.5-1.8,1-2.7,1.4-1.5.8-3,1.6-4.5,2.3h.5c1.4-.7,2.7-1.4,4.1-2.2,1-.4,2-1,3.1-1.5Z"/>
    <path class="cls-1" d="m52.45,13.2c.5-.2,1-.5,1.5-.7v-.2c-.5.2-1.1.5-1.6.7-.9.4-1.8.8-2.8,1.2v.2h.1c1-.4,1.9-.8,2.8-1.2Z"/>
    <path class="cls-1" d="m73.45,3l-3,1.2v.2c1.1-.5,2.3-1,3.6-1.5h-.6v.1Z"/>
    <path class="cls-1" d="m38.45,16.5v.2c.5,0,.9.1,1.4.1,1,0,2-.1,3-.3v-.2c-1.4.2-2.9.3-4.4.2Z"/>
    <path class="cls-1" d="m58.35,10.3c.9-.4,1.7-.9,2.6-1.3,1.7-.8,3.4-1.7,5.1-2.5h-.5c-1.6.8-3.2,1.6-4.7,2.4-.9.5-1.9.9-2.8,1.4h.3Z"/>
    <path class="cls-1" d="m30.95,15.2c1.4.4,2.9.8,4.4,1.1v-.2c-1.5-.3-2.9-.6-4.4-1.1,0,0,0,.2,0,.2Z"/>
    <path class="cls-1" d="m7.75,6.3c-1.6-.6-3.2-1.1-4.8-1.6l-.1.1c1.6.5,3.1,1,4.7,1.6.1,0,.1-.1.2-.1Z"/>
    <path class="cls-1" d="m23.45,12.6c1.4.5,2.9,1.1,4.4,1.6v-.2c-1.5-.5-2.9-1-4.4-1.6v.2Z"/>
    <path class="cls-1" d="m18.35,10.6c.9.4,1.9.7,2.8,1.1v-.2c-.7-.3-1.5-.6-2.2-.9,0,0-.6,0-.6,0Z"/>
    <path class="cls-1" d="m38.45,17.4c1.5,0,2.9-.2,4.4-.5v-.2c-1.5.3-2.9.5-4.4.5v.2Z"/>
    <path class="cls-1" d="m16.15,10.6h-.6.1c1.6.7,3.4,1.3,5,2,.1.1.3.1.5.2v-.2c-.1,0-.3-.1-.4-.1-1.5-.6-3.1-1.3-4.6-1.9Z"/>
    <path class="cls-1" d="m30.95,16.2c1.5.4,3,.7,4.4.9v-.2c-1.5-.2-2.9-.5-4.4-.9,0,0,0,.2,0,.2Z"/>
    <path class="cls-1" d="m50.95,13.8c-.4.2-.8.4-1.3.5h-.1v.3h.1c.4-.2.9-.3,1.3-.5,0,0,.1,0,.1-.1,1-.4,1.9-.8,2.9-1.3v-.1h0c-1,.4-2,.8-3,1.2Z"/>
    <path class="cls-1" d="m6.65,7.2l.2-.2c-1.3-.5-2.6-.9-3.8-1.3-.3-.1-.5-.1-.8-.2,0,0,0,.1-.1.2.3.1.5.2.8.2,1.2.4,2.5.8,3.7,1.3Z"/>
    <path class="cls-1" d="m23.45,13.7c1.4.5,2.9,1.1,4.4,1.6v-.2c-1.5-.5-3-1-4.4-1.6v.2Z"/>
    <path class="cls-1" d="m74.85,3.4q-.1,0-.2.1c-1.4.4-2.8.9-4.1,1.5v.2c1.4-.6,2.8-1.2,4.3-1.6v-.2Z"/>
    <path class="cls-1" d="m58.35,10.5v.2c.5-.2,1-.5,1.6-.7,2.4-1.2,5-2.4,7.5-3.5h-.5c-2.4,1.1-4.7,2.2-7,3.3-.6.2-1.1.4-1.6.7Z"/>
    <path class="cls-1" d="m74.85,4.4c-.3.1-.6.2-1,.3-1.1.3-2.2.7-3.3,1.1v.2c1.4-.5,2.9-1,4.3-1.3v-.3Z"/>
    <path class="cls-1" d="m58.65,10.7c-.1,0-.2.1-.3.1v.2c.1-.1.3-.1.4-.2,2.5-1.1,5.2-2.3,7.8-3.4.6-.2,1.1-.5,1.7-.7v-.1c-.6.2-1.2.5-1.7.7-2.8,1.1-5.4,2.3-7.9,3.4Z"/>
    <path class="cls-1" d="m38.45,18c1.3-.1,2.7-.4,4.2-.8h.1v-.2c-1.4.4-2.9.7-4.4.8v.2h.1Z"/>
    <path class="cls-1" d="m49.55,14.8q.1,0,.2-.1c1.4-.6,2.8-1.2,4.2-1.8v-.2c-1,.4-2,.9-3,1.3-.4.2-.9.4-1.3.6v.2h-.1Z"/>
    <path class="cls-1" d="m15.35,11.4c-.6-.3-1.3-.5-1.9-.8h-.6c.8.3,1.6.7,2.4,1,1.5.6,3.1,1.3,4.7,1.9.3.1.7.3,1,.4v-.2c-.3-.1-.7-.3-1-.4-1.4-.6-3-1.2-4.6-1.9Z"/>
    <path class="cls-1" d="m30.95,17.2c1.4.3,2.9.6,4.4.7v-.2c-1.5-.1-2.9-.4-4.4-.7,0,0,0,.2,0,.2Z"/>
    <path class="cls-1" d="m23.45,14.9c1.4.5,2.9,1,4.4,1.5v-.2c-1.5-.5-3-1-4.4-1.5v.2Z"/>
    <path class="cls-1" d="m5.95,8c0-.1.1-.1.1-.2-.9-.3-1.7-.6-2.6-.9-.6-.2-1.2-.4-1.8-.5,0,.1-.1.1-.1.2.6.1,1.2.3,1.8.5.9.3,1.7.6,2.6.9Z"/>
    <path class="cls-1" d="m49.55,14.6h0c.4-.2.9-.4,1.3-.5-.4.2-.8.3-1.3.5q.1,0,0,0Z"/>
    <path class="cls-1" d="m30.95,18v.2c.9.2,1.9.3,2.8.4.5,0,1,.1,1.5.1v-.2c-.5,0-1,0-1.5-.1-.9-.1-1.8-.2-2.8-.4Z"/>
    <path class="cls-1" d="m14.95,12.4c-1.3-.6-2.6-1.1-4-1.7v.2c1.3.5,2.6,1.1,3.9,1.6,1.4.6,2.9,1.2,4.4,1.8.5.2,1.1.4,1.6.6v-.2c-.5-.2-1-.4-1.5-.6-1.5-.5-2.9-1.1-4.4-1.7Z"/>
    <path class="cls-1" d="m5.35,8.8c0-.1.1-.1.1-.2-.5-.2-1-.3-1.6-.5-.9-.3-1.8-.6-2.7-.8q0,.1-.1.2c.9.2,1.8.5,2.7.8.6.2,1.1.3,1.6.5Z"/>
    <path class="cls-1" d="m74.75,5.4c-.6.1-1.2.3-1.8.4-.8.2-1.6.5-2.5.8v.2c1.4-.5,2.9-.9,4.3-1.1v-.3Z"/>
    <path class="cls-1" d="m38.45,18.4c.9-.1,1.8-.3,2.7-.5.5-.1,1.1-.3,1.6-.4h.1v-.2c-1.4.4-2.9.8-4.4,1,0,0,0,.1,0,.1Z"/>
    <path class="cls-1" d="m49.55,14.8v.2c1.5-.6,2.9-1.2,4.4-1.8v-.2c-1.4.6-2.8,1.1-4.2,1.7h0q-.1.1-.2.1Z"/>
    <path class="cls-1" d="m58.35,11.3v.2c2.3-1,4.8-2,7.2-2.9.9-.3,1.8-.7,2.7-1v-.3c-.9.3-1.8.7-2.8,1-2.4,1-4.8,2-7.1,3Z"/>
    <path class="cls-1" d="m23.45,16c1.5.5,2.9,1,4.4,1.4v-.2c-1.5-.4-2.9-.9-4.4-1.4v.2Z"/>
    <path class="cls-1" d="m49.55,14.8s.1,0,.1-.1h0c.1.1,0,.1-.1.1h0Z"/>
    <path class="cls-1" d="m23.45,17.2c1.4.5,2.9,1,4.4,1.3v-.2c-1.5-.4-2.9-.8-4.4-1.3v.2Z"/>
    <path class="cls-1" d="m14.55,13.4c-1.2-.5-2.3-1-3.5-1.5v.2c1.2.5,2.3,1,3.4,1.5.7.3,1.3.6,2,.9h.3v.1c.6.3,1.2.5,1.8.8.7.3,1.3.6,2,.8q0-.1.1-.2c-.7-.3-1.4-.5-2-.8-1.4-.7-2.8-1.3-4.1-1.8Z"/>
    <path class="cls-1" d="m32.15,19c-.4,0-.8-.1-1.2-.1v.2c.4.1.8.1,1.2.1.5,0,1,.1,1.5.1s1.1,0,1.6-.1v-.2c-1,.1-2,.1-3.1,0Z"/>
    <path class="cls-1" d="m38.45,18.6v.2c1.5-.3,3-.7,4.4-1.1v-.2h-.1c-1.3.4-2.8.8-4.3,1.1Z"/>
    <path class="cls-1" d="m49.55,15.3c1.5-.5,2.9-1.1,4.4-1.7v-.2c-1.4.6-2.9,1.1-4.4,1.7v.2Z"/>
    <path class="cls-1" d="m58.35,11.7v.2c1.4-.6,2.9-1.1,4.3-1.7h.1c.6-.2,1.1-.4,1.7-.6,1.2-.4,2.5-.9,3.7-1.3v-.2c-1.3.4-2.6.9-3.8,1.3-2,.8-4,1.5-6,2.3Z"/>
    <path class="cls-1" d="m74.85,6.5c-1.5.2-2.9.6-4.4,1v.2c1.9-.5,3.9-1,6-1.2,0,0-1.6,0-1.6,0Z"/>
    <path class="cls-1" d="m5.05,9.7q0-.1.1-.2c-.3,0-.6-.1-.9-.2-1.3-.4-2.4-.7-3.5-1q0,.1-.1.2c1.1.3,2.3.6,3.5,1,.3.1.6.2.9.2Z"/>
    <path class="cls-1" d="m49.55,15.6c1.5-.5,2.9-1,4.4-1.6v-.2c-1.4.5-2.9,1.1-4.4,1.6v.2Z"/>
    <path class="cls-1" d="m64.75,10.3c1.1-.4,2.2-.7,3.4-1v-.3c-1.4.4-2.8.8-4.1,1.3h.7Z"/>
    <path class="cls-1" d="m62.65,10.7c-1.4.5-2.9,1-4.3,1.5v.2c1.4-.5,2.9-1,4.3-1.5v-.2Z"/>
    <path class="cls-1" d="m4.75,10.7v-.2q-.1,0-.2-.1c-1.4-.4-2.8-.8-4.1-1.1v.2c1.3.3,2.7.6,4.2,1.1q0,.1.1.1Z"/>
    <path class="cls-1" d="m14.35,14.4c-.1,0-.2-.1-.3-.1-1-.5-2-.9-3.1-1.4v.2c.9.4,1.9.8,2.8,1.2l.6.1Z"/>
    <path class="cls-1" d="m23.45,18.4c1.4.5,2.9.9,4.4,1.1v-.2c-1.5-.3-3-.7-4.4-1.1v.2Z"/>
    <path class="cls-1" d="m30.95,19.7v.2h1c1.1,0,2.3-.1,3.4-.2v-.2c-1.5.2-2.9.3-4.4.2Z"/>
    <path class="cls-1" d="m79.25,7.6h.2v-.2h-.2c-3,0-5.9.4-8.7,1v.2c2.7-.6,5.7-1,8.7-1Z"/>
    <path class="cls-1" d="m16.35,15.3c0,.1-.1.1-.1.2.5.2,1,.5,1.6.7.8.3,1.5.7,2.3,1,0-.1.1-.1.1-.2-.8-.3-1.6-.7-2.3-1-.6-.2-1.1-.5-1.6-.7Z"/>
    <path class="cls-1" d="m38.45,19.1c1.5-.3,3-.8,4.4-1.2v-.2c-1.4.4-2.9.9-4.4,1.2v.2Z"/>
    <path class="cls-1" d="m15.75,16.2c0,.1-.1.1-.1.2.4.2.9.4,1.3.6.9.4,1.8.8,2.7,1.2,0-.1.1-.1.1-.2-.9-.4-1.8-.8-2.7-1.2-.5-.2-.9-.4-1.3-.6Z"/>
    <path class="cls-1" d="m62.65,11.5c-.2,0-.4.1-.5.1-1.3.4-2.5.8-3.8,1.2v.2c1.3-.4,2.6-.8,3.9-1.2.2,0,.3-.1.5-.1l-.1-.2Z"/>
    <path class="cls-1" d="m38.45,19.4c1.4-.4,2.9-.8,4.4-1.2v-.2c-1.5.4-2.9.9-4.4,1.2v.2Z"/>
    <path class="cls-1" d="m49.55,15.8v.2c1.3-.4,2.7-.9,4-1.3.1,0,.3-.1.4-.1v-.2c-.2.1-.3.1-.5.2-1.2.3-2.5.8-3.9,1.2Z"/>
    <path class="cls-1" d="m11.35,14.4h.5c-.3-.1-.5-.2-.8-.4v.2c.1.2.2.2.3.2Z"/>
    <path class="cls-1" d="m23.45,19.5c1.4.4,2.9.7,4.4.9v-.2c-1.5-.2-2.9-.5-4.4-.9v.2Z"/>
    <path class="cls-1" d="m4.65,11.5c-1.6-.5-3-.9-4.4-1.1v.2c1.4.2,2.9.6,4.5,1.1-.1,0-.1-.1-.1-.2Z"/>
    <path class="cls-1" d="m30.95,20.5c1.5,0,2.9-.2,4.4-.5v-.2c-1.5.3-2.9.4-4.4.5,0,0,0,.2,0,.2Z"/>
    <path class="cls-1" d="m67.75,10.3c.1,0,.3-.1.4-.1v-.2c-.4.1-.9.2-1.3.3h.9Z"/>
    <path class="cls-1" d="m79.45,8.9v-.2h-1c-2.7,0-5.4.3-7.9.8v.2c2.6-.5,5.2-.8,7.9-.8h1Z"/>
    <path class="cls-1" d="m38.45,19.5v.2c1.3-.3,2.6-.7,3.8-1,.2-.1.4-.1.6-.2v-.2c-.2.1-.4.1-.6.2-1.3.3-2.5.7-3.8,1Z"/>
    <path class="cls-1" d="m79.45,10.1v-.2h-1.9c-2.7,0-5,.2-7.1.5v.2c2.1-.3,4.4-.5,7.1-.5h1.9Z"/>
    <path class="cls-1" d="m4.65,12.6c-1.5-.5-3-.8-4.5-.9v.2c1.5.1,3,.5,4.6,1,0-.1,0-.2-.1-.3Z"/>
    <path class="cls-1" d="m23.45,20.3v.3c1.2.3,2.4.5,3.7.6h.7v-.2h-.7c-1.3-.2-2.5-.4-3.7-.7Z"/>
    <path class="cls-1" d="m62.65,12.3c-.6.2-1.1.3-1.7.5-.9.3-1.8.5-2.7.8v.2c.9-.3,1.8-.5,2.7-.8.5-.1,1-.3,1.6-.5l.1-.2Z"/>
    <path class="cls-1" d="m49.55,16.2v.2c.9-.3,1.8-.6,2.7-.8.6-.2,1.1-.4,1.7-.5v-.2c-.6.2-1.2.4-1.8.6-.8.2-1.7.5-2.6.7Z"/>
    <path class="cls-1" d="m30.95,21c1.2-.1,2.5-.3,3.8-.5.2,0,.4-.1.5-.1v-.2c-1.5.3-2.9.5-4.4.6v.2h.1Z"/>
    <path class="cls-1" d="m14.85,17.1q-.1.1-.2.1c.5.3,1,.5,1.6.7.8.4,1.7.8,2.6,1.1,0-.1.1-.1.1-.2-1-.4-1.9-.8-2.7-1.2-.4-.1-.9-.3-1.4-.5Z"/>
    <path class="cls-1" d="m38.45,19.8v.2c.8-.2,1.6-.4,2.4-.6.7-.2,1.3-.4,2-.5v-.2c-.7.2-1.4.4-2.1.6-.7.1-1.5.3-2.3.5Z"/>
    <path class="cls-1" d="m13.85,17.7c-.1,0-.2.1-.2.1.6.3,1.3.7,1.9,1,.9.4,1.7.8,2.6,1.1l.2-.2c-.8-.3-1.7-.7-2.6-1.2-.7-.2-1.3-.5-1.9-.8Z"/>
    <path class="cls-1" d="m74.75,11.2c-1.4,0-2.8.1-4.3.3v.2c1.5-.2,2.9-.3,4.3-.3v-.2Z"/>
    <path class="cls-1" d="m30.95,21.5c.7-.1,1.5-.2,2.2-.3.7-.1,1.4-.3,2.1-.4v-.2c-1.5.3-2.9.6-4.4.7v.2h.1Z"/>
    <path class="cls-1" d="m49.55,16.8v.2c.5-.1,1-.3,1.4-.4,1-.3,1.9-.6,2.9-.9v-.2c-1,.3-2,.6-3,.9-.3.1-.8.2-1.3.4Z"/>
    <path class="cls-1" d="m62.65,13.1c-.9.2-1.8.5-2.7.7-.6.1-1.1.3-1.7.5v.2c.6-.2,1.1-.3,1.7-.5.8-.2,1.7-.5,2.6-.7l.1-.2Z"/>
    <path class="cls-1" d="m25.35,21.5c-.6,0-1.3-.1-2-.2v.2c.7.1,1.3.2,1.9.2h2.4v-.1c-.7,0-1.5,0-2.3-.1Z"/>
    <path class="cls-1" d="m4.85,13.7c-1.5-.4-3.1-.6-4.7-.8v.2c1.6.1,3.2.4,4.7.8.1,0,.1-.1,0-.2Z"/>
    <path class="cls-1" d="m49.55,17.4v.2c.1,0,.2-.1.3-.1,1.3-.4,2.7-.7,4.1-1.1v-.2c-1.4.4-2.8.7-4.1,1.1-.1,0-.2,0-.3.1Z"/>
    <path class="cls-1" d="m5.35,14.9c-1.6-.4-3.3-.6-4.9-.8v.2c1.7.1,3.4.3,5,.8-.1,0-.1-.1-.1-.2Z"/>
    <path class="cls-1" d="m74.75,12.4c-1.4,0-2.9.1-4.3.2v.2c1.4-.1,2.9-.2,4.3-.2v-.2Z"/>
    <path class="cls-1" d="m38.45,20.3v.2c.3-.1.6-.1.9-.2,1.2-.3,2.3-.6,3.5-.9v-.2c-1.2.3-2.4.6-3.6.9-.2,0-.5.1-.8.2Z"/>
    <path class="cls-1" d="m12.55,18.2c-.1,0-.2,0-.3.1.1,0,.1.1.2.1.8.4,1.5.9,2.3,1.3s1.7.8,2.4,1.1c.1,0,.1-.1.2-.2-.8-.3-1.7-.7-2.5-1.2-.8-.4-1.6-.8-2.3-1.2Z"/>
    <path class="cls-1" d="m62.65,14c-1.3.3-2.6.6-3.7.9-.2,0-.4.1-.6.1v.2c.2-.1.4-.1.6-.2,1.2-.3,2.4-.6,3.7-.9v-.1Z"/>
    <path class="cls-1" d="m23.85,22.2h-.5v.2h2c.8,0,1.6,0,2.4-.1v-.2c-1.3.1-2.6.1-3.9.1Z"/>
    <path class="cls-1" d="m30.95,22c1.5-.2,2.9-.5,4.4-.8v-.2c-1.5.3-2.9.6-4.4.8,0,0,0,.2,0,.2Z"/>
    <path class="cls-1" d="m38.45,21c1.5-.3,2.9-.7,4.4-1v-.2c-1.5.4-2.9.7-4.4,1v.2Z"/>
    <path class="cls-1" d="m30.95,22.5h0c1.5-.2,2.9-.5,4.4-.8v-.2c-1.4.3-2.9.6-4.4.8,0,0,0,.2,0,.2Z"/>
    <path class="cls-1" d="m12.15,19.1c-.4-.2-.8-.5-1.2-.7h-.5c.5.3,1.1.6,1.6.9.7.4,1.3.8,2,1.2.7.4,1.3.7,2,1,.1,0,.2-.1.2-.1-.7-.3-1.4-.6-2.1-1-.7-.5-1.4-.9-2-1.3Z"/>
    <path class="cls-1" d="m49.55,18.2c1.4-.4,2.9-.7,4.4-1.1v-.2c-1.5.4-2.9.7-4.4,1.1v.2Z"/>
    <path class="cls-1" d="m74.75,13.6c-1.4,0-2.8.1-4.3.2v.2c1.5-.1,2.9-.1,4.3-.2v-.2Z"/>
    <path class="cls-1" d="m6.35,16.5c-.1-.1-.2-.2-.2-.3-1.4-.4-2.8-.7-4.2-.8-.4,0-.8,0-1.2-.1q0,.1.1.2c.3.1.6.1,1,.1,1.6.1,3.1.4,4.5.9Z"/>
    <path class="cls-1" d="m58.35,16.1h0c1.4-.3,2.8-.6,4.3-.9v-.2c-1.5.3-3,.6-4.3.9v.2Z"/>
    <path class="cls-1" d="m34.05,22.5c.4-.1.9-.2,1.3-.3v-.2c-.8.2-1.6.3-2.5.5h1.2Z"/>
    <path class="cls-1" d="m38.45,21.5c1.5-.3,2.9-.6,4.4-1v-.2c-1.5.3-2.9.7-4.4,1v.2Z"/>
    <path class="cls-1" d="m49.55,19c1.4-.3,2.9-.7,4.4-1v-.2c-1.5.3-2.9.7-4.4,1v.2Z"/>
    <path class="cls-1" d="m11.75,20.1c-1.5-.9-3-1.9-4.6-2.5-1.4-.5-3-.8-4.7-.9-.4,0-.8,0-1.2-.1h-.1c0,.1.1.1.1.2h0c.4,0,.8,0,1.2.1,1.6.1,3.2.4,4.6.9,1.7.6,3.2,1.6,4.6,2.5.6.4,1.2.8,1.8,1.2.4.2.8.5,1.2.7.1,0,.2-.1.3-.1-.5-.2-.9-.5-1.4-.7-.5-.5-1.2-.9-1.8-1.3Z"/>
    <path class="cls-1" d="m74.75,14.9h0v-.2h-.3c-1.4,0-2.7.1-4,.1v.2c1.3-.1,2.6-.1,4-.1h.3Z"/>
    <path class="cls-1" d="m62.65,15.9c-1.5.3-3,.6-4.3.9v.2c1.4-.3,2.8-.6,4.3-.9v-.2Z"/>
    <path class="cls-1" d="m49.55,19.7c1.4-.3,2.9-.6,4.4-1v-.1c-1.5.3-2.9.6-4.4,1v.1Z"/>
    <path class="cls-1" d="m74.35,16.1h.5v-.2h-1.1c-1.1,0-2.1.1-3.2.1v.2c1.1,0,2.1-.1,3.2-.1h.6Z"/>
    <path class="cls-1" d="m38.45,22.2c1.5-.3,2.9-.6,4.4-.9v-.2c-1.5.3-2.9.6-4.4.9v.2Z"/>
    <path class="cls-1" d="m62.65,16.9c-1.5.3-2.9.5-4.3.8v.2c1.4-.3,2.8-.5,4.3-.8v-.2Z"/>
    <path class="cls-1" d="m11.55,21c-1.3-.9-2.6-1.8-4.1-2.4-1.3-.5-2.8-.8-4.4-.9-.4,0-.9,0-1.3-.1,0,.1.1.1.1.2.4,0,.8,0,1.2.1,1.6.1,3.1.4,4.3.9,1.5.6,2.8,1.5,4,2.4.5.4,1,.7,1.6,1.1.1.1.2.1.4.2.1,0,.2,0,.3-.1-.2-.1-.4-.2-.5-.3-.6-.4-1.1-.7-1.6-1.1Z"/>
    <path class="cls-1" d="m40.55,22.5c.8-.2,1.6-.3,2.3-.5v-.2c-1.1.2-2.3.5-3.4.7h1.1Z"/>
    <path class="cls-1" d="m62.85,17.8c-1.5.2-3,.5-4.4.8v.2c1.4-.3,2.9-.5,4.5-.8,0-.1-.1-.1-.1-.2Z"/>
    <path class="cls-1" d="m49.55,20.6c1.4-.3,2.9-.6,4.4-.9v-.2c-1.5.3-2.9.6-4.4.9v.2Z"/>
    <path class="cls-1" d="m73.85,17.1h.9v-.2h-1.3c-1,0-2,.1-3,.1v.2c1,0,2-.1,3-.1h.4Z"/>
    <path class="cls-1" d="m7.65,19.6c-1.2-.5-2.6-.7-4.3-.8h-.8q.1.1.2.2h.6c1.6.1,3,.3,4.2.8,1.4.5,2.5,1.4,3.6,2.3.2.2.5.4.7.6h.3c-.3-.2-.6-.5-.9-.7-1-.9-2.2-1.8-3.6-2.4Z"/>
    <path class="cls-1" d="m64.05,18.6c-1.9.3-3.7.6-5.4.9,0,.1.1.1.1.2,2.1-.4,4.3-.7,6.6-1-.5,0-.9,0-1.3-.1Z"/>
    <path class="cls-1" d="m65.65,18.6h.2c.5-.1,1-.1,1.6-.2v-.2h-.3c-.6.2-1,.3-1.5.4Z"/>
    <path class="cls-1" d="m3.75,19.8h-.1c.1.1.2.2.3.2,1.7.1,3,.4,4.1.8,1.1.4,1.9,1.1,2.8,1.8h.3c-.9-.8-1.9-1.5-3-2-1.3-.4-2.7-.7-4.4-.8Z"/>
    <path class="cls-1" d="m49.55,21.4c1.5-.3,2.9-.6,4.4-.9v-.2c-1.5.3-2.9.6-4.4.9v.2Z"/>
    <path class="cls-1" d="m75.25,18.1l-.2-.2h-1.3c-1.1,0-2.1,0-3.2.1v.2c1.1,0,2.1-.1,3.2-.1h1.5Z"/>
    <path class="cls-1" d="m49.55,22.3c1.5-.3,2.9-.6,4.4-.8v-.2c-1.5.3-2.9.6-4.4.8v.2Z"/>
    <path class="cls-1" d="m70.65,19q0,.1.1.2c1-.1,2-.1,2.9-.1,2,0,4-.1,6-.2v-.2c-2,.1-4,.1-6,.2-1,0-2,0-3,.1Z"/>
    <path class="cls-1" d="m4.85,20.9c.1.1.3.2.4.3,1.1.1,2,.4,2.8.7.5.2,1,.5,1.4.8h.4c-.5-.4-1.1-.8-1.8-1-.8-.4-1.9-.7-3.2-.8Z"/>
    <path class="cls-1" d="m59.25,20.5c2.6-.4,5.4-.8,8.3-1.1v-.2c-2.9.3-5.8.7-8.4,1.1,0,.1,0,.2.1.2Z"/>
    <path class="cls-1" d="m53.25,22.5c.2,0,.5-.1.7-.1v-.2c-.6.1-1.2.2-1.8.3,0,0,1.1,0,1.1,0Z"/>
    <path class="cls-1" d="m59.65,21.1q.1.1.2.2c1.9-.3,3.8-.6,5.8-.9.6-.1,1.2-.1,1.8-.2v-.2c-.6.1-1.2.1-1.8.2-2,.3-4.1.6-6,.9Z"/>
    <path class="cls-1" d="m70.95,19.8c0,.1.1.1.1.2.9,0,1.9-.1,2.8-.1,1.9-.1,3.8-.1,5.8-.2v-.2c-1.9.1-3.9.1-5.8.2-1,0-1.9,0-2.9.1Z"/>
    <path class="cls-1" d="m60.55,21.8c.1.1.2.1.3.2,1.7-.3,3.5-.5,5.2-.8.5-.1,1-.1,1.4-.2v-.2c-.5,0-1,.1-1.5.2-1.8.2-3.6.5-5.4.8Z"/>
    <path class="cls-1" d="m71.35,20.6c0,.1.1.1.2.2.9,0,1.8-.1,2.7-.1,1.8-.1,3.6-.1,5.4-.2v-.2c-1.8.1-3.6.1-5.4.2-1,0-1.9,0-2.9.1Z"/>
    <path class="cls-1" d="m72.05,21.3c.1.1.2.1.2.2.8,0,1.7-.1,2.6-.1,1.6-.1,3.2-.1,4.8-.2v-.2c-1.6,0-3.2.1-4.8.2-1,0-1.9,0-2.8.1Z"/>
    <path class="cls-1" d="m61.75,22.4c.1.1.3.1.4.1,1.4-.2,2.9-.4,4.4-.6.3,0,.6-.1.9-.1v-.2c-.3,0-.6.1-.9.1-1.6.2-3.2.5-4.8.7Z"/>
    <path class="cls-1" d="m66.75,22.5c-.8.1-1.6.2-2.4.3.7,0,1.5-.1,2.4-.3Z"/>
    <path class="cls-1" d="m72.95,22c.1,0,.1.1.2.1s.1.1.2.1c.7,0,1.4-.1,2.2-.1,1.4,0,2.8-.1,4.1-.1v-.2c-1.4,0-2.8.1-4.1.1-.9,0-1.8,0-2.6.1Z"/>
    <path class="cls-1" d="m74.35,22.5c.3.1.5.1.8.2h3.1c.3-.1.7-.1,1-.2-1,0-2,0-2.9.1-.6-.1-1.3-.1-2-.1Z"/>
  </g>
  <g>
    <path class="cls-1" d="m84.69,9.82c.1-.48.19-.95.29-1.43.02-.11.04-.23.06-.34.02-.12.07-.21.22-.21.16,0,.23.06.25.21.11.59.23,1.17.34,1.76.09,0,.09-.07.09-.12.07-.56.15-1.12.21-1.68.02-.15.09-.18.21-.17.15.01.1.11.09.2-.1.65-.2,1.29-.29,1.94-.02.15-.09.19-.23.19-.14,0-.28.02-.32-.19-.08-.5-.18-1-.27-1.5-.01-.07-.04-.14-.1-.21-.07.35-.14.7-.21,1.05-.04.21-.08.42-.11.63-.02.18-.11.23-.29.23-.18,0-.24-.06-.26-.24-.08-.63-.19-1.26-.28-1.88-.01-.09-.07-.19.08-.2.11-.01.2,0,.22.15.04.42.1.83.16,1.25.02.19.05.38.08.56.02,0,.04,0,.06,0Z"/>
    <path class="cls-1" d="m95.55,14.35c.38-.35.71-.64,1.02-.95.16-.16.33-.18.5-.14-.22.24-.44.5-.68.74-.14.13-.13.22-.02.36.3.39.6.78.9,1.18-.29.1-.46,0-.61-.22-.19-.27-.4-.53-.59-.8-.09-.12-.13-.13-.27-.04-.33.23-.23.55-.24.85,0,.12.02.24-.17.24-.14,0-.21-.03-.21-.19,0-.99,0-1.98,0-2.97,0-.13.03-.19.18-.19.16,0,.2.07.19.21,0,.53,0,1.06,0,1.59,0,.09,0,.18,0,.33Z"/>
    <path class="cls-1" d="m87.41,13.58c.35-.39.64-.48,1.02-.32.37.15.47.47.48.83.01.42,0,.84,0,1.27,0,.14-.02.22-.19.22-.17,0-.19-.08-.19-.21,0-.41,0-.83,0-1.24,0-.48-.32-.71-.77-.57-.23.07-.36.22-.36.47,0,.45,0,.9,0,1.35,0,.14-.03.21-.19.21-.17,0-.18-.09-.18-.22,0-.97,0-1.94,0-2.91,0-.13,0-.22.18-.22.19,0,.2.1.19.24,0,.36,0,.72,0,1.13Z"/>
    <path class="cls-1" d="m92.8,18.97c.35-.39.64-.48,1.02-.32.37.15.47.47.48.83.01.42,0,.84,0,1.27,0,.14-.02.22-.19.22-.17,0-.19-.08-.19-.22,0-.41,0-.83,0-1.24,0-.48-.32-.71-.77-.57-.23.07-.36.22-.36.47,0,.44,0,.88,0,1.32,0,.14,0,.24-.19.24-.17,0-.18-.09-.18-.22,0-.97,0-1.94,0-2.91,0-.13,0-.22.18-.22.19,0,.19.1.19.24,0,.36,0,.71,0,1.13Z"/>
    <path class="cls-1" d="m88.04,9.91c.19.02.36-.07.49-.23.08-.11.15-.16.27-.05.13.12.03.2-.03.27-.39.49-1.31.43-1.63-.12-.3-.5-.29-1.03,0-1.53.23-.39.77-.55,1.21-.37.39.16.69.69.63,1.1-.02.14-.11.12-.19.12-.41,0-.83.01-1.24,0-.24-.01-.27.1-.23.29.07.35.32.54.73.53Zm-.09-1.09c.13,0,.27,0,.4,0,.26,0,.31-.08.21-.33-.1-.27-.39-.45-.65-.42-.29.03-.55.28-.6.54-.03.15.02.22.18.21.15-.01.3,0,.46,0Z"/>
    <path class="cls-1" d="m86.92,19.84c0-.65.3-1.09.82-1.21.76-.19,1.28.48,1.24,1.13-.01.16-.12.13-.21.13-.4,0-.81.02-1.21,0-.26-.01-.28.11-.24.31.06.24.2.43.45.49.27.06.54.06.74-.18.09-.11.17-.22.31-.06.12.15-.01.24-.1.31-.32.28-.7.35-1.1.21-.46-.16-.62-.54-.68-.98,0-.05,0-.11,0-.13Zm1.02-.22c.14,0,.29-.01.43,0,.26.02.26-.13.2-.3-.08-.26-.36-.46-.63-.45-.28.01-.58.26-.63.54-.03.14,0,.22.17.21.15-.01.3,0,.46,0Z"/>
    <path class="cls-1" d="m85.67,15.57c-.74,0-.84-.1-.84-.83,0-.31,0-.63,0-.94,0-.17-.05-.25-.23-.23-.12.01-.25,0-.38,0-.11,0-.16-.04-.16-.16,0-.11.04-.17.16-.16,0,0,.02,0,.03,0,.56-.03.56-.03.59-.62,0-.13.03-.2.18-.2.14,0,.2.05.18.19,0,0,0,.02,0,.03q.02.6.61.6c.09,0,.18,0,.27,0,.1,0,.18,0,.18.13,0,.12-.04.19-.17.18-.22,0-.45,0-.67,0-.16,0-.22.05-.22.21,0,.42,0,.84,0,1.27,0,.17.06.22.22.21.21-.01.41,0,.62,0,.12,0,.22,0,.23.16,0,.17-.1.16-.21.16-.13,0-.25,0-.38,0Z"/>
    <path class="cls-1" d="m85.2,19.8c0,.22,0,.43,0,.65,0,.15.05.21.2.2.21,0,.41,0,.62,0,.12,0,.24,0,.24.17,0,.18-.12.14-.23.14-.21,0-.41,0-.62,0-.4,0-.58-.17-.58-.57,0-.4,0-.79,0-1.19,0-.18-.05-.27-.24-.25-.12.01-.23,0-.35,0-.12,0-.18-.04-.18-.17,0-.13.07-.14.17-.15.19-.02.43.1.56-.07.12-.15.04-.37.04-.55,0-.14.06-.18.2-.18.13,0,.18.05.17.17,0,.14,0,.29,0,.43-.01.17.06.22.22.21.21-.01.41,0,.62,0,.1,0,.23-.03.23.14,0,.17-.12.17-.24.17-.21,0-.41,0-.62,0-.15,0-.21.04-.2.2,0,.22,0,.43,0,.65Z"/>
    <path class="cls-1" d="m92.82,13.59c.16-.24.34-.37.57-.39.49-.05.88.26.91.78.03.47,0,.95.01,1.43,0,.16-.08.17-.21.17-.13,0-.17-.05-.17-.18,0-.43,0-.86,0-1.29,0-.21-.06-.4-.24-.51-.22-.12-.45-.11-.67.01-.16.09-.22.24-.22.43,0,.44,0,.88,0,1.32,0,.13-.01.22-.18.22-.16,0-.19-.07-.19-.21,0-.61,0-1.22,0-1.83,0-.12-.06-.27.17-.29.25-.01.19.15.21.35Z"/>
    <path class="cls-1" d="m90.97,14.27c0,.27,0,.54,0,.81,0,.13.04.18.17.17.15,0,.31,0,.46,0,.11,0,.16.04.16.16,0,.11-.04.16-.16.16-.56,0-1.11,0-1.67,0-.12,0-.15-.05-.15-.16,0-.12.05-.16.16-.15.02,0,.04,0,.05,0q.6-.02.6-.64c0-.29,0-.58,0-.86,0-.14-.05-.2-.19-.19-.16,0-.32,0-.49,0-.12,0-.15-.07-.15-.17,0-.1.04-.15.14-.14.3,0,.59,0,.89,0,.14,0,.16.08.16.19,0,.28,0,.56,0,.84Z"/>
    <path class="cls-1" d="m90.05,19.82c0,.12,0,.25.03.37.05.25.19.43.45.49.27.06.54.05.74-.19.06-.07.11-.2.24-.08.13.12.04.21-.03.3-.46.54-1.43.36-1.69-.32-.14-.38-.15-.77,0-1.16.24-.64,1.12-.86,1.61-.39.09.08.3.19.06.35-.07.04-.13.06-.19-.02-.22-.3-.52-.34-.84-.2-.33.14-.38.45-.37.77,0,.03,0,.05,0,.08h0Z"/>
    <path class="cls-1" d="m90.82,12.17c.17.02.26.11.25.28-.01.2-.15.25-.32.24-.17,0-.26-.13-.25-.28,0-.19.15-.24.31-.24Z"/>
  </g>
</svg>