<?xml version="1.0" encoding="utf-8"?>
<!-- Generator: Adobe Illustrator 24.2.3, SVG Export Plug-In . SVG Version: 6.00 Build 0)  -->
<svg version="1.1" id="Layer_1" xmlns="http://www.w3.org/2000/svg" xmlns:xlink="http://www.w3.org/1999/xlink" x="0px" y="0px"
	 viewBox="0 0 32.82 26.06" style="enable-background:new 0 0 32.82 26.06;" xml:space="preserve">
<style type="text/css">
	.st0{fill:#FFFFFF;}
</style>
<g>
	<g>
		<path class="st0" d="M9.33,22.26c0,0.22,0.06,0.32,0.34,0.32c0.09,0,0.19-0.01,0.3-0.03v-0.59h0.2v0.75
			c-0.16,0.05-0.35,0.08-0.51,0.08c-0.41,0-0.54-0.19-0.54-0.51v-0.76c0-0.35,0.16-0.51,0.57-0.51c0.14,0,0.3,0.02,0.45,0.05
			l-0.02,0.19c-0.16-0.03-0.3-0.04-0.44-0.04c-0.27,0-0.35,0.09-0.35,0.32V22.26z M10.61,22.76v-1.79l0.2-0.03v1.82H10.61z
			 M11.69,22.79c-0.35,0-0.48-0.21-0.48-0.48v-0.37c0-0.27,0.14-0.48,0.48-0.48c0.35,0,0.48,0.21,0.48,0.48v0.37
			C12.17,22.58,12.04,22.79,11.69,22.79 M11.69,21.66c-0.19,0-0.28,0.09-0.28,0.28v0.38c0,0.19,0.09,0.28,0.28,0.28
			c0.19,0,0.28-0.09,0.28-0.28v-0.38C11.97,21.75,11.88,21.66,11.69,21.66 M13.49,22.31c0,0.29-0.1,0.47-0.5,0.47
			c-0.11,0-0.29-0.02-0.42-0.05v-1.76l0.2-0.03v0.61c0.08-0.05,0.22-0.09,0.38-0.09c0.25,0,0.35,0.15,0.35,0.4V22.31z M12.77,22.58
			c0.08,0.01,0.16,0.02,0.23,0.02c0.24,0,0.29-0.1,0.29-0.27v-0.47c0-0.13-0.05-0.2-0.19-0.2c-0.1,0-0.25,0.06-0.33,0.1V22.58z
			 M14.73,22.76h-0.17l-0.01-0.09c-0.11,0.08-0.24,0.12-0.39,0.12c-0.22,0-0.31-0.14-0.31-0.36c0-0.26,0.12-0.36,0.36-0.36h0.32
			v-0.2c0-0.16-0.07-0.21-0.26-0.21c-0.11,0-0.26,0.02-0.36,0.04l-0.02-0.17c0.11-0.03,0.26-0.05,0.39-0.05
			c0.34,0,0.45,0.14,0.45,0.41V22.76z M14.53,22.25h-0.3c-0.13,0-0.17,0.04-0.17,0.17c0,0.13,0.02,0.18,0.17,0.18
			c0.1,0,0.22-0.04,0.31-0.1V22.25z M15.15,22.76v-1.79l0.2-0.03v1.82H15.15z M16.63,22.76h-0.21v-1.74h0.21V22.76z M17.82,22.76
			v-0.97c0-0.08-0.04-0.12-0.11-0.12c-0.09,0-0.27,0.06-0.4,0.13v0.96H17.1v-1.27h0.17l0.02,0.11c0.13-0.07,0.34-0.14,0.48-0.14
			c0.19,0,0.26,0.13,0.26,0.32v0.97H17.82z M19.08,22.74c-0.07,0.03-0.16,0.05-0.25,0.05c-0.2,0-0.29-0.08-0.29-0.29v-0.82h-0.21
			v-0.18h0.21v-0.31l0.2-0.03v0.34h0.34l-0.02,0.18h-0.32v0.79c0,0.09,0.01,0.14,0.12,0.14c0.06,0,0.11-0.01,0.19-0.03L19.08,22.74z
			 M19.85,22.6c0.12,0,0.25-0.02,0.38-0.06l0.03,0.17c-0.11,0.04-0.27,0.07-0.42,0.07c-0.35,0-0.47-0.18-0.47-0.47v-0.38
			c0-0.26,0.11-0.47,0.47-0.47c0.35,0,0.45,0.22,0.45,0.48v0.27h-0.71v0.11C19.57,22.52,19.62,22.6,19.85,22.6 M19.57,22.03h0.51
			v-0.1c0-0.18-0.06-0.28-0.25-0.28c-0.19,0-0.26,0.1-0.26,0.28V22.03z M20.66,22.76v-1.79l0.2-0.03v1.82H20.66z M21.31,22.76v-1.79
			l0.2-0.03v1.82H21.31z M21.97,20.97h0.2v0.32h-0.2V20.97z M21.97,21.49h0.2v1.27h-0.2V21.49z M23.55,21.62l-0.14,0.03
			c0.04,0.07,0.07,0.15,0.07,0.25c0,0.33-0.16,0.49-0.47,0.49c-0.04,0-0.09,0-0.12-0.01c-0.04,0.04-0.09,0.08-0.09,0.14
			c0,0.05,0.02,0.07,0.08,0.07l0.34,0.04c0.21,0.02,0.3,0.11,0.3,0.3c0,0.28-0.09,0.37-0.52,0.37c-0.11,0-0.3-0.02-0.43-0.06
			l0.03-0.17c0.12,0.03,0.28,0.05,0.4,0.05c0.3,0,0.33-0.04,0.33-0.18c0-0.11-0.04-0.13-0.18-0.14l-0.31-0.03
			c-0.18-0.02-0.23-0.11-0.23-0.23c0-0.09,0.05-0.17,0.11-0.22c-0.11-0.07-0.17-0.19-0.17-0.36c0-0.33,0.12-0.49,0.46-0.49
			c0.06,0,0.14,0.01,0.2,0.03h0.34V21.62z M23,21.65c-0.2,0-0.27,0.07-0.27,0.26c0,0.25,0.08,0.31,0.27,0.31s0.27-0.09,0.27-0.25
			C23.27,21.72,23.2,21.65,23,21.65 M24.31,22.6c0.12,0,0.25-0.02,0.38-0.06l0.03,0.17c-0.11,0.04-0.27,0.07-0.42,0.07
			c-0.35,0-0.47-0.18-0.47-0.47v-0.38c0-0.26,0.11-0.47,0.47-0.47c0.35,0,0.45,0.22,0.45,0.48v0.27h-0.71v0.11
			C24.03,22.52,24.08,22.6,24.31,22.6 M24.03,22.03h0.51v-0.1c0-0.18-0.06-0.28-0.25-0.28c-0.19,0-0.26,0.1-0.26,0.28V22.03z
			 M25.83,22.76v-0.97c0-0.08-0.04-0.12-0.11-0.12c-0.09,0-0.27,0.06-0.4,0.13v0.96h-0.21v-1.27h0.17l0.02,0.11
			c0.13-0.07,0.34-0.14,0.48-0.14c0.19,0,0.26,0.13,0.26,0.32v0.97H25.83z M27.1,22.74c-0.07,0.03-0.16,0.05-0.25,0.05
			c-0.2,0-0.3-0.08-0.3-0.29v-0.82h-0.21v-0.18h0.21v-0.31l0.2-0.03v0.34h0.34l-0.02,0.18h-0.32v0.79c0,0.09,0.01,0.14,0.12,0.14
			c0.06,0,0.12-0.01,0.19-0.03L27.1,22.74z M9.58,23.51H9.1v-0.2h1.18v0.2H9.79v1.53H9.58V23.51z M11.01,24.88
			c0.12,0,0.25-0.02,0.38-0.06l0.03,0.17c-0.11,0.04-0.27,0.07-0.42,0.07c-0.35,0-0.47-0.18-0.47-0.47v-0.38
			c0-0.26,0.11-0.47,0.47-0.47c0.35,0,0.45,0.22,0.45,0.48v0.27h-0.71v0.11C10.72,24.8,10.78,24.88,11.01,24.88 M10.72,24.31h0.51
			v-0.1c0-0.18-0.06-0.28-0.25-0.28c-0.19,0-0.26,0.1-0.26,0.28V24.31z M11.74,24.61v-0.4c0-0.29,0.1-0.46,0.47-0.46
			c0.1,0,0.22,0.02,0.28,0.04l-0.02,0.18c-0.09-0.02-0.18-0.03-0.26-0.03c-0.21,0-0.27,0.06-0.27,0.26v0.41
			c0,0.2,0.07,0.26,0.27,0.26c0.08,0,0.17-0.01,0.26-0.03l0.02,0.18c-0.06,0.02-0.18,0.04-0.28,0.04
			C11.83,25.07,11.74,24.9,11.74,24.61 M13.59,25.04v-0.97c0-0.08-0.04-0.12-0.11-0.12c-0.09,0-0.27,0.06-0.4,0.13v0.96h-0.2v-1.79
			l0.2-0.03v0.66c0.13-0.07,0.32-0.13,0.46-0.13c0.19,0,0.26,0.13,0.26,0.32v0.97H13.59z M14.95,25.04v-0.97
			c0-0.08-0.04-0.12-0.11-0.12c-0.09,0-0.27,0.06-0.4,0.13v0.96h-0.2v-1.27h0.17l0.02,0.11c0.13-0.07,0.34-0.14,0.48-0.14
			c0.19,0,0.26,0.13,0.26,0.32v0.97H14.95z M16.01,25.07c-0.35,0-0.48-0.21-0.48-0.48v-0.37c0-0.27,0.14-0.48,0.48-0.48
			c0.35,0,0.48,0.21,0.48,0.48v0.37C16.5,24.86,16.36,25.07,16.01,25.07 M16.01,23.94c-0.19,0-0.28,0.09-0.28,0.28v0.38
			c0,0.18,0.09,0.28,0.28,0.28c0.19,0,0.28-0.09,0.28-0.28v-0.38C16.29,24.03,16.2,23.94,16.01,23.94 M16.89,25.04v-1.79l0.2-0.03
			v1.82H16.89z M17.96,25.07c-0.35,0-0.48-0.21-0.48-0.48v-0.37c0-0.27,0.14-0.48,0.48-0.48c0.35,0,0.48,0.21,0.48,0.48v0.37
			C18.45,24.86,18.31,25.07,17.96,25.07 M17.96,23.94c-0.19,0-0.28,0.09-0.28,0.28v0.38c0,0.18,0.09,0.28,0.28,0.28
			c0.19,0,0.28-0.09,0.28-0.28v-0.38C18.24,24.03,18.15,23.94,17.96,23.94 M19.76,23.9l-0.14,0.03c0.04,0.07,0.07,0.15,0.07,0.25
			c0,0.33-0.16,0.49-0.47,0.49c-0.04,0-0.09,0-0.12-0.01c-0.04,0.04-0.09,0.08-0.09,0.14c0,0.05,0.02,0.07,0.08,0.07l0.34,0.04
			c0.21,0.02,0.3,0.11,0.3,0.3c0,0.28-0.09,0.37-0.52,0.37c-0.11,0-0.3-0.02-0.43-0.06l0.03-0.17c0.12,0.03,0.28,0.05,0.4,0.05
			c0.3,0,0.33-0.04,0.33-0.18c0-0.11-0.04-0.13-0.18-0.14l-0.31-0.03c-0.18-0.02-0.23-0.12-0.23-0.23c0-0.09,0.05-0.17,0.11-0.22
			c-0.11-0.07-0.17-0.19-0.17-0.36c0-0.33,0.12-0.49,0.46-0.49c0.06,0,0.14,0.01,0.2,0.03h0.34V23.9z M19.22,23.93
			c-0.2,0-0.27,0.07-0.27,0.26c0,0.25,0.08,0.31,0.27,0.31c0.19,0,0.27-0.09,0.27-0.25C19.49,24,19.41,23.93,19.22,23.93
			 M20.09,23.25h0.2v0.32h-0.2V23.25z M20.09,23.77h0.2v1.27h-0.2V23.77z M21.18,24.88c0.12,0,0.25-0.02,0.38-0.06l0.03,0.17
			c-0.11,0.04-0.27,0.07-0.42,0.07c-0.35,0-0.47-0.18-0.47-0.47v-0.38c0-0.26,0.11-0.47,0.47-0.47c0.35,0,0.45,0.22,0.45,0.48v0.27
			h-0.71v0.11C20.89,24.8,20.94,24.88,21.18,24.88 M20.89,24.31h0.51v-0.1c0-0.18-0.06-0.28-0.25-0.28c-0.19,0-0.26,0.1-0.26,0.28
			V24.31z M22.31,25.07c-0.12,0-0.28-0.03-0.38-0.07l0.03-0.17c0.1,0.03,0.24,0.05,0.34,0.05c0.19,0,0.22-0.04,0.22-0.17
			c0-0.14-0.01-0.15-0.25-0.21c-0.3-0.08-0.32-0.14-0.32-0.41c0-0.23,0.1-0.34,0.41-0.34c0.11,0,0.24,0.02,0.34,0.04l-0.01,0.18
			c-0.1-0.02-0.23-0.04-0.33-0.04c-0.18,0-0.2,0.04-0.2,0.16c0,0.14,0,0.17,0.2,0.22c0.34,0.09,0.37,0.14,0.37,0.39
			C22.72,24.95,22.65,25.07,22.31,25.07 M31.89,19.06l-0.18-0.78c-0.02-0.07-0.06-0.13-0.12-0.16c-0.06-0.04-0.13-0.04-0.19-0.02
			c-0.45,0.15-0.93,0.23-1.34,0.23c-0.62,0-0.67-0.12-0.67-0.8v-5.57h2.08c0.12,0,0.22-0.1,0.24-0.23l0.1-0.87
			c0.01-0.07-0.01-0.15-0.06-0.2c-0.04-0.05-0.11-0.09-0.18-0.09h-2.18V8.7c0-0.07-0.03-0.15-0.08-0.2
			c-0.05-0.05-0.12-0.07-0.19-0.06l-0.94,0.14c-0.12,0.02-0.21,0.13-0.21,0.25v8.79c0,1.46,0.61,2.08,2.03,2.08
			c0.57,0,1.23-0.13,1.74-0.35C31.85,19.32,31.91,19.19,31.89,19.06 M4.25,10.41c-2.15,0-3.33,1.6-3.33,3.32v2.65
			c0,2.14,1.18,3.33,3.31,3.33c0.75,0,1.38-0.15,1.88-0.43v0.45c0,0.86-0.07,0.93-1.25,2.04l-0.18,0.17
			c-0.05,0.05-0.08,0.11-0.08,0.18c0,0.07,0.02,0.14,0.06,0.19l0.62,0.73c0.04,0.05,0.1,0.08,0.17,0.08c0.06,0,0.13-0.02,0.17-0.07
			l0.22-0.22c1.43-1.39,1.69-1.64,1.69-2.96v-6.19C7.54,11.43,6.55,10.41,4.25,10.41 M6.12,16.46c0,1.31-0.56,1.87-1.88,1.87
			c-1.32,0-1.88-0.56-1.88-1.87v-2.72c0-0.9,0.56-1.87,1.88-1.87c1.32,0,1.88,0.3,1.88,2.03V16.46z M13.37,10.58h-0.94
			c-0.13,0-0.24,0.12-0.24,0.26v8.44c0,0.14,0.11,0.26,0.24,0.26h0.94c0.13,0,0.24-0.12,0.24-0.26v-8.44
			C13.62,10.69,13.51,10.58,13.37,10.58 M10.1,6.99L9.16,7.13C9.04,7.15,8.95,7.26,8.95,7.39v11.89c0,0.14,0.11,0.26,0.24,0.26h0.94
			c0.13,0,0.24-0.12,0.24-0.26V7.25c0-0.07-0.03-0.15-0.08-0.19C10.24,7,10.17,6.98,10.1,6.99 M19.64,10.41
			c-0.77,0-1.8,0.3-2.65,0.65l-0.21,0.09l-0.14,0.06c-0.39,0.17-0.9,0.4-1.17,0.56c-0.09,0.05-0.17,0.16-0.17,0.26v7.24
			c0,0.14,0.11,0.26,0.24,0.26h0.94c0.13,0,0.24-0.12,0.24-0.26v-6.55c0.97-0.52,2.23-0.87,2.79-0.87c0.46,0,0.62,0.15,0.62,0.59
			v6.83c0,0.14,0.11,0.26,0.24,0.26h0.94c0.13,0,0.24-0.12,0.24-0.26v-6.71C21.56,11.13,20.91,10.41,19.64,10.41 M26.88,18.28
			c-0.02-0.07-0.06-0.13-0.12-0.16c-0.06-0.03-0.13-0.04-0.19-0.02c-0.45,0.15-0.92,0.23-1.34,0.23c-0.62,0-0.67-0.12-0.67-0.8
			v-5.57h2.08c0.12,0,0.22-0.1,0.24-0.23l0.1-0.87c0.01-0.07-0.01-0.15-0.06-0.2c-0.05-0.05-0.11-0.09-0.18-0.09h-2.18V8.7
			c0-0.07-0.03-0.15-0.08-0.2c-0.05-0.05-0.12-0.07-0.19-0.06l-0.94,0.14c-0.12,0.02-0.21,0.13-0.21,0.26v8.79
			c0,1.46,0.61,2.08,2.03,2.08c0.57,0,1.23-0.13,1.74-0.35c0.11-0.05,0.17-0.18,0.15-0.3L26.88,18.28z M29.23,1.98l-1.44,3.66
			l0.93,0.42l1.44-3.66L29.23,1.98z M17.52,4.93l3.76,3.17l0.63-0.85l-3.76-3.17L17.52,4.93z M22.94,0.76l1.41,5.65l0.98-0.28
			l-1.41-5.65L22.94,0.76z"/>
	</g>
</g>
</svg>
