<?xml version="1.0" encoding="utf-8"?>
<!-- Generator: Adobe Illustrator 23.0.3, SVG Export Plug-In . SVG Version: 6.00 Build 0)  -->
<svg version="1.1" id="Layer_1" xmlns="http://www.w3.org/2000/svg" xmlns:xlink="http://www.w3.org/1999/xlink" x="0px" y="0px"
	 viewBox="0 0 55 44.6" style="enable-background:new 0 0 55 44.6;" xml:space="preserve">
<style type="text/css">
	.st0{clip-path:url(#SVGID_2_);fill:#231F20;}
	.st1{clip-path:url(#SVGID_2_);fill:none;stroke:#FFFFFF;stroke-miterlimit:10;}
	.st2{clip-path:url(#SVGID_2_);}
	.st3{clip-path:url(#SVGID_4_);fill:none;stroke:#FFFFFF;stroke-miterlimit:10;}
	.st4{clip-path:url(#SVGID_6_);fill:none;stroke:#FFFFFF;stroke-miterlimit:10;}
	.st5{clip-path:url(#SVGID_6_);fill:#FEEDE8;}
	.st6{clip-path:url(#SVGID_6_);fill:#0D0D0D;}
	.st7{clip-path:url(#SVGID_8_);}
	.st8{fill:#231F20;}
	.st9{fill:#0D0D0D;}
	.st10{fill:none;stroke:#FEEDE8;stroke-width:1.099;stroke-miterlimit:10;}
	.st11{fill:#FFFFFF;}
	.st12{fill:none;stroke:#FFFFFF;stroke-width:0.193;stroke-miterlimit:10;}
	.st13{clip-path:url(#SVGID_14_);}
	.st14{fill-rule:evenodd;clip-rule:evenodd;fill:#FFFFFF;}
</style>
<path class="st11" d="M14.9,38.7c0,0.4,0.1,0.6,0.6,0.6c0.2,0,0.3,0,0.5-0.1v-1h0.4v1.3c-0.3,0.1-0.6,0.1-0.9,0.1
	c-0.7,0-1-0.3-1-0.9v-1.4c0-0.6,0.3-0.9,1-0.9c0.2,0,0.5,0,0.8,0.1l0,0.3c-0.3-0.1-0.5-0.1-0.8-0.1c-0.5,0-0.6,0.2-0.6,0.6V38.7z
	 M17.2,39.6v-3.2l0.4-0.1v3.2H17.2z M19.1,39.6c-0.6,0-0.9-0.4-0.9-0.8v-0.7c0-0.5,0.2-0.8,0.9-0.8s0.9,0.4,0.9,0.8v0.7
	C20,39.3,19.8,39.6,19.1,39.6 M19.1,37.6c-0.3,0-0.5,0.2-0.5,0.5v0.7c0,0.3,0.2,0.5,0.5,0.5s0.5-0.2,0.5-0.5v-0.7
	C19.6,37.8,19.5,37.6,19.1,37.6 M22.3,38.8c0,0.5-0.2,0.8-0.9,0.8c-0.2,0-0.5,0-0.8-0.1v-3.1l0.4-0.1v1.1c0.1-0.1,0.4-0.2,0.7-0.2
	c0.4,0,0.6,0.3,0.6,0.7V38.8z M21.1,39.3c0.1,0,0.3,0,0.4,0c0.4,0,0.5-0.2,0.5-0.5V38c0-0.2-0.1-0.3-0.3-0.3c-0.2,0-0.4,0.1-0.6,0.2
	V39.3z M24.5,39.6h-0.3l0-0.2c-0.2,0.1-0.4,0.2-0.7,0.2c-0.4,0-0.6-0.3-0.6-0.6c0-0.5,0.2-0.6,0.6-0.6h0.6V38c0-0.3-0.1-0.4-0.5-0.4
	c-0.2,0-0.5,0-0.6,0.1l0-0.3c0.2-0.1,0.5-0.1,0.7-0.1c0.6,0,0.8,0.3,0.8,0.7V39.6z M24.2,38.7h-0.5c-0.2,0-0.3,0.1-0.3,0.3
	c0,0.2,0,0.3,0.3,0.3c0.2,0,0.4-0.1,0.5-0.2V38.7z M25.3,39.6v-3.2l0.4-0.1v3.2H25.3z M27.9,39.6h-0.4v-3.1h0.4V39.6z M30,39.6v-1.7
	c0-0.1-0.1-0.2-0.2-0.2c-0.2,0-0.5,0.1-0.7,0.2v1.7h-0.4v-2.3h0.3l0,0.2c0.2-0.1,0.6-0.2,0.8-0.2c0.3,0,0.5,0.2,0.5,0.6v1.7H30z
	 M32.3,39.6c-0.1,0-0.3,0.1-0.4,0.1c-0.4,0-0.5-0.1-0.5-0.5v-1.5h-0.4v-0.3h0.4v-0.6l0.4-0.1v0.6h0.6l0,0.3h-0.6v1.4
	c0,0.2,0,0.3,0.2,0.3c0.1,0,0.2,0,0.3-0.1L32.3,39.6z M33.6,39.3c0.2,0,0.4,0,0.7-0.1l0,0.3c-0.2,0.1-0.5,0.1-0.7,0.1
	c-0.6,0-0.8-0.3-0.8-0.8v-0.7c0-0.5,0.2-0.8,0.8-0.8c0.6,0,0.8,0.4,0.8,0.9v0.5h-1.3v0.2C33.1,39.2,33.2,39.3,33.6,39.3 M33.1,38.3
	H34v-0.2c0-0.3-0.1-0.5-0.4-0.5c-0.3,0-0.5,0.2-0.5,0.5V38.3z M35.1,39.6v-3.2l0.4-0.1v3.2H35.1z M36.2,39.6v-3.2l0.4-0.1v3.2H36.2z
	 M37.4,36.4h0.4V37h-0.4V36.4z M37.4,37.3h0.4v2.3h-0.4V37.3z M40.2,37.6L40,37.6c0.1,0.1,0.1,0.3,0.1,0.4c0,0.6-0.3,0.9-0.8,0.9
	c-0.1,0-0.2,0-0.2,0c-0.1,0.1-0.1,0.1-0.1,0.2c0,0.1,0,0.1,0.1,0.1l0.6,0.1c0.4,0,0.5,0.2,0.5,0.5c0,0.5-0.2,0.7-0.9,0.7
	c-0.2,0-0.5,0-0.8-0.1l0.1-0.3c0.2,0.1,0.5,0.1,0.7,0.1c0.5,0,0.6-0.1,0.6-0.3c0-0.2-0.1-0.2-0.3-0.2l-0.6-0.1
	c-0.3,0-0.4-0.2-0.4-0.4c0-0.2,0.1-0.3,0.2-0.4c-0.2-0.1-0.3-0.3-0.3-0.6c0-0.6,0.2-0.9,0.8-0.9c0.1,0,0.3,0,0.4,0h0.6V37.6z
	 M39.2,37.6c-0.4,0-0.5,0.1-0.5,0.5c0,0.4,0.1,0.5,0.5,0.5c0.3,0,0.5-0.2,0.5-0.4C39.7,37.8,39.6,37.6,39.2,37.6 M41.6,39.3
	c0.2,0,0.4,0,0.7-0.1l0,0.3c-0.2,0.1-0.5,0.1-0.7,0.1c-0.6,0-0.8-0.3-0.8-0.8v-0.7c0-0.5,0.2-0.8,0.8-0.8c0.6,0,0.8,0.4,0.8,0.9v0.5
	h-1.3v0.2C41.1,39.2,41.1,39.3,41.6,39.3 M41.1,38.3H42v-0.2c0-0.3-0.1-0.5-0.4-0.5s-0.5,0.2-0.5,0.5V38.3z M44.3,39.6v-1.7
	c0-0.1-0.1-0.2-0.2-0.2c-0.2,0-0.5,0.1-0.7,0.2v1.7H43v-2.3h0.3l0,0.2c0.2-0.1,0.6-0.2,0.8-0.2c0.3,0,0.5,0.2,0.5,0.6v1.7H44.3z
	 M46.5,39.6c-0.1,0-0.3,0.1-0.4,0.1c-0.4,0-0.5-0.1-0.5-0.5v-1.5h-0.4v-0.3h0.4v-0.6l0.4-0.1v0.6h0.6l0,0.3h-0.6v1.4
	c0,0.2,0,0.3,0.2,0.3c0.1,0,0.2,0,0.3-0.1L46.5,39.6z M15.4,40.9h-0.9v-0.4h2.1v0.4h-0.9v2.7h-0.4V40.9z M17.9,43.4
	c0.2,0,0.4,0,0.7-0.1l0,0.3c-0.2,0.1-0.5,0.1-0.7,0.1c-0.6,0-0.8-0.3-0.8-0.8v-0.7c0-0.5,0.2-0.8,0.8-0.8c0.6,0,0.8,0.4,0.8,0.9v0.5
	h-1.3v0.2C17.4,43.2,17.5,43.4,17.9,43.4 M17.4,42.4h0.9v-0.2c0-0.3-0.1-0.5-0.4-0.5c-0.3,0-0.5,0.2-0.5,0.5V42.4z M19.2,42.9v-0.7
	c0-0.5,0.2-0.8,0.8-0.8c0.2,0,0.4,0,0.5,0.1l0,0.3c-0.2,0-0.3-0.1-0.5-0.1c-0.4,0-0.5,0.1-0.5,0.5v0.7c0,0.4,0.1,0.5,0.5,0.5
	c0.1,0,0.3,0,0.5-0.1l0,0.3c-0.1,0-0.3,0.1-0.5,0.1C19.4,43.7,19.2,43.4,19.2,42.9 M22.5,43.7v-1.7c0-0.1-0.1-0.2-0.2-0.2
	c-0.2,0-0.5,0.1-0.7,0.2v1.7h-0.4v-3.2l0.4-0.1v1.2c0.2-0.1,0.6-0.2,0.8-0.2c0.3,0,0.5,0.2,0.5,0.6v1.7H22.5z M24.9,43.7v-1.7
	c0-0.1-0.1-0.2-0.2-0.2c-0.2,0-0.5,0.1-0.7,0.2v1.7h-0.4v-2.3h0.3l0,0.2c0.2-0.1,0.6-0.2,0.8-0.2c0.3,0,0.5,0.2,0.5,0.6v1.7H24.9z
	 M26.8,43.7c-0.6,0-0.9-0.4-0.9-0.8v-0.7c0-0.5,0.2-0.8,0.9-0.8c0.6,0,0.9,0.4,0.9,0.8v0.7C27.7,43.3,27.4,43.7,26.8,43.7
	 M26.8,41.7c-0.3,0-0.5,0.2-0.5,0.5v0.7c0,0.3,0.2,0.5,0.5,0.5c0.3,0,0.5-0.2,0.5-0.5v-0.7C27.3,41.9,27.1,41.7,26.8,41.7
	 M28.4,43.7v-3.2l0.4-0.1v3.2H28.4z M30.3,43.7c-0.6,0-0.9-0.4-0.9-0.8v-0.7c0-0.5,0.2-0.8,0.9-0.8c0.6,0,0.9,0.4,0.9,0.8v0.7
	C31.1,43.3,30.9,43.7,30.3,43.7 M30.3,41.7c-0.3,0-0.5,0.2-0.5,0.5v0.7c0,0.3,0.2,0.5,0.5,0.5c0.3,0,0.5-0.2,0.5-0.5v-0.7
	C30.8,41.9,30.6,41.7,30.3,41.7 M33.5,41.6l-0.3,0.1c0.1,0.1,0.1,0.3,0.1,0.4c0,0.6-0.3,0.9-0.8,0.9c-0.1,0-0.2,0-0.2,0
	c-0.1,0.1-0.2,0.1-0.2,0.2c0,0.1,0,0.1,0.1,0.1l0.6,0.1c0.4,0,0.5,0.2,0.5,0.5c0,0.5-0.2,0.7-0.9,0.7c-0.2,0-0.5,0-0.8-0.1l0.1-0.3
	c0.2,0.1,0.5,0.1,0.7,0.1c0.5,0,0.6-0.1,0.6-0.3c0-0.2-0.1-0.2-0.3-0.2l-0.6-0.1c-0.3,0-0.4-0.2-0.4-0.4c0-0.2,0.1-0.3,0.2-0.4
	c-0.2-0.1-0.3-0.3-0.3-0.6c0-0.6,0.2-0.9,0.8-0.9c0.1,0,0.3,0,0.4,0h0.6V41.6z M32.5,41.7c-0.4,0-0.5,0.1-0.5,0.5
	c0,0.4,0.1,0.5,0.5,0.5c0.3,0,0.5-0.2,0.5-0.5C33,41.8,32.9,41.7,32.5,41.7 M34.1,40.5h0.4V41h-0.4V40.5z M34.1,41.4h0.4v2.3h-0.4
	V41.4z M36,43.4c0.2,0,0.4,0,0.7-0.1l0,0.3c-0.2,0.1-0.5,0.1-0.7,0.1c-0.6,0-0.8-0.3-0.8-0.8v-0.7c0-0.5,0.2-0.8,0.8-0.8
	c0.6,0,0.8,0.4,0.8,0.9v0.5h-1.3v0.2C35.5,43.2,35.6,43.4,36,43.4 M35.5,42.4h0.9v-0.2c0-0.3-0.1-0.5-0.4-0.5
	c-0.3,0-0.5,0.2-0.5,0.5V42.4z M38,43.7c-0.2,0-0.5-0.1-0.7-0.1l0-0.3c0.2,0.1,0.4,0.1,0.6,0.1c0.3,0,0.4-0.1,0.4-0.3
	c0-0.2,0-0.3-0.4-0.4c-0.5-0.1-0.6-0.3-0.6-0.7c0-0.4,0.2-0.6,0.7-0.6c0.2,0,0.4,0,0.6,0.1l0,0.3c-0.2,0-0.4-0.1-0.6-0.1
	c-0.3,0-0.4,0.1-0.4,0.3c0,0.3,0,0.3,0.4,0.4c0.6,0.2,0.7,0.2,0.7,0.7C38.7,43.5,38.6,43.7,38,43.7 M55,33l-0.3-1.4
	c0-0.1-0.1-0.2-0.2-0.3c-0.1-0.1-0.2-0.1-0.3,0c-0.8,0.3-1.6,0.4-2.4,0.4c-1.1,0-1.2-0.2-1.2-1.4v-9.9h3.7c0.2,0,0.4-0.2,0.4-0.4
	l0.2-1.5c0-0.1,0-0.3-0.1-0.4C54.7,18,54.6,18,54.5,18h-3.9v-3.3c0-0.1-0.1-0.3-0.1-0.3c-0.1-0.1-0.2-0.1-0.3-0.1l-1.7,0.2
	c-0.2,0-0.4,0.2-0.4,0.5v15.6c0,2.6,1.1,3.7,3.6,3.7c1,0,2.2-0.2,3.1-0.6C55,33.5,55.1,33.3,55,33 M5.9,17.6c-3.8,0-5.9,2.8-5.9,5.9
	v4.7c0,3.8,2.1,5.9,5.9,5.9c1.3,0,2.5-0.3,3.3-0.8v0.8c0,1.5-0.1,1.6-2.2,3.6l-0.3,0.3c-0.1,0.1-0.1,0.2-0.1,0.3
	c0,0.1,0,0.2,0.1,0.3l1.1,1.3c0.1,0.1,0.2,0.1,0.3,0.2c0.1,0,0.2,0,0.3-0.1l0.4-0.4c2.5-2.5,3-2.9,3-5.3v-11
	C11.8,19.5,10,17.6,5.9,17.6 M9.2,28.4c0,2.3-1,3.3-3.3,3.3c-2.3,0-3.3-1-3.3-3.3v-4.8c0-1.6,1-3.3,3.3-3.3s3.3,0.5,3.3,3.6V28.4z
	 M22.1,18h-1.7c-0.2,0-0.4,0.2-0.4,0.5v15c0,0.3,0.2,0.5,0.4,0.5h1.7c0.2,0,0.4-0.2,0.4-0.5v-15C22.6,18.2,22.4,18,22.1,18
	 M16.3,11.6l-1.7,0.2c-0.2,0-0.4,0.2-0.4,0.5v21.1c0,0.3,0.2,0.5,0.4,0.5h1.7c0.2,0,0.4-0.2,0.4-0.5V12c0-0.1-0.1-0.3-0.1-0.3
	C16.6,11.6,16.4,11.6,16.3,11.6 M33.3,17.6c-1.4,0-3.2,0.5-4.7,1.2L28.2,19l-0.3,0.1c-0.7,0.3-1.6,0.7-2.1,1
	c-0.2,0.1-0.3,0.3-0.3,0.5v12.9c0,0.3,0.2,0.5,0.4,0.5h1.7c0.2,0,0.4-0.2,0.4-0.5V21.8c1.7-0.9,4-1.6,5-1.6c0.8,0,1.1,0.3,1.1,1.1
	v12.1c0,0.3,0.2,0.5,0.4,0.5h1.7c0.2,0,0.4-0.2,0.4-0.5V21.5C36.7,18.9,35.5,17.6,33.3,17.6 M46.1,31.6c0-0.1-0.1-0.2-0.2-0.3
	c-0.1-0.1-0.2-0.1-0.3,0c-0.8,0.3-1.6,0.4-2.4,0.4c-1.1,0-1.2-0.2-1.2-1.4v-9.9h3.7c0.2,0,0.4-0.2,0.4-0.4l0.2-1.5
	c0-0.1,0-0.3-0.1-0.4C46.1,18,46,18,45.9,18H42v-3.3c0-0.1-0.1-0.3-0.1-0.3c-0.1-0.1-0.2-0.1-0.3-0.1l-1.7,0.2
	c-0.2,0-0.4,0.2-0.4,0.5v15.6c0,2.6,1.1,3.7,3.6,3.7c1,0,2.2-0.2,3.1-0.6c0.2-0.1,0.3-0.3,0.3-0.5L46.1,31.6z M50.3,2.7l-2.6,6.5
	l1.7,0.7L52,3.4L50.3,2.7z M29.5,7.9l6.7,5.6l1.1-1.5l-6.7-5.6L29.5,7.9z M39.1,0.5l2.5,10l1.7-0.5L40.9,0L39.1,0.5z"/>
</svg>
