<?xml version="1.0" encoding="utf-8"?>
<!-- Generator: Adobe Illustrator 23.1.0, SVG Export Plug-In . SVG Version: 6.00 Build 0)  -->
<svg version="1.1" id="Layer_1" xmlns="http://www.w3.org/2000/svg" xmlns:xlink="http://www.w3.org/1999/xlink" x="0px" y="0px"
	 viewBox="0 0 2486.6 2152.2" style="enable-background:new 0 0 2486.6 2152.2;" xml:space="preserve">
<style type="text/css">
	.st0{fill:#FFFFFF;}
</style>
<g>
	<g>
		<path class="st0" d="M1071.9,136.5c-2.2,53.2-43.8,78.9-84.4,78.9c-48.8,0-97.6-40-97.6-97.8c0-57.9,49.3-97.8,96.8-97.8
			c18.6,0,32.9,4.4,43.3,9.9c12.1,7.4,20.3,15.1,20.3,26.3c0,13.1-10.4,20.3-20.8,20.3c-8.5,0-14.3-4.1-17-5.7
			c-1.9-0.8-9.9-7.9-25-7.9c-27.7,0-50.5,24.7-50.5,55.1s22.2,55.1,50.5,55.1c15.3,0,37.3-8.7,40.6-28h-22.5
			c-10.1,0-19.5-7.4-19.5-18.1c0-10.9,9.3-18.4,19.5-18.4h41.9C1064.5,108.2,1072.7,120,1071.9,136.5z"/>
		<path class="st0" d="M1243.2,142.8c0,49.1-42.8,72.7-74,72.7c-31.5,0-74.3-23.6-74.3-72.7c0-48.8,42.8-73.5,74.3-73.5
			C1200.5,69.3,1243.2,94,1243.2,142.8z M1138.2,142.8c0,20.6,13.7,34.8,31,34.8c17,0,31-14.3,31-34.8c0-21.4-14-35.6-31-35.6
			C1152,107.2,1138.2,121.4,1138.2,142.8z"/>
		<path class="st0" d="M992.9,349.5c0,3-1.9,6.6-3,10.1l-34.6,96.5c-3.5,10.9-11.8,16.8-20.8,16.8c-9.9,0-17.3-5.7-22-16.8l-29-65.3
			l-29,65.3c-4.7,10.9-12.9,16.8-22,16.8c-9.6,0-17.3-5.7-20.8-16.8l-34.2-96.5c-1.3-3.5-3-7.1-3-10.1c0-11.5,9.1-20.6,20.6-20.6
			c7.7,0,15.9,4.4,18.4,11.5l22.2,70.5l28.5-68.8c3.5-8.5,10.1-13.1,19.5-13.1c9.6,0,16.1,4.7,19.8,13.1l28.2,68.8l22.5-70.5
			c2.2-6.6,10.4-11.5,18.4-11.5C983.9,328.9,992.9,338,992.9,349.5z"/>
		<path class="st0" d="M1017.5,295.5c0-11.8,10.4-21.7,22.2-21.7c11.8,0,22.2,9.9,22.2,21.7c0,11.5-10.4,21.4-22.2,21.4
			C1027.9,316.9,1017.5,307,1017.5,295.5z M1061.6,351.2v100.6c0,12.3-10.1,22.2-22,22.2c-11.8,0-22-9.9-22-22.2V351.2
			c0-12.3,10.1-22.2,22-22.2C1051.5,328.9,1061.6,338.8,1061.6,351.2z"/>
		<path class="st0" d="M1183.9,451.2c0,14.3-12.1,22.5-34.2,22.5c-21.1,0-42.8-6.6-42.8-51.8v-58.4h-5.5c-10.7,0-17.6-7.1-17.6-16.8
			c0-9.9,6.9-17,17.6-17h5.5v-15.9c0-12.1,10.1-22,22-22c11.8,0,22,9.9,22,22v15.9h15.9c10.7,0,17.3,7.1,17.3,17
			c0,9.6-6.6,16.8-17.3,16.8h-15.9v60.6c0,7.4,2.2,12.1,7.4,12.1c2.7,0,7.4-1.1,10.4-0.8C1178.1,435.3,1183.9,441,1183.9,451.2z"/>
		<path class="st0" d="M1347.8,396.4v55.7c0,12.1-9.9,21.6-22,21.6c-11.8,0-21.6-9.6-21.6-21.6v-55.7c0-21.4-9.9-31-24.4-31
			c-22.5,0-27.4,22.8-27.4,25.8v60.9c0,12.1-10.1,21.6-22,21.6s-22-9.6-22-21.6V298.6c0-12.1,10.1-22,22-22c11.8,0,22,9.9,22,22
			v61.1c0.8-10.1,16.5-31.2,44.4-31.2C1325.3,328.4,1347.8,348.2,1347.8,396.4z"/>
	</g>
</g>
<path class="st0" d="M2285.6,2040.2c0,51,41.3,92.3,92.3,92.3s92.3-41.3,92.3-92.3c0-51-41.3-92.3-92.3-92.3
	C2326.9,1947.9,2285.6,1989.2,2285.6,2040.2 M899.6,1030.3c-89.2,1.6-159,78.1-159,167.3v267.7c0,156.3,126.7,283,283,283h273.1
	c90.5,0,163.6-74.1,161.9-165c-1.6-89.2-78.1-158.9-167.3-158.9h-176.6c-27.6,0-50.1-22.4-50.1-50.1v-182.1c0-89.4-72.5-162-162-162
	C901.6,1030.3,900.6,1030.3,899.6,1030.3 M2305.1,1020.3c-89.2,1.7-158.9,78.1-158.9,167.3v176.7c0,27.7-22.4,50.1-50.1,50.1h-61.1
	c-156.3,0-283,126.7-283,283v61.1c0,27.6-22.4,50.1-50.1,50.1h-182.1c-90.4,0-163.6,74.1-162,165c1.6,89.2,78.1,158.9,167.3,158.9
	H1793c156.3,0,283-126.7,283-283v-61.1c0-27.7,22.4-50.1,50.1-50.1h61.1c156.3,0,283-126.7,283-283v-273.1c0-89.4-72.5-162-162-162
	C2307.1,1020.2,2306.1,1020.2,2305.1,1020.3 M299.5,621.4c-156.4,0-283.1,126.7-283.1,283.1V1581c0,89.2,69.8,165.7,158.9,167.3
	c90.8,1.7,165-71.5,165-161.9v-182.1c0-27.7,22.4-50.1,50.1-50.1H508c37.8,0,73.5-18.3,95.6-49.1c94.8-132,2.7-274.9-122.9-274.9
	h-97.9c-23.5,0-42.4-19-42.4-42.4s19-42.4,42.4-42.4h210.5c90.5,0,163.6-74.1,162-165c-1.6-89.2-78.1-159-167.3-159L299.5,621.4
	L299.5,621.4z M1534.2,1000.8c0-50.9,41.4-92.3,92.3-92.3c50.9,0,92.3,41.4,92.3,92.3c0,50.9-41.4,92.3-92.3,92.3
	C1575.6,1093.1,1534.2,1051.7,1534.2,1000.8 M1247.1,1000.8c0,209.2,170.2,379.4,379.4,379.4s379.4-170.2,379.4-379.4
	s-170.2-379.4-379.4-379.4C1417.3,621.4,1247.1,791.6,1247.1,1000.8"/>
</svg>
