<?xml version="1.0" encoding="UTF-8"?>
<svg id="Layer_1" data-name="Layer 1" xmlns="http://www.w3.org/2000/svg" xmlns:xlink="http://www.w3.org/1999/xlink" viewBox="0 0 2645.67 1056">
  <defs>
    <style>
      .cls-1 {
        clip-path: url(#clippath-20);
      }

      .cls-2 {
        clip-path: url(#clippath-11);
      }

      .cls-3 {
        clip-path: url(#clippath-16);
      }

      .cls-4 {
        fill: #ffffff;
      }

      .cls-4, .cls-5, .cls-6, .cls-7 {
        stroke-width: 0px;
      }

      .cls-5 {
        fill: #ffffff;
      }

      .cls-8 {
        clip-path: url(#clippath-2);
      }

      .cls-9 {
        clip-path: url(#clippath-13);
      }

      .cls-10 {
        clip-path: url(#clippath-15);
      }

      .cls-11 {
        clip-path: url(#clippath-6);
      }

      .cls-6 {
        fill: none;
      }

      .cls-12 {
        clip-path: url(#clippath-7);
      }

      .cls-13 {
        clip-path: url(#clippath-21);
      }

      .cls-14 {
        clip-path: url(#clippath-1);
      }

      .cls-15 {
        clip-path: url(#clippath-4);
      }

      .cls-16 {
        clip-path: url(#clippath-12);
      }

      .cls-17 {
        clip-path: url(#clippath-9);
      }

      .cls-18 {
        clip-path: url(#clippath);
      }

      .cls-19 {
        clip-path: url(#clippath-19);
      }

      .cls-20 {
        clip-path: url(#clippath-3);
      }

      .cls-21 {
        clip-path: url(#clippath-8);
      }

      .cls-22 {
        clip-path: url(#clippath-18);
      }

      .cls-23 {
        clip-path: url(#clippath-14);
      }

      .cls-24 {
        clip-path: url(#clippath-17);
      }

      .cls-25 {
        clip-path: url(#clippath-5);
      }

      .cls-26 {
        clip-path: url(#clippath-10);
      }

      .cls-7 {
        fill: #ffffff;
      }
    </style>
    <symbol id="b" viewBox="0 0 .38 .71">
      <path class="cls-5" d="m.28.08s-.05,0-.06.03c-.02.02-.02.04-.02.08v.04h.15v.08h-.15v.41h-.09v-.41h-.1v-.08h.1v-.03c0-.06.02-.1.05-.13C.18.02.22,0,.27,0c.04,0,.08,0,.11.03l-.03.07s-.05-.02-.07-.02Z"/>
    </symbol>
    <symbol id="c" viewBox="0 0 .52 .52">
      <path class="cls-5" d="m.26.52s-.09-.01-.13-.03c-.04-.02-.07-.05-.09-.09C.01.35,0,.31,0,.26,0,.21.01.17.03.13c.02-.04.05-.07.09-.09.04-.02.09-.03.14-.03s.09.01.13.03c.04.02.07.05.09.09.02.04.03.09.03.13,0,.05-.01.09-.03.13-.02.04-.05.07-.09.09-.04.02-.09.03-.14.03m0-.09s.06,0,.09-.02c.03-.01.05-.04.06-.06.01-.03.02-.06.02-.09,0-.03,0-.06-.02-.09-.03-.05-.08-.09-.14-.09-.03,0-.06,0-.09.02-.03.01-.05.04-.06.06-.01.03-.02.06-.02.09,0,.03,0,.06.02.09.01.03.03.05.06.06.03.02.06.02.09.02Z"/>
    </symbol>
    <symbol id="d" viewBox="0 0 .31 .5">
      <path class="cls-5" d="m0,.5V0h.09s0,.07,0,.09h0s.03-.05.06-.07C.17,0,.21,0,.24,0c.02,0,.05,0,.07,0l-.03.08s-.03,0-.05,0c-.04,0-.08.02-.1.05-.03.03-.04.07-.04.12v.26h-.09Z"/>
    </symbol>
    <symbol id="f" viewBox="0 0 .45 .51">
      <path class="cls-5" d="m.22,0c.06,0,.12.01.17.04.04.03.06.08.06.15v.31h-.08s0-.07,0-.09h0s-.04.06-.08.07c-.03.02-.07.02-.11.02-.05,0-.1-.01-.14-.04C.02.44,0,.4,0,.35c0-.06.04-.12.1-.14.09-.03.18-.02.26.02v-.03s-.01-.07-.04-.08c-.03-.02-.07-.03-.11-.03-.05,0-.1.01-.15.03l-.02-.07C.09.01.15,0,.22,0m0,.43s.08-.01.11-.03c.03-.02.05-.05.05-.09-.02-.01-.05-.02-.07-.03-.03,0-.05-.01-.08-.01-.03,0-.06,0-.09.02-.02.01-.04.04-.03.06,0,.03.01.05.03.06.02.02.05.02.08.02Z"/>
    </symbol>
    <symbol id="g" viewBox="0 0 .52 .71">
      <path class="cls-5" d="m.27.71s-.08,0-.12-.03c-.03-.02-.05-.04-.07-.07h0v.09h-.09v-.7h.09v.16s0,.09,0,.13h0s.04-.05.07-.07c.03-.02.07-.03.12-.03.04,0,.09.01.12.03.04.02.07.05.09.09.02.04.03.09.03.13,0,.05-.01.09-.03.14-.04.08-.12.13-.21.12m-.02-.09c.05,0,.09-.02.12-.05.03-.03.05-.08.05-.13,0-.03,0-.06-.02-.09-.01-.03-.03-.05-.06-.06-.03-.01-.06-.02-.09-.02-.04,0-.09.02-.12.05-.03.03-.05.08-.05.12,0,.03,0,.06.02.09.01.03.03.05.06.06.03.01.05.02.08.02Z"/>
    </symbol>
    <symbol id="h" viewBox="0 0 .49 .52">
      <path class="cls-5" d="m.49.25s0,.02,0,.04H.09s.02.08.05.1c.03.03.07.04.11.04.03,0,.06,0,.09-.01.03,0,.05-.02.08-.04l.05.06s-.06.05-.09.06c-.04.01-.08.02-.11.02-.05,0-.09-.01-.13-.03-.04-.02-.07-.05-.09-.09C.01.35,0,.31,0,.26,0,.21.01.16.03.13c.02-.04.05-.07.09-.09C.16.01.21,0,.26,0,.33,0,.38.02.42.07c.04.04.06.11.06.19m-.23-.17s-.08.01-.11.03c-.03.03-.05.06-.05.1h.31s-.02-.07-.04-.1c-.03-.02-.07-.04-.1-.03Z"/>
    </symbol>
    <symbol id="i" viewBox="0 0 .36 .64">
      <path class="cls-5" d="m.36.62s-.07.02-.11.02c-.05,0-.09-.01-.12-.04-.03-.03-.04-.07-.04-.13V.22h-.1v-.08h.1V0h.09S.19.14.19.14h.15v.08h-.15v.25s0,.05.02.07c.01.01.03.02.06.02.02,0,.04,0,.07-.02l.03.08Z"/>
    </symbol>
    <symbol id="j" viewBox="0 0 .47 .5">
      <path class="cls-5" d="m.21.5c-.06,0-.11-.02-.15-.06C.02.39,0,.33,0,.27v-.27h.09v.27s.01.08.04.11c.03.03.06.04.1.04.04,0,.08-.02.1-.04.03-.03.04-.07.04-.11v-.26h.09v.49h-.09s0-.07,0-.08h0s-.04.05-.07.07c-.03.02-.07.02-.1.02Z"/>
    </symbol>
    <symbol id="k" viewBox="0 0 .51 .52">
      <path class="cls-5" d="m.51.24s0,.04,0,.06H.16s.02.05.04.07c.02.02.05.02.08.02.05,0,.1-.02.13-.05l.07.09s-.06.04-.09.06c-.08.03-.17.03-.26,0-.04-.02-.07-.05-.1-.09C.01.36,0,.31,0,.26,0,.2.01.16.04.12c.02-.04.06-.07.1-.09.08-.04.18-.04.26,0,.04.02.07.05.09.08.02.04.03.08.03.13m-.25-.12c-.05,0-.1.04-.1.09,0,0,0,0,0,0h.2s0-.06-.03-.07c-.02-.02-.05-.03-.07-.03Z"/>
    </symbol>
    <symbol id="l" viewBox="0 0 .28 .71">
      <path class="cls-5" d="m.16.71c-.05,0-.09-.01-.12-.04-.03-.03-.04-.07-.04-.13v-.54h.16v.52s0,.04.01.05c0,0,.02.01.04.01.02,0,.03,0,.05,0l.03.11s-.08.02-.12.03Z"/>
    </symbol>
    <symbol id="m" viewBox="0 0 .46 .52">
      <path class="cls-5" d="m.27.52s-.1,0-.14-.03c-.04-.02-.07-.05-.09-.09C.01.36,0,.31,0,.26,0,.21.01.16.03.12c.02-.04.06-.07.1-.09C.2,0,.29,0,.37.01c.03,0,.06.02.08.04l-.07.11s-.06-.03-.1-.03c-.03,0-.07.01-.09.03-.02.02-.04.06-.03.09,0,.04.01.07.03.1.02.02.06.04.09.03.04,0,.08-.01.11-.04l.07.11c-.05.04-.12.06-.19.06Z"/>
    </symbol>
    <symbol id="n" viewBox="0 0 .39 .64">
      <path class="cls-5" d="m.39.61s-.09.03-.13.03c-.06,0-.1-.02-.13-.05-.03-.03-.04-.08-.04-.14v-.19h-.08v-.12h.08V.02l.16-.02v.14h.12v.12h-.12v.19s.02.06.06.06c.02,0,.04,0,.06-.01l.04.11Z"/>
    </symbol>
    <symbol id="o" viewBox="0 0 .35 .51">
      <path class="cls-5" d="m0,.51V.01h.14s0,.06,0,.09h0C.16.04.22,0,.28,0c.02,0,.05,0,.07.01l-.04.13s-.03,0-.05,0c-.03,0-.06,0-.08.03-.02.02-.03.05-.03.09v.25h-.16Z"/>
    </symbol>
    <symbol id="p" viewBox="0 0 .54 .52">
      <path class="cls-5" d="m.27.52s-.1,0-.14-.03c-.04-.02-.07-.05-.09-.09C.01.35,0,.31,0,.26,0,.21.01.16.03.13c.02-.04.05-.07.1-.09C.18.01.23,0,.28,0,.33,0,.38.01.42.03c.04.02.07.05.09.09.02.04.03.09.03.13,0,.05-.01.1-.03.14-.02.04-.06.07-.1.09-.05.02-.1.03-.15.03m0-.13s.06-.01.09-.03c.02-.02.03-.06.03-.09,0-.03,0-.07-.03-.09-.02-.02-.05-.04-.08-.04-.03,0-.06.01-.09.04-.02.02-.03.06-.03.09,0,.04.01.07.03.09.02.02.05.04.08.04Z"/>
    </symbol>
    <symbol id="q" viewBox="0 0 .51 .51">
      <path class="cls-5" d="m0,.51V.01h.14s0,.06,0,.09h0s.03-.06.06-.07C.23,0,.27,0,.31,0,.37,0,.42.02.45.05c.04.03.05.09.05.16v.29h-.16V.23s0-.06-.03-.08c-.02-.02-.04-.03-.06-.03-.03,0-.06.01-.08.03-.02.02-.03.05-.03.08v.26h-.16Z"/>
    </symbol>
    <symbol id="r" viewBox="0 0 .18 .71">
      <path class="cls-5" d="m.09.17s-.05,0-.07-.02C0,.13,0,.11,0,.09c0-.02,0-.05.03-.06C.04,0,.07,0,.09,0c.02,0,.05,0,.07.02.02.02.03.04.03.06,0,.02,0,.05-.03.06-.02.02-.04.03-.07.02m.08.54H.01V.22h.16v.49Z"/>
    </symbol>
    <symbol id="s" viewBox="0 0 .43 .52">
      <path class="cls-5" d="m.22.52c-.07,0-.15-.02-.22-.05l.05-.12c.05.03.11.04.17.04.02,0,.04,0,.05,0,.01,0,.02-.02.02-.03,0-.01,0-.02-.02-.03-.02,0-.04-.01-.06-.02-.05,0-.1-.02-.14-.05-.03-.02-.05-.06-.05-.1C.02.11.04.07.07.04.12.01.17,0,.23,0,.26,0,.29,0,.32.01c.03,0,.06.02.09.03l-.04.12s-.1-.03-.15-.04c-.02,0-.03,0-.04,0,0,0-.01.02-.01.03,0,.01,0,.02.02.03.02,0,.04.01.05.01.05,0,.11.02.15.05.03.03.05.07.05.11,0,.05-.02.09-.06.12-.05.03-.1.05-.16.04Z"/>
    </symbol>
    <symbol id="t" viewBox="0 0 .77 .7">
      <path class="cls-5" d="m.62,0h.15v.7h-.16v-.31s0-.09,0-.14h0s-.05.08-.07.11l-.14.19h-.04l-.14-.19s-.05-.07-.07-.12h0c0,.05,0,.1,0,.14v.31h-.16v-.7h.15l.23.33.23-.33Z"/>
    </symbol>
    <symbol id="u" viewBox="0 0 .18 .17">
      <path class="cls-5" d="m.09.17s-.05,0-.07-.02C0,.13,0,.11,0,.09c0-.02,0-.05.03-.06C.04,0,.07,0,.09,0c.02,0,.05,0,.07.03.02.02.03.04.03.06,0,.02,0,.05-.03.06-.02.02-.04.03-.07.03Z"/>
    </symbol>
    <clipPath id="clippath">
      <rect class="cls-6" x="0" width="2645.67" height="1056"/>
    </clipPath>
    <clipPath id="clippath-1">
      <rect class="cls-6" x="1806.07" y="-72946.86" width="184327.6" height="73573.11"/>
    </clipPath>
    <clipPath id="clippath-2">
      <rect class="cls-6" x="1919.13" y="-72947.14" width="184327.6" height="73573.11"/>
    </clipPath>
    <clipPath id="clippath-3">
      <rect class="cls-6" x="1998.46" y="-72946.86" width="184327.6" height="73573.11"/>
    </clipPath>
    <clipPath id="clippath-4">
      <rect class="cls-6" x="2053.92" y="-72946.86" width="184327.6" height="73573.11"/>
    </clipPath>
    <clipPath id="clippath-5">
      <rect class="cls-6" x="2181.19" y="-72946.86" width="184327.6" height="73573.11"/>
    </clipPath>
    <clipPath id="clippath-6">
      <rect class="cls-6" x="2328.7" y="-72947.05" width="184327.6" height="73573.11"/>
    </clipPath>
    <clipPath id="clippath-7">
      <rect class="cls-6" x="2423.55" y="-72947.05" width="184327.6" height="73573.11"/>
    </clipPath>
    <clipPath id="clippath-8">
      <rect class="cls-6" x="2513.57" y="-72946.86" width="184327.6" height="73573.11"/>
    </clipPath>
    <clipPath id="clippath-9">
      <rect class="cls-6" x="2065.88" y="-74447.11" width="187820.4" height="74967.24"/>
    </clipPath>
    <clipPath id="clippath-10">
      <rect class="cls-6" x="2152.49" y="-74447.11" width="187820.4" height="74967.24"/>
    </clipPath>
    <clipPath id="clippath-11">
      <rect class="cls-6" x="2206.25" y="-74447.11" width="187820.4" height="74967.24"/>
    </clipPath>
    <clipPath id="clippath-12">
      <rect class="cls-6" x="2254.05" y="-74447.2" width="187820.4" height="74967.24"/>
    </clipPath>
    <clipPath id="clippath-13">
      <rect class="cls-6" x="2334.04" y="-74447.11" width="187820.4" height="74967.24"/>
    </clipPath>
    <clipPath id="clippath-14">
      <rect class="cls-6" x="2452.64" y="-74448.15" width="187820.4" height="74967.24"/>
    </clipPath>
    <clipPath id="clippath-15">
      <rect class="cls-6" x="2477.82" y="-74447.11" width="187820.4" height="74967.24"/>
    </clipPath>
    <clipPath id="clippath-16">
      <rect class="cls-6" x="2525.81" y="-74447.02" width="187820.4" height="74967.24"/>
    </clipPath>
    <clipPath id="clippath-17">
      <rect class="cls-6" x="1860.48" y="-74448.06" width="187820.4" height="74967.24"/>
    </clipPath>
    <clipPath id="clippath-18">
      <rect class="cls-6" x="1885.65" y="-74447.02" width="187820.4" height="74967.24"/>
    </clipPath>
    <clipPath id="clippath-19">
      <rect class="cls-6" x="1973.12" y="-74447.02" width="187820.4" height="74967.24"/>
    </clipPath>
    <clipPath id="clippath-20">
      <rect class="cls-6" x="2030.76" y="-74447.11" width="187820.4" height="74967.24"/>
    </clipPath>
    <clipPath id="clippath-21">
      <rect class="cls-6" x="0" width="2645.67" height="1056"/>
    </clipPath>
  </defs>
  <g class="cls-18">
    <g>
      <path class="cls-5" d="m2593.53,448.39c-6.82,0-12.36,5.55-12.36,12.36s5.54,12.36,12.36,12.36,12.36-5.55,12.36-12.36-5.55-12.36-12.36-12.36m0,25.73c-3.55,0-6.95-1.4-9.45-3.92-1.22-1.22-2.19-2.66-2.86-4.25-.7-1.65-1.06-3.42-1.05-5.21,0-1.8.35-3.55,1.05-5.2.67-1.59,1.64-3.03,2.86-4.25,2.5-2.51,5.91-3.92,9.45-3.92,3.55,0,6.95,1.4,9.45,3.92,1.22,1.22,2.19,2.66,2.86,4.25.7,1.64,1.06,3.41,1.05,5.2,0,1.79-.35,3.56-1.05,5.21-.67,1.59-1.64,3.03-2.86,4.25-2.5,2.51-5.91,3.92-9.45,3.92"/>
      <path class="cls-5" d="m2591.53,460.31h2.14c2.24,0,3.65-1.23,3.65-3.07,0-2.09-1.51-3-3.72-3.03-1.01,0-1.73.09-2.07.19v5.91Zm-2.09-7.38c1.06-.21,2.57-.34,4.01-.34,2.24,0,3.68.41,4.69,1.32.82.72,1.27,1.83,1.27,3.07,0,2.14-1.34,3.56-3.05,4.13v.07c1.25.43,2,1.59,2.38,3.27.53,2.26.91,3.82,1.25,4.45h-2.16c-.27-.46-.62-1.85-1.08-3.87-.48-2.24-1.34-3.08-3.24-3.15h-1.97v7.02h-2.09v-15.98Z"/>
    </g>
  </g>
  <use width=".38" height=".71" transform="translate(1770.31 559.06) scale(92.9)" xlink:href="#b"/>
  <g class="cls-14">
    <use width=".52" height=".52" transform="translate(1806.01 578.38) scale(92.9)" xlink:href="#c"/>
  </g>
  <use width=".31" height=".5" transform="translate(1865.25 578.49) scale(92.9)" xlink:href="#d"/>
  <g class="cls-8">
    <use width=".45" height=".51" transform="translate(1918.89 578.59) scale(92.9)" xlink:href="#f"/>
  </g>
  <g class="cls-20">
    <use width=".52" height=".71" transform="translate(1998.46 560.41) scale(92.9)" xlink:href="#g"/>
  </g>
  <g class="cls-15">
    <use width=".49" height=".52" transform="translate(2053.84 578.39) scale(92.9)" xlink:href="#h"/>
  </g>
  <use width=".36" height=".64" transform="translate(2105.1 566.05) scale(92.9)" xlink:href="#i"/>
  <use width=".36" height=".64" transform="translate(2142.82 566.05) scale(92.9)" xlink:href="#i"/>
  <g class="cls-25">
    <use width=".49" height=".52" transform="translate(2181.11 578.39) scale(92.9)" xlink:href="#h"/>
  </g>
  <use width=".31" height=".5" transform="translate(2236.64 578.49) scale(92.9)" xlink:href="#d"/>
  <use width=".38" height=".71" transform="translate(2289.13 559.06) scale(92.9)" xlink:href="#b"/>
  <g class="cls-11">
    <use width=".47" height=".5" transform="translate(2328.4 579.57) scale(92.9)" xlink:href="#j"/>
  </g>
  <use width=".36" height=".64" transform="translate(2382.4 566.05) scale(92.9)" xlink:href="#i"/>
  <g class="cls-12">
    <use width=".47" height=".5" transform="translate(2423.25 579.57) scale(92.9)" xlink:href="#j"/>
  </g>
  <use width=".31" height=".5" transform="translate(2481.42 578.49) scale(92.9)" xlink:href="#d"/>
  <g class="cls-21">
    <use width=".49" height=".52" transform="translate(2513.48 578.39) scale(92.9)" xlink:href="#h"/>
  </g>
  <g class="cls-17">
    <use width=".51" height=".52" transform="translate(2065.73 472.14) scale(94.66)" xlink:href="#k"/>
  </g>
  <use width=".28" height=".71" transform="translate(2122.58 452.83) scale(94.66)" xlink:href="#l"/>
  <g class="cls-26">
    <use width=".51" height=".52" transform="translate(2152.34 472.14) scale(94.66)" xlink:href="#k"/>
  </g>
  <g class="cls-2">
    <use width=".46" height=".52" transform="translate(2206.14 471.34) scale(94.66)" xlink:href="#m"/>
  </g>
  <g class="cls-16">
    <use width=".39" height=".64" transform="translate(2254.05 459.14) scale(94.66)" xlink:href="#n"/>
  </g>
  <use width=".35" height=".51" transform="translate(2298.26 471.28) scale(94.66)" xlink:href="#o"/>
  <g class="cls-9">
    <use width=".54" height=".52" transform="translate(2333.95 471.39) scale(94.66)" xlink:href="#p"/>
  </g>
  <use width=".51" height=".51" transform="translate(2394.52 471.28) scale(94.66)" xlink:href="#q"/>
  <g class="cls-23">
    <use width=".18" height=".71" transform="translate(2452.56 451.5) scale(94.66)" xlink:href="#r"/>
  </g>
  <g class="cls-10">
    <use width=".46" height=".52" transform="translate(2477.7 471.34) scale(94.66)" xlink:href="#m"/>
  </g>
  <g class="cls-3">
    <use width=".43" height=".52" transform="translate(2525.81 471.51) scale(94.66)" xlink:href="#s"/>
  </g>
  <use width=".77" height=".7" transform="translate(1775.19 452.92) scale(94.66)" xlink:href="#t"/>
  <g class="cls-24">
    <use width=".18" height=".71" transform="translate(1860.39 451.59) scale(94.66)" xlink:href="#r"/>
  </g>
  <g class="cls-22">
    <use width=".46" height=".52" transform="translate(1885.54 471.43) scale(94.66)" xlink:href="#m"/>
  </g>
  <use width=".35" height=".51" transform="translate(1937.24 471.38) scale(94.66)" xlink:href="#o"/>
  <g class="cls-19">
    <use width=".54" height=".52" transform="translate(1973.02 471.48) scale(94.66)" xlink:href="#p"/>
  </g>
  <g class="cls-1">
    <use width=".18" height=".17" transform="translate(2030.7 503.82) scale(94.66)" xlink:href="#u"/>
  </g>
  <g class="cls-13">
    <g>
      <path class="cls-5" d="m1416.8,670.31c-10.31,0-18.67-8.35-18.67-18.67s8.37-18.66,18.67-18.66,18.67,8.35,18.67,18.66-8.36,18.67-18.67,18.67m229.54-111.48c10.3,0,18.67,8.37,18.67,18.68s-8.37,18.66-18.67,18.66-18.68-8.34-18.68-18.66,8.36-18.68,18.68-18.68m-229.54-36.54c-10.31,0-18.67-8.36-18.67-18.67s8.37-18.67,18.67-18.67,18.67,8.36,18.67,18.67-8.36,18.67-18.67,18.67m229.53-111.48c10.31,0,18.68,8.35,18.68,18.67s-8.37,18.67-18.68,18.67-18.67-8.36-18.67-18.67,8.36-18.67,18.67-18.67m-180.42,260.02c-10.45,0-18.92-8.47-18.92-18.93s8.47-18.92,18.92-18.92h223.59c15.87-27.09,24.97-58.62,24.97-92.29,0-6.13-.31-12.17-.9-18.14h-247.65c-10.45,0-18.92-8.47-18.92-18.93s8.47-18.92,18.92-18.92h239.81c-23.65-73.63-92.68-126.9-174.14-126.9-50.09,0-95.47,20.14-128.5,52.76h194.15c10.45,0,18.93,8.47,18.93,18.93s-8.47,18.92-18.93,18.92h-223.58c-15.87,27.09-24.97,58.62-24.97,92.28,0,6.13.31,12.18.9,18.14h247.65c10.45,0,18.93,8.48,18.93,18.92s-8.47,18.93-18.93,18.93h-239.8c23.65,73.61,92.67,126.9,174.15,126.9,50.09,0,95.47-20.15,128.49-52.75h-194.16Z"/>
      <path class="cls-4" d="m94.69,571.15h-42.25v-94.73h42.5v58.14l-.25,36.59Zm189.92,0h-42.52v-86.47c0-7.77-1.61-13.45-4.85-17.01-3.24-3.55-10.44-5.33-21.6-5.33h-23.8c-10.36,0-17.29,1.94-20.77,5.84-3.49,3.89-5.22,9.37-5.22,16.5v86.47h-42.74v-100.32c0-13.59,3.65-23.76,10.93-30.48,7.29-6.71,20.32-10.1,39.1-10.1h62.17c18.95,0,31.9,3.51,38.86,10.46,6.96,6.97,10.45,17.01,10.45,30.12v100.32Zm147.42-86.47c0-7.77-1.63-13.45-4.85-17.01-3.25-3.55-10.45-5.33-21.63-5.33h-23.8c-10.35,0-17.27,1.94-20.76,5.83-3.49,3.89-5.22,9.38-5.22,16.51v32.05c0,7.11,1.73,12.64,5.22,16.51,3.49,3.89,10.41,5.84,20.76,5.84h23.8c11.18,0,18.3-1.79,21.38-5.36,3.07-3.55,4.77-9.14,5.11-16.75v-32.3Zm32.04,76.01c-6.95,6.98-19.9,10.47-38.85,10.47h-62.18c-18.78,0-31.82-3.38-39.09-10.11-7.28-6.71-10.92-16.88-10.92-30.45v-59.76c0-13.59,3.64-23.76,10.93-30.49,7.28-6.71,20.31-10.09,39.09-10.09h62.18c18.94,0,31.9,3.51,38.85,10.45,6.98,6.97,10.45,17.01,10.45,30.12v59.76c0,13.11-3.47,23.15-10.45,30.09m147.91-130.43h42.75c-17.16,64.45-26.4,98.13-27.68,101.05-2.43,7.77-7.6,16.34-15.44,25.72-7.85,9.4-16.39,14.12-25.61,14.12h-24.06c-7.75,0-15.93-4.72-24.53-14.12-8.56-9.38-13.99-17.77-16.26-25.24-1.93-3.23-11.25-37.08-27.91-101.53h42.73l21.61,86.47c2.27,7.45,4.93,12.72,8.03,15.78,3.07,3.08,5.91,4.79,8.51,5.11,2.57-.32,5.37-2.03,8.37-5.11,2.98-3.06,5.61-8.33,7.88-15.78l21.62-86.47Zm124.83,62.68h17l-2.67-8.26c-2.27-7.45-4.98-12.78-8.13-16.04-3.17-3.23-5.86-4.85-8.13-4.85s-5.01,1.62-8.26,4.85c-3.25,3.25-5.98,8.58-8.25,16.04l-2.42,8.26h20.87Zm23.8,32.05h-52.21l-11.67,46.16h-42.74c16.68-64.45,25.67-97.95,26.96-100.55,2.92-8.11,8.5-16.83,16.76-26.23,8.26-9.39,16.59-14.1,25.01-14.1h24.05c9.23,0,17.75,4.72,25.63,14.1,7.84,9.41,13,18.13,15.42,26.23,1.3,2.6,10.53,36.1,27.7,100.55h-42.75l-12.14-46.16Z"/>
      <path class="cls-7" d="m936.43,490.5c11.19,0,18.39-1.77,21.63-5.33,3.24-3.56,4.86-6.49,4.86-8.75s-1.62-5.19-4.86-8.75c-3.23-3.55-10.43-5.33-21.63-5.33h-50.01v28.16h50.01Zm70.94,80.65h-47.61l-47.1-48.59h-26.23v48.59h-42.25v-140.89h111.93c18.95,0,31.9,3.51,38.87,10.45,6.95,6.97,10.44,17.01,10.44,30.12v11.18c0,13.12-3.49,23.15-10.44,30.11-6.97,6.97-16.43,10.44-28.41,10.44h-6.32l47.12,48.59Zm64.1,0h-42.25v-140.89h42.49v86.47l-.24,54.42Zm106.39-78.21h16.99l-2.67-8.26c-2.26-7.45-5-12.78-8.14-16.04-3.15-3.23-5.86-4.85-8.13-4.85s-5.02,1.62-8.26,4.85c-3.25,3.25-5.98,8.58-8.27,16.04l-2.42,8.26h20.9Zm23.79,32.05h-52.2l-11.68,46.16h-42.73c16.68-64.45,25.65-97.95,26.95-100.55,2.9-8.11,8.49-16.83,16.75-26.23,8.28-9.39,16.59-14.1,25.02-14.1h24.04c9.22,0,17.77,4.72,25.62,14.1,7.85,9.41,12.99,18.13,15.42,26.23,1.31,2.6,10.54,36.1,27.68,100.55h-42.74l-12.14-46.16ZM94.94,463.8h-42.5v-33.53h42.5v33.53Z"/>
      <path class="cls-4" d="m269.16,612.57c0-4.21-3.89-6.31-11.68-6.31-2.78,0-5.12.12-7.01.35.17,3.08.26,7.26.26,12.55,1.45.04,2.84.05,4.17.05,9.5,0,14.26-2.21,14.26-6.63m11.1,24.89h-7c-2.32-5.08-4.02-8.44-5.08-10.09-1.36-2.07-2.89-3.4-4.61-4.01-1.35-.48-3.78-.71-7.29-.71-2.06,0-3.88.02-5.48.05,0,5.71.15,10.63.44,14.75h-6.75c.36-5.48.54-11.54.54-18.15,0-6.23-.18-11.69-.54-16.4h5.11c1.09,0,2.47-.03,4.14-.08,1.67-.05,3.58-.08,5.73-.08,10.59,0,15.89,2.67,15.89,8.02,0,4.44-2.97,7.56-8.93,9.37v.26c2.66.59,4.81,1.94,6.46,4.06,1.38,1.77,3.83,6.1,7.36,13m38.68-4.01l-.22,4.01h-29.24c.34-5.48.51-11.54.51-18.15,0-6.23-.17-11.69-.51-16.4h27.43l-.29,3.95c-7.05-.22-14.1-.33-21.15-.32.15,2.74.22,6.45.22,11.12,6.43,0,12.17-.11,17.2-.32v3.95c-5.73-.16-11.46-.24-17.2-.24,0,4.55.11,8.81.33,12.79,8.03,0,15.67-.13,22.93-.4m40.24-13.32c0-3.93-1.71-7.21-5.13-9.85-3.42-2.64-8.71-3.95-15.87-3.95-1.02,0-2.41.09-4.17.27.19,4.12.29,8.36.29,12.71,0,4.78.13,9.62.4,14.54,1.85.28,3.72.42,5.59.42,6.39,0,11.13-1.38,14.24-4.15,3.11-2.77,4.66-6.1,4.66-9.99m6.31-1.2c0,5.03-2.2,9.43-6.59,13.22-4.39,3.79-10.44,5.68-18.16,5.68-2.52,0-6.71-.12-12.59-.37.36-5.48.54-11.54.54-18.15,0-6.23-.18-11.69-.54-16.4h3.99c.97,0,2.44-.03,4.43-.08,1.98-.05,3.29-.08,3.92-.08,8.54,0,14.84,1.54,18.9,4.61,4.06,3.07,6.09,6.93,6.09,11.58m39.87,14.52l-.22,4.01h-29.24c.34-5.48.51-11.54.51-18.15,0-6.23-.17-11.69-.51-16.4h27.43l-.29,3.95c-7.05-.22-14.1-.33-21.15-.32.15,2.74.22,6.45.22,11.12,6.43,0,12.17-.11,17.2-.32v3.95c-5.73-.16-11.46-.24-17.2-.24,0,4.55.11,8.81.33,12.79,8.03,0,15.67-.13,22.93-.4m56.35-13.32c0-3.93-1.71-7.21-5.13-9.85-3.42-2.64-8.71-3.95-15.87-3.95-1.02,0-2.41.09-4.17.27.19,4.12.29,8.36.29,12.71,0,4.78.13,9.62.4,14.54,1.85.28,3.72.42,5.59.42,6.39,0,11.13-1.38,14.24-4.15,3.11-2.77,4.66-6.1,4.66-9.99m6.31-1.2c0,5.03-2.2,9.43-6.59,13.22-4.39,3.79-10.44,5.68-18.16,5.68-2.52,0-6.71-.12-12.59-.37.36-5.48.54-11.54.54-18.15,0-6.23-.18-11.69-.54-16.4h3.99c.97,0,2.44-.03,4.43-.08,1.98-.05,3.29-.08,3.92-.08,8.54,0,14.84,1.54,18.9,4.61,4.06,3.07,6.09,6.93,6.09,11.58m39.87,14.52l-.22,4.01h-29.24c.34-5.48.51-11.54.51-18.15,0-6.23-.17-11.69-.51-16.4h27.43l-.29,3.95c-7.05-.22-14.1-.33-21.15-.32.15,2.74.22,6.45.22,11.12,6.43,0,12.17-.11,17.2-.32v3.95c-5.73-.16-11.46-.24-17.2-.24,0,4.55.11,8.81.33,12.79,8.03,0,15.67-.13,22.93-.4m32.22,4.01h-6.89c.36-5.73.54-11.78.54-18.15s-.18-11.73-.54-16.4h6.89c-.34,4.83-.51,10.29-.51,16.4s.17,12.45.51,18.15m50.07,0h-5.08c0-.3-3.97-4.54-11.9-12.71-8.3-8.58-13.03-13.99-14.19-16.24h-.36c.43,4.26.65,7.91.65,10.96,0,5.94.18,11.94.54,17.99h-6.1c.41-5.75.62-11.8.62-18.15s-.21-11.71-.62-16.4h6.97c0,.49,3.65,4.53,10.96,12.1,7.64,7.96,12,13.15,13.06,15.55h.36c-.41-4.31-.62-7.98-.62-10.99,0-6.54-.17-12.1-.51-16.66h6.21c-.41,4.69-.62,10.15-.62,16.4s.21,12.4.62,18.15m48.33-17.2c0-4.56-1.64-8.1-4.92-10.6-3.28-2.5-7.06-3.75-11.34-3.75-3.97,0-7.5,1.32-10.59,3.95-3.1,2.64-4.65,6.16-4.65,10.56s1.65,8.12,4.95,10.63c3.3,2.51,7.08,3.76,11.34,3.76,3.97,0,7.49-1.34,10.58-4.01,3.08-2.67,4.63-6.19,4.63-10.54m6.46-.61c0,5.71-2.29,10.28-6.86,13.71-4.57,3.42-9.86,5.13-15.86,5.13s-10.81-1.57-15.15-4.71c-4.34-3.14-6.51-7.38-6.51-12.73,0-5.79,2.29-10.37,6.86-13.76,4.57-3.39,9.85-5.08,15.85-5.08s10.81,1.57,15.15,4.71c4.34,3.14,6.51,7.38,6.51,12.73m44.34-16.75c0,1.47-3.06,7.22-9.16,17.25-6.11,10.03-9.16,15.8-9.16,17.3h-4.71c0-1.36-2.88-7.08-8.65-17.17-5.77-10.09-8.65-15.88-8.65-17.38h6.89c0,1.38,2.2,6.29,6.61,14.74,4.4,8.45,6.6,13.28,6.6,14.5h.36c0-1.38,2.22-6.19,6.68-14.45,4.45-8.25,6.68-13.18,6.68-14.79h6.53Zm31.89,19.9c-5.68-10.39-8.53-15.91-8.53-16.56h-.4c0,.55-2.94,6.07-8.81,16.56h17.74Zm13.9,14.65h-7.66c0-1.19-1.52-4.91-4.57-11.17h-20.94c-3,6.17-4.5,9.9-4.5,11.17h-7.33c0-.65,3.12-6.31,9.36-16.97,6.24-10.66,9.36-16.52,9.36-17.58h8.42c0,1.04,2.98,6.82,8.93,17.33s8.93,16.25,8.93,17.22m39.22-4.22l-.47,3.95c-4.16.66-7.4.98-9.72.98-2.03,0-3.92-.1-5.66-.32l-.43,2.25c4.74.83,7.11,2.53,7.11,5.1,0,3.93-2.9,5.89-8.71,5.89l-.51-2.44c1.14,0,2.06-.28,2.78-.85.71-.57,1.07-1.24,1.07-2.02,0-2-1.84-3.25-5.51-3.77l1.27-4.59c-4.28-.83-7.81-2.37-10.59-4.59-3.89-3.11-5.84-7.08-5.84-11.89s2.19-9.18,6.57-12.68c4.83-3.89,11.26-5.84,19.26-5.84,2.17,0,4.47.24,6.89.71l-1.01,4.22c-2.79-.64-5.26-.96-7.44-.96-5.9,0-10.46,1.43-13.68,4.3-2.78,2.49-4.17,5.64-4.17,9.42s1.62,7.11,4.86,9.77c3.65,2.99,8.58,4.49,14.8,4.49,2.34,0,5.39-.38,9.14-1.14m33.49-10.43c-5.68-10.39-8.53-15.91-8.53-16.56h-.4c0,.55-2.94,6.07-8.81,16.56h17.74Zm6.13-28.87c-2.66,3.27-5.68,4.91-9.07,4.91-1.23,0-2.79-.21-4.66-.64-1.87-.42-3.39-.64-4.55-.64-2.13,0-4.21.74-6.24,2.23l-2.25-1.33c2.66-3.28,5.69-4.91,9.07-4.91,1.23,0,2.79.21,4.66.64,1.87.42,3.39.64,4.55.64,2.13,0,4.21-.74,6.24-2.23l2.25,1.33Zm7.77,43.52h-7.66c0-1.19-1.52-4.91-4.57-11.17h-20.94c-3,6.17-4.5,9.9-4.5,11.17h-7.33c0-.65,3.12-6.31,9.36-16.97,6.24-10.66,9.36-16.52,9.36-17.58h8.42c0,1.04,2.98,6.82,8.93,17.33s8.93,16.25,8.93,17.22m41.91-17.2c0-4.56-1.64-8.1-4.92-10.6-3.27-2.5-7.05-3.75-11.34-3.75-3.97,0-7.5,1.32-10.59,3.95-3.1,2.64-4.64,6.16-4.64,10.56s1.65,8.12,4.95,10.63c3.3,2.51,7.08,3.76,11.34,3.76,3.97,0,7.49-1.34,10.58-4.01,3.08-2.67,4.63-6.19,4.63-10.54m6.46-.61c0,5.71-2.28,10.28-6.85,13.71-4.57,3.42-9.86,5.13-15.86,5.13s-10.81-1.57-15.15-4.71c-4.34-3.14-6.51-7.38-6.51-12.73,0-5.79,2.29-10.37,6.86-13.76,4.57-3.39,9.86-5.08,15.86-5.08s10.8,1.57,15.15,4.71c4.34,3.14,6.51,7.38,6.51,12.73m55.98,13.8l-.22,4.01h-29.24c.34-5.48.51-11.54.51-18.15,0-6.23-.17-11.69-.51-16.4h27.42l-.29,3.95c-7.05-.22-14.1-.33-21.15-.32.15,2.74.22,6.45.22,11.12,6.44,0,12.17-.11,17.2-.32v3.95c-5.73-.16-11.47-.24-17.2-.24,0,4.55.11,8.81.33,12.79,8.03,0,15.67-.13,22.93-.4m59.79,4.01h-6.82c0-3.95-.38-9.65-1.13-17.12-.75-7.47-1.15-11.94-1.2-13.43h-.36c-2.42,5.75-5.48,11.99-9.2,18.72-3.72,6.73-5.57,10.67-5.57,11.82h-4.9c0-1.24-1.73-5.25-5.19-12.03-3.46-6.79-5.65-11.33-6.57-13.63-.66-1.62-1.28-3.24-1.89-4.88h-.36c-.07,2.42-.55,7.31-1.43,14.68-.88,7.36-1.32,12.65-1.32,15.87h-6.24c0-.17.82-5.05,2.47-14.61,1.65-9.56,2.47-16.21,2.47-19.94h9.54c0,1.95,1.93,6.81,5.8,14.6,3.87,7.78,5.81,12.5,5.81,14.14h.36c0-1.65,2.18-6.37,6.53-14.18,4.35-7.81,6.53-12.66,6.53-14.55h9.32c0,3.73.55,10.35,1.67,19.85,1.11,9.5,1.67,14.4,1.67,14.7m53.63-14.65c-5.68-10.39-8.53-15.91-8.53-16.56h-.4c0,.55-2.94,6.07-8.81,16.56h17.74Zm13.9,14.65h-7.66c0-1.19-1.52-4.91-4.57-11.17h-20.94c-3,6.17-4.5,9.9-4.5,11.17h-7.33c0-.65,3.12-6.31,9.36-16.97,6.24-10.66,9.36-16.52,9.36-17.58h8.42c0,1.04,2.98,6.82,8.93,17.33s8.93,16.25,8.93,17.22m41.15-34.55c0,1.47-3.06,7.22-9.16,17.25-6.11,10.03-9.16,15.8-9.16,17.3h-4.71c0-1.36-2.88-7.08-8.65-17.17-5.77-10.09-8.65-15.88-8.65-17.38h6.89c0,1.38,2.2,6.29,6.61,14.74,4.4,8.45,6.6,13.28,6.6,14.5h.36c0-1.38,2.23-6.19,6.68-14.45,4.45-8.25,6.68-13.18,6.68-14.79h6.53Zm36.68,30.54l-.22,4.01h-29.24c.34-5.48.51-11.54.51-18.15,0-6.23-.17-11.69-.51-16.4h27.42l-.29,3.95c-7.05-.22-14.1-.33-21.15-.32.15,2.74.22,6.45.22,11.12,6.44,0,12.17-.11,17.2-.32v3.95c-5.73-.16-11.47-.24-17.2-.24,0,4.55.11,8.81.33,12.79,8.03,0,15.67-.13,22.93-.4m16.11,4.01h-6.89c.36-5.73.55-11.78.55-18.15s-.18-11.73-.55-16.4h6.89c-.34,4.83-.51,10.29-.51,16.4s.17,12.45.51,18.15m38.31-24.89c0-4.21-3.9-6.31-11.68-6.31-2.78,0-5.11.12-7,.35.17,3.08.25,7.26.25,12.55,1.45.04,2.84.05,4.17.05,9.51,0,14.26-2.21,14.26-6.63m11.1,24.89h-7.01c-2.32-5.08-4.01-8.44-5.08-10.09-1.35-2.07-2.89-3.4-4.61-4.01-1.35-.48-3.78-.71-7.29-.71-2.06,0-3.88.02-5.48.05,0,5.71.15,10.63.44,14.75h-6.75c.36-5.48.54-11.54.54-18.15,0-6.23-.18-11.69-.55-16.4h5.11c1.09,0,2.47-.03,4.14-.08,1.67-.05,3.58-.08,5.73-.08,10.59,0,15.89,2.67,15.89,8.02,0,4.44-2.98,7.56-8.93,9.37v.26c2.66.59,4.81,1.94,6.46,4.06,1.38,1.77,3.83,6.1,7.37,13m43.9-17.2c0-4.56-1.64-8.1-4.92-10.6-3.27-2.5-7.05-3.75-11.33-3.75-3.97,0-7.5,1.32-10.59,3.95-3.1,2.64-4.64,6.16-4.64,10.56s1.65,8.12,4.95,10.63c3.3,2.51,7.08,3.76,11.34,3.76,3.97,0,7.49-1.34,10.58-4.01,3.08-2.67,4.63-6.19,4.63-10.54m6.46-.61c0,5.71-2.28,10.28-6.85,13.71-4.57,3.42-9.86,5.13-15.86,5.13s-10.81-1.57-15.15-4.71c-4.34-3.14-6.51-7.38-6.51-12.73,0-5.79,2.29-10.37,6.86-13.76,4.57-3.39,9.86-5.08,15.86-5.08s10.8,1.57,15.15,4.71c4.34,3.14,6.51,7.38,6.51,12.73"/>
    </g>
  </g>
</svg>