<svg id="Layer_1" data-name="Layer 1" xmlns="http://www.w3.org/2000/svg" viewBox="0 0 458.13 108.36"><defs><style>.cls-1{fill:#fff;}</style></defs><path class="cls-1" d="M30.71,0c8,0,15.91,0,23.87,0A54.18,54.18,0,1,1,1.27,65.91,52.5,52.5,0,0,1,0,54.18Q0,29.5,0,4.83C0,1.74,1.73,0,4.81,0Zm23.9,91.53A37.78,37.78,0,1,0,16.8,53.82,37.63,37.63,0,0,0,54.61,91.54Z"/><path class="cls-1" d="M391.43,52.31c0-5.59,0-11.18,0-16.77A7.45,7.45,0,0,1,398.94,28a7.54,7.54,0,0,1,7.46,7.61q0,16.41,0,32.82a17.64,17.64,0,0,0,2.84,10.2c3.92,5.78,9.5,8.29,16.39,8a17.65,17.65,0,0,0,17-14.13,17.93,17.93,0,0,0,.36-3.8q0-16.29,0-32.58a7.54,7.54,0,1,1,15.07-.08c0,10.82.11,21.64-.06,32.45a32.18,32.18,0,0,1-28.12,31.52c-12.48,1.7-23.16-1.86-31.31-11.72a31.37,31.37,0,0,1-7.16-20C391.35,63,391.43,57.66,391.43,52.31Z"/><path class="cls-1" d="M374.87,53c0,5.55.19,11.1,0,16.64a31.54,31.54,0,0,1-22.12,29c-13.68,4.23-26,1.66-36-9a30.7,30.7,0,0,1-8.3-21.34c-.14-10.61-.11-21.23-.13-31.85,0-3.24,1.21-5.86,4.22-7.34a7.23,7.23,0,0,1,7.9.74,6.83,6.83,0,0,1,2.92,5.74c0,11,0,22,0,32.94,0,9,5.5,15.93,14.25,17.74,10.28,2.13,20.21-3.83,22.1-14.13a17.74,17.74,0,0,0,.26-3.09q0-16.29,0-32.57c0-4,1.92-6.77,5.25-7.83a7.45,7.45,0,0,1,9.76,7c0,5.75,0,11.5,0,17.25Z"/><path class="cls-1" d="M264.55,27.7c8.36.1,15.72,1.76,22.51,5.56a17,17,0,0,1,4,3.19,5.59,5.59,0,0,1,.66,6.66,5.24,5.24,0,0,1-5.8,2.36,23.52,23.52,0,0,1-5.46-1.95,31.52,31.52,0,0,0-18.26-3.66,21.57,21.57,0,0,0-6.56,1.58A6.25,6.25,0,0,0,255,52.75a52.9,52.9,0,0,0,9.14,3.72c5.52,1.93,11.15,3.57,16.63,5.6a22.64,22.64,0,0,1,9.52,6.44A16.18,16.18,0,0,1,294,78.37c.67,10.54-5.35,17-13.66,19.66-14.1,4.55-27.62,3.29-40.05-5.35a8,8,0,0,1-3.11-4c-1.68-4.69,1.6-8.65,6.5-7.67a11.72,11.72,0,0,1,4.52,2c7,5.1,14.67,7.24,23.23,5.75A13.91,13.91,0,0,0,276.09,87a6.68,6.68,0,0,0,.3-11.45c-3-2.08-6.48-3-9.93-4-5.48-1.55-11-3-16.14-5.52a26,26,0,0,1-9.58-7.19c-5.16-6.64-5.78-19.67,4.82-26.26A33.35,33.35,0,0,1,260.14,28C261.8,27.81,263.48,27.76,264.55,27.7Z"/><path class="cls-1" d="M193.77,27.71a45,45,0,0,1,21.84,5.79,14.46,14.46,0,0,1,2.66,2c2.36,2.23,2.89,4.95,1.56,7.46-1.17,2.19-3.8,3.17-6.91,2.34a21.81,21.81,0,0,1-4.52-1.82,31.16,31.16,0,0,0-23-2.81c-3.82,1-5.67,3.43-5.6,6.77a5.88,5.88,0,0,0,3.31,5.45A57.67,57.67,0,0,0,190.52,56c5.51,1.87,11.1,3.47,16.58,5.39a27.31,27.31,0,0,1,10.21,6.09,16.13,16.13,0,0,1,4.74,10.93c.69,10.8-5.74,17.32-14.46,19.94-13.83,4.14-27.05,2.82-39.15-5.62A7.79,7.79,0,0,1,164.82,86c0-3.45,3.35-5.85,7.06-5a13.56,13.56,0,0,1,4.71,2.17c6.88,4.91,14.42,7,22.82,5.59a11.87,11.87,0,0,0,5.67-2.38,6.72,6.72,0,0,0,.17-10.29c-2.37-2-5.29-2.91-8.17-3.85-5.52-1.79-11.13-3.37-16.58-5.37a26.11,26.11,0,0,1-11.29-7.62c-5.86-7-6.41-21.3,6.23-27.75C181.05,28.69,187.07,27.78,193.77,27.71Z"/><path class="cls-1" d="M147,64.18V92.31a7.21,7.21,0,0,1-7.4,7.52,7.3,7.3,0,0,1-7.65-7.56q0-28.08,0-56.14a7.54,7.54,0,0,1,14.93-1.74,8.74,8.74,0,0,1,.12,1.78Z"/><path class="cls-1" d="M139.46.17a8.59,8.59,0,0,1,8.79,8.74A8.78,8.78,0,0,1,130.69,9,8.71,8.71,0,0,1,139.46.17Z"/><path class="cls-1" d="M54.52,81.39A27.47,27.47,0,1,1,82.17,54,27.38,27.38,0,0,1,54.52,81.39Zm.15-41.53A14.1,14.1,0,1,0,68.72,54,14,14,0,0,0,54.67,39.86Z"/></svg>