<?xml version="1.0" encoding="utf-8"?>
<!-- Generator: Adobe Illustrator 23.0.3, SVG Export Plug-In . SVG Version: 6.00 Build 0)  -->
<svg version="1.1" id="Layer_1" xmlns="http://www.w3.org/2000/svg" xmlns:xlink="http://www.w3.org/1999/xlink" x="0px" y="0px"
	 viewBox="0 0 124.5 90" style="enable-background:new 0 0 124.5 90;" xml:space="preserve">
<style type="text/css">
	.st0{clip-path:url(#SVGID_2_);fill:#231F20;}
	.st1{clip-path:url(#SVGID_2_);fill:none;stroke:#FFFFFF;stroke-miterlimit:10;}
	.st2{clip-path:url(#SVGID_2_);}
	.st3{clip-path:url(#SVGID_4_);fill:none;stroke:#FFFFFF;stroke-miterlimit:10;}
	.st4{clip-path:url(#SVGID_6_);fill:none;stroke:#FFFFFF;stroke-miterlimit:10;}
	.st5{clip-path:url(#SVGID_6_);fill:#FEEDE8;}
	.st6{clip-path:url(#SVGID_6_);fill:#0D0D0D;}
	.st7{clip-path:url(#SVGID_8_);}
	.st8{fill:#231F20;}
	.st9{fill:#0D0D0D;}
	.st10{fill:none;stroke:#FEEDE8;stroke-width:1.099;stroke-miterlimit:10;}
	.st11{fill:#FFFFFF;}
	.st12{fill:none;stroke:#FFFFFF;stroke-width:0.193;stroke-miterlimit:10;}
	.st13{clip-path:url(#SVGID_14_);}
	.st14{fill-rule:evenodd;clip-rule:evenodd;fill:#FFFFFF;}
</style>
<g>
	<path class="st11" d="M33,68.9l-1.8-0.4c-2.1-0.5-2.9-0.9-2.9-1.9c0-1,1-1.6,2.5-1.6c1.7,0,2.7,0.6,3.2,2c0.1,0.2,0.3,0.3,0.5,0.3
		l3.6-0.8c0.1,0,0.2-0.1,0.3-0.2c0.1-0.1,0.1-0.2,0-0.3c-0.8-3-3.5-4.7-7.6-4.7c-4.6,0-7.6,2.2-7.6,5.7c0,1.6,0.5,2.7,1.5,3.6
		c1.1,0.9,2.6,1.4,4.1,1.8l2.1,0.5c2.1,0.5,2.9,0.9,2.9,1.9c0,1.3-1.4,1.8-2.8,1.8c-1.9,0-3.1-0.7-3.7-2.4c-0.1-0.2-0.3-0.3-0.5-0.3
		l-3.7,0.8c-0.1,0-0.2,0.1-0.3,0.2c-0.1,0.1-0.1,0.2-0.1,0.3c0.9,3.2,3.7,5,8.1,5c5.1,0,8.1-2.2,8.1-5.9C39,71.1,36.7,69.9,33,68.9"
		/>
	<path class="st11" d="M70.4,65.4c1.1,0,2,0.4,2.5,0.9c0.3,0.3,0.7,0.4,1.1,0.2l3.4-1.2c0.3-0.1,0.4-0.4,0.2-0.7
		c-1.5-2.2-4.1-3.5-7.2-3.5c-5.6,0-9.4,3.9-9.4,9.6c0,5.8,3.6,9.5,9.3,9.5c3.1,0,5.7-1.2,7.2-3.3c0.2-0.2,0.1-0.6-0.2-0.7L74,75.1
		c-0.4-0.1-0.8,0-1.1,0.2c-0.6,0.6-1.5,0.8-2.5,0.8c-2.7,0-4.2-2-4.2-5.3C66.1,67.4,67.7,65.4,70.4,65.4"/>
	<path class="st11" d="M87.7,58.4h-5.1v3.6c0,0.1,0,0.1-0.1,0.1h-2.8v3.9h2.9V74c0,1.5,0.1,2.6,0.3,3.4c0.4,1.4,1.6,2.4,3.1,2.4h4.1
		c0.2,0,0.4-0.2,0.4-0.4v-0.7c-1.9-0.8-2.8-1.1-2.8-6.1v-6.5h2.4c0.6,0,1.1-0.5,1.1-1.1v-2.8h-3.6V58.4z"/>
	<path class="st11" d="M102.3,61.2c-5.6,0-9.6,3.9-9.6,9.6c0,5.7,3.8,9.5,9.5,9.5c5.6,0,9.5-3.9,9.5-9.5
		C111.8,65.1,107.9,61.2,102.3,61.2 M106.6,70.8c0,3.4-1.6,5.3-4.4,5.3c-2.8,0-4.5-2-4.5-5.4c0-3.3,1.7-5.4,4.5-5.4
		C105,65.3,106.6,67.4,106.6,70.8"/>
	<path class="st11" d="M0,79.8h3.8c0.5,0,0.9-0.4,0.9-0.9V61.7H0V79.8z"/>
	<path class="st11" d="M6.8,65.6h4.9v14.2h3.8c0.5,0,0.9-0.4,0.9-0.9V65.6h3.7c0.6,0,1.1-0.5,1.1-1.1v-2.8H6.8V65.6z"/>
	<path class="st11" d="M124.5,61.7h-2.4c-1.8,0-3.2,1.4-3.3,3.1v-3.1h-5v18.1h4.1c0.5,0,0.9-0.4,0.9-0.9v-9.4
		c0.1-2.2,1.9-3.9,4.1-3.9v0h0.5c0.6,0,1.1-0.5,1.1-1.1L124.5,61.7L124.5,61.7z"/>
	<polygon class="st11" points="1.5,85.8 0,85.8 0,85.1 3.7,85.1 3.7,85.8 2.2,85.8 2.2,89.9 1.5,89.9 	"/>
	<polygon class="st11" points="8.4,85.1 9.1,85.1 9.1,87.1 11.4,87.1 11.4,85.1 12.2,85.1 12.2,89.9 11.4,89.9 11.4,87.7 9.1,87.7 
		9.1,89.9 8.4,89.9 	"/>
	<polygon class="st11" points="17.3,85.1 20.5,85.1 20.5,85.7 18.1,85.7 18.1,87.1 20.3,87.1 20.3,87.8 18.1,87.8 18.1,89.3 
		20.6,89.3 20.6,89.9 17.3,89.9 	"/>
	<path class="st11" d="M31.1,85.1H32l1.6,2.7c0.2,0.4,0.5,0.9,0.7,1.2h0c0-0.4,0-0.7,0-1.2v-2.7H35v4.8h-0.9l-1.7-2.8
		c-0.3-0.4-0.5-0.8-0.7-1.2h0c0,0.3,0,0.8,0,1.1v2.8h-0.7V85.1z"/>
	<polygon class="st11" points="40.2,85.1 43.4,85.1 43.4,85.7 40.9,85.7 40.9,87.1 43.2,87.1 43.2,87.8 40.9,87.8 40.9,89.3 
		43.4,89.3 43.4,89.9 40.2,89.9 	"/>
	<polygon class="st11" points="49.4,87.5 47.8,85.1 48.7,85.1 49.9,86.9 51,85.1 51.9,85.1 50.3,87.4 52,89.9 51.1,89.9 49.8,88 
		48.6,89.9 47.7,89.9 	"/>
	<polygon class="st11" points="57.6,85.8 56.1,85.8 56.1,85.1 59.8,85.1 59.8,85.8 58.3,85.8 58.3,89.9 57.6,89.9 	"/>
	<path class="st11" d="M69.8,85.1h1.7c1.6,0,2.4,0.9,2.4,2.4c0,1.4-0.7,2.5-2.3,2.5h-1.7V85.1z M71.4,89.3c1.1,0,1.7-0.5,1.7-1.8
		c0-0.7-0.2-1.2-0.6-1.5c-0.4-0.2-0.8-0.3-1.5-0.3h-0.4v3.6H71.4z"/>
	<rect x="78.8" y="85.1" class="st11" width="0.7" height="4.8"/>
	<path class="st11" d="M84.4,87.5c0-1.5,1-2.5,2.4-2.5c1,0,1.8,0.5,2,1.3l-0.7,0.2c-0.2-0.5-0.7-0.8-1.3-0.8c-1,0-1.6,0.8-1.6,1.9
		c0,1.1,0.6,1.9,1.6,1.9c0.9,0,1.3-0.5,1.4-1.4h-1.6v-0.6h2.3v2.6h-0.7v-0.1c0-0.1,0-0.3,0-0.4h0C88,89.7,87.4,90,86.8,90
		C85.3,90,84.4,89,84.4,87.5"/>
	<rect x="93.9" y="85.1" class="st11" width="0.7" height="4.8"/>
	<polygon class="st11" points="100.8,85.8 99.3,85.8 99.3,85.1 103,85.1 103,85.8 101.5,85.8 101.5,89.9 100.8,89.9 	"/>
	<path class="st11" d="M108.5,85.1h0.8l1.9,4.8h-0.8l-0.5-1.3h-2.1l-0.5,1.3h-0.8L108.5,85.1z M109.7,88l-0.4-1
		c-0.1-0.4-0.3-0.9-0.4-1.2h0c-0.1,0.3-0.2,0.7-0.4,1.2l-0.4,1H109.7z"/>
	<polygon class="st11" points="115.8,85.1 116.6,85.1 116.6,89.3 118.8,89.3 118.8,89.9 115.8,89.9 	"/>
	<path class="st11" d="M50,61.2c-5.3,0-9.6,4.3-9.6,9.5c0,5.3,4.3,9.5,9.6,9.5h0.5c3.2,0,6.4-1.4,8.4-4.3c0.2-0.2,0-0.6-0.2-0.6
		l-3.3-1.2c-0.4-0.1-1,0-1.3,0.3c-0.9,1-2.2,1.6-3.6,1.6H50c-2,0-3.9-1.6-4.4-3.9h12.8c0.6,0,1.1-0.5,1.1-1.1c0-0.1,0-0.2,0-0.3
		C59.5,65.4,55.3,61.2,50,61.2 M54.1,68.4h-8.2c0.8-1.8,2.3-3,4.1-3C51.7,65.4,53.3,66.6,54.1,68.4"/>
	<path class="st11" d="M43.8,12.2l11.1,10.9c0.1-0.1,0.2-0.2,0.3-0.3c3.3-3.3,4.9-6.8,4.7-10.4c-0.3-5.8-5-10-5.9-10.8l-0.4-0.3
		c0,0-0.4-0.3-0.4-0.3C52,0.4,50.6,0,49.2,0c-4,0-7.3,3.3-7.3,7.3C41.9,9.2,42.6,10.9,43.8,12.2"/>
	<path class="st11" d="M78.7,17.6L54.9,1.3l0.4,0.3c2.2,1.8,5.8,5.9,6.1,11c0.2,3.3-1,6.9-4.8,10.7c-0.2,0.2-0.4,0.3-0.6,0.5
		c-3,3-8.2,8.2-11,10.8c-1.5,1.4-2.4,3.4-2.4,5.6c0,4.2,3.4,7.7,7.7,7.7c1.5,0,2.9-0.4,4.1-1.2l24.1-16.5c2-1.4,3.4-3.7,3.4-6.3
		C81.9,21.3,80.7,19,78.7,17.6"/>
</g>
</svg>
