<?xml version="1.0" encoding="utf-8"?>
<!-- Generator: Adobe Illustrator 24.2.3, SVG Export Plug-In . SVG Version: 6.00 Build 0)  -->
<svg version="1.1" id="Layer_1" xmlns="http://www.w3.org/2000/svg" xmlns:xlink="http://www.w3.org/1999/xlink" x="0px" y="0px"
	 viewBox="0 0 176.89 128.41" style="enable-background:new 0 0 176.89 128.41;" xml:space="preserve">
<style type="text/css">
	.st0{fill:#FFFFFF;}
	.st1{display:none;opacity:0.4;}
	.st2{display:inline;}
	.st3{clip-path:url(#SVGID_2_);}
	.st4{filter:url(#Adobe_OpacityMaskFilter);}
	.st5{clip-path:url(#SVGID_4_);fill:url(#SVGID_6_);}
	.st6{clip-path:url(#SVGID_4_);mask:url(#SVGID_5_);fill:url(#SVGID_7_);}
	.st7{display:none;opacity:0.5;}
	.st8{clip-path:url(#SVGID_9_);}
	.st9{filter:url(#Adobe_OpacityMaskFilter_1_);}
	.st10{clip-path:url(#SVGID_11_);fill:url(#SVGID_13_);}
	.st11{clip-path:url(#SVGID_11_);mask:url(#SVGID_12_);fill:url(#SVGID_14_);}
	.st12{display:none;opacity:0.45;}
	.st13{clip-path:url(#SVGID_16_);}
	.st14{filter:url(#Adobe_OpacityMaskFilter_2_);}
	.st15{clip-path:url(#SVGID_18_);fill:url(#SVGID_20_);}
	.st16{clip-path:url(#SVGID_18_);mask:url(#SVGID_19_);fill:url(#SVGID_21_);}
	.st17{clip-path:url(#SVGID_23_);}
	.st18{filter:url(#Adobe_OpacityMaskFilter_3_);}
	.st19{clip-path:url(#SVGID_25_);fill:url(#SVGID_27_);}
	.st20{clip-path:url(#SVGID_25_);mask:url(#SVGID_26_);fill:url(#SVGID_28_);}
	.st21{clip-path:url(#SVGID_30_);}
	.st22{filter:url(#Adobe_OpacityMaskFilter_4_);}
	.st23{clip-path:url(#SVGID_32_);fill:url(#SVGID_34_);}
	.st24{clip-path:url(#SVGID_32_);mask:url(#SVGID_33_);fill:url(#SVGID_35_);}
</style>
<g>
	<path class="st0" d="M47.61,97.49l-2.51-0.61c-2.99-0.75-4.04-1.26-4.04-2.67c0-1.34,1.38-2.24,3.42-2.24
		c2.33,0,3.77,0.9,4.42,2.76c0.1,0.28,0.4,0.45,0.7,0.38l5.08-1.07c0.16-0.03,0.31-0.14,0.4-0.28c0.09-0.14,0.11-0.31,0.07-0.47
		c-1.13-4.25-4.88-6.58-10.57-6.58C38.15,86.7,34,89.83,34,94.68c0,2.24,0.67,3.84,2.11,5.06c1.47,1.24,3.69,1.95,5.67,2.49
		l2.94,0.76c2.99,0.75,4.04,1.26,4.04,2.67c0,1.83-2.01,2.48-3.9,2.48c-2.65,0-4.26-1.03-5.21-3.34c-0.11-0.28-0.41-0.43-0.7-0.37
		l-5.2,1.16c-0.16,0.04-0.31,0.14-0.39,0.28c-0.09,0.14-0.11,0.31-0.07,0.46c1.19,4.49,5.2,6.97,11.28,6.97
		c7.1,0,11.34-3.05,11.34-8.17C55.92,100.52,52.74,98.79,47.61,97.49"/>
	<path class="st0" d="M99.8,92.53c1.6,0,2.73,0.55,3.53,1.3c0.42,0.4,1.04,0.51,1.58,0.32l4.69-1.65c0.37-0.13,0.51-0.58,0.29-0.91
		c-2.11-3.11-5.75-4.94-10.09-4.94c-7.86,0-13.14,5.39-13.14,13.42c0,8.04,5.08,13.23,12.95,13.23c4.36,0,7.94-1.68,10.1-4.61
		c0.24-0.32,0.12-0.78-0.26-0.93l-4.62-1.73c-0.53-0.2-1.11-0.06-1.54,0.31c-0.9,0.77-2.08,1.17-3.49,1.17
		c-3.72,0-5.93-2.78-5.93-7.44C93.87,95.28,96.03,92.53,99.8,92.53"/>
	<path class="st0" d="M123.97,82.84h-7.06v5.08c0,0.08-0.06,0.14-0.14,0.14h-3.93v5.47h4.07v11.08c0,2.05,0.13,3.58,0.42,4.77
		c0.49,1.95,2.26,3.3,4.27,3.3l5.7,0c0.33,0,0.6-0.27,0.6-0.6v-0.96c-2.69-1.07-3.93-1.57-3.93-8.5v-9.09h3.38
		c0.87,0,1.59-0.71,1.59-1.59v-3.88h-4.97V82.84z"/>
	<path class="st0" d="M144.33,86.65c-7.87,0-13.37,5.5-13.37,13.37c0,7.94,5.35,13.28,13.32,13.28c7.85,0,13.32-5.46,13.32-13.28
		C157.6,92.15,152.14,86.65,144.33,86.65 M150.4,100.07c0,4.73-2.23,7.45-6.12,7.45c-3.95,0-6.22-2.73-6.22-7.49
		c0-4.65,2.38-7.54,6.22-7.54C148.06,92.48,150.4,95.39,150.4,100.07"/>
	<path class="st0" d="M1.52,112.68h5.35c0.66,0,1.19-0.53,1.19-1.19V87.36H1.52V112.68z"/>
	<path class="st0" d="M10.95,92.81h6.85v19.87h5.35c0.66,0,1.19-0.53,1.19-1.19V92.81h5.2c0.88,0,1.59-0.71,1.59-1.59v-3.86H10.95
		V92.81z"/>
	<path class="st0" d="M175.37,87.36H172c-2.45,0-4.45,1.97-4.59,4.39v-4.39h-6.97v25.32h5.78c0.66,0,1.19-0.53,1.19-1.19V98.31
		c0.12-3.04,2.62-5.46,5.68-5.46v-0.01h0.68c0.88,0,1.59-0.71,1.59-1.59V87.36z"/>
	<polygon class="st0" points="3.57,120.97 1.52,120.97 1.52,120.06 6.65,120.06 6.65,120.97 4.62,120.97 4.62,126.8 3.57,126.8 	"/>
	<polygon class="st0" points="13.19,120.06 14.22,120.06 14.22,122.85 17.48,122.85 17.48,120.06 18.51,120.06 18.51,126.8 
		17.48,126.8 17.48,123.75 14.22,123.75 14.22,126.8 13.19,126.8 	"/>
	<polygon class="st0" points="25.74,120.06 30.13,120.06 30.13,120.96 26.75,120.96 26.75,122.88 29.89,122.88 29.89,123.79 
		26.75,123.79 26.75,125.89 30.21,125.89 30.21,126.8 25.74,126.8 	"/>
	<path class="st0" d="M44.87,120.06h1.32l2.27,3.82c0.33,0.55,0.69,1.19,0.96,1.67h0.02c-0.01-0.52-0.02-1-0.02-1.7v-3.79h1.01v6.74
		h-1.3l-2.33-3.89c-0.37-0.62-0.67-1.15-0.94-1.63h-0.01c0,0.41,0.03,1.06,0.03,1.55v3.96h-1.01V120.06z"/>
	<polygon class="st0" points="57.66,120.06 62.05,120.06 62.05,120.96 58.67,120.96 58.67,122.88 61.81,122.88 61.81,123.79 
		58.67,123.79 58.67,125.89 62.12,125.89 62.12,126.8 57.66,126.8 	"/>
	<polygon class="st0" points="70.52,123.34 68.31,120.06 69.52,120.06 71.15,122.59 72.79,120.06 73.97,120.06 71.76,123.33 
		74.13,126.8 72.89,126.8 71.11,124.07 69.33,126.8 68.16,126.8 	"/>
	<polygon class="st0" points="81.89,120.97 79.84,120.97 79.84,120.06 84.97,120.06 84.97,120.97 82.94,120.97 82.94,126.8 
		81.89,126.8 	"/>
	<path class="st0" d="M99.02,120.06h2.32c2.26,0,3.33,1.27,3.33,3.32c0,1.92-0.94,3.43-3.28,3.43h-2.37V120.06z M101.22,125.92
		c1.48,0,2.39-0.74,2.39-2.47c0-0.99-0.25-1.71-0.88-2.11c-0.53-0.32-1.15-0.4-2.15-0.4h-0.53v4.98H101.22z"/>
	<rect x="111.52" y="120.06" class="st0" width="1.04" height="6.74"/>
	<path class="st0" d="M119.39,123.45c0-2.04,1.33-3.53,3.35-3.53c1.45,0,2.49,0.72,2.85,1.84l-1.02,0.22
		c-0.29-0.69-0.93-1.16-1.82-1.16c-1.43,0-2.29,1.1-2.29,2.62c0,1.53,0.9,2.63,2.3,2.63c1.23,0,1.88-0.76,1.95-1.98h-2.26v-0.9h3.21
		v3.6h-0.99v-0.2c0-0.19,0.01-0.39,0.01-0.5h-0.02c-0.27,0.4-1.06,0.83-2.02,0.83C120.64,126.93,119.39,125.51,119.39,123.45"/>
	<rect x="132.6" y="120.06" class="st0" width="1.04" height="6.74"/>
	<polygon class="st0" points="142.22,120.97 140.17,120.97 140.17,120.06 145.3,120.06 145.3,120.97 143.27,120.97 143.27,126.8 
		142.22,126.8 	"/>
	<path class="st0" d="M153.02,120.06h1.13l2.68,6.74h-1.11l-0.71-1.86h-2.89l-0.72,1.86h-1.06L153.02,120.06z M154.67,124.05
		l-0.54-1.45c-0.21-0.58-0.43-1.19-0.57-1.61h-0.02c-0.14,0.43-0.34,1.03-0.57,1.63l-0.54,1.43H154.67z"/>
	<polygon class="st0" points="163.24,120.06 164.27,120.06 164.27,125.88 167.41,125.88 167.41,126.8 163.24,126.8 	"/>
	<path class="st0" d="M71.29,86.64c-7.37,0-13.36,5.98-13.36,13.32s5.99,13.32,13.36,13.32h0.63c4.43,0,8.92-2.01,11.75-6.03
		c0.22-0.32,0.07-0.77-0.3-0.89l-4.56-1.67c-0.61-0.21-1.35,0-1.79,0.47c-1.32,1.4-3.14,2.2-5.03,2.2h-0.71
		c-2.86,0-5.4-2.29-6.14-5.48h17.9c0.86,0,1.57-0.69,1.59-1.55c0-0.13,0.01-0.25,0.01-0.38C84.65,92.61,78.66,86.64,71.29,86.64
		 M77.01,96.72H65.57c1.06-2.54,3.28-4.16,5.72-4.16C73.74,92.56,75.95,94.18,77.01,96.72"/>
</g>
<path class="st0" d="M62.67,18.35l15.48,15.27c0.14-0.13,0.27-0.27,0.41-0.41l0,0c4.64-4.56,6.86-9.44,6.61-14.5
	c-0.41-8.11-6.98-13.94-8.29-15.02l-0.53-0.42c-0.04-0.03-0.61-0.42-0.61-0.42c-1.62-1.04-3.53-1.6-5.49-1.6
	c-5.63,0-10.22,4.58-10.22,10.22C60.03,14.04,60.97,16.48,62.67,18.35z"/>
<path class="st0" d="M111.43,25.86L78.17,3.04l0.55,0.42c3.02,2.5,8.1,8.24,8.47,15.38c0.23,4.54-1.45,9.64-6.76,14.88
	c-0.25,0.24-0.49,0.48-0.77,0.75c-4.2,4.15-11.5,11.38-15.31,15.1c-2.03,1.99-3.3,4.73-3.3,7.79c0,5.92,4.8,10.71,10.72,10.71
	c2.13,0,4.11-0.62,5.77-1.7l33.61-23.04c2.84-1.92,4.71-5.16,4.71-8.86C115.86,30.95,114.12,27.79,111.43,25.86"/>
<g class="st1">
	<g class="st2">
		<defs>
			<rect id="SVGID_1_" x="61.03" y="0.9" width="19.55" height="33.59"/>
		</defs>
		<clipPath id="SVGID_2_">
			<use xlink:href="#SVGID_1_"  style="overflow:visible;"/>
		</clipPath>
		<g class="st3">
			<defs>
				<path id="SVGID_3_" d="M65.72,18.83c-1.74-1.91-2.81-4.43-2.81-7.22c0-5.65,4.42-10.25,9.97-10.66
					C72.5,0.92,72.12,0.9,71.75,0.9c-5.92,0-10.72,4.8-10.72,10.72c0,2.78,1.03,5.31,2.77,7.22c0,0,0.02,0.02,15.86,15.65
					c0,0,0.86-0.88,0.92-0.94C65.72,18.84,65.72,18.83,65.72,18.83"/>
			</defs>
			<clipPath id="SVGID_4_">
				<use xlink:href="#SVGID_3_"  style="overflow:visible;"/>
			</clipPath>
			<defs>
				<filter id="Adobe_OpacityMaskFilter" filterUnits="userSpaceOnUse" x="55.88" y="-2.1" width="29.84" height="39.58">
					<feColorMatrix  type="matrix" values="1 0 0 0 0  0 1 0 0 0  0 0 1 0 0  0 0 0 1 0"/>
				</filter>
			</defs>
			<mask maskUnits="userSpaceOnUse" x="55.88" y="-2.1" width="29.84" height="39.58" id="SVGID_5_">
				<g class="st4">
					
						<linearGradient id="SVGID_6_" gradientUnits="userSpaceOnUse" x1="-53.2885" y1="210.9685" x2="-52.2885" y2="210.9685" gradientTransform="matrix(-3.4158 21.7475 21.7475 3.4158 -4697.0444 441.8392)">
						<stop  offset="0" style="stop-color:#000000"/>
						<stop  offset="0.5" style="stop-color:#FFFFFF"/>
						<stop  offset="1" style="stop-color:#000000"/>
					</linearGradient>
					<polygon class="st5" points="85.73,1.71 80.11,37.48 55.88,33.68 61.5,-2.1 					"/>
				</g>
			</mask>
			
				<linearGradient id="SVGID_7_" gradientUnits="userSpaceOnUse" x1="-53.2885" y1="210.9685" x2="-52.2885" y2="210.9685" gradientTransform="matrix(-3.4158 21.7475 21.7475 3.4158 -4697.0444 441.8392)">
				<stop  offset="0" style="stop-color:#FFFFFF"/>
				<stop  offset="0.5" style="stop-color:#FFFFFF"/>
				<stop  offset="1" style="stop-color:#FFFFFF"/>
			</linearGradient>
			<polygon class="st6" points="85.73,1.71 80.11,37.48 55.88,33.68 61.5,-2.1 			"/>
		</g>
	</g>
</g>
<g class="st7">
	<g class="st2">
		<defs>
			<rect id="SVGID_8_" x="71.76" y="30.46" width="44.09" height="37.63"/>
		</defs>
		<clipPath id="SVGID_9_">
			<use xlink:href="#SVGID_8_"  style="overflow:visible;"/>
		</clipPath>
		<g class="st8">
			<defs>
				<path id="SVGID_10_" d="M115.86,34.5c0-1.43-0.28-2.79-0.79-4.03c1.63,7-4.76,10.93-9.19,14.01
					c-4.52,3.14-34.11,23.62-34.11,23.62c2.13,0,4.11-0.62,5.77-1.7l33.61-23.04C113.98,41.43,115.86,38.19,115.86,34.5"/>
			</defs>
			<clipPath id="SVGID_11_">
				<use xlink:href="#SVGID_10_"  style="overflow:visible;"/>
			</clipPath>
			<defs>
				<filter id="Adobe_OpacityMaskFilter_1_" filterUnits="userSpaceOnUse" x="54.32" y="9.63" width="79.82" height="79.29">
					<feColorMatrix  type="matrix" values="1 0 0 0 0  0 1 0 0 0  0 0 1 0 0  0 0 0 1 0"/>
				</filter>
			</defs>
			<mask maskUnits="userSpaceOnUse" x="54.32" y="9.63" width="79.82" height="79.29" id="SVGID_12_">
				<g class="st9">
					
						<linearGradient id="SVGID_13_" gradientUnits="userSpaceOnUse" x1="-53.2885" y1="211.0103" x2="-52.2885" y2="211.0103" gradientTransform="matrix(36.5729 -24.6687 -24.6687 -36.5729 7231.0342 6463.7554)">
						<stop  offset="0" style="stop-color:#FFFFFF"/>
						<stop  offset="0.139" style="stop-color:#FFFFFF"/>
						<stop  offset="0.4865" style="stop-color:#808080"/>
						<stop  offset="1" style="stop-color:#000000"/>
					</linearGradient>
					<polygon class="st10" points="54.32,42.23 102.65,9.63 134.14,56.32 85.82,88.92 					"/>
				</g>
			</mask>
			
				<linearGradient id="SVGID_14_" gradientUnits="userSpaceOnUse" x1="-53.2885" y1="211.0103" x2="-52.2885" y2="211.0103" gradientTransform="matrix(36.5729 -24.6687 -24.6687 -36.5729 7231.0352 6463.7559)">
				<stop  offset="0" style="stop-color:#FFFFFF"/>
				<stop  offset="0.139" style="stop-color:#FFFFFF"/>
				<stop  offset="0.4865" style="stop-color:#2E2C2D"/>
				<stop  offset="1" style="stop-color:#FFFFFF"/>
			</linearGradient>
			<polygon class="st11" points="54.32,42.23 102.65,9.63 134.14,56.32 85.82,88.92 			"/>
		</g>
	</g>
</g>
<g class="st12">
	<g class="st2">
		<defs>
			<rect id="SVGID_15_" x="78.77" y="3.45" width="37.09" height="50.05"/>
		</defs>
		<clipPath id="SVGID_16_">
			<use xlink:href="#SVGID_15_"  style="overflow:visible;"/>
		</clipPath>
		<g class="st13">
			<defs>
				<path id="SVGID_17_" d="M111.43,25.86L78.77,3.45c0,0,24.08,16.26,31.51,25.39c7.43,9.13-6.09,19.27-13.94,24.65l14.8-10.15
					c2.84-1.92,4.71-5.16,4.71-8.86C115.86,30.95,114.12,27.79,111.43,25.86"/>
			</defs>
			<clipPath id="SVGID_18_">
				<use xlink:href="#SVGID_17_"  style="overflow:visible;"/>
			</clipPath>
			<defs>
				<filter id="Adobe_OpacityMaskFilter_2_" filterUnits="userSpaceOnUse" x="53.74" y="-16.01" width="88.98" height="88.98">
					<feColorMatrix  type="matrix" values="1 0 0 0 0  0 1 0 0 0  0 0 1 0 0  0 0 0 1 0"/>
				</filter>
			</defs>
			<mask maskUnits="userSpaceOnUse" x="53.74" y="-16.01" width="88.98" height="88.98" id="SVGID_19_">
				<g class="st14">
					
						<linearGradient id="SVGID_20_" gradientUnits="userSpaceOnUse" x1="-53.2885" y1="211.1407" x2="-52.2885" y2="211.1407" gradientTransform="matrix(19.3823 19.3823 19.3823 -19.3823 -2975.3901 5139.6538)">
						<stop  offset="0" style="stop-color:#FFFFFF"/>
						<stop  offset="0.1204" style="stop-color:#FBFBFB"/>
						<stop  offset="0.2453" style="stop-color:#EEEEEE"/>
						<stop  offset="0.3722" style="stop-color:#DADADA"/>
						<stop  offset="0.5006" style="stop-color:#BCBCBC"/>
						<stop  offset="0.6302" style="stop-color:#979797"/>
						<stop  offset="0.7607" style="stop-color:#696969"/>
						<stop  offset="0.8895" style="stop-color:#343434"/>
						<stop  offset="0.9996" style="stop-color:#000000"/>
						<stop  offset="1" style="stop-color:#000000"/>
					</linearGradient>
					<polygon class="st15" points="98.24,-16.01 142.73,28.48 98.24,72.97 53.74,28.48 					"/>
				</g>
			</mask>
			
				<linearGradient id="SVGID_21_" gradientUnits="userSpaceOnUse" x1="-53.2885" y1="211.1407" x2="-52.2885" y2="211.1407" gradientTransform="matrix(19.3823 19.3823 19.3823 -19.3823 -2975.3904 5139.6543)">
				<stop  offset="0" style="stop-color:#FFFFFF"/>
				<stop  offset="0.9996" style="stop-color:#FFFFFF"/>
				<stop  offset="1" style="stop-color:#FFFFFF"/>
			</linearGradient>
			<polygon class="st16" points="98.24,-16.01 142.73,28.48 98.24,72.97 53.74,28.48 			"/>
		</g>
	</g>
</g>
<g class="st1">
	<g class="st2">
		<defs>
			<rect id="SVGID_22_" x="61.05" y="3.04" width="29.92" height="54.76"/>
		</defs>
		<clipPath id="SVGID_23_">
			<use xlink:href="#SVGID_22_"  style="overflow:visible;"/>
		</clipPath>
		<g class="st17">
			<defs>
				<path id="SVGID_24_" d="M61.06,57.8c0.63-1.59,14.58-12.27,22.6-20.06c5.77-5.6,7.53-11.14,7.28-16.04
					C90.55,14,82.64,6.53,79.32,3.91c-0.28-0.22-1.15-0.87-1.15-0.87l0.55,0.43c3.02,2.5,8.1,8.24,8.47,15.38
					c0.23,4.54-1.43,9.66-6.76,14.88c-0.25,0.25-0.52,0.5-0.76,0.75L64.32,49.62c-1.97,1.9-3.27,4.69-3.27,7.76
					C61.05,57.52,61.05,57.66,61.06,57.8"/>
			</defs>
			<clipPath id="SVGID_25_">
				<use xlink:href="#SVGID_24_"  style="overflow:visible;"/>
			</clipPath>
			<defs>
				<filter id="Adobe_OpacityMaskFilter_3_" filterUnits="userSpaceOnUse" x="43.45" y="-6.65" width="65.34" height="74.14">
					<feColorMatrix  type="matrix" values="1 0 0 0 0  0 1 0 0 0  0 0 1 0 0  0 0 0 1 0"/>
				</filter>
			</defs>
			<mask maskUnits="userSpaceOnUse" x="43.45" y="-6.65" width="65.34" height="74.14" id="SVGID_26_">
				<g class="st18">
					
						<linearGradient id="SVGID_27_" gradientUnits="userSpaceOnUse" x1="-53.2885" y1="211.0575" x2="-52.2885" y2="211.0575" gradientTransform="matrix(14.5203 -39.8942 -39.8942 -14.5203 9263.1533 987.551)">
						<stop  offset="0" style="stop-color:#000000"/>
						<stop  offset="0.5" style="stop-color:#FFFFFF"/>
						<stop  offset="1" style="stop-color:#000000"/>
					</linearGradient>
					<polygon class="st19" points="43.45,51.4 64.57,-6.65 108.79,9.45 87.66,67.49 					"/>
				</g>
			</mask>
			
				<linearGradient id="SVGID_28_" gradientUnits="userSpaceOnUse" x1="-53.2885" y1="211.0575" x2="-52.2885" y2="211.0575" gradientTransform="matrix(14.5203 -39.8942 -39.8942 -14.5203 9263.1533 987.551)">
				<stop  offset="0" style="stop-color:#FFFFFF"/>
				<stop  offset="0.5" style="stop-color:#FFFFFF"/>
				<stop  offset="1" style="stop-color:#FFFFFF"/>
			</linearGradient>
			<polygon class="st20" points="43.45,51.4 64.57,-6.65 108.79,9.45 87.66,67.49 			"/>
		</g>
	</g>
</g>
<g class="st7">
	<g class="st2">
		<defs>
			<rect id="SVGID_29_" x="61.05" y="45.2" width="17.23" height="22.89"/>
		</defs>
		<clipPath id="SVGID_30_">
			<use xlink:href="#SVGID_29_"  style="overflow:visible;"/>
		</clipPath>
		<g class="st21">
			<defs>
				<path id="SVGID_31_" d="M65.9,57.79c-0.07-4.03,3.55-7.55,5.86-9.53l-2.95-3.07c-3.92,3.87-4.41,4.33-4.41,4.33
					c-1.92,1.78-3.36,4.67-3.36,7.84c0,5.92,4.8,10.72,10.72,10.72c2.13,0,4.11-0.62,5.77-1.7l0.74-0.51l-1.13-1.52
					C70.8,67.74,65.99,63.36,65.9,57.79"/>
			</defs>
			<clipPath id="SVGID_32_">
				<use xlink:href="#SVGID_31_"  style="overflow:visible;"/>
			</clipPath>
			<defs>
				<filter id="Adobe_OpacityMaskFilter_4_" filterUnits="userSpaceOnUse" x="49.6" y="36.58" width="40.12" height="40.12">
					<feColorMatrix  type="matrix" values="1 0 0 0 0  0 1 0 0 0  0 0 1 0 0  0 0 0 1 0"/>
				</filter>
			</defs>
			<mask maskUnits="userSpaceOnUse" x="49.6" y="36.58" width="40.12" height="40.12" id="SVGID_33_">
				<g class="st22">
					
						<linearGradient id="SVGID_34_" gradientUnits="userSpaceOnUse" x1="-53.2885" y1="211.0475" x2="-52.2885" y2="211.0475" gradientTransform="matrix(16.7419 16.7419 16.7419 -16.7419 -2577.845 4475.8115)">
						<stop  offset="0" style="stop-color:#FFFFFF"/>
						<stop  offset="0.2663" style="stop-color:#FFFFFF"/>
						<stop  offset="0.4865" style="stop-color:#808080"/>
						<stop  offset="0.7646" style="stop-color:#000000"/>
						<stop  offset="1" style="stop-color:#000000"/>
					</linearGradient>
					<polygon class="st23" points="69.66,36.58 89.72,56.65 69.66,76.71 49.6,56.65 					"/>
				</g>
			</mask>
			
				<linearGradient id="SVGID_35_" gradientUnits="userSpaceOnUse" x1="-53.2885" y1="211.0475" x2="-52.2885" y2="211.0475" gradientTransform="matrix(16.7419 16.7419 16.7419 -16.7419 -2577.845 4475.8115)">
				<stop  offset="0" style="stop-color:#FFFFFF"/>
				<stop  offset="0.2663" style="stop-color:#FFFFFF"/>
				<stop  offset="0.4865" style="stop-color:#2E2C2D"/>
				<stop  offset="0.7646" style="stop-color:#FFFFFF"/>
				<stop  offset="1" style="stop-color:#FFFFFF"/>
			</linearGradient>
			<polygon class="st24" points="69.66,36.58 89.72,56.65 69.66,76.71 49.6,56.65 			"/>
		</g>
	</g>
</g>
</svg>
