<svg id="Layer_1" data-name="Layer 1" xmlns="http://www.w3.org/2000/svg" viewBox="0 0 434.08 141.73"><defs><style>.cls-1{fill:#fff;}</style></defs><path class="cls-1" d="M125.83,33.34A33.15,33.15,0,0,0,94.3.27a5.46,5.46,0,0,0-.58,0h-1a5.46,5.46,0,0,0-.58,0,33.11,33.11,0,0,0,0,66.15,5.46,5.46,0,0,0,.58,0h1a5.46,5.46,0,0,0,.58,0A33.16,33.16,0,0,0,125.83,33.34ZM93.22,57.18a23.84,23.84,0,0,1,0-47.67,23.84,23.84,0,0,1,0,47.67Z"/><path class="cls-1" d="M142.65,66.07A4.63,4.63,0,0,1,138,61.44V4.63A4.64,4.64,0,0,1,146,1.38l47.8,48.46V4.94a4.64,4.64,0,0,1,9.27,0V61.13a4.63,4.63,0,0,1-7.93,3.25l-47.8-48.46V61.44A4.63,4.63,0,0,1,142.65,66.07Z"/><path class="cls-1" d="M4.63,67A4.63,4.63,0,0,1,0,62.37V5.56a4.63,4.63,0,0,1,9.26,0V62.37A4.63,4.63,0,0,1,4.63,67Z"/><path class="cls-1" d="M48,66.71a4.29,4.29,0,0,1-3-1.25L19.76,40.28a9.4,9.4,0,0,1,0-13.29L45.27,1.47a4.27,4.27,0,0,1,6,6L25.8,33a.88.88,0,0,0,0,1.21L51,59.42a4.27,4.27,0,0,1-3,7.29Z"/><path class="cls-1" d="M224.46,67a4.63,4.63,0,0,1-4.63-4.63V5.56a4.63,4.63,0,0,1,9.26,0V62.37A4.63,4.63,0,0,1,224.46,67Z"/><path class="cls-1" d="M267.79,66.71a4.25,4.25,0,0,1-3-1.25L239.59,40.28a9.4,9.4,0,0,1,0-13.29L265.1,1.47a4.27,4.27,0,0,1,6,6L245.63,33a.88.88,0,0,0,0,1.21l25.18,25.18a4.27,4.27,0,0,1-3,7.29Z"/><path class="cls-1" d="M36.43,129.67a1.72,1.72,0,0,1,1.29.57l3.58,3.89A19.71,19.71,0,0,1,34,139.77a25.13,25.13,0,0,1-10.42,2,24.66,24.66,0,0,1-9.79-1.86,21.6,21.6,0,0,1-7.42-5.17,22.56,22.56,0,0,1-4.71-7.91,29.72,29.72,0,0,1-1.64-10,26.92,26.92,0,0,1,1.83-10.09A22.92,22.92,0,0,1,7,98.78a23.26,23.26,0,0,1,7.93-5.16,27.18,27.18,0,0,1,10.19-1.84,24.06,24.06,0,0,1,9.51,1.74,22.28,22.28,0,0,1,7,4.61l-3,4.23a2.73,2.73,0,0,1-.69.71,2,2,0,0,1-1.17.3,2.63,2.63,0,0,1-1.59-.61A20.44,20.44,0,0,0,33,101.45a15.41,15.41,0,0,0-8-1.93,16.39,16.39,0,0,0-6.34,1.2,14.15,14.15,0,0,0-5,3.43,16,16,0,0,0-3.24,5.42,20.81,20.81,0,0,0-1.17,7.19,21.31,21.31,0,0,0,1.17,7.33,16.23,16.23,0,0,0,3.16,5.41,13.62,13.62,0,0,0,4.7,3.36A14.46,14.46,0,0,0,24.13,134a24.39,24.39,0,0,0,3.36-.21,13.9,13.9,0,0,0,2.77-.64,12,12,0,0,0,2.4-1.13,14.24,14.24,0,0,0,2.25-1.71,3.61,3.61,0,0,1,.71-.49A1.85,1.85,0,0,1,36.43,129.67Z"/><path class="cls-1" d="M96.52,116.76a27.15,27.15,0,0,1-1.79,9.95,23.55,23.55,0,0,1-5,7.92,22.78,22.78,0,0,1-7.81,5.23,28.29,28.29,0,0,1-20.23,0,22.81,22.81,0,0,1-7.84-5.23,23.44,23.44,0,0,1-5-7.92,28.58,28.58,0,0,1,0-19.91,23.44,23.44,0,0,1,5-7.92,22.93,22.93,0,0,1,7.84-5.22,26.47,26.47,0,0,1,10.12-1.88,26.16,26.16,0,0,1,10.11,1.89A22.84,22.84,0,0,1,94.73,106.8,27.21,27.21,0,0,1,96.52,116.76Zm-9.33,0a22.79,22.79,0,0,0-1.06-7.22,15.17,15.17,0,0,0-3.06-5.42,13.2,13.2,0,0,0-4.85-3.42,18.19,18.19,0,0,0-12.89,0,13.27,13.27,0,0,0-4.89,3.42,15.22,15.22,0,0,0-3.09,5.42,24.64,24.64,0,0,0,0,14.43,15.18,15.18,0,0,0,3.09,5.41,13.34,13.34,0,0,0,4.89,3.4,18.19,18.19,0,0,0,12.89,0,13.27,13.27,0,0,0,4.85-3.4A15.13,15.13,0,0,0,86.13,124,22.73,22.73,0,0,0,87.19,116.76Z"/><path class="cls-1" d="M111,92.37a2.6,2.6,0,0,1,.73.2,2.72,2.72,0,0,1,.62.44,7.92,7.92,0,0,1,.68.76l25.65,32.69c-.09-.79-.15-1.56-.18-2.32s0-1.46,0-2.11V92.32h8v48.87h-4.7a4.08,4.08,0,0,1-1.79-.34,3.91,3.91,0,0,1-1.39-1.21L113,107.09c.07.72.12,1.44.15,2.15s.05,1.35.05,1.94v30h-8V92.32h4.77A9.29,9.29,0,0,1,111,92.37Z"/><path class="cls-1" d="M184,101.21a2.52,2.52,0,0,1-.86,1.05,2.15,2.15,0,0,1-1.16.3,3,3,0,0,1-1.53-.52c-.56-.35-1.22-.74-2-1.17a16.45,16.45,0,0,0-2.68-1.16,11.31,11.31,0,0,0-3.64-.53,10.56,10.56,0,0,0-3.3.46,6.75,6.75,0,0,0-2.36,1.27,5.09,5.09,0,0,0-1.44,1.94,6.44,6.44,0,0,0-.47,2.48,4.35,4.35,0,0,0,1,2.88,8.27,8.27,0,0,0,2.56,2,23.58,23.58,0,0,0,3.61,1.45c1.35.43,2.73.88,4.14,1.37a39.05,39.05,0,0,1,4.14,1.69,14.36,14.36,0,0,1,3.62,2.43,11,11,0,0,1,2.55,3.6,12.53,12.53,0,0,1,1,5.17,16.9,16.9,0,0,1-1.13,6.2,14.4,14.4,0,0,1-3.31,5,15.58,15.58,0,0,1-5.32,3.38,19.69,19.69,0,0,1-7.2,1.23,23.52,23.52,0,0,1-4.6-.45,24,24,0,0,1-4.34-1.31,22.36,22.36,0,0,1-3.89-2,19.55,19.55,0,0,1-3.23-2.64l2.64-4.36a3.41,3.41,0,0,1,.9-.79,2.09,2.09,0,0,1,1.16-.32,3.27,3.27,0,0,1,1.83.69c.65.46,1.42,1,2.31,1.54A18,18,0,0,0,166,133.6a12,12,0,0,0,4.35.7,8.89,8.89,0,0,0,6-1.85,6.59,6.59,0,0,0,2.13-5.28,4.93,4.93,0,0,0-1-3.15,7.71,7.71,0,0,0-2.55-2,19.79,19.79,0,0,0-3.62-1.41c-1.35-.38-2.73-.79-4.12-1.25a35.19,35.19,0,0,1-4.12-1.62,13.31,13.31,0,0,1-3.62-2.46,11.28,11.28,0,0,1-2.55-3.81,14.3,14.3,0,0,1-1-5.62,13.35,13.35,0,0,1,1.07-5.21,13.15,13.15,0,0,1,3.11-4.49,15.23,15.23,0,0,1,5-3.15A18.2,18.2,0,0,1,172,91.78a22.79,22.79,0,0,1,8,1.35,17.94,17.94,0,0,1,6.23,3.79Z"/><path class="cls-1" d="M215.18,133.86a12.06,12.06,0,0,0,4.71-.88,9.87,9.87,0,0,0,3.52-2.47,10.78,10.78,0,0,0,2.2-3.85,16.07,16.07,0,0,0,.76-5.07V92.32h9.09v29.27a22.67,22.67,0,0,1-1.4,8.06,18,18,0,0,1-10.43,10.58,24.55,24.55,0,0,1-16.9,0,17.89,17.89,0,0,1-10.39-10.58,22.45,22.45,0,0,1-1.4-8.06V92.32H204v29.24a15.79,15.79,0,0,0,.76,5.07,11,11,0,0,0,2.18,3.86,9.44,9.44,0,0,0,3.5,2.49A12.06,12.06,0,0,0,215.18,133.86Z"/><path class="cls-1" d="M255.3,133.69h19.57v7.5H246.21V92.32h9.09Z"/><path class="cls-1" d="M311.13,92.32v7.47h-14.7v41.4h-9.1V99.79H272.57V92.32Z"/><path class="cls-1" d="M328.63,141.19h-9.12V92.32h9.12Z"/><path class="cls-1" d="M346.88,92.37a2.18,2.18,0,0,1,1.35.64,7.92,7.92,0,0,1,.68.76l25.65,32.69c-.09-.79-.15-1.56-.18-2.32s-.05-1.46-.05-2.11V92.32h8v48.87h-4.7a4.08,4.08,0,0,1-1.79-.34,3.91,3.91,0,0,1-1.39-1.21l-25.55-32.55c.07.72.12,1.44.15,2.15s.05,1.35.05,1.94v30h-8V92.32h4.77A9.29,9.29,0,0,1,346.88,92.37Z"/><path class="cls-1" d="M416.13,134.5a22.86,22.86,0,0,0,5.36-.56,21.91,21.91,0,0,0,4.34-1.54v-8.89h-6.12a1.89,1.89,0,0,1-1.38-.49,1.57,1.57,0,0,1-.51-1.19v-5.14h16.26v19.77a27.54,27.54,0,0,1-3.87,2.35,25.24,25.24,0,0,1-4.29,1.64,32.32,32.32,0,0,1-4.89,1,46.63,46.63,0,0,1-5.61.32,25.43,25.43,0,0,1-9.83-1.86,23.39,23.39,0,0,1-7.78-5.17,23.63,23.63,0,0,1-5.12-7.91,26.87,26.87,0,0,1-1.84-10,27.71,27.71,0,0,1,1.79-10.11,22.91,22.91,0,0,1,5.09-7.91,22.61,22.61,0,0,1,8-5.13,28.86,28.86,0,0,1,10.55-1.83,27.56,27.56,0,0,1,10.36,1.77A24,24,0,0,1,434,98.17l-2.63,4.12a2.34,2.34,0,0,1-2.06,1.25,3.08,3.08,0,0,1-1.66-.54c-.72-.43-1.46-.86-2.21-1.28a15.49,15.49,0,0,0-2.5-1.12,22.28,22.28,0,0,0-3.08-.78,23,23,0,0,0-3.94-.3,16.9,16.9,0,0,0-6.54,1.22,13.75,13.75,0,0,0-5,3.48,15.69,15.69,0,0,0-3.18,5.44,21.41,21.41,0,0,0-1.11,7.1,22.19,22.19,0,0,0,1.18,7.52,15.85,15.85,0,0,0,3.31,5.56,14.26,14.26,0,0,0,5.07,3.46A16.83,16.83,0,0,0,416.13,134.5Z"/></svg>