<?xml version="1.0" encoding="utf-8"?>
<!-- Generator: Adobe Illustrator 23.1.0, SVG Export Plug-In . SVG Version: 6.00 Build 0)  -->
<svg version="1.1" id="Layer_1" xmlns="http://www.w3.org/2000/svg" xmlns:xlink="http://www.w3.org/1999/xlink" x="0px" y="0px"
	 viewBox="0 0 177.1 69.3" style="enable-background:new 0 0 177.1 69.3;" xml:space="preserve">
<style type="text/css">
	.st0{fill-rule:evenodd;clip-rule:evenodd;fill:#FFFFFF;}
	.st1{fill:#FFFFFF;}
	.st2{fill:none;stroke:#FFFFFF;stroke-miterlimit:10;}
</style>
<path class="st0" d="M117.9,67.6h-8.5l9.3-31.3L98.5,67.6h-7.1l-1.9-31.3l-9.3,31.3h-6.9L84.6,31h11.9c0,0,1.8,18.8,0.4,31.6
	c0,0,3.5-11.4,18.2-31.6h12L117.9,67.6L117.9,67.6z"/>
<path class="st0" d="M163.5,42.8H156c0.1-0.3,0.2-0.6,0.3-0.9c1.3-4.4-1.4-6.1-6.1-6.3c-7-0.3-10.8,5.2-13.1,13.4
	c-2.6,8.9-0.4,14.3,7.3,14.3c6.2,0,5.8-1.3,5.8-1.3l2.5-8h-8.2l1.7-5.5h15.5L156.5,67c-2.1,0.8-9,1.6-13.8,1.6
	c-7.4,0-18.1-4.9-13.7-19.4c5.3-17.3,14.4-18.9,21.7-18.9C161.6,30.2,165.5,37.2,163.5,42.8L163.5,42.8z"/>
<path class="st0" d="M10,67.6H1.8l11-36.6H21C21,31,10.2,66.8,10,67.6L10,67.6z"/>
<polygon class="st0" points="16.4,47.2 16.4,47.2 32.5,31 42.5,31 24.4,47.9 33.6,67.6 24.7,67.6 16.4,47.1 "/>
<g>
	<path class="st1" d="M60.3,31H51L40,67.6h7.5l4.3-14.5h6c11.7,0,16.8-5.2,17.9-11.1C77.9,30.8,68.8,30.9,60.3,31z M68.2,42
		c-1.2,3.7-2.9,5.6-8.4,5.7c-1.8,0-3.8,0-6.5,0l3.4-11.5C64.8,36.3,70.3,35.6,68.2,42z"/>
</g>
<rect x="10.2" y="1.4" class="st2" width="38.3" height="54.1"/>
<rect x="52.6" y="1.3" class="st2" width="38.3" height="54.1"/>
<rect x="95" y="1.4" class="st2" width="38.3" height="54.1"/>
<rect x="137.4" y="1.3" class="st2" width="38.3" height="54.1"/>
</svg>
