<?xml version="1.0" encoding="utf-8"?>
<!-- Generator: Adobe Illustrator 23.0.3, SVG Export Plug-In . SVG Version: 6.00 Build 0)  -->
<svg version="1.1" id="Layer_1" xmlns="http://www.w3.org/2000/svg" xmlns:xlink="http://www.w3.org/1999/xlink" x="0px" y="0px"
	 viewBox="0 0 68.6 28.1" style="enable-background:new 0 0 68.6 28.1;" xml:space="preserve">
<style type="text/css">
	.st0{clip-path:url(#SVGID_2_);fill:#231F20;}
	.st1{clip-path:url(#SVGID_2_);fill:none;stroke:#FFFFFF;stroke-miterlimit:10;}
	.st2{clip-path:url(#SVGID_2_);}
	.st3{clip-path:url(#SVGID_4_);fill:none;stroke:#FFFFFF;stroke-miterlimit:10;}
	.st4{clip-path:url(#SVGID_6_);fill:none;stroke:#FFFFFF;stroke-miterlimit:10;}
	.st5{clip-path:url(#SVGID_6_);fill:#FEEDE8;}
	.st6{clip-path:url(#SVGID_6_);fill:#0D0D0D;}
	.st7{clip-path:url(#SVGID_8_);}
	.st8{fill:#231F20;}
	.st9{fill:#0D0D0D;}
	.st10{fill:none;stroke:#FEEDE8;stroke-width:1.099;stroke-miterlimit:10;}
	.st11{fill:#FFFFFF;}
	.st12{fill:none;stroke:#FFFFFF;stroke-width:0.193;stroke-miterlimit:10;}
	.st13{clip-path:url(#SVGID_14_);}
	.st14{fill-rule:evenodd;clip-rule:evenodd;fill:#FFFFFF;}
</style>
<path class="st11" d="M35.9,0.4c0.4,0,0.8-0.1,1.1-0.1c4.5-0.1,9.1-0.1,13.6-0.2c0.7,0,0.8,0.2,0.8,0.8c0,4.4,0,8.8,0,13.3
	c0,0.2,0,0.5,0,0.8c0.8-0.5,1.2-1,1.1-2c-0.1-4,0-7.9-0.1-11.9c0-1,0-1,1-1c4.7-0.1,9.3-0.1,14-0.2c0.3,0,0.6,0,1,0
	c0,1.1,0,2.1,0,3.2c0,6,0,12.1,0,18.1c0,0.6-0.2,0.8-0.8,0.8c-1,0-2,0-3.1,0c-0.5,0-0.7,0.2-0.8,0.6c-0.3,1.4-0.7,2.8-1.1,4.1
	c-0.1,0.2-0.3,0.5-0.5,0.6c-2.9,0.6-5.8,1.1-8.8,0.6c-2.9-0.4-5-2.1-5-5.5c0-0.1,0-0.2-0.1-0.4c-0.5,0-1.1,0-1.6,0
	c-0.2,0-0.4,0.3-0.4,0.5c-0.3,1.5-0.7,3-1,4.5c-0.1,0.5-0.3,0.7-0.8,0.7c-1,0-2.1,0-3.3,0c0.4-1.9,0.8-3.8,1.2-5.7
	c-0.7,0-1.3,0-1.9,0c-0.2,0-0.5,0.3-0.6,0.5c-1,1.5-2,3.1-2.9,4.6c-0.2,0.4-0.5,0.6-1,0.5c-0.6,0-1.1,0-1.7,0c-1,0-1,0-1-1
	c0-1.3,0-2.5,0-3.8c0-0.3,0-0.5,0-0.9c-0.5,0-0.9-0.1-1.2,0c-0.2,0-0.4,0.3-0.4,0.5c-0.4,1.5-0.9,3-1.2,4.5
	c-0.1,0.5-0.3,0.7-0.8,0.6c-1,0-2.1,0-3.3,0c0.5-1.9,1-3.7,1.6-5.6h-1c-2.4,0-4.8,0-7.2,0c-0.5,0-0.7,0.1-0.8,0.6
	c-0.3,1.3-0.7,2.6-1.1,3.9c-0.4,1.4-0.2,1.1-1.5,1.1c-0.8,0-1.7,0-2.7,0c0.6-1.9,1.1-3.7,1.6-5.6H9.7c0.9,1.8,1.7,3.6,2.6,5.5
	c-1.4,0-2.7,0-3.9,0c-0.2,0-0.3-0.3-0.4-0.5c-0.7-1.5-1.4-2.9-2.2-4.4c-0.1-0.2-0.3-0.5-0.5-0.9c-0.2,0.4-0.3,0.6-0.4,0.8
	C4.4,24,4,25.5,3.6,26.9c-0.1,0.4-0.3,0.6-0.8,0.6c-0.9,0-1.8,0-2.8,0c0.3-1.2,0.6-2.2,0.9-3.2c0.9-3,1.8-6.1,2.6-9.1
	c0.1-0.3,0.1-0.7,0.1-1.1c0-4.2,0-8.3-0.1-12.5c0-0.9,0-0.9,0.9-0.9c4.4-0.1,8.8-0.1,13.2-0.2c0.7,0,0.8,0.2,0.8,0.9
	c0,3.5,0,7.1,0,10.6c0,0.3,0,0.6,0,0.9h1.1c0-0.3,0-0.5,0-0.8c0-3.6,0-7.2,0-10.8c0-0.6,0.1-0.8,0.8-0.8c4.5,0,9-0.1,13.5-0.1
	c1,0,1,0,1,0.9c0,3.5,0,7,0,10.5c0,0.3,0,0.6,0,1h1.1V0.4z M53.4,21.3c0.5,0,0.9,0,1.4,0c0.6,0,1.4,0.2,1.8-0.1
	c0.4-0.3,0.5-1.1,0.6-1.7c0.1-0.4,0.3-0.6,0.7-0.6c2.2,0,4.4,0,6.6,0c0.1,0,0.2,0,0.4,0.1c-0.2,0.8-0.4,1.5-0.5,2.2h3.4V0.9H53.4
	v12.6c0.3-0.1,0.5-0.3,0.7-0.4c3-1.4,6-1.7,9.1-0.7c1.9,0.6,2.8,2.3,2.3,4.1C65.4,16.7,65.2,17,65,17c-1.2,0-2.4,0-3.6,0
	c-0.2,0-0.4-0.2-0.5-0.4c-0.3-1.2-0.7-1.6-2-1.6C56,15,53.3,18.1,53.4,21.3 M36.7,1v20.2l0.2,0.1c0.1-0.2,0.3-0.4,0.4-0.6
	c1.6-2.4,3.1-4.9,4.7-7.3c0.2-0.4,0.5-0.6,1-0.6c1.2,0,2.5,0,3.7,0c0.6,0,1.2,0,1.9,0c-0.6,2.9-1.2,5.6-1.7,8.4h1.9
	c0.3-1.8,0.9-3.4,1.9-4.8c0.2-0.3,0.2-0.6,0.2-0.9c0-4.6,0-9.3,0-13.9c0-0.2,0-0.4-0.1-0.5H36.7z M17.8,1.5H4.4v11.6h3.3
	c-0.5,1.9-1.1,3.7-1.6,5.6c1.7-1.8,3.2-3.5,4.8-5.2c0.3-0.3,0.7-0.5,1.1-0.5c1.1-0.1,2.2,0,3.3,0c0.2,0,0.3,0,0.6,0.1
	c-0.2,0.2-0.3,0.3-0.4,0.5c-2,2.1-4.1,4.2-6.1,6.4c-0.1,0.2-0.3,0.5-0.2,0.6c0.1,0.3,0.4,0.7,0.6,0.7c2,0.1,4,0,6,0
	c0.5-1.9,1-3.7,1.6-5.5c0.5-1.4,0.7-2.8,0.6-4.3c-0.1-2.7-0.1-5.3-0.1-8C17.8,2.8,17.8,2.2,17.8,1.5 M34.1,12.9
	c0.1-0.2,0.1-0.2,0.1-0.3c0-3.7,0-7.3-0.1-11c0-0.4-0.2-0.5-0.6-0.5C29.3,1.2,25.2,1.2,21,1.3c-0.6,0-0.7,0.2-0.7,0.8
	c0,3.4,0.1,6.8,0.1,10.2c0,0.6,0.2,0.8,0.8,0.7c1.4,0,2.9,0,4.3,0c1.5,0.1,2.4,0.8,2.7,2c0.6,2-0.5,4.8-2.3,5.9
	c-0.2,0.1-0.3,0.2-0.7,0.4c0.9,0,1.7,0,2.4,0c0.6,0,0.8-0.2,1-0.7c0.6-2.4,1.3-4.7,2-7.1c0.1-0.4,0.3-0.6,0.8-0.6
	C32.2,12.9,33.1,12.9,34.1,12.9 M53.4,22.1c0,1.3,0.5,2.2,1.6,2.6c1.3,0.5,2.6,0.3,3.9,0.1c0.1,0,0.3-0.2,0.3-0.3
	c0.2-0.8,0.4-1.6,0.6-2.5H53.4z M20.1,19.3c0.5,0,0.9,0,1.4,0c1.9-0.1,2.7-0.8,3-2.6c0.1-0.8-0.1-1.1-0.8-1.2
	c-0.8-0.1-1.5-0.1-2.3-0.1c-0.1,0-0.4,0.2-0.4,0.4C20.7,16.9,20.4,18.1,20.1,19.3 M40.9,21.3c0.6,0,1.1,0,1.5,0
	c0.2,0,0.4-0.2,0.5-0.4c0.3-1.3,0.6-2.6,0.9-3.9l-0.1,0C42.7,18.4,41.9,19.8,40.9,21.3 M33.4,17.2c0,0-0.1,0-0.1,0
	c-0.4,1.3-0.7,2.7-1.1,4h1.2V17.2z"/>
</svg>
