<svg id="Layer_1" data-name="Layer 1" xmlns="http://www.w3.org/2000/svg" viewBox="0 0 626.37 199.81"><defs><style>.cls-1{fill:#fff;}</style></defs><path class="cls-1" d="M120.89,110.22v42.05H103.74c-.06-1.07-.17-2.06-.17-3,0-24.51-.08-49,0-73.53.09-23.73,15-41.71,38-46,24.54-4.61,49.12,12.26,53.16,36.48,4.31,25.79-12.65,49.47-38,53.12a46.07,46.07,0,0,1-33.53-7.56C122.63,111.32,122,110.94,120.89,110.22Zm28.65-6.92c16.13.06,28.5-12.28,28.65-28.61.15-16.49-12.14-29.13-28.38-29.18a28.46,28.46,0,0,0-28.9,28.79C120.86,90.64,133.29,103.24,149.54,103.3Z"/><path class="cls-1" d="M225.15,81.51c1.42,3.86,2.14,7.38,3.88,10.28,5.55,9.28,14.15,13.11,24.79,12.79a27.88,27.88,0,0,0,19.28-7.93,3.15,3.15,0,0,1,1.82-1.05c6.46-.08,12.92,0,19.48,0-3.85,16.85-31.41,29.63-52.29,24.67-24.69-5.87-39.76-31.12-33.65-56.37A45.41,45.41,0,0,1,263.8,30.17c23.4,5.82,39.69,30,34.2,51.34ZM279.76,67.1c-1.26-11-13.62-21.08-26-21.34-13.48-.28-25.9,9.21-27.69,21.34Z"/><path class="cls-1" d="M626.35,118.51c-5.37,0-10.53.06-15.69-.09-.52,0-1.41-1.28-1.44-2-.15-3.57-.07-7.16-.07-10.74-.43,0-.7-.07-.76,0-8.08,11.79-19.82,15.31-33.24,13.87a45.19,45.19,0,0,1-39.87-37.9c-4.43-29.53,17.6-50,40.34-52.37C599.3,26.86,619.74,42.06,625,63a35.34,35.34,0,0,1,1.32,8.19C626.41,86.76,626.35,102.39,626.35,118.51Zm-45.72-15.22c16.12.1,28.56-12.28,28.69-28.55.14-16.57-12-29.11-28.32-29.23a28.53,28.53,0,0,0-29,28.73C552,90.55,564.4,103.2,580.63,103.29Z"/><path class="cls-1" d="M45.78,119.81A45.46,45.46,0,0,1,0,74C.13,49,20.62,29,46,29,71.71,29,92.1,49.34,91.92,74.69S71.37,119.89,45.78,119.81ZM74.52,74.48c0-16.54-11.94-28.82-28.22-29a28.9,28.9,0,1,0-.13,57.79C62.39,103.29,74.49,91,74.52,74.48Z"/><path class="cls-1" d="M403.44,119.94H386.12V116.7c0-14.43.13-28.86-.06-43.28a28.08,28.08,0,0,0-22.61-27.2A28.82,28.82,0,0,0,328.72,74c-.17,14.15-.05,28.3-.05,42.45v3.71c-5.49,0-10.83.06-16.16-.11-.47,0-1.26-1.56-1.27-2.41-.11-6.93-.11-13.87-.05-20.81.07-8.87-.22-17.78.45-26.61,1.58-20.93,18.35-38.12,39.3-40.88,24-3.16,45.55,11.31,51.25,34.6a48.8,48.8,0,0,1,1.35,11c.16,14.33.08,28.67.07,43C403.61,118.5,403.51,119.13,403.44,119.94Z"/><path class="cls-1" d="M493.46,30.2c-.53,1.45-.84,2.39-1.21,3.3q-16.85,41.91-33.65,83.83c-.84,2.1-1.86,3-4.22,2.88-4.06-.22-8.15,0-12.21-.14a3.54,3.54,0,0,1-2.68-1.59q-17.58-43.54-34.95-87.17a5.31,5.31,0,0,1,0-1.11c2.61,0,5.22-.05,7.83,0,3.31.08,7.37-.88,9.72.69s2.69,5.63,3.87,8.63q10.76,27.32,21.48,54.66c.33.83.7,1.65,1.27,3,.58-1.28,1-2,1.3-2.85q12.18-30.79,24.29-61.61c.77-2,1.77-2.65,3.83-2.59C483.08,30.29,488.05,30.2,493.46,30.2Z"/><path class="cls-1" d="M521.33,30.51v89.61c-5.37,0-10.62,0-15.86-.06-.46,0-1.07-.82-1.3-1.38a5.3,5.3,0,0,1-.08-1.92V33.86c0-3.64,0-3.66,3.64-3.66,4.16,0,8.32,0,12.48.06A6.07,6.07,0,0,1,521.33,30.51Z"/><path class="cls-1" d="M425.86,191.68c3.36-.21,5.5-.59,7.48,1.88,1.72,2.16,4.74,1.73,7.26.8s3.18-2.93,3.26-5.31c0-1.08,0-2.16,0-3.85-2.78,2.81-5.63,4.57-9,3.57a15.56,15.56,0,0,1-6.82-3.71c-4.23-4.5-3.62-13.51.73-17.79,4-4,9.31-3.88,14.83.5L444,165h5.11a17.9,17.9,0,0,1,.27,2.19c0,7,0,14,0,21.07,0,4.4-1.4,8.1-5.6,10-4.64,2.09-9.45,2.28-13.68-.88C428.47,196.13,427.49,193.91,425.86,191.68Zm18-15c0-4.3-2.45-7.07-6.35-7.11s-6.48,2.76-6.56,7,2.55,7.28,6.55,7.25C441.37,183.77,443.88,181,443.89,176.68Z"/><path class="cls-1" d="M502.72,185.89c-.11,1-.18,1.73-.27,2.58h-5.17V155h5.29v13.05c3.18-2.91,6.38-4.74,10.09-3.4a14.29,14.29,0,0,1,6.05,4c4,4.88,3.28,13.41-1,17.62C513.73,190.16,508.45,190.08,502.72,185.89Zm12.77-9.15c0-4.19-2.67-7.14-6.42-7.17-3.94,0-6.53,2.89-6.5,7.31,0,4.21,2.67,7.19,6.39,7.21S515.53,181.06,515.49,176.74Z"/><path class="cls-1" d="M361.75,154.91H367v12.84c6.92-4.49,11.93-4.31,15.76.33,4.06,4.92,3.76,13.77-.62,18.15-4,4-9.68,3.89-14.91-.37-.16.95-.29,1.76-.43,2.65h-5.09Zm5.26,21.9c0,4.24,2.58,7.22,6.3,7.28s6.62-3,6.62-7.28-2.65-7.18-6.36-7.24C369.61,169.52,367,172.39,367,176.81Z"/><path class="cls-1" d="M543.16,167.5c.19-.82.37-1.57.58-2.45h5.32v23.4H543.9c-.15-.75-.31-1.52-.58-2.9-2.74,3.22-6,4.44-9.58,3.34a13.84,13.84,0,0,1-6.17-3.82c-4-4.65-3.41-13.24.79-17.64C532.25,163.37,537.41,163.36,543.16,167.5Zm-12.38,9.21c0,4.45,2.54,7.41,6.44,7.38,3.67,0,6.38-3,6.45-7.2.08-4.33-2.6-7.33-6.53-7.32S530.81,172.39,530.78,176.71Z"/><path class="cls-1" d="M620.43,167.57c.21-.84.4-1.61.62-2.52h5.16v23.33h-5.1c-.14-.73-.28-1.5-.53-2.87-2.68,3.19-5.89,4.43-9.37,3.43a13.88,13.88,0,0,1-6.26-3.69c-4.18-4.65-3.63-13.37.7-17.85C609.57,163.35,614.65,163.37,620.43,167.57ZM608,177c0,4.28,2.62,7.14,6.41,7.13s6.6-3.26,6.5-7.45-2.69-7.06-6.52-7.07S608,172.48,608,177Z"/><path class="cls-1" d="M479.23,189.17c-7.26,0-12.52-5.19-12.53-12.34s5.4-12.53,12.73-12.5a12.42,12.42,0,1,1-.2,24.84Zm.18-19.6c-4,0-6.8,2.79-6.87,7s2.56,7.31,6.47,7.44,7-2.89,7.05-7.18S483.33,169.63,479.41,169.57Z"/><path class="cls-1" d="M389.07,198.76v-4.24c.22-.16.35-.34.5-.37,6.13-.94,7.09-2.64,4.83-8.53l-7.78-20.34c.36-.18.5-.32.65-.33,5.13-.2,5.13-.2,6.85,4.68,1.38,3.9,2.75,7.81,4.41,12.55.66-1.67,1.07-2.6,1.4-3.56,1.2-3.49,2.53-6.94,3.5-10.5.7-2.55,2-3.72,4.63-3.23a19.84,19.84,0,0,0,2.37.15c-.24.85-.38,1.55-.63,2.22-3.16,8.47-6.3,16.94-9.52,25.39C398.23,198,395,199.76,389.07,198.76Z"/><path class="cls-1" d="M579.16,188.41c-6.44.62-6.45.62-8.55-5.17-2.16-6-4.3-11.94-6.6-18.33a31.21,31.21,0,0,0,3.54,0c1.76-.2,2.6.45,3.14,2.2a120.25,120.25,0,0,0,5.37,14.44c.89-2.57,1.79-5.13,2.67-7.7.48-1.4.9-2.81,1.36-4.21,1.72-5.17,1.73-5.16,7.55-4.45Z"/><path class="cls-1" d="M521.46,8.74a8.66,8.66,0,1,1-17.32,0,8.66,8.66,0,1,1,17.32,0Z"/><path class="cls-1" d="M455.74,154.91h5.68v5c0,6.65,0,13.3,0,19.94,0,2.09,0,4,2.75,4v4.38c-4.85,1.09-8.18-.77-8.32-5.32C455.54,173.67,455.74,164.45,455.74,154.91Z"/><path class="cls-1" d="M555.4,155h5.47v16.41c0,2.86.07,5.72,0,8.58-.06,2,.12,3.78,2.74,3.83v4.34c-4.23,1.23-8-.44-8.08-4.35C555.17,174.23,555.4,164.66,555.4,155Z"/><path class="cls-1" d="M597.46,188.6c-1.32,0-2.33,0-3.34,0-.55,0-1.09-.06-1.85-.1V165.12h5.19Z"/><path class="cls-1" d="M598.26,158.45c0,1.84-1.13,2.94-3.23,3s-3.55-.89-3.59-3.19c0-2.12,1.21-3.19,3.23-3.34A3.25,3.25,0,0,1,598.26,158.45Z"/></svg>