<?xml version="1.0" encoding="utf-8"?>
<!-- Generator: Adobe Illustrator 24.2.3, SVG Export Plug-In . SVG Version: 6.00 Build 0)  -->
<svg version="1.1" id="Layer_1" xmlns="http://www.w3.org/2000/svg" xmlns:xlink="http://www.w3.org/1999/xlink" x="0px" y="0px"
	 viewBox="0 0 5851.4 3684.2" style="enable-background:new 0 0 5851.4 3684.2;" xml:space="preserve">
<style type="text/css">
	.st0{fill:#FFFFFF;}
</style>
<g id="Layer_2_1_">
	<g id="Layer_1-2">
		<path class="st0" d="M2935,0c-910.6,0-1653.5,742.9-1653.5,1653.5c-0.1,206,38.5,410.1,113.8,601.8
			c385.5-253.7,254.9-182.3,254.9-601.8c0-707.7,577.1-1284.8,1284.8-1284.8c707.4,0,1284.4,577.1,1284.4,1284.8
			c0,419.5-130.3,348.1,255.2,601.8c75.2-191.7,113.7-395.8,113.5-601.8C4588.2,742.9,3845.6,0,2935,0z M346.1,2914.7L346.1,2914.7
			c-46.1-1.8-89.9-1.3-126.4-1.3L0,2913.3v760.4h173.5v-254.6h46.2c36.5,0,80.3,0.5,126.4-1.3c159.6-6.3,346.1-39.8,346.1-214.8
			c0-3.7,0.2-76.1,0-76.1C690.3,2954.2,504.9,2920.9,346.1,2914.7z M518.5,3199.5L518.5,3199.5c-0.3,55.6-77.9,73.2-172.4,78.7
			c-40.6,2.4-84.3,2.7-126.4,2.7h-46.2v-229.2h46.2c42.1,0,85.7,0.2,126.4,2.6c94.5,5.6,172.1,23.3,172.4,78.7V3199.5z
			 M747.1,3302.1L747.1,3302.1v371.6h173.7v-368.3c0.5-81.9,159.3-81.7,315.6-63.4v-129.7C1040.6,3087.9,747.1,3074.6,747.1,3302.1
			L747.1,3302.1z M4138.6,3487.8L4138.6,3487.8v-2.7c51-6.6,101.9-13,152.7-19.6c29.9-3.8,59.7-7.8,89.6-12
			c144-19.6,232-72.1,232-177.9c0-105.6-74.5-175.9-221.7-175.9h-204.7c-147.2,0-221.5,70.3-221.5,175.9v220.3
			c0,159.3,162.3,192.2,326.4,188c109.2-2.9,219.1-22.1,282.4-31.6v-129.9c-72.9,12-188.6,31.8-282.4,33.1
			c-85.3,1-152.5-13.3-152.7-62.9V3487.8L4138.6,3487.8z M4138.5,3275.6L4138.5,3275.6c0-28.4,22.6-46.4,50.7-47.8h202.1
			c29.1,0,52.8,18.8,52.8,47.8s-23.9,43.3-52.8,48.3c-33.2,5-66.5,9.8-100,14.6c-50.9,7.1-102.1,14-152.7,20.2
			C4138.6,3328.4,4138.5,3305.9,4138.5,3275.6L4138.5,3275.6z M2163.4,3099.6L2163.4,3099.6c-112.7-0.2-199.4,19.4-249.6,46.7
			c-58.8-45.1-131.5-46.7-219-46.7c-87.7-0.2-145.8,12.8-207.4,32.9v-20.2h-172.1v561.4h172.1v-432.6
			c139-19.6,293.6-34.5,294.1,43.8v388.8H1955v-401.6c0.1-10.3-0.6-20.5-2.1-30.7c139.7-19.6,298-35.3,298.4,43.5v388.8h173.7
			v-401.6C2425.1,3127.6,2275.9,3099.6,2163.4,3099.6L2163.4,3099.6z M1488.6,2973.4L1488.6,2973.4c0-16.3-13.1-29.5-29.4-29.5
			h-114.5c-16.3,0.1-29.5,13.3-29.5,29.5v81.1h173.4L1488.6,2973.4L1488.6,2973.4z M3722.2,3207L3722.2,3207l-163.6,296.9
			L3394.9,3207c-52.5-95.2-79.1-95.2-237.6-95.2l327.4,561.9h147.8l327.3-561.9C3801.3,3111.8,3774.7,3111.8,3722.2,3207
			L3722.2,3207z M4674.5,3302L4674.5,3302v371.7h173.7v-368.3c0.5-81.9,159.3-81.7,315.8-63.4v-129.7
			C4968,3087.9,4674.5,3074.6,4674.5,3302L4674.5,3302z M2822.7,3096L2822.7,3096c-109.3,1.1-219.4,16.7-282.7,21.8v130
			c72.9-10.6,188.8-27.3,282.7-27.3c85.1,0,152,13.5,152.4,57.6v8.3c-5.7-0.1-11.5,0.2-17.2,1c-45.4,5.3-90.2,11.1-135.2,17.2
			c-29.9,4-59.8,8.2-89.9,12.5c-144,19.6-232,76.3-232,181.9s88.4,185.1,235.7,185.1H2932c144.8,0,213.7-57.8,216.6-160.9l0.2-248.5
			c0-149-162.1-180.1-326.1-178.7L2822.7,3096z M2975.1,3500.2L2975.1,3500.2c0,35.5-24.4,55.7-56.8,55.7h-195
			c-29.1,0-52.6-24.2-52.6-53.3s23.8-51.1,52.6-56c16.9-3.9,55.5-9.5,99.5-15.4c43.7-5.9,92.5-12,130.8-16.9
			c6.6-0.8,15.6-1.9,21.5-4L2975.1,3500.2L2975.1,3500.2z M5525.5,3096.1L5525.5,3096.1c-109.3,1.1-219.5,16.7-282.9,21.8v129.9
			c72.9-10.6,189-27.3,282.9-27.3c85.1,0,152,13.5,152.2,57.6v8.3c-5.7-0.1-11.4,0.2-17,1c-45.4,5.3-90.4,11.1-135.2,17.2
			c-30,4-59.9,8.2-90.1,12.5c-144,19.6-232,76.3-232,181.9s88.5,185.1,235.8,185.1h195.4c145,0,213.8-57.8,216.7-160.9v-248.5
			C5851.4,3125.8,5689.4,3094.6,5525.5,3096.1z M5677.7,3500.3L5677.7,3500.3c0,35.5-24.4,55.7-56.7,55.7h-195
			c-29,0-52.8-24.2-52.8-53.3s23.9-51.1,52.8-56c16.9-3.9,55.6-9.5,99.5-15.4c43.5-5.9,92.5-12,130.7-16.9c6.8-0.8,15.7-1.9,21.5-4
			L5677.7,3500.3L5677.7,3500.3z M2985.4,1391.3c98.6-175,695-474.7,657.6-116.4c-13,125.2-87.8,302.5-228.6,308.5
			c226.4,198.2-110,558.7-320.6,352.9l-123.7-120.8c0.4,2.2,0.6,4.4,0.6,6.7c0,20.1-16.4,36.4-36.5,36.4
			c-20.1,0-36.4-16.3-36.4-36.4c0.1-2.2,0.3-4.5,0.6-6.7l-123.6,120.8c-210.5,205.8-547-154.7-320.6-352.9
			c-140.8-6-215.6-183.3-228.6-308.5c-37.4-358.3,559-58.7,657.6,116.4h2.5c-3.3-7.1-5-14.7-5.1-22.5c0-29.2,24.1-53.3,53.6-53.3
			s53.6,24.1,53.6,53.3c-0.1,7.8-1.8,15.5-5.1,22.5H2985.4z"/>
	</g>
</g>
</svg>
