<?xml version="1.0" encoding="utf-8"?>
<!-- Generator: Adobe Illustrator 23.0.3, SVG Export Plug-In . SVG Version: 6.00 Build 0)  -->
<svg version="1.1" id="Layer_1" xmlns="http://www.w3.org/2000/svg" xmlns:xlink="http://www.w3.org/1999/xlink" x="0px" y="0px"
	 viewBox="0 0 155.2 80.6" style="enable-background:new 0 0 155.2 80.6;" xml:space="preserve">
<style type="text/css">
	.st0{clip-path:url(#SVGID_2_);fill:#231F20;}
	.st1{clip-path:url(#SVGID_2_);fill:none;stroke:#FFFFFF;stroke-miterlimit:10;}
	.st2{clip-path:url(#SVGID_2_);}
	.st3{clip-path:url(#SVGID_4_);fill:none;stroke:#FFFFFF;stroke-miterlimit:10;}
	.st4{clip-path:url(#SVGID_6_);fill:none;stroke:#FFFFFF;stroke-miterlimit:10;}
	.st5{clip-path:url(#SVGID_6_);fill:#FEEDE8;}
	.st6{clip-path:url(#SVGID_6_);fill:#0D0D0D;}
	.st7{clip-path:url(#SVGID_8_);}
	.st8{fill:#231F20;}
	.st9{fill:#0D0D0D;}
	.st10{fill:none;stroke:#FEEDE8;stroke-width:1.099;stroke-miterlimit:10;}
	.st11{fill:#FFFFFF;}
	.st12{fill:none;stroke:#FFFFFF;stroke-width:0.193;stroke-miterlimit:10;}
	.st13{clip-path:url(#SVGID_14_);}
	.st14{fill-rule:evenodd;clip-rule:evenodd;fill:#FFFFFF;}
</style>
<g>
	<path class="st11" d="M66.1,6.8c-1.4,0-2.5,0.5-3.5,1.4c-1,1-1.4,2.1-1.4,3.5c0,1.3,0.5,2.5,1.4,3.5c1,1,2.1,1.5,3.5,1.5
		c1.4,0,2.5-0.5,3.5-1.5c1-1,1.5-2.1,1.5-3.5c0-2.4,0.3-4,0.9-4.5c0.6-0.6,2.1-0.9,4.6-0.9c1.4,0,2.5-0.5,3.5-1.4
		c1-0.9,1.4-2.1,1.4-3.5c0-0.4-0.1-0.8-0.1-1.1c-0.3,0-0.6-0.1-0.9-0.1c-0.2,0-0.4-0.1-0.7-0.1c-0.3,0-0.6,0-0.8-0.1
		C78.4,0,78,0,77.5,0c-0.1,0-0.2,0-0.3,0c-1.9,0-3.8,0.2-5.6,0.6c0,0.3-0.1,0.5-0.1,0.8c0,2.4-0.3,4-0.9,4.5
		C70.1,6.5,68.5,6.8,66.1,6.8"/>
	<path class="st11" d="M59.2,15.3c0.9-1,1.4-2.1,1.4-3.5c0-2.4,0.3-4,0.9-4.5c0.6-0.6,2.1-0.9,4.6-0.9c1.4,0,2.5-0.5,3.5-1.5
		c1-1,1.5-2.1,1.5-3.4C71,1.2,71,1,71,0.8c-8.1,2-14.8,7.6-18.1,15c0.8,0.6,1.8,0.9,2.9,0.9C57,16.7,58.2,16.2,59.2,15.3"/>
	<path class="st11" d="M86.9,6.3c1.4,0,2.5-0.5,3.5-1.5c0.3-0.3,0.5-0.6,0.7-1C88.4,2.2,85.3,1,82,0.4c-0.1,0.3-0.1,0.6-0.1,1
		c0,1.4,0.5,2.5,1.4,3.5C84.3,5.9,85.5,6.3,86.9,6.3"/>
	<path class="st11" d="M76.5,17.3c-1.4,0-2.5,0.5-3.5,1.5c-1,1-1.5,2.1-1.5,3.5c0,1.3,0.5,2.5,1.5,3.4c1,1,2.1,1.5,3.5,1.5
		c2.5,0,4,0.3,4.6,0.9c0.6,0.6,0.9,2.1,0.9,4.5c0,1.4,0.5,2.6,1.4,3.5c1,1,2.1,1.4,3.5,1.4c1.4,0,2.5-0.5,3.5-1.5
		c1-1,1.5-2.1,1.5-3.5c0-1.3-0.5-2.5-1.5-3.5c-1-1-2.1-1.5-3.5-1.5c-2.5,0-4-0.3-4.6-0.9c-0.6-0.6-0.9-2.1-0.9-4.5
		c0-1.4-0.5-2.6-1.4-3.5C79,17.8,77.9,17.3,76.5,17.3"/>
	<path class="st11" d="M86.9,17.3c-1.3,0-2.5,0.5-3.5,1.4c-1,1-1.5,2.1-1.5,3.5c0,1.4,0.5,2.5,1.5,3.5c1,1,2.1,1.5,3.5,1.5
		c1.4,0,2.5-0.5,3.5-1.5c1-1,1.5-2.1,1.5-3.5c0-1.4-0.5-2.5-1.4-3.5C89.5,17.7,88.3,17.3,86.9,17.3"/>
	<path class="st11" d="M62.9,47.1c0-1.4-0.5-2.5-1.4-3.5c-1-1-2.1-1.4-3.5-1.4c-0.9,0-1.6,0.2-2.4,0.6c1.9,2.5,4.2,4.7,6.8,6.5
		C62.7,48.6,62.9,47.9,62.9,47.1"/>
	<path class="st11" d="M92.5,43c0,2.5-0.3,4-0.9,4.6c-0.6,0.6-2.1,0.9-4.6,0.9c-1.3,0-2.5,0.5-3.5,1.4c-1,0.9-1.5,2.1-1.5,3.4
		c8.2-1.5,15.1-6.7,18.9-13.8c-1-0.9-2.1-1.4-3.5-1.4c-1.3,0-2.5,0.5-3.5,1.4C93,40.5,92.5,41.6,92.5,43"/>
	<path class="st11" d="M71,22.2c0-1.4-0.5-2.5-1.4-3.5c-1-1-2.1-1.4-3.5-1.4c-1.4,0-2.5,0.5-3.5,1.4c-1,1-1.4,2.1-1.4,3.5
		c0,1.3,0.5,2.5,1.4,3.5c0.9,1,2.1,1.5,3.5,1.5c1.4,0,2.5-0.5,3.5-1.5C70.5,24.7,71,23.6,71,22.2"/>
	<path class="st11" d="M69.7,49.9c-1-1-2.1-1.5-3.5-1.5c-1.2,0-2.3,0.4-3.1,1.1c2.5,1.5,5.2,2.7,8.1,3.4
		C71,51.8,70.6,50.8,69.7,49.9"/>
	<path class="st11" d="M87.1,38.1c-1.4,0-2.6,0.5-3.5,1.4c-1,1-1.4,2.1-1.4,3.5c0,2.4-0.3,4-0.9,4.6c-0.6,0.6-2.1,0.9-4.6,0.9
		c-1.4,0-2.5,0.5-3.5,1.5c-0.9,0.9-1.4,2-1.5,3.2c1.8,0.4,3.6,0.6,5.6,0.6c1.5,0,2.9-0.1,4.3-0.3c0-2.4,0.3-3.9,0.9-4.5
		c0.6-0.6,2.2-0.9,4.7-0.9c1.3,0,2.5-0.5,3.5-1.5c1-1,1.5-2.1,1.5-3.5c0-2.5,0.3-4,0.9-4.6c0.6-0.6,2.1-0.9,4.5-0.9
		c1.4,0,2.6-0.5,3.5-1.4c1-1,1.4-2.1,1.4-3.5c0-1.4-0.5-2.5-1.5-3.5c-1-1-2.1-1.5-3.5-1.5c-1.3,0-2.5,0.5-3.4,1.5
		c-1,1-1.5,2.1-1.5,3.5c0,2.5-0.3,4-0.9,4.6C91,37.8,89.5,38.1,87.1,38.1"/>
	<path class="st11" d="M8.1,72.9c2.2-0.7,3.5-2.5,3.5-4.8v-0.2c0-3.4-2.3-5.2-6.7-5.2c-1.4,0-3.2,0.1-4.1,0.2C0.4,62.9,0,63,0,63.6
		v16.3c0,0.4,0.3,0.7,0.6,0.7h1.3c0.4,0,0.6-0.4,0.6-0.7v-6.6c0.6,0,1.6,0.1,2.3,0.1h0.5l4.1,6.8c0.2,0.4,0.3,0.4,0.7,0.4h1.6
		c0.4,0,0.5-0.3,0.5-0.5c0-0.1,0-0.2-0.1-0.3L8.1,72.9z M4.9,71.1c-0.3,0-0.8,0-1.3,0c-0.4,0-0.7,0-1,0v-5.9c0.6,0,1.7,0,2.3,0
		c3,0,4.2,0.8,4.2,2.9v0.2C9.1,70.3,7.9,71.1,4.9,71.1"/>
	<path class="st11" d="M23.3,62.8c-1-0.1-3.3-0.1-4.6-0.1c-3.5,0-5.2,1.5-5.2,4.6v8.8c0,3.1,1.6,4.6,5.2,4.6c0.6,0,3.5,0,4.6-0.1
		l0,0c0.3,0,0.4-0.3,0.4-0.6v-1.2c0-0.3-0.2-0.5-0.5-0.5h-4.5c-2.4,0-2.6-0.6-2.6-2.2v-3.3h6.9c0.4,0,0.7-0.3,0.7-0.7v-0.9
		c0-0.4-0.3-0.7-0.7-0.7h-6.9v-3.3c0-1.6,0.2-2.2,2.6-2.2h4.5c0.3,0,0.5-0.2,0.5-0.5v-1.2C23.8,63.2,23.6,62.9,23.3,62.8"/>
	<path class="st11" d="M37.1,62.7H26c-0.4,0-0.7,0.3-0.7,0.6v1c0,0.4,0.3,0.6,0.7,0.6h4.3v14.9c0,0.4,0.3,0.7,0.7,0.7h1.3
		c0.4,0,0.6-0.4,0.6-0.7V65h4.3c0.4,0,0.7-0.2,0.7-0.6v-1C37.8,63,37.5,62.7,37.1,62.7"/>
	<path class="st11" d="M45.9,62.7h-1.4c-3.7,0-5.2,1.5-5.2,5v12.2c0,0.4,0.3,0.7,0.6,0.7h1.3c0.4,0,0.6-0.4,0.6-0.7v-6.7h6.7v6.7
		c0,0.4,0.3,0.7,0.6,0.7h1.3c0.3,0,0.6-0.3,0.6-0.7V67.7C51.1,64.3,49.5,62.7,45.9,62.7 M48.6,70.9h-6.7v-3.2c0-2.3,0.7-2.7,2.7-2.7
		h1.4c2,0,2.7,0.4,2.7,2.7V70.9z"/>
	<path class="st11" d="M55.8,62.7h-1.3c-0.4,0-0.6,0.3-0.6,0.7v16.5c0,0.4,0.3,0.7,0.6,0.7h1.3c0.4,0,0.7-0.4,0.7-0.7V63.4
		C56.4,63,56.1,62.7,55.8,62.7"/>
	<path class="st11" d="M68.8,78.2h-4.5c-2.4,0-2.6-0.6-2.6-2.2V63.4c0-0.4-0.3-0.7-0.7-0.7h-1.2c-0.4,0-0.7,0.3-0.7,0.7v12.7
		c0,4,2.6,4.6,5.2,4.6c2.1,0,3.9-0.1,4.6-0.2h0c0.3,0,0.4-0.3,0.4-0.6v-1.1C69.3,78.5,69.1,78.2,68.8,78.2"/>
	<path class="st11" d="M79.9,62.9L79.9,62.9c-0.7-0.1-2-0.2-4.1-0.2c-1.7,0-3.1,0.6-4.1,1.6c-1.2,1.3-1.8,3.3-1.8,5.9v2.9
		c0,6.5,3.7,7.5,6,7.5c2,0,3.3-0.1,4-0.2l0.1,0c0.3,0,0.7-0.3,0.7-0.7v-0.3c0-0.2-0.1-0.5-0.6-0.5l-0.2,0c-0.8,0.1-2.5,0.2-4,0.2
		c-1.3,0-2.4-0.4-3.1-1.3c-0.9-1-1.3-2.6-1.3-4.7v-2.9c0-2.1,0.4-3.7,1.3-4.7c0.7-0.9,1.8-1.3,3.1-1.3c1.4,0,3.1,0.1,4,0.2h0.1
		c0.5,0,0.6-0.3,0.6-0.5v-0.3C80.6,63.2,80.3,63,79.9,62.9"/>
	<path class="st11" d="M87.4,62.7c-4,0-6.2,2.7-6.2,7.6V73c0,4.9,2.2,7.6,6.2,7.6c4,0,6.2-2.7,6.2-7.6v-2.7
		C93.6,65.4,91.4,62.7,87.4,62.7 M92.1,73c0,4-1.6,6.1-4.7,6.1c-3.1,0-4.7-2-4.7-6.1v-2.7c0-4,1.6-6.1,4.7-6.1c3.1,0,4.7,2,4.7,6.1
		V73z"/>
	<path class="st11" d="M101.5,62.7c-1.8,0-4,0.2-5.4,0.4c-0.3,0-0.6,0.3-0.6,0.7v16.1c0,0.4,0.2,0.7,0.7,0.7h0.2
		c0.4,0,0.7-0.4,0.7-0.7V64.4c1.2-0.1,2.9-0.3,4.4-0.3c2.9,0,4.1,1.4,4.1,5v10.8c0,0.4,0.3,0.7,0.7,0.7h0.2c0.4,0,0.7-0.3,0.7-0.7
		V69.1C107.1,64.8,105.2,62.7,101.5,62.7"/>
	<path class="st11" d="M115,71l-1.5-0.9c-2-1.2-3-2.1-3-3.3c0-1.8,1.2-2.6,4.1-2.6c0.7,0,1.6,0.1,2.3,0.2c0.5,0,0.9,0.1,1.1,0.1
		c0.5,0,0.7-0.3,0.7-0.6v-0.3c0-0.3-0.2-0.6-0.6-0.6l-0.5,0c-0.9-0.1-2-0.2-3-0.2c-3.8,0-5.7,1.4-5.7,4c0,2.2,1.6,3.4,3.8,4.7l1.5,1
		c2.5,1.6,3.4,2.1,3.4,3.7c0,1-0.2,1.6-0.8,2.1c-0.7,0.6-1.7,0.9-3.3,0.9c-0.9,0-1.6-0.1-2.4-0.2c-0.4,0-0.7-0.1-1.1-0.1H110
		c-0.7,0-0.7,0.4-0.7,0.6v0.3c0,0.3,0.3,0.6,0.7,0.6l0.5,0.1c0.8,0.1,1.8,0.2,3.1,0.2c3.8,0,5.7-1.5,5.7-4.6
		C119.3,73.7,117.6,72.5,115,71"/>
	<path class="st11" d="M132,62.7h-0.2c-0.4,0-0.7,0.4-0.7,0.7v15.4c-0.9,0.1-2.6,0.3-4.4,0.3c-1.5,0-2.5-0.4-3.2-1.2
		c-0.6-0.8-0.9-2-0.9-3.7V63.4c0-0.4-0.3-0.7-0.7-0.7h-0.2c-0.4,0-0.7,0.3-0.7,0.7v10.8c0,4.3,1.8,6.4,5.6,6.4
		c1.9,0,4.3-0.3,5.4-0.5c0.3-0.1,0.5-0.3,0.5-0.7v-16C132.7,63,132.4,62.7,132,62.7"/>
	<path class="st11" d="M143.7,79.1h-5.3c-1.1,0-1.5-0.2-1.5-1.4V63.4c0-0.4-0.3-0.7-0.7-0.7H136c-0.4,0-0.7,0.3-0.7,0.7v14.3
		c0,2,1,2.9,3.1,2.9h5.3c0.4,0,0.7-0.3,0.7-0.7v-0.2C144.4,79.4,144.1,79.1,143.7,79.1"/>
	<path class="st11" d="M154.5,62.7h-11c-0.4,0-0.7,0.3-0.7,0.7v0.2c0,0.4,0.3,0.6,0.7,0.6h4.7v15.7c0,0.4,0.3,0.7,0.7,0.7h0.2
		c0.4,0,0.7-0.3,0.7-0.7V64.2h4.7c0.4,0,0.7-0.2,0.7-0.6v-0.2C155.2,63,154.9,62.7,154.5,62.7"/>
</g>
</svg>
