<?xml version="1.0" encoding="utf-8"?>
<!-- Generator: Adobe Illustrator 24.2.3, SVG Export Plug-In . SVG Version: 6.00 Build 0)  -->
<svg version="1.1" id="Layer_1" xmlns="http://www.w3.org/2000/svg" xmlns:xlink="http://www.w3.org/1999/xlink" x="0px" y="0px"
	 viewBox="0 0 60.54 32.74" style="enable-background:new 0 0 60.54 32.74;" xml:space="preserve">
<style type="text/css">
	.st0{fill:#FFFFFF;}
</style>
<g>
	<g>
		<path class="st0" d="M25.92,3.75c-0.52,0-0.95,0.18-1.31,0.54c-0.36,0.36-0.54,0.8-0.54,1.31c0,0.5,0.18,0.94,0.54,1.31
			c0.36,0.38,0.8,0.56,1.31,0.56c0.52,0,0.96-0.18,1.32-0.55c0.37-0.37,0.55-0.81,0.55-1.32c0-0.92,0.11-1.49,0.33-1.71
			c0.22-0.22,0.8-0.33,1.73-0.33c0.52,0,0.95-0.18,1.31-0.54c0.36-0.36,0.54-0.8,0.54-1.31c0-0.15-0.02-0.29-0.05-0.42
			c-0.11-0.02-0.22-0.03-0.33-0.04c-0.08-0.01-0.16-0.02-0.24-0.03c-0.11-0.01-0.21-0.02-0.32-0.02c-0.17-0.01-0.34-0.02-0.52-0.02
			c-0.04,0-0.07,0-0.11,0c-0.73,0-1.44,0.08-2.13,0.23c-0.02,0.1-0.03,0.2-0.03,0.31c0,0.92-0.11,1.49-0.33,1.71
			C27.44,3.64,26.86,3.75,25.92,3.75z"/>
	</g>
	<g>
		<path class="st0" d="M23.32,6.94c0.36-0.36,0.54-0.8,0.54-1.34c0-0.92,0.11-1.49,0.33-1.71c0.22-0.22,0.8-0.33,1.73-0.33
			c0.52,0,0.96-0.18,1.32-0.55c0.37-0.37,0.55-0.8,0.55-1.3c0-0.09-0.01-0.17-0.02-0.25c-3.06,0.74-5.57,2.86-6.84,5.67
			c0.31,0.23,0.67,0.34,1.08,0.34C22.52,7.48,22.96,7.3,23.32,6.94z"/>
	</g>
	<g>
		<path class="st0" d="M33.77,3.57c0.52,0,0.96-0.18,1.33-0.55c0.11-0.12,0.2-0.24,0.28-0.37c-1.04-0.63-2.21-1.08-3.45-1.31
			c-0.02,0.12-0.03,0.24-0.03,0.37c0,0.51,0.18,0.95,0.54,1.31C32.8,3.39,33.24,3.57,33.77,3.57z"/>
	</g>
	<g>
		<path class="st0" d="M29.86,7.69c-0.51,0-0.96,0.18-1.32,0.55c-0.37,0.37-0.55,0.81-0.55,1.33c0,0.5,0.18,0.93,0.55,1.3
			c0.37,0.37,0.81,0.55,1.32,0.55c0.94,0,1.52,0.11,1.74,0.33c0.22,0.22,0.33,0.79,0.33,1.71c0,0.53,0.18,0.98,0.54,1.34
			c0.36,0.36,0.8,0.54,1.31,0.54c0.52,0,0.96-0.19,1.32-0.55c0.37-0.37,0.55-0.81,0.55-1.32c0-0.5-0.18-0.93-0.55-1.3
			c-0.36-0.37-0.81-0.55-1.32-0.55c-0.94,0-1.51-0.11-1.73-0.33c-0.22-0.22-0.33-0.79-0.33-1.71c0-0.53-0.18-0.98-0.54-1.33
			C30.82,7.87,30.38,7.69,29.86,7.69z"/>
	</g>
	<g>
		<path class="st0" d="M33.77,7.69c-0.5,0-0.94,0.18-1.31,0.54c-0.38,0.36-0.56,0.8-0.56,1.31c0,0.52,0.19,0.96,0.55,1.32
			c0.37,0.37,0.81,0.55,1.32,0.55c0.52,0,0.96-0.18,1.33-0.55c0.37-0.37,0.55-0.81,0.55-1.32c0-0.51-0.18-0.95-0.54-1.31
			C34.75,7.87,34.31,7.69,33.77,7.69z"/>
	</g>
	<g>
		<path class="st0" d="M24.74,18.92c0-0.52-0.18-0.95-0.54-1.31c-0.36-0.36-0.8-0.54-1.31-0.54c-0.32,0-0.62,0.08-0.89,0.24
			c0.7,0.96,1.57,1.78,2.56,2.44C24.67,19.5,24.74,19.22,24.74,18.92z"/>
	</g>
	<g>
		<path class="st0" d="M35.88,17.39c0,0.94-0.11,1.51-0.33,1.73c-0.22,0.22-0.79,0.33-1.73,0.33c-0.5,0-0.94,0.18-1.31,0.54
			c-0.37,0.35-0.55,0.78-0.56,1.28c3.09-0.56,5.68-2.52,7.11-5.2c-0.36-0.35-0.79-0.53-1.31-0.53c-0.5,0-0.94,0.18-1.31,0.54
			C36.07,16.44,35.88,16.87,35.88,17.39z"/>
	</g>
	<g>
		<path class="st0" d="M27.8,9.54c0-0.51-0.18-0.95-0.54-1.31c-0.36-0.36-0.8-0.54-1.34-0.54c-0.51,0-0.95,0.18-1.31,0.54
			c-0.36,0.36-0.54,0.8-0.54,1.31c0,0.5,0.18,0.94,0.54,1.31c0.36,0.37,0.8,0.56,1.31,0.56c0.51,0,0.96-0.18,1.32-0.55
			C27.61,10.5,27.8,10.06,27.8,9.54z"/>
	</g>
	<g>
		<path class="st0" d="M27.29,20.01c-0.37-0.37-0.81-0.55-1.32-0.55c-0.46,0-0.85,0.15-1.19,0.43c0.93,0.58,1.95,1.02,3.05,1.28
			C27.79,20.72,27.62,20.33,27.29,20.01z"/>
	</g>
	<g>
		<path class="st0" d="M33.84,15.54c-0.53,0-0.98,0.18-1.34,0.54c-0.36,0.36-0.54,0.8-0.54,1.31c0,0.92-0.11,1.52-0.33,1.74
			c-0.22,0.22-0.8,0.33-1.73,0.33c-0.52,0-0.96,0.18-1.32,0.55c-0.35,0.34-0.53,0.75-0.55,1.21c0.68,0.14,1.38,0.22,2.09,0.22
			c0.55,0,1.1-0.05,1.63-0.13c0-0.92,0.11-1.49,0.33-1.71c0.22-0.22,0.82-0.33,1.76-0.33c0.5,0,0.93-0.18,1.3-0.55
			c0.37-0.37,0.55-0.81,0.55-1.32c0-0.94,0.11-1.52,0.33-1.73c0.22-0.22,0.79-0.33,1.71-0.33c0.53,0,0.98-0.18,1.34-0.54
			c0.36-0.36,0.54-0.8,0.54-1.31c0-0.52-0.18-0.96-0.55-1.32c-0.37-0.37-0.81-0.55-1.33-0.55c-0.5,0-0.93,0.18-1.3,0.55
			c-0.37,0.37-0.55,0.81-0.55,1.32c0,0.94-0.11,1.52-0.33,1.74C35.33,15.43,34.76,15.54,33.84,15.54z"/>
	</g>
	<g>
		<path class="st0" d="M4.07,28.67c0.85-0.27,1.33-0.92,1.33-1.82v-0.06c0-1.29-0.88-1.97-2.54-1.97c-0.54,0-1.2,0.03-1.55,0.07
			c-0.13,0.01-0.29,0.06-0.29,0.28v6.14c0,0.14,0.11,0.26,0.24,0.26h0.47c0.15,0,0.25-0.13,0.25-0.26v-2.49
			c0.24,0.01,0.62,0.02,0.88,0.02h0.18l1.54,2.57c0.09,0.14,0.13,0.16,0.27,0.16h0.61c0.15,0,0.2-0.09,0.2-0.18
			c0-0.04-0.01-0.08-0.04-0.12L4.07,28.67z M2.86,27.98c-0.1,0-0.3,0-0.5-0.01c-0.14,0-0.28-0.01-0.38-0.01v-2.24
			c0.23-0.02,0.64-0.02,0.88-0.02c1.12,0,1.58,0.31,1.58,1.08v0.06C4.44,27.66,4,27.98,2.86,27.98z"/>
	</g>
	<g>
		<path class="st0" d="M9.82,24.87c-0.39-0.04-1.24-0.05-1.72-0.05c-1.33,0-1.96,0.55-1.96,1.72v3.32c0,1.17,0.62,1.72,1.96,1.72
			c0.22,0,1.32,0,1.72-0.04l0,0c0.1-0.02,0.16-0.12,0.16-0.21v-0.45c0-0.11-0.08-0.19-0.18-0.19H8.11c-0.91,0-0.99-0.23-0.99-0.83
			v-1.23h2.61c0.14,0,0.26-0.12,0.26-0.26v-0.33c0-0.14-0.12-0.26-0.26-0.26H7.11v-1.23c0-0.6,0.09-0.83,0.99-0.83H9.8
			c0.11,0,0.18-0.08,0.18-0.19v-0.44C9.98,24.99,9.92,24.88,9.82,24.87z"/>
	</g>
	<g>
		<path class="st0" d="M15.02,24.81H10.8c-0.14,0-0.26,0.11-0.26,0.24v0.39c0,0.14,0.11,0.23,0.26,0.23h1.62v5.63
			c0,0.14,0.11,0.26,0.25,0.26h0.48c0.15,0,0.24-0.14,0.24-0.26v-5.63h1.62c0.15,0,0.25-0.09,0.25-0.23v-0.39
			C15.28,24.92,15.17,24.81,15.02,24.81z"/>
	</g>
	<g>
		<path class="st0" d="M18.33,24.81h-0.51c-1.38,0-1.97,0.57-1.97,1.9v4.59c0,0.14,0.11,0.26,0.24,0.26h0.48
			c0.15,0,0.24-0.14,0.24-0.26v-2.51h2.51v2.51c0,0.14,0.11,0.26,0.24,0.26h0.48c0.13,0,0.24-0.12,0.24-0.26v-4.59
			C20.3,25.4,19.69,24.81,18.33,24.81z M19.33,27.92h-2.51v-1.2c0-0.87,0.26-1.03,1-1.03h0.51c0.74,0,1,0.16,1,1.03V27.92z"/>
	</g>
	<g>
		<path class="st0" d="M22.05,24.81h-0.48c-0.14,0-0.25,0.11-0.25,0.25v6.24c0,0.14,0.11,0.26,0.25,0.26h0.48
			c0.15,0,0.25-0.14,0.25-0.26v-6.24C22.29,24.92,22.18,24.81,22.05,24.81z"/>
	</g>
	<g>
		<path class="st0" d="M26.97,30.67h-1.69c-0.91,0-0.99-0.23-0.99-0.83v-4.77c0-0.14-0.12-0.26-0.26-0.26h-0.45
			c-0.14,0-0.26,0.12-0.26,0.26v4.77c0,1.51,0.99,1.72,1.96,1.72c0.78,0,1.47-0.04,1.72-0.08l0,0c0.1-0.02,0.16-0.12,0.16-0.21
			v-0.41C27.15,30.75,27.07,30.67,26.97,30.67z"/>
	</g>
	<g>
		<path class="st0" d="M31.16,24.9l-0.03,0c-0.23-0.03-0.72-0.08-1.49-0.08c-0.64,0-1.18,0.21-1.56,0.61
			c-0.46,0.48-0.69,1.23-0.69,2.22v1.1c0,2.46,1.41,2.83,2.25,2.83c0.77,0,1.24-0.05,1.49-0.08l0.04,0c0.13-0.01,0.25-0.1,0.25-0.25
			v-0.11c0-0.08-0.03-0.2-0.21-0.2l-0.06,0C30.84,30.95,30.18,31,29.63,31c-0.5,0-0.89-0.17-1.17-0.5
			c-0.33-0.38-0.49-0.98-0.49-1.76v-1.1c0-0.79,0.16-1.38,0.49-1.76c0.28-0.33,0.68-0.5,1.17-0.5c0.52,0,1.17,0.04,1.52,0.08h0.05
			c0.18,0,0.21-0.13,0.21-0.2v-0.1C31.41,25,31.28,24.92,31.16,24.9z"/>
	</g>
	<g>
		<path class="st0" d="M33.97,24.81c-1.51,0-2.34,1.02-2.34,2.86v1.03c0,1.85,0.83,2.86,2.34,2.86c1.51,0,2.34-1.02,2.34-2.86v-1.03
			C36.32,25.83,35.48,24.81,33.97,24.81z M35.73,28.7c0,1.52-0.59,2.3-1.76,2.3c-1.17,0-1.76-0.77-1.76-2.3v-1.03
			c0-1.52,0.59-2.3,1.76-2.3c1.17,0,1.76,0.77,1.76,2.3V28.7z"/>
	</g>
	<g>
		<path class="st0" d="M39.27,24.81c-0.69,0-1.5,0.08-2.03,0.15c-0.13,0.02-0.21,0.11-0.21,0.25v6.08c0,0.13,0.08,0.27,0.25,0.27
			h0.08c0.16,0,0.26-0.13,0.26-0.27v-5.84c0.45-0.05,1.08-0.1,1.66-0.1c1.1,0,1.53,0.52,1.53,1.87v4.07c0,0.15,0.11,0.27,0.25,0.27
			h0.09c0.14,0,0.25-0.12,0.25-0.27v-4.07C41.38,25.6,40.69,24.81,39.27,24.81z"/>
	</g>
	<g>
		<path class="st0" d="M44.39,27.94l-0.56-0.34c-0.77-0.47-1.14-0.77-1.14-1.26c0-0.68,0.46-0.96,1.55-0.96
			c0.26,0,0.6,0.03,0.88,0.06c0.19,0.02,0.33,0.03,0.42,0.03c0.2,0,0.27-0.11,0.27-0.22v-0.11c0-0.13-0.09-0.22-0.24-0.23
			l-0.17-0.02c-0.35-0.03-0.74-0.07-1.14-0.07c-1.43,0-2.15,0.51-2.15,1.52c0,0.83,0.62,1.28,1.42,1.78l0.58,0.36
			c0.95,0.59,1.28,0.79,1.28,1.38c0,0.36-0.08,0.6-0.29,0.8C44.84,30.88,44.44,31,43.84,31c-0.32,0-0.59-0.03-0.89-0.06
			c-0.13-0.01-0.27-0.03-0.43-0.04h-0.03c-0.25,0-0.26,0.16-0.26,0.21v0.11c0,0.13,0.1,0.22,0.25,0.24l0.2,0.02
			c0.31,0.03,0.7,0.08,1.17,0.08c1.44,0,2.13-0.56,2.13-1.72C45.98,28.97,45.35,28.52,44.39,27.94z"/>
	</g>
	<g>
		<path class="st0" d="M50.79,24.81h-0.08c-0.16,0-0.25,0.13-0.25,0.26v5.81c-0.32,0.05-0.99,0.12-1.66,0.12
			c-0.56,0-0.95-0.15-1.19-0.47c-0.23-0.3-0.33-0.74-0.33-1.4v-4.07c0-0.15-0.11-0.26-0.25-0.26h-0.09c-0.14,0-0.25,0.12-0.25,0.26
			v4.07c0,1.63,0.69,2.42,2.11,2.42c0.71,0,1.63-0.11,2.04-0.2c0.13-0.03,0.2-0.12,0.2-0.25v-6.03
			C51.04,24.95,50.95,24.81,50.79,24.81z"/>
	</g>
	<g>
		<path class="st0" d="M55.19,31.01h-2c-0.41,0-0.58-0.07-0.58-0.52v-5.41c0-0.15-0.11-0.26-0.25-0.26h-0.09
			c-0.14,0-0.25,0.12-0.25,0.26v5.41c0,0.74,0.37,1.08,1.16,1.08h2c0.15,0,0.26-0.11,0.26-0.25v-0.07
			C55.46,31.11,55.34,31.01,55.19,31.01z"/>
	</g>
	<g>
		<path class="st0" d="M59.25,24.81H55.1c-0.15,0-0.27,0.11-0.27,0.25v0.08c0,0.14,0.11,0.23,0.27,0.23h1.79v5.93
			c0,0.15,0.11,0.27,0.25,0.27h0.09c0.14,0,0.25-0.12,0.25-0.27v-5.93h1.78c0.16,0,0.26-0.09,0.26-0.23v-0.08
			C59.52,24.92,59.4,24.81,59.25,24.81z"/>
	</g>
</g>
</svg>
