<svg id="Layer_1" data-name="Layer 1" xmlns="http://www.w3.org/2000/svg" viewBox="0 0 452.16 111.89"><defs><style>.cls-1{fill:#fff;}</style></defs><path class="cls-1" d="M27.56,14.22A10.16,10.16,0,0,0,17.34,24.45a10.08,10.08,0,0,0,3,7.24,9.63,9.63,0,0,0,7.25,3.12,10,10,0,0,0,7.31-3.05,10,10,0,0,0,3.05-7.31c0-5.09.6-8.25,1.81-9.45s4.4-1.81,9.57-1.81a9.81,9.81,0,0,0,7.25-3,9.82,9.82,0,0,0,3-7.24A10.38,10.38,0,0,0,59.24.64C58.64.55,58,.48,57.42.4L56.06.25,54.31.12c-1-.06-1.9-.1-2.86-.11h-.58A56.19,56.19,0,0,0,39.11,1.27,10.43,10.43,0,0,0,39,3c0,5.08-.6,8.23-1.82,9.44S32.74,14.22,27.56,14.22Z"/><path class="cls-1" d="M13.2,31.83a10.05,10.05,0,0,0,3-7.38c0-5.09.6-8.25,1.81-9.45s4.4-1.81,9.58-1.81a9.94,9.94,0,0,0,7.31-3A9.82,9.82,0,0,0,37.92,3a10.55,10.55,0,0,0-.14-1.39A56,56,0,0,0,0,32.9a9.85,9.85,0,0,0,5.94,1.91A9.93,9.93,0,0,0,13.2,31.83Z"/><path class="cls-1" d="M70.91,13.19a10,10,0,0,0,7.32-3,10.79,10.79,0,0,0,1.56-2,55.46,55.46,0,0,0-19-7.21A10.56,10.56,0,0,0,60.57,3a9.82,9.82,0,0,0,3,7.24A10,10,0,0,0,70.91,13.19Z"/><path class="cls-1" d="M49.34,56.55c5.18,0,8.37.6,9.59,1.81s1.81,4.36,1.81,9.44a10,10,0,0,0,3,7.38,9.84,9.84,0,0,0,7.24,3A10.41,10.41,0,0,0,81.32,67.8a9.8,9.8,0,0,0-3-7.18,9.94,9.94,0,0,0-7.31-3c-5.18,0-8.37-.62-9.57-1.82s-1.82-4.36-1.82-9.45a10,10,0,0,0-3-7.37,9.85,9.85,0,0,0-7.25-3A10.4,10.4,0,0,0,39,46.33a9.82,9.82,0,0,0,3,7.18A10,10,0,0,0,49.34,56.55Z"/><path class="cls-1" d="M70.93,36a10.12,10.12,0,0,0-7.24,3,9.62,9.62,0,0,0-3.11,7.24A10.34,10.34,0,0,0,78.25,53.5a10,10,0,0,0,3-7.31,9.83,9.83,0,0,0-3-7.24A10,10,0,0,0,70.93,36Z"/><path class="cls-1" d="M10.81,87.77a9.91,9.91,0,0,0-4.92,1.3A56.25,56.25,0,0,0,20,102.55,10.49,10.49,0,0,0,21,98a9.89,9.89,0,0,0-3-7.24A9.89,9.89,0,0,0,10.81,87.77Z"/><path class="cls-1" d="M85.67,82.3a9.66,9.66,0,0,0-3.11,7.25c0,5.17-.59,8.37-1.81,9.57S76.36,101,71.18,101a10.09,10.09,0,0,0-7.25,3,9.58,9.58,0,0,0-3.09,7,56,56,0,0,0,39.29-28.71,9.89,9.89,0,0,0-7.22-2.93A10.12,10.12,0,0,0,85.67,82.3Z"/><path class="cls-1" d="M20.32,39a9.79,9.79,0,0,0-3,7.24,10.13,10.13,0,0,0,3,7.26,9.65,9.65,0,0,0,7.24,3.1A10.4,10.4,0,0,0,37.92,46.19,10.18,10.18,0,0,0,27.56,36,9.8,9.8,0,0,0,20.32,39Z"/><path class="cls-1" d="M27.81,101a9.82,9.82,0,0,0-6.54,2.38,55.42,55.42,0,0,0,16.82,7A10.31,10.31,0,0,0,27.81,101Z"/><path class="cls-1" d="M92.78,57.58a9.82,9.82,0,0,0-7.18,3.05,10,10,0,0,0-3,7.31q0,7.77-1.81,9.58c-1.2,1.21-4.36,1.81-9.45,1.81a10,10,0,0,0-7.37,3,9.84,9.84,0,0,0-3,7.24c0,5.09-.61,8.39-1.83,9.59S54.7,101,49.53,101a9.92,9.92,0,0,0-7.31,3,9.73,9.73,0,0,0-3,6.68,56.42,56.42,0,0,0,20.56.48c0-5.07.61-8.22,1.82-9.43s4.54-1.82,9.72-1.82a9.8,9.8,0,0,0,7.19-3,9.94,9.94,0,0,0,3-7.31q0-7.77,1.82-9.57c1.2-1.22,4.35-1.82,9.44-1.82a10,10,0,0,0,7.38-3,9.84,9.84,0,0,0,3-7.25A10.38,10.38,0,0,0,92.78,57.58Z"/><path class="cls-1" d="M145.94,58.61a10,10,0,0,0,7.35-10.07V48.2c0-7.13-4.85-10.9-14-10.9-3,0-6.61.16-8.58.39-.74.08-1.59.33-1.59,1.54V73.14a1.41,1.41,0,0,0,1.35,1.45h2.62a1.39,1.39,0,0,0,1.35-1.45V59.4c1.35.05,3.43.13,4.85.13h1l8.53,14.2c.48.78.72.86,1.47.86h3.39a1,1,0,0,0,1.12-1,1.22,1.22,0,0,0-.22-.68Zm-6.69-3.82c-.57,0-1.68,0-2.76,0l-2.09-.05V42.33c1.28-.1,3.56-.1,4.85-.1,6.19,0,8.72,1.73,8.72,6v.34C148,53,145.52,54.79,139.25,54.79Z"/><path class="cls-1" d="M177.66,37.59c-2.14-.2-6.84-.29-9.49-.29-7.37,0-10.8,3-10.8,9.49V65.11c0,6.47,3.43,9.49,10.8,9.49,1.19,0,7.28,0,9.49-.25h0a1.16,1.16,0,0,0,.89-1.15V70.73a1,1,0,0,0-1-1.06h-9.34c-5,0-5.48-1.25-5.48-4.56v-6.8h14.39a1.45,1.45,0,0,0,1.45-1.44V55a1.45,1.45,0,0,0-1.45-1.45H162.74V46.79c0-3.31.47-4.56,5.48-4.56h9.34a1,1,0,0,0,1-1.06V38.75A1.18,1.18,0,0,0,177.66,37.59Z"/><path class="cls-1" d="M206.41,37.3H183.12a1.4,1.4,0,0,0-1.45,1.34v2.14A1.29,1.29,0,0,0,183.12,42h9V73.15a1.41,1.41,0,0,0,1.35,1.45h2.67a1.42,1.42,0,0,0,1.35-1.45V42h9a1.28,1.28,0,0,0,1.41-1.25V38.64A1.33,1.33,0,0,0,206.41,37.3Z"/><path class="cls-1" d="M224.67,37.3h-2.82c-7.63,0-10.89,3.14-10.89,10.51V73.15a1.44,1.44,0,0,0,1.35,1.45H215a1.42,1.42,0,0,0,1.35-1.45V59.28h13.86V73.15a1.41,1.41,0,0,0,1.35,1.45h2.67a1.44,1.44,0,0,0,1.35-1.45V47.81C235.56,40.54,232.2,37.3,224.67,37.3Zm5.52,17.15H216.33V47.81c0-4.82,1.45-5.68,5.52-5.68h2.82c4.07,0,5.52.86,5.52,5.68Z"/><path class="cls-1" d="M245.21,37.3h-2.66a1.36,1.36,0,0,0-1.36,1.39V73.15a1.41,1.41,0,0,0,1.36,1.45h2.66a1.41,1.41,0,0,0,1.35-1.45V38.69A1.35,1.35,0,0,0,245.21,37.3Z"/><path class="cls-1" d="M272.39,69.67H263c-5,0-5.48-1.25-5.48-4.56V38.75a1.45,1.45,0,0,0-1.45-1.45h-2.47a1.45,1.45,0,0,0-1.45,1.45V65.11c0,8.36,5.46,9.49,10.8,9.49a83.19,83.19,0,0,0,9.52-.44h0A1.15,1.15,0,0,0,273.4,73V70.73A1,1,0,0,0,272.39,69.67Z"/><path class="cls-1" d="M295.52,37.78l-.18,0a67,67,0,0,0-8.26-.46,11.52,11.52,0,0,0-8.6,3.36c-2.53,2.65-3.81,6.77-3.81,12.24V59c0,13.58,7.78,15.61,12.41,15.61a63.43,63.43,0,0,0,8.23-.47l.21,0a1.47,1.47,0,0,0,1.41-1.36v-.59A1,1,0,0,0,295.76,71h-.36c-1.62.18-5.26.44-8.32.44a8.11,8.11,0,0,1-6.49-2.75c-1.79-2.11-2.7-5.39-2.7-9.74V52.9c0-4.35.91-7.62,2.7-9.73a8.08,8.08,0,0,1,6.49-2.75c2.88,0,6.44.22,8.38.44h.3a1,1,0,0,0,1.17-1.13v-.58A1.48,1.48,0,0,0,295.52,37.78Z"/><path class="cls-1" d="M311.08,37.3c-8.35,0-12.95,5.61-12.95,15.8v5.69c0,10.19,4.6,15.81,12.95,15.81S324,69,324,58.79V53.1C324,42.91,319.42,37.3,311.08,37.3Zm9.73,21.49c0,8.42-3.28,12.69-9.73,12.69s-9.73-4.27-9.73-12.69V53.1c0-8.42,3.27-12.68,9.73-12.68s9.73,4.26,9.73,12.68Z"/><path class="cls-1" d="M340.33,37.3a90.89,90.89,0,0,0-11.21.83,1.28,1.28,0,0,0-1.16,1.4v33.6a1.38,1.38,0,0,0,1.37,1.47h.43a1.43,1.43,0,0,0,1.42-1.47V40.85c2.48-.25,5.95-.53,9.15-.53,6.09,0,8.47,2.89,8.47,10.31v22.5a1.4,1.4,0,0,0,1.36,1.47h.49A1.42,1.42,0,0,0,352,73.13V50.63C352,41.66,348.19,37.3,340.33,37.3Z"/><path class="cls-1" d="M368.6,54.57l-3.1-1.89c-4.26-2.57-6.28-4.27-6.28-6.94,0-3.73,2.56-5.32,8.56-5.32,1.44,0,3.31.17,4.88.31,1,.1,1.84.17,2.29.17,1.08,0,1.47-.63,1.47-1.22v-.62a1.31,1.31,0,0,0-1.33-1.28l-1-.09c-1.92-.18-4.09-.39-6.3-.39C360,37.3,356,40.12,356,45.69c0,4.6,3.41,7.07,7.86,9.81l3.21,2c5.27,3.27,7.05,4.38,7.05,7.63a5.51,5.51,0,0,1-1.6,4.39c-1.35,1.32-3.6,2-6.87,2a45,45,0,0,1-4.91-.32c-.74-.07-1.51-.15-2.36-.21h-.19c-1.36,0-1.46.89-1.46,1.17v.63A1.36,1.36,0,0,0,358,74.06l1.12.12a55.56,55.56,0,0,0,6.44.42c7.93,0,11.78-3.11,11.78-9.48C377.38,60.25,373.9,57.78,368.6,54.57Z"/><path class="cls-1" d="M404,37.3h-.44a1.37,1.37,0,0,0-1.37,1.46V70.84a63.8,63.8,0,0,1-9.19.69c-3.12,0-5.27-.85-6.59-2.58s-1.83-4.1-1.83-7.73V38.76a1.4,1.4,0,0,0-1.37-1.46h-.48a1.4,1.4,0,0,0-1.37,1.46V61.22c0,9,3.81,13.38,11.64,13.38a60.48,60.48,0,0,0,11.27-1.13,1.31,1.31,0,0,0,1.09-1.4V38.76A1.37,1.37,0,0,0,404,37.3Z"/><path class="cls-1" d="M428.28,71.52h-11c-2.25,0-3.19-.4-3.19-2.89V38.76a1.4,1.4,0,0,0-1.36-1.46h-.49a1.4,1.4,0,0,0-1.36,1.46V68.63c0,4.07,2,6,6.4,6h11a1.39,1.39,0,0,0,1.46-1.37v-.39A1.35,1.35,0,0,0,428.28,71.52Z"/><path class="cls-1" d="M450.7,37.3H427.79a1.38,1.38,0,0,0-1.47,1.36v.43a1.31,1.31,0,0,0,1.47,1.27h9.87V73.13A1.41,1.41,0,0,0,439,74.6h.48a1.41,1.41,0,0,0,1.37-1.47V40.36h9.82a1.29,1.29,0,0,0,1.46-1.27v-.43A1.36,1.36,0,0,0,450.7,37.3Z"/></svg>