<?xml version="1.0" encoding="UTF-8"?>
<svg id="Layer_1" data-name="Layer 1" xmlns="http://www.w3.org/2000/svg" viewBox="0 0 917.1 966.35">
  <defs>
    <style>
      .cls-1 {
        fill: #fff;
      }
    </style>
  </defs>
  <path class="cls-1" d="m773.06,152.68c0-5.68,0-12.35-.92-19.03-52.67-25.13-159.02-75.46-159.02-75.46,0,0-60.02-9.43-97.08-14.61-8.51-10.1-34.89-43.57-34.89-43.57,0,0-12.02.67-32.56,20.7-20.54,20.12-59.93,77.47-59.93,77.47,0,0,17.2-45.83,23.71-62.36H124.71c56.18,129.53,72.33,276.89,31.96,444.06,5.04-2.77,10.11-5.5,15.23-8.13.61-.33,1.21-.68,1.83-1.01l.03.06c59.87-30.57,123.77-52.18,170.33-75.7-34.14-66.03-98.67-69.37-141.58-86.9,13.86-24.54,64.69-77.63,80.8-89.32,41.74-30.13,96.83-48.42,96.83-48.42,0,0-56.18,34.98-77.47,52.84-18.12,15.03-50.84,53.09-60.27,70.12,42.41,10.94,136.65,51.25,139.24,131.14.92,28.21-9.02,62.44-26.46,89.99l90.65,38.32c26.05-17.03,68.45-47.92,92.66-74.54-70.29,12.19-90.49-42.91-90.49-91.32,0-90.4,52.17-125.21,160.69-155.68,19.78-5.43,63.03-12.6,64.95-10.77v24.21c-.17,36.23-58.27,165.53-63.78,179.72,54.09-70.45,91.32-144.33,100.92-210.19l22.71,2c-14.78,62.69-41.24,136.15-79.3,201.43,45.16-61.94,118.87-191.83,118.87-265.04Zm-190.08-65.94h52.59c2.59,11.44,4.76,24.88,6.6,41.4l-59.19-41.4Z"/>
  <g>
    <path class="cls-1" d="m63.86,964.43l-52.01-.04.11-145.3,63.63.05c17.65.01,31.5,4.74,41.18,14.04,9.74,9.36,14.67,21.96,14.66,37.45,0,9.36-2.2,18-6.52,25.67h0c-4.37,7.75-10.87,13.97-19.32,18.48-8.31,4.43-18.4,6.68-30,6.68h-11.68s-.03,42.98-.03,42.98Zm-41.96-10.07l31.93.02.03-42.99,21.66.02h.06c9.93,0,18.44-1.85,25.28-5.5,6.83-3.64,11.84-8.4,15.3-14.55h0c3.47-6.15,5.23-13.13,5.23-20.75,0-12.83-3.78-22.71-11.57-30.2-7.75-7.44-19.26-11.23-34.23-11.24l-53.58-.04-.09,125.22Zm48.93-66.34h-16.96s.03-34.89.03-34.89h16.93c11.48.02,18.06,6.38,18.05,17.47h-5.02s5.02,0,5.02,0c0,5.55-1.63,9.91-4.83,12.95-3.13,2.97-7.58,4.48-13.22,4.48Zm-6.91-10.05h6.89s.01,0,.02,0c2.06,0,4.82-.3,6.31-1.71,1.13-1.07,1.7-2.98,1.71-5.68,0-4.68-1.31-7.4-8.02-7.4h-6.89s-.01,14.79-.01,14.79Z"/>
    <path class="cls-1" d="m266.48,965.92h-.06c-13.43,0-25.93-3.26-37.17-9.66h0c-11.25-6.41-20.3-15.39-26.88-26.69-6.59-11.3-9.93-24.18-9.92-38.27.01-14.09,3.37-26.96,9.98-38.25,6.61-11.3,15.67-20.23,26.94-26.56,11.22-6.3,23.7-9.5,37.1-9.5h.06c13.42.01,25.89,3.23,37.06,9.56,11.19,6.35,20.18,15.3,26.71,26.62,6.52,11.31,9.83,24.17,9.82,38.25-.01,14.08-3.33,26.94-9.87,38.23-6.55,11.3-15.58,20.27-26.84,26.67-11.23,6.38-23.65,9.61-36.93,9.61Zm-.01-138.89c-11.65,0-22.48,2.76-32.18,8.21-9.69,5.45-17.5,13.14-23.19,22.88-5.7,9.74-8.59,20.91-8.6,33.19,0,12.28,2.87,23.45,8.55,33.2,5.69,9.75,13.48,17.5,23.18,23.02h0c9.7,5.53,20.53,8.34,32.2,8.35h.06c11.52,0,22.27-2.79,31.97-8.3,9.69-5.5,17.47-13.23,23.11-22.97,5.64-9.74,8.51-20.92,8.52-33.2,0-12.29-2.84-23.46-8.47-33.22-5.63-9.74-13.35-17.45-22.97-22.9-9.64-5.47-20.45-8.25-32.12-8.26h-.05Zm.01,99.34h-.03c-9.96,0-17.81-3.35-23.31-9.93-5.29-6.32-7.97-14.76-7.96-25.11,0-10.46,2.7-18.97,8-25.28,5.52-6.57,13.35-9.9,23.3-9.9h.03c9.83,0,17.61,3.35,23.12,9.93,5.29,6.32,7.97,14.83,7.96,25.3,0,10.34-2.7,18.78-8,25.09-5.51,6.57-13.29,9.9-23.11,9.9Zm-.01-60.18c-6.93,0-12.04,2.06-15.6,6.31-3.74,4.46-5.64,10.79-5.65,18.84,0,7.92,1.88,14.19,5.62,18.65,3.56,4.26,8.67,6.33,15.62,6.34h.02c6.81,0,11.85-2.06,15.41-6.31h0c3.74-4.46,5.64-10.73,5.65-18.64,0-8.04-1.88-14.38-5.62-18.85-3.56-4.26-8.61-6.33-15.43-6.33h-.03Z"/>
    <path class="cls-1" d="m533.81,964.78l-57.77-.04-17.23-33.32-.03,33.31-52.01-.04.11-145.3,67.41.05c11.58,0,21.69,2.16,30.05,6.39,8.54,4.32,15.06,10.33,19.37,17.85,4.26,7.44,6.42,15.9,6.42,25.15,0,10.06-2.84,19.14-8.42,26.97-4.53,6.37-10.69,11.31-18.34,14.76l30.44,54.23Zm-51.65-10.08l34.49.03-27.87-49.64,5.81-1.9c8.36-2.73,14.55-7.06,18.94-13.22,4.4-6.19,6.55-13.11,6.55-21.16,0-7.47-1.7-14.25-5.08-20.14-3.37-5.87-8.34-10.42-15.2-13.89-6.94-3.51-15.53-5.3-25.52-5.31l-57.37-.04-.09,125.22,31.93.02.04-48.52h8.26l25.11,48.55Zm-11.68-66.76h-.02l-21.66-.02.02-32.97,21.66.02c5.25,0,9.45,1.52,12.49,4.5,3.07,3.01,4.62,7.05,4.62,12,0,5.4-1.57,9.57-4.67,12.39-2.96,2.71-7.15,4.08-12.45,4.08Zm-11.63-10.05h11.61s.01,0,.02,0c2.67,0,4.63-.5,5.67-1.45,1.15-1.05,1.4-3.29,1.4-4.99,0-3.24-1.21-4.43-1.61-4.82-1.1-1.08-2.94-1.62-5.46-1.63h-11.61s0,12.87,0,12.87Z"/>
    <path class="cls-1" d="m674.69,964.89l-52.01-.04.08-101.64-35.16-.03.03-43.67,122.72.09-.03,43.67-35.54-.03-.08,101.64Zm-41.96-10.07l31.93.02.08-101.64,35.54.03.02-23.58-102.63-.08-.02,23.58,35.16.03-.08,101.64Z"/>
    <path class="cls-1" d="m843.46,966.35h-.06c-13.43,0-25.94-3.26-37.17-9.66h0c-11.25-6.41-20.3-15.39-26.88-26.69-6.59-11.3-9.93-24.18-9.92-38.27.01-14.09,3.37-26.95,9.98-38.25,6.61-11.3,15.68-20.24,26.94-26.56,11.22-6.3,23.7-9.5,37.1-9.5h.06c13.42.01,25.89,3.23,37.06,9.56,11.19,6.35,20.18,15.3,26.71,26.62,6.52,11.31,9.83,24.17,9.81,38.25-.01,14.08-3.33,26.94-9.87,38.23-6.55,11.3-15.58,20.27-26.84,26.67-11.23,6.38-23.65,9.61-36.93,9.61Zm0-138.89c-11.65,0-22.48,2.76-32.18,8.21-9.69,5.44-17.5,13.14-23.19,22.88-5.7,9.74-8.59,20.91-8.6,33.19,0,12.28,2.87,23.45,8.55,33.2,5.69,9.75,13.48,17.5,23.18,23.02h0c9.7,5.53,20.53,8.34,32.2,8.35h.05c11.52,0,22.28-2.79,31.97-8.3,9.69-5.5,17.47-13.23,23.11-22.97,5.64-9.74,8.51-20.92,8.52-33.2,0-12.29-2.84-23.46-8.47-33.22-5.63-9.74-13.35-17.45-22.97-22.9-9.65-5.47-20.45-8.25-32.12-8.26h-.05Zm.01,99.34h-.03c-9.96,0-17.81-3.35-23.31-9.93-5.29-6.32-7.97-14.77-7.96-25.11,0-10.46,2.7-18.97,8-25.29,5.51-6.57,13.35-9.9,23.3-9.9h.03c9.83,0,17.61,3.35,23.12,9.93,5.29,6.32,7.97,14.84,7.96,25.3,0,10.34-2.7,18.78-8,25.09-5.51,6.57-13.29,9.9-23.11,9.9Zm-.01-60.18c-6.93,0-12.04,2.06-15.6,6.31-3.74,4.46-5.64,10.79-5.65,18.84,0,7.92,1.88,14.19,5.62,18.65,3.56,4.26,8.67,6.33,15.62,6.34h.02c6.81,0,11.85-2.06,15.41-6.31h0c3.74-4.45,5.64-10.73,5.65-18.64,0-8.04-1.88-14.38-5.62-18.85-3.56-4.26-8.61-6.33-15.43-6.33h-.03Z"/>
  </g>
  <g>
    <path class="cls-1" d="m53.27,737.71c0,6.97,6.56,11.68,40.36,11.68,31.56,0,36.26-2.05,36.26-7.38,0-6.15-4.71-6.96-38.31-7.99-64.75-2.05-89.54-12.7-89.54-46.1,0-31.55,30.94-45.08,87.49-45.08s87.49,13.53,87.49,50.2h-53.28c0-7.58-12.29-9.22-38.32-9.22s-30.12,1.23-30.12,6.76,5.12,5.33,36.27,6.55c56.55,2.26,91.59,6.15,91.59,43.65,0,39.54-32.79,49.58-91.59,49.58S0,780.33,0,737.71h53.27Z"/>
    <path class="cls-1" d="m307.77,762.5h-61.06l-9.84,25.82h-58.6l59.42-143.43h79.09l59.42,143.43h-58.61l-9.83-25.82Zm-13.93-36.88l-16.6-43.85-16.6,43.85h33.2Z"/>
    <path class="cls-1" d="m558.16,745.9c0,23.57-14.13,42.42-46.72,42.42h-131.13v-143.43h124.99c32.58,0,42.62,14.75,42.62,36.47,0,9.22-4.31,18.65-11.27,26.84,12.49,9.02,21.51,22.13,21.51,37.7Zm-124.57-50.61h49.17c5.33,0,11.88,0,11.88-7.79s-6.55-7.79-11.88-7.79h-49.17v15.57Zm71.3,46.51c0-7.58-6.56-7.58-11.89-7.58h-59.42v15.16h59.42c5.33,0,11.89,0,11.89-7.58Z"/>
    <path class="cls-1" d="m620.88,685.87v13.32h98.35v34.84h-98.35l1.65,13.32h98.35l-1.65,40.98h-151.62v-143.43h151.62v40.98h-98.35Z"/>
    <path class="cls-1" d="m874.97,747.13l25.41,41.18h-63.11l-19.88-33.6h-31.34v33.6h-53.28v-143.43h112.69c32.58,0,54.92,22.95,54.92,54.92,0,20.9-9.63,38.11-25.41,47.33Zm-88.92-37.5h49.17c5.33,0,11.88,0,11.88-9.83s-6.55-9.84-11.88-9.84h-49.17v19.67Z"/>
  </g>
</svg>