<?xml version="1.0" encoding="UTF-8"?>
<svg id="Camada_1" data-name="Camada 1" xmlns="http://www.w3.org/2000/svg" viewBox="0 0 1920 1080">
  <defs>
    <style>
      .cls-1 {
        fill: #fff;
      }
    </style>
  </defs>
  <path class="cls-1" d="m291.89,441.4c-3.91,1.39-7.88,2.62-11.71,4.2-22.2,9.15-43.83,19.44-64.11,32.42-9.89,6.33-18.88,13.7-27.22,21.9-16.54,16.27-32.4,33.16-46.87,51.31-4.08,5.12-7.74,10.57-11.55,15.9-.62.87-1.03,1.89-1.67,3.11,1.23.6,2.16,1.18,3.17,1.52,8.19,2.72,16.39,5.42,24.6,8.08,10.18,3.29,20.48,6.27,30.56,9.85,14.22,5.04,27.7,11.64,39.97,20.53,15.16,10.98,26.91,24.92,35.73,41.37.29.53.39,1.16.68,2.02-1.33.74-2.52,1.48-3.77,2.1-14.92,7.36-30.16,13.99-45.48,20.43-24.31,10.22-48.68,20.29-72.88,30.77-17.9,7.75-35.41,16.34-52.61,25.55-1.11.59-2.28,1.08-3.82,1.8,0-1.24-.17-2.15.03-2.97,5.21-21.45,9.31-43.12,12.72-64.91,2.32-14.84,3.95-29.78,5.34-44.75,1.29-13.85,1.96-27.74,2.47-41.63.55-15.18.42-30.36-.38-45.54-.35-6.54-.68-13.09-1.11-19.62-.93-14.36-2.54-28.65-4.52-42.9-1.89-13.63-4.31-27.16-7.17-40.6-5.78-27.22-13.06-54.03-22.56-80.22-4.63-12.77-9.42-25.47-14.77-37.96-.36-.84-.53-1.77-.86-2.92,1.21-.15,2.12-.33,3.03-.36,25.39-.66,266.3-.29,271.33.44-.11.74-.1,1.52-.36,2.2-5.99,15.84-12.01,31.68-18.02,47.51-.44,1.17-.84,2.36-1.26,3.57,1.54.83,1.79-.53,2.23-1.14,5.16-7.12,10.21-14.31,15.4-21.41,9.54-13.03,19.32-25.88,29.91-38.08,6.84-7.88,14.48-14.9,23.16-20.74,3.73-2.51,7.68-4.61,11.96-6.01,1.04-.34,2.14-.45,3.44-.72,1.24,1.54,2.44,3.01,3.63,4.5,8.98,11.24,18,22.46,26.9,33.76,1.9,2.42,4.02,3.68,7.17,4.09,12.05,1.54,24.06,3.35,36.08,5.16,13.91,2.09,27.81,4.27,41.72,6.43,3,.47,6.02.87,8.99,1.52,1.85.41,3.69,1.06,5.41,1.87,20.68,9.74,41.34,19.51,61.99,29.31,22.09,10.48,44.17,20.98,66.26,31.47,5.2,2.47,10.4,4.93,15.59,7.4,1.01.48,2,1.01,3.01,1.48,1.45.67,2.18,1.75,2.23,3.37.18,5.75.69,11.5.56,17.24-.34,15.44-3.45,30.44-7.54,45.28-6.73,24.42-16.25,47.77-26.82,70.73-11.24,24.41-23.86,48.1-37.42,71.28-11.06,18.9-22.62,37.5-35.31,55.37-.65.91-1.21,1.92-2.01,2.68-.51.48-1.39.57-2.1.84l-.12.07c.59-.71,1.31-1.35,1.75-2.14,10.65-19.15,20.39-38.74,29.21-58.8,11.01-25.05,20.42-50.69,28.67-76.76,4.68-14.78,8.83-29.72,12.42-44.8.28-1.19.38-2.42.56-3.6-4.04-1.13-14.51-2.19-20.33-2.1-1.26,1.32-1.15,3.18-1.44,4.84-1.55,8.82-3.43,17.56-5.74,26.21-4.85,18.11-11.39,35.61-18.95,52.74-12.43,28.16-27.63,54.79-44.85,80.27-7.07,10.46-14.6,20.61-21.94,30.88-.82,1.15-1.78,2.19-2.73,3.35-1.1-1.1-.19-1.94.1-2.63,5.03-11.93,10.21-23.79,15.19-35.74,10.88-26.11,21.59-52.29,30.79-79.05,4.42-12.85,8.62-25.78,11.43-39.1.85-4.05,1.47-8.2,1.62-12.33.26-6.87.08-13.75.06-20.63,0-.93-.16-1.85-.28-3.02-1.11-.14-2.04-.43-2.92-.33-6.2.67-12.42,1.18-18.57,2.19-9.14,1.51-18.28,3.16-27.32,5.17-8.11,1.81-16.14,4.02-24.11,6.36-14.42,4.22-28.73,8.84-42.73,14.32-16.56,6.49-32.58,14.09-47.35,24.09-16.43,11.12-29.89,24.99-39.02,42.77-5.3,10.32-8.65,21.31-10.69,32.69-1.93,10.72-2.85,21.56-2.73,32.45.16,13.32,1.71,26.47,5.63,39.26,3.51,11.45,8.79,21.93,17.15,30.69,6.07,6.36,13.24,10.96,21.48,14.01,11.71,4.32,23.76,4.56,35.97,3.32,1.57-.16,3.14-.37,4.61-.55.98,1.34-.08,1.92-.65,2.53-7.1,7.6-14.78,14.6-22.68,21.36-18.73,16.03-38.57,30.61-59.01,44.37-1.06.71-2.15,1.39-3.24,2.06-.4.25-.85.42-1.62.78-28.62-11.69-57.12-24.24-85.6-35.96-.9-1.86.2-2.87.81-3.89,3.78-6.32,7.11-12.87,10.05-19.62,5.4-12.36,9.32-25.16,11.54-38.47,1.26-7.58,1.99-15.21,1.86-22.91-.23-14.62-3.58-28.48-10.17-41.54-7.45-14.78-17.85-27.19-30.25-38.05-13.45-11.77-28.42-21.2-44.37-29.17-14.63-7.31-29.75-13.33-45.54-17.63-.76-.21-1.48-.55-2.13-.8-.45-1.61.5-2.62,1.18-3.62,3.17-4.61,6.24-9.3,9.66-13.72,10.79-13.91,22.37-27.12,34.76-39.64,7.8-7.88,16.42-14.72,25.37-21.18,15.82-11.43,32.23-21.97,48.61-32.57,1.48-.96,2.98-1.88,4.38-2.94.4-.3.51-1.01.76-1.52.36-.01.72-.03,1.08-.05-.08-.09-.21-.27-.24-.26-.26.12-.51.28-.76.42Zm203.03-82.5c-.09.32-.17.64-.26.97.59.48,1.16,1,1.79,1.44,5.38,3.75,10.77,7.48,16.14,11.23,10.35,7.24,20.67,14.52,31.05,21.73,1.37.95,2.65,2.23,4.51,2.41.3-6.07-3.65-30.87-6.09-37.87-15.59.04-31.37-.09-47.14.09Z"/>
  <path class="cls-1" d="m1224.58,556.67c-.18-1.44-.36-2.21-.36-2.98,0-55.48.03-110.97.07-166.45,0-.44.28-.88.47-1.46.58-.16,1.17-.43,1.77-.47,1.27-.09,2.56-.07,3.84-.07,48.63,0,97.26-.02,145.9.01,7.38,0,14.65.93,21.76,3.06,13.82,4.14,22.39,13.12,25.36,27.26,1.29,6.12,1.82,12.32.88,18.58-1.27,8.43-4.9,15.82-9.81,22.65-.84,1.16-1.71,2.3-2.49,3.35.21,1.89,1.71,2.43,2.78,3.3,7.15,5.84,13.02,12.7,17.08,21.06,3.72,7.64,5.25,15.65,4.91,24.15-.26,6.64-1.43,13.03-3.95,19.14-5.27,12.78-14.83,20.93-27.79,25.31-7.65,2.59-15.55,3.57-23.6,3.57-50.39-.02-100.78,0-151.18,0h-5.66Zm63.81-47.13c1.31.1,2.41.27,3.52.27,23.03.01,46.06.02,69.09,0,2.4,0,4.84.03,7.05-1.07,1.11-.55,2.31-1.21,3.08-2.15,4.16-5.08,1.62-12.53-4.76-13.93-2.01-.44-4.13-.49-6.19-.5-14.71-.04-29.43-.02-44.14-.02-7.68,0-15.35-.02-23.03.02-1.55,0-3.21-.37-4.56.74-.77,3.64-.83,11.72-.05,16.64Zm.05-64.67c1.32.13,2.41.32,3.51.32,19.17.02,38.33.04,57.5-.03,2.04,0,4.15-.4,6.09-1.02,1.29-.41,2.64-1.32,3.46-2.39,4.08-5.3,1.23-12.96-5.28-14.22-2.33-.45-4.76-.5-7.15-.51-11.98-.05-23.96-.02-35.94-.02-6.23,0-12.46-.02-18.69.03-1.21,0-2.42.3-3.52.45-.77,4.32-.77,12.98.02,17.4Z"/>
  <path class="cls-1" d="m770.17,496.25c1.33-.13,2.4-.29,3.48-.32,21.47-.52,55.15-.25,59.62.5,1.01,5.98,5.44,8.56,10.77,10.1,7.9,2.28,16.04,2.92,24.2,3.07,10.55.19,21.11.12,31.66.02,5.91-.06,11.82-.5,17.62-1.79,1.39-.31,2.77-.79,4.05-1.41,2.21-1.07,3.29-2.9,3.25-5.41-.04-2.5-1.16-4.2-3.39-5.33-2.78-1.4-5.79-1.87-8.8-2.1-7.49-.57-14.99-1.05-22.49-1.42-12.13-.61-24.28-.9-36.4-1.73-14.36-.98-28.64-2.72-42.56-6.63-6.48-1.82-12.72-4.24-18.54-7.69-11.69-6.92-18.21-17.12-19.83-30.56-.67-5.58-.8-11.13,0-16.72,1.45-10.09,6.06-18.42,13.68-25.11,6.34-5.57,13.74-9.28,21.64-12.07,9.54-3.37,19.4-5.34,29.4-6.67,19.73-2.62,39.55-2.68,59.38-1.74,12.79.61,25.48,2.24,37.9,5.53,9.48,2.52,18.55,6.01,26.56,11.83,13.58,9.87,19.7,23.48,20.01,39.99,0,.46-.15.93-.23,1.36-1.21,1.25-2.73.85-4.11.85-8.48.04-16.95.02-25.43.02-9.44,0-18.87,0-28.31,0-1.59,0-3.18,0-4.48,0-.53-.43-.93-.58-.99-.82-1.03-3.83-3.87-5.87-7.39-6.83-3.68-1.01-7.47-1.81-11.26-2.19-14.99-1.5-30.02-1.31-45.04-.71-3.82.15-7.62.78-11.41,1.33-1.23.18-2.45.71-3.59,1.25-2.12.99-2.94,2.81-2.92,5.08.02,1.96.86,3.49,2.69,4.14,1.94.69,3.97,1.32,6.01,1.49,6.37.53,12.76.88,19.14,1.22,17.4.95,34.81,1.67,52.19,2.85,10.53.72,21,2.14,31.3,4.61,7.96,1.91,15.68,4.45,22.72,8.76,9.68,5.94,15.6,14.5,17.62,25.66,2.13,11.73,1.31,23.24-3.18,34.37-3.2,7.94-8.58,14.17-15.52,19.08-8.36,5.91-17.8,9.32-27.69,11.6-15.34,3.53-30.94,4.75-46.63,5.12-3.68.09-7.35.35-11.02.31-9.43-.11-18.88-.09-28.29-.59-13.89-.73-27.75-2.03-41.24-5.73-8.38-2.29-16.31-5.54-23.53-10.5-11.21-7.7-17.33-18.54-19.73-31.65-.66-3.6-.84-7.3-1.14-10.96-.09-1.06.17-2.15.29-3.47Z"/>
  <path class="cls-1" d="m1815.84,507.49c2.87,5.68,6.46,10.75,9.68,16.04,3.32,5.46,6.75,10.86,10.05,16.33,3.2,5.3,6.65,10.45,9.67,16.09-1.36,1.01-2.67.69-3.85.69-22.55.02-45.1.02-67.65.02-1.11,0-2.22,0-3.54,0-8.14-13.27-15.7-26.77-23.92-40.06-4.07-.35-8.06-.14-12.03-.17-4.16-.04-8.32-.03-12.47,0-3.96.03-7.92-.16-11.57.15-1.34,1.84-.95,3.5-.96,5.05-.04,9.75,0,19.5-.04,29.25,0,1.72.33,3.5-.59,5.41-.66.11-1.41.35-2.17.35-19.51.02-39.02.02-58.53,0-.62,0-1.24-.15-2.15-.27-.18-.93-.45-1.82-.51-2.71-.09-1.27-.04-2.56-.04-3.83,0-52.59,0-105.18.02-157.77,0-2.05-.4-4.16.59-6.26.54-.16,1.14-.44,1.75-.49,1.27-.09,2.56-.07,3.84-.07,43.34,0,86.68-.03,130.02.01,12.23.01,23.77,2.84,34.31,9.16,12.4,7.43,21.06,18.04,25.81,31.66,5.49,15.74,5.61,31.68.64,47.58-4.15,13.26-12.07,23.84-23.5,31.77-.91.63-1.79,1.3-2.86,2.07Zm-105.95-45.24c.99.1,1.78.24,2.56.24,19.01.01,38.02.04,57.03-.02,1.89,0,3.82-.37,5.67-.82,3.21-.8,5.25-2.92,6.1-6.12.84-3.15.86-6.31,0-9.46-.99-3.59-3.39-5.75-7.01-6.37-2.19-.37-4.45-.46-6.68-.47-9.42-.05-18.85-.02-28.27-.02-8.47,0-16.93-.02-25.4.02-1.39,0-2.89-.35-4.08.73-.79,3.96-.78,17.92.09,22.28Z"/>
  <path class="cls-1" d="m1448.06,385.91c1.03-.26,1.77-.56,2.53-.61,1.43-.1,2.88-.06,4.32-.06,55.83,0,111.66,0,167.5,0,2.04,0,4.13-.26,6.39.49.14.97.39,1.88.39,2.79.02,14.07.02,28.14,0,42.21,0,.92-.24,1.84-.38,2.92-.93.19-1.67.44-2.43.47-1.6.07-3.2.04-4.8.04-34.55,0-69.11,0-103.66.02-1.88,0-3.84-.43-5.6.58-.75,3.68-.79,10.02-.06,14.53.8.17,1.68.47,2.58.52,1.59.09,3.2.04,4.8.04,34.4,0,68.79,0,103.18.02,1.89,0,3.84-.37,5.85.63.16.65.45,1.39.5,2.15.42,6.19.08,35.08-.47,38.63-.78.13-1.67.37-2.57.42-1.44.08-2.88.03-4.32.03-34.55,0-69.11,0-103.66.02-1.87,0-3.83-.46-5.58.59-.44,3.88.31,9.93,1.83,14.81,1.74.66,3.67.36,5.54.36,35.03.02,70.07,0,105.1.03,1.88,0,3.81-.3,5.77.49.14.67.39,1.28.37,1.87-.61,15.31-1.26,30.63-1.91,46.13-1.07.22-1.96.51-2.86.57-1.27.09-2.56.03-3.84.03-55.99,0-111.98,0-167.98,0h-5.95c-.26-1.07-.56-1.94-.65-2.83-.11-1.11-.04-2.24-.04-3.36,0-52.93,0-105.85,0-158.78,0-1.89.06-3.79.09-5.8Z"/>
  <path class="cls-1" d="m983.55,556.39c-.06-.64-.21-1-.11-1.26,23.11-55.95,46.24-111.9,69.39-167.84.24-.57.66-1.07,1.02-1.65.66-.13,1.28-.36,1.89-.36,30.7-.02,61.4-.02,92.26-.02.59,1.02,1.24,1.92,1.66,2.91,3.62,8.53,7.22,17.07,10.77,25.63,7.59,18.3,15.14,36.61,22.72,54.91,10.69,25.83,21.38,51.66,32.07,77.49.98,2.36,1.97,4.72,2.91,7.09.34.86.54,1.78.74,2.46-.28.39-.34.54-.45.63-.12.09-.29.17-.44.17-22.39.03-44.77.05-67.16.05-.45,0-.91-.2-1.65-.37-4.11-9.73-7.52-19.86-11.57-29.85-1.05-.16-1.97-.42-2.89-.42-22.39-.02-44.78-.02-67.17,0-.79,0-1.58.14-2.62.23-2.44,4.8-3.97,10.02-6,15.03-2.03,5.02-3.93,10.09-5.83,14.98-3.9.56-63.59.69-69.55.18Zm136.53-75.44c-.33-1.26-.52-2.33-.88-3.33-1.03-2.85-2.13-5.68-3.21-8.52-4.29-11.36-8.57-22.73-12.88-34.08-.5-1.31-.74-2.82-2.38-3.6-.47,1.02-.98,2-1.37,3.02-2.12,5.52-4.22,11.04-6.31,16.57-3.23,8.52-6.47,17.03-9.63,25.58-.53,1.42-1.6,2.83-.84,4.51,3.16.48,29.3.8,35.48.41.59-.04,1.16-.3,2.03-.54Z"/>
  <path class="cls-1" d="m1257.22,594.27c1.6-.05,3.19-.15,4.77-.15,25.59,0,51.17-.09,76.76.03,13.48.07,26.35,2.85,38.07,9.87,14.82,8.88,23.14,22.12,25.86,38.99,1.34,8.29,1.06,16.56-1.11,24.71-3.91,14.66-12.54,25.66-25.78,33.05-1.24.69-2.47,1.39-3.94,2.22.71,1.44,1.26,2.73,1.95,3.95,8.43,15.05,16.89,30.1,25.33,45.14,2.27,4.04,4.54,8.08,6.76,12.14.43.78.63,1.69.91,2.46-.49.36-.73.7-.97.7-22.21.02-44.43.02-66.61.02-1.85-1.58-2.56-3.76-3.57-5.71-4.71-9.07-9.34-18.19-14.08-27.24-.69-1.32-1.03-3.01-2.56-3.84-1.23.96-.76,2.15-.76,3.17-.04,9.27-.01,18.54-.03,27.81,0,1.73-.1,3.46-.14,4.98-1.87,1.47-3.7.97-5.4.97-14.07.04-28.15.02-42.22.02-3.52,0-7.04.02-10.55-.02-1.09-.01-2.18-.16-3.53-.27-.15-1.09-.35-1.99-.39-2.9-.06-1.44-.02-2.88-.02-4.31,0-29.41-.03-58.82.01-88.23.04-24.13.16-48.27.27-72.4,0-1.56-.36-3.21.98-5.16Zm11.71,12.21c-.96,1.79-.67,3.42-.67,4.99-.11,26.52-.23,53.05-.29,79.57-.04,19.02,0,38.03,0,57.05,0,1.44-.04,2.88.04,4.31.05.9.28,1.78.45,2.79,1.07.09,1.85.22,2.62.22,10.71.01,21.42.02,32.14-.02.9,0,1.8-.34,2.99-.58v-28.42c0-4.63-.05-9.27.01-13.9.07-4.76-.32-9.54.32-14.68,3.31-.18,6.42-.45,9.65.17,10.31,18.98,19.65,38.41,29.83,57.12,5.91.55,36.51.42,40.37-.18-.51-1.19-.9-2.36-1.49-3.43-3.25-5.87-6.54-11.72-9.82-17.57-6.26-11.14-12.54-22.27-18.77-33.43-.67-1.2-1.81-2.3-1.29-4.32,1.27-.46,2.75-.98,4.21-1.54,2.83-1.09,5.73-2.05,8.47-3.33,9.35-4.4,16.16-11.35,20.22-20.85,3.89-9.11,4.44-18.57,2.38-28.2-1.49-6.99-4.36-13.36-8.97-18.85-5.04-6.01-11.43-10.12-18.69-12.99-7.54-2.98-15.44-4.2-23.46-4.25-22.22-.14-44.45-.06-66.67-.03-1.24,0-2.48.24-3.56.35Z"/>
  <path class="cls-1" d="m1472.86,594.53c1.1-.14,2.18-.37,3.26-.4,26.07-.72,137.35-.32,142.19.54.13.63.42,1.38.42,2.12.02,15.66.02,31.33,0,46.99,0,.61-.17,1.23-.28,1.94-1.7.97-3.48.68-5.18.68-10.39.03-20.79,0-31.18.03-1.73,0-3.53-.34-5.43.67-.13.92-.38,1.99-.4,3.07-.05,4-.03,7.99-.03,11.99,0,33.09,0,66.17-.02,99.26,0,1.87.33,3.81-.64,5.81-.95.11-1.87.29-2.8.31-17.5.49-53.67.22-58.29-.48-.14-.78-.39-1.67-.44-2.57-.08-1.43-.03-2.88-.03-4.31,0-35.8,0-71.6,0-107.41v-5.37c-1.61-1.74-3.31-1.27-4.85-1.28-10.39-.04-20.79-.01-31.18-.03-1.74,0-3.47-.09-5.38-.14-.25-1.16-.61-2.06-.6-2.96.04-13.58.1-27.16.23-40.74.02-2.51-.45-5.09.64-7.74Zm133.26,12.12c-1.79-.89-3.74-.52-5.63-.52-36.62-.02-73.25-.02-109.87-.02-1.28,0-2.56-.04-3.84.06-.76.05-1.51.32-2.19.48-.87,4.12-.85,23.08-.01,26.83,1.6,1,3.41.61,5.13.62,10.24.04,20.47,0,30.71.04,1.7,0,3.5-.4,5.37.82.04,1.83.13,3.72.13,5.61,0,20.14,0,40.28,0,60.42,0,16.3-.02,32.61.02,48.91,0,1.71-.45,3.52.79,5.44,3.98.03,8.11.06,12.24.08,4.16.01,8.32.09,12.47-.02,4.1-.11,8.24.51,12.61-.48.06-2.06.15-3.94.15-5.83,0-35.65,0-71.29,0-106.94,0-1.6-.06-3.2.04-4.79.06-.9.4-1.79.68-2.98,4.77,0,9.4,0,14.02,0s8.96.06,13.43-.02c4.59-.08,9.21.38,13.7-.31.91-4.15.89-23.64.03-27.4Z"/>
  <path class="cls-1" d="m846.32,715.74c-.05,2.26-.11,4-.12,5.75,0,13.11.01,26.22-.02,39.33,0,1.72.37,3.51-.74,5.51-1.21.09-2.61.26-4,.27-36.77.4-53.33.21-57.25-.68-.11-.8-.29-1.71-.33-2.63-.06-1.44-.02-2.88-.02-4.32,0-33.89-.04-67.78.02-101.67.03-19.82.23-39.63.37-59.45,0-1.26.15-2.53.25-3.98,1-.27,1.87-.59,2.76-.72.78-.12,1.6-.04,2.4-.04,24.47,0,48.94-.03,73.41.02,9.35.02,18.48,1.56,27.24,4.9,17.65,6.72,29.2,19.19,34.16,37.4,3.51,12.9,3.52,25.92-.55,38.77-4.66,14.74-13.93,25.66-27.57,32.92-11.15,5.93-23.16,8.06-35.63,8.22-3.52.05-7.04-.02-10.56.03-1.08.01-2.16.21-3.81.39Zm-12.77,38.72c.93-2.21.64-3.99.64-5.71.03-13.26,0-26.53.03-39.79,0-1.71-.31-3.49.69-5.37,1.59-.07,3.15-.2,4.72-.2,6.72-.02,13.43.05,20.15-.03,7.21-.08,14.4-.74,21.3-2.92,15.66-4.93,26.56-14.84,31.59-30.76,2.36-7.46,2.66-15.06,1.81-22.75-.62-5.6-2.05-10.98-4.55-16.05-6.03-12.24-15.85-19.76-28.9-23.27-6.52-1.75-13.18-2.47-19.92-2.5-9.43-.04-18.87-.01-28.3-.01-10.55,0-21.11-.02-31.66.02-1.54,0-3.22-.44-4.58.89-.09.44-.27.91-.27,1.37-.12,47.14-.23,94.28-.33,141.43,0,1.43.09,2.87.15,4.3,0,.16.03.33.1.47s.22.23.87.89c11.71.01,23.96.01,36.47,0Z"/>
  <path class="cls-1" d="m1176,676.29c.02,21-4.53,37.87-14.56,53.15-9.38,14.3-22.13,24.58-37.71,31.52-11.14,4.96-22.89,7.34-34.95,7.36-22.56.05-42.82-6.96-59.82-22.03-16.02-14.21-25.5-32.1-28.49-53.37-2.05-14.63-1.16-29.05,3.57-43.06,7.07-20.97,20.12-37.18,39.5-48.12,15.46-8.73,32.17-12.58,49.79-11.27,33.38,2.47,58.34,18.24,73.65,48.31,6.42,12.62,9.07,26.19,9,37.51Zm-12.11,1.67c.18-5.76-.55-12.59-2.34-19.26-6.02-22.44-19.27-39.07-40.33-49.09-16.17-7.7-33.19-8.97-50.59-5.35-14.47,3.01-26.88,9.87-37.31,20.39-10.07,10.16-16.61,22.18-19.7,36.1-2.39,10.73-2.53,21.49-.87,32.38,4.14,27.15,24.03,50.9,51.11,59.34,10.65,3.32,21.53,4.46,32.68,3.15,26.21-3.07,45.71-16.15,58.51-39.14,6.45-11.58,9-24.18,8.86-38.52Z"/>
  <path class="cls-1" d="m1777.46,769.54c-15.48-.4-30.08-4-43.57-11.67-19.3-10.97-32.63-26.96-39.63-48-6.39-19.22-6.52-38.69-.49-57.97,7-22.36,21.04-39.21,41.79-50.23,20.06-10.66,41.44-13,63.34-7.99,24.97,5.71,43.91,20.12,56.39,42.59,6.29,11.32,9.59,23.6,10.39,36.56.88,14.38-.6,28.42-6.02,41.86-7.55,18.73-20.07,33.18-37.71,43.18-9.44,5.34-19.5,8.82-30.18,10.44-4.73.71-9.54.86-14.31,1.26Zm.56-166.35c-4.61.46-9.25.67-13.81,1.42-20.23,3.33-36.4,13.41-48.45,29.94-17.49,24-18.71,58.04-5,83.25,7.38,13.58,17.88,24.1,31.78,30.97,21.24,10.5,43.1,11.41,65.01,2.59,21.27-8.57,35.4-24.3,42.6-45.96,5.11-15.39,5.31-31.15,1.08-46.81-4.81-17.81-14.82-32.08-30.15-42.45-12.97-8.78-27.39-12.81-43.05-12.95Z"/>
  <path class="cls-1" d="m563.25,669.3c0,.22-.02.45-.03.67-.02-.2-.05-.41-.08-.61,0,0,.11-.07.11-.07Z"/>
  <path d="m291.89,441.4c.25-.15.5-.3.76-.42.04-.02.16.17.24.26-.36.02-.72.04-1.08.05,0,0,.08.11.08.11Z"/>
  <path class="cls-1" d="m1306.84,636.81c1.15-.1,2.1-.24,3.04-.25,7.83-.02,15.65,0,23.48-.01,3.42,0,6.69.74,9.69,2.32,4.45,2.36,7.34,6.12,8.72,10.93,1.34,4.72,1.25,9.52-.27,14.17-2.28,6.96-7.55,10.41-14.52,11.61-1.1.19-2.23.21-3.34.21-7.99.02-15.97.02-23.96,0-.94,0-1.87-.2-3-.33-.16-1.17-.41-2.25-.45-3.33-.47-14.64-.21-31.01.62-35.31Zm11.59,26.42c1.05.26,1.65.53,2.25.53,4.13.05,8.27.09,12.4.02,1.25-.02,2.57-.24,3.71-.71.98-.4,2.08-1.1,2.57-1.98,1.57-2.79,1.58-5.83.35-8.72-1.21-2.84-3.75-3.68-6.66-3.68-3.98.01-7.95-.03-11.93.03-.88.01-1.76.39-2.91.67,0,3.19-.02,6.2,0,9.2.01,1.42.12,2.83.2,4.62Z"/>
  <path class="cls-1" d="m834.72,633.9c.85-.12,1.61-.31,2.37-.31,6.07-.02,12.13-.07,18.2.04,2.06.04,4.13.41,6.16.8,7.93,1.55,13.62,7.94,14.31,16.4.21,2.53.21,5.12-.02,7.65-.71,7.79-5.73,13.83-13.24,15.81-2.6.68-5.33,1.04-8.02,1.13-5.42.17-10.85.07-16.28.04-1.08,0-2.16-.17-3.18-.26-.3-.66-.66-1.08-.67-1.5-.06-12.6-.08-25.2-.09-37.8,0-.6.27-1.19.46-1.98Zm12.25,29.14c3.99.4,8.05.69,12.1-.44,2.79-.78,4.37-2.59,4.66-5.38.2-1.88.19-3.81-.03-5.69-.34-2.81-2.05-4.63-4.82-5.24-4.04-.88-8.1-.85-12.1-.19-.88,4.64-.79,13.26.19,16.93Z"/>
  <path class="cls-1" d="m1088.72,721.03c-7.03-.02-13.13-1.06-18.78-4.01-8.38-4.37-13.76-11.37-16.65-20.18-3.86-11.72-3.88-23.62-.07-35.35,4.75-14.61,16.38-23.54,31.18-24.28,5.78-.29,11.46,0,17.02,1.94,9.89,3.44,16.32,10.35,20.2,19.82,3.02,7.37,3.84,15.15,3.48,23.04-.23,5.11-1.01,10.15-2.69,15.04-4.42,12.9-15.22,23.08-31.05,23.79-1.12.05-2.23.15-2.64.18Zm24.45-41.5c-.1-6.45-.7-12.47-3.58-18-3.55-6.82-9-10.98-16.77-12.01-3.36-.45-6.67-.44-10.01.05-7.27,1.08-12.84,4.65-16.16,11.31-1.13,2.27-2.02,4.68-2.72,7.12-1.56,5.45-1.52,11.07-1.01,16.63.45,4.94,1.72,9.73,4.45,14.01,2.76,4.33,6.43,7.39,11.43,8.9,4.36,1.32,8.74,1.65,13.23,1.11,8.67-1.04,14.7-5.57,18.24-13.57,2.25-5.09,2.73-10.45,2.89-15.54Z"/>
  <path class="cls-1" d="m1740.67,680.58c-.15-8.69,1.19-16.49,4.91-23.78,5.24-10.28,13.7-16.3,24.96-18.2,6.5-1.09,13.05-.85,19.46,1.11,10.73,3.27,17.78,10.4,21.78,20.66,3.01,7.71,3.77,15.76,3.19,24.01-.35,4.98-1.06,9.85-2.87,14.51-5.36,13.8-15.23,21.71-30.19,22.9-5.79.46-11.52.16-17.05-1.71-10.78-3.63-17.63-11.21-21.4-21.71-2.13-5.92-3.05-12.06-2.78-17.78Zm62.55-1.95c-.21-1.76-.38-5.29-1.12-8.7-.6-2.77-1.62-5.53-2.93-8.05-3.97-7.62-10.61-11.29-19.01-11.69-13.56-.65-21.42,4.73-25.19,15.42-3.39,9.62-3.34,19.48.06,29.11,2.8,7.94,8.33,13.12,16.83,14.62,3.29.58,6.63.69,10,.32,8.76-.94,14.7-5.54,18.33-13.43,2.32-5.05,2.89-10.41,3.04-17.6Z"/>
</svg>