<?xml version="1.0" encoding="utf-8"?>
<!-- Generator: Adobe Illustrator 24.2.3, SVG Export Plug-In . SVG Version: 6.00 Build 0)  -->
<svg version="1.1" id="Layer_1" xmlns="http://www.w3.org/2000/svg" xmlns:xlink="http://www.w3.org/1999/xlink" x="0px" y="0px"
	 viewBox="0 0 75.35 22.82" style="enable-background:new 0 0 75.35 22.82;" xml:space="preserve">
<style type="text/css">
	.st0{fill:#FFFFFF;}
</style>
<g>
	<g>
		<path class="st0" d="M43.05,17.13c-1.37,0-2.66,0-3.97,0c0-5.19,0-10.36,0-15.56c0.08-0.01,0.18-0.04,0.27-0.04
			c1.82,0,3.63-0.05,5.45,0.02c2.03,0.08,3.73,0.9,4.88,2.65c1.84,2.77,0.59,6.78-2.48,8.04c-0.99,0.4-2.01,0.57-3.07,0.59
			c-0.34,0.01-0.68,0-1.07,0C43.05,14.27,43.05,15.68,43.05,17.13z M43.06,9.5c0.72,0.03,1.41,0.05,2.06-0.25
			c0.84-0.39,1.35-1.04,1.39-1.98c0.03-0.85-0.32-1.55-1.06-2c-0.74-0.45-1.55-0.43-2.38-0.38C43.06,6.44,43.06,7.95,43.06,9.5z"/>
	</g>
	<g>
		<path class="st0" d="M1.44,12.38c0.77,0.41,1.49,0.83,2.24,1.17c0.89,0.41,1.82,0.62,2.81,0.53c0.71-0.07,1.27-0.5,1.38-1.07
			c0.12-0.59-0.15-1.17-0.82-1.48c-0.7-0.33-1.45-0.55-2.18-0.82C3.28,10.13,2.01,9.19,1.5,7.49C0.6,4.54,2.41,1.76,5.52,1.28
			c1.92-0.3,3.72,0.17,5.46,0.91c0.09,0.04,0.19,0.19,0.18,0.27c-0.15,1.1-0.32,2.21-0.47,3.24c-1.07-0.35-2.1-0.76-3.16-1.02
			C7,4.54,6.39,4.57,5.86,4.72C5.03,4.95,4.81,6.01,5.44,6.6c0.31,0.29,0.73,0.48,1.12,0.65C7.4,7.6,8.28,7.85,9.1,8.25
			c3.11,1.5,3.69,5.61,1.14,7.9c-0.95,0.85-2.1,1.22-3.34,1.3c-2.04,0.13-3.93-0.37-5.69-1.4c-0.21-0.12-0.29-0.23-0.24-0.5
			C1.13,14.51,1.27,13.45,1.44,12.38z"/>
	</g>
	<g>
		<path class="st0" d="M20.51,7.72c0-0.41,0-0.74,0-1.1c1.25,0,2.44,0,3.67,0c0.01,0.15,0.02,0.29,0.02,0.43
			c0,3.21-0.01,6.41,0.01,9.62c0,0.4-0.12,0.5-0.5,0.49c-0.97-0.02-1.95-0.01-2.96-0.01c0-0.37,0-0.69,0-1.03
			c-0.07,0.01-0.13,0-0.15,0.02c-1.4,1.59-3.76,1.61-5.39,0.66c-2.01-1.18-2.89-3.03-2.69-5.3c0.21-2.29,1.39-3.97,3.65-4.71
			c1.48-0.48,2.89-0.29,4.11,0.75C20.33,7.58,20.38,7.62,20.51,7.72z M18.3,14.24c1.27,0.01,2.26-0.96,2.27-2.2
			c0.01-1.32-0.96-2.33-2.24-2.33c-1.26-0.01-2.26,0.98-2.27,2.21C16.05,13.25,17.01,14.24,18.3,14.24z"/>
	</g>
	<g>
		<path class="st0" d="M58.52,7.68c0-0.36,0-0.69,0-1.06c1.24,0,2.43,0,3.66,0c0,3.49,0,6.98,0,10.5c-1.14,0-2.27,0-3.45,0
			c0-0.33,0-0.66,0-0.97c-0.52,0.34-0.98,0.73-1.51,0.96c-1.86,0.78-4.08,0.14-5.46-1.53c-2.11-2.54-1.52-6.5,1.25-8.28
			c1.67-1.07,3.99-1.04,5.36,0.3C58.39,7.63,58.44,7.64,58.52,7.68z M56.32,14.24c1.24,0.04,2.26-0.94,2.29-2.19
			c0.02-1.24-0.96-2.32-2.15-2.35c-1.28-0.04-2.32,0.9-2.35,2.12C54.07,13.23,54.96,14.2,56.32,14.24z"/>
	</g>
	<g>
		<path class="st0" d="M62.81,6.62c1.3,0,2.53-0.01,3.77,0.02c0.11,0,0.28,0.21,0.32,0.35c0.52,1.63,1.01,3.27,1.51,4.91
			c0.05,0.17,0.12,0.34,0.21,0.62c0.35-1.14,0.67-2.17,0.99-3.2c0.25-0.8,0.48-1.6,0.75-2.39c0.04-0.12,0.21-0.29,0.32-0.29
			c1.19-0.02,2.38-0.01,3.57-0.01c0.04,0,0.08,0.03,0.15,0.05c-0.08,0.22-0.15,0.43-0.23,0.63c-1.86,4.68-3.74,9.36-5.59,14.05
			c-0.13,0.34-0.31,0.43-0.65,0.43c-1.16-0.02-2.32-0.01-3.53-0.01c0.07-0.16,0.11-0.28,0.16-0.39c0.66-1.38,1.32-2.76,1.99-4.13
			c0.15-0.3,0.17-0.56,0.04-0.88c-1.22-3.1-2.42-6.2-3.62-9.3C62.92,6.95,62.88,6.82,62.81,6.62z"/>
	</g>
	<g>
		<path class="st0" d="M35.33,3.31c0,1.17,0,2.32,0,3.51c0.85,0,1.66,0,2.49,0c0,1.01,0,1.98,0,3c-0.81,0-1.61,0-2.43,0
			c0,1.11-0.03,2.15,0.01,3.2c0.03,0.67,0.57,1.05,1.33,1.01c0.36-0.02,0.73-0.11,1.14-0.17c0,0.97,0,1.95-0.01,2.92
			c0,0.07-0.12,0.19-0.21,0.22c-1.19,0.35-2.4,0.43-3.61,0.08c-1.5-0.43-2.33-1.5-2.47-3.02c-0.11-1.15-0.06-2.32-0.08-3.48
			c0-0.24,0-0.48,0-0.78c-0.41,0-0.8,0-1.2,0c0-1.01,0-1.97,0-2.96c0.39,0,0.75,0,1.19,0c0-0.52-0.01-1.01,0.01-1.5
			c0.01-0.13,0.09-0.32,0.19-0.36c1.16-0.56,2.33-1.1,3.5-1.64C35.19,3.31,35.24,3.32,35.33,3.31z"/>
	</g>
	<g>
		<path class="st0" d="M29.3,17.15c-1.21,0-2.39,0.01-3.56-0.01c-0.09,0-0.19-0.16-0.27-0.27c-0.03-0.04-0.01-0.11-0.01-0.17
			c0-4.95,0-9.9,0-14.85c0-0.11,0.01-0.22,0.02-0.39C26.74,1.32,28,1.18,29.3,1.04C29.3,6.4,29.3,11.75,29.3,17.15z"/>
	</g>
</g>
</svg>
