<?xml version="1.0" encoding="utf-8"?>
<!-- Generator: Adobe Illustrator 23.1.0, SVG Export Plug-In . SVG Version: 6.00 Build 0)  -->
<svg version="1.1" id="Layer_1" xmlns="http://www.w3.org/2000/svg" xmlns:xlink="http://www.w3.org/1999/xlink" x="0px" y="0px"
	 viewBox="0 0 1857.3 406.6" style="enable-background:new 0 0 1857.3 406.6;" xml:space="preserve">
<style type="text/css">
	.st0{fill:#FFFFFF;}
</style>
<g>
	<path class="st0" d="M1808.1,115.4C1777,79.1,1730.6,60,1674,60c-56.7,0-103.1,19.2-134.1,55.5c-25.5,29.8-40.2,71.4-40.2,114.1
		s14.6,84.2,40.2,114.1c31.1,36.3,77.4,55.5,134.1,55.5c56.7,0,103.1-19.2,134.1-55.5c25.5-29.8,40.2-71.4,40.2-114.1
		S1833.6,145.3,1808.1,115.4z M1783.6,229.5c0,51.1-28.7,110.8-109.6,110.8c-50.6,0-109.6-29-109.6-110.8
		c0-51.1,28.7-110.8,109.6-110.8C1724.5,118.7,1783.6,147.7,1783.6,229.5z"/>
	<polygon class="st0" points="1403.4,67.3 1403.4,292.5 1221.4,67.3 1154.6,67.3 1154.6,391 1219.2,391 1219.2,165.7 1401.2,391 
		1468.1,391 1468.1,67.3 	"/>
	<path class="st0" d="M971.3,207.8v58.7h89.3c-4.3,21.9-15.9,40.3-33.7,53.3c-18.3,13.4-42.4,20.5-69.6,20.5
		c-100.1,0-111-76.6-111-109.6c0-51.7,28.5-112.1,108.8-112.1c49.7,0,81.2,17.4,94.9,54.5l61.9-21.5C1090,91.2,1034.4,60,953,60
		c-43.9,0-84.7,13.8-114.9,39c-37,30.8-56.5,77.7-56.5,135.7c0,81.8,53.4,164.4,172.6,164.4c51.3,0,94-15.5,123.6-44.8
		c29.6-29.3,45.2-71.8,45.2-122.8v-23.7L971.3,207.8L971.3,207.8z"/>
	<path class="st0" d="M201.1,201.5l-83.4-12.3c-29.2-5-44-15.2-44-30.4c0-31.7,41.4-40.1,63.2-40.1c53.1,0,88.9,17.5,96.2,49.6
		l61.6-18.1c-12-56.2-70.9-90.2-151.9-90.2c-39.9,0-73.5,9.5-97.2,27.4c-24,18.1-36.7,44-36.7,74.8c0,72.7,75.5,85.1,100.3,89.2
		l81.8,11.6c35.6,6.1,50.8,16.7,50.8,35.5c0,30.8-37.4,41.8-72.5,41.8c-42.6,0-96.8-10.3-107-61.1L0.7,297.3
		C14.9,361.5,77.4,399,166,399c88,0,140.6-40.9,140.6-109.5C306.5,242.1,270.1,211.6,201.1,201.5z"/>
	<g>
		<polygon class="st0" points="592.3,134.9 560.3,198.9 752.2,198.9 752.2,134.9 		"/>
		<polygon class="st0" points="656.3,6.9 624.3,70.9 752.2,70.9 752.2,6.9 		"/>
		<polygon class="st0" points="528.3,262.9 496.3,326.9 752.2,326.9 752.2,262.9 		"/>
		<polygon class="st0" points="624.3,70.9 336.3,70.9 336.3,390.9 464.3,390.9 496.3,326.9 400.3,326.9 400.3,262.9 528.3,262.9 
			560.3,198.9 400.3,198.9 400.3,134.9 592.3,134.9 		"/>
	</g>
</g>
</svg>
