<svg id="Layer_1" data-name="Layer 1" xmlns="http://www.w3.org/2000/svg" viewBox="0 0 605.36 128.51"><defs><style>.cls-1{fill:#fff;}</style></defs><path class="cls-1" d="M109.92,73.42V23.33c0-.5,0-1,0-1.51s.15-.62.65-.65,1.21,0,1.81-.05L125.84,21l20.09-.14q4.45,0,8.91,0c9.86,0,19.73,0,29.59,0,5.94,0,11.88.11,17.82.17.5,0,1,.05,1.5.1.06,0,.16.15.14.21a3.4,3.4,0,0,1-.24.7c-.89,1.8-1.77,3.61-2.67,5.41l-6.54,13.08a11.82,11.82,0,0,0-.48,1.1c0,.06.06.19.13.24a.56.56,0,0,0,.29.06h49.53c.5,0,1,0,1.51,0a.45.45,0,0,1,.41.37,5.59,5.59,0,0,1,.08.59c.07,1.31.19,2.61.2,3.92,0,4.47,0,9,0,13.43,0,.65-.07,1.3-.13,2a.53.53,0,0,1-.5.47c-.4,0-.8,0-1.21,0-4.42,0-8.85.12-13.28.14q-14.43.07-28.84.08c-5.69,0-11.38-.12-17.06-.18-.46,0-.91,0-1.36-.06a.3.3,0,0,1-.22-.44l.59-1.23,7.23-14.42c.61-1.22,1.22-2.43,1.82-3.64a3.24,3.24,0,0,0,.27-.71c0-.06,0-.19-.11-.24a.56.56,0,0,0-.29-.06l-1.51,0H133.1c-2.43,0-2.19-.36-2.19,2.15,0,5.58,0,11.16,0,16.75,0,.5,0,1,0,1.5a.53.53,0,0,0,.39.4c.2,0,.4.06.6.07.76,0,1.51.07,2.26.07h47.87a3.67,3.67,0,0,1,.74.11c.06,0,.14.15.14.22a1,1,0,0,1-.13.42c-.39.82-.79,1.63-1.2,2.44l-8.07,16.19c-.2.41-.38.82-.54,1.24,0,.06.06.19.12.24a.56.56,0,0,0,.29.06h70.52c.56,0,1.11,0,1.66,0a.45.45,0,0,1,.4.38c0,.3.05.6.05.9v18.26c0,.2,0,.4,0,.6,0,.61-.2.79-.83.81H164.12c-.5,0-1,0-1.5-.09a.29.29,0,0,1-.13-.24,2.29,2.29,0,0,1,.18-.56l2.09-4.18,7.1-14.16c.2-.4.37-.82.54-1.24a.34.34,0,0,0-.27-.44c-.56,0-1.11-.06-1.66-.06q-9.66,0-19.33-.06c-5,0-10.07,0-15.1.09-1.21,0-2.42,0-3.62.1a7,7,0,0,0-1.2.15.46.46,0,0,0-.29.3,12.2,12.2,0,0,0-.06,1.35q0,6.7,0,13.43v4.07c0,.3,0,.6,0,.91s.21.6.67.62h11.33l17.67,0c.4,0,.8,0,1.2.05.11,0,.26.25.21.35-.16.37-.31.74-.49,1.1q-3.15,6.34-6.32,12.69l-2.63,5.26c-.16.31-.32.62-.49.93a.78.78,0,0,1-.72.46H111.75c-.46,0-.91,0-1.36,0a.47.47,0,0,1-.42-.37c0-.14,0-.29,0-.44,0-.51,0-1,0-1.51Z"/><path class="cls-1" d="M399.32,52.91a18.62,18.62,0,0,0-.19,2.44c0,.8,0,1.61,0,2.41q0,32.9,0,65.79c0,.6,0,1.2,0,1.8a.48.48,0,0,1-.4.39l-.76,0H378.71c-.51,0-.63-.28-.65-.65s0-.81,0-1.21V21.76c0-.36,0-.71,0-1.06,0-.68.07-.86.9-.87,2,0,4,0,6,0l11.93,0h1.51a2.73,2.73,0,0,1,2.33,1.16l.48.58L424.29,50l33.3,41.19a7.69,7.69,0,0,0,1.52,1.65c.05,0,.2,0,.24-.09a.54.54,0,0,0,.06-.29c0-.5,0-1,0-1.51V22c0-.55,0-1.1,0-1.66a.46.46,0,0,1,.48-.45l.91,0h18.27c1.47,0,1.43-.07,1.43,1.37v102.3c0,.6,0,1.2,0,1.81a.46.46,0,0,1-.49.45l-1,0h-19a2.4,2.4,0,0,1-1.75-.75,11.18,11.18,0,0,1-.79-.91l-8.91-11q-15.56-19.25-31.12-38.5l-16-19.83c-.51-.62-1-1.22-1.59-1.81C399.67,52.91,399.49,52.94,399.32,52.91Z"/><path class="cls-1" d="M344.45,65.75l19.75.06,2,0c.3,0,.6,0,.9.09a.54.54,0,0,1,.5.47,6.32,6.32,0,0,1,.06.76c0,3.21,0,6.43-.11,9.65a65.56,65.56,0,0,1-2.05,14.61,49.78,49.78,0,0,1-7.64,16.46,45.6,45.6,0,0,1-19.28,15.5,59.78,59.78,0,0,1-11.78,3.66,62.54,62.54,0,0,1-7.31,1.08,66.3,66.3,0,0,1-10.26.23c-.75-.06-1.51-.08-2.26-.13a61.52,61.52,0,0,1-18.66-3.94,54.21,54.21,0,0,1-10.54-5.51,47,47,0,0,1-15.85-18.06,57,57,0,0,1-5.36-16.43,60,60,0,0,1-.74-10.37c0-2.46.13-4.92.38-7.37a59.87,59.87,0,0,1,5.75-20.67,47.89,47.89,0,0,1,20.77-21.41,59.17,59.17,0,0,1,15.67-5.72,65.81,65.81,0,0,1,7-1.05,79.75,79.75,0,0,1,12.07-.18,72.82,72.82,0,0,1,15.32,2.37,51.52,51.52,0,0,1,14.61,6.35,41,41,0,0,1,15.53,18.41c.3.69.55,1.4.8,2.11s.12.72-.42.91l-5.55,1.94-13,4.49q-.28.11-.57.18a.51.51,0,0,1-.53-.19c-.1-.18-.21-.35-.3-.53-.19-.41-.36-.83-.55-1.24a24.41,24.41,0,0,0-14.2-13.17,41.19,41.19,0,0,0-5.07-1.45,43,43,0,0,0-4.91-.83,46.28,46.28,0,0,0-9-.2,50.75,50.75,0,0,0-8,1.32,33,33,0,0,0-8.49,3.46,29.72,29.72,0,0,0-11.49,12.29,43.24,43.24,0,0,0-3.69,10.34,42.35,42.35,0,0,0-.86,13,43.94,43.94,0,0,0,3.39,13.71,27.9,27.9,0,0,0,17.33,15.94,51.23,51.23,0,0,0,7.75,1.89,46.51,46.51,0,0,0,11,.51,41.39,41.39,0,0,0,9.9-1.91,36.64,36.64,0,0,0,6.65-2.81,27.52,27.52,0,0,0,13.54-17.17c.16-.58.3-1.17.44-1.76a.35.35,0,0,0-.28-.43l-1.51,0H320l-1.51,0a.48.48,0,0,1-.47-.48c0-.21,0-.41,0-.61q0-8.44,0-16.9c0-.2,0-.4,0-.6a.45.45,0,0,1,.4-.37q.45,0,.9-.06c3.37-.07,6.74-.17,10.12-.21C333.85,65.77,338.22,65.77,344.45,65.75Z"/><path class="cls-1" d="M54.17,128.51c-3.31-.08-6.22-.21-9.13-.5q-3.61-.34-7.17-1a59.34,59.34,0,0,1-17.24-5.74,44.62,44.62,0,0,1-11.14-8.2,36.76,36.76,0,0,1-9.38-17,3.83,3.83,0,0,1-.1-.59.41.41,0,0,1,.25-.49c.23-.09.47-.19.71-.26l18.37-5.38a.75.75,0,0,1,.29-.06.86.86,0,0,1,.39.17.94.94,0,0,1,.2.4c.12.38.23.77.34,1.15a20.85,20.85,0,0,0,8.2,11.59,30.55,30.55,0,0,0,8.22,4,44.67,44.67,0,0,0,7,1.64q3.36.54,6.75.76a51.71,51.71,0,0,0,8.44-.08c1.2-.12,2.41-.22,3.6-.41A30.92,30.92,0,0,0,71,106.26a17.43,17.43,0,0,0,3.61-2.18,11.67,11.67,0,0,0,2.63-2.89,9.7,9.7,0,0,0,1.58-5.12,10.88,10.88,0,0,0-.24-2.84,7.94,7.94,0,0,0-1.81-3.44,10.68,10.68,0,0,0-1.93-1.68,19.62,19.62,0,0,0-7.18-3c-3.49-.75-7-1.4-10.53-1.9-2.69-.38-5.38-.79-8.06-1.19L42,80.94c-2.94-.44-5.87-.88-8.8-1.3a49.3,49.3,0,0,1-13.72-4,36,36,0,0,1-7-4.13,26.43,26.43,0,0,1-4.79-4.78A23.41,23.41,0,0,1,3,55.78a33.42,33.42,0,0,1,.95-14.34,28,28,0,0,1,9.42-14.07,40.1,40.1,0,0,1,12.47-6.89,51.85,51.85,0,0,1,8.78-2.15,81.11,81.11,0,0,1,14.44-.92c2.16,0,4.32.15,6.47.4A69.84,69.84,0,0,1,73.22,22a43.35,43.35,0,0,1,12.62,7.57,31.71,31.71,0,0,1,8.84,12.23,32.38,32.38,0,0,1,1.26,3.87,8.68,8.68,0,0,1,.14.89.46.46,0,0,1-.29.47l-1,.32L89.15,49l-12.3,3.6a1.63,1.63,0,0,1-.44.08.37.37,0,0,1-.26-.12,1.14,1.14,0,0,1-.23-.38q-.19-.5-.36-1a16.44,16.44,0,0,0-5.07-7.37,25.1,25.1,0,0,0-6.71-4,39.58,39.58,0,0,0-7.07-2.09,49.94,49.94,0,0,0-6-.88A54.79,54.79,0,0,0,44,36.67c-.91,0-1.82.06-2.72.13a25.82,25.82,0,0,0-10.65,3,21.12,21.12,0,0,0-3.13,2.1,9.56,9.56,0,0,0-3.57,8.68,6.42,6.42,0,0,0,1.73,3.78,11.55,11.55,0,0,0,3.09,2.38,22.93,22.93,0,0,0,4,1.67,37.89,37.89,0,0,0,5.58,1.27c3.23.51,6.46,1,9.69,1.46s6.17.89,9.26,1.33l7.91,1.17A76.54,76.54,0,0,1,79.11,67a44.53,44.53,0,0,1,8.45,4,30.76,30.76,0,0,1,5.15,3.93,23.27,23.27,0,0,1,6.8,12,20.83,20.83,0,0,1,.48,3.43,41,41,0,0,1-.37,8.58,30.87,30.87,0,0,1-13.07,21.06,40.25,40.25,0,0,1-10.49,5.24,56.59,56.59,0,0,1-8.91,2.21,72.13,72.13,0,0,1-8.54.92Z"/><path class="cls-1" d="M548.25,128.47c-2.71-.07-5.42-.18-8.13-.46-2.2-.23-4.39-.55-6.56-1a53.25,53.25,0,0,1-23.3-10.78,47.81,47.81,0,0,1-11.58-13.78,59.19,59.19,0,0,1-6.39-17A54.93,54.93,0,0,1,491,74.84a69,69,0,0,1,.34-8.13,61.08,61.08,0,0,1,1.88-10.22,55.85,55.85,0,0,1,7.65-16.63,47.76,47.76,0,0,1,20-16.92,58.88,58.88,0,0,1,12-4,65.92,65.92,0,0,1,6.84-1.14,80,80,0,0,1,9.79-.39c2.22,0,4.43.16,6.63.38a57.68,57.68,0,0,1,24.33,7.87,47.23,47.23,0,0,1,17.66,18.76A64.28,64.28,0,0,1,604.32,62a57.55,57.55,0,0,1,1,12.15,59.09,59.09,0,0,1-3.82,19.58,61.41,61.41,0,0,1-3.64,8.11,47.39,47.39,0,0,1-22.38,21,60.17,60.17,0,0,1-11.55,3.9,56.8,56.8,0,0,1-6.07,1.11c-1.45.19-2.9.38-4.36.43C551.77,128.33,550,128.54,548.25,128.47Zm-1.54-91.9c-1.5.16-3.26.22-5,.47a42.07,42.07,0,0,0-7.05,1.58,30.08,30.08,0,0,0-16.17,12.22,38.51,38.51,0,0,0-5.92,15.82c-.25,1.64-.36,3.3-.49,5a10.94,10.94,0,0,0,0,1.81c.13,1.6.31,3.2.46,4.8A38.13,38.13,0,0,0,515,88.75a29.74,29.74,0,0,0,9.12,12.54,34.19,34.19,0,0,0,7,4.32,39.23,39.23,0,0,0,13.8,3.54,43.65,43.65,0,0,0,10.08-.45,41.47,41.47,0,0,0,6.88-1.63,29.88,29.88,0,0,0,16.89-13.81,40.42,40.42,0,0,0,5.27-19,45.86,45.86,0,0,0-.51-8.11,40.36,40.36,0,0,0-2.15-8.61,29.61,29.61,0,0,0-10.71-14.07,38.08,38.08,0,0,0-16.1-6.42c-1.19-.2-2.4-.27-3.6-.39A33.34,33.34,0,0,0,546.71,36.57Z"/><path class="cls-1" d="M225.18,20.85H206a12.22,12.22,0,0,1-1.34-.09s-.14-.15-.13-.23a1.33,1.33,0,0,1,.13-.43c.28-.59.56-1.18.85-1.76L213.65,2c.18-.36.36-.72.57-1.06A2,2,0,0,1,215.71,0a6.77,6.77,0,0,1,.9,0l27.77,0c.4,0,.8,0,1.2,0a.49.49,0,0,1,.41.38,3.44,3.44,0,0,1,0,.45c0,.3,0,.61,0,.91V19.13c0,1.87.11,1.71-1.71,1.72Z"/></svg>