<?xml version="1.0" encoding="utf-8"?>
<!-- Generator: Adobe Illustrator 23.1.0, SVG Export Plug-In . SVG Version: 6.00 Build 0)  -->
<svg version="1.1" id="Layer_1" xmlns="http://www.w3.org/2000/svg" xmlns:xlink="http://www.w3.org/1999/xlink" x="0px" y="0px"
	 viewBox="0 0 122.1 35.8" style="enable-background:new 0 0 122.1 35.8;" xml:space="preserve">
<style type="text/css">
	.st0{fill:#FFFFFF;}
</style>
<g id="d1WysA_1_">
	<g>
		<path class="st0" d="M18.4,35.4c-9.6,0-17.5-7.9-17.5-17.5C0.9,8.1,9,0.1,19,0.4c9.2,0.3,16.9,7.9,16.9,17.5
			C35.8,27.6,28,35.4,18.4,35.4z M18.4,34.6c9.2,0,16.7-7.5,16.7-16.7c0-9.2-7.5-16.7-16.7-16.8C9.2,1.1,1.7,8.6,1.7,17.9
			C1.7,27.1,9.2,34.6,18.4,34.6z"/>
		<path class="st0" d="M100.2,9.9c0,1.1-0.1,1.2-1.1,1.2c-2.1,0-4.3,0-6.4,0c-0.5,0-0.6,0.1-0.6,0.6c0,1.5,0,3,0,4.6
			c0.3,0,0.5,0,0.7,0c1.8,0,3.7,0,5.5,0c0.5,0,0.6,0.2,0.6,0.6c0,0.5-0.1,0.6-0.6,0.6c-1.9,0-3.8,0-5.6,0c-0.3,0-0.6,0-0.6,0.5
			c0,1.6,0,3.2,0,4.8c0,0.1,0,0.2,0.1,0.3c1.4,0,2.7,0,4.1,0c1.3,0,2.7,0,4.1,0c0,0.4,0,0.7,0,1.2c-3.2,0-6.4,0-9.6,0
			c0-0.2,0-0.4,0-0.6c0-4.4,0-8.8,0-13.2c0-0.6,0.2-0.7,0.7-0.7c2.7,0,5.5,0,8.2,0C99.9,9.9,100.1,9.9,100.2,9.9z"/>
		<path class="st0" d="M53.1,11.7c-0.4-0.1-0.9-0.3-1.3-0.4c-1.2-0.3-2.4-0.5-3.6-0.3c-1.3,0.2-2.1,0.9-2.2,2
			c-0.2,1.1,0.3,2,1.6,2.6c1.1,0.5,2.3,0.9,3.5,1.4c0.5,0.2,1.1,0.4,1.6,0.7c2.3,1.4,2.4,4.6,0,6.1c-1.2,0.7-2.4,0.9-3.8,0.9
			c-1.4,0-3.2-0.5-4.5-1.1c0-0.1,0-0.3,0.1-0.4c0.3-0.8,0.3-0.8,1.1-0.5c1.7,0.6,3.4,1,5.2,0.5c0.5-0.1,1-0.4,1.5-0.7
			c1.2-0.9,1.2-2.6-0.1-3.5c-0.7-0.5-1.4-0.8-2.2-1.1c-1.1-0.5-2.3-0.8-3.4-1.4c-1.6-0.8-2.2-2.4-1.8-4.2c0.4-1.4,1.7-2.4,3.5-2.6
			c1.7-0.2,3.4,0.2,5,0.8c0.1,0,0.2,0.3,0.3,0.5c0,0.1-0.1,0.3-0.1,0.4C53.3,11.4,53.2,11.6,53.1,11.7z"/>
		<path class="st0" d="M75,20.6c0.1,1.8,1.5,2.9,3.3,2.8c0.7,0,1.4-0.2,2.1-0.4c0.5-0.1,0.5,0.1,0.6,0.5c0.1,0.3,0.2,0.6-0.3,0.7
			c-0.9,0.1-1.9,0.4-2.8,0.4c-2.1,0-3.7-1.2-4.2-3.3c-0.4-1.6-0.4-3.1,0.2-4.6c1.1-2.5,4.5-3.5,6.8-1.9c1,0.7,1.3,1.7,1.1,2.8
			c-0.1,1.1-0.8,1.8-1.8,2c-1.5,0.4-3.1,0.6-4.7,0.9C75.2,20.5,75.1,20.5,75,20.6z M74.9,19.4c0.5-0.1,1-0.2,1.5-0.2
			c1-0.2,2-0.3,2.9-0.5c0.6-0.1,1.2-0.5,1.3-1.3c0.1-0.7-0.3-1.4-0.9-1.7c-0.2-0.1-0.3-0.2-0.5-0.2C76.6,14.8,74.5,16.6,74.9,19.4z"
			/>
		<path class="st0" d="M64.5,20.5c0,1.6,1.4,2.9,3.1,2.9c0.7,0,1.4-0.1,2-0.3c0.6-0.2,0.8-0.1,0.9,0.5c0,0.1,0.1,0.3,0.1,0.5
			c-1.8,0.6-3.6,0.9-5.4,0c-0.9-0.5-1.5-1.2-1.9-2.2c-0.6-1.7-0.7-3.4,0-5.1c1-2.5,4.5-3.6,6.8-2c1,0.7,1.3,1.7,1.1,2.9
			c-0.1,1.1-0.9,1.7-1.8,1.9c-1.5,0.4-3.1,0.6-4.7,0.9C64.8,20.5,64.7,20.5,64.5,20.5z M64.4,19.4c0.3,0,0.5-0.1,0.8-0.1
			c1.2-0.2,2.4-0.4,3.6-0.6c0.6-0.1,1.2-0.5,1.3-1.2c0.1-0.8-0.2-1.4-0.9-1.8c-0.2-0.1-0.3-0.2-0.5-0.2
			C65.8,14.8,64.2,16.7,64.4,19.4z"/>
		<path class="st0" d="M114.3,20.5c0,1.6,1.4,2.9,3.1,2.8c0.7,0,1.4-0.1,2-0.3c0.6-0.2,0.8-0.1,0.9,0.5c0,0.1,0.1,0.3,0.1,0.5
			c-1.7,0.6-3.4,0.9-5.2,0.1c-1-0.5-1.7-1.3-2.1-2.3c-0.6-1.6-0.6-3.2,0-4.9c0.9-2.7,4.3-3.8,6.7-2.3c1,0.6,1.4,1.6,1.3,2.7
			c-0.1,1.2-0.8,1.9-1.9,2.1c-1.5,0.4-3.1,0.6-4.6,0.9C114.5,20.5,114.4,20.5,114.3,20.5z M114.2,19.4c0.5-0.1,1-0.2,1.5-0.2
			c1-0.2,2-0.3,2.9-0.5c0.6-0.1,1.2-0.5,1.2-1.3c0.1-0.7-0.3-1.4-0.9-1.7c-0.2-0.1-0.3-0.1-0.5-0.2
			C115.9,14.8,113.7,16.7,114.2,19.4z"/>
		<path class="st0" d="M103.8,28.8c0.4-0.9,0.8-1.9,1.2-2.7c0.7-1.4,0.6-2.7,0-4.1c-1-2.3-2.1-4.7-3.1-7c-0.1-0.2-0.2-0.4-0.2-0.6
			c1.1-0.3,1.3-0.2,1.7,0.7c0.9,2,1.8,4,2.6,6c0.2,0.4,0.3,0.9,0.5,1.5c0.1-0.3,0.2-0.4,0.3-0.5c1.1-2.5,2.1-4.9,3.2-7.4
			c0.3-0.7,0.9-0.2,1.5-0.4c-0.1,0.3-0.2,0.5-0.3,0.7c-1.9,4.4-3.8,8.7-5.7,13.1C105.1,29,104.9,29,103.8,28.8z"/>
		<path class="st0" d="M60.9,24.3c-1.8,1-3.6-0.1-3.7-2.1c0-2,0-4,0-5.9c0-0.2,0-0.4,0-0.6c-0.4-0.3-1.3,0.2-1.2-0.8
			c0-0.4,0-0.4,1.2-0.6c0-0.6,0.1-1.2,0-1.9c-0.1-0.6,0.2-0.9,0.8-1c0.2,0,0.3-0.1,0.5-0.1c0,1,0,2,0,3.1c0.6,0,1.2,0,1.8,0
			c0.4,0,0.8-0.1,0.8,0.6c0,0.6-0.3,0.6-0.8,0.6c-0.6,0-1.2,0-1.8,0c0,1.4,0,2.7,0,4c0,0.9,0,1.7,0,2.6c0,1,0.5,1.4,1.5,1.3
			C60.7,23.2,60.5,23.9,60.9,24.3z"/>
		<path class="st0" d="M87.9,24.5c-1.5,0.6-2.7-0.2-2.7-1.6c0-4.3,0-8.7,0-13c0-0.1,0-0.1,0-0.2c0.4,0,0.8,0,1.3,0
			c0,0.2,0,0.5,0,0.7c0,4,0,7.9,0,11.9c0,0.6-0.1,1.3,0.8,1.3C87.5,23.5,87.6,24.1,87.9,24.5z"/>
		<path class="st0" d="M8.9,15c0.2-0.9,0.2-1.9,0.5-2.8c1-3.7,3.1-6.5,6.8-7.8c2.5-0.8,4.9-0.5,7.3,0.4c5.6,2.2,9.3,7.8,8.9,13.9
			c-0.3,5.1-2.8,9-7.3,11.5c-0.1,0.1-0.3,0.1-0.4,0.2c0,0-0.1,0-0.1,0c5.7-4,6.2-12.7,1.6-17.3C21.7,8.6,13.1,8.6,8.9,15z"/>
		<path class="st0" d="M12.1,5.4c-3.2,2.6-4.7,5.9-4.6,10c0.1,3,1.2,5.5,3.4,7.5c4.6,4.4,13,4.1,17-2.2c0.1,0,0.1,0,0.2,0
			c-0.2,1.1-0.3,2.2-0.6,3.2c-1.1,3.6-3.2,6.4-7,7.5c-2.6,0.8-5.1,0.4-7.5-0.7c-5.5-2.4-8.9-8-8.4-14c0.4-5,2.9-8.7,7.3-11.2
			C11.8,5.5,12,5.5,12.1,5.4z"/>
		<path class="st0" d="M14.4,18c0-2.2,1.7-3.9,3.9-4c2.2,0,4,1.7,4,3.9c0,2.2-1.8,4-4,4C16.2,21.9,14.5,20.1,14.4,18z"/>
	</g>
</g>
</svg>
