<?xml version="1.0" encoding="utf-8"?>
<!-- Generator: Adobe Illustrator 23.1.0, SVG Export Plug-In . SVG Version: 6.00 Build 0)  -->
<svg version="1.1" id="Layer_1" xmlns="http://www.w3.org/2000/svg" xmlns:xlink="http://www.w3.org/1999/xlink" x="0px" y="0px"
	 viewBox="0 0 215.1 38.2" style="enable-background:new 0 0 215.1 38.2;" xml:space="preserve">
<style type="text/css">
	.st0{fill:#FFFFFF;}
</style>
<g>
	<path class="st0" d="M64.8,35.8c-0.2-0.2-1.1-0.6-2-1.4c0,0,0,0-0.1,0c-1.2,0.8-2.5,1.7-3.7,2.5c-0.2,0.1-0.5,0.2-0.7,0.3v-0.5
		c0-10.6,0-21.2,0-31.8c0-0.3,0-0.6-0.1-0.9c-0.1-0.6-0.6-1-1.4-1.1c-0.3,0-0.5-0.1-0.7-0.1c-0.2,0-0.5,0-0.7-0.1V2.2
		c0.5-0.1,1.1-0.1,1.6-0.2c2.5-0.3,5-0.6,7.6-0.8c0.2,0,0.4-0.1,0.6-0.1c0,0,0,0,0,0c0,0,0,0,0,0h1.4c0,0.1-0.1,0.3-0.1,0.4
		c0,1.1,0,2.2,0,3.3c0,1.3,0,2.6-0.1,4c0,1.3-0.1,2.6-0.1,3.9c0,1,0,1.9,0,2.9c0.1-0.1,0.3-0.2,0.3-0.3c0.8-1.1,1.8-2,2.9-2.6
		c1.5-0.7,3-1,4.6-0.8c1.1,0.1,2.2,0.4,3.2,0.9c1.4,0.7,2.5,1.8,3.4,3.1c1,1.6,1.6,3.3,2,5.1c0.2,1.4,0.4,2.8,0.3,4.2
		c-0.1,2-0.5,3.9-1.4,5.7c-1,2-2.4,3.5-4.3,4.7c-0.6,0.4-1.2,0.7-1.9,0.9c-0.2,0.1-1.3,0.5-2.7,0.7C69.8,37.6,66,37,64.8,35.8
		 M66.4,24c0,2.3,0,4.7,0,7c0,1,0.1,1.9,0.3,2.8c0.3,0.9,0.6,1.7,1.4,2.2c1.1,0.8,2.4,0.8,3.4,0c1.1-0.9,1.6-2.2,1.9-3.5
		c0.3-1,0.4-2,0.6-3c0.1-0.6,0.1-1.2,0.2-1.8c0-0.5,0.1-1,0.1-1.5c0-1.3,0-2.7-0.1-4c0-0.7-0.2-1.3-0.3-2c-0.3-1.6-0.8-3.1-1.9-4.3
		c-0.7-0.8-1.6-1.2-2.6-1.2c-0.9,0-1.8,0.3-2.6,0.8c-0.3,0.2-0.5,0.4-0.5,0.8C66.4,18.9,66.4,21.5,66.4,24"/>
	<path class="st0" d="M153,37.2c-0.6-0.1-1.7-0.4-2.8-1.2c-1.2-1-1.9-2.3-2.2-3.8c-0.1-0.8-0.2-1.5-0.2-2.3c0-4.7,0-9.5,0-14.2
		c0-1.5-0.3-1.8-1.8-2.1c-0.4-0.1-0.7-0.1-1.1-0.1V13c3.7-0.4,7.3-0.9,11.1-1.2v0.5c0,6,0,12,0,18c0,0.5,0,0.9,0.1,1.4
		c0.3,1.2,1.1,1.9,2.4,1.9c1.6,0,3-0.6,4.3-1.5c0.4-0.3,0.5-0.6,0.5-1.1c0-5,0-10.1,0-15.1c0-0.3,0-0.5,0-0.8c0-0.7-0.3-1.1-1-1.3
		c-0.8-0.2-1.6-0.2-2.4-0.3c-0.1,0-0.2,0-0.4,0V13c4-0.4,8-0.8,12-1.2v0.5c0,7.1,0,14.1,0,21.2c0,0.3,0,0.5,0,0.8c0,0.6,0.4,1,1,1.1
		c0.6,0.1,1.2,0.2,1.8,0.3c0.1,0.4,0.1,0.5-0.3,0.5c-2.4,0.3-4.8,0.6-7.2,0.8c-0.2,0-0.8,0.1-1.7,0.2c-0.6,0.1-1,0.1-1.3,0.1
		c-0.1-1.7-0.1-3.4-0.2-5.2c-0.2,0.1-0.3,0.2-0.4,0.3c-0.6,0.6-1.1,1.3-1.7,1.9c-1.3,1.3-3.6,2.6-5.5,3
		C154.5,37.4,153.3,37.2,153,37.2"/>
	<path class="st0" d="M33.9,37.2c-0.7-0.1-2.2-0.5-3.5-1.9c-0.8-1-1.3-2.1-1.5-3.4c-0.1-0.6-0.2-1.3-0.2-1.9c0-4.7,0-9.4,0-14.1
		c0-0.3,0-0.6,0-1c-0.1-0.6-0.3-1-1-1.2c-0.6-0.1-1.1-0.2-1.7-0.3c-0.1,0-0.1,0-0.2,0V13c3.7-0.4,7.3-0.9,11.1-1.2v0.5
		c0,6.1,0,12.1,0,18.2c0,0.7,0.1,1.4,0.5,2.1c0.5,0.7,1.2,1.1,2,1.1c1.8,0.1,3.4-0.7,4.7-1.9c0.1-0.1,0.1-0.3,0.1-0.4c0-5,0-10,0-15
		c0-0.5,0-1-0.1-1.5c-0.1-0.6-0.5-1-1.3-1.1c-0.8-0.1-1.6-0.2-2.5-0.3V13c0.5-0.1,1.1-0.1,1.6-0.2c1-0.1,1.9-0.2,2.9-0.3
		c0.7-0.1,1.4-0.1,2.2-0.2c1-0.1,1.9-0.2,2.9-0.3c0.8-0.1,1.6-0.1,2.5-0.2v0.5c0,7,0,14,0,20.9c0,0.4,0,0.7,0.1,1.1
		c0,0.6,0.4,0.9,0.9,1c0.6,0.1,1.2,0.2,1.9,0.3c0.1,0.5,0,0.5-0.4,0.5c-1.2,0.1-2.5,0.3-3.7,0.4c-0.8,0.1-1.7,0.2-2.5,0.3
		c-1,0.1-1.5,0.2-2.5,0.3c-0.6,0.1-1.2,0.1-1.5,0.1c-0.1-1.7-0.1-3.4-0.2-5.2c-0.3,0.4-0.9,0.9-1.5,1.5c-1.6,1.5-3.4,3.1-6,3.6
		C35.4,37.5,34.2,37.2,33.9,37.2"/>
	<path class="st0" d="M1.2,10.3c0.4-2.1,1.3-3.6,1.5-3.8c1.2-1.6,2.8-2.8,5-3.5c2.3-0.8,4.7-1,7.1-0.8c2.4,0.2,4.8,0.7,7.1,1.7
		c0.9,0.4,0.9,0.4,1,1.4c0.1,2.4,0.3,4.9,0.4,7.3c0,0.1,0,0.2,0,0.3c-0.3,0.1-0.5,0-0.6-0.3c-0.7-2.2-1.6-4.3-3-6.1
		c-1-1.3-2.1-2.5-3.6-3.2c-1.9-0.9-3.8-0.9-5.6-0.1C8.6,3.8,7.7,5.5,7.9,7.5c0.2,1.9,1.2,3.3,2.6,4.5c1.3,1.1,2.9,2,4.4,2.9
		c1.9,1.1,3.8,2.1,5.6,3.5c1.6,1.3,2.9,2.7,3.6,4.7c1.3,3.6,0.7,9.6-4.6,12.5c-2.1,1.1-4.4,1.5-5.2,1.6c-2,0.3-4,0.1-4.6,0
		c-0.2,0-0.8-0.1-1.6-0.2c-2-0.3-4-0.9-5.8-1.7c-0.4-0.2-0.9-0.3-0.7-0.9c0-0.2,0-0.3,0-0.5c-0.1-1.1-0.1-2.3-0.2-3.4
		c-0.1-2.2-0.2-2.8-0.2-3.4c0-0.5,0-0.9,0-1.2h0.4c0,0.1,0.1,0.2,0.1,0.3c0.5,2,1.3,4,2.4,5.8C4.8,33,5.7,34.1,6.9,35
		c1.8,1.3,3.8,2,6,1.7c1.7-0.2,3.2-0.9,4.1-2.4c1.2-1.9,1.4-5.2-0.7-7.6c-1.1-1.2-2.4-2.2-3.8-3c-1.8-1-3.6-2-5.3-3
		c-1.5-0.9-2.9-1.9-4.1-3.3c-0.5-0.6-0.9-1.2-1.3-1.9c-0.1-0.3-0.5-1-0.6-2C1.1,13.2,0.9,11.9,1.2,10.3"/>
	<path class="st0" d="M180,37.2c-0.5-0.1-1.5-0.3-2.4-1.1c-1.5-1.2-2-2.9-2-4.7c0.1-2.1,1.2-3.7,2.9-4.9c1.6-1.1,3.3-1.7,5.2-2.1
		c1.5-0.3,3-0.4,4.5-0.6c0.1,0,0.2,0,0.4,0c0-0.1,0-0.1,0-0.2c0-1.8,0-3.6,0-5.4c0-1.3-0.4-2.4-1.3-3.4c-1-1.1-2.3-1.4-3.8-1.3
		c-1.1,0.1-2.2,0.4-3,1.2c-1.1,1.1-1.1,2.6,0.1,3.6c0.4,0.3,0.8,0.6,1.2,1c1,0.8,1,1.9-0.1,2.6c-1.4,0.9-2.9,0.9-4.3,0.1
		c-0.9-0.5-1.2-1.5-1-2.6c0.3-1.3,0.9-2.4,1.8-3.4c2.1-2.3,4.7-3.6,7.7-3.9c2.2-0.2,4.3,0,6.3,0.8c2.1,0.9,3.7,2.3,4.3,4.6
		c0.2,0.6,0.3,1.3,0.3,2c0,4.8,0,9.5,0,14.3c0,1.1,0.6,1.6,1.7,1.2c0.5-0.2,1-0.4,1.5-0.7c0.1,0.2,0.1,0.3-0.1,0.5
		c-3.1,2.3-5.6,2.6-5.6,2.6c-1.8,0.3-2.7,0-2.9,0c-0.6-0.2-1.3-0.4-2-1.1c-0.4-0.5-0.7-1.2-0.7-2.1c0-0.2,0-0.4,0-0.6
		c-0.1,0-0.1,0-0.1,0c-0.1,0.1-0.1,0.1-0.2,0.2c-0.9,1.3-2,2.2-3.4,2.9c-0.3,0.1-1.1,0.5-2.1,0.7C182.3,37.3,181.3,37.4,180,37.2
		 M188.6,24.2c-0.3,0.1-0.6,0.1-0.9,0.2c-1.3,0.3-2.5,0.9-3.1,2.2c-0.9,1.9-0.9,3.8-0.2,5.7c0.3,0.8,0.9,1.3,1.8,1.4
		c0.8,0.1,1.4-0.2,2-0.6c0.2-0.1,0.3-0.3,0.3-0.6c0-2.6,0-5.3,0-7.9V24.2z"/>
	<path class="st0" d="M214.5,36.8c-0.1,0-0.3,0-0.4,0c-4.4,0-8.7,0-13.1,0h-0.4v-0.5c0.6-0.1,1.3-0.2,1.9-0.3c0.7-0.2,1-0.5,1-1.2
		c0-0.1,0-0.2,0-0.4c0-9.9,0-19.7,0-29.6c0-0.2,0-0.3,0-0.5c-0.1-1-0.4-1.3-1.3-1.5c-0.5-0.1-1-0.1-1.5-0.2
		c-0.1-0.5-0.1-0.5,0.3-0.5c2.5-0.3,5-0.6,7.6-0.8c0.2,0,0.9-0.1,1.8-0.2c0.6-0.1,1.1-0.1,1.4-0.1c0,0.1,0,0.3,0,0.4
		c0,10.9,0,21.8,0,32.8c0,0.2,0,0.5,0,0.7c0,0.6,0.3,1,0.9,1.1c0.6,0.1,1.3,0.2,2,0.3V36.8z"/>
	<path class="st0" d="M132.1,37.2c0,0-2.9-0.2-5.8-1.3c-0.2-0.1-0.3-0.2-0.3-0.2s-0.2-0.1-0.2-0.3c-0.2-2.1-0.4-4.3-0.5-6.4
		c0.4-0.1,0.5-0.1,0.6,0.3c0.6,1.9,1.5,3.6,2.9,5.1c1.8,1.8,3.9,2.6,6.4,2.4c1-0.1,1.8-0.4,2.5-1.2c1-1.2,1-3.1,0-4.4
		c-0.7-0.9-1.7-1.6-2.7-2.2c-1.5-0.9-3-1.7-4.5-2.5c-1.5-0.9-2.8-1.9-3.8-3.4c-1.6-2.4-1.7-6.2,0.4-8.5c1.1-1.2,2.6-1.9,4.1-2.3
		c2.2-0.5,4.4-0.5,6.6-0.2c1.4,0.2,2.8,0.6,4.1,1.1c0.3,0.1,0.4,0.2,0.4,0.6c0.1,1.9,0.3,3.7,0.4,5.6c0,0.1,0,0.2,0,0.3
		c-0.3,0.1-0.5,0.1-0.6-0.3c-0.9-2.1-2.1-4-3.9-5.6c-1.1-0.9-2.2-1.5-3.7-1.5c-0.6,0-1.2,0.1-1.7,0.4c-1.1,0.7-1.4,1.7-1.3,2.9
		c0.1,1.4,0.8,2.4,1.8,3.3c1.1,1,2.5,1.7,3.8,2.4c1.4,0.8,2.9,1.6,4.1,2.6c1.5,1.2,2.5,2.7,2.8,4.6c0.5,3.1-1,6-3.8,7.5
		c-1.5,0.8-2.8,1-4.1,1.2C135,37.3,134,37.3,132.1,37.2"/>
	<path class="st0" d="M100.1,30.7c0.3-0.8,0.6-1.6,0.9-2.5c1.4-3.9,2.9-7.8,4.3-11.7c0.1-0.3,0.2-0.6,0.3-1c0.1-0.7-0.2-1.3-0.8-1.7
		c-0.7-0.5-1.6-0.7-2.4-0.8c-0.7-0.1-1.5-0.2-2.3-0.3v-0.4h9.6v0.5c-0.1,0-0.2,0-0.2,0.1c-1.5,0.3-2.5,1.2-3.1,2.7c-1,2.7-2,5.4-3,8
		c-1.6,4.4-3.3,8.8-4.9,13.2c-0.1,0.2-0.2,0.3-0.4,0.3c-1.2,0-2.4,0-3.7,0c-0.2,0-0.3-0.1-0.4-0.3c-2.4-5.5-4.7-11-7.1-16.5
		c-0.8-1.9-1.6-3.7-2.4-5.5c-0.1-0.1-0.1-0.3-0.2-0.4c-0.6-0.9-1-1.3-2.1-1.6v-0.5h14.5v0.5c-0.3,0.1-0.7,0.1-1,0.2
		c-1.4,0.4-2,1.4-1.6,2.8c0.3,0.9,0.6,1.7,1,2.6c1.6,4,3.2,8,4.8,12.1C99.9,30.5,99.9,30.6,100.1,30.7C100,30.7,100,30.7,100.1,30.7
		"/>
	<path class="st0" d="M110.2,36.8c0-0.1,0-0.2,0-0.3c0-0.1,0-0.1,0-0.2c0.4-0.1,0.9-0.1,1.3-0.2c1.3-0.2,1.6-0.5,1.6-1.8
		c0-4.3,0-8.6,0-12.9c0-2.1,0-4.1,0-6.2c0-0.2,0-0.4,0-0.5c-0.1-0.6-0.4-0.9-0.9-1c-0.6-0.1-1.2-0.2-1.9-0.3V13
		c3.7-0.4,7.3-0.8,11-1.2v0.5c0,7.4,0,14.8,0,22.1c0,1.3,0.3,1.6,1.5,1.8c0.4,0.1,0.9,0.1,1.3,0.2v0.5H110.2z"/>
	<path class="st0" d="M121.5,5.9c0,2.5-2.1,4.6-4.6,4.6c-2.5,0-4.6-2.1-4.6-4.6c0-2.5,2.1-4.6,4.6-4.6
		C119.5,1.3,121.5,3.3,121.5,5.9"/>
</g>
</svg>
