<?xml version="1.0" encoding="utf-8"?>
<!-- Generator: Adobe Illustrator 23.0.3, SVG Export Plug-In . SVG Version: 6.00 Build 0)  -->
<svg version="1.1" id="Layer_1" xmlns="http://www.w3.org/2000/svg" xmlns:xlink="http://www.w3.org/1999/xlink" x="0px" y="0px"
	 viewBox="0 0 457.4 55.1" style="enable-background:new 0 0 457.4 55.1;" xml:space="preserve">
<style type="text/css">
	.st0{clip-path:url(#SVGID_2_);fill:#231F20;}
	.st1{clip-path:url(#SVGID_2_);fill:none;stroke:#FFFFFF;stroke-miterlimit:10;}
	.st2{clip-path:url(#SVGID_2_);}
	.st3{clip-path:url(#SVGID_4_);fill:none;stroke:#FFFFFF;stroke-miterlimit:10;}
	.st4{clip-path:url(#SVGID_6_);fill:none;stroke:#FFFFFF;stroke-miterlimit:10;}
	.st5{clip-path:url(#SVGID_6_);fill:#FEEDE8;}
	.st6{clip-path:url(#SVGID_6_);fill:#0D0D0D;}
	.st7{clip-path:url(#SVGID_8_);}
	.st8{fill:#231F20;}
	.st9{fill:#0D0D0D;}
	.st10{fill:none;stroke:#FEEDE8;stroke-width:1.099;stroke-miterlimit:10;}
	.st11{fill:#FFFFFF;}
	.st12{fill:none;stroke:#FFFFFF;stroke-width:0.193;stroke-miterlimit:10;}
	.st13{clip-path:url(#SVGID_14_);}
	.st14{fill-rule:evenodd;clip-rule:evenodd;fill:#FFFFFF;}
</style>
<g>
	<path class="st11" d="M27.6,27.7c-0.5,0-0.9-0.1-1.4-0.1c-4.7-0.1-9.5,0.1-14.2-0.2c-6.6-0.5-11.8-6.4-12-13
		C-0.2,7.4,4.6,1.4,11.2,0.2C11.7,0.1,12.3,0,12.8,0c9.4,0,18.7,0,28.3,0c-0.2,0.5-0.4,0.9-0.6,1.3c-4.1,8.3-8.2,16.7-12.3,25
		C28.1,26.8,27.8,27.3,27.6,27.7L27.6,27.7z"/>
	<path class="st11" d="M27.5,27.8c0.3-0.1,0.6-0.2,0.9-0.2c4.4,0,8.8,0,13.2,0c6.6,0.1,11.9,4.3,13.4,10.8
		C57,46.6,50.7,54.9,42.2,55c-9.1,0.1-18.2,0-27.3,0c-0.2,0-0.3,0-0.7-0.1C18.8,45.8,23.2,36.8,27.5,27.8
		C27.6,27.7,27.5,27.8,27.5,27.8"/>
	<path class="st11" d="M51.7,0c7.5,0,13.7,6.3,13.6,13.9c0,7.6-6.3,13.7-13.8,13.7c-7.6,0-13.7-6.3-13.7-13.8C37.8,6.1,44,0,51.7,0"
		/>
	<path class="st11" d="M324.1,19.6v-6h4.8v1.2c0,8.6,0.1,17.1,0,25.7c0,1.9-0.4,3.9-1.1,5.6c-1.5,3.7-4.5,5.6-8.3,6.2
		c-3.2,0.5-6.4,0.4-9.4-0.9c-3.7-1.5-5.5-4.4-6.1-8.3h4.7c0.3,1.7,1,3.1,2.4,4.2c3.9,2.8,10.1,1.7,12.2-2.1c0.5-0.9,0.8-2,0.8-3
		c0.1-2.3,0-4.6,0-7.1c-0.4,0.8-0.7,1.3-1,1.8c-4,6.8-14.1,5.9-18.1,0.4c-3.8-5.2-3.8-14.5-0.1-19.8c4.2-6,15.3-6.7,18.8,1.4
		C323.8,19.1,323.9,19.2,324.1,19.6 M324.4,27.3c0.1,0,0.2-0.1,0.3-0.1c-0.5-1.9-0.8-3.9-1.5-5.7c-1.1-2.6-3-4.4-6-4.7
		c-3.3-0.3-6.3,0.4-8,3.5c-2.5,4.3-2.5,8.8-0.4,13.2c2.6,5.6,10.6,5.3,13.3,1.5C323.8,32.8,324.4,30.1,324.4,27.3"/>
	<path class="st11" d="M138.2,2.7h4.6v16.7c0.3-0.3,0.4-0.4,0.5-0.5c3.1-7,12.1-7.5,16.9-3c3,2.7,4.1,6.2,4.5,10.1
		c0.4,4.4-0.3,8.6-2.9,12.3c-3.7,5.2-11.8,6.2-16.1,2c-1-1-1.8-2.3-2.8-3.5v5.5h-4.7V2.7z M142.6,27.7c0,2.9,0.5,5.4,1.9,7.7
		c2.7,4.4,9.1,4.9,12.4,1c3.5-4.2,3.6-12.5,0.3-16.7c-3.4-4.3-10.2-3.7-12.8,1C143.1,22.9,142.7,25.4,142.6,27.7"/>
	<path class="st11" d="M410.1,36.5V52h-4.7V13.6h4.7v5.6c0.1,0,0.2,0,0.2,0.1c0.2-0.4,0.5-0.9,0.7-1.3c3.1-5.4,10.4-6.7,15.6-2.9
		c3.3,2.5,4.7,6,5.3,9.9c0.5,3.3,0.2,6.5-0.9,9.7c-2.3,6.5-9.1,9.8-15.1,7.4c-2.2-0.9-3.9-2.5-5-4.6c-0.1-0.3-0.3-0.6-0.4-0.8
		C410.4,36.5,410.4,36.5,410.1,36.5 M427,27.8c0.1-2.6-0.6-5.1-1.9-7.5c-2.9-4.8-10.5-4.8-13.2,0.2c-2.4,4.4-2.5,9-0.7,13.5
		c2.5,6.3,10.4,6.3,13.5,2C426.4,33.6,427.1,30.8,427,27.8"/>
	<path class="st11" d="M277.9,42.2h-4.4v-5.1c-1.1,1.3-2,2.7-3.3,3.7c-4,3.2-11,2.5-14.3-1.4c-2.9-3.6-3.2-10.3,3.6-12.6
		c2.5-0.8,5.2-1.1,7.9-1.5c1.7-0.3,3.3-0.3,5-0.6c0.3-0.1,0.9-0.5,0.9-0.8c0.3-2.8-1.2-5.5-3.5-6.5c-2.6-1.2-6.5-0.8-8.2,1.2
		c-0.9,1.1-1.4,2.5-2.2,4h-4.2c0.2-3.6,1.9-6.4,5-8.1c4.1-2.2,8.4-2.1,12.5-0.2c3.6,1.7,5.2,5,5.3,8.8c0.2,6.2,0.1,12.5,0.1,18.7
		C278,41.9,278,42,277.9,42.2 M273.5,28.5c-0.1-0.1-0.3-0.2-0.4-0.4c-3.4,0.5-6.8,0.8-10.1,1.5c-2.3,0.5-3.6,2.1-3.7,4
		c-0.1,2.2,0.9,3.9,3.2,4.8c3.4,1.3,8.6,0.3,10-4.1C273.1,32.5,273.2,30.5,273.5,28.5"/>
	<path class="st11" d="M374.4,27c0,7.6-4,13.5-10,15.2c-7.4,2.1-14.7-2-16.9-9.8c-1.6-5.7-0.6-11,3.5-15.4c6-6.5,17.2-5,21.3,2.8
		C373.7,22.3,374.5,25,374.4,27 M360.4,38.9c3.2,0,5.5-1.2,6.9-3.7c2.5-4.5,2.5-9.2,0.5-13.8c-1.3-3-3.8-4.6-7.1-4.6
		c-3.2,0-5.7,1.4-7.1,4.4c-2.1,4.4-2.1,8.8-0.1,13.2C354.9,37.3,357.3,39,360.4,38.9"/>
	<path class="st11" d="M106.9,22h-5c-0.4-2.2-1.4-3.9-3.6-4.7c-2.4-0.9-4.9-0.8-7.2,0.3c-1.3,0.6-2.1,1.7-2,3.3
		c0.1,1.5,1,2.4,2.3,2.8c3,0.9,6.1,1.6,9.1,2.5c2.9,0.8,5.2,2.4,6.2,5.3c1.5,4.2-0.5,8.7-4.7,10.2c-4,1.5-8.1,1.8-12.1-0.2
		c-3.8-1.9-5.8-5-6.3-9.2h4.8c0.3,2.8,1.6,4.9,4.2,6c2.9,1.3,5.8,1,8.5-0.7c2.4-1.6,2.1-5.1-0.7-6.3c-2-0.8-4.2-1.1-6.2-1.8
		c-2.2-0.7-4.5-1.4-6.5-2.6c-3.7-2.3-4.2-7.6-1.1-10.7c3.1-3.1,6.9-3.6,11-3.1c3.2,0.4,5.9,1.8,7.7,4.6
		C105.9,19,106.3,20.5,106.9,22"/>
	<path class="st11" d="M201.6,32.3h4.8c0.3,2.8,1.6,4.9,4.2,6c2.9,1.3,5.8,1,8.5-0.7c2.5-1.6,2.1-5.1-0.8-6.3
		c-1.9-0.8-4.1-1.1-6.1-1.8c-1.9-0.6-3.7-1.1-5.5-1.9c-5.1-2.2-5.6-9-1.1-12.4c4.5-3.4,13.9-3.4,17.7,2.7c0.7,1.2,1,2.6,1.6,4.1H220
		c0,0-0.1-0.1-0.1-0.1c-0.9-4.4-4.5-5.6-8.6-4.9c-1.1,0.2-2.2,0.7-3,1.3c-1.9,1.4-1.6,4.3,0.6,5.2c2.2,0.9,4.6,1.3,6.9,2
		c1.9,0.6,3.8,1.1,5.5,2c2.8,1.5,4,4.1,3.9,7.2c-0.1,3.2-1.7,5.6-4.6,6.8c-5.2,2.1-10.4,2.2-15.1-1.5
		C203.1,38,201.9,35.3,201.6,32.3"/>
	<path class="st11" d="M377.8,13.5h4.7v1.3c0,5.3,0,10.6,0,16c0,1.9,0.2,3.8,1.3,5.5c0.7,1.1,1.6,2,2.9,2.1c1.4,0.2,2.9,0.3,4.3,0.1
		c2.4-0.4,3.9-2.1,4.3-4.8c0.1-0.9,0.2-1.9,0.2-2.9c0-5.3,0-10.6,0-16v-1.4h4.6v28.6h-4.5v-5.2c-1,1.3-1.7,2.7-2.7,3.7
		c-4.6,4.3-12.9,1.9-14.6-4.1c-0.3-1.1-0.5-2.3-0.5-3.4c0-6.3,0-12.6,0-18.9C377.7,14,377.7,13.8,377.8,13.5"/>
	<path class="st11" d="M132.8,13.6v28.6h-4.5v-5.3c-0.1,0-0.1,0-0.2-0.1c-0.1,0.2-0.3,0.5-0.4,0.7c-1.9,4-5.3,5.8-9.5,5.1
		c-4.5-0.8-7.5-3.8-7.7-8.1c-0.2-4.8-0.2-9.7-0.2-14.5c0-2.1,0-4.3,0-6.5h4.8v1.3c0,5.3-0.1,10.6,0,15.9c0,1.5,0.3,3,0.7,4.5
		c0.5,1.8,1.8,3,3.7,3.3c3.7,0.6,6.5,0,7.6-2.7c0.6-1.4,0.9-3,0.9-4.5c0.1-5.4,0-10.9,0-16.3v-1.4H132.8z"/>
	<path class="st11" d="M250.7,42.2h-4.4v-5.3c-0.1,0-0.1,0-0.2-0.1c-0.1,0.2-0.3,0.5-0.4,0.7c-1.9,4-5.3,5.9-9.4,5.1
		c-4.5-0.8-7.5-3.8-7.7-8.2c-0.2-4.6-0.2-9.2-0.2-13.8c0-2.4,0-4.7,0-7.1h4.7c0,0.4,0.1,0.9,0.1,1.3c0,5.4,0,10.7,0,16.1
		c0,1.8,0.2,3.6,1.1,5.2c0.7,1.2,1.6,1.9,2.9,2.3c1.8,0.5,3.6,0.5,5.3-0.1c2.1-0.7,3.5-3,3.5-5.9c0-5.8,0-11.7,0-17.5
		c0-0.4,0-0.9,0-1.3h4.7V42.2z"/>
	<path class="st11" d="M164.9,13.5h4.9c2.8,9.4,5.6,18.8,8.4,28.4c1.1-3.8,2.2-7.4,3.2-10.9c1.6-5.5,3.2-10.9,4.8-16.4
		c0.3-0.9,0.7-1.2,1.6-1.1c1.2,0.1,2.4,0,3.7,0c-2.8,9.7-5.6,19.2-8.4,28.8c-3.1,0-6.1,0-9.1,0c-0.8,0-0.8-0.6-0.9-1
		c-1.8-6-3.5-12-5.3-18C166.8,20,165.9,16.8,164.9,13.5"/>
	<rect x="283.1" y="2.7" class="st11" width="4.7" height="39.5"/>
	<path class="st11" d="M334.3,13.6h4.4v5.1c1.9-3.5,4.5-5.7,8.7-5.7v4.9c-1.5,0.3-3,0.4-4.5,0.8c-2.5,0.8-3.9,2.5-3.9,5.1
		c-0.1,5.6-0.1,11.2-0.1,16.8c0,0.5,0,0.9,0,1.5h-4.7V13.6z"/>
	<rect x="193.7" y="13.6" class="st11" width="4.6" height="28.6"/>
	<path class="st11" d="M453.1,16.8c-0.2,0.1-0.2,0.1-0.3,0.1c-2.6,0.2-2.6,0.2-3.3-2.3c-0.7-2.7-1.4-5.5-2.3-8.2v10.4
		c-0.5,0-0.9,0-1.4,0.1V5.4c0.8,0,1.6-0.1,2.4,0c0.3,0,0.6,0.6,0.7,0.9c0.8,3,1.6,5.9,2.4,8.9c0.1,0.4,0.2,0.7,0.4,1.4
		c1-4,2-7.6,3-11.3h2.8v11.3H456V6.4c-0.1,0-0.1,0-0.2,0C454.9,9.9,454,13.4,453.1,16.8"/>
	<rect x="193.3" y="2.6" class="st11" width="5.4" height="5.4"/>
	<path class="st11" d="M439.1,6.6c-1.2,0-2.2,0-3.2,0c-0.2,0-0.4-0.4-0.6-0.6c0.2-0.2,0.4-0.5,0.6-0.5c2.8,0,5.6,0,8.3,0
		c0.4,0.9,0.1,1.3-0.7,1.2c0,0-0.1,0-0.1,0c-2.8,0.1-2.8,0.1-2.8,2.9v7.3h-1.4V6.6z"/>
</g>
</svg>
