<?xml version="1.0" encoding="utf-8"?>
<!-- Generator: Adobe Illustrator 24.2.3, SVG Export Plug-In . SVG Version: 6.00 Build 0)  -->
<svg version="1.1" id="Layer_1" xmlns="http://www.w3.org/2000/svg" xmlns:xlink="http://www.w3.org/1999/xlink" x="0px" y="0px"
	 viewBox="0 0 76.76 25.18" style="enable-background:new 0 0 76.76 25.18;" xml:space="preserve">
<style type="text/css">
	.st0{fill:#FFFFFF;}
</style>
<g>
	<path class="st0" d="M30.25,16.67v-0.95c-0.76,0.85-1.85,1.33-2.99,1.34c-1.83,0-2.74-0.97-2.74-2.68V8.52
		c0-0.09,0.07-0.17,0.16-0.17h1.5c0.1,0,0.17,0.08,0.17,0.17v5.16c0,1.32,0.67,1.74,1.72,1.74c0.85-0.02,1.65-0.43,2.16-1.11v-5.8
		c0-0.1,0.08-0.17,0.17-0.17h1.5c0.09,0,0.17,0.08,0.17,0.17v8.15c0,0.09-0.08,0.17-0.17,0.17h-1.5
		C30.33,16.84,30.25,16.76,30.25,16.67 M36.15,15.66v4.24c0,0.09-0.08,0.17-0.17,0.17h-1.5c-0.1,0-0.17-0.08-0.17-0.17V8.52
		c0-0.1,0.08-0.17,0.17-0.17h1.5c0.09,0,0.17,0.08,0.17,0.17v0.99c0.64-0.87,1.66-1.38,2.74-1.37c2.2,0,3.75,1.65,3.75,4.45
		c0,2.8-1.56,4.47-3.75,4.47c-1.08-0.01-2.09-0.52-2.73-1.39H36.15z M40.74,12.59c0-1.65-0.95-2.81-2.41-2.81
		c-0.86,0.01-1.67,0.43-2.18,1.13v3.36c0.5,0.71,1.31,1.14,2.18,1.16c1.47,0,2.42-1.18,2.42-2.83H40.74z M50.23,16.84
		c-0.09,0-0.17-0.08-0.17-0.17V11.5c0-1.34-0.67-1.72-1.71-1.72c-0.86,0.02-1.66,0.44-2.18,1.13v5.77c0,0.1-0.08,0.17-0.17,0.17
		h-1.48c-0.09,0-0.17-0.08-0.17-0.17V5.28c0-0.1,0.07-0.18,0.17-0.18c0,0,0,0,0.01,0h1.5c0.1,0,0.17,0.08,0.17,0.17v4.21
		c0.76-0.86,1.85-1.35,2.99-1.35c1.83,0,2.74,0.95,2.74,2.68v5.85c0,0.09-0.08,0.17-0.17,0.17H50.23z M53.6,12.59
		c0-2.44,1.65-4.45,4.36-4.45c2.71,0,4.36,2,4.36,4.45s-1.65,4.47-4.36,4.47c-2.71,0-4.35-2.03-4.35-4.47H53.6z M60.41,12.59
		c0-1.5-0.86-2.81-2.44-2.81c-1.58,0-2.44,1.32-2.44,2.81c0,1.5,0.88,2.83,2.44,2.83c1.56,0,2.45-1.32,2.45-2.83H60.41z
		 M64.03,16.67V5.28c0-0.1,0.08-0.17,0.17-0.17h1.5c0.1,0,0.17,0.08,0.17,0.17v11.38c0,0.1-0.08,0.17-0.17,0.17h-1.5
		c-0.09-0.01-0.16-0.08-0.16-0.17H64.03z M74.07,16.67v-0.99c-0.64,0.86-1.65,1.37-2.73,1.37c-2.16,0-3.75-1.65-3.75-4.47
		c0-2.74,1.58-4.45,3.75-4.45c1.08-0.01,2.1,0.51,2.73,1.39V5.28c0-0.09,0.08-0.17,0.17-0.17h1.5c0.09,0,0.17,0.08,0.17,0.17v11.38
		c0,0.09-0.08,0.17-0.17,0.17h-1.5c-0.09-0.01-0.16-0.08-0.16-0.17H74.07z M74.07,14.27v-3.36c-0.51-0.7-1.31-1.13-2.18-1.14
		c-1.48,0-2.41,1.18-2.41,2.81c0,1.64,0.93,2.83,2.41,2.83c0.87-0.01,1.68-0.44,2.19-1.14H74.07z M11.69,22.96
		c-0.72,0.22-1.48,0.33-2.23,0.33h-0.1c-0.76,0-1.52-0.12-2.25-0.34c-0.36-0.11-0.73,0.1-0.83,0.45c-0.1,0.36,0.1,0.73,0.45,0.83
		c0.85,0.26,1.74,0.39,2.63,0.39h0.1c0.88,0,1.76-0.14,2.61-0.39c0.35-0.12,0.53-0.51,0.41-0.86
		C12.36,23.07,12.02,22.88,11.69,22.96 M17.54,6.47L17.54,6.47V6.45c0,0,0-0.01,0-0.01c-1.47-4.49-6.31-6.94-10.8-5.47
		c-2.6,0.85-4.63,2.89-5.47,5.49c0,0.01,0,0.01,0,0.02C0.51,8.7,0.78,11.67,2,14.44c1.67,3.79,4.69,6.43,7.37,6.43h0.08
		c2.68,0,5.7-2.63,7.37-6.43C18.03,11.68,18.3,8.7,17.54,6.47 M13.61,3.23c-1.35-0.06-2.83,0.54-4.21,1.68
		C8.02,3.77,6.54,3.18,5.19,3.23C7.71,1.44,11.09,1.44,13.61,3.23 M10.5,19.29c-0.7,0.33-1.51,0.33-2.21,0
		C6.01,18.24,5.54,14,7.28,10.05C7.8,8.85,8.52,7.74,9.41,6.76c0.88,0.97,1.6,2.09,2.12,3.29C13.25,14,12.79,18.24,10.5,19.29
		 M3.21,13.91c-1.09-2.48-1.34-5.09-0.69-7.02c0.35-1.01,0.94-1.73,1.7-2.08c1.19-0.55,2.72-0.16,4.2,1.03
		C7.44,6.93,6.64,8.17,6.05,9.51c-1.17,2.68-1.43,5.41-0.89,7.54C4.36,16.1,3.71,15.05,3.21,13.91 M15.58,13.91
		c-0.5,1.13-1.15,2.19-1.95,3.14c0.54-2.13,0.27-4.87-0.89-7.54c-0.58-1.34-1.38-2.58-2.37-3.67c1.47-1.19,3.01-1.58,4.2-1.03
		c0.76,0.35,1.34,1.07,1.7,2.08c0.66,1.91,0.4,4.54-0.7,7.02H15.58z"/>
</g>
</svg>
