<?xml version="1.0" encoding="utf-8"?>
<!-- Generator: Adobe Illustrator 23.0.3, SVG Export Plug-In . SVG Version: 6.00 Build 0)  -->
<svg version="1.1" id="Layer_1" xmlns="http://www.w3.org/2000/svg" xmlns:xlink="http://www.w3.org/1999/xlink" x="0px" y="0px"
	 viewBox="0 0 91.5 25" style="enable-background:new 0 0 91.5 25;" xml:space="preserve">
<style type="text/css">
	.st0{clip-path:url(#SVGID_2_);fill:#231F20;}
	.st1{clip-path:url(#SVGID_2_);fill:none;stroke:#FFFFFF;stroke-miterlimit:10;}
	.st2{clip-path:url(#SVGID_2_);}
	.st3{clip-path:url(#SVGID_4_);fill:none;stroke:#FFFFFF;stroke-miterlimit:10;}
	.st4{clip-path:url(#SVGID_6_);fill:none;stroke:#FFFFFF;stroke-miterlimit:10;}
	.st5{clip-path:url(#SVGID_6_);fill:#FEEDE8;}
	.st6{clip-path:url(#SVGID_6_);fill:#0D0D0D;}
	.st7{clip-path:url(#SVGID_8_);}
	.st8{fill:#231F20;}
	.st9{fill:#0D0D0D;}
	.st10{fill:none;stroke:#FEEDE8;stroke-width:1.099;stroke-miterlimit:10;}
	.st11{fill:#FFFFFF;}
	.st12{fill:none;stroke:#FFFFFF;stroke-width:0.193;stroke-miterlimit:10;}
	.st13{clip-path:url(#SVGID_14_);}
	.st14{fill-rule:evenodd;clip-rule:evenodd;fill:#FFFFFF;}
</style>
<g>
	<path class="st11" d="M22.5,19.5c-0.8,0-1.3-0.1-1.8-0.3c-0.2-0.1-0.4,0-0.4,0.3v4.8c0,0.4-0.2,0.6-0.6,0.6h-1.8
		c-0.4,0-0.6-0.2-0.6-0.6v-14c0-2.6,2.1-4.9,5.2-4.9c3.1,0,5.2,2.3,5.2,4.9v4.3C27.8,17.3,25.7,19.5,22.5,19.5 M24.6,10.4
		c0-1-0.8-2.1-2.1-2.1c-1.4,0-2.1,1.1-2.1,2.1v4.3c0,1,0.8,2.1,2.1,2.1c1.4,0,2.1-1.1,2.1-2.1V10.4z"/>
	<path class="st11" d="M40.6,19.2h-1.1c-0.2,0-0.4-0.1-0.5-0.3c-0.1-0.2-0.3-0.2-0.4-0.1c-0.8,0.4-1.5,0.7-2.5,0.7
		c-3.1,0-5.2-2.3-5.2-4.9s2.1-4.8,5.2-4.8c0.6,0,1.3,0.2,1.8,0.4c0.1,0.1,0.3-0.1,0.3-0.2C38,9.3,37.4,8.3,36,8.3
		c-0.8,0-1.7,0.2-2.6,0.7c-0.3,0.2-0.6,0.1-0.8-0.3l-0.8-1.3c-0.2-0.3,0-0.7,0.3-0.9c1.3-0.7,2.5-1,3.8-1c3.1,0,5.2,2.3,5.2,4.9v8.3
		C41.2,19,41,19.2,40.6,19.2 M36,12.6c-1.4,0-2.1,1.1-2.1,2.1c0,1,0.8,2.1,2.1,2.1c1.4,0,2.1-1.1,2.1-2.1
		C38.1,13.6,37.4,12.6,36,12.6"/>
	<path class="st11" d="M54.1,19.2h-1.8c-0.4,0-0.6-0.2-0.6-0.6v-8.3c0-1-0.8-2.1-2.1-2.1c-1.4,0-2.1,1.1-2.1,2.1v8.3
		c0,0.4-0.2,0.6-0.6,0.6h-1.8c-0.4,0-0.6-0.2-0.6-0.6V6.4c0-0.4,0.2-0.6,0.6-0.6H46c0.2,0,0.4,0.1,0.5,0.3c0.1,0.2,0.3,0.2,0.4,0.1
		c0.8-0.4,1.5-0.7,2.5-0.7c3.1,0,5.2,2.3,5.2,4.9v8.3C54.7,19,54.5,19.2,54.1,19.2"/>
	<path class="st11" d="M67.5,19.2h-1.1c-0.2,0-0.4-0.1-0.5-0.3c-0.1-0.2-0.3-0.2-0.4-0.1c-0.8,0.4-1.5,0.7-2.5,0.7
		c-3.1,0-5.2-2.3-5.2-4.9v-4.3c0-2.6,2.1-4.9,5.2-4.9c0.8,0,1.3,0.1,1.8,0.3c0.2,0.1,0.4,0,0.4-0.3V0.6C65,0.2,65.3,0,65.7,0h1.8
		c0.4,0,0.6,0.2,0.6,0.6v18C68.2,19,67.9,19.2,67.5,19.2 M65,10.4c0-1-0.8-2.1-2.1-2.1c-1.4,0-2.1,1.1-2.1,2.1v4.3
		c0,1,0.8,2.1,2.1,2.1c1.4,0,2.1-1.1,2.1-2.1V10.4z"/>
	<path class="st11" d="M74.6,1.3h-0.1c-0.5,0-0.7-0.2-0.7-0.6C73.8,0.3,74,0,74.5,0h0.1c0.5,0,0.7,0.2,0.7,0.6
		C75.4,1.1,75.1,1.3,74.6,1.3"/>
	<path class="st11" d="M80.2,19.3c-0.5,0.3-1.2,0.4-1.8,0.4c-3.1,0-4.6-2.3-4.6-4.8V6.4c0-0.4,0.4-0.6,0.8-0.6h0.3
		c0.4,0,0.6,0.2,0.6,0.6V15c0,1.7,1.1,3.1,3,3.1c0.5,0,0.9-0.1,1.2-0.3c0.4-0.1,0.5-0.1,0.7,0.2C80.6,18.3,80.5,19.1,80.2,19.3"/>
	<path class="st11" d="M91.2,18.9c-0.5,0.4-1.4,1-2.8,1c-3.4,0-4.7-2.5-4.7-4.9V8.2c0-0.8-0.5-0.9-1.3-0.9H82
		c-0.4,0-0.6-0.4-0.6-0.7c0-0.3,0.2-0.7,0.6-0.7h0.4c0.8,0,1.3-0.5,1.3-1.3V2.6c0-0.4,0.4-0.6,0.8-0.6h0.3c0.4,0,0.6,0.2,0.6,0.6
		v1.9c0,0.8,0.5,1.3,1.3,1.3h3c0.4,0,0.6,0.4,0.6,0.7c0,0.3-0.2,0.7-0.6,0.7h-3c-0.8,0-1.3,0.1-1.3,0.9V15c0,1.7,1.1,3.3,3,3.3
		c0.8,0,1.4-0.3,1.8-0.6c0.4-0.3,0.7-0.3,1-0.1C91.6,17.8,91.5,18.6,91.2,18.9"/>
	<path class="st11" d="M11,12.7c-0.1-0.1-0.1-0.3,0-0.5l3.2-5.7c0.2-0.3,0-0.8-0.4-0.8h-2c-0.4,0-0.8,0.3-0.9,0.6L9.4,9.1
		C9.2,9.4,9.2,9.5,9,9.5c-0.1,0-0.2-0.1-0.3-0.4L7.3,6.4C7.1,6.1,6.9,5.9,6.5,5.8l1.1,2c0,0,0,0.1,0.1,0.1l1.9,3.6
		c0,0,0.1,0.4,0.1,0.9c0,0.5-0.1,0.9-0.1,0.9l-1.9,3.7l0,0l-1.1,2.1c0.4-0.1,0.6-0.3,0.8-0.6l1.4-2.7c0.1-0.2,0.2-0.4,0.3-0.4
		c0.1,0,0.2,0.1,0.3,0.4l1.4,2.7c0.2,0.4,0.5,0.6,1,0.6h2c0.5,0,0.6-0.5,0.4-0.8L11,12.7z"/>
	<path class="st11" d="M5.3,20.2l1.6-3.1l0,0l1.9-3.7c0,0,0.1-0.4,0.1-0.9c0-0.5-0.1-0.9-0.1-0.9L7,8c0,0,0-0.1-0.1-0.1L5.7,5.6
		L4.9,4C4.6,3.6,4.1,3.1,3.6,3.1H0.8c-0.7,0-0.9,0.7-0.7,1.1l4.5,7.9c0.1,0.2,0.1,0.5,0,0.7l-4.5,7.9c-0.3,0.5,0,1.1,0.7,1.1h2.7
		c0.7,0,1.2-0.4,1.4-0.9L5.3,20.2z"/>
</g>
</svg>
