<?xml version="1.0" encoding="utf-8"?>
<!-- Generator: Adobe Illustrator 24.2.3, SVG Export Plug-In . SVG Version: 6.00 Build 0)  -->
<svg version="1.1" id="Layer_1" xmlns="http://www.w3.org/2000/svg" xmlns:xlink="http://www.w3.org/1999/xlink" x="0px" y="0px"
	 viewBox="0 0 56.98 16" style="enable-background:new 0 0 56.98 16;" xml:space="preserve">
<style type="text/css">
	.st0{fill:#FFFFFF;}
</style>
<g>
	<g>
		<path class="st0" d="M14.8,12.14c-0.45,0-0.74-0.07-1.03-0.15c-0.14-0.03-0.22,0-0.22,0.15v2.85c0,0.24-0.14,0.38-0.38,0.38h-1.08
			c-0.24,0-0.38-0.14-0.38-0.38V6.73c0-1.53,1.24-2.87,3.09-2.87c1.85,0,3.09,1.34,3.09,2.87v2.54
			C17.89,10.8,16.65,12.14,14.8,12.14z M16.05,6.73c0-0.6-0.45-1.24-1.25-1.24c-0.81,0-1.25,0.64-1.25,1.24v2.54
			c0,0.6,0.45,1.24,1.25,1.24c0.81,0,1.25-0.64,1.25-1.24V6.73z"/>
	</g>
	<g>
		<path class="st0" d="M25.45,11.97h-0.67c-0.14,0-0.24-0.05-0.31-0.15c-0.09-0.12-0.17-0.1-0.24-0.07c-0.45,0.24-0.89,0.4-1.49,0.4
			c-1.85,0-3.09-1.34-3.09-2.87c0-1.53,1.24-2.85,3.09-2.85c0.38,0,0.79,0.1,1.08,0.22c0.09,0.03,0.17-0.03,0.15-0.12
			c-0.07-0.43-0.43-1.03-1.24-1.03c-0.5,0-1,0.14-1.53,0.41c-0.19,0.1-0.36,0.03-0.48-0.17l-0.45-0.74c-0.12-0.19,0-0.41,0.19-0.51
			c0.74-0.41,1.49-0.62,2.27-0.62c1.85,0,3.09,1.34,3.09,2.87v4.86C25.82,11.83,25.69,11.97,25.45,11.97z M22.73,8.05
			c-0.81,0-1.25,0.62-1.25,1.22c0,0.6,0.45,1.24,1.25,1.24c0.81,0,1.25-0.64,1.25-1.24C23.99,8.67,23.54,8.05,22.73,8.05z"/>
	</g>
	<g>
		<path class="st0" d="M33.38,11.97H32.3c-0.24,0-0.38-0.14-0.38-0.38V6.73c0-0.6-0.45-1.24-1.25-1.24c-0.81,0-1.25,0.64-1.25,1.24
			v4.86c0,0.24-0.14,0.38-0.38,0.38h-1.08c-0.24,0-0.38-0.14-0.38-0.38V4.41c0-0.24,0.14-0.38,0.38-0.38h0.67
			c0.14,0,0.24,0.05,0.31,0.15c0.09,0.12,0.17,0.1,0.24,0.07c0.45-0.24,0.89-0.4,1.49-0.4c1.85,0,3.09,1.34,3.09,2.87v4.86
			C33.76,11.83,33.62,11.97,33.38,11.97z"/>
	</g>
	<g>
		<path class="st0" d="M41.31,11.97h-0.67c-0.14,0-0.24-0.05-0.31-0.15c-0.09-0.12-0.17-0.1-0.24-0.07c-0.45,0.24-0.89,0.4-1.49,0.4
			c-1.85,0-3.09-1.34-3.09-2.87V6.73c0-1.53,1.24-2.87,3.09-2.87c0.45,0,0.74,0.07,1.03,0.15c0.14,0.03,0.22,0,0.22-0.15V1.01
			c0-0.24,0.14-0.38,0.38-0.38h1.08c0.24,0,0.38,0.14,0.38,0.38v10.58C41.69,11.83,41.55,11.97,41.31,11.97z M39.85,6.73
			c0-0.6-0.45-1.24-1.25-1.24c-0.81,0-1.25,0.64-1.25,1.24v2.54c0,0.6,0.45,1.24,1.25,1.24c0.81,0,1.25-0.64,1.25-1.24V6.73z"/>
	</g>
	<g>
		<path class="st0" d="M45.49,1.4h-0.06c-0.28,0-0.44-0.14-0.44-0.38c0-0.24,0.16-0.38,0.44-0.38h0.06c0.28,0,0.44,0.14,0.44,0.38
			C45.93,1.26,45.77,1.4,45.49,1.4z"/>
	</g>
	<g>
		<path class="st0" d="M48.75,12c-0.31,0.15-0.69,0.24-1.08,0.24c-1.83,0-2.68-1.38-2.68-2.8V4.41c0-0.24,0.24-0.38,0.48-0.38h0.16
			c0.24,0,0.38,0.14,0.38,0.38v5.03c0,0.98,0.65,1.83,1.77,1.83c0.27,0,0.53-0.07,0.72-0.15c0.21-0.09,0.32-0.05,0.43,0.12
			C49.04,11.43,48.95,11.9,48.75,12z"/>
	</g>
	<g>
		<path class="st0" d="M55.27,11.75c-0.27,0.26-0.82,0.6-1.63,0.6c-1.98,0-2.79-1.48-2.79-2.91v-4c0-0.48-0.27-0.55-0.76-0.55h-0.26
			c-0.24,0-0.38-0.24-0.38-0.43c0-0.19,0.14-0.43,0.38-0.43h0.26c0.48,0,0.76-0.28,0.76-0.76V2.14c0-0.24,0.24-0.38,0.48-0.38h0.16
			c0.24,0,0.38,0.14,0.38,0.38v1.13c0,0.48,0.27,0.76,0.76,0.76h1.77c0.24,0,0.38,0.24,0.38,0.43c0,0.19-0.14,0.43-0.38,0.43h-1.77
			c-0.48,0-0.76,0.06-0.76,0.55v4c0,0.98,0.65,1.94,1.77,1.94c0.5,0,0.84-0.19,1.08-0.38c0.21-0.17,0.43-0.21,0.58-0.09
			C55.51,11.09,55.46,11.58,55.27,11.75z"/>
	</g>
	<g>
		<path class="st0" d="M8.02,8.14c-0.03-0.07-0.03-0.21,0-0.27l1.89-3.35c0.1-0.19,0.02-0.48-0.26-0.48h-1.2
			C8.21,4.03,8,4.22,7.9,4.41l-0.84,1.6C6.99,6.15,6.93,6.23,6.87,6.23c-0.07,0-0.12-0.09-0.19-0.22l-0.84-1.6
			C5.75,4.25,5.59,4.09,5.39,4.05l0.63,1.2C6.04,5.27,6.05,5.3,6.06,5.32l1.13,2.14c0,0,0.09,0.24,0.09,0.54
			c0,0.3-0.09,0.54-0.09,0.54L6.04,10.7c0,0,0,0,0,0l-0.65,1.24c0.21-0.05,0.36-0.19,0.45-0.36l0.84-1.6
			C6.75,9.85,6.8,9.77,6.87,9.77c0.07,0,0.12,0.09,0.19,0.22l0.84,1.6c0.1,0.21,0.31,0.38,0.6,0.38h1.15c0.27,0,0.36-0.29,0.26-0.48
			L8.02,8.14z"/>
	</g>
	<g>
		<path class="st0" d="M4.67,12.51l0.95-1.81c0,0,0,0,0,0l1.14-2.17c0,0,0.09-0.24,0.09-0.54c0-0.3-0.09-0.54-0.09-0.54L5.64,5.32
			C5.63,5.3,5.62,5.27,5.6,5.25l-0.68-1.3l0,0l-0.5-0.96C4.27,2.72,3.98,2.46,3.65,2.46H1.99c-0.41,0-0.55,0.38-0.38,0.67L4.24,7.8
			c0.05,0.1,0.05,0.29,0,0.38l-2.63,4.67c-0.17,0.29-0.02,0.67,0.38,0.67h1.58c0.41,0,0.69-0.24,0.84-0.53L4.67,12.51L4.67,12.51z"
			/>
	</g>
</g>
</svg>
