<svg id="Layer_1" data-name="Layer 1" xmlns="http://www.w3.org/2000/svg" viewBox="0 0 1281.45 365.63"><defs><style>.cls-1{fill:#fff;}.cls-2{fill:#fdfdfd;}.cls-3{fill:#fcfcfc;}.cls-4{fill:#fefefe;}.cls-5{fill:#fbfbfb;}.cls-6{fill:#f9f9f9;}.cls-7{fill:#fafafa;}.cls-8{fill:#f8f8f8;}.cls-9{fill:#f6f6f6;}.cls-10{fill:#f5f5f5;}.cls-11{fill:#f4f4f4;}.cls-12{fill:#f3f3f3;}</style></defs><path class="cls-1" d="M297.14,114.91a68.86,68.86,0,0,1-4.3,21.33c-3.49,9.94-8.64,19.06-14.43,27.81a247.92,247.92,0,0,1-16.92,22.36,424.06,424.06,0,0,1-33.17,34.92c-10.37,9.85-21,19.47-32,28.53-10.14,8.29-20.21,16.67-30.49,24.8-8.52,6.74-17.21,13.28-26,19.72q-15.63,11.5-31.51,22.68c-7.63,5.4-15.37,10.65-23.12,15.88q-12.61,8.52-25.33,16.89c-7.62,5-15.34,9.83-23,14.73-2.45,1.57-4.54,1.4-6.27-.45s-1.93-4.22-.15-6.52c2.3-3,4.72-5.84,7-8.78q7-8.83,14-17.69c5.5-7.06,11-14.12,16.42-21.24q8.57-11.25,17-22.62c6.42-8.68,12.81-17.36,19.11-26.12q8.31-11.58,16.39-23.34Q131.83,221,143.14,204c3.72-5.58,7.28-11.27,10.86-16.95,4.59-7.31,9.2-14.6,13.67-22,8.46-13.94,16.58-28.08,24.2-42.5,6.87-13,13.37-26.19,19.26-39.67a320.72,320.72,0,0,0,16-44.14c2.51-9.25,4.58-18.62,5.15-28.24q.17-3,.45-6C233,1.5,235.08-.25,238,0a4.08,4.08,0,0,1,3.28,2.14c1.37,2.35,2.72,4.7,4,7.08,3.38,6.18,6.71,12.37,10.07,18.55Q262.15,40.22,269,52.62c2.59,4.77,5.15,9.57,7.75,14.34q6.66,12.21,13.34,24.4c2.64,4.84,5.4,9.65,6.19,15.23C296.63,109.35,296.85,112.13,297.14,114.91Z"/><path class="cls-1" d="M0,55.9c0-4.17,2.61-5,5.57-4.42,11.48,2.46,23,5,34.44,7.38,8.12,1.72,16.27,3.33,24.4,5q11.27,2.35,22.49,4.8A5.94,5.94,0,0,1,92,74,141.5,141.5,0,0,0,97.5,96.81q3.78,12.12,8,24.09c3.36,9.4,6.94,18.72,10.51,28,2.62,6.86,5.36,13.68,8,20.52.5,1.26,1.09,2.49,1.55,3.76.77,2.12.49,3.56-.8,4.59s-3,1.12-4.84-.18q-5.25-3.78-10.4-7.69c-6.28-4.81-12.59-9.58-18.76-14.52q-12.15-9.75-24.08-19.76c-11-9.26-21.7-18.88-31.92-29-8.81-8.73-17.24-17.8-24.48-27.9A62.6,62.6,0,0,1,1.67,62.85,67.62,67.62,0,0,1,0,55.9Z"/><path class="cls-2" d="M1069.77,205.77v-144h14v51.9c1.45-.31,2.67-.54,3.87-.84a120.27,120.27,0,0,1,27.84-3.29,65,65,0,0,1,18,1.82c13.84,3.7,24,11.77,29.62,25a59.63,59.63,0,0,1,4.42,25.78,61,61,0,0,1-2.65,16c-3.13,10.2-8.89,18.59-18,24.53a44.27,44.27,0,0,1-19.88,7,153.47,153.47,0,0,1-24,.19c-6-.32-11.92-.92-17.85-1.66C1080.14,207.64,1075.07,206.64,1069.77,205.77Zm14-79.31v69.38a7.63,7.63,0,0,0,1.17.35c5.93.79,11.85,1.85,17.81,2.27,7.24.52,14.55,1,21.77-.28,11.46-2,19.85-8.29,24.3-19.07a48.76,48.76,0,0,0,.37-37.16,28.79,28.79,0,0,0-11.1-13.78,35.26,35.26,0,0,0-17.53-5.79,111.57,111.57,0,0,0-20.1.62A102.9,102.9,0,0,0,1083.77,126.46Z"/><path class="cls-3" d="M1023.77,115.08v92.68h-14v-8c-1.62.9-3,1.58-4.23,2.35A59.24,59.24,0,0,1,973.32,211a50.08,50.08,0,0,1-21.38-4.64,42.29,42.29,0,0,1-17.81-15.76c-6.34-10-8.46-21.11-8.14-32.78a56.54,56.54,0,0,1,3.18-17.63q8.9-24.69,35.08-29.43c7-1.26,14-.86,21.06-.67,12.65.35,25.09,2.42,37.5,4.65A5.16,5.16,0,0,1,1023.77,115.08Zm-14,72.41V124.88c-1.33-.24-2.5-.48-3.68-.66a197.79,197.79,0,0,0-28.45-2,40.74,40.74,0,0,0-16.63,3,30.43,30.43,0,0,0-15.47,14.69c-3.35,6.65-4.45,13.79-4.38,21.15.08,8.23,1.75,16,6.26,23a30.8,30.8,0,0,0,17.34,13.21c7,2.18,14.22,2,21.37.68C994.86,196.36,1002.49,192.22,1009.77,187.49Z"/><path class="cls-2" d="M666.77,115.06v92.7h-14v-8.09c-1.69,1-3,1.74-4.4,2.54-14.21,8.44-29.41,11.06-45.46,6.89-12.57-3.26-21.75-11-27.62-22.55-4.55-9-6.07-18.54-5.82-28.48a57.05,57.05,0,0,1,3.94-20c4.93-12.18,13.45-20.74,26-25.22a54.22,54.22,0,0,1,18-2.93,207.83,207.83,0,0,1,33,2.22c5.08.78,10.14,1.71,15.21,2.58A9,9,0,0,1,666.77,115.06Zm-14,9.63c-4.57-.55-8.84-1.16-13.13-1.57a145.76,145.76,0,0,0-24.18-.73c-14.94,1-26.09,10.37-29.83,24.85a55.51,55.51,0,0,0-1.27,19,38.64,38.64,0,0,0,6.31,18.37,30.14,30.14,0,0,0,16.73,12.53c9.32,2.76,18.63,2.11,27.83-.87a78.66,78.66,0,0,0,15.45-7.48,4.38,4.38,0,0,0,2.14-3.75c-.08-19.21-.05-38.42-.05-57.63Z"/><path class="cls-3" d="M429.29,68.26c5.39,0,10.35,0,15.31,0a2.25,2.25,0,0,1,2.12,1.21q6.28,9.63,12.6,19.23,8.39,12.69,16.79,25.36c3.52,5.33,7,10.68,10.53,16,2.76,4.19,5.54,8.37,8.47,12.82.88-1.25,1.68-2.32,2.41-3.42q7.35-11.08,14.68-22.17c4.49-6.79,9-13.61,13.45-20.39,5.52-8.32,11.26-16.5,16.47-25,1.9-3.09,4-4,7.31-3.71,3.73.28,7.49.07,11.5.07a15.31,15.31,0,0,1-.77,1.6q-10.32,15.86-20.66,31.71l-21.18,32.5q-7.28,11.15-14.58,22.24a7.21,7.21,0,0,0-1.28,4.22c.05,15,0,29.91-.69,44.86v2.37h-14V205.2c.24-14.95.22-29.9.26-44.86a6.46,6.46,0,0,0-1.07-3.79q-9.81-14.91-19.54-29.88-10.6-16.23-21.24-32.46Q438.37,82.3,430.51,70.4C430.13,69.83,429.82,69.2,429.29,68.26Z"/><path class="cls-3" d="M1278.59,116.73c-1.28,3.8-2.46,7.33-3.7,11-.6-.15-1.11-.25-1.61-.39-10.93-3.17-22-5.71-33.45-5.56a34.71,34.71,0,0,0-11.1,1.67c-3.87,1.35-7.18,3.52-9.06,7.35a14.36,14.36,0,0,0-.81,11.18,8.72,8.72,0,0,0,3.85,4.75,27.55,27.55,0,0,0,6,2.93c4.8,1.47,9.68,2.72,14.56,3.92,7.13,1.75,14.37,3.13,21.23,5.83,4.25,1.67,8.29,3.72,11.51,7.13a19.4,19.4,0,0,1,5.26,11.8c.77,8.06-.91,15.45-6.45,21.6a28.71,28.71,0,0,1-10.15,7.06c-8.35,3.61-17.13,4.32-26.07,3.92a104.86,104.86,0,0,1-25.64-4.66c-4.26-1.29-8.41-2.94-12.83-4.5l3.34-11.8c3,1.13,5.91,2.26,8.83,3.29,11.09,3.9,22.42,6.44,34.27,5.87,5.32-.26,10.44-1.37,15-4.31,6.85-4.4,8.7-13.37,4.23-19.18a17.07,17.07,0,0,0-7.17-5c-5.93-2.53-12.22-3.7-18.47-5a140.55,140.55,0,0,1-17.17-4.34,39.4,39.4,0,0,1-10-5c-5.49-3.87-8.19-9.32-8.64-15.86-.47-6.83,1.07-13.2,5.48-18.63a28.75,28.75,0,0,1,12.72-8.63c6.56-2.44,13.36-3,20.28-3C1255,110.32,1266.73,112.77,1278.59,116.73Z"/><path class="cls-4" d="M873.77,61.76h13.61c.56,1.77.83,138.94.28,146H873.77Z"/><path class="cls-5" d="M767.77,110.92v13.75a301.09,301.09,0,0,0-39,2v81.14h-14V116C721.57,113.65,755.53,110,767.77,110.92Z"/><path class="cls-4" d="M822.77,113.76v94.48c-2.29.46-4.59.16-6.87.21s-4.47,0-6.69,0c-.51-1.72-.71-90.14-.21-94.7Z"/><path class="cls-6" d="M823.77,275.94c5.11,0,10.21,0,15.32,0a14.13,14.13,0,0,1,2.49.37,17.81,17.81,0,0,1,14.21,14.84,31.59,31.59,0,0,1-.13,9.61c-1.23,7.71-6.69,13.15-14.59,14.48a42.85,42.85,0,0,1-6.2.51c-3.66.08-7.32,0-11.1,0Zm7,34.4c2.82-.12,5.46-.08,8.06-.39,5.49-.65,9-3.87,10.22-9.25a23,23,0,0,0-.15-10.9,10.4,10.4,0,0,0-7.84-7.9c-3.36-.87-6.77-.61-10.29-.5Z"/><path class="cls-7" d="M1082.77,315.76H1078l-1-3.68c-.38.31-.69.52-1,.77-6.37,6-17.09,2.47-19.1-6.06a24.67,24.67,0,0,1,.19-12.19,11.69,11.69,0,0,1,19.07-5.61l.64.58V273.76h6ZM1077.39,301a49.55,49.55,0,0,0-1-5.81,5.63,5.63,0,0,0-5.06-4.42c-2.86-.34-5.51-.06-7.07,2.78-2.46,4.5-2.34,9.15-.52,13.83a5.87,5.87,0,0,0,.73,1.23c1.83,2.43,4.39,2.74,7.12,2.29a5.57,5.57,0,0,0,4.79-4.14A54.61,54.61,0,0,0,1077.39,301Z"/><path class="cls-8" d="M890.41,302.76H870.56c-.2,5.06,2.52,8.32,7.29,8.79a17.28,17.28,0,0,0,8.23-1.09c.81-.33,1.66-.56,2.69-.91v5.16a12.76,12.76,0,0,1-1.51.72,23.94,23.94,0,0,1-13.46.68,12.08,12.08,0,0,1-9.47-9.46c-1.15-4.91-1.07-9.83,1.46-14.43a12,12,0,0,1,9.55-6.38,13.27,13.27,0,0,1,1.67-.13c7.92-.21,12.82,4.17,13.47,12.05.1,1.19.07,2.4.07,3.59C890.55,301.74,890.47,302.13,890.41,302.76Zm-17.69-1.08,11.68-5.13c-.22-3.71-2.45-5.84-6.1-6.07A6.82,6.82,0,0,0,872.72,301.68Z"/><path class="cls-8" d="M1047.77,314.76c-1,.34-1.93.74-2.91,1a24.27,24.27,0,0,1-11.61.43c-5.59-1.16-9-4.67-10.23-10.15a22,22,0,0,1,.51-11.46,12.6,12.6,0,0,1,10.78-8.82,15.59,15.59,0,0,1,7.74.86,11.61,11.61,0,0,1,7.09,9.28c.37,2.15.06,4.43.06,6.84h-19.8c-.18,5,2.46,8.23,7.07,8.74a17.36,17.36,0,0,0,7.79-.83c1.11-.4,2.25-.75,3.51-1.17Zm-18.39-17h13.41c-.32-5-2.43-7.26-6.58-7.24S1029.67,293,1029.38,297.76Z"/><path class="cls-6" d="M667.06,315.76h-4.37l-1.4-4c-.5.42-.87.68-1.18,1A12.88,12.88,0,0,1,646,315.3a7.78,7.78,0,0,1-2-1.35c-4.32-4.07-2.87-12.14,2.57-14.48a25.65,25.65,0,0,1,9.36-1.79c1.5-.05,3,0,4.8,0,0-1.08.07-1.93,0-2.77-.29-2.84-1.79-4.27-4.65-4.51a16.47,16.47,0,0,0-7,1.19c-.74.26-1.47.58-2.39.95l-2.09-4.63c1.8-.67,3.38-1.38,5-1.84a22.6,22.6,0,0,1,9.75-.44c4.58.74,7.54,3.63,7.68,8.15C667.22,301,667.06,308.29,667.06,315.76Zm-6.2-14.19c-3,.27-5.5.4-8,.77a6.83,6.83,0,0,0-3,1.34c-2.36,1.8-2.11,5.88.38,7.12,3.6,1.8,9.66-.24,10.31-4.7C660.72,304.78,660.73,303.43,660.86,301.57Z"/><path class="cls-8" d="M989.56,302.76h-20c-.18,5.09,2.56,8.36,7.32,8.82a17.41,17.41,0,0,0,8.23-1.1c.81-.32,1.65-.56,2.69-.91v5.17a12.24,12.24,0,0,1-1.52.72,24.06,24.06,0,0,1-13.47.68,12.15,12.15,0,0,1-9.53-9.69c-1.09-4.93-1-9.85,1.63-14.41a12,12,0,0,1,9.21-6.15,17.39,17.39,0,0,1,1.9-.16c8.14-.2,13.29,4.65,13.56,12.79C989.59,299.86,989.56,301.2,989.56,302.76Zm-19.5-5,13.23.75c.62-4.63-1.56-7.61-5.5-8C973.39,290.07,970.13,293.15,970.06,297.78Z"/><path class="cls-6" d="M745,300.45c-.09,4-.57,7.4-2.65,10.34a11.93,11.93,0,0,1-6.19,4.66,17.58,17.58,0,0,1-8.51.59c-6.17-1.05-10.37-5.57-11-12.14a29.58,29.58,0,0,1,.35-8.08c1.08-6,5.41-9.75,11.51-10.4a15.84,15.84,0,0,1,8.23.95c4.82,2.12,7.32,6,8,11.06C744.93,298.61,744.94,299.81,745,300.45Zm-22.14.32a46.82,46.82,0,0,0,1.16,5.82c1,3,3.5,4.46,6.9,4.42a6.55,6.55,0,0,0,6.57-4.58,17.9,17.9,0,0,0,0-11.3,5.85,5.85,0,0,0-5-4.3c-2.76-.34-5.41-.29-7.39,2.2C723.28,295.33,723.19,298,722.85,300.77Z"/><path class="cls-6" d="M603.65,300.79c0,3.39-.38,6.67-2.31,9.6a12,12,0,0,1-6.45,5.06,17.37,17.37,0,0,1-8.52.59c-5.86-1-9.89-5.14-10.88-11.21a23.75,23.75,0,0,1,.33-9.75,12.62,12.62,0,0,1,11-9.61,16.33,16.33,0,0,1,8.48.82c5.34,2.26,7.8,6.54,8.36,12.11A23.82,23.82,0,0,1,603.65,300.79Zm-6.42,0a31,31,0,0,0-.85-5.2c-1.22-3.65-3.37-4.9-6.76-4.95-3.76-.06-6.07,1.47-7.07,4.84a18.1,18.1,0,0,0,0,10.61c1,3.27,3.49,4.93,7.06,4.89a6.62,6.62,0,0,0,6.74-5A46.23,46.23,0,0,0,597.23,300.82Z"/><path class="cls-9" d="M760.15,315.76H754c-.47-1.69-.63-26.11-.18-30h5.15c.28,1.06.58,2.25.94,3.67l1.1-.94a12.92,12.92,0,0,1,13.73-2.42,7.94,7.94,0,0,1,4.89,5.74,17,17,0,0,1,.44,3.47c0,6.16,0,12.32,0,18.48a9.51,9.51,0,0,1-.13,1H774a3.86,3.86,0,0,1-.16-1.11c0-4.88,0-9.75,0-14.63,0-.72,0-1.44,0-2.16-.35-5.67-5.5-8.29-10.32-5.13a6.06,6.06,0,0,0-2.24,3,21.54,21.54,0,0,0-1,5.84C760.05,305.5,760.15,315.76,760.15,315.76Z"/><path class="cls-9" d="M509.77,315.76h-6v-30h4.65c.33,1.17.65,2.33,1,3.48l.66.36a5.71,5.71,0,0,1,.79-1.39c3.47-3.4,10.21-4.11,14.36-1.66a8.08,8.08,0,0,1,4,6,19.64,19.64,0,0,1,.3,3.25c0,5.92,0,11.84,0,17.76a10.69,10.69,0,0,1-.14,1.24h-6.23a4.43,4.43,0,0,1-.14-1.11c0-5.19,0-10.39,0-15.58a17.22,17.22,0,0,0-.45-3.79,4.41,4.41,0,0,0-4.29-3.54,16.5,16.5,0,0,0-2.63,0,5.63,5.63,0,0,0-5.39,4.36,24,24,0,0,0-.76,5.67c-.11,4.15,0,8.31.27,12.46Z"/><path class="cls-9" d="M545.77,315.76h-6v-30h4.84c.31,1.14.62,2.31.93,3.49l.45.25a5.67,5.67,0,0,1,.72-1.14,12.85,12.85,0,0,1,14.78-1.73c2.82,1.64,3.88,4.35,4.22,7.61a14.35,14.35,0,0,1,.08,1.61c0,5.88,0,11.76,0,17.64,0,.38,0,.76-.08,1.27h-5.5a3.2,3.2,0,0,1-.15-1c0-5.12,0-10.23,0-15.35a23,23,0,0,0-.08-2.63c-.38-3.33-2.23-5-5.55-5.11-4.45-.13-6.73,1.59-7.62,5.93a22.82,22.82,0,0,0-.38,4.29,80.89,80.89,0,0,1-.67,12.23Z"/><path class="cls-6" d="M630.85,286.76h6.73l-11.11,29h-7.2l-11.5-30h7s5.37,15.71,8,23.34C625.4,301.57,630.85,286.76,630.85,286.76Z"/><path class="cls-6" d="M951.9,285.76h6.52c-.15,1.69-9.36,26.3-11.21,30h-7L928.81,286c2.31-.6,4.44-.19,6.87-.3l8.11,23.47C946.42,301.58,949.14,293.72,951.9,285.76Z"/><path class="cls-10" d="M678.77,290.76h-4v-3.14c.83-.49,1.8-1.16,2.83-1.66a3.17,3.17,0,0,0,1.67-2.2c.47-1.65,1-3.26,1.59-5h3.91v7h9v5h-9v3.79c0,3.83.11,7.68,0,11.51-.12,3,1.44,5.43,5.51,4.94,1.12-.14,2.24-.32,3.52-.51v4.68c-3.7,1.31-7.51,1.72-11.24-.09a6.38,6.38,0,0,1-3.4-4.92,26.14,26.14,0,0,1-.34-4.05c0-4.24,0-8.47,0-12.71Z"/><path class="cls-5" d="M815.55,88.88a10.17,10.17,0,0,1-10.26-10.11,10.32,10.32,0,1,1,10.26,10.11Z"/><path class="cls-11" d="M906,315.76h-6.19V273.63c2-.6,4-.1,6-.28C906.28,275.18,906.44,312.05,906,315.76Z"/><path class="cls-9" d="M1004.77,315.76h-6V286a7.73,7.73,0,0,1,1.11-.15c1.12,0,2.23,0,3.45,0,.35,1.75.66,3.35,1.06,5.35,2.88-4.68,6.52-6.74,11.69-5.46-.16,1.87-.33,3.75-.52,5.79-.87,0-1.67-.1-2.47-.11-4.84-.11-8.16,3.16-8.29,8.31-.1,4.4,0,8.8,0,13.19Z"/><path class="cls-9" d="M485.77,275.76h6v40h-6Z"/><path class="cls-9" d="M922.77,315.76h-6.1c-.52-1.68-.72-25.39-.24-30h6.34Z"/><path class="cls-12" d="M701.77,285.76h6v30h-6Z"/><path class="cls-9" d="M1096.93,316.27a4.09,4.09,0,0,1,0-8.18c2.69,0,4.09,1.4,4.09,4.1S1099.67,316.29,1096.93,316.27Z"/><path class="cls-8" d="M797.85,312.14c0,2.63-1.48,4.12-4.11,4.12s-4.09-1.48-4-4.16a3.66,3.66,0,0,1,4-4A3.75,3.75,0,0,1,797.85,312.14Z"/><path class="cls-11" d="M704.5,281.32c-2.45,0-3.74-1.21-3.73-3.59a3.67,3.67,0,0,1,7.34-.12C708.18,280,707,281.28,704.5,281.32Z"/><path class="cls-9" d="M919.67,281.32c-2.49,0-3.69-1.2-3.65-3.65a3.37,3.37,0,0,1,3.66-3.49,3.47,3.47,0,0,1,3.7,3.5C923.42,280,922.12,281.32,919.67,281.32Z"/></svg>