<?xml version="1.0" encoding="utf-8"?>
<!-- Generator: Adobe Illustrator 24.2.3, SVG Export Plug-In . SVG Version: 6.00 Build 0)  -->
<svg version="1.1" id="Layer_1" xmlns="http://www.w3.org/2000/svg" xmlns:xlink="http://www.w3.org/1999/xlink" x="0px" y="0px"
	 viewBox="0 0 58.05 17.06" style="enable-background:new 0 0 58.05 17.06;" xml:space="preserve">
<style type="text/css">
	.st0{fill:#FFFFFF;}
</style>
<g>
	<g>
		<g>
			<path class="st0" d="M19.76,3.52h0.73l2.16,3.27l2.17-3.27h0.72l-2.56,3.93v2.19h-0.64V7.45L19.76,3.52z"/>
		</g>
		<g>
			<path class="st0" d="M30.15,5.57v4.07h-0.61V9.26c-0.52,0.34-0.98,0.5-1.56,0.5c-1.24,0-2.07-0.89-2.07-2.23
				c0.01-1.31,0.8-2.19,2.1-2.19C28.8,5.34,29.32,5.4,30.15,5.57z M26.53,7.55c0,1,0.59,1.68,1.53,1.68c0.49,0,0.93-0.13,1.48-0.5
				V5.99c-0.52-0.08-0.94-0.12-1.44-0.12C27.07,5.87,26.53,6.56,26.53,7.55z"/>
		</g>
		<g>
			<path class="st0" d="M34.6,5.98C34,5.98,33.51,6,32.9,6.07v3.56h-0.61V5.59c0.76-0.14,1.54-0.22,2.31-0.22V5.98z"/>
		</g>
		<g>
			<path class="st0" d="M36.23,3.97c0-0.26,0.2-0.45,0.45-0.45s0.45,0.19,0.45,0.45c0,0.25-0.2,0.44-0.45,0.44
				S36.23,4.23,36.23,3.97z M36.98,9.63h-0.61V5.48h0.61V9.63z"/>
		</g>
		<g>
			<path class="st0" d="M39.84,9.63h-0.61V3.25h0.61V9.63z"/>
		</g>
		<g>
			<path class="st0" d="M45.81,5.57v4.07H45.2V9.26c-0.52,0.34-0.98,0.5-1.56,0.5c-1.24,0-2.07-0.89-2.07-2.23
				c0.01-1.31,0.8-2.19,2.1-2.19C44.46,5.34,44.97,5.4,45.81,5.57z M42.18,7.55c0,1,0.59,1.68,1.53,1.68c0.49,0,0.93-0.13,1.48-0.5
				V5.99c-0.52-0.08-0.94-0.12-1.44-0.12C42.72,5.87,42.18,6.56,42.18,7.55z"/>
		</g>
		<g>
			<path class="st0" d="M48.41,5.53c0.5-0.14,0.98-0.19,1.48-0.19c1.37,0,2.15,0.88,2.15,2.19c0,1.38-0.85,2.22-2.07,2.22
				c-0.65,0-1.06,0.01-2.17-0.2v-6.3h0.61V5.53z M48.42,6.06v3.05c0.72,0.13,1.05,0.13,1.44,0.13c1.01,0,1.57-0.68,1.57-1.71
				c0-0.98-0.54-1.65-1.6-1.65C49.4,5.87,48.95,5.91,48.42,6.06z"/>
		</g>
		<g>
			<path class="st0" d="M53.65,8.84c0.59,0.26,1.24,0.41,1.74,0.41c0.63,0,1.09-0.25,1.09-0.72c0-0.53-0.61-0.63-1.43-0.8
				c-0.9-0.19-1.37-0.47-1.37-1.15c0-0.78,0.62-1.23,1.65-1.23c0.55,0,1.17,0.14,1.6,0.29l-0.16,0.49c-0.5-0.16-1.06-0.27-1.48-0.27
				c-0.64,0-1,0.24-1,0.7c0,0.43,0.38,0.53,1.11,0.7c0.99,0.22,1.66,0.41,1.66,1.22c0,0.85-0.7,1.29-1.7,1.29
				c-0.58,0-1.27-0.16-1.85-0.41L53.65,8.84z"/>
		</g>
	</g>
	<g>
		<path class="st0" d="M22.21,14.35V12.6h0.29v1.74H22.21z"/>
		<path class="st0" d="M24.15,14.35h-0.28v-0.81c0-0.1-0.02-0.18-0.06-0.23s-0.11-0.08-0.19-0.08c-0.12,0-0.21,0.04-0.26,0.1
			c-0.05,0.07-0.08,0.19-0.08,0.35v0.66h-0.28v-1.32h0.22l0.04,0.17h0.01c0.04-0.06,0.1-0.11,0.17-0.15
			c0.07-0.03,0.15-0.05,0.24-0.05c0.32,0,0.48,0.16,0.48,0.48V14.35z"/>
		<path class="st0" d="M25.76,14.35h-0.28v-0.81c0-0.1-0.02-0.18-0.06-0.23c-0.04-0.05-0.11-0.08-0.19-0.08
			c-0.12,0-0.21,0.04-0.26,0.1c-0.05,0.07-0.08,0.19-0.08,0.35v0.66H24.6v-1.32h0.22l0.04,0.17h0.01c0.04-0.06,0.1-0.11,0.17-0.15
			s0.15-0.05,0.24-0.05c0.32,0,0.48,0.16,0.48,0.48V14.35z"/>
		<path class="st0" d="M27.38,13.69c0,0.22-0.06,0.38-0.17,0.5c-0.11,0.12-0.26,0.18-0.46,0.18c-0.12,0-0.23-0.03-0.33-0.08
			c-0.09-0.06-0.17-0.14-0.22-0.24c-0.05-0.1-0.08-0.23-0.08-0.36c0-0.21,0.06-0.38,0.16-0.5c0.11-0.12,0.26-0.18,0.46-0.18
			c0.19,0,0.34,0.06,0.45,0.18C27.33,13.31,27.38,13.48,27.38,13.69z M26.42,13.69c0,0.3,0.11,0.46,0.34,0.46
			c0.22,0,0.33-0.15,0.33-0.46c0-0.3-0.11-0.45-0.34-0.45c-0.12,0-0.2,0.04-0.26,0.12C26.45,13.43,26.42,13.54,26.42,13.69z"/>
		<path class="st0" d="M28.06,14.35l-0.5-1.32h0.3l0.27,0.77c0.05,0.13,0.07,0.23,0.08,0.31h0.01c0.01-0.06,0.03-0.16,0.08-0.31
			l0.27-0.77h0.3l-0.5,1.32H28.06z"/>
		<path class="st0" d="M29.96,14.35l-0.06-0.18h-0.01c-0.06,0.08-0.13,0.14-0.19,0.16c-0.06,0.03-0.15,0.04-0.25,0.04
			c-0.13,0-0.23-0.03-0.3-0.1c-0.07-0.07-0.11-0.17-0.11-0.3c0-0.14,0.05-0.24,0.15-0.31c0.1-0.07,0.25-0.11,0.46-0.11l0.23-0.01
			v-0.07c0-0.08-0.02-0.15-0.06-0.19c-0.04-0.04-0.1-0.06-0.18-0.06c-0.07,0-0.13,0.01-0.19,0.03c-0.06,0.02-0.12,0.04-0.18,0.07
			l-0.09-0.2c0.07-0.04,0.15-0.07,0.23-0.09c0.08-0.02,0.17-0.03,0.24-0.03c0.17,0,0.29,0.04,0.38,0.11
			c0.09,0.07,0.13,0.19,0.13,0.35v0.89H29.96z M29.54,14.16c0.1,0,0.18-0.03,0.25-0.09c0.06-0.06,0.09-0.14,0.09-0.24v-0.11
			l-0.17,0.01c-0.13,0.01-0.23,0.03-0.29,0.07c-0.06,0.04-0.09,0.1-0.09,0.18c0,0.06,0.02,0.1,0.05,0.14
			C29.42,14.14,29.47,14.16,29.54,14.16z"/>
		<path class="st0" d="M31.1,14.14c0.07,0,0.14-0.01,0.21-0.03v0.21c-0.03,0.01-0.07,0.02-0.12,0.03c-0.05,0.01-0.1,0.01-0.15,0.01
			c-0.27,0-0.4-0.14-0.4-0.42v-0.71h-0.18v-0.12l0.19-0.1l0.1-0.28h0.17v0.29h0.38v0.21h-0.38v0.71c0,0.07,0.02,0.12,0.05,0.15
			C31,14.13,31.05,14.14,31.1,14.14z"/>
		<path class="st0" d="M31.62,12.68c0-0.05,0.01-0.09,0.04-0.12c0.03-0.03,0.07-0.04,0.12-0.04c0.05,0,0.09,0.01,0.11,0.04
			c0.03,0.03,0.04,0.07,0.04,0.12c0,0.05-0.01,0.09-0.04,0.11c-0.03,0.03-0.07,0.04-0.11,0.04c-0.05,0-0.09-0.01-0.12-0.04
			C31.63,12.76,31.62,12.73,31.62,12.68z M31.91,14.35h-0.28v-1.32h0.28V14.35z"/>
		<path class="st0" d="M33.54,13.69c0,0.22-0.06,0.38-0.17,0.5c-0.11,0.12-0.26,0.18-0.46,0.18c-0.12,0-0.23-0.03-0.33-0.08
			c-0.09-0.06-0.17-0.14-0.22-0.24c-0.05-0.1-0.08-0.23-0.08-0.36c0-0.21,0.06-0.38,0.16-0.5c0.11-0.12,0.26-0.18,0.46-0.18
			c0.19,0,0.34,0.06,0.45,0.18C33.49,13.31,33.54,13.48,33.54,13.69z M32.58,13.69c0,0.3,0.11,0.46,0.34,0.46
			c0.22,0,0.33-0.15,0.33-0.46c0-0.3-0.11-0.45-0.34-0.45c-0.12,0-0.2,0.04-0.26,0.12C32.61,13.43,32.58,13.54,32.58,13.69z"/>
		<path class="st0" d="M35.09,14.35h-0.28v-0.81c0-0.1-0.02-0.18-0.06-0.23c-0.04-0.05-0.11-0.08-0.19-0.08
			c-0.12,0-0.21,0.04-0.26,0.1c-0.05,0.07-0.08,0.19-0.08,0.35v0.66h-0.28v-1.32h0.22l0.04,0.17h0.01c0.04-0.06,0.1-0.11,0.17-0.15
			c0.07-0.03,0.15-0.05,0.24-0.05c0.32,0,0.48,0.16,0.48,0.48V14.35z"/>
		<path class="st0" d="M35.5,14.2c0-0.06,0.02-0.1,0.04-0.13c0.03-0.03,0.07-0.05,0.13-0.05c0.06,0,0.1,0.02,0.13,0.05
			c0.03,0.03,0.05,0.08,0.05,0.13c0,0.06-0.02,0.1-0.05,0.13c-0.03,0.03-0.07,0.05-0.13,0.05c-0.06,0-0.1-0.02-0.13-0.05
			C35.51,14.3,35.5,14.26,35.5,14.2z"/>
		<path class="st0" d="M38.42,13.46c0,0.29-0.08,0.51-0.24,0.66c-0.16,0.15-0.39,0.23-0.69,0.23H37V12.6h0.54
			c0.28,0,0.49,0.07,0.65,0.22C38.34,12.98,38.42,13.19,38.42,13.46z M38.12,13.47c0-0.42-0.2-0.63-0.59-0.63h-0.25v1.27h0.2
			C37.91,14.11,38.12,13.89,38.12,13.47z"/>
		<path class="st0" d="M39.4,14.37c-0.21,0-0.37-0.06-0.48-0.18c-0.12-0.12-0.17-0.28-0.17-0.49c0-0.22,0.05-0.38,0.16-0.51
			c0.11-0.12,0.25-0.19,0.44-0.19c0.17,0,0.31,0.05,0.41,0.16c0.1,0.1,0.15,0.25,0.15,0.44v0.15h-0.88c0,0.13,0.04,0.23,0.1,0.3
			c0.07,0.07,0.16,0.1,0.28,0.1c0.08,0,0.15-0.01,0.22-0.02c0.07-0.02,0.14-0.04,0.22-0.07v0.23c-0.07,0.03-0.14,0.06-0.21,0.07
			C39.57,14.36,39.49,14.37,39.4,14.37z M39.35,13.22c-0.09,0-0.16,0.03-0.21,0.09s-0.09,0.14-0.1,0.25h0.6
			c0-0.11-0.03-0.19-0.08-0.25C39.51,13.25,39.44,13.22,39.35,13.22z"/>
		<path class="st0" d="M40.57,14.35h-0.28v-1.86h0.28V14.35z"/>
		<path class="st0" d="M41.02,12.68c0-0.05,0.01-0.09,0.04-0.12c0.03-0.03,0.07-0.04,0.12-0.04c0.05,0,0.09,0.01,0.11,0.04
			c0.03,0.03,0.04,0.07,0.04,0.12c0,0.05-0.01,0.09-0.04,0.11c-0.03,0.03-0.07,0.04-0.11,0.04c-0.05,0-0.09-0.01-0.12-0.04
			C41.03,12.76,41.02,12.73,41.02,12.68z M41.31,14.35h-0.28v-1.32h0.28V14.35z"/>
		<path class="st0" d="M42.08,14.35l-0.5-1.32h0.3l0.27,0.77c0.05,0.13,0.07,0.23,0.08,0.31h0.01c0.01-0.06,0.03-0.16,0.08-0.31
			l0.27-0.77h0.3l-0.5,1.32H42.08z"/>
		<path class="st0" d="M43.72,14.37c-0.21,0-0.37-0.06-0.48-0.18c-0.12-0.12-0.17-0.28-0.17-0.49c0-0.22,0.05-0.38,0.16-0.51
			c0.11-0.12,0.25-0.19,0.44-0.19c0.17,0,0.31,0.05,0.41,0.16c0.1,0.1,0.15,0.25,0.15,0.44v0.15h-0.88c0,0.13,0.04,0.23,0.1,0.3
			c0.07,0.07,0.16,0.1,0.28,0.1c0.08,0,0.15-0.01,0.22-0.02c0.07-0.02,0.14-0.04,0.22-0.07v0.23c-0.07,0.03-0.14,0.06-0.21,0.07
			C43.89,14.36,43.81,14.37,43.72,14.37z M43.67,13.22c-0.09,0-0.16,0.03-0.21,0.09c-0.05,0.06-0.09,0.14-0.1,0.25h0.6
			c0-0.11-0.03-0.19-0.08-0.25C43.83,13.25,43.76,13.22,43.67,13.22z"/>
		<path class="st0" d="M45.28,13.01c0.06,0,0.1,0,0.14,0.01l-0.03,0.26c-0.04-0.01-0.08-0.01-0.12-0.01c-0.11,0-0.2,0.04-0.27,0.11
			c-0.07,0.07-0.1,0.17-0.1,0.29v0.69h-0.28v-1.32h0.22l0.04,0.23h0.01c0.04-0.08,0.1-0.14,0.17-0.19
			C45.12,13.03,45.2,13.01,45.28,13.01z"/>
		<path class="st0" d="M46.3,14.37c-0.21,0-0.37-0.06-0.48-0.18c-0.12-0.12-0.17-0.28-0.17-0.49c0-0.22,0.05-0.38,0.16-0.51
			c0.11-0.12,0.25-0.19,0.44-0.19c0.17,0,0.31,0.05,0.41,0.16c0.1,0.1,0.15,0.25,0.15,0.44v0.15h-0.88c0,0.13,0.04,0.23,0.1,0.3
			c0.07,0.07,0.16,0.1,0.28,0.1c0.08,0,0.15-0.01,0.22-0.02c0.07-0.02,0.14-0.04,0.22-0.07v0.23c-0.07,0.03-0.14,0.06-0.21,0.07
			C46.47,14.36,46.39,14.37,46.3,14.37z M46.25,13.22c-0.09,0-0.16,0.03-0.21,0.09c-0.05,0.06-0.09,0.14-0.1,0.25h0.6
			c0-0.11-0.03-0.19-0.08-0.25C46.41,13.25,46.34,13.22,46.25,13.22z"/>
		<path class="st0" d="M47.64,14.37c-0.16,0-0.29-0.06-0.38-0.18c-0.09-0.12-0.14-0.29-0.14-0.5s0.05-0.38,0.14-0.51
			c0.09-0.12,0.22-0.18,0.39-0.18c0.17,0,0.31,0.06,0.4,0.19h0.01c-0.01-0.1-0.02-0.17-0.02-0.23v-0.48h0.28v1.86H48.1l-0.05-0.17
			h-0.01C47.95,14.31,47.81,14.37,47.64,14.37z M47.72,14.14c0.12,0,0.2-0.03,0.25-0.1c0.05-0.06,0.08-0.17,0.08-0.32v-0.04
			c0-0.17-0.03-0.28-0.08-0.36c-0.05-0.07-0.14-0.1-0.25-0.1c-0.1,0-0.17,0.04-0.23,0.12c-0.05,0.08-0.08,0.19-0.08,0.34
			c0,0.15,0.03,0.26,0.08,0.33C47.53,14.11,47.61,14.14,47.72,14.14z"/>
		<path class="st0" d="M48.74,14.2c0-0.06,0.02-0.1,0.04-0.13c0.03-0.03,0.07-0.05,0.13-0.05c0.06,0,0.1,0.02,0.13,0.05
			c0.03,0.03,0.05,0.08,0.05,0.13c0,0.06-0.02,0.1-0.05,0.13c-0.03,0.03-0.07,0.05-0.13,0.05c-0.06,0-0.1-0.02-0.13-0.05
			C48.75,14.3,48.74,14.26,48.74,14.2z"/>
	</g>
	<g>
		<g>
			<path class="st0" d="M11.55,0.64l2.28,4.18c0,0.01,0.01,0.02,0.01,0.03c1.35,3.35-8.06,9.63-11.27,11.65
				c-0.2,0.12-0.41-0.12-0.27-0.3c2.27-2.81,8.73-11.18,8.86-15.47C11.17,0.52,11.45,0.45,11.55,0.64z"/>
		</g>
		<g>
			<path class="st0" d="M1.18,2.78L4.8,3.54C4.91,3.56,4.98,3.65,5,3.76c0.12,0.97,1.06,3.33,1.49,4.38
				c0.06,0.15-0.11,0.28-0.24,0.18c-1.36-1-5.33-4.05-5.26-5.41C0.99,2.82,1.09,2.76,1.18,2.78z"/>
		</g>
	</g>
</g>
</svg>
